<svg xmlns="http://www.w3.org/2000/svg" viewBox="0 0 500 500"><g id="freepik--Wall--inject-50"><g id="freepik--wall--inject-50"><path d="M257,67.15v5.2c0,1.64,1.15,2.3,2.57,1.48L283.39,60.1A5.68,5.68,0,0,0,286,55.65v-5.2c0-1.64-1.15-2.31-2.57-1.49L259.6,62.7A5.68,5.68,0,0,0,257,67.15Z" style="fill:#f0f0f0"></path><path d="M459.6,190.29l-20.94,12.09a5.68,5.68,0,0,0-2.57,4.45V212c0,1.64,1.15,2.3,2.57,1.48l20.94-12.09Z" style="fill:#f0f0f0"></path><path d="M454.58,218l5-2.89V203.92l-5,2.9a5.68,5.68,0,0,0-2.57,4.45v5.2C452,218.11,453.16,218.77,454.58,218Z" style="fill:#f0f0f0"></path><path d="M74.41,212.89,50.62,226.62a4.66,4.66,0,0,0-.9.72v10.74a2.58,2.58,0,0,0,.9-.32L74.41,224A5.68,5.68,0,0,0,77,219.57v-5.2C77,212.73,75.83,212.07,74.41,212.89Z" style="fill:#f0f0f0"></path><path d="M74.19,324.73,50.4,338.46a4.09,4.09,0,0,0-.68.52v10.89a2.35,2.35,0,0,0,.68-.27l23.79-13.74a5.68,5.68,0,0,0,2.57-4.45v-5.2C76.76,324.57,75.61,323.91,74.19,324.73Z" style="fill:#f0f0f0"></path><path d="M74.41,267.58,50.62,281.32a4,4,0,0,0-.9.72v10.74a2.42,2.42,0,0,0,.9-.33l23.79-13.73A5.68,5.68,0,0,0,77,274.27v-5.2C77,267.43,75.83,266.76,74.41,267.58Z" style="fill:#f0f0f0"></path><path d="M338,87.37,314.16,101.1a5.68,5.68,0,0,0-2.57,4.45v5.2c0,1.64,1.15,2.31,2.57,1.49L338,98.5a5.68,5.68,0,0,0,2.57-4.45v-5.2C340.52,87.21,339.37,86.55,338,87.37Z" style="fill:#f0f0f0"></path><path d="M353,65.09,329.18,78.82a5.68,5.68,0,0,0-2.57,4.45v5.2c0,1.64,1.15,2.31,2.57,1.49L353,76.22a5.68,5.68,0,0,0,2.57-4.45v-5.2C355.54,64.93,354.39,64.27,353,65.09Z" style="fill:#f0f0f0"></path><path d="M183.19,231.26,159.4,245a5.68,5.68,0,0,0-2.57,4.45v5.2c0,1.64,1.15,2.3,2.57,1.48l23.79-13.73a5.68,5.68,0,0,0,2.57-4.45v-5.2C185.76,231.11,184.61,230.44,183.19,231.26Z" style="fill:#f0f0f0"></path><path d="M249.68,168.58v5.2c0,1.64,1.15,2.3,2.57,1.49L276,161.53a5.68,5.68,0,0,0,2.57-4.45v-5.2c0-1.64-1.15-2.3-2.57-1.48l-23.79,13.73A5.68,5.68,0,0,0,249.68,168.58Z" style="fill:#f0f0f0"></path><path d="M218.73,147.05v5.2c0,1.63,1.15,2.3,2.57,1.48L245.09,140a5.66,5.66,0,0,0,2.57-4.45v-5.2c0-1.64-1.15-2.3-2.57-1.48L221.3,142.59A5.69,5.69,0,0,0,218.73,147.05Z" style="fill:#f0f0f0"></path><path d="M291.07,73.42,267.28,87.15a5.69,5.69,0,0,0-2.57,4.46v5.2c0,1.63,1.15,2.3,2.57,1.48l23.79-13.74a5.68,5.68,0,0,0,2.57-4.45V74.9C293.64,73.26,292.49,72.6,291.07,73.42Z" style="fill:#f0f0f0"></path><path d="M167.26,172.13l-23.79,13.73a5.69,5.69,0,0,0-2.57,4.45v5.2c0,1.64,1.15,2.31,2.57,1.49l23.79-13.74a5.68,5.68,0,0,0,2.57-4.45v-5.2C169.83,172,168.68,171.31,167.26,172.13Z" style="fill:#f0f0f0"></path><path d="M252.25,230,276,216.23a5.69,5.69,0,0,0,2.57-4.46v-5.2c0-1.63-1.15-2.3-2.57-1.48l-23.79,13.74a5.68,5.68,0,0,0-2.57,4.45v5.2C249.68,230.12,250.83,230.78,252.25,230Z" style="fill:#f0f0f0"></path><path d="M81.57,287.37l23.79-13.73a5.68,5.68,0,0,0,2.57-4.45V264c0-1.64-1.15-2.3-2.57-1.49L81.57,276.24A5.68,5.68,0,0,0,79,280.69v5.2C79,287.53,80.15,288.19,81.57,287.37Z" style="fill:#f0f0f0"></path><path d="M436.09,139.38v5.2c0,1.64,1.15,2.31,2.57,1.49L459.6,134V122.84l-20.94,12.09A5.68,5.68,0,0,0,436.09,139.38Z" style="fill:#f0f0f0"></path><path d="M221.3,357.19l23.79-13.73a5.68,5.68,0,0,0,2.57-4.45v-5.2c0-1.64-1.15-2.31-2.57-1.49L221.3,346.06a5.68,5.68,0,0,0-2.57,4.45v5.2C218.73,357.35,219.88,358,221.3,357.19Z" style="fill:#f0f0f0"></path><path d="M323.91,301l23.79-13.74a5.68,5.68,0,0,0,2.57-4.45v-5.2c0-1.64-1.15-2.3-2.57-1.48l-23.79,13.73a5.68,5.68,0,0,0-2.57,4.45v5.2C321.34,301.15,322.49,301.82,323.91,301Z" style="fill:#f0f0f0"></path><path d="M452.28,60.43v-5.2c0-1.64-1.15-2.3-2.57-1.48L425.92,67.48a5.69,5.69,0,0,0-2.57,4.46v5.2c0,1.63,1.15,2.3,2.57,1.48l23.79-13.74A5.68,5.68,0,0,0,452.28,60.43Z" style="fill:#f0f0f0"></path><path d="M107.93,405.93v-5.2c0-1.64-1.15-2.31-2.57-1.49L81.57,413A5.68,5.68,0,0,0,79,417.43v5.2c0,1.64,1.15,2.3,2.57,1.48l23.79-13.73A5.68,5.68,0,0,0,107.93,405.93Z" style="fill:#f0f0f0"></path><path d="M156.83,58v5.2c0,1.63,1.15,2.3,2.57,1.48L183.19,51a5.68,5.68,0,0,0,2.57-4.45v-5.2c0-1.64-1.15-2.3-2.57-1.48L159.4,53.56A5.69,5.69,0,0,0,156.83,58Z" style="fill:#f0f0f0"></path><path d="M459.6,163.38l-20.94,12.09a5.68,5.68,0,0,0-2.57,4.45v5.2c0,1.64,1.15,2.31,2.57,1.49l20.94-12.1Z" style="fill:#f0f0f0"></path><path d="M59.38,247.93l-9.66,5.58v11.14l9.66-5.59A5.66,5.66,0,0,0,62,254.61v-5.2C62,247.77,60.8,247.11,59.38,247.93Z" style="fill:#f0f0f0"></path><path d="M97.5,401.21l23.79-13.74a5.68,5.68,0,0,0,2.57-4.45v-5.2c0-1.64-1.15-2.3-2.57-1.48L97.5,390.07a5.68,5.68,0,0,0-2.57,4.45v5.2C94.93,401.36,96.08,402,97.5,401.21Z" style="fill:#f0f0f0"></path><path d="M74.41,362.39,50.62,376.12a4.66,4.66,0,0,0-.9.72v10.74a2.58,2.58,0,0,0,.9-.32l23.79-13.74A5.68,5.68,0,0,0,77,369.07v-5.2C77,362.23,75.83,361.57,74.41,362.39Z" style="fill:#f0f0f0"></path><path d="M187.78,79.93v5.2c0,1.64,1.15,2.3,2.57,1.48l23.79-13.73a5.68,5.68,0,0,0,2.57-4.45v-5.2c0-1.64-1.15-2.31-2.57-1.49L190.35,75.48A5.68,5.68,0,0,0,187.78,79.93Z" style="fill:#f0f0f0"></path><path d="M59.38,165.89l-9.66,5.58V182.6L59.38,177A5.68,5.68,0,0,0,62,172.57v-5.2C62,165.73,60.8,165.07,59.38,165.89Z" style="fill:#f0f0f0"></path><path d="M105.36,125.77,81.57,139.5A5.68,5.68,0,0,0,79,144v5.2c0,1.64,1.15,2.3,2.57,1.49l23.79-13.74a5.68,5.68,0,0,0,2.57-4.45v-5.2C107.93,125.61,106.78,125,105.36,125.77Z" style="fill:#f0f0f0"></path><path d="M167.26,62.74,143.47,76.47a5.68,5.68,0,0,0-2.57,4.45v5.2c0,1.64,1.15,2.31,2.57,1.49l23.79-13.74a5.68,5.68,0,0,0,2.57-4.45v-5.2C169.83,62.58,168.68,61.92,167.26,62.74Z" style="fill:#f0f0f0"></path><path d="M159.4,365.53l23.79-13.74a5.68,5.68,0,0,0,2.57-4.45v-5.2c0-1.64-1.15-2.3-2.57-1.48L159.4,354.39a5.68,5.68,0,0,0-2.57,4.45V364C156.83,365.68,158,366.35,159.4,365.53Z" style="fill:#f0f0f0"></path><path d="M200.78,325.06v-5.2c0-1.64-1.15-2.3-2.57-1.48l-23.78,13.73a5.68,5.68,0,0,0-2.57,4.45v5.2c0,1.64,1.16,2.31,2.57,1.49l23.79-13.74A5.68,5.68,0,0,0,200.78,325.06Z" style="fill:#f0f0f0"></path><path d="M167.26,144.78l-23.79,13.74A5.66,5.66,0,0,0,140.9,163v5.2c0,1.64,1.15,2.3,2.57,1.48l23.79-13.73a5.69,5.69,0,0,0,2.57-4.46v-5.2C169.83,144.63,168.68,144,167.26,144.78Z" style="fill:#f0f0f0"></path><path d="M198.21,84.65,174.43,98.39a5.68,5.68,0,0,0-2.57,4.45V108c0,1.64,1.16,2.3,2.57,1.48l23.79-13.73a5.69,5.69,0,0,0,2.57-4.46v-5.2C200.78,84.5,199.63,83.83,198.21,84.65Z" style="fill:#f0f0f0"></path><path d="M94.93,257.78V263c0,1.64,1.15,2.31,2.57,1.49l23.79-13.74a5.68,5.68,0,0,0,2.57-4.45v-5.2c0-1.64-1.15-2.3-2.57-1.48L97.5,253.33A5.68,5.68,0,0,0,94.93,257.78Z" style="fill:#f0f0f0"></path><path d="M427.23,120.13,451,106.4a5.69,5.69,0,0,0,2.57-4.45v-5.2c0-1.64-1.15-2.31-2.57-1.49L427.23,109a5.68,5.68,0,0,0-2.57,4.45v5.2C424.66,120.29,425.81,121,427.23,120.13Z" style="fill:#f0f0f0"></path><path d="M97.5,373.86l23.79-13.74a5.68,5.68,0,0,0,2.57-4.45v-5.2c0-1.64-1.15-2.3-2.57-1.48L97.5,362.72a5.69,5.69,0,0,0-2.57,4.45v5.21C94.93,374,96.08,374.68,97.5,373.86Z" style="fill:#f0f0f0"></path><path d="M152.24,276.45l-23.79,13.74a5.68,5.68,0,0,0-2.57,4.45v5.2c0,1.64,1.15,2.3,2.57,1.48l23.79-13.73a5.68,5.68,0,0,0,2.57-4.45v-5.2C154.81,276.3,153.66,275.63,152.24,276.45Z" style="fill:#f0f0f0"></path><path d="M187.78,204.26v5.2c0,1.64,1.15,2.31,2.57,1.49l23.79-13.74a5.68,5.68,0,0,0,2.57-4.45v-5.2c0-1.64-1.15-2.3-2.57-1.48l-23.79,13.73A5.68,5.68,0,0,0,187.78,204.26Z" style="fill:#f0f0f0"></path><path d="M326.05,127.1v5.2c0,1.64,1.15,2.3,2.57,1.48l23.79-13.73A5.69,5.69,0,0,0,355,115.6v-5.2c0-1.64-1.15-2.31-2.57-1.49l-23.79,13.74A5.68,5.68,0,0,0,326.05,127.1Z" style="fill:#f0f0f0"></path><path d="M387.47,42.67v5.2c0,1.64,1.15,2.3,2.57,1.48l23.79-13.73a5.68,5.68,0,0,0,2.57-4.45V26c0-1.64-1.15-2.31-2.57-1.49L390,38.22A5.68,5.68,0,0,0,387.47,42.67Z" style="fill:#f0f0f0"></path><path d="M330.22,168.46v-5.2c0-1.64-1.15-2.31-2.57-1.49l-23.79,13.74a5.68,5.68,0,0,0-2.57,4.45v5.2c0,1.64,1.15,2.3,2.57,1.48l23.79-13.73A5.69,5.69,0,0,0,330.22,168.46Z" style="fill:#f0f0f0"></path><path d="M361.17,150.62v-5.21c0-1.63-1.15-2.3-2.57-1.48l-23.79,13.74a5.68,5.68,0,0,0-2.57,4.45v5.2c0,1.64,1.15,2.3,2.57,1.48l23.79-13.73A5.69,5.69,0,0,0,361.17,150.62Z" style="fill:#f0f0f0"></path><path d="M260.12,133.93l-23.79,13.73a5.68,5.68,0,0,0-2.57,4.45v5.2c0,1.64,1.15,2.31,2.57,1.49l23.79-13.74a5.68,5.68,0,0,0,2.57-4.45v-5.2C262.69,133.77,261.54,133.11,260.12,133.93Z" style="fill:#f0f0f0"></path><path d="M200.78,243v-5.2c0-1.64-1.15-2.31-2.57-1.49l-23.78,13.74a5.68,5.68,0,0,0-2.57,4.45v5.2c0,1.64,1.16,2.3,2.57,1.48l23.79-13.73A5.69,5.69,0,0,0,200.78,243Z" style="fill:#f0f0f0"></path><path d="M406.09,217.52l23.79-13.74a5.7,5.7,0,0,0,2.57-4.45v-5.2c0-1.64-1.16-2.3-2.57-1.49l-23.79,13.74a5.68,5.68,0,0,0-2.57,4.45V216C403.52,217.67,404.67,218.33,406.09,217.52Z" style="fill:#f0f0f0"></path><path d="M416.47,226.45l-23.79,13.74a5.68,5.68,0,0,0-2.57,4.45v5.2c0,1.64,1.15,2.3,2.57,1.48l23.79-13.73a5.69,5.69,0,0,0,2.57-4.45v-5.2C419,226.3,417.89,225.63,416.47,226.45Z" style="fill:#f0f0f0"></path><path d="M249.68,281.05v-5.2c0-1.64-1.15-2.31-2.57-1.49L223.32,288.1a5.68,5.68,0,0,0-2.57,4.45v5.2c0,1.64,1.15,2.3,2.57,1.48l23.79-13.73A5.68,5.68,0,0,0,249.68,281.05Z" style="fill:#f0f0f0"></path><path d="M231.74,361.91v-5.2c0-1.63-1.15-2.3-2.57-1.48L205.38,369a5.68,5.68,0,0,0-2.57,4.45v5.2c0,1.64,1.15,2.3,2.57,1.48l23.79-13.73A5.69,5.69,0,0,0,231.74,361.91Z" style="fill:#f0f0f0"></path><path d="M125.88,75.86v5.2c0,1.63,1.15,2.3,2.57,1.48L152.24,68.8a5.68,5.68,0,0,0,2.57-4.45v-5.2c0-1.64-1.15-2.3-2.57-1.48L128.45,71.4A5.69,5.69,0,0,0,125.88,75.86Z" style="fill:#f0f0f0"></path><path d="M169.83,397.6v-5.2c0-1.64-1.15-2.31-2.57-1.49l-23.79,13.74a5.68,5.68,0,0,0-2.57,4.45v5.2c0,1.64,1.15,2.3,2.57,1.48l23.79-13.73A5.69,5.69,0,0,0,169.83,397.6Z" style="fill:#f0f0f0"></path><path d="M59.38,439.36,49.72,445v11.13l9.66-5.58A5.68,5.68,0,0,0,62,446.05v-5.2C62,439.21,60.8,438.55,59.38,439.36Z" style="fill:#f0f0f0"></path><path d="M74.41,171,50.62,184.69a4,4,0,0,0-.9.72v10.74a2.42,2.42,0,0,0,.9-.33l23.79-13.73A5.68,5.68,0,0,0,77,177.64v-5.2C77,170.8,75.83,170.13,74.41,171Z" style="fill:#f0f0f0"></path><path d="M190.35,347.69,214.14,334a5.68,5.68,0,0,0,2.57-4.45v-5.2c0-1.64-1.15-2.3-2.57-1.48l-23.79,13.73a5.68,5.68,0,0,0-2.57,4.45v5.2C187.78,347.84,188.93,348.51,190.35,347.69Z" style="fill:#f0f0f0"></path><path d="M447.42,143.48l-23.79,13.73a5.68,5.68,0,0,0-2.57,4.45v5.2c0,1.64,1.15,2.31,2.57,1.49l23.79-13.74a5.68,5.68,0,0,0,2.57-4.45V145C450,143.32,448.84,142.66,447.42,143.48Z" style="fill:#f0f0f0"></path><path d="M229.17,66.81,205.38,80.55A5.68,5.68,0,0,0,202.81,85v5.2c0,1.64,1.15,2.3,2.57,1.48L229.17,78a5.69,5.69,0,0,0,2.57-4.46v-5.2C231.74,66.66,230.59,66,229.17,66.81Z" style="fill:#f0f0f0"></path><path d="M345.3,33.86,321.51,47.6a5.68,5.68,0,0,0-2.57,4.45v5.2c0,1.64,1.15,2.3,2.57,1.48L345.3,45a5.68,5.68,0,0,0,2.57-4.45v-5.2C347.87,33.71,346.72,33.05,345.3,33.86Z" style="fill:#f0f0f0"></path><path d="M112.52,214.84l23.79-13.74a5.68,5.68,0,0,0,2.57-4.45v-5.2c0-1.64-1.15-2.3-2.57-1.48L112.52,203.7a5.69,5.69,0,0,0-2.57,4.45v5.2C110,215,111.1,215.66,112.52,214.84Z" style="fill:#f0f0f0"></path><path d="M231.74,279.87v-5.2c0-1.64-1.15-2.3-2.57-1.48l-23.79,13.73a5.68,5.68,0,0,0-2.57,4.45v5.2c0,1.64,1.15,2.31,2.57,1.49l23.79-13.74A5.68,5.68,0,0,0,231.74,279.87Z" style="fill:#f0f0f0"></path><path d="M276.54,304.37l23.79-13.73a5.69,5.69,0,0,0,2.57-4.45V281c0-1.64-1.15-2.31-2.57-1.49l-23.79,13.74a5.68,5.68,0,0,0-2.57,4.45v5.2C274,304.53,275.12,305.19,276.54,304.37Z" style="fill:#f0f0f0"></path><path d="M317.93,263.9v-5.2c0-1.63-1.15-2.3-2.57-1.48L291.57,271a5.68,5.68,0,0,0-2.57,4.45v5.2c0,1.64,1.15,2.3,2.57,1.48l23.79-13.73A5.69,5.69,0,0,0,317.93,263.9Z" style="fill:#f0f0f0"></path><path d="M354.67,221v-5.2c0-1.64-1.15-2.31-2.57-1.49l-23.79,13.74a5.68,5.68,0,0,0-2.57,4.45v5.2c0,1.64,1.15,2.3,2.57,1.48l23.79-13.73A5.69,5.69,0,0,0,354.67,221Z" style="fill:#f0f0f0"></path><path d="M307.5,286.53l23.79-13.73a5.72,5.72,0,0,0,2.57-4.45v-5.21c0-1.63-1.16-2.3-2.57-1.48L307.5,275.4a5.68,5.68,0,0,0-2.57,4.45v5.2C304.93,286.69,306.08,287.35,307.5,286.53Z" style="fill:#f0f0f0"></path><path d="M336.72,219.82v-5.2c0-1.64-1.15-2.3-2.57-1.49l-23.79,13.74a5.68,5.68,0,0,0-2.57,4.45v5.2c0,1.64,1.15,2.3,2.57,1.48l23.79-13.73A5.68,5.68,0,0,0,336.72,219.82Z" style="fill:#f0f0f0"></path><path d="M319.79,191.08l23.79-13.73a5.72,5.72,0,0,0,2.57-4.45v-5.2c0-1.64-1.16-2.31-2.57-1.49L319.79,180a5.68,5.68,0,0,0-2.57,4.45v5.2C317.22,191.24,318.37,191.9,319.79,191.08Z" style="fill:#f0f0f0"></path><path d="M262.69,207.33v-5.2c0-1.63-1.15-2.3-2.57-1.48l-23.79,13.74a5.68,5.68,0,0,0-2.57,4.45V224c0,1.64,1.15,2.3,2.57,1.48l23.79-13.73A5.69,5.69,0,0,0,262.69,207.33Z" style="fill:#f0f0f0"></path><path d="M58.26,320.29l-8.54,4.93v11.14l8.54-4.94A5.68,5.68,0,0,0,60.83,327v-5.2C60.83,320.13,59.68,319.47,58.26,320.29Z" style="fill:#f0f0f0"></path><path d="M75.53,393.41,51.74,407.15a5.52,5.52,0,0,0-2,2.33v8.81a1.65,1.65,0,0,0,2,0l23.79-13.73a5.68,5.68,0,0,0,2.57-4.45v-5.2C78.1,393.26,77,392.59,75.53,393.41Z" style="fill:#f0f0f0"></path><path d="M94.93,148.39v5.2c0,1.64,1.15,2.31,2.57,1.49l23.79-13.74a5.68,5.68,0,0,0,2.57-4.45v-5.2c0-1.64-1.15-2.3-2.57-1.48L97.5,143.94A5.68,5.68,0,0,0,94.93,148.39Z" style="fill:#f0f0f0"></path><path d="M459.6,217.63l-20.94,12.1a5.68,5.68,0,0,0-2.57,4.45v5.2c0,1.64,1.15,2.3,2.57,1.48l20.94-12.09Z" style="fill:#f0f0f0"></path><line x1="51.82" y1="473.03" x2="459.4" y2="237.71" style="fill:#e0e0e0"></line><path d="M51.82,473.56a.52.52,0,0,1-.46-.27.53.53,0,0,1,.2-.72L459.14,237.25a.53.53,0,0,1,.53.92L52.09,473.49A.52.52,0,0,1,51.82,473.56Z" style="fill:#e0e0e0"></path></g></g><g id="freepik--Shadows--inject-50"><path id="freepik--Shadow--inject-50" d="M194,477.17a10,10,0,0,1-4.92-1.24l-38.63-22.3a6.19,6.19,0,0,1,0-11.06l43.48-25.1a10.31,10.31,0,0,1,9.84,0l38.62,22.29a6.2,6.2,0,0,1,0,11.06l-43.48,25.11A10,10,0,0,1,194,477.17Z" style="fill:#e0e0e0"></path><path id="freepik--shadow--inject-50" d="M343.9,466.81c26.66,15.38,69.87,15.38,96.52,0s26.66-40.34,0-55.73-69.87-15.39-96.52,0S317.25,451.42,343.9,466.81Z" style="fill:#e0e0e0"></path></g><g id="freepik--qr-code--inject-50"><g id="freepik--qr-code--inject-50"><path id="freepik--shadow--inject-50" d="M255.31,39.58c0-.15,0-.3-.07-.44s0-.2-.07-.3a.25.25,0,0,0,0-.07,1.18,1.18,0,0,0-.07-.2.36.36,0,0,0,0-.11,1.47,1.47,0,0,0-.1-.22,2,2,0,0,0-.28-.44,1.07,1.07,0,0,0-.14-.16.75.75,0,0,0-.16-.15,1.85,1.85,0,0,0-.27-.19l-.16-.09a0,0,0,0,0,0,0,3.13,3.13,0,0,0-2.92.38L101.52,123.82a8.81,8.81,0,0,0-3.08,3.26,4.25,4.25,0,0,0-.29.56c-.08.15-.15.3-.22.45a5.89,5.89,0,0,0-.24.58c-.08.2-.14.4-.2.6s-.08.29-.11.44a.19.19,0,0,0,0,.1c0,.13-.06.26-.08.39a2.34,2.34,0,0,0,0,.26c0,.12,0,.23,0,.35a5.4,5.4,0,0,0,0,.56v263c0,.16,0,.3,0,.45s0,.26,0,.39a2.71,2.71,0,0,0,.09.41l.06.2a2,2,0,0,0,.1.26,2.37,2.37,0,0,0,.52.77l.16.16h0l.11.07.16.09,0,0a2.51,2.51,0,0,0,.56.22l.23,0,.29,0a4,4,0,0,0,2-.6L251,310.66a9.63,9.63,0,0,0,4.36-7.55v-263C255.33,39.91,255.32,39.74,255.31,39.58Z" style="opacity:0.1"></path><g id="freepik--Sign--inject-50"><path d="M264.69,44.92c0-.15,0-.3-.07-.44s0-.2-.07-.3a.25.25,0,0,0,0-.07,1.18,1.18,0,0,0-.07-.2.36.36,0,0,0,0-.11,1.47,1.47,0,0,0-.1-.22,2,2,0,0,0-.28-.44,1.07,1.07,0,0,0-.14-.16.75.75,0,0,0-.16-.15,1.85,1.85,0,0,0-.27-.19l-.16-.09a0,0,0,0,0,0,0c-.93-.55-3.27-1.9-3.95-2.29a3,3,0,0,0-3.05.31L106.82,126.8a8.92,8.92,0,0,0-3.09,3.26,8.61,8.61,0,0,0-.53,1.05c-.15.36-.29.72-.4,1.08l-.15.55a7.52,7.52,0,0,0-.19,1.61v263c0,.13,0,.26,0,.38s0,.24,0,.35l.06.33a1.57,1.57,0,0,0,.08.31,3.33,3.33,0,0,0,.33.71,2.12,2.12,0,0,0,.49.54,1.51,1.51,0,0,0,.26.18l.75.43,1.32.77,1.36.78.38.22h0l.11.07.16.09,0,0a2.51,2.51,0,0,0,.56.22l.23,0,.29,0a4,4,0,0,0,2-.6L260.35,316a9.63,9.63,0,0,0,4.36-7.55v-263C264.71,45.25,264.7,45.08,264.69,44.92ZM130.47,133.34a2.91,2.91,0,0,1,0-.31c0-.13,0-.26,0-.4a9.75,9.75,0,0,1,4.42-7.66l.31-.16a4.91,4.91,0,0,1,.74-.29l.14,0a5,5,0,0,1,.17,1.28,9.78,9.78,0,0,1-4.42,7.65,5,5,0,0,1-1.2.5A3.38,3.38,0,0,1,130.47,133.34Zm99.6-58.24a9.77,9.77,0,0,1,4.41-7.66,3.6,3.6,0,0,1,.39-.2l.22-.1.3-.11.29-.07a4.82,4.82,0,0,1,.16,1.26,9.75,9.75,0,0,1-4.42,7.66,4.35,4.35,0,0,1-1.19.49A4.9,4.9,0,0,1,230.07,75.1Z" style="fill:#37474f"></path><path d="M106.54,136.72v263a3.29,3.29,0,0,0,1,2.65l-3.83-2.21a3,3,0,0,1-1.28-2.81v-263a8.89,8.89,0,0,1,1.28-4.29l4.09,2.36h0A8.83,8.83,0,0,0,106.54,136.72Z" style="fill:#263238"></path><path d="M264.69,44.92c0-.15,0-.3-.07-.44s0-.2-.07-.3a.25.25,0,0,0,0-.07,1.18,1.18,0,0,0-.07-.2.36.36,0,0,0,0-.11,1.47,1.47,0,0,0-.1-.22,2,2,0,0,0-.28-.44,1.07,1.07,0,0,0-.14-.16.75.75,0,0,0-.16-.15,1.85,1.85,0,0,0-.27-.19l-.16-.09a0,0,0,0,0,0,0,3.13,3.13,0,0,0-2.92.38L110.9,129.16a8.81,8.81,0,0,0-3.08,3.26,4.25,4.25,0,0,0-.29.56c-.08.15-.15.3-.22.45a5.89,5.89,0,0,0-.24.58c-.08.2-.14.4-.2.6s-.08.29-.11.44a.19.19,0,0,0,0,.1c0,.13-.06.26-.08.39a2.34,2.34,0,0,0,0,.26c0,.12,0,.23,0,.35a5.4,5.4,0,0,0,0,.56v263c0,.16,0,.3,0,.45s0,.26,0,.39a2.71,2.71,0,0,0,.09.41l.06.2a2,2,0,0,0,.1.26,2.37,2.37,0,0,0,.52.77l.16.16h0l.11.07.16.09,0,0a2.51,2.51,0,0,0,.56.22l.23,0,.29,0a4,4,0,0,0,2-.6L260.35,316a9.63,9.63,0,0,0,4.36-7.55v-263C264.71,45.25,264.7,45.08,264.69,44.92ZM130.47,133.34a2.91,2.91,0,0,1,0-.31c0-.13,0-.26,0-.4a9.75,9.75,0,0,1,4.42-7.66l.31-.16a4.91,4.91,0,0,1,.74-.29l.14,0a5,5,0,0,1,.17,1.28,9.78,9.78,0,0,1-4.42,7.65,5,5,0,0,1-1.2.5A3.38,3.38,0,0,1,130.47,133.34Zm99.6-58.24a9.77,9.77,0,0,1,4.41-7.66,3.6,3.6,0,0,1,.39-.2l.22-.1.3-.11.29-.07a4.82,4.82,0,0,1,.16,1.26,9.75,9.75,0,0,1-4.42,7.66,4.35,4.35,0,0,1-1.19.49A4.9,4.9,0,0,1,230.07,75.1Z" style="fill:#455a64"></path><polygon points="109.09 351.76 262.16 263.39 262.16 79.83 109.09 168.2 109.09 351.76" style="fill:#fff"></polygon><path d="M135.15,124.81a4,4,0,0,1,.74-.29A4.91,4.91,0,0,0,135.15,124.81Z" style="fill:#263238"></path><path d="M139.26,127.53a9.78,9.78,0,0,1-4.42,7.65c-2,1.17-3.74.58-4.26-1.27a5,5,0,0,0,1.2-.5,9.78,9.78,0,0,0,4.42-7.65,5,5,0,0,0-.17-1.28l-.14,0C137.82,124,139.26,125.13,139.26,127.53Z" style="fill:#263238"></path><path d="M235.68,67h0l-.29.07Z" style="fill:#263238"></path><path d="M238.9,70a9.75,9.75,0,0,1-4.42,7.66c-2,1.17-3.73.57-4.25-1.28a4.35,4.35,0,0,0,1.19-.49,9.75,9.75,0,0,0,4.42-7.66,4.82,4.82,0,0,0-.16-1.26C237.54,66.49,238.9,67.65,238.9,70Z" style="fill:#263238"></path></g><path d="M129.37,211a1.08,1.08,0,0,1-1.09-1.08V173.31a1.08,1.08,0,0,1,.55-.94l27.5-15.88a1.08,1.08,0,1,1,1.08,1.88l-27,15.56v36A1.08,1.08,0,0,1,129.37,211Z" style="fill:#A80083"></path><path d="M129.37,324.27a1,1,0,0,1-.54-.15,1.08,1.08,0,0,1-.55-.94V286.59a1.09,1.09,0,0,1,2.17,0V321.3l25.88-14.93a1.08,1.08,0,0,1,1.48.39,1.09,1.09,0,0,1-.4,1.49l-27.5,15.87A1,1,0,0,1,129.37,324.27Z" style="fill:#A80083"></path><path d="M241.88,146a1.08,1.08,0,0,1-1.08-1.08V110.23l-25.87,14.93a1.08,1.08,0,1,1-1.08-1.88l27.49-15.87a1.09,1.09,0,0,1,1.08,0,1.08,1.08,0,0,1,.55.94v36.59A1.08,1.08,0,0,1,241.88,146Z" style="fill:#A80083"></path><path d="M214.39,275.18a1.07,1.07,0,0,1-.94-.54,1.08,1.08,0,0,1,.4-1.48l27-15.56v-36a1.09,1.09,0,0,1,2.17,0v36.59a1.08,1.08,0,0,1-.55.94L214.93,275A1.17,1.17,0,0,1,214.39,275.18Z" style="fill:#A80083"></path><path d="M176.25,233.72v0h0v0Zm-3.73-42.79h0v0h0ZM225,235.46l7.38-4.26V211.38c-.07,0-.11,0-.14,0l-6.91,4c-.35.2-.37.49-.37.84,0,2.9,0,5.8,0,8.71,0,.47.11.58.47.36.89-.55,1.79-1,2.69-1.57.41-.26.59-.22.58.39,0,1.21,0,2.4,0,3.58a.94.94,0,0,1-.54,1c-.92.5-1.83,1.06-2.75,1.57a.81.81,0,0,0-.45.85c0,1.45,0,2.9,0,4.35l-3.74,2.16V212.73c-1,.57-1.9,1.11-2.81,1.62-1.1.63-.94.75-1-.72,0-1.21,0-2.42,0-3.69l-3.74,2.16v-5c-1,.51-2,1.12-3,1.69-.73.42-.73.42-.73-.52v-3c0-1,0-1,.79-1.48l2.92-1.69v-5c-1.09.64-2.13,1.21-3.21,1.86-.38.24-.51.14-.5-.38,0-1.11,0-2.2,0-3.29s0-1,.79-1.47l2.95-1.71c0-1.54,0-3,0-4.41,0-.55-.16-.56-.52-.34-.91.56-1.83,1-2.74,1.6-.39.24-.5.12-.49-.39,0-1.23,0-2.43,0-3.67,0-.52-.13-.59-.51-.36-.91.56-1.83,1.09-2.74,1.58a.9.9,0,0,0-.49,1c0,1.23,0,2.49,0,3.73a.76.76,0,0,1-.39.8c-1.11.62-2.22,1.26-3.33,1.89q0-11.73,0-23.46c0-1.41,0-1.41-1.08-.79l-2.62,1.51v-5c1.1-.63,2.15-1.26,3.21-1.84a.92.92,0,0,0,.5-1c0-2.87,0-5.74,0-8.63,0-.54-.12-.67-.53-.42-.84.52-1.68.94-2.52,1.48-.53.34-.73.29-.72-.5,0-2.75,0-5.46,0-8.21,0-.65-.11-.82-.63-.51q-5,2.92-10,5.77a1.13,1.13,0,0,0-.65,1.23c0,2.74,0,5.51,0,8.25a1.14,1.14,0,0,1-.66,1.24c-.86.45-1.72,1-2.58,1.48-.38.23-.52.14-.51-.38,0-1.18,0-2.33,0-3.52,0-.59-.11-.77-.58-.47-.88.55-1.76,1.05-2.63,1.52a.93.93,0,0,0-.54,1c0,1.2,0,2.43,0,3.66a1.5,1.5,0,0,1-.3.77c-1.13.69-2.26,1.33-3.45,2v-9.94c-1.2.69-2.33,1.33-3.46,2a1.45,1.45,0,0,0-.27.7c0,1.26,0,2.51,0,3.74a.9.9,0,0,1-.51,1c-.91.51-1.83,1.07-2.74,1.57a.92.92,0,0,0-.51,1c0,1.09,0,2.19,0,3.29s0,1,.79.56c2-1.18,4.09-2.37,6.14-3.53.18-.1.51-.07.51.06,0,1.48,0,3,0,4.59-1.11.63-2.15,1.26-3.18,1.82a1,1,0,0,0-.56,1.08c0,1.42,0,2.86,0,4.29l3.72-2.12v5L172.52,186v5c1.07-.61,2.14-1.21,3.21-1.85.4-.24.54-.18.53.38,0,1.45,0,2.86,0,4.29l3.88-2.17c0,1.66-.16,3.35-.06,4.95,2.31-1.33,4.56-2.65,6.86-3.94.18-.11.52-.07.53.06,0,1.48,0,3,0,4.59-3.57,2.07-7.12,4.1-10.68,6.18-.21.12-.54.15-.54.67,0,1.51,0,3,0,4.61,1.1-.64,2.14-1.21,3.17-1.85.45-.27.62-.2.6.43,0,1.19,0,2.33,0,3.52,0,.64.15.69.6.43,2.1-1.24,4.2-2.43,6.3-3.66.42-.25.59-.2.58.41,0,1.18,0,2.35,0,3.5a1,1,0,0,1-.59,1.08c-.89.49-1.79,1.05-2.68,1.54a.86.86,0,0,0-.48.9c0,1.14,0,2.31,0,3.43a1.19,1.19,0,0,1-.67,1.32c-.84.43-1.68,1-2.52,1.43a1,1,0,0,0-.56,1.07c0,3.12,0,6.14,0,9.31l-3.74,2.16c0,1.43,0,2.86,0,4.3,0,.52.13.6.51.37,1.05-.63,2.11-1.23,3.22-1.87.15,3,0,6.16.06,9.2a1,1,0,0,1-.56,1.07c-1.07.59-2.15,1.23-3.22,1.86,0,1.4,0,2.82,0,4.21a1,1,0,0,1-.6,1.1c-.82.44-1.64,1-2.46,1.4-.59.28-.71.64-.69,1.35,0,1.31,0,2.66,0,4,1.08-.6,2.15-1.17,3.22-1.81.44-.27.55-.14.55.43,0,2.81,0,5.62,0,8.41a1.14,1.14,0,0,1-.63,1.24c-2.3,1.32-4.56,2.55-6.85,4,0,1.45,0,2.83,0,4.22,0,.55.12.67.53.42.89-.55,1.79-1,2.69-1.57.39-.24.55-.18.54.39,0,1.21,0,2.4,0,3.58a1,1,0,0,1-.54,1c-.91.5-1.83,1-2.74,1.59a1.42,1.42,0,0,0-.45.66c0,1.5,0,3,0,4.51l7.47-4.31c0-1.43,0-2.8,0-4.15a1,1,0,0,1,.55-1.09c.91-.49,1.83-1,2.74-1.58.39-.24.51-.12.5.39,0,1.23,0,2.43,0,3.66,0,.45.07.63.45.4,2.2-1.29,4.39-2.55,6.58-3.8a.82.82,0,0,0,.44-.86c0-1.21,0-2.45,0-3.65a1,1,0,0,1,.53-1c.9-.49,1.79-1,2.69-1.55.42-.26.53-.08.52.44,0,1.13,0,2.23,0,3.37,0,.74.15.81.68.51,3.53-2.11,7.05-4,10.58-6.18,0-4.68,0-9.34,0-14,0-.64.1-1,.63-1.24.84-.43,1.68-1,2.52-1.43a1,1,0,0,0,.6-1.12c0-1.2,0-2.44,0-3.65a.86.86,0,0,1,.47-.9c.94-.51,1.87-1.05,2.8-1.61.37-.23.47-.09.47.37,0,1.28,0,2.53,0,3.81,0,.45.12.54.44.34,1.12-.66,2.17-1.25,3.3-1.91,0,3.26,0,6.38,0,9.49a.71.71,0,0,1-.43.71c-.95.55-1.9,1.08-2.85,1.65-.37.22-.48.1-.47-.37,0-1.23,0-2.43,0-3.66,0-.49-.08-.67-.49-.42-.91.56-1.82,1.09-2.74,1.59a1,1,0,0,0-.52,1c0,1.11,0,2.22,0,3.37,0,.71.14.85.67.52,1-.64,2-1.18,3.07-1.79V264l3.74-2.16c0-1.26,0-2.45,0-3.65,0-1.4-.16-1.17.92-1.79,2-1.16,4-2.33,6-3.45a1.09,1.09,0,0,0,.61-1.19c-.15-5.51.81-4.3-3.32-2.25-.16.08-.44,0-.44-.16,0-1.46,0-2.95,0-4.49,2.26-1.41,4.48-2.6,6.74-3.94.76-.44.76-.44.76-1.49C224.92,238.1,224.89,236.86,225,235.46Zm-48.69-56.63v-5c1.25-.71,2.44-1.47,3.68-2.22,0-1.44.09-2.91.09-4.34a.81.81,0,0,1,.43-.86c1-.53,1.91-1.08,2.86-1.64.34-.2.44-.08.44.35q0,6.88,0,13.76a.89.89,0,0,1-.48.91c-.92.5-1.83,1-2.75,1.58-.38.23-.52.15-.51-.37,0-1.46,0-2.85,0-4.29Zm6.93,10.94c-1,.56-2,1.18-3.05,1.78A2.76,2.76,0,0,1,180,191c0-1.26,0-2.53,0-3.78a.86.86,0,0,1,.46-.91c.93-.5,1.86-1,2.79-1.61.39-.23.5-.08.49.41,0,1.2,0,2.4,0,3.57A1,1,0,0,1,183.19,189.77ZM210.34,214l3.32-1.89v4.94c-1.19.69-2.33,1.36-3.48,2-.08,0-.23-.15-.23-.31,0-1.32,0-2.67,0-4A.72.72,0,0,1,210.34,214Zm-7.49-15.62c1-.57,1.93-1.11,2.9-1.69.32-.19.46-.13.46.32q0,1.92,0,3.81a.84.84,0,0,1-.46.85c-.93.52-1.87,1-2.8,1.62-.4.24-.49.07-.49-.42,0-1.39,0-2.76,0-4.14A2.57,2.57,0,0,1,202.85,198.39Zm-.38,10.74a.8.8,0,0,1,.46-.85c.48-.26.95-.54,1.43-.82s.95-.53,1.42-.82c.31-.19.43-.09.42.32q0,1.95,0,3.87a.76.76,0,0,1-.43.79c-1,.54-1.9,1.08-2.86,1.65-.32.2-.45.11-.44-.34C202.48,211.66,202.48,210.39,202.47,209.13Zm-3.74-28.94a.81.81,0,0,1-.43.85c-1,.54-1.94,1.1-2.9,1.67-.26.15-.41.15-.41-.26,0-1.5,0-3,0-4.51,1.07-.62,2.14-1.22,3.21-1.86.38-.23.5-.13.49.39C198.71,177.72,198.72,179,198.73,180.19Zm-7.5,4.25a.92.92,0,0,1-.5,1c-.91.5-1.83,1-2.74,1.58-.39.23-.51.11-.5-.39,0-2.89,0-5.76,0-8.63,0-.32,0-.65.34-.86L195,173v5c-1,.61-2.11,1.27-3.16,1.83a1.13,1.13,0,0,0-.64,1.25C191.25,182.13,191.21,183.3,191.23,184.44ZM187.49,163a.91.91,0,0,1,.51-1c.78-.43,1.57-.9,2.36-1.35,1-.57.86-.36.86-1.69,0-1,0-2.06,0-3.07a1,1,0,0,1,.53-1c.9-.49,1.79-1,2.69-1.55.42-.26.58-.18.57.42,0,1.46,0,2.78,0,4.24l3.72-2.15c0,1.6,0,3.09,0,4.61a1.36,1.36,0,0,1-.47.63c-2.31,1.36-4.63,2.65-6.94,4.14,0,1.44-.07,2.91-.07,4.33a.85.85,0,0,1-.47.91c-.92.5-1.83,1-2.74,1.58-.38.23-.53.16-.52-.36Q187.51,167.33,187.49,163Zm-7.42,68.51c1.14-.66,2.28-1.33,3.42-2,.09,0,.25.14.25.29q0,2,0,4.08a1,1,0,0,1-.26.56c-1.13.68-2.25,1.32-3.41,2Zm3.69,42.1a.88.88,0,0,1-.49.91c-.93.52-1.86,1.06-2.8,1.62-.32.19-.46.12-.45-.34,0-.64,0-1.26,0-1.9s0-1.3,0-2a1.43,1.43,0,0,1,.37-.71c1-.6,1.94-1.13,2.9-1.7.35-.21.44-.05.44.37C183.75,271.12,183.75,272.36,183.76,273.6Zm0-15a1.55,1.55,0,0,1-.29.76c-1.11.68-2.22,1.31-3.42,2V258c0-1.58,0-1.59,1.17-2.26l2.67-1.49A40.57,40.57,0,0,0,183.74,258.63Zm3.09-6.12c-1,.52-2,1.15-3,1.73a30.71,30.71,0,0,1-.12-4.33c0-.47-.11-.59-.47-.37-.93.56-1.87,1.1-2.8,1.6-.15.09-.43,0-.44-.14,0-1.46,0-2.95,0-4.55l2.89-1.66c.92-.54.84-.37.84-1.64v-8.81l2.44-1.41c1.29-.75,1.29-.75,1.29,1,0,5.77,0,11.55,0,17.32C187.5,251.91,187.37,252.22,186.83,252.51Zm7.62,10.58c-4.09,2.12-3.11,3-3.22-2.51,0-.48-.12-.57-.47-.35-4.2,2.27-3.09,2.94-3.28-2.41a1,1,0,0,1,.58-1.07c2.31-1.31,4.62-2.66,6.94-4,0,3.08,0,6.18,0,9.25A1,1,0,0,1,194.45,263.09Zm4.28-12.51L195,252.72c0-3.13,0-6.26,0-9.39a.78.78,0,0,1,.42-.79c1-.54,1.94-1.1,2.91-1.67.25-.15.41-.16.41.25C198.72,244.23,198.73,247.35,198.73,250.58Zm0-15.64a1,1,0,0,1-.53,1c-.89.48-1.79,1-2.68,1.55-.4.24-.56.19-.54-.38,0-1.22,0-2.39,0-3.6,0-.54-.1-.67-.52-.42-.91.57-1.83,1-2.74,1.61-.37.22-.53.16-.52-.37,0-1.25,0-2.49,0-3.73a.84.84,0,0,1,.49-.89c.95-.53,1.9-1.1,2.86-1.64a.75.75,0,0,0,.43-.78c0-1.42,0-2.87,0-4.39-2.31,1.2-4.61,2.62-6.92,3.95-.45.26-.61.18-.6-.44,0-1.21,0-2.4,0-3.59a.91.91,0,0,1,.51-1c.89-.5,1.79-1,2.69-1.54a.93.93,0,0,0,.54-1c0-6.4.07-12.9-.06-19.26-1.06.62-2.08,1.18-3.1,1.81-.46.28-.6.16-.59-.45,0-1.38,0-2.73,0-4.19l7.51-4.33v-4c0-1,0-1,.74-1.42s1.65-.92,2.47-1.43c.42-.26.53-.12.52.41,0,3.11,0,6.14,0,9.25l3.73-2.15,0,5.17a1.5,1.5,0,0,0-.35.09c-2.35,1.4-4.7,2.62-7.05,4.13v4.92l2.91-1.68c.79-.45.79-.45.79.57v14c2.32-1.35,4.6-2.64,6.92-4,.42-.25.58-.2.56.41,0,1.16,0,2.31,0,3.44a1.07,1.07,0,0,1-.61,1.18c-2.3,1.29-4.56,2.62-6.87,3.95C198.73,228.8,198.72,231.86,198.74,234.94ZM213.67,237c-3.55,2.06-7.07,4.08-10.62,6.15-.45.26-.59.19-.59-.43q0-6.71,0-13.39a1.09,1.09,0,0,1,.63-1.17q5-2.84,10-5.76c.49-.29.62-.18.62.46C213.66,227.59,213.68,232.27,213.67,237Zm-41.15-56h0v0h0ZM150.58,253.5c-.37.22-.52.17-.52-.35,0-2.91,0-5.8,0-8.69a1,1,0,0,1,.51-1q3.27-1.86,6.52-3.76c.39-.23.49-.1.49.4,0,1.46,0,2.9,0,4.35,2.29-1.32,4.58-2.66,6.87-3.95a1,1,0,0,0,.6-1.11c0-1.38,0-2.79,0-4.19-2.49,1.19-5,2.91-7.47,4.18,0-1.48,0-2.88,0-4.3,0-.48-.12-.58-.47-.37-.92.55-1.83,1-2.74,1.6-.42.25-.54.13-.54-.41,0-3.11,0-6.13,0-9.25-2.31,1.34-4.58,2.63-6.89,4-.48.29-.64.17-.62-.48,0-1.16,0-2.31,0-3.44a1,1,0,0,1,.59-1.12c3.55-2.06,7.1-4,10.65-6.19,0-3.2,0-6.31,0-9.43,0-.41-.17-.39-.42-.24-1,.56-1.94,1.13-2.91,1.67a.77.77,0,0,0-.41.8c0,1.5,0,2.9,0,4.43l-2.48,1.44c-1.29.74-1.29.74-1.29-1v-3.26c-1.1.64-2.1,1.25-3.1,1.78-.53.27-.65.6-.65,1.24,0,3,.07,6,0,9.12l-7.37,4.26c-.11,1.54,0,2.89-.06,4.39,0,.58.16.61.55.37.92-.55,1.83-1,2.75-1.59.33-.2.45-.1.45.34,0,1.25,0,2.5,0,3.73a.9.9,0,0,1-.53.95c-.87.49-1.75,1-2.63,1.5a1.06,1.06,0,0,0-.59,1.13c0,3-.05,6.14,0,9.15,1.1-.63,2.14-1.25,3.23-1.84.15-.09.43,0,.43.08,0,1.51,0,3,0,4.67l-3.66,2.11v5c1.1-.64,2.14-1.22,3.18-1.85.39-.23.51-.12.5.38,0,1.26,0,2.49,0,3.74,0,.43.11.55.45.35q1.42-.85,2.85-1.65a.85.85,0,0,0,.44-.87c0-1.44,0-2.88,0-4.35l3.67-2.12c.05,1.4,0,2.81,0,4.24,0,.49.09.66.49.42.94-.57,1.87-1.11,2.8-1.62a.89.89,0,0,0,.5-1c0-1.42,0-2.86,0-4.3C152.76,252.25,151.67,252.86,150.58,253.5Zm-4.25,2.44c-1.19.69-2.31,1.35-3.44,2-.09,0-.27-.11-.27-.25,0-1.47,0-3,0-4.54,1.19-.69,2.29-1.33,3.38-1.93.12-.07.32.07.33.22C146.34,252.87,146.33,254.36,146.33,255.94Zm3.23-16.84c-.75.41-1.5.85-2.25,1.29-1.09.65-1,.39-1,1.84,0,1,0,2.05,0,3.06a.88.88,0,0,1-.48.92c-.93.52-1.86,1-2.79,1.61-.36.22-.47.09-.47-.37,0-1.47,0-2.93,0-4.39s0-2.78,0-4.16a1,1,0,0,1,.55-1.09c2.13-1.2,4.27-2.44,6.4-3.69.37-.22.53-.17.52.36,0,1.23,0,2.45,0,3.65A.92.92,0,0,1,149.56,239.1Zm57.36-63,25.46-14.7V127.48c0-1,0-1-.77-.58l-24.69,14.25c-.72.41-.72.42-.72,1.37v33C206.2,176.47,206.2,176.47,206.92,176.06ZM210.57,144q8.7-5,17.39-10c.58-.33.7-.13.69.58,0,3.86,0,7.71,0,11.56s0,7.71,0,11.55a1.19,1.19,0,0,1-.68,1.29q-8.7,5-17.39,10c-.49.28-.66.22-.66-.47q0-11.64,0-23.26A1.16,1.16,0,0,1,210.57,144Zm-71,71q12.41-7.18,24.8-14.33c.72-.41.72-.41.72-1.37v-33c0-.95,0-.95-.72-.54-8.48,4.93-17,9.72-25.43,14.72-.08,11.38,0,22.65,0,34C138.86,215.17,139,215.28,139.53,215Zm3.07-30.92a1.09,1.09,0,0,1,.6-1.14q8.78-5,17.55-10.13c.47-.28.57-.09.57.48,0,3.94,0,7.86,0,11.78s0,7.71,0,11.55a1.1,1.1,0,0,1-.63,1.18q-8.74,5-17.49,10.1c-.44.26-.61.2-.61-.42Q142.62,195.74,142.6,184.05Zm21.79,71.42q-12.75,7.39-25.49,14.73c-.09,11.4,0,22.68,0,34.05,0,.7.14.81.67.5q12.76-7.39,25.52-14.74,0-17,0-34C165.06,255.27,164.92,255.16,164.39,255.47Zm-3.7,32.09q-8.73,5-17.44,10.07c-.52.3-.66.16-.65-.5q0-11.61,0-23.19a1.19,1.19,0,0,1,.67-1.3c2.92-1.66,5.85-3.36,8.77-5.05s5.78-3.32,8.67-5c.49-.29.62-.16.61.48q0,11.67,0,23.33A1.12,1.12,0,0,1,160.69,287.56Zm71.65-116.24-3.69,2.13c0-1.51,0-2.91,0-4.33,0-.47-.11-.59-.48-.37-.93.56-1.86,1.1-2.79,1.61a.88.88,0,0,0-.47.93c0,1.23,0,2.47,0,3.73,0,.48.12.56.47.35.92-.56,1.83-1,2.75-1.61.42-.26.53-.11.52.42,0,1.21,0,2.41,0,3.58a.94.94,0,0,1-.55,1c-2.32,1.32-4.58,2.64-6.91,4,0,1.61,0,3.14,0,4.65,0,.13.27.19.41.11.86-.46,1.72-1,2.58-1.47s.71-.4.71.57c0,2.76,0,5.51,0,8.27,0,.54.13.66.54.41.88-.54,1.76-1,2.63-1.54.43-.26.59-.18.58.41,0,1.12,0,2.22,0,3.29a1.2,1.2,0,0,1-.69,1.36c-2.27,1.23-4.51,2.66-6.78,3.86,0-3.07,0-6.07,0-9.14,0-.62-.14-.73-.59-.44-.88.54-1.76,1-2.64,1.52a1,1,0,0,0-.56,1.06c0,3.06-.06,6.17,0,9.2,1.24-.75,2.43-1.37,3.66-2,0,1.63.09,3.17.07,4.87,1.08-.63,2.07-1.15,3-1.79.59-.38.72-.17.69.56,0,1.17,0,2.29,0,3.45,0,.42.09.56.44.35,1-.57,1.9-1.12,2.85-1.64a.84.84,0,0,0,.45-.86c0-1.14,0-2.29,0-3.44,0-.94,0-.95.72-1.36l2.94-1.7c.17-4.89,0-9.62.07-14.46,0-.47-.15-.49-.46-.3-.92.54-1.83,1-2.75,1.59-.41.25-.54.12-.53-.42,0-1.21,0-2.4,0-3.58a.91.91,0,0,1,.51-1c.86-.47,1.72-1,2.58-1.47a1.12,1.12,0,0,0,.66-1.22C232.33,177.45,232.43,174.35,232.34,171.32ZM172.5,230.89c0-1.21,0-2.42,0-3.63,0-1.42,0-1.42,1.07-2l2.63-1.51v-9.93l-3.58,2.07a1,1,0,0,0-.18.24.77.77,0,0,1,.06.23c0,3,0,6,0,9a.74.74,0,0,1-.43.78c-1,.54-1.9,1.08-2.85,1.65-.36.21-.47.09-.47-.38,0-1.23,0-2.43,0-3.66,0-.5-.1-.63-.49-.4-2.16,1.26-4.31,2.5-6.47,3.73a.91.91,0,0,0-.51,1c0,1.21,0,2.43,0,3.65,0,.52.12.63.5.39.91-.55,1.83-1,2.74-1.59.39-.24.51-.11.5.39,0,1.46,0,2.91,0,4.36C167.54,233.66,170,232.29,172.5,230.89Zm-.05-14.79h0Zm-7.4,19.09h0v0h0Zm64.17,7.8c.9-.47,1.79-1,2.69-1.53a.87.87,0,0,0,.47-.91c0-1.25,0-2.52,0-3.8,0-.41-.11-.5-.41-.31-1,.57-1.94,1.13-2.91,1.67a.83.83,0,0,0-.42.87c0,1.22,0,2.45,0,3.65a1,1,0,0,1-.54,1c-.9.49-1.79,1-2.69,1.54a.9.9,0,0,0-.52.95q0,4.31,0,8.63c0,.57.16.61.55.37,1.06-.64,2.12-1.23,3.18-1.84l3.29-1.9a.78.78,0,0,0,.46-.83q0-1.89,0-3.81c0-.49-.14-.54-.48-.33-.92.55-1.83,1-2.75,1.59-.37.23-.52.13-.51-.38,0-1.18,0-2.35,0-3.51A1.05,1.05,0,0,1,229.22,243Zm-60.45,5v0h0v0Zm3.75-41.56a3.39,3.39,0,0,0-.07-.49l-3.31,1.91c-.36.2-.36.5-.36.83,0,2.91,0,5.8,0,8.71,0,.58.17.6.55.37a16.63,16.63,0,0,1,3.13-1.65,4.57,4.57,0,0,0,.07-.61Zm-.07,9.69v0h0Zm3.78,32.54v0h0v0Zm-.45-4.71-7,4c0,1.43,0,2.85,0,4.29,0,.56.15.61.54.38,2.31-1.35,4.62-2.68,6.92-4,0-1.46,0-2.91,0-4.38C176.27,243.76,176.12,243.73,175.78,243.93Zm-11.11-28.55c-1,.59-2,1.15-3,1.71a.72.72,0,0,0-.4.73c0,1.33,0,2.67,0,4,0,.44.16.45.44.28.49-.3,1-.57,1.48-.86s1-.51,1.42-.84a1.42,1.42,0,0,0,.38-.7c0-1.35,0-2.68,0-4C165.05,215.32,165,215.21,164.67,215.38Zm-22.46,3c-1,.53-2,1.1-3,1.7a1.31,1.31,0,0,0-.37.63c0,1.5,0,3,0,4.56,1.19-.69,2.3-1.32,3.41-2a1.1,1.1,0,0,0,.3-.61c0-1.35,0-2.69,0-4C142.58,218.52,142.35,218.34,142.21,218.41Zm30.31,12.5v0h0v0Zm3.71-37.13h0v0h0Zm-3.71,6.5c0,.42.07.58.42.37,1-.57,1.93-1.13,2.9-1.67a.77.77,0,0,0,.42-.79c0-1.46,0-2.94,0-4.41l-3.71,2.15C172.52,197.38,172.53,198.82,172.52,200.28Zm-7.89,5.16-2.9,1.68a.78.78,0,0,0-.42.8c0,1.31,0,2.62,0,3.94,0,.39.13.43.4.27,1-.58,2-1.15,2.95-1.71a.71.71,0,0,0,.39-.73c0-.65,0-1.31,0-2s0-1.31,0-2C165.06,205.33,164.93,205.26,164.63,205.44Zm-7,44v0h0v0Zm-3.73,2.16h0v0h0v0h0Zm3.73-7.12h0v0h0Zm-3.72,2.15v4.95l3.72-2.14v-5ZM172.5,186v0h0v0Zm-3.31-3.08a.79.79,0,0,0-.42.8c0,1.26,0,2.51,0,3.79,0,.54.17.55.52.34,1.07-.64,2.14-1.24,3.21-1.85v-5C171.4,181.64,170.29,182.28,169.19,182.89Zm3.31,13h0v0Zm-3.22-3.12a.9.9,0,0,0-.51,1q0,1.81,0,3.66c0,.53.14.6.51.37,1.07-.64,2.15-1.25,3.22-1.87v-5C171.43,191.58,170.35,192.21,169.28,192.8ZM217,175.21c-1,.57-1.94,1.13-2.91,1.67a.78.78,0,0,0-.42.79c0,1.31,0,2.64,0,3.94,0,.17.17.37.26.32,1.13-.61,2.26-1.28,3.45-2,0-1.59,0-3,0-4.51C217.41,175.05,217.26,175.06,217,175.21Zm-44.52,85.53h0v0h0Zm-3.7,2.64c0,1.36,0,2.73,0,4.08,0,.14.18.29.28.24,1.13-.62,2.26-1.29,3.41-1.95v-5l-3.22,1.9A.7.7,0,0,0,168.78,263.38Zm40.79-34c-.49.23-1,.55-1.48.83s-1,.58-1.48.85a.73.73,0,0,0-.41.73c0,1.33,0,2.68,0,4,0,.16.22.32.34.26,1-.54,2-1.12,3-1.74a1.35,1.35,0,0,0,.34-.66c0-1.35,0-2.69,0-4C209.91,229.52,209.7,229.36,209.57,229.42Zm-37.63,11.75a1,1,0,0,0,.59-1.1c0-1.38,0-2.79,0-4.19l3.71-2.17v-4.94l-3.71,2.14c0,1.65,0,3.3,0,5-1.07.61-2.14,1.25-3.21,1.83a1,1,0,0,0-.52,1c0,1.41,0,2.85,0,4.28l-11.18,6.47c0,1.45,0,2.91,0,4.37,0,.5.14.53.48.33l10.72-6.2c0-1.66,0-3.31,0-5C169.84,242.39,170.89,241.75,171.94,241.17Zm42.37-79.34c3.53-2.06,7-4.07,10.56-6.11.11-4.77,0-9.39.06-14.13,0-.72-.17-.81-.69-.5-3.53,2.11-7,4-10.57,6.17,0,4.71,0,9.38,0,14.1C213.66,162.05,213.82,162.12,214.31,161.83Zm-68,38.5c0,.57.12.69.56.43,1.7-1,3.4-2,5.1-3s3.33-1.94,5-2.87a1,1,0,0,0,.6-1.1c0-4.5,0-9,0-13.53,0-.54-.12-.65-.53-.42q-5.1,3-10.2,5.89a1,1,0,0,0-.52,1C146.34,191.31,146.34,195.81,146.33,200.33ZM157,269.73c-3.53,2.07-7,4.08-10.58,6.12-.1,4.77,0,9.39-.05,14.12,0,.7.14.84.68.52,3.53-2.11,7-4,10.57-6.17,0-4.71,0-9.38,0-14.09C157.59,269.56,157.46,269.43,157,269.73Z" style="fill:#263238"></path><path d="M150.35,351.47a17.23,17.23,0,0,1,.36-3,13.25,13.25,0,0,1,.92-2.77,10.94,10.94,0,0,1,1.52-2.38,8.16,8.16,0,0,1,2.16-1.8,4.15,4.15,0,0,1,2.14-.69,2.14,2.14,0,0,1,1.52.62,4.12,4.12,0,0,1,.93,1.7,10.82,10.82,0,0,1,.37,2.54c0,.32,0,.68,0,1.08s0,.8,0,1.23,0,.83,0,1.23,0,.77,0,1.11a18.19,18.19,0,0,1-.34,2.84,12.53,12.53,0,0,1-.86,2.68l1.27,2.07a.54.54,0,0,1,0,.21.85.85,0,0,1-.1.47.74.74,0,0,1-.26.31l-1.6.92q-.3.15-.45,0c-.09-.1-.17-.19-.22-.26l-.54-.88a8.76,8.76,0,0,1-.9.83,7.13,7.13,0,0,1-1,.68,4.36,4.36,0,0,1-2.16.71,2.18,2.18,0,0,1-1.52-.62,3.88,3.88,0,0,1-.92-1.7,11,11,0,0,1-.36-2.53c0-.33,0-.69,0-1.08s0-.8,0-1.23,0-.84,0-1.24S150.34,351.8,150.35,351.47Zm7.64-4.28a3.38,3.38,0,0,0-.78-2.45c-.48-.4-1.11-.38-1.9.07a4.88,4.88,0,0,0-1.9,2.12,8,8,0,0,0-.78,3.35c0,.67,0,1.41,0,2.22s0,1.53,0,2.17a3.26,3.26,0,0,0,.78,2.43c.48.4,1.11.37,1.9-.08a4.91,4.91,0,0,0,1.9-2.11,8,8,0,0,0,.78-3.34c0-.67,0-1.41,0-2.21S158,347.83,158,347.19Z" style="fill:#fafafa"></path><path d="M167.32,334.89c1.41-.81,2.47-.92,3.2-.34s1.1,1.76,1.1,3.55a11.2,11.2,0,0,1-.56,3.56,9,9,0,0,1-1.67,2.94l2.33,5.07a.6.6,0,0,1,.05.26,1,1,0,0,1-.11.46.62.62,0,0,1-.26.32l-1.43.83c-.23.13-.39.15-.5,0a1,1,0,0,1-.23-.32L167,346.48l-2.24,1.3v6.05a1.33,1.33,0,0,1-.14.57.81.81,0,0,1-.32.39l-1.36.79a.24.24,0,0,1-.32,0,.56.56,0,0,1-.14-.42V338.37a1.33,1.33,0,0,1,.14-.57.89.89,0,0,1,.32-.4Zm-2.53,9.64,2.44-1.41a4.54,4.54,0,0,0,1.54-1.4,4.11,4.11,0,0,0,.57-2.31c0-1-.19-1.51-.57-1.61a2.12,2.12,0,0,0-1.54.39l-2.44,1.41Z" style="fill:#fafafa"></path><path d="M184.91,337.15a1.41,1.41,0,0,1,.18-.61.9.9,0,0,1,.31-.35l1.37-.79a.27.27,0,0,1,.33,0,.51.51,0,0,1,.12.43,12.73,12.73,0,0,1-.34,2.33,11.62,11.62,0,0,1-.9,2.44,11.35,11.35,0,0,1-1.54,2.29,8.79,8.79,0,0,1-2.24,1.84,4.13,4.13,0,0,1-2.06.66,2.21,2.21,0,0,1-1.52-.61,3.8,3.8,0,0,1-1-1.71,10.45,10.45,0,0,1-.41-2.64c0-.65,0-1.37,0-2.16s0-1.53,0-2.21a17.09,17.09,0,0,1,.41-3.12,13.29,13.29,0,0,1,1-2.83,10.84,10.84,0,0,1,1.52-2.36A7.9,7.9,0,0,1,182.2,326a4.71,4.71,0,0,1,2.24-.75,2.39,2.39,0,0,1,1.54.52,3.07,3.07,0,0,1,.9,1.41,7.57,7.57,0,0,1,.34,1.92,1.17,1.17,0,0,1-.12.58,1,1,0,0,1-.33.38l-1.37.79a.31.31,0,0,1-.32,0c-.1-.05-.16-.19-.18-.4a2.91,2.91,0,0,0-.24-.88,1.4,1.4,0,0,0-.51-.59,1.36,1.36,0,0,0-.81-.17,3,3,0,0,0-1.14.42,4.27,4.27,0,0,0-1.15,1,5.89,5.89,0,0,0-.82,1.31,6.62,6.62,0,0,0-.5,1.54,9.31,9.31,0,0,0-.21,1.65c0,.67,0,1.4,0,2.2s0,1.52,0,2.16a5.91,5.91,0,0,0,.21,1.43,2.1,2.1,0,0,0,.5.94,1.22,1.22,0,0,0,.82.36,2.08,2.08,0,0,0,1.15-.36,4.63,4.63,0,0,0,1.14-.9,6.34,6.34,0,0,0,.82-1.11,6.43,6.43,0,0,0,.52-1.18A5.71,5.71,0,0,0,184.91,337.15Z" style="fill:#fafafa"></path><path d="M188.79,329.27a18.43,18.43,0,0,1,.36-2.95,13.35,13.35,0,0,1,.92-2.76,10.94,10.94,0,0,1,1.52-2.38,8,8,0,0,1,2.16-1.81,4.34,4.34,0,0,1,2.14-.69,2.09,2.09,0,0,1,1.52.63,3.85,3.85,0,0,1,.93,1.7,10.25,10.25,0,0,1,.37,2.54c0,.32,0,.68,0,1.07s0,.81,0,1.23,0,.84,0,1.24,0,.77,0,1.11a16.29,16.29,0,0,1-.36,2.94,13.25,13.25,0,0,1-.92,2.77,10.68,10.68,0,0,1-1.53,2.37,8.05,8.05,0,0,1-2.15,1.79,4.33,4.33,0,0,1-2.16.7,2.14,2.14,0,0,1-1.52-.62,3.77,3.77,0,0,1-.92-1.7,11.49,11.49,0,0,1-.36-2.53c0-.32,0-.68,0-1.07s0-.81,0-1.23,0-.84,0-1.24S188.78,329.61,188.79,329.27Zm7.64-4.28a3.3,3.3,0,0,0-.78-2.44c-.48-.41-1.11-.39-1.9.07a4.83,4.83,0,0,0-1.9,2.12,8.14,8.14,0,0,0-.78,3.35c0,.67,0,1.41,0,2.21s0,1.53,0,2.18a3.3,3.3,0,0,0,.78,2.43c.48.4,1.11.37,1.9-.09a4.83,4.83,0,0,0,1.9-2.1,7.94,7.94,0,0,0,.78-3.34c0-.67,0-1.41,0-2.21S196.45,325.64,196.43,325Z" style="fill:#fafafa"></path><path d="M205.56,312.81a4.78,4.78,0,0,1,2.17-.74,2,2,0,0,1,1.53.56,3.58,3.58,0,0,1,.94,1.71,11.43,11.43,0,0,1,.4,2.73q.08,1.89,0,3.84a18,18,0,0,1-.4,3.19,12.61,12.61,0,0,1-.93,2.8,10.18,10.18,0,0,1-1.51,2.32,8.5,8.5,0,0,1-2.12,1.73l-4.25,2.45a.25.25,0,0,1-.32,0,.57.57,0,0,1-.13-.42V316.18a1.31,1.31,0,0,1,.13-.57.86.86,0,0,1,.32-.39Zm2.76,5.58a5.91,5.91,0,0,0-.21-1.43,2.07,2.07,0,0,0-.52-.94,1.21,1.21,0,0,0-.87-.33,2.63,2.63,0,0,0-1.25.42l-2.26,1.3V329.1l2.35-1.35a4.81,4.81,0,0,0,1.2-1,6.36,6.36,0,0,0,.84-1.31,7.32,7.32,0,0,0,.51-1.54,9.41,9.41,0,0,0,.21-1.68Q208.4,320.27,208.32,318.39Z" style="fill:#fafafa"></path><path d="M220.67,319a.24.24,0,0,1,.32,0,.53.53,0,0,1,.14.41v1.84a1.37,1.37,0,0,1-.14.58.81.81,0,0,1-.32.39l-7.4,4.27a.24.24,0,0,1-.32,0,.56.56,0,0,1-.14-.42V309.33a1.33,1.33,0,0,1,.14-.57.89.89,0,0,1,.32-.4l7.27-4.19a.24.24,0,0,1,.32,0,.57.57,0,0,1,.13.42v1.84a1.31,1.31,0,0,1-.13.57.86.86,0,0,1-.32.39l-5.45,3.15v4.13l5.08-2.93a.24.24,0,0,1,.32,0,.57.57,0,0,1,.13.42V314a1.31,1.31,0,0,1-.13.57.86.86,0,0,1-.32.39l-5.08,2.93v4.32Z" style="fill:#fafafa"></path></g></g><g id="freepik--Link--inject-50"><g id="freepik--link--inject-50"><g id="freepik--Button--inject-50"><path d="M191.36,472.62l-38.62-22.3a5.71,5.71,0,0,1-2.59-4.49v-5.25a5.73,5.73,0,0,1,2.59-4.49L196.23,411a5.72,5.72,0,0,1,5.19,0L240,433.28a5.73,5.73,0,0,1,2.59,4.49V443a5.71,5.71,0,0,1-2.59,4.49l-43.49,25.11A5.72,5.72,0,0,1,191.36,472.62Z" style="fill:#37474f"></path><path d="M196.23,411l-43.49,25.11c-1.43.82-1.43,2.17,0,3l38.62,22.3a5.72,5.72,0,0,0,5.19,0L240,436.27c1.43-.82,1.43-2.17,0-3L201.42,411A5.72,5.72,0,0,0,196.23,411Z" style="fill:#455a64"></path><path d="M194,462v11.23a5.31,5.31,0,0,1-2.59-.62l-38.62-22.3a5.72,5.72,0,0,1-2.59-4.48v-5.26a5.77,5.77,0,0,1,2.12-4.16c-.94.82-.78,1.93.47,2.66l38.62,22.3A5.2,5.2,0,0,0,194,462Z" style="fill:#263238"></path><path d="M190.32,438c.35-1.42,2.79-2.83,5.25-3l2.29-.19c1.28-.11,2.45-.78,2.63-1.52s-.7-1.24-2-1.13l-2.29.19a16.67,16.67,0,0,0-6.89,2.09c-2,1.14-3.27,2.55-3.62,4L183.59,447c-.73,2.93,2.81,5,7.88,4.55l2.29-.19a16.72,16.72,0,0,0,6.89-2.09c2-1.15,3.26-2.56,3.61-4l1-4.08c.18-.73-.7-1.24-2-1.13s-2.45.78-2.63,1.51l-1,4.08c-.35,1.41-2.79,2.82-5.25,3l-2.3.19c-2.53.21-4.3-.82-3.94-2.28l2.14-8.62Zm16.74-4,2.13-8.62a3.09,3.09,0,0,0-1.76-3.53,10.78,10.78,0,0,0-6.12-1L199,421a16.67,16.67,0,0,0-6.88,2.09c-2,1.14-3.27,2.56-3.62,4l-.92,3.73c-.18.73.7,1.24,2,1.13s2.45-.78,2.63-1.51l.92-3.73a3.51,3.51,0,0,1,1.81-2,8.25,8.25,0,0,1,3.44-1.05l2.3-.19a5.36,5.36,0,0,1,3.05.51,1.54,1.54,0,0,1,.88,1.77l-2.13,8.62c-.35,1.42-2.8,2.83-5.25,3-1.27.11-2.44.78-2.63,1.52s.7,1.24,2,1.13a16.77,16.77,0,0,0,6.88-2.08c2-1.15,3.27-2.56,3.63-4Zm0,0" style="fill:#fff"></path></g><g id="freepik--speech-bubble--inject-50"><g id="freepik--speech-bubble--inject-50"><path d="M228.26,400.65V395.4a5.71,5.71,0,0,1,2.59-4.49L297,352.69a5.72,5.72,0,0,1,5.19,0L340.82,375a5.71,5.71,0,0,1,2.6,4.49v5.25a5.71,5.71,0,0,1-2.6,4.49l-66.16,38.22a5.72,5.72,0,0,1-5.19,0l-38.62-22.3A5.73,5.73,0,0,1,228.26,400.65Z" style="fill:#e0e0e0"></path><path d="M343.41,379.48v5.25a5.71,5.71,0,0,1-2.59,4.49l-66.16,38.22a5.2,5.2,0,0,1-2.59.62V416.82a5.31,5.31,0,0,0,2.59-.62L340.82,378c1.25-.72,1.41-1.84.47-2.66A5.77,5.77,0,0,1,343.41,379.48Z" style="fill:#f0f0f0"></path><path d="M242.89,412.09h0l0,0-10,1.94v11.27h0a1.31,1.31,0,0,0,1.64,1.24l23-6V409.27Z" style="fill:#f0f0f0"></path><path d="M272.07,416.35a4.79,4.79,0,0,1-2.36-.55l-12.18-7-23.18,6.09-.23,0a.85.85,0,0,1-.65-1.37l10.09-12.82-12.47-7.2a1.13,1.13,0,0,1,0-2.19l66.16-38.22a5.25,5.25,0,0,1,4.72,0l38.62,22.3a1.13,1.13,0,0,1,0,2.19L274.43,415.8A4.79,4.79,0,0,1,272.07,416.35Z" style="fill:#fafafa"></path><path d="M299.61,353a4.5,4.5,0,0,1,2.13.49l38.62,22.3c.37.22.61.48.61.69s-.24.48-.61.7L274.2,415.39a4.79,4.79,0,0,1-4.26,0l-12-6.93-.33-.19-.37.1-23,6h-.11a.37.37,0,0,1-.33-.22.35.35,0,0,1,.05-.39l9.75-12.4.67-.84-.93-.54-12-6.93c-.38-.22-.61-.49-.61-.7s.23-.47.61-.69l66.16-38.22a4.44,4.44,0,0,1,2.13-.49m0-.93a5.26,5.26,0,0,0-2.6.62l-66.16,38.22c-1.43.82-1.43,2.16,0,3l12,6.93-9.75,12.4a1.31,1.31,0,0,0,1,2.12,1.45,1.45,0,0,0,.35,0l23-6,12,6.93a5.37,5.37,0,0,0,2.6.62,5.31,5.31,0,0,0,2.59-.62L340.82,378c1.44-.83,1.44-2.17,0-3l-38.62-22.3a5.2,5.2,0,0,0-2.59-.62Z" style="fill:#e0e0e0"></path></g><path d="M273.53,401.06a2.27,2.27,0,0,1-1.09-.35L255,390.63q-.9-.51.72-1.44l1.11-.64q1.6-.93,2.49-.42l14.94,8.63,4.13-2.38a1.48,1.48,0,0,1,1-.18,3.64,3.64,0,0,1,1.25.5l.86.49a2.21,2.21,0,0,1,.86.72c.09.2,0,.39-.31.56l-7.43,4.29A2.07,2.07,0,0,1,273.53,401.06Z" style="fill:#A80083"></path><path d="M268,385l-1.66-1c-.59-.34-.27-.87,1-1.58s2.23-1,2.83-.61l1.66,1c.59.34.27.87-1,1.59S268.62,385.35,268,385Zm15.88,9.4L271.08,387q-.88-.51.78-1.47l.77-.45q1.67-1,2.55-.45L288,392q.89.51-.78,1.47l-.77.45C285.36,394.6,284.51,394.75,283.91,394.41Z" style="fill:#A80083"></path><path d="M290.87,390.39l-8.84-5.1a27.79,27.79,0,0,0-2.94-1.54c-.65-.27-1-.44-1.16-.51-.34-.2-.19-.56.43-1.1a11.55,11.55,0,0,1,1.78-1.3,1.47,1.47,0,0,1,1-.23,4.81,4.81,0,0,1,1,.32c.37.16.66.29.88.37a2.54,2.54,0,0,1,0-1.76,3.17,3.17,0,0,1,1.5-1.55,5.76,5.76,0,0,1,3.3-.77,8.3,8.3,0,0,1,3.66,1.2l10,5.79c.59.35.35.82-.72,1.44l-.94.55c-1.07.62-1.9.76-2.5.41l-9.09-5.25a3.5,3.5,0,0,0-1.29-.48,1.82,1.82,0,0,0-1.15.26,1,1,0,0,0-.5,1.31L295,388c.3.17.39.37.28.61a2.4,2.4,0,0,1-1,.81l-1,.56C292.29,390.6,291.46,390.73,290.87,390.39Z" style="fill:#A80083"></path><path d="M315.68,376.58c.3.17,0,.53-1,1.09l-1.55.89a2.48,2.48,0,0,1-.84.36,1.88,1.88,0,0,1-.77,0l-8.81-2.24-.31.18,6,3.46q.89.51-.72,1.44l-.89.51q-1.61.93-2.49.42l-19.18-11.08q-.9-.51.72-1.44l.88-.51c1.08-.62,1.91-.76,2.5-.42l11.53,6.66.14-.08-3.19-4.56c-.13-.2-.16-.36-.1-.46a2.4,2.4,0,0,1,.66-.47l1.44-.83c1-.58,1.65-.78,2-.59a1.35,1.35,0,0,1,.38.44l3.3,4.92,9.62,2.13A2.82,2.82,0,0,1,315.68,376.58Z" style="fill:#A80083"></path></g></g></g><g id="freepik--Icon--inject-50"><path id="freepik--icon--inject-50" d="M52.33,111.74c1.57-2.42,3.48-3.75,5.18-3.88L66.1,78.12a3.85,3.85,0,0,1-1.37-1.38c-1.91-3.08-1.22-9,1.53-13.24s6.53-5.16,8.43-2.07,1.22,9-1.53,13.24c-1.57,2.42-3.48,3.75-5.18,3.88l-8.59,29.74a3.93,3.93,0,0,1,1.37,1.38,6.89,6.89,0,0,1,.84,2.19L80.67,99.09A16.56,16.56,0,0,1,83.26,91C86,86.79,89.79,85.86,91.69,89s1.22,9-1.53,13.24-6.53,5.16-8.43,2.07a6.66,6.66,0,0,1-.84-2.19L61.82,114.84a16.67,16.67,0,0,1-2.59,8.07c-2.75,4.23-6.53,5.16-8.44,2.07S49.58,116,52.33,111.74Z" style="fill:#e0e0e0"></path></g><g id="freepik--Plants--inject-50"><g id="freepik--plants--inject-50"><path d="M62.17,467l8.68-5S76,440.54,74,421.22c-2.89-27.16-20.77-37.38-27.57-35s-8.76,10.25,2.48,26.42C55.5,422.15,63.65,442,62.17,467Z" style="fill:#A80083"></path><g style="opacity:0.65"><path d="M62.17,467l8.68-5S76,440.54,74,421.22c-2.89-27.16-20.77-37.38-27.57-35s-8.76,10.25,2.48,26.42C55.5,422.15,63.65,442,62.17,467Z" style="fill:#fff"></path></g><path d="M65.76,456.48h-.08a.61.61,0,0,1-.48-.71c4.76-25.05-4-53.2-14.83-64.91a.61.61,0,0,1,.89-.82c11,11.93,19.95,40.54,15.12,66A.6.6,0,0,1,65.76,456.48Z" style="fill:#fff"></path><path d="M40.32,479.64c-1.3.66-4.75-2.29-5.71-3a12.1,12.1,0,0,1-3.77-4.79,11.31,11.31,0,0,1-.66-6.82,27.39,27.39,0,0,1,1-3.56L32.4,458a8.83,8.83,0,0,0,.69-3.49c-.19-2.41-2.22-4.19-4.08-5.73-2.05-1.71-4.17-3.93-4-6.8a10.15,10.15,0,0,1,2.84-5.9c1.46-1.67,3.17-3.13,4.51-4.9a7.06,7.06,0,0,0,1.67-4.4,7.28,7.28,0,0,0-.83-2.84c-.92-1.93-2.17-3.71-2.77-5.76s-.38-4.55,1.27-5.91c1.35-1.11,3.27-1.18,5-1a11.46,11.46,0,0,1,4.52,1.85c4.44,2.77,6.78,8.32,11.52,10.51a47.8,47.8,0,0,0,5.8,1.73c1.92.62,3.86,1.71,4.67,3.56,1.6,3.64-1.92,7.86-.86,11.69.93,3.4,4.11,4.84,5.78,7.94a7.17,7.17,0,0,1,.64,4.41,21,21,0,0,1-2.22,7.29A65.32,65.32,0,0,1,62.17,467S40.52,479.54,40.32,479.64Z" style="fill:#A80083"></path><g style="opacity:0.30000000000000004"><path d="M40.32,479.64c-1.3.66-4.75-2.29-5.71-3a12.1,12.1,0,0,1-3.77-4.79,11.31,11.31,0,0,1-.66-6.82,27.39,27.39,0,0,1,1-3.56L32.4,458a8.83,8.83,0,0,0,.69-3.49c-.19-2.41-2.22-4.19-4.08-5.73-2.05-1.71-4.17-3.93-4-6.8a10.15,10.15,0,0,1,2.84-5.9c1.46-1.67,3.17-3.13,4.51-4.9a7.06,7.06,0,0,0,1.67-4.4,7.28,7.28,0,0,0-.83-2.84c-.92-1.93-2.17-3.71-2.77-5.76s-.38-4.55,1.27-5.91c1.35-1.11,3.27-1.18,5-1a11.46,11.46,0,0,1,4.52,1.85c4.44,2.77,6.78,8.32,11.52,10.51a47.8,47.8,0,0,0,5.8,1.73c1.92.62,3.86,1.71,4.67,3.56,1.6,3.64-1.92,7.86-.86,11.69.93,3.4,4.11,4.84,5.78,7.94a7.17,7.17,0,0,1,.64,4.41,21,21,0,0,1-2.22,7.29A65.32,65.32,0,0,1,62.17,467S40.52,479.54,40.32,479.64Z" style="fill:#fff"></path></g><path d="M52.88,473.09h0a.59.59,0,0,1-.53-.62c2.08-22.53-7.3-48-14.67-55.63a.57.57,0,1,1,.82-.79c7.52,7.78,17.1,33.67,15,56.52A.57.57,0,0,1,52.88,473.09Z" style="fill:#fff"></path><path d="M50.64,445.31l-.16,0a75.64,75.64,0,0,0-16.25-3.46.57.57,0,0,1-.52-.62.55.55,0,0,1,.62-.52,77.77,77.77,0,0,1,16.54,3.53.58.58,0,0,1,.34.73A.58.58,0,0,1,50.64,445.31Z" style="fill:#fff"></path></g></g><g id="freepik--Character--inject-50"><g id="freepik--character--inject-50"><g id="freepik--Bottom--inject-50"><path d="M361.44,419.55c.09,4.94.48,12.13,0,14.18s-8.72,4-15.16,4.34-14.19-.7-14.65,3.82,3.56,7.6,6.52,9c5,2.32,10.63,1.82,15.56,1.09s7.55-.19,12.76,1.08,8.14.49,10.36-.63c3.3-1.65,2.42-7.28,1.26-10.95s-1-7-.6-12.11,1.88-12.51,1.88-12.51Z" style="fill:#ffbda7"></path><path d="M378.09,441.45s0,1.56-3.38,2.27-9,.52-12.9.78c-5.88.38-10.35,1.05-17.09,0-5.92-.93-5.67-5.62-.37-6.37h0c-6,.1-12.3-.31-12.72,3.76-.47,4.57,3.56,7.6,6.52,9,5,2.32,10.63,1.82,15.56,1.09s7.55-.19,12.76,1.08,8.14.49,10.36-.63C380.13,450.75,379.25,445.12,378.09,441.45Z" style="fill:#455a64"></path><path d="M422.61,407.29c2.76,4,7.33,11.58,8,13.47s1.2,8.94,0,11c-1.73,1.26-4.44,2-6.76,3.13-3.34,1.65-4.06,4.39-1.87,6.48,3,2.93,8,3.27,10.93,3.1,4.32-.66,4.62-5.5,5.24-9.78S438,422,441.28,416.83s9-5.66,9.75-3.94c-.35-2.6-1.79-2.68-4.9-4.44s-5.83-1.71-7.55-5.8c-2-4.83-3.9-10.61-3.9-10.61Z" style="fill:#ffbda7"></path><path d="M428.69,444.58c3.1.52,5.28.51,10.79-2.19,4.75-2.33,6-3.31,6.68-4.61,1.15-2-.09-7.09.91-11.45a45.58,45.58,0,0,1,3.14-8.89c1.07-2.64,1-3.78.82-4.55-.37-1.65-3.73-1.86-6.93,0s-5.27,5.4-6.32,13.83S438.35,444.37,428.69,444.58Z" style="fill:#263238"></path><path d="M451,412.89c-.35-2.6-1.25-3-4.37-4.75-1.15-.65-2.29-1.12-3.35-1.67h0c-3-.57-7.77,1.8-8,8.13s.84,14.35-1.06,17.33c-1.62,2.53-4.29,2.36-3.67-.15-4.28,1.57-5.75,1.59-8.16,2.91-2.78,1.52-3.72,5.5-1.15,7.1a16.51,16.51,0,0,0,11.61,2.7c4.32-.66,4.62-5.5,5.24-9.78S438,422,441.28,416.83,450.28,411.17,451,412.89Z" style="fill:#455a64"></path><path d="M423.43,409.8s-15.69-23.05-24.08-38c-6.2-11-6.76-13.18-8.28-20.4-3.27-15.52-4-19.16-4-19.16l-4.87,31.35c.78,3.4,2.35,10.14,2.41,14.1a153.33,153.33,0,0,1-1.88,23.11,242.2,242.2,0,0,1-4.77,25.61c-1.22.85-4.76,1-7.84.91a36,36,0,0,1-8.8-1.64s-2.56-36.94-3.16-47.11c-.71-12.19-1-17-1.34-23.68-.61-10.66-2.06-26.11-1.65-45.7.83-39,9.51-56.77,9.51-56.77l44-6.11c3.65,13.13,11.24,14.66,12,32.58.19,4.07-2,12.15-2,18.46-.23,20.48-2.06,52.65-2.06,52.65,4.83,4.46,8.37,8.48,11.7,18.82,2,6.27,6.53,22.15,8.42,28.6C431.15,397.43,423.36,407.29,423.43,409.8Z" style="fill:#455a64"></path><path d="M379,274.9l1.16-.18c1,7.06,2.71,15.07,3.64,15.71,1.62,1.1,7.6,2,8.95,1.66s2.53-1.43,4.92-4.68c1.68-2.28,1.5-3.7,1.1-6.81-.14-1.16-.31-2.48-.42-4.14l1.18-.08c.1,1.62.27,2.92.41,4.07.4,3.13.64,5-1.33,7.69-2.58,3.51-3.89,4.71-5.59,5.12a4.41,4.41,0,0,1-.75.1c-2.37.1-7.52-.84-9.12-1.93C381.3,290.21,379.47,278.47,379,274.9Z" style="fill:#37474f"></path><path d="M360.94,273.86l1.13.33c-3.33,12-2.6,22.93,3.36,26.26,1.09-8.08,2.62-16.43,4.73-25.37l1.14.28c-6.78,28.78-7.6,51.45-6.73,78.7.67,20.76,2,56.44,2.6,73l-1.19-.2c-.62-16.66-1.92-52.1-2.58-72.76-.6-18.44-.4-34.81,1.87-52.38C358.44,298.25,357.36,286.7,360.94,273.86Z" style="fill:#37474f"></path><path d="M420.18,284.6a6.53,6.53,0,0,1-2.59,1.52h0c-1.86.09-4.93-2.56-5.81-4.55A13.44,13.44,0,0,1,411,278a31.88,31.88,0,0,0-1-5.35l1.13-.34a34.6,34.6,0,0,1,1,5.54,12.85,12.85,0,0,0,.65,3.28c.74,1.68,3.43,3.89,4.67,3.84h0a9.5,9.5,0,0,0,2.93-2.33C420.38,283.18,420.27,284,420.18,284.6Z" style="fill:#37474f"></path><path d="M427.12,403.6c.28-.32.55-.63.84-.93-7.51-13.1-23.64-41.76-25.08-48.71-1.85-8.91-5-38.76-5.15-54.82h-1.18c.13,16.12,3.32,46.11,5.18,55.06C403.23,361.49,419.66,390.6,427.12,403.6Z" style="fill:#37474f"></path><path d="M404.11,270.22c3,4.75,4.8,13.08.94,22.21L404,292c3.67-8.71,2-16.6-.85-21.09Z" style="fill:#37474f"></path><path d="M387,332.25l4.78-32.87s12.37-1.73,14.08-13.33c.3,6.88-2.45,12.8-10.13,16l-6.14,30.34,1.44,19Z" style="fill:#37474f"></path></g><g id="freepik--Top--inject-50"><g id="freepik--Mobile--inject-50"><path d="M305.93,183.34V149.43a1.59,1.59,0,0,0-.73-1.64,1.56,1.56,0,0,0-1.79.18l-14.82,8.56a2.33,2.33,0,0,0-1,1.82v33.91a1.54,1.54,0,0,0,2.52,1.46l14.83-8.56A2,2,0,0,0,305.93,183.34Z" style="fill:#37474f"></path><path d="M305,183.68l-15.24,8.8V158.42l-1.91-1.1a2.07,2.07,0,0,0-.3,1v33.91a1.64,1.64,0,0,0,.74,1.64,1.61,1.61,0,0,0,1.78-.18l14.83-8.56a2,2,0,0,0,.9-1l-.06,0Z" style="fill:#263238"></path><path d="M304.86,149.12,290,157.7a1.67,1.67,0,0,0-.74,1.28V192.6c0,.72.51,1,1.14.65l14.47-8.35a1.86,1.86,0,0,0,.83-1.45V149.6C305.69,149.07,305.32,148.86,304.86,149.12Z" style="fill:#455a64"></path><path d="M305,151.3v31.3a1.74,1.74,0,0,1-.8,1.37l-13.4,7.74c-.44.26-.79,0-.79-.45V159.71a1.75,1.75,0,0,1,.56-1.19l.07-.07.16-.11,3.77-2.17.25-.15c.13-.07.24,0,.24.15s.12.21.27.13l4.39-2.54a.57.57,0,0,0,.26-.43.55.55,0,0,1,.22-.41l0,0,3.69-2.13.07,0C304.52,150.41,305,150.67,305,151.3Z" style="fill:#263238"></path><path d="M303.89,150.77v31.09a1.75,1.75,0,0,1-.8,1.37L290,190.8V159.71a1.75,1.75,0,0,1,.56-1.19l.07-.07.16-.11,3.77-2.17.25-.15c.13-.07.24,0,.24.15s.12.21.27.13l4.39-2.54a.57.57,0,0,0,.26-.43.55.55,0,0,1,.22-.41l0,0Z" style="fill:#fff"></path><path d="M296,155l2-1.16c.12-.07.21,0,.21.11a.46.46,0,0,1-.21.36l-2,1.16c-.12.07-.21,0-.21-.11A.46.46,0,0,1,296,155Z" style="fill:#263238"></path><path d="M299,153.1c.14-.07.25,0,.25.14a.54.54,0,0,1-.25.43c-.13.08-.24,0-.24-.14A.56.56,0,0,1,299,153.1Z" style="fill:#263238"></path><path d="M288.91,162.66a.87.87,0,0,0-.38-.7.27.27,0,0,0-.27,0l-.29.17a.3.3,0,0,0-.12.27v2.93a.87.87,0,0,0,.39.7.26.26,0,0,0,.25,0l.3-.17a.3.3,0,0,0,.12-.28Z" style="fill:#455a64"></path><path d="M288.62,162.82v2.93c0,.26-.17.37-.38.25a.87.87,0,0,1-.39-.7v-2.93c0-.26.17-.37.39-.25A.89.89,0,0,1,288.62,162.82Z" style="fill:#37474f"></path><path d="M288.91,167.78a.91.91,0,0,0-.38-.71.29.29,0,0,0-.27,0l-.29.17a.3.3,0,0,0-.12.27v2.93a.87.87,0,0,0,.39.7.26.26,0,0,0,.25,0l.3-.17a.3.3,0,0,0,.12-.28Z" style="fill:#455a64"></path><path d="M288.62,167.94v2.93c0,.26-.17.37-.38.25a.87.87,0,0,1-.39-.7v-2.93c0-.26.17-.37.39-.25A.89.89,0,0,1,288.62,167.94Z" style="fill:#37474f"></path></g><path d="M412.37,193.22c8,1.9,12.34,4.12,15.64,15,3.12,10.3,8.34,27.69,9.71,35.07.67,3.59,1,7-4,9.13-11.3,4.78-22.19,8.13-22.19,8.13l-4.41-13.34,12.08-6-3-9.72Z" style="fill:#ffbda7"></path><path d="M419.18,241.19a11.47,11.47,0,0,0,5,5.44c-2.94.36-5.81-2.72-6.56-4.65Z" style="fill:#f0997a"></path><path d="M373.48,153.37c-1.4-1.87-1.2-4.67-.2-6.77s2.94-4.27,8.3-6.58c6.38-2.75,23.77-4.57,30.44,7.07,1,1.74-17.19,32.52-16.83,39.06-4-4.84-17.09-21.8-17.09-21.8-3.27-1.67-5.22-3-5.71-6.27A7.83,7.83,0,0,1,373.48,153.37Z" style="fill:#263238"></path><path d="M375.38,162.39s-5.08,7.12-4.62,7.76a22.87,22.87,0,0,0,3.22,2.47Z" style="fill:#f0997a"></path><path d="M382,149.23c-3.16,1.23-6,3.38-7.4,10-.38,1.73.82,4.23,0,6.52-3.37,9.79-.81,18.34,1,20.31,1.23,1.33,8,2.37,11.71,1.63,4.59-.94,14.68-4.66,19.84-11.36,6.08-7.89,8.15-18.93,2.36-23.83C401.41,145.62,385.38,147.92,382,149.23Z" style="fill:#ffbda7"></path><path d="M403.86,181.78l.58,9.95h0c5.52,3.23-5.91,7.44-18,2.25l-.88-9Z" style="fill:#ffbda7"></path><path d="M385.94,189.1c.22,2.3.45,5.74-3.12,6.69-3.35.9-8.77,1.45-14.06,3.43,0,0,19.05,3,29,1.36s11.73-8.08,11.73-8.08c-3.6-.48-5.1-1.08-5.24-3.4Z" style="fill:#ffbda7"></path><path d="M376,186.36c1.53,1,5,1.9,9.83,1.57l-.22-2.49a25.58,25.58,0,0,1-4.65,1A16.84,16.84,0,0,1,376,186.36Z" style="fill:#f0997a"></path><path d="M377.23,152.49c-.47,4.33,2.16,5.9,4,6.89a9.39,9.39,0,0,0-1.17,5.07c.28,2.23,1,4.1,3.11,5,1.29.54,1.73,0,2.27-1,.78-1.44,1.79-3.66,4.95-3,3.63.77,4.21,6.35,1.81,9.81a5.38,5.38,0,0,1-4.32,2.49,3.35,3.35,0,0,1-2.41-1.35s-.1,4.83,5.89,8.12c0,0,6,4,12.54,2.53a120.11,120.11,0,0,0,8.86-9.46c7.46-9.28,9-26.92-2.27-30.94-.54-.19-9.81-2.54-15-1.79C379.72,147.08,377.31,151.74,377.23,152.49Z" style="fill:#263238"></path><path d="M412,147.09c1.78,0,7.16,2.75,7.15,14.71,0,8.07-2,18.88-4.58,23.94-6.92,7.63-27,9.09-35.82,5.89,5.74-2.63,6.77-9.76,6.74-15.28,2.62,4,7.42,4.91,13.22,2S412,147.09,412,147.09Z" style="fill:#263238"></path><path d="M420.13,203.12c-1.66-8.08-6-9.83-8-10.18-3.11-.55-5-.87-5-.87.06,1,.69,3.23-8.24,4.35-5.75.72-15.65-.75-15.65-.75l-8.85,1.2c-3.27,2-11.29,9.74-15.07,18.67-3,7.06-1.87,14.25,3.46,19.5.41,4.43-.31,13.21-.31,13.21-3.07,16-4.78,22.75-4.78,22.75s4.19,6.55,31.32,5.94c21-.47,30.7-9.86,30.7-9.86-.61-3.14-2.8-9.86-6.77-20.31C413.44,236.55,423.72,220.58,420.13,203.12Z" style="fill:#A80083"></path><path d="M329.28,208.12S309,195.67,307.78,194c-1.07-1.43-1-3.21-1.24-4.89a20.19,20.19,0,0,0-1.72-5.55c-.53-1.16-1.26-2.25-1.72-3.43s-.38-2.29-.78-3.39-1.52-.75-2.22,0A5.36,5.36,0,0,0,299,180.6c0,.61.06,1.22.1,1.83a8.16,8.16,0,0,1,.12,1.7,1.38,1.38,0,0,1-.32.81c-.46.41-1.32-.23-1.7-.54a24.23,24.23,0,0,1-6.08-7.49c-.64-1.24-1-2.53-1.77-3.73a12.55,12.55,0,0,0-2.43-3,4.58,4.58,0,0,0-2.28-1.19c-1.38.08-.62,2.47-.51,3.23a4.65,4.65,0,0,1-.17,2.56,3.92,3.92,0,0,0,0,3c.3,1,.89,2.2.7,3.26a8.92,8.92,0,0,1-.35,1.11,5.69,5.69,0,0,0,.36,3.45,4.56,4.56,0,0,1,.26,3.21c-.5,2.49,1.46,5,3,6.8a33.9,33.9,0,0,0,6,5.23c1.16.83,2.26,1.74,3.44,2.54s2.19,1.32,3.2,2.11c2.38,1.89,11.46,10.71,22,19.25,3.49,2.82,4.56,3.8,11.32,2.58,12.16-2.19,14.9-2.8,22.17-4.15,11.09-2.06,12.46-2.4,12.46-2.4,6.91-3,7.88-11.29,8.06-15.43a14.24,14.24,0,0,0-2.17-8.46c-6.33.29-11.79,1.77-21.92,4.73C340.52,205.1,329.28,208.12,329.28,208.12Z" style="fill:#ffbda7"></path></g></g></g><g id="freepik--speech-bubble--inject-50"><g id="freepik--speech-bubble--inject-50"><g id="freepik--speech-bubble--inject-50"><path d="M392.1,130.73l-3.84-7.22,3.09-8.92v-5.46l-9.46,5.46v5.46l4.07,7a.61.61,0,0,0,.27.24h0Z" style="fill:#A80083"></path><path d="M392.1,130.73l-3.84-7.22,3.09-8.92v-5.46l-9.46,5.46v5.46l4.07,7a.61.61,0,0,0,.27.24h0Z" style="opacity:0.2"></path><path d="M412.41,61.4a6.25,6.25,0,0,0-2.84-4.91l-2.31-1.34a6.29,6.29,0,0,0-5.67,0L369,74.06A6.27,6.27,0,0,0,366.14,79v44.58a6.25,6.25,0,0,0,2.84,4.91l2.31,1.33a6.23,6.23,0,0,0,5.67,0l10.87-6.3,4.06,7a.6.6,0,0,0,1.09-.1L397.27,118l12.3-7.14a6.28,6.28,0,0,0,2.84-4.91Z" style="fill:#A80083"></path><path d="M366.14,123.55a6.25,6.25,0,0,0,2.84,4.91l2.31,1.33a6.31,6.31,0,0,0,5.18.23c-1.33.51-2.35-.25-2.35-1.86V83.58a5.8,5.8,0,0,1,.83-2.79l-8-4.61a5.83,5.83,0,0,0-.83,2.79Z" style="opacity:0.2"></path><path d="M412.32,60.59c-.34-1.2-1.43-1.59-2.74-.83L377,78.67a5.61,5.61,0,0,0-2,2.12l-8-4.6a5.77,5.77,0,0,1,2-2.12l32.61-18.92a6.35,6.35,0,0,1,5.67,0l2.32,1.34A6.3,6.3,0,0,1,412.32,60.59Z" style="fill:#fff;opacity:0.30000000000000004"></path></g><g id="freepik--icon--inject-50"><path id="freepik--online-icon--inject-50" d="M401.84,75.19c-2.6-1.5-5.91-1.25-9.31.71C385,80.27,378.8,92,378.8,102.08c0,5.4,1.79,9.53,4.91,11.33a7.38,7.38,0,0,0,3.7,1A11.42,11.42,0,0,0,393,112.7c7.57-4.37,13.72-16.12,13.72-26.18C406.74,81.12,405,77,401.84,75.19Zm-22,26a33.44,33.44,0,0,1,4.39-14.84,7.15,7.15,0,0,0,1.92.6,35.66,35.66,0,0,0-2.39,12Zm13.45-6.63,7.53-4.35a35.25,35.25,0,0,1-2.41,11.3,10.54,10.54,0,0,0-5.12,1.28Zm0-1.14V85.25a22.44,22.44,0,0,0,5.41-4.74,16.56,16.56,0,0,1,2.14,8.58Zm0-9.36V76.87a7.2,7.2,0,0,1,4.83,2.81A22.29,22.29,0,0,1,393.27,84.08Zm-1,.6a10.19,10.19,0,0,1-4.74,1.4,38.22,38.22,0,0,1,4.74-8.35Zm-5.13,2.39.26,0a10.92,10.92,0,0,0,4.87-1.31V94l-7.54,4.36A35.25,35.25,0,0,1,387.15,87.07Zm5.13,8.08v8.19a22.56,22.56,0,0,0-5.42,4.75,16.47,16.47,0,0,1-2.14-8.58Zm0,9.36v7.22a7.2,7.2,0,0,1-4.84-2.81A22.41,22.41,0,0,1,392.28,104.51Zm1-.6a10.27,10.27,0,0,1,4.73-1.4,38.36,38.36,0,0,1-4.73,8.35Zm8.53-14.26,3.93-2.26a33.63,33.63,0,0,1-4.4,14.84,7.15,7.15,0,0,0-1.92-.6A35.91,35.91,0,0,0,401.8,89.65Zm3.95-3.41-4,2.29a17,17,0,0,0-2.45-8.83,32,32,0,0,0,2.35-3.41C404.22,78,405.69,81.56,405.75,86.24Zm-4.91-10.45a32.2,32.2,0,0,1-2.11,3.09,8.25,8.25,0,0,0-4.37-2.81,9.5,9.5,0,0,1,3.77-.86A6.46,6.46,0,0,1,400.84,75.79Zm-10.37,2.77a39.67,39.67,0,0,0-4,7.46,5.89,5.89,0,0,1-1.81-.52A28.07,28.07,0,0,1,390.47,78.56Zm-10.67,23.8,3.95-2.29a16.86,16.86,0,0,0,2.45,8.83,32,32,0,0,0-2.35,3.41C381.32,110.61,379.86,107,379.8,102.36Zm4.91,10.44a32,32,0,0,1,2.1-3.08,8.12,8.12,0,0,0,4.35,2.8A7.76,7.76,0,0,1,384.71,112.8ZM395.06,110a38.93,38.93,0,0,0,4-7.47,6.18,6.18,0,0,1,1.81.52A27.55,27.55,0,0,1,395.06,110Z" style="fill:#fff"></path></g></g></g></svg>