<svg xmlns="http://www.w3.org/2000/svg" viewBox="0 0 500 500"><g id="freepik--Floor--inject-26"><path id="freepik--floor--inject-26" d="M126.54,453.45c-70.95-41-70.95-107.38,0-148.34s186-41,256.92,0,71,107.37,0,148.34S197.48,494.41,126.54,453.45Z" style="fill:#fafafa"></path></g><g id="freepik--Window--inject-26"><g id="freepik--window--inject-26"><polygon points="146.43 125.99 36.57 189.45 36.57 97.85 146.43 34.4 146.43 125.99" style="fill:#fff"></polygon><polygon points="33.81 191.05 36.57 192.7 149.19 127.63 146.43 125.99 33.81 191.05" style="fill:#fafafa"></polygon><path d="M154.39,23.76l-123,71.08V201.71l123-71.07Zm-5.21,103.87L36.57,192.7V97.85L149.19,32.78Z" style="fill:#f0f0f0"></path><polygon points="149.19 127.63 146.43 125.99 146.43 34.4 149.19 32.78 149.19 127.63" style="fill:#e0e0e0"></polygon><polygon points="154.39 23.76 151.59 22.16 28.57 93.24 31.37 94.84 154.39 23.76" style="fill:#fafafa"></polygon><polygon points="28.57 93.24 31.37 94.84 31.37 201.71 28.57 200.11 28.57 93.24" style="fill:#e0e0e0"></polygon><polygon points="38.87 117.56 38.87 120.8 149.19 56.96 146.43 55.31 38.87 117.56" style="fill:#fafafa"></polygon><polygon points="87.47 68.41 90.28 66.79 90.28 161.65 87.47 160.05 87.47 68.41" style="fill:#e0e0e0"></polygon><polygon points="95.48 63.8 90.28 66.79 90.28 161.65 95.48 158.64 95.48 63.8" style="fill:#f0f0f0"></polygon><polygon points="149.19 56.96 149.19 62.96 36.52 128.37 36.52 122.36 149.19 56.96" style="fill:#f0f0f0"></polygon><polygon points="90.28 91.15 87.47 89.43 36.57 118.89 36.57 122.36 90.28 91.15" style="fill:#fafafa"></polygon></g></g><g id="freepik--Pictures--inject-26"><g id="freepik--pictures--inject-26"><g id="freepik--Picture--inject-26"><g id="freepik--Frame--inject-26"><polygon points="464.24 126.1 462.69 127.02 430.99 108.72 432.53 107.8 464.24 126.1" style="fill:#fafafa"></polygon><polygon points="432.53 107.8 462.69 125.21 462.69 93.63 432.53 76.23 432.53 107.8" style="fill:#fff"></polygon><path d="M428.07,110.4l37.54,21.67V91.94L428.07,70.27ZM431,75.32l31.7,18.31V127L431,108.72Z" style="fill:#f0f0f0"></path><polygon points="430.99 108.72 432.53 107.8 432.53 76.23 430.99 75.32 430.99 108.72" style="fill:#e0e0e0"></polygon><polygon points="428.07 70.27 429.64 69.37 467.17 91.04 465.61 91.94 428.07 70.27" style="fill:#fafafa"></polygon><polygon points="467.17 91.04 465.61 91.94 465.61 132.07 467.17 131.18 467.17 91.04" style="fill:#e0e0e0"></polygon></g><g id="freepik--Land--inject-26"><polygon points="433.71 106.85 461.51 122.91 461.51 114.88 454.56 98.83 450.23 102.84 451.79 109.57 442.19 89.04 433.71 98.83 433.71 106.85" style="fill:#f0f0f0"></polygon><path d="M450.49,91.08a4.53,4.53,0,0,1,2.06,3.56c0,1.31-.92,1.84-2.06,1.19a4.56,4.56,0,0,1-2.05-3.57C448.44,91,449.36,90.42,450.49,91.08Z" style="fill:#f0f0f0"></path></g></g><g id="freepik--picture--inject-26"><g id="freepik--frame--inject-26"><polygon points="416.69 78.89 415.15 79.81 383.44 61.51 384.99 60.58 416.69 78.89" style="fill:#fafafa"></polygon><polygon points="384.99 60.58 415.15 77.99 415.15 46.41 384.99 29.01 384.99 60.58" style="fill:#fff"></polygon><path d="M380.53,63.19l37.53,21.67V44.73L380.53,23.06Zm2.91-35.08,31.71,18.3v33.4l-31.71-18.3Z" style="fill:#f0f0f0"></path><polygon points="383.44 61.51 384.99 60.58 384.99 29.01 383.44 28.11 383.44 61.51" style="fill:#e0e0e0"></polygon><polygon points="380.53 23.06 382.1 22.16 419.63 43.83 418.06 44.73 380.53 23.06" style="fill:#fafafa"></polygon><polygon points="419.63 43.83 418.06 44.73 418.06 84.86 419.63 83.96 419.63 43.83" style="fill:#e0e0e0"></polygon></g><g id="freepik--land--inject-26"><polygon points="386.17 59.64 413.97 75.69 413.97 67.67 407.02 51.61 402.69 55.63 404.25 62.35 394.64 41.82 386.17 51.61 386.17 59.64" style="fill:#f0f0f0"></polygon><path d="M403,43.86A4.56,4.56,0,0,1,405,47.43c0,1.31-.92,1.84-2.05,1.18a4.53,4.53,0,0,1-2.06-3.56C400.89,43.74,401.81,43.21,403,43.86Z" style="fill:#f0f0f0"></path></g></g></g></g><g id="freepik--Shadows--inject-26"><path id="freepik--Shadow--inject-26" d="M237.16,456.92c-14.28-8.24-14.28-21.6,0-29.84s37.41-8.24,51.68,0,14.28,21.6,0,29.84S251.43,465.16,237.16,456.92Z" style="fill:#f0f0f0"></path><path id="freepik--shadow--inject-26" d="M43.57,434.18c-23.41-13.52-23.41-35.43,0-48.94s61.36-13.52,84.76,0,23.41,35.42,0,48.94S67,447.69,43.57,434.18Z" style="fill:#f0f0f0"></path></g><g id="freepik--Gears--inject-26"><g id="freepik--Gear--inject-26"><path d="M407,379.61h0a.85.85,0,0,0,.51.74l1.95,1,1.14-.19a2,2,0,0,0,1.47-1.43,10.16,10.16,0,0,1,.45-1.23,1.28,1.28,0,0,0-.54-1.69l-4.54-2.35a.84.84,0,0,1-.52-.71Zm16.64-2c-2.64,2.22-3,5-1.35,7.38a8.55,8.55,0,0,1,1.42-1.51c4.19-3.52,12.55-4.3,18.68-1.75a10.76,10.76,0,0,1,4.84,3.58c2.27-3.3.37-7.26-4.91-9.46C436.17,373.35,427.81,374.14,423.62,377.65Zm-20,11.43h0a1.12,1.12,0,0,0,0,.36l1,3.17a1.77,1.77,0,0,0,1.63,1.18l6.44-.19a2.67,2.67,0,0,1,1,.21h0a2.26,2.26,0,0,1,.56.28l2.2-2.37a1.12,1.12,0,0,0-.18-1.67,15.22,15.22,0,0,1-1.55-1.41,3.49,3.49,0,0,0-1.09-.71,2.56,2.56,0,0,0-1-.22l-6.43.2a1.79,1.79,0,0,1-1.63-1.18l-1-3.17a1.06,1.06,0,0,1-.06-.34Zm52-19.49a.87.87,0,0,1-.26.51l-2.52,2.72a1.11,1.11,0,0,0,.18,1.67,15,15,0,0,1,1.55,1.41,2.66,2.66,0,0,0,.54.42l.32-.36a.89.89,0,0,0,.26-.63h0ZM413.81,401a.88.88,0,0,0,.1.35,1,1,0,0,0,.49.41l5.66,2.35a1.13,1.13,0,0,0,.24.08l.19,0a3.11,3.11,0,0,0,.86,0l.18,0h0a2.12,2.12,0,0,0,.72-.27l3.76-2.51a3.52,3.52,0,0,1,2.27-.43c1.2.23,2.42.39,3.64.5a2.44,2.44,0,0,1,1.23.53,1.54,1.54,0,0,1,.32.3.65.65,0,0,1,.13.16.91.91,0,0,1,.16.24l1.43,2.78,0,.06a.8.8,0,0,0,.15.21.9.9,0,0,0,.16.18l0,0a1.93,1.93,0,0,0,.21.17,2.3,2.3,0,0,0,.46.25,1.84,1.84,0,0,0,.79.12l7-.66a1.19,1.19,0,0,0,1.09-1.2l-.05-4a1.57,1.57,0,0,1,.72-.5,28.76,28.76,0,0,0,2.92-1.06,3.76,3.76,0,0,1,2.32-.13l.07,0,5.43,1.79a1.37,1.37,0,0,0,.29.07h.05a1.16,1.16,0,0,0,.32,0,2.4,2.4,0,0,0,1.49-.49l3.55-3a.87.87,0,0,0,.35-.64l-.07-5.84a.87.87,0,0,1-.35.61l-3.55,3a2.17,2.17,0,0,1-.79.39,2.46,2.46,0,0,1-1.37,0L451,393.07l-.06,0a3.86,3.86,0,0,0-2.33.13,26.54,26.54,0,0,1-2.92,1.06,1.53,1.53,0,0,0-1,1.6l.36,2.71a1.21,1.21,0,0,1-1.08,1.38l-7,.66a1.73,1.73,0,0,1-.79-.13,2,2,0,0,1-1-.89l-1.43-2.79a2.28,2.28,0,0,0-.6-.69,2.47,2.47,0,0,0-1.24-.53c-1.22-.11-2.44-.27-3.64-.5a3.53,3.53,0,0,0-2.27.44l-3.75,2.5a2,2,0,0,1-.73.28,2.59,2.59,0,0,1-1.47-.08l-5.65-2.35a.85.85,0,0,1-.6-.77Zm45-17.58a2.07,2.07,0,0,0-1.48,1.44,7.19,7.19,0,0,1-.45,1.22,1.28,1.28,0,0,0,.54,1.69l2.59,1.34,5-.8a1,1,0,0,0,.89-1h0l-.07-5.88a1,1,0,0,1-.9,1Z" style="fill:#e6e6e6"></path><path d="M407,379.61h0a.85.85,0,0,0,.51.74l1.95,1,1.14-.19a2,2,0,0,0,1.47-1.43,10.16,10.16,0,0,1,.45-1.23,1.28,1.28,0,0,0-.54-1.69l-4.54-2.35a.84.84,0,0,1-.52-.71Zm16.64-2c-2.64,2.22-3,5-1.35,7.38a8.55,8.55,0,0,1,1.42-1.51c4.19-3.52,12.55-4.3,18.68-1.75a10.76,10.76,0,0,1,4.84,3.58c2.27-3.3.37-7.26-4.91-9.46C436.17,373.35,427.81,374.14,423.62,377.65Zm-20,11.43h0a1.12,1.12,0,0,0,0,.36l1,3.17a1.77,1.77,0,0,0,1.63,1.18l6.44-.19a2.67,2.67,0,0,1,1,.21h0a2.26,2.26,0,0,1,.56.28l2.2-2.37a1.12,1.12,0,0,0-.18-1.67,15.22,15.22,0,0,1-1.55-1.41,3.49,3.49,0,0,0-1.09-.71,2.56,2.56,0,0,0-1-.22l-6.43.2a1.79,1.79,0,0,1-1.63-1.18l-1-3.17a1.06,1.06,0,0,1-.06-.34Zm52-19.49a.87.87,0,0,1-.26.51l-2.52,2.72a1.11,1.11,0,0,0,.18,1.67,15,15,0,0,1,1.55,1.41,2.66,2.66,0,0,0,.54.42l.32-.36a.89.89,0,0,0,.26-.63h0ZM413.81,401a.88.88,0,0,0,.1.35,1,1,0,0,0,.49.41l5.66,2.35a1.13,1.13,0,0,0,.24.08l.19,0a3.11,3.11,0,0,0,.86,0l.18,0h0a2.12,2.12,0,0,0,.72-.27l3.76-2.51a3.52,3.52,0,0,1,2.27-.43c1.2.23,2.42.39,3.64.5a2.44,2.44,0,0,1,1.23.53,1.54,1.54,0,0,1,.32.3.65.65,0,0,1,.13.16.91.91,0,0,1,.16.24l1.43,2.78,0,.06a.8.8,0,0,0,.15.21.9.9,0,0,0,.16.18l0,0a1.93,1.93,0,0,0,.21.17,2.3,2.3,0,0,0,.46.25,1.84,1.84,0,0,0,.79.12l7-.66a1.19,1.19,0,0,0,1.09-1.2l-.05-4a1.57,1.57,0,0,1,.72-.5,28.76,28.76,0,0,0,2.92-1.06,3.76,3.76,0,0,1,2.32-.13l.07,0,5.43,1.79a1.37,1.37,0,0,0,.29.07h.05a1.16,1.16,0,0,0,.32,0,2.4,2.4,0,0,0,1.49-.49l3.55-3a.87.87,0,0,0,.35-.64l-.07-5.84a.87.87,0,0,1-.35.61l-3.55,3a2.17,2.17,0,0,1-.79.39,2.46,2.46,0,0,1-1.37,0L451,393.07l-.06,0a3.86,3.86,0,0,0-2.33.13,26.54,26.54,0,0,1-2.92,1.06,1.53,1.53,0,0,0-1,1.6l.36,2.71a1.21,1.21,0,0,1-1.08,1.38l-7,.66a1.73,1.73,0,0,1-.79-.13,2,2,0,0,1-1-.89l-1.43-2.79a2.28,2.28,0,0,0-.6-.69,2.47,2.47,0,0,0-1.24-.53c-1.22-.11-2.44-.27-3.64-.5a3.53,3.53,0,0,0-2.27.44l-3.75,2.5a2,2,0,0,1-.73.28,2.59,2.59,0,0,1-1.47-.08l-5.65-2.35a.85.85,0,0,1-.6-.77Zm45-17.58a2.07,2.07,0,0,0-1.48,1.44,7.19,7.19,0,0,1-.45,1.22,1.28,1.28,0,0,0,.54,1.69l2.59,1.34,5-.8a1,1,0,0,0,.89-1h0l-.07-5.88a1,1,0,0,1-.9,1Z" style="opacity:0.1"></path><path d="M451,393.07l5.42,1.78a2.46,2.46,0,0,0,1.37,0l.07,5.86a3.29,3.29,0,0,1-.7.11,1.16,1.16,0,0,1-.32,0h-.05a1.37,1.37,0,0,1-.29-.07l-5.43-1.79Z" style="fill:#e0e0e0"></path><path d="M433.09,396.08a2.28,2.28,0,0,1,.6.69l1.43,2.79a2,2,0,0,0,1,.89l.07,5.87a2.3,2.3,0,0,1-.46-.25,1.93,1.93,0,0,1-.21-.17l0,0a.9.9,0,0,1-.16-.18.8.8,0,0,1-.15-.21l0-.06-1.43-2.78a.91.91,0,0,0-.16-.24,1.83,1.83,0,0,0-.13-.16,2.21,2.21,0,0,0-.32-.28v0Z" style="fill:#e0e0e0"></path><path d="M406.91,373.75a.82.82,0,0,0,.52.71l4.54,2.35a1.28,1.28,0,0,1,.54,1.69,7.29,7.29,0,0,0-.45,1.23,2,2,0,0,1-1.48,1.43l-1.13.18-1.95-1a.88.88,0,0,1-.52-.74h0Z" style="fill:#e0e0e0"></path><path d="M403.58,383.22a1.06,1.06,0,0,0,.06.34l1,3.17a1.79,1.79,0,0,0,1.63,1.18l6.43-.2a2.56,2.56,0,0,1,1,.22l.06,5.87a2.67,2.67,0,0,0-1-.21l-6.44.19a1.77,1.77,0,0,1-1.63-1.18l-1-3.17a1.12,1.12,0,0,1,0-.36h0Z" style="fill:#e0e0e0"></path><path d="M413.74,395.07a.85.85,0,0,0,.6.77l5.65,2.35a2.59,2.59,0,0,0,1.47.08l.07,5.86-.18,0a3.11,3.11,0,0,1-.86,0l-.19,0a1.13,1.13,0,0,1-.24-.08l-5.66-2.35a1,1,0,0,1-.49-.41.88.88,0,0,1-.1-.35Z" style="fill:#e0e0e0"></path><path d="M410.81,370.09l-3.55,3a.77.77,0,0,0,.17,1.38l4.54,2.35a1.28,1.28,0,0,1,.54,1.69,7.29,7.29,0,0,0-.45,1.23,2,2,0,0,1-1.48,1.43l-6.1,1a1,1,0,0,0-.84,1.41l1,3.17a1.77,1.77,0,0,0,1.64,1.17l6.42-.18a3.18,3.18,0,0,1,2.09.92,16.51,16.51,0,0,0,1.56,1.41,1.11,1.11,0,0,1,.17,1.67L414,394.44a.82.82,0,0,0,.32,1.4l5.66,2.35a2.61,2.61,0,0,0,2.2-.2l3.75-2.51a3.51,3.51,0,0,1,2.27-.43c1.2.23,2.42.39,3.64.5a2.53,2.53,0,0,1,1.84,1.23l1.43,2.78a2,2,0,0,0,1.83,1l7-.66a1.21,1.21,0,0,0,1.08-1.38l-.36-2.71a1.52,1.52,0,0,1,1-1.6,28.76,28.76,0,0,0,2.92-1.06A3.83,3.83,0,0,1,451,393l5.5,1.81a2.53,2.53,0,0,0,2.15-.41l3.55-3a.77.77,0,0,0-.17-1.38l-4.54-2.35a1.28,1.28,0,0,1-.54-1.69,7.19,7.19,0,0,0,.45-1.22,2.05,2.05,0,0,1,1.48-1.44l6.1-1a1.06,1.06,0,0,0,.84-1.42l-1-3.16a1.78,1.78,0,0,0-1.64-1.18l-6.42.19a3.23,3.23,0,0,1-2.09-.92,15.25,15.25,0,0,0-1.56-1.41,1.11,1.11,0,0,1-.17-1.67l2.52-2.73a.82.82,0,0,0-.33-1.4l-5.65-2.35a2.65,2.65,0,0,0-2.2.21l-3.75,2.5a3.51,3.51,0,0,1-2.27.43c-1.2-.22-2.42-.39-3.65-.5a2.55,2.55,0,0,1-1.83-1.22L434.31,365a2,2,0,0,0-1.83-1l-7,.66a1.2,1.2,0,0,0-1.08,1.38l.36,2.71a1.5,1.5,0,0,1-1,1.59,28.79,28.79,0,0,0-2.92,1.07,3.76,3.76,0,0,1-2.32.12l-5.5-1.8A2.5,2.5,0,0,0,410.81,370.09Zm31.49,5.81c6.13,2.54,7.7,7.46,3.51,11s-12.55,4.31-18.68,1.76-7.7-7.47-3.51-11S436.17,373.35,442.3,375.9Z" style="fill:#ebebeb"></path></g><g id="freepik--gear--inject-26"><path d="M363.61,406.82h0a.68.68,0,0,0,.41.59l1.55.8.91-.15a1.62,1.62,0,0,0,1.18-1.14,7.67,7.67,0,0,1,.35-1,1,1,0,0,0-.43-1.34L364,402.72a.66.66,0,0,1-.41-.56Zm13.27-1.55c-2.1,1.77-2.39,4-1.08,5.88a6.66,6.66,0,0,1,1.14-1.21c3.33-2.8,10-3.42,14.89-1.39a8.62,8.62,0,0,1,3.86,2.85c1.8-2.63.29-5.79-3.92-7.54C386.89,401.83,380.22,402.46,376.88,405.27ZM361,414.37h0a1,1,0,0,0,.05.29l.8,2.52a1.4,1.4,0,0,0,1.3.94l5.13-.15a1.94,1.94,0,0,1,.79.17h0a2.58,2.58,0,0,1,.44.22l1.75-1.89a.89.89,0,0,0-.14-1.33,13.6,13.6,0,0,1-1.24-1.12,2.64,2.64,0,0,0-.86-.57,2,2,0,0,0-.8-.17l-5.13.15a1.42,1.42,0,0,1-1.31-.94L361,410a1,1,0,0,1-.05-.27Zm41.48-15.53a.68.68,0,0,1-.21.4l-2,2.17a.89.89,0,0,0,.14,1.33,12.35,12.35,0,0,1,1.24,1.13,2.12,2.12,0,0,0,.43.33l.26-.28a.75.75,0,0,0,.21-.51h0Zm-33.38,25a.57.57,0,0,0,.08.28.74.74,0,0,0,.39.32l4.51,1.88a.66.66,0,0,0,.2.06.58.58,0,0,0,.14,0,2.28,2.28,0,0,0,.69,0l.15,0h0a1.59,1.59,0,0,0,.58-.21l3-2a2.74,2.74,0,0,1,1.8-.34c1,.18,1.93.31,2.91.4a1.78,1.78,0,0,1,1,.42,1.53,1.53,0,0,1,.36.37.94.94,0,0,1,.12.18l1.15,2.22,0,0a.66.66,0,0,0,.12.17.53.53,0,0,0,.12.14h0a.79.79,0,0,0,.17.14,1.65,1.65,0,0,0,.37.2,1.35,1.35,0,0,0,.62.1l5.6-.53a1,1,0,0,0,.87-.95l0-3.18a1.27,1.27,0,0,1,.57-.4,20.67,20.67,0,0,0,2.33-.84,3,3,0,0,1,1.85-.11l.05,0,4.33,1.43.24,0h0a1,1,0,0,0,.25,0,1.91,1.91,0,0,0,1.19-.39l2.83-2.38a.74.74,0,0,0,.28-.51l-.06-4.66a.72.72,0,0,1-.27.49l-2.84,2.38a1.58,1.58,0,0,1-.62.31,1.88,1.88,0,0,1-1.1,0l-4.32-1.41-.05,0a3,3,0,0,0-1.86.1,23.54,23.54,0,0,1-2.32.84,1.21,1.21,0,0,0-.83,1.28l.29,2.16a1,1,0,0,1-.86,1.1l-5.6.52a1.29,1.29,0,0,1-.63-.1,1.57,1.57,0,0,1-.83-.71l-1.14-2.22a1.78,1.78,0,0,0-.48-.55,2,2,0,0,0-1-.42c-1-.09-1.95-.22-2.9-.4a2.77,2.77,0,0,0-1.81.34l-3,2a1.68,1.68,0,0,1-.58.23,2.12,2.12,0,0,1-1.18-.07l-4.5-1.87a.69.69,0,0,1-.48-.61Zm35.9-14a1.66,1.66,0,0,0-1.17,1.15,6.09,6.09,0,0,1-.36,1,1,1,0,0,0,.43,1.34l2.06,1.07,4-.64a.83.83,0,0,0,.72-.81h0l-.05-4.69a.84.84,0,0,1-.72.82Z" style="fill:#e6e6e6"></path><path d="M363.61,406.82h0a.68.68,0,0,0,.41.59l1.55.8.91-.15a1.62,1.62,0,0,0,1.18-1.14,7.67,7.67,0,0,1,.35-1,1,1,0,0,0-.43-1.34L364,402.72a.66.66,0,0,1-.41-.56Zm13.27-1.55c-2.1,1.77-2.39,4-1.08,5.88a6.66,6.66,0,0,1,1.14-1.21c3.33-2.8,10-3.42,14.89-1.39a8.62,8.62,0,0,1,3.86,2.85c1.8-2.63.29-5.79-3.92-7.54C386.89,401.83,380.22,402.46,376.88,405.27ZM361,414.37h0a1,1,0,0,0,.05.29l.8,2.52a1.4,1.4,0,0,0,1.3.94l5.13-.15a1.94,1.94,0,0,1,.79.17h0a2.58,2.58,0,0,1,.44.22l1.75-1.89a.89.89,0,0,0-.14-1.33,13.6,13.6,0,0,1-1.24-1.12,2.64,2.64,0,0,0-.86-.57,2,2,0,0,0-.8-.17l-5.13.15a1.42,1.42,0,0,1-1.31-.94L361,410a1,1,0,0,1-.05-.27Zm41.48-15.53a.68.68,0,0,1-.21.4l-2,2.17a.89.89,0,0,0,.14,1.33,12.35,12.35,0,0,1,1.24,1.13,2.12,2.12,0,0,0,.43.33l.26-.28a.75.75,0,0,0,.21-.51h0Zm-33.38,25a.57.57,0,0,0,.08.28.74.74,0,0,0,.39.32l4.51,1.88a.66.66,0,0,0,.2.06.58.58,0,0,0,.14,0,2.28,2.28,0,0,0,.69,0l.15,0h0a1.59,1.59,0,0,0,.58-.21l3-2a2.74,2.74,0,0,1,1.8-.34c1,.18,1.93.31,2.91.4a1.78,1.78,0,0,1,1,.42,1.53,1.53,0,0,1,.36.37.94.94,0,0,1,.12.18l1.15,2.22,0,0a.66.66,0,0,0,.12.17.53.53,0,0,0,.12.14h0a.79.79,0,0,0,.17.14,1.65,1.65,0,0,0,.37.2,1.35,1.35,0,0,0,.62.1l5.6-.53a1,1,0,0,0,.87-.95l0-3.18a1.27,1.27,0,0,1,.57-.4,20.67,20.67,0,0,0,2.33-.84,3,3,0,0,1,1.85-.11l.05,0,4.33,1.43.24,0h0a1,1,0,0,0,.25,0,1.91,1.91,0,0,0,1.19-.39l2.83-2.38a.74.74,0,0,0,.28-.51l-.06-4.66a.72.72,0,0,1-.27.49l-2.84,2.38a1.58,1.58,0,0,1-.62.31,1.88,1.88,0,0,1-1.1,0l-4.32-1.41-.05,0a3,3,0,0,0-1.86.1,23.54,23.54,0,0,1-2.32.84,1.21,1.21,0,0,0-.83,1.28l.29,2.16a1,1,0,0,1-.86,1.1l-5.6.52a1.29,1.29,0,0,1-.63-.1,1.57,1.57,0,0,1-.83-.71l-1.14-2.22a1.78,1.78,0,0,0-.48-.55,2,2,0,0,0-1-.42c-1-.09-1.95-.22-2.9-.4a2.77,2.77,0,0,0-1.81.34l-3,2a1.68,1.68,0,0,1-.58.23,2.12,2.12,0,0,1-1.18-.07l-4.5-1.87a.69.69,0,0,1-.48-.61Zm35.9-14a1.66,1.66,0,0,0-1.17,1.15,6.09,6.09,0,0,1-.36,1,1,1,0,0,0,.43,1.34l2.06,1.07,4-.64a.83.83,0,0,0,.72-.81h0l-.05-4.69a.84.84,0,0,1-.72.82Z" style="opacity:0.1"></path><path d="M398.74,417.56l4.32,1.41a1.88,1.88,0,0,0,1.1,0l0,4.67a2.62,2.62,0,0,1-.56.09,1,1,0,0,1-.25,0h0l-.24,0-4.33-1.43Z" style="fill:#e0e0e0"></path><path d="M384.43,420a1.78,1.78,0,0,1,.48.55l1.14,2.22a1.57,1.57,0,0,0,.83.71l.06,4.68a1.65,1.65,0,0,1-.37-.2.79.79,0,0,1-.17-.14h0a.53.53,0,0,1-.12-.14.66.66,0,0,1-.12-.17l0,0L385,425.19a.94.94,0,0,0-.12-.18,1.47,1.47,0,0,0-.1-.13l-.26-.23h0Z" style="fill:#e0e0e0"></path><path d="M363.55,402.16a.68.68,0,0,0,.42.56l3.62,1.88a1,1,0,0,1,.43,1.34,6.46,6.46,0,0,0-.36,1,1.62,1.62,0,0,1-1.18,1.15l-.9.14-1.55-.8a.66.66,0,0,1-.41-.59h0Z" style="fill:#e0e0e0"></path><path d="M360.9,409.71a1,1,0,0,0,.05.27l.8,2.52a1.42,1.42,0,0,0,1.31.94l5.13-.15a2,2,0,0,1,.8.17l0,4.68a1.94,1.94,0,0,0-.79-.17l-5.13.15a1.4,1.4,0,0,1-1.3-.94l-.8-2.52a1,1,0,0,1-.05-.29h0Z" style="fill:#e0e0e0"></path><path d="M369,419.16a.69.69,0,0,0,.48.61l4.5,1.87a2.12,2.12,0,0,0,1.18.07l.06,4.67-.15,0a2.28,2.28,0,0,1-.69,0,.58.58,0,0,1-.14,0,.66.66,0,0,1-.2-.06l-4.51-1.88a.74.74,0,0,1-.39-.32.57.57,0,0,1-.08-.28Z" style="fill:#e0e0e0"></path><path d="M366.67,399.24l-2.84,2.38a.62.62,0,0,0,.14,1.1l3.62,1.88a1,1,0,0,1,.43,1.34,6.46,6.46,0,0,0-.36,1,1.61,1.61,0,0,1-1.17,1.14l-4.87.79A.84.84,0,0,0,361,410l.81,2.52a1.39,1.39,0,0,0,1.3.94l5.12-.15a2.51,2.51,0,0,1,1.67.74,13.6,13.6,0,0,0,1.24,1.12.89.89,0,0,1,.14,1.33l-2,2.17a.66.66,0,0,0,.26,1.12l4.5,1.87a2.12,2.12,0,0,0,1.76-.16l3-2a2.77,2.77,0,0,1,1.81-.34c.95.18,1.93.31,2.9.4a2,2,0,0,1,1.47,1l1.14,2.22a1.61,1.61,0,0,0,1.46.81l5.6-.52a1,1,0,0,0,.85-1.1l-.28-2.16a1.21,1.21,0,0,1,.83-1.28,21.23,21.23,0,0,0,2.32-.84,3,3,0,0,1,1.86-.1l4.38,1.43a2,2,0,0,0,1.71-.32l2.84-2.38a.62.62,0,0,0-.14-1.1l-3.62-1.88a1,1,0,0,1-.43-1.34,6.09,6.09,0,0,0,.36-1,1.61,1.61,0,0,1,1.17-1.14l4.87-.79a.84.84,0,0,0,.67-1.13l-.81-2.52a1.42,1.42,0,0,0-1.3-.94l-5.12.15a2.55,2.55,0,0,1-1.67-.73,12.35,12.35,0,0,0-1.24-1.13.89.89,0,0,1-.14-1.33l2-2.17a.66.66,0,0,0-.26-1.12l-4.5-1.87a2.12,2.12,0,0,0-1.76.16l-3,2a2.77,2.77,0,0,1-1.81.34c-1-.18-1.93-.31-2.91-.4a2,2,0,0,1-1.46-1l-1.14-2.22a1.61,1.61,0,0,0-1.46-.81l-5.6.52a1,1,0,0,0-.85,1.1l.28,2.16a1.21,1.21,0,0,1-.83,1.28,23.54,23.54,0,0,0-2.32.84,3,3,0,0,1-1.86.1l-4.38-1.43A2,2,0,0,0,366.67,399.24Zm25.1,4.63c4.89,2,6.14,5.95,2.8,8.75s-10,3.44-14.89,1.4-6.14-5.95-2.8-8.75S386.89,401.83,391.77,403.87Z" style="fill:#ebebeb"></path></g></g><g id="freepik--Outlet--inject-26"><g id="freepik--outlet--inject-26"><polygon points="400.5 244.25 448.36 271.88 457.18 266.79 409.31 239.16 400.5 244.25" style="fill:#B2299F"></polygon><polygon points="400.5 244.25 448.36 271.88 457.18 266.79 409.31 239.16 400.5 244.25" style="opacity:0.35000000000000003"></polygon><polygon points="448.36 331.77 448.36 271.88 457.18 266.79 457.18 326.68 448.36 331.77" style="fill:#B2299F"></polygon><polygon points="448.36 331.77 448.36 271.88 457.18 266.79 457.18 326.68 448.36 331.77" style="opacity:0.2"></polygon><polygon points="448.36 331.77 400.5 304.14 400.5 244.25 448.36 271.88 448.36 331.77" style="fill:#B2299F"></polygon><polygon points="448.36 331.77 400.5 304.14 400.5 244.25 448.36 271.88 448.36 331.77" style="opacity:0.15"></polygon><polygon points="448.36 271.88 445.84 273.33 403.01 248.61 400.5 244.25 448.36 271.88" style="opacity:0.1"></polygon><polygon points="400.5 304.14 403.02 302.69 445.84 327.41 448.36 331.77 400.5 304.14" style="opacity:0.1"></polygon><polygon points="448.36 331.77 445.84 327.41 445.84 273.33 448.36 271.88 448.36 331.77" style="fill:#B2299F"></polygon><polygon points="400.5 304.14 403.02 302.69 403.01 248.61 400.5 244.25 400.5 304.14" style="fill:#B2299F"></polygon><path d="M434.88,279.86v28.37c0,1.78-1.24,2.5-2.78,1.61L416.76,301a6.16,6.16,0,0,1-2.79-4.83V267.78c0-1.77,1.25-2.49,2.79-1.6L432.1,275A6.15,6.15,0,0,1,434.88,279.86Z" style="fill:#37474f"></path><path d="M432.1,275l-14.36-8.28V293.8a6.16,6.16,0,0,0,2.79,4.82l14.35,8.29V279.86A6.15,6.15,0,0,0,432.1,275Z" style="fill:#455a64"></path><path d="M422.66,272.84l9,5.2a1.18,1.18,0,0,1,.54.93v1.28c0,.34-.24.48-.54.31l-9-5.2a1.18,1.18,0,0,1-.54-.93v-1.28C422.13,272.81,422.37,272.67,422.66,272.84Z" style="fill:#263238"></path><path d="M422.65,291.5l9,5.19a1.18,1.18,0,0,1,.54.93v1.28c0,.34-.24.48-.54.31l-9-5.2a1.17,1.17,0,0,1-.54-.93v-1.27C422.12,291.46,422.36,291.32,422.65,291.5Z" style="fill:#263238"></path></g></g><g id="freepik--Cable--inject-26"><g id="freepik--cable--inject-26"><g id="freepik--Plug--inject-26"><path d="M417.17,286.84a2.6,2.6,0,0,0-1.53-2.12l-2.5-1.45a6.75,6.75,0,0,0-3.67-.88,6.36,6.36,0,0,0-3.69.88L385.44,295v2.11l9.87,5.7h0l20.32-11.73a2.58,2.58,0,0,0,1.53-2.12Zm-5.1,1.45a4.23,4.23,0,0,1-.71.32,5.51,5.51,0,0,1-1.74.27,5.1,5.1,0,0,1-2.47-.59,2.5,2.5,0,0,1-.5-.37,2.47,2.47,0,0,1,.5-.36,5.46,5.46,0,0,1,4.21-.31,3.25,3.25,0,0,1,.71.31,2.47,2.47,0,0,1,.5.36A2.5,2.5,0,0,1,412.07,288.29Z" style="fill:#B2299F"></path><path d="M385.44,295l9.87,5.69h0L415.64,289a2.23,2.23,0,0,0,0-4.24l-2.5-1.45a6.75,6.75,0,0,0-3.67-.88,6.36,6.36,0,0,0-3.69.88m5.58,1.86a4.6,4.6,0,0,1,.71.31c1.36.79,1.36,2.06,0,2.85a4.23,4.23,0,0,1-.71.32,5.51,5.51,0,0,1-1.74.27,5.1,5.1,0,0,1-2.47-.59c-1.37-.79-1.37-2.06,0-2.85A5.51,5.51,0,0,1,411.36,285.13Z" style="fill:#B2299F"></path><path d="M385.44,295l9.87,5.69h0L415.64,289a2.23,2.23,0,0,0,0-4.24l-2.5-1.45a6.75,6.75,0,0,0-3.67-.88,6.36,6.36,0,0,0-3.69.88m5.58,1.86a4.6,4.6,0,0,1,.71.31c1.36.79,1.36,2.06,0,2.85a4.23,4.23,0,0,1-.71.32,5.51,5.51,0,0,1-1.74.27,5.1,5.1,0,0,1-2.47-.59c-1.37-.79-1.37-2.06,0-2.85A5.51,5.51,0,0,1,411.36,285.13Z" style="fill:#fff;opacity:0.45"></path><path d="M415.64,289l-20.32,11.73h0L385.44,295v2.11l9.87,5.69h0l20.32-11.72a2.58,2.58,0,0,0,1.53-2.13v-2.11A2.58,2.58,0,0,1,415.64,289Z" style="fill:#fff;opacity:0.15"></path><path d="M407.14,288.29a2.73,2.73,0,0,1-.49-.37,3.3,3.3,0,0,1,.49-.37,5.49,5.49,0,0,1,4.22-.3,3.79,3.79,0,0,1,.71.3,2.51,2.51,0,0,1,.49.37c.83-.78.67-1.81-.49-2.48a4.6,4.6,0,0,0-.71-.31,5.49,5.49,0,0,0-4.22.31C405.78,286.23,405.78,287.5,407.14,288.29Z" style="fill:#fff;opacity:0.15"></path><path d="M417.17,305.43a2.6,2.6,0,0,0-1.53-2.13l-2.5-1.45a6.84,6.84,0,0,0-3.67-.88,6.44,6.44,0,0,0-3.69.88l-20.34,11.73v2.12l9.87,5.69h0l20.32-11.73a2.58,2.58,0,0,0,1.53-2.12Zm-5.1,1.44a3.55,3.55,0,0,1-.71.32,5.51,5.51,0,0,1-1.74.27,5,5,0,0,1-2.47-.59,2.47,2.47,0,0,1-.5-.36,2.5,2.5,0,0,1,.5-.37,5.46,5.46,0,0,1,4.21-.31,4.6,4.6,0,0,1,.71.31,2.5,2.5,0,0,1,.5.37A2.47,2.47,0,0,1,412.07,306.87Z" style="fill:#B2299F"></path><path d="M385.44,313.58l9.87,5.69h0l20.32-11.72a2.24,2.24,0,0,0,0-4.25l-2.5-1.45a6.84,6.84,0,0,0-3.67-.88,6.44,6.44,0,0,0-3.69.88m5.58,1.87a3.25,3.25,0,0,1,.71.31c1.36.78,1.36,2.06,0,2.84a3.55,3.55,0,0,1-.71.32,5.51,5.51,0,0,1-1.74.27,5,5,0,0,1-2.47-.59c-1.37-.78-1.37-2.06,0-2.84A5.46,5.46,0,0,1,411.36,303.72Z" style="fill:#B2299F"></path><path d="M385.44,313.58l9.87,5.69h0l20.32-11.72a2.24,2.24,0,0,0,0-4.25l-2.5-1.45a6.84,6.84,0,0,0-3.67-.88,6.44,6.44,0,0,0-3.69.88m5.58,1.87a3.25,3.25,0,0,1,.71.31c1.36.78,1.36,2.06,0,2.84a3.55,3.55,0,0,1-.71.32,5.51,5.51,0,0,1-1.74.27,5,5,0,0,1-2.47-.59c-1.37-.78-1.37-2.06,0-2.84A5.46,5.46,0,0,1,411.36,303.72Z" style="fill:#fff;opacity:0.45"></path><path d="M415.64,307.55l-20.32,11.73h0l-9.87-5.69v2.11l9.87,5.69h0l20.32-11.72a2.58,2.58,0,0,0,1.53-2.13v-2.11A2.58,2.58,0,0,1,415.64,307.55Z" style="fill:#fff;opacity:0.15"></path><path d="M407.14,306.88a2.73,2.73,0,0,1-.49-.37,3.3,3.3,0,0,1,.49-.37,5.49,5.49,0,0,1,4.22-.3,3.79,3.79,0,0,1,.71.3,2.15,2.15,0,0,1,.49.36c.83-.77.67-1.8-.49-2.47a4.6,4.6,0,0,0-.71-.31,5.49,5.49,0,0,0-4.22.31C405.78,304.82,405.78,306.09,407.14,306.88Z" style="fill:#fff;opacity:0.15"></path><path d="M402.89,326.07a2.4,2.4,0,0,0,1-2.21V298a7.6,7.6,0,0,0-3.45-6l-13.95-8a2.4,2.4,0,0,0-2.43-.23c-.57.34-2.65,1.54-3.23,1.87a2.38,2.38,0,0,0-1,2.22v25.91a7.6,7.6,0,0,0,3.45,6l13.95,8a2.41,2.41,0,0,0,2.43.25Z" style="fill:#37474f"></path><path d="M400.65,299.82v25.9c0,2.2-1.54,3.09-3.44,2l-13.95-8a7.6,7.6,0,0,1-3.45-6V287.8c0-2.2,1.54-3.09,3.45-2l13.95,8A7.62,7.62,0,0,1,400.65,299.82Z" style="fill:#263238"></path><path d="M397.38,297.11v25.8s-19.11,11.42-22.09,12.74a9.74,9.74,0,0,1-8.66,0l-3.53-2a9.58,9.58,0,0,1-4.33-7.5V308a9.56,9.56,0,0,1,4.33-7.5l20-11.58Z" style="fill:#455a64"></path><path d="M360.75,331.45a8.14,8.14,0,0,0,2.35,2.17l3.53,2a9.74,9.74,0,0,0,8.66,0c3-1.32,22.09-12.74,22.09-12.74v-25.8l-27.51,14.31Z" style="fill:#37474f"></path><path d="M363.1,305.48l3.53,2A9.58,9.58,0,0,1,371,315v18.14c0,2.77-1.94,3.88-4.33,2.5l-3.53-2a9.58,9.58,0,0,1-4.33-7.5V308C358.77,305.21,360.71,304.1,363.1,305.48Z" style="fill:#263238"></path></g><path d="M272.6,442.14a10.33,10.33,0,0,1-5.27-1.37c-3.77-2.17-5.84-6.6-5.84-12.48v-124a1.5,1.5,0,0,1,3,0v124c0,4.76,1.54,8.27,4.34,9.89s6.6,1.18,10.72-1.2l34.53-20.06c5.51-3.19,10.17-11.27,10.17-17.63V354.12c0-7.42,5.23-16.49,11.66-20.2l27.38-15.83a1.5,1.5,0,1,1,1.5,2.6l-27.38,15.83c-5.51,3.18-10.16,11.24-10.16,17.6v45.17c0,7.43-5.24,16.5-11.67,20.22l-34.52,20.06A17.1,17.1,0,0,1,272.6,442.14Z" style="fill:#455a64"></path></g></g><g id="freepik--light-bulb--inject-26"><g id="freepik--Bulb--inject-26"><g id="freepik--Socket--inject-26"><ellipse cx="263" cy="302.71" rx="16.24" ry="9.38" transform="translate(-0.79 0.69) rotate(-0.15)" style="fill:#263238"></ellipse><path d="M278.35,305.74h-2.63a8.06,8.06,0,0,0-3.39-3.34c-5.16-3-13.52-2.94-18.67,0a8,8,0,0,0-3.37,3.36h-2.63l3,4.78h0a8.62,8.62,0,0,0,3,2.64c5.16,3,13.52,2.95,18.67,0a8.89,8.89,0,0,0,3-2.66h0Z" style="fill:#263238"></path><ellipse cx="263" cy="295.31" rx="24.01" ry="13.86" style="fill:#455a64"></ellipse><ellipse cx="263" cy="291.77" rx="24.91" ry="14.38" style="fill:#37474f"></ellipse><ellipse cx="263" cy="287.97" rx="25.54" ry="14.74" style="fill:#455a64"></ellipse><ellipse cx="263" cy="284.17" rx="26.17" ry="15.11" style="fill:#37474f"></ellipse><ellipse cx="263" cy="280.37" rx="26.8" ry="15.47" style="fill:#455a64"></ellipse><ellipse cx="263" cy="276.57" rx="27.43" ry="15.83" style="fill:#37474f"></ellipse></g><path d="M291.69,262.4c0-4.24-2.81-8.47-8.41-11.7-11.21-6.48-29.38-6.48-40.59,0-5.6,3.23-8.4,7.47-8.4,11.71v9.76c0,4.24,2.81,8.48,8.42,11.71,11.22,6.46,29.39,6.46,40.59,0,5.6-3.24,8.4-7.48,8.39-11.72C291.69,270.52,291.7,264.05,291.69,262.4Z" style="fill:#B2299F"></path><path d="M263,66.47a86.31,86.31,0,0,0-86.31,86.31c0,68.53,56.53,79.9,56.53,107.52,0,4.4,2.91,8.8,8.72,12.16,11.63,6.71,30.49,6.71,42.12,0,5.81-3.36,8.72-7.76,8.72-12.16h0c0-27.62,56.54-39,56.54-107.52A86.32,86.32,0,0,0,263,66.47Z" style="fill:#B2299F"></path><path d="M263,66.47a86.31,86.31,0,0,0-86.31,86.31c0,68.53,56.53,79.9,56.53,107.52,0,4.4,2.91,8.8,8.72,12.16,11.63,6.71,30.49,6.71,42.12,0,5.81-3.36,8.72-7.76,8.72-12.16h0c0-27.62,56.54-39,56.54-107.52A86.32,86.32,0,0,0,263,66.47Z" style="fill:#fff;opacity:0.7000000000000001;mix-blend-mode:screen"></path><ellipse cx="263" cy="260.45" rx="24.91" ry="14.38" style="fill:#B2299F;opacity:0.25"></ellipse><path d="M284.81,267.41a18.72,18.72,0,0,1-4.2,3.22c-9.73,5.61-25.5,5.61-35.22,0a18.72,18.72,0,0,1-4.2-3.22,18.43,18.43,0,0,1,4.2-3.22c9.73-5.62,25.5-5.62,35.22,0A18.21,18.21,0,0,1,284.81,267.41Z" style="fill:#B2299F;opacity:0.25"></path><path d="M284.81,267.41a18.72,18.72,0,0,1-4.2,3.22c-9.73,5.61-25.5,5.61-35.22,0a18.72,18.72,0,0,1-4.2-3.22,18.43,18.43,0,0,1,4.2-3.22c9.73-5.62,25.5-5.62,35.22,0A18.21,18.21,0,0,1,284.81,267.41Z" style="fill:#B2299F;opacity:0.25"></path><path d="M306.92,101.31a13.75,13.75,0,0,0-3,1.8c-3.43,2.69-4.82,7.45-4.19,11.77,1.22,8.35,9.26,13.55,13.91,20a74.09,74.09,0,0,1,11.25,23.54c.69,2.51,1.59,6.68,2.88,8.95a6.75,6.75,0,0,0,8.59,2.89c3.35-1.78,5.09-6,5.56-9.27,2.8-19.53-1.19-34.14-11-49.17C325.49,103.67,317,97,306.92,101.31Z" style="fill:#fff;opacity:0.2"></path><circle cx="262.99" cy="136.39" r="61.56" style="fill:#fff;opacity:0.2"></circle><path d="M325.52,180.82a9.49,9.49,0,0,0,.9,7.73,5.55,5.55,0,0,0,7.58,1.73,8.94,8.94,0,0,0,4.1-7.48c-.05-3.16-2.1-6.54-5.61-6.88C329.22,175.59,326.4,178.17,325.52,180.82Z" style="fill:#fff;opacity:0.2"></path><path d="M245.72,251.57c-1.92-10.94-4.9-16.81-18.37-23.71s-36.78-17.4-46.56-45.55c13,43.18,52.43,54.92,52.43,78,0,4.4,2.91,8.8,8.72,12.16a35.14,35.14,0,0,0,8,3.28Z" style="fill:#B2299F;opacity:0.15"></path><path d="M280.28,251.57c1.92-10.94,4.9-16.81,18.38-23.71s36.77-17.4,46.56-45.55c-13,43.18-52.44,54.92-52.44,78,0,4.4-2.91,8.8-8.72,12.16a35.24,35.24,0,0,1-8,3.28C277.26,268.82,279.09,258.37,280.28,251.57Z" style="fill:#B2299F;opacity:0.15"></path><path d="M273.08,269.07h-1c0-30.72,1.79-50,6-64.37a60,60,0,0,1,4.21-10.78A53.15,53.15,0,0,1,263,182.55a53.15,53.15,0,0,1-19.28,11.37,60,60,0,0,1,4.21,10.78c4.2,14.4,6,33.65,6,64.37h-1c0-30.62-1.78-49.79-5.95-64.09a58.38,58.38,0,0,0-4.25-10.77,26.43,26.43,0,0,1-2.86.64c-10,1.68-15.89-1.22-18-4.49A6.53,6.53,0,0,1,222,183a6.64,6.64,0,0,1,6.86-2.7c4.36.66,9.84,4.44,14.37,12.77a51.82,51.82,0,0,0,19-11.16,22.38,22.38,0,0,1-2.86-3.41c-4.71-7.15-4.43-13.32-2.6-16.72a6.92,6.92,0,0,1,12.34,0c1.83,3.4,2.11,9.57-2.6,16.72a22.38,22.38,0,0,1-2.86,3.41,51.82,51.82,0,0,0,19,11.16c4.53-8.33,10-12.11,14.37-12.77A6.63,6.63,0,0,1,304,183a6.53,6.53,0,0,1,.18,7.41c-2.13,3.27-8,6.17-18,4.49a26.08,26.08,0,0,1-2.87-.64A58.38,58.38,0,0,0,279,205C274.85,219.28,273.08,238.45,273.08,269.07Zm10.68-75.76c.86.23,1.71.42,2.54.56,9.57,1.59,15.05-1.05,17-4.05a5.5,5.5,0,0,0-.18-6.32,5.67,5.67,0,0,0-5.87-2.26C293.36,181.83,288.14,185.41,283.76,193.31Zm-56.23-12.16a5.36,5.36,0,0,0-4.68,2.35,5.5,5.5,0,0,0-.18,6.32c2,3,7.46,5.64,17,4.05.83-.14,1.68-.33,2.55-.56-4.39-7.9-9.61-11.48-13.5-12.07A8.28,8.28,0,0,0,227.53,181.15ZM263,158.94a5.85,5.85,0,0,0-5.29,3.26c-2.12,4-1.12,10.11,2.56,15.7a21.57,21.57,0,0,0,2.73,3.27,21.82,21.82,0,0,0,2.74-3.28c3.67-5.58,4.68-11.73,2.55-15.69A5.84,5.84,0,0,0,263,158.94Z" style="fill:#455a64"></path></g></g><g id="freepik--Sparkles--inject-26"><g id="freepik--Shine--inject-26"><g id="freepik--shine--inject-26" style="opacity:0.2"><path d="M262.82,60a.5.5,0,0,1-.5-.5V11.88a.5.5,0,1,1,1,0V59.49A.5.5,0,0,1,262.82,60Z" style="fill:#B2299F"></path><path d="M238.23,63.29a.5.5,0,0,1-.48-.37l-9.59-35.79a.5.5,0,1,1,1-.26l9.59,35.79a.5.5,0,0,1-.35.61Z" style="fill:#B2299F"></path><path d="M215.33,72.84a.5.5,0,0,1-.43-.25L200,46.84a.5.5,0,0,1,.86-.5l14.87,25.75a.49.49,0,0,1-.18.68A.47.47,0,0,1,215.33,72.84Z" style="fill:#B2299F"></path><path d="M195.68,88a.49.49,0,0,1-.35-.15l-31.05-31a.5.5,0,0,1,0-.71.5.5,0,0,1,.7,0L196,87.14a.5.5,0,0,1,0,.71A.47.47,0,0,1,195.68,88Z" style="fill:#B2299F"></path><path d="M180.62,107.72a.42.42,0,0,1-.24-.07L136.1,82.09a.5.5,0,0,1,.5-.87l44.28,25.57a.5.5,0,0,1-.26.93Z" style="fill:#B2299F"></path><path d="M171.19,130.67l-.13,0-18.59-5a.5.5,0,0,1,.26-1l18.59,5a.51.51,0,0,1,.35.62A.5.5,0,0,1,171.19,130.67Z" style="fill:#B2299F"></path><path d="M126.93,156.62a.5.5,0,0,1,0-1L168,154.27a.5.5,0,0,1,0,1l-41.09,1.35Z" style="fill:#B2299F"></path><path d="M160.34,182.81a.49.49,0,0,1-.48-.37.5.5,0,0,1,.35-.62l11-2.94a.5.5,0,0,1,.26,1l-11,2.94Z" style="fill:#B2299F"></path><path d="M140.06,226.32a.48.48,0,0,1-.43-.25.5.5,0,0,1,.18-.68l40.8-23.56a.5.5,0,1,1,.5.87l-40.8,23.56A.54.54,0,0,1,140.06,226.32Z" style="fill:#B2299F"></path><path d="M164.86,253.57a.47.47,0,0,1-.35-.15.48.48,0,0,1,0-.7l31.15-31.16a.51.51,0,0,1,.71,0,.5.5,0,0,1,0,.71l-31.16,31.15A.47.47,0,0,1,164.86,253.57Z" style="fill:#B2299F"></path><path d="M200.21,264.37a.45.45,0,0,1-.25-.07.49.49,0,0,1-.18-.68l15.53-26.9a.5.5,0,1,1,.86.5l-15.53,26.9A.5.5,0,0,1,200.21,264.37Z" style="fill:#B2299F"></path><path d="M319.85,252.93a.5.5,0,0,1-.43-.25L310.36,237a.5.5,0,1,1,.86-.5l9.06,15.7a.5.5,0,0,1-.18.68A.59.59,0,0,1,319.85,252.93Z" style="fill:#B2299F"></path><path d="M349.27,240.92a.5.5,0,0,1-.35-.15l-18.84-18.84a.5.5,0,1,1,.71-.71l18.84,18.84a.51.51,0,0,1,0,.71A.51.51,0,0,1,349.27,240.92Z" style="fill:#B2299F"></path><path d="M387.36,226.53a.47.47,0,0,1-.25-.07l-41.87-24.17a.5.5,0,0,1-.18-.68.51.51,0,0,1,.68-.19l41.87,24.18a.5.5,0,0,1-.25.93Z" style="fill:#B2299F"></path><path d="M374,184.52h-.13l-19.1-5.12a.5.5,0,0,1,.26-1l19.1,5.12a.5.5,0,0,1,.35.61A.49.49,0,0,1,374,184.52Z" style="fill:#B2299F"></path><path d="M388.92,154.8H358.11a.5.5,0,0,1,0-1h30.81a.5.5,0,0,1,0,1Z" style="fill:#B2299F"></path><path d="M354.81,130.21a.5.5,0,0,1-.13-1l43.24-11.58a.5.5,0,1,1,.25,1l-43.23,11.59Z" style="fill:#B2299F"></path><path d="M345.25,107.31a.5.5,0,0,1-.43-.25.51.51,0,0,1,.18-.69l47.17-27.23a.5.5,0,0,1,.5.87L345.5,107.24A.45.45,0,0,1,345.25,107.31Z" style="fill:#B2299F"></path><path d="M330.1,87.66a.47.47,0,0,1-.35-.15.48.48,0,0,1,0-.7l16.64-16.65a.5.5,0,0,1,.71.71L330.45,87.51A.47.47,0,0,1,330.1,87.66Z" style="fill:#B2299F"></path><path d="M310.38,72.6a.54.54,0,0,1-.25-.06.52.52,0,0,1-.19-.69l14.75-25.54a.52.52,0,0,1,.69-.19.51.51,0,0,1,.18.69L310.81,72.35A.5.5,0,0,1,310.38,72.6Z" style="fill:#B2299F"></path><path d="M287.43,63.17l-.13,0a.5.5,0,0,1-.35-.61l9.41-35.15a.5.5,0,1,1,1,.26L287.91,62.8A.5.5,0,0,1,287.43,63.17Z" style="fill:#B2299F"></path><path d="M259.06,60.07a.5.5,0,0,1-.5-.48l-1.17-29.5a.49.49,0,0,1,.48-.51h0a.5.5,0,0,1,.5.48l1.17,29.5a.5.5,0,0,1-.48.52Z" style="fill:#B2299F"></path><path d="M234.62,64.34a.49.49,0,0,1-.48-.35l-7.08-22.77a.5.5,0,0,1,1-.3l7.07,22.78a.49.49,0,0,1-.32.62A.39.39,0,0,1,234.62,64.34Z" style="fill:#B2299F"></path><path d="M212.11,74.79a.51.51,0,0,1-.42-.23l-21-33.22a.51.51,0,0,1,.16-.69.49.49,0,0,1,.69.16l21,33.22a.51.51,0,0,1-.16.69A.52.52,0,0,1,212.11,74.79Z" style="fill:#B2299F"></path><path d="M193.08,90.71a.5.5,0,0,1-.34-.13L173.12,72.45a.5.5,0,1,1,.67-.73l19.63,18.13a.49.49,0,0,1,0,.7A.5.5,0,0,1,193.08,90.71Z" style="fill:#B2299F"></path><path d="M178.82,111a.53.53,0,0,1-.24-.06l-16.11-8.47a.51.51,0,0,1-.21-.68.52.52,0,0,1,.68-.21l16.11,8.48a.5.5,0,0,1-.23.94Z" style="fill:#B2299F"></path><path d="M170.3,134.32h-.12L118.36,122.6a.5.5,0,0,1,.22-1l51.83,11.71a.5.5,0,0,1-.11,1Z" style="fill:#B2299F"></path><path d="M142.94,160a.5.5,0,0,1,0-1l25.14-1a.48.48,0,0,1,.52.48.51.51,0,0,1-.48.52L143,160Z" style="fill:#B2299F"></path><path d="M138.43,194a.5.5,0,0,1-.48-.35.5.5,0,0,1,.33-.63l33.94-10.55a.5.5,0,0,1,.62.33.51.51,0,0,1-.33.63L138.57,194Z" style="fill:#B2299F"></path><path d="M139.12,233.57a.5.5,0,0,1-.26-.92l43.69-27.59a.5.5,0,1,1,.53.85l-43.69,27.58A.45.45,0,0,1,139.12,233.57Z" style="fill:#B2299F"></path><path d="M186.87,237.87a.48.48,0,0,1-.34-.14.48.48,0,0,1,0-.7l11.87-12.85a.5.5,0,1,1,.73.67L187.23,237.7A.49.49,0,0,1,186.87,237.87Z" style="fill:#B2299F"></path><path d="M329.64,260a.51.51,0,0,1-.43-.23l-15.63-24.76a.49.49,0,0,1,.16-.69.5.5,0,0,1,.69.15l15.63,24.76a.51.51,0,0,1-.42.77Z" style="fill:#B2299F"></path><path d="M367.93,251.6a.51.51,0,0,1-.34-.14L332.7,219.23a.5.5,0,0,1,0-.71.5.5,0,0,1,.71,0l34.89,32.24a.5.5,0,0,1,0,.71A.52.52,0,0,1,367.93,251.6Z" style="fill:#B2299F"></path><path d="M360,205.74a.46.46,0,0,1-.23-.06L347.07,199a.5.5,0,0,1-.21-.68.51.51,0,0,1,.67-.21l12.71,6.69a.49.49,0,0,1,.21.67A.5.5,0,0,1,360,205.74Z" style="fill:#B2299F"></path><path d="M393,184.15h-.11l-37.16-8.4a.5.5,0,1,1,.22-1l37.16,8.4a.5.5,0,0,1-.11,1Z" style="fill:#B2299F"></path><path d="M358,151a.5.5,0,0,1,0-1l44.31-1.76a.48.48,0,0,1,.52.48.5.5,0,0,1-.49.52L358,151Z" style="fill:#B2299F"></path><path d="M353.75,126.6a.51.51,0,0,1-.48-.36.5.5,0,0,1,.33-.62L368.34,121a.49.49,0,0,1,.63.32.5.5,0,0,1-.33.63l-14.74,4.58A.4.4,0,0,1,353.75,126.6Z" style="fill:#B2299F"></path><path d="M343.3,104.09a.49.49,0,0,1-.42-.23.5.5,0,0,1,.15-.69l30.21-19.08a.51.51,0,0,1,.69.16.5.5,0,0,1-.15.69L343.57,104A.45.45,0,0,1,343.3,104.09Z" style="fill:#B2299F"></path><path d="M327.38,85.06a.5.5,0,0,1-.34-.13.51.51,0,0,1,0-.71l31.51-34.11a.5.5,0,0,1,.71,0,.49.49,0,0,1,0,.7L327.75,84.9A.52.52,0,0,1,327.38,85.06Z" style="fill:#B2299F"></path><path d="M307.08,70.8a.53.53,0,0,1-.24-.06.52.52,0,0,1-.21-.68l23-43.79a.5.5,0,1,1,.88.47l-23,43.79A.5.5,0,0,1,307.08,70.8Z" style="fill:#B2299F"></path><path d="M283.77,62.27h-.11a.5.5,0,0,1-.37-.6l2.55-11.32a.5.5,0,0,1,1,.22l-2.56,11.32A.49.49,0,0,1,283.77,62.27Z" style="fill:#B2299F"></path><path d="M272.72,60.48h-.05a.5.5,0,0,1-.44-.55l4.26-40.75a.5.5,0,0,1,.55-.44.5.5,0,0,1,.45.55L273.22,60A.5.5,0,0,1,272.72,60.48Z" style="fill:#B2299F"></path><path d="M247.92,61.2a.49.49,0,0,1-.49-.42l-7.5-47.2a.51.51,0,0,1,.42-.57.49.49,0,0,1,.57.41l7.49,47.2a.5.5,0,0,1-.41.58Z" style="fill:#B2299F"></path><path d="M224.15,68.32a.51.51,0,0,1-.46-.3L206.41,29.23a.5.5,0,1,1,.91-.4l17.29,38.78a.49.49,0,0,1-.26.66A.46.46,0,0,1,224.15,68.32Z" style="fill:#B2299F"></path><path d="M203,81.34a.51.51,0,0,1-.39-.18L181.19,54.69a.51.51,0,0,1,.08-.71.5.5,0,0,1,.7.08l21.45,26.47a.5.5,0,0,1-.07.7A.5.5,0,0,1,203,81.34Z" style="fill:#B2299F"></path><path d="M186,99.39a.46.46,0,0,1-.29-.1l-35.84-26a.5.5,0,1,1,.59-.81l35.84,26a.51.51,0,0,1,.11.7A.49.49,0,0,1,186,99.39Z" style="fill:#B2299F"></path><path d="M174.23,121.23a.57.57,0,0,1-.18,0l-35.24-13.51a.51.51,0,0,1-.28-.65.49.49,0,0,1,.64-.29l35.24,13.51a.51.51,0,0,1,.28.65A.48.48,0,0,1,174.23,121.23Z" style="fill:#B2299F"></path><path d="M168.5,145.37h-.05L126.88,141a.5.5,0,0,1-.45-.55A.5.5,0,0,1,127,140l41.58,4.36a.49.49,0,0,1,.44.54A.5.5,0,0,1,168.5,145.37Z" style="fill:#B2299F"></path><path d="M118.47,178.23a.5.5,0,0,1-.08-1l50.75-8.06a.5.5,0,0,1,.58.42.51.51,0,0,1-.42.57l-50.75,8.06Z" style="fill:#B2299F"></path><path d="M145,207.9a.5.5,0,0,1-.2-1l31.31-14a.5.5,0,1,1,.41.91l-31.31,14A.52.52,0,0,1,145,207.9Z" style="fill:#B2299F"></path><path d="M163.25,236.23a.51.51,0,0,1-.39-.19.5.5,0,0,1,.08-.7l26.11-21.16a.5.5,0,0,1,.63.77l-26.12,21.16A.47.47,0,0,1,163.25,236.23Z" style="fill:#B2299F"></path><path d="M175.67,275.81a.46.46,0,0,1-.29-.1.51.51,0,0,1-.11-.7L207,231.3a.49.49,0,0,1,.69-.11.5.5,0,0,1,.12.7L176.08,275.6A.49.49,0,0,1,175.67,275.81Z" style="fill:#B2299F"></path><path d="M349.78,261.67a.5.5,0,0,1-.39-.18L322.7,228.55a.51.51,0,0,1,.07-.71.5.5,0,0,1,.7.08l26.7,32.94a.5.5,0,0,1-.08.7A.51.51,0,0,1,349.78,261.67Z" style="fill:#B2299F"></path><path d="M370.59,232.81a.47.47,0,0,1-.3-.1l-30.47-22.12a.5.5,0,1,1,.59-.81l30.47,22.12a.51.51,0,0,1,.11.7A.49.49,0,0,1,370.59,232.81Z" style="fill:#B2299F"></path><path d="M381.87,200.34a.57.57,0,0,1-.18,0l-30-11.5a.5.5,0,1,1,.36-.93l30,11.49a.5.5,0,0,1-.18,1Z" style="fill:#B2299F"></path><path d="M370.59,166.06h0l-13-1.36a.5.5,0,0,1-.44-.55.5.5,0,0,1,.55-.45l13,1.36a.5.5,0,0,1,.44.55A.49.49,0,0,1,370.59,166.06Z" style="fill:#B2299F"></path><path d="M356.89,139.9a.5.5,0,0,1-.49-.42.5.5,0,0,1,.42-.57l26.67-4.24a.5.5,0,0,1,.16,1L357,139.89Z" style="fill:#B2299F"></path><path d="M349.78,116.13a.5.5,0,0,1-.2-1L372.47,105a.5.5,0,0,1,.41.91L350,116.09A.45.45,0,0,1,349.78,116.13Z" style="fill:#B2299F"></path><path d="M336.75,95a.5.5,0,0,1-.31-.89l20.86-16.9a.49.49,0,0,1,.7.07.49.49,0,0,1-.07.7L337.07,94.9A.54.54,0,0,1,336.75,95Z" style="fill:#B2299F"></path><path d="M318.71,78a.53.53,0,0,1-.3-.09.51.51,0,0,1-.11-.7L325,68a.51.51,0,0,1,.7-.11.5.5,0,0,1,.11.7l-6.69,9.22A.51.51,0,0,1,318.71,78Z" style="fill:#B2299F"></path><path d="M296.87,66.2a.57.57,0,0,1-.18,0,.5.5,0,0,1-.29-.64l12.14-31.67a.5.5,0,1,1,.94.36L297.33,65.88A.48.48,0,0,1,296.87,66.2Z" style="fill:#B2299F"></path></g><g id="freepik--shine--inject-26"><path d="M172.14,208.83l0,0a.62.62,0,0,1-.82-.16l-.35-.49h0a3.11,3.11,0,0,0-4-.94l-.53.27a.61.61,0,0,1-.65-1l.49-.35a3.11,3.11,0,0,0,.94-4l-.27-.53a.63.63,0,0,1,.22-.81.61.61,0,0,1,.82.16l.35.49a3.12,3.12,0,0,0,4,.94l.53-.27a.61.61,0,0,1,.65,1l-.49.35a3.11,3.11,0,0,0-.94,4l.27.53A.6.6,0,0,1,172.14,208.83Zm-3.84-3.15a4.2,4.2,0,0,1,2.19.52A4.4,4.4,0,0,1,171,204a4.4,4.4,0,0,1-2.19-.52A4.4,4.4,0,0,1,168.3,205.68Z" style="fill:#B2299F"></path><path d="M197.47,241.46a3.94,3.94,0,1,1,1.75-3.14A4,4,0,0,1,197.47,241.46Zm-3.7-5.53a2.88,2.88,0,0,0-.34.27,2.71,2.71,0,0,0,1.75,4.69,2.71,2.71,0,1,0,.19-5.42A2.67,2.67,0,0,0,193.77,235.93Z" style="fill:#B2299F"></path><path d="M175.07,234.82h0l-1.59,1.29a.62.62,0,0,1-.78-1l1.6-1.29a.61.61,0,0,1,.78.95Z" style="fill:#B2299F"></path><path d="M178.08,236.6h0a.6.6,0,0,1-.86-.09l-1.29-1.59a.65.65,0,0,1,.09-.87.62.62,0,0,1,.87.1l1.29,1.59A.62.62,0,0,1,178.08,236.6Z" style="fill:#B2299F"></path><path d="M178.66,231.91h0l-1.6,1.29a.62.62,0,0,1-.86-.09.63.63,0,0,1,.09-.87l1.59-1.29a.62.62,0,0,1,.87.1A.6.6,0,0,1,178.66,231.91Z" style="fill:#B2299F"></path><path d="M175.18,233h0a.63.63,0,0,1-.87-.09l-1.29-1.6a.6.6,0,0,1,.1-.86.62.62,0,0,1,.86.09l1.29,1.6A.61.61,0,0,1,175.18,233Z" style="fill:#B2299F"></path></g><g id="freepik--shine--inject-26"><path d="M364.56,182.28h0a.62.62,0,0,1,.28.79l-.23.55h0a3.13,3.13,0,0,0,1.25,3.88l.51.31a.61.61,0,0,1-.56,1.09l-.55-.23a3.1,3.1,0,0,0-3.87,1.25l-.31.51a.63.63,0,0,1-.81.22.62.62,0,0,1-.29-.78l.23-.55a3.1,3.1,0,0,0-1.24-3.88l-.51-.31a.61.61,0,0,1,.56-1.09l.55.23a3.1,3.1,0,0,0,3.87-1.25l.31-.51A.62.62,0,0,1,364.56,182.28Zm-.71,4.92a4.27,4.27,0,0,1-.69-2.14,4.21,4.21,0,0,1-2.14.69,4.41,4.41,0,0,1,.69,2.15A4.32,4.32,0,0,1,363.85,187.2Z" style="fill:#B2299F"></path><path d="M369.7,140.69a3.94,3.94,0,1,1-3.59.13A4,4,0,0,1,369.7,140.69Zm-2.81,6a2.86,2.86,0,0,0,.41.15,2.69,2.69,0,0,0,2.06-.24,2.76,2.76,0,0,0,1.29-1.63,2.71,2.71,0,1,0-5,.59A2.72,2.72,0,0,0,366.89,146.72Z" style="fill:#B2299F"></path><path d="M379.17,164.8h0l1.85.9a.61.61,0,0,1,.28.82.62.62,0,0,1-.82.28l-1.84-.9a.61.61,0,0,1-.29-.82A.62.62,0,0,1,379.17,164.8Z" style="fill:#B2299F"></path><path d="M379.51,161.32h0a.63.63,0,0,1,.28.83l-.9,1.84a.61.61,0,1,1-1.1-.54l.9-1.84A.61.61,0,0,1,379.51,161.32Z" style="fill:#B2299F"></path><path d="M375,162.78h0l1.84.9a.61.61,0,0,1,.28.82.63.63,0,0,1-.82.29l-1.84-.9a.62.62,0,0,1,.53-1.11Z" style="fill:#B2299F"></path><path d="M377.48,165.48h0a.62.62,0,0,1,.29.82l-.9,1.85a.62.62,0,0,1-1.11-.54l.9-1.84A.61.61,0,0,1,377.48,165.48Z" style="fill:#B2299F"></path></g><g id="freepik--shine--inject-26"><path d="M172.94,91.13h0a.61.61,0,0,1,.49.67l-.07.6h0a3.11,3.11,0,0,0,2.27,3.38l.58.16a.61.61,0,0,1-.24,1.2l-.59-.07A3.12,3.12,0,0,0,172,99.34l-.16.57a.61.61,0,0,1-1.2-.23l.07-.59a3.11,3.11,0,0,0-2.27-3.39l-.57-.16a.61.61,0,0,1-.44-.71.62.62,0,0,1,.68-.49l.59.07a3.1,3.1,0,0,0,3.38-2.27l.16-.57A.62.62,0,0,1,172.94,91.13Zm.67,4.92a4.42,4.42,0,0,1-1.25-1.87,4.24,4.24,0,0,1-1.87,1.25,4.41,4.41,0,0,1,1.26,1.87A4.38,4.38,0,0,1,173.61,96.05Z" style="fill:#B2299F"></path><path d="M186.4,64.37A3.94,3.94,0,1,1,183,65.49,3.94,3.94,0,0,1,186.4,64.37Zm-1,6.57a2.12,2.12,0,0,0,.44,0,2.73,2.73,0,0,0,2.7-2.73,2.71,2.71,0,1,0-4.62,1.94A2.6,2.6,0,0,0,185.36,70.94Z" style="fill:#B2299F"></path><path d="M216.93,61.11h0l2,.35a.62.62,0,0,1,.49.72.6.6,0,0,1-.71.49l-2-.35a.62.62,0,0,1-.5-.71A.61.61,0,0,1,216.93,61.11Z" style="fill:#B2299F"></path><path d="M216.3,57.67h0a.63.63,0,0,1,.5.71l-.36,2a.64.64,0,0,1-.71.5.61.61,0,0,1-.5-.71l.36-2A.6.6,0,0,1,216.3,57.67Z" style="fill:#B2299F"></path><path d="M212.38,60.3h0l2,.35a.61.61,0,0,1,.5.71.62.62,0,0,1-.71.5l-2-.35a.62.62,0,0,1-.5-.72A.62.62,0,0,1,212.38,60.3Z" style="fill:#B2299F"></path><path d="M215.49,62.22h0a.61.61,0,0,1,.49.71l-.35,2a.6.6,0,0,1-.71.5.61.61,0,0,1-.5-.71l.35-2A.62.62,0,0,1,215.49,62.22Z" style="fill:#B2299F"></path></g></g></g><g id="freepik--Character--inject-26"><g id="freepik--character--inject-26"><g id="freepik--Bottom--inject-26"><path d="M110.84,378.09c-.15-5.07.73-46.23.73-46.23l-20.09,12.5c3.2,22.58,5.81,33.22,6.15,37.13h0a4.3,4.3,0,0,1,.14.8c.07,4.47,5.44,6.83,9.64,9.77a77.49,77.49,0,0,0,11.35,6.83c3,1.41,9.19,1.48,9.93-.37-5.11-3.61-11-7.54-15.11-11.68C111.63,384.86,111,382.8,110.84,378.09Z" style="fill:#ffbda7"></path><path d="M137.39,403.24c.26,0,.68,2.7-.72,3.87-1.61,1.34-6.37,3.57-12.7,2.87s-9.78-2.53-12.33-4.5-6.13-4.76-9-5.33c-2.66-.53-5.56-1.63-6.42-2.4s-.78-4.22-.78-4.22Z" style="fill:#263238"></path><path d="M97.46,380.29s-.44,0-.59.76-.37,3.72-.77,5.28a26.5,26.5,0,0,0-.52,8.39c.36,1.76,4.71,2.95,7.49,3.91a36,36,0,0,1,9,5.26,26.9,26.9,0,0,0,13.39,4.56c6.29,0,10.35-1.63,11.58-3.78,1.53-2.66.29-4.18-7-7.27-1.37-.58-6.21-3.22-7.86-4.18A23.92,23.92,0,0,1,112,382.48a2.61,2.61,0,0,0-1.06-1.41,2.46,2.46,0,0,0-1.4-.11,17.59,17.59,0,0,0-4.24.91c-1,.44-2.34,1-2.31,2.14a4.14,4.14,0,0,0,.29,1.19c.09.24.16.56-.06.7s-.49,0-.68-.17a17.8,17.8,0,0,1-2-2.19,6.66,6.66,0,0,0-1.16-1.09,14.25,14.25,0,0,1-1.25-.75A2.34,2.34,0,0,1,97.46,380.29Z" style="fill:#37474f"></path><path d="M131.27,397.91c-9.11.69-11.91,6-12.26,9.32a22.44,22.44,0,0,0,6.48,1.22c6.29,0,10.6-1.63,11.84-3.78C138.77,402.16,137.75,400.16,131.27,397.91Z" style="fill:#fafafa"></path><path d="M117.61,398.14a.51.51,0,0,1-.28-.09.41.41,0,0,1-.07-.59,11.05,11.05,0,0,1,8.2-3.16.43.43,0,0,1,.4.46.43.43,0,0,1-.48.38A10.2,10.2,0,0,0,118,398,.48.48,0,0,1,117.61,398.14Z" style="fill:#f0f0f0"></path><path d="M113.67,396a.52.52,0,0,1-.29-.09.4.4,0,0,1-.06-.59,11,11,0,0,1,8.19-3.16.43.43,0,0,1,.4.46.43.43,0,0,1-.48.38,10.22,10.22,0,0,0-7.42,2.84A.46.46,0,0,1,113.67,396Z" style="fill:#f0f0f0"></path><path d="M110,393.59a.52.52,0,0,1-.29-.09.41.41,0,0,1-.07-.59,11,11,0,0,1,8.2-3.15.41.41,0,0,1,.4.45.43.43,0,0,1-.48.38,10.22,10.22,0,0,0-7.42,2.84A.46.46,0,0,1,110,393.59Z" style="fill:#f0f0f0"></path><path d="M106.42,391.16a.47.47,0,0,1-.28-.09.41.41,0,0,1-.08-.59c1.72-2.1,5.65-3.51,9-3.2a.43.43,0,0,1,.4.46.46.46,0,0,1-.49.38c-3-.28-6.64,1-8.17,2.88A.44.44,0,0,1,106.42,391.16Z" style="fill:#f0f0f0"></path><path d="M68.12,356.21,48.89,354c-1,12.19-.4,25.87-1.28,37.31-.16,2.15-1.83,16.67-1.44,21.17.58,6.76,9,6.65,9.87,2.72s3-21.08,3.18-22.83c.7-7.32,4.37-19.22,7.67-32.17C67.06,359.6,68,356.83,68.12,356.21Z" style="fill:#ffbda7"></path><path d="M58.89,418.31c-.24,3.91-.88,6.51-2.36,8.81s-4.24,3-7.05,2.34-6.41-2.47-7.21-5.85a20.23,20.23,0,0,1,0-9.32Z" style="fill:#263238"></path><path d="M47.71,390c-1.16.08-1.5,5.34-2.17,10.61-.71,5.64-2.49,8-3.13,12.6-.73,5.29-.44,7.65,1.52,10.85s8.9,6.33,12.32,1.75c2.79-3.73,2.9-7.87,2.65-13.15a113,113,0,0,1,.37-13.38c.23-4,1.15-8,.15-8.39-.08.59-.15,1.32-.24,1.89s-.17,2.59-.82,2.61a8.34,8.34,0,0,1,0-1.5,1.63,1.63,0,0,0-.31-1.27,2.15,2.15,0,0,0-1.29-.54c-1.14-.22-3.55-.31-4.71-.41a16.68,16.68,0,0,0-1.73-.07,4.54,4.54,0,0,0-1.47.2,1,1,0,0,0-.63.53,1.76,1.76,0,0,0-.06.61A4.38,4.38,0,0,1,48,394c0,.16-.16.35-.32.31s-.19-.19-.19-.32c0-.64.08-1.1.11-1.84,0-.34.07-.81.08-1.16S47.69,390.29,47.71,390Z" style="fill:#37474f"></path><path d="M42.09,416.23c-.2,3.28,0,5.53,1.53,8,2,3.19,9.46,6.34,12.88,1.76,1.7-2.28,2.15-5,2.39-7.72C56.84,414.78,45.32,413.22,42.09,416.23Z" style="fill:#fafafa"></path><path d="M55.92,412.56l-.14,0a17.84,17.84,0,0,0-10-1,.44.44,0,0,1-.51-.31.4.4,0,0,1,.32-.49,18.45,18.45,0,0,1,10.55,1,.4.4,0,0,1,.2.54A.45.45,0,0,1,55.92,412.56Z" style="fill:#f0f0f0"></path><path d="M46.07,407.61a.42.42,0,0,1-.36-.28.39.39,0,0,1,.27-.51c5.19-1.66,10.31.83,10.53.94a.39.39,0,0,1,.18.54.44.44,0,0,1-.58.17s-5-2.44-9.86-.88A.55.55,0,0,1,46.07,407.61Z" style="fill:#f0f0f0"></path><path d="M46.37,403.89a.42.42,0,0,1-.36-.27.4.4,0,0,1,.26-.52A14,14,0,0,1,57,404a.4.4,0,0,1,.15.56.46.46,0,0,1-.59.14,13.28,13.28,0,0,0-10-.84A.43.43,0,0,1,46.37,403.89Z" style="fill:#f0f0f0"></path><path d="M46.72,399.72a.45.45,0,0,1-.36-.26.41.41,0,0,1,.25-.53c5.35-1.89,10.61.9,10.83,1a.39.39,0,0,1,.15.55.44.44,0,0,1-.58.15s-5.13-2.73-10.09-1A.69.69,0,0,1,46.72,399.72Z" style="fill:#ebebeb"></path><path d="M63.37,220.25a9.22,9.22,0,0,1-1.86,4.44c-5.09,7.15-9.07,14-9.48,27C51,283.74,51.8,317,51.8,317c-.22,2.83-2.61,7.84-3.7,22.49-1,12.83-.62,30.4-.62,30.4s9.31,4.37,17.32,1.29c3.18-10.42,9.81-37.47,13.28-51.43,3.16-12.67,5.26-31.32,5.26-31.32l5.54,25.84a75.37,75.37,0,0,0,.21,16.7c1,8.58,5,33.18,5,33.18s10.25,3,17.13-1.81c0,0,1.72-42.85,1.79-53.24.14-19.31,0-58.86-5.93-83.53a53,53,0,0,1-.38-5.74C99.92,225.41,72.41,226.27,63.37,220.25Z" style="fill:#37474f"></path><path d="M74.09,229.32a.39.39,0,0,0-.45.27c-.37,1.49-.66,2.83-.93,4.13-1,4.69-1.72,8.07-5.26,11.71A12.39,12.39,0,0,1,58.52,249c1.53-9.59,4.78-17.25,9.94-23.58a.34.34,0,0,0-.07-.5.38.38,0,0,0-.52.07c-5.31,6.5-8.62,14.38-10.15,24.26,0,0,0,0,0,.05s0,0,0,0a88.75,88.75,0,0,0-1,11.91c-.33,18-.83,45.3-1.11,52.45A51.46,51.46,0,0,1,53.54,325c-.94,3.63-2,7.75-2.95,13.38-2.05,12.19-1,32.2-1,32.4a.37.37,0,0,0,.38.34h0a.37.37,0,0,0,.36-.37c0-.2-1.05-20.15,1-32.26.94-5.6,2-9.7,2.94-13.32a52.53,52.53,0,0,0,2.12-11.51c.27-7.17.77-34.43,1.1-52.46a90.75,90.75,0,0,1,.92-11.55h.39a13,13,0,0,0,9.2-3.78c3.69-3.78,4.43-7.25,5.45-12,.27-1.29.56-2.63.92-4.11A.35.35,0,0,0,74.09,229.32Z" style="fill:#455a64"></path><path d="M47.42,365.89c2.74,2.58,14.22,3.95,18.42,1.69l-1.76,6.87s-2.73,1.69-8.83,1.14c-7.07-.64-7.83-2.9-7.83-2.9Z" style="fill:#455a64"></path><path d="M93.46,360.38c3.64,1.2,13.91.45,17.87-2l-.16,5.74s-2.23,2.15-8.32,2.79-8.57-1-8.57-1Z" style="fill:#455a64"></path><path d="M83.34,288.39l4-31.66a20,20,0,0,0,16-7.71s.26,7.91-12.75,11.55L85.8,289.76l3.08,24.47Z" style="fill:#263238"></path></g><g id="freepik--Top--inject-26"><path d="M52.61,195.22c-2.21-1.15-3.72-2.13-5-4.46-1.52-2.75-2.14-5.69-.81-8.82a9.35,9.35,0,0,1,4-4.59,5.1,5.1,0,0,1-1.43-1.25,4.62,4.62,0,0,1-1-3,6.56,6.56,0,0,1,4.06-6.38c2.08-.88,4.15-1.37,5.64-3.24,1.26-1.59,1.07-4,.94-5.88-.18-2.46-.4-4.92-.53-7.38-.28-5.2-.79-12.41,4.94-18.59a9.49,9.49,0,0,1,5.34-2.89c2.15-4.93,7.13-7.45,11.38-8.55A33.27,33.27,0,0,1,91,119.47a18.53,18.53,0,0,1,10.11,3.81,13.7,13.7,0,0,1,4.94,8.85,11.24,11.24,0,0,1-2,7.93,6.32,6.32,0,0,1,2.11,2.94c.54,2.55.14,5.65-4.07,7.69l-5.82,6.42a64,64,0,0,1,3.09,12.49,80.93,80.93,0,0,1,.45,8.24c0,8.21-1.27,18-8.24,23.69-2,1.62-6.64,3-18.83.65S53.47,195.67,52.61,195.22Z" style="fill:#37474f"></path><path d="M131.65,203.55c7.77-5.19,10-6.62,10.94-8.61s.74-4,1.48-7.28a22.29,22.29,0,0,0,.32-8.5c-.39-1.7,1.65-1.44,3.22.69s.93,3.3,1.27,5.32,1.26,1.82,2.53.63,7.31-7.21,9.43-8.91,3.53-1.23,4-.29c.29.54-.82,1.59-3.48,4.34s-5.43,5-5.24,5.21,2.9-2.32,6-4.74c2.81-2.22,4.43-3.3,6-3.1,1.73.23,1.78,1.55,1.28,1.92a76.11,76.11,0,0,0-6.62,5.22,32.64,32.64,0,0,0-3.49,3.3c.12.33,2.38-1.39,5.48-3.05,2.83-1.51,4.45-2.14,6-1.24.32.18.75.69.63,1-.29.67-2.6,1.71-4,2.54-2,1.21-2.22,1.24-3.69,2.23-1,.68-2.32,1.58-2.24,1.78s5.1-2,6.83-1.93c1.49.07,2.52.94,1.19,1.82s-8.62,5-11.38,6.75-5.79,4.18-8.39,6.14-14,9.8-14,9.8Z" style="fill:#ffbda7"></path><path d="M94.46,171.06c5,.45,9.12,2,13.22,7.28,3.55,4.58,16.68,26.64,16.68,26.64s8.5-3.66,11.67-5.36,6.68-3.52,7.36-7.72c0,0,9.31,10.4,7.38,12S136,217.06,131.13,220.5c-6.37,4.48-8.48,5.79-12.93,2.48s-17.11-21.36-17.11-21.36Z" style="fill:#ffbda7"></path><path d="M94.28,171c5.7.29,8.94,1.57,12.77,5.93s17.43,27.81,17.43,27.81l5.41-2.6a13.3,13.3,0,0,0,1.28,7.8c2,3.82,6.52,5.46,6.52,5.46s-5.94,5.68-10.83,8.44-7.36,1.41-10.4-1.77S93.88,192.8,93.88,192.8Z" style="fill:#B2299F"></path><path d="M94.28,171c5.7.29,8.94,1.57,12.77,5.93s17.43,27.81,17.43,27.81l5.41-2.6a13.3,13.3,0,0,0,1.28,7.8c2,3.82,6.52,5.46,6.52,5.46s-5.94,5.68-10.83,8.44-7.36,1.41-10.4-1.77S93.88,192.8,93.88,192.8Z" style="opacity:0.2"></path><path d="M150.14,188.82c1.34,2.47-.39,6.23-2.29,8.3C150.77,195.22,152.56,192.23,150.14,188.82Z" style="fill:#f0997a"></path><path d="M124.48,204.7a12,12,0,0,0-5.79,10.58c-.67-3.66-1.11-8.55,4.81-12.36Z" style="opacity:0.2"></path><path d="M107.44,205.81c.27,4.72-.1,17.47-.1,17.47,1.61,11.81,2.67,19,2.67,19-20.91,11.16-52.56,3-56.53-1.57,2-10.35,8.37-19.69,7.21-25.23l-5-21.06s9.93-6.87,9.11-22.09a135.05,135.05,0,0,1,13.58-1.64,100.83,100.83,0,0,1,15.94.26c3.36,1.84,10.37,8,14.36,14.42S113.75,199.21,107.44,205.81Z" style="fill:#B2299F"></path><path d="M91.38,205.27s-5.45,4.82-12.16,2.92a11.24,11.24,0,0,1-8-7.57s-.22,7.53,8.21,9.56A10.86,10.86,0,0,0,91.38,205.27Z" style="opacity:0.1"></path><path d="M95.05,130.4c2.64,1.19,6.21,4.52,7.22,19.68.72,10.78-2.13,12.81-3.73,14-2.58,1.9-5.33,1.91-8.8,1.68l-.19,6.41s7.24,9.85,4,14.47a29.06,29.06,0,0,1-14.43-6.94,24.39,24.39,0,0,1-5.86-7l.24-13.85s-1.83,2.06-5.52-.49c-3-2.1-4.36-6-2.37-8.34a5,5,0,0,1,7.94.77s3.85-.1,4-7.3c0,0,5.69-.91,8.74-2.74C93.21,136.55,94.35,132.24,95.05,130.4Z" style="fill:#ffbda7"></path><path d="M89.74,165.74c-5.44-.37-11.48-2.56-12.9-5.26a6,6,0,0,0,3.56,4.71c2.61,1.21,9.28,2.63,9.28,2.63Z" style="fill:#f0997a"></path><path d="M87.69,145.92a1.6,1.6,0,0,1-1.32,1.8,1.52,1.52,0,0,1-1.83-1.2,1.6,1.6,0,0,1,1.32-1.8A1.53,1.53,0,0,1,87.69,145.92Z"></path><path d="M87.4,155.56,93,156.91a2.84,2.84,0,0,1-3.44,2.1A2.88,2.88,0,0,1,87.4,155.56Z" style="fill:#b16668"></path><path d="M87.87,156.69a3.89,3.89,0,0,0-.49,0A2.91,2.91,0,0,0,89.55,159a2.84,2.84,0,0,0,1.76-.14A3.8,3.8,0,0,0,87.87,156.69Z" style="fill:#f28f8f"></path><path d="M99.54,140.61,96,140.39a1.78,1.78,0,0,1,3.56.22Z"></path><path d="M86,141.34l-3.16,1.71a1.79,1.79,0,0,1,.73-2.45A1.7,1.7,0,0,1,86,141.34Z"></path><path d="M99.33,144.39a1.59,1.59,0,0,1-1.31,1.8,1.54,1.54,0,0,1-1.83-1.2,1.6,1.6,0,0,1,1.32-1.8A1.52,1.52,0,0,1,99.33,144.39Z"></path><polygon points="91.38 143.82 93.63 154.02 98.68 150.74 91.38 143.82" style="fill:#f0997a"></polygon><g id="freepik--Arm--inject-26"><path d="M100.9,205c3.35-1.84,5-2.5,6.48-2.7s6.74-1.56,8.71-1.76c1.25-.13,1.47,1.86-.26,3-1.33.85-4.6,1.75-6.06,2.3s-4.56,3.39-4.56,3.39Z" style="fill:#f0997a"></path><path d="M51.52,183.5c1.74-6.15,4.45-9,13.33-10.94,7.43,7.2,2.05,24.93,2.05,24.93L63.74,216s21.4-.88,23.64-1.9S96,208,98.08,206.45c2.86-2,4.06-1.55,5.31-1.18,4.1,1.22,5,1.71,5.77,2.39a1.93,1.93,0,0,1,.59,1.75c1.09.3,2.76.5,2.71,2.36a5.27,5.27,0,0,1-.14,1.47,1.24,1.24,0,0,1,.67.52c.77,1.2-1.34,4.69-2.48,5.45a3.68,3.68,0,0,1-3.12.1c-1.1-.31-.42-1.38-.42-1.38l-1.59-.13c-3.75,1.93-4.6,6.7-9.25,7.12a30.56,30.56,0,0,0-5.65.29c-10.16,1.88-27.46,9.49-36.2,9-8.54-.47-7.57-4.9-7.87-10.11C46.05,217.93,49.58,190.37,51.52,183.5Z" style="fill:#ffbda7"></path><path d="M64.76,172.34C59.1,173.42,54.5,175,52,180.71s-4.36,21.72-5,27.85-1.56,17.83-.61,21.4,4.39,4.7,8.3,4.69,12.42-2.34,15.77-3.63c0,0-2.44-1.81-2.77-7.27-.29-4.85,1.56-7.56,3.17-8.1l-6.91.24s3.17-16.48,4.32-22.21S70.34,175.37,64.76,172.34Z" style="fill:#B2299F"></path><path d="M64.76,172.34C59.1,173.42,54.5,175,52,180.71s-4.36,21.72-5,27.85-1.56,17.83-.61,21.4,4.39,4.7,8.3,4.69,12.42-2.34,15.77-3.63c0,0-2.44-1.81-2.77-7.27-.29-4.85,1.56-7.56,3.17-8.1l-6.91.24s3.17-16.48,4.32-22.21S70.34,175.37,64.76,172.34Z" style="opacity:0.2"></path><path d="M64.3,214.13,64,215.89c-5.53.14-9.92,1.47-12.45,4.69C53.27,216,57.29,214.58,64.3,214.13Z" style="opacity:0.2"></path><path d="M109.75,209.41l-4.83-1.71,4.82,1A2.06,2.06,0,0,1,109.75,209.41Z" style="fill:#f0997a"></path><path d="M112.32,213.24l-5.62-1.56,5.72.9A2.64,2.64,0,0,1,112.32,213.24Z" style="fill:#f0997a"></path><path d="M111.21,215.65a1.8,1.8,0,0,1-.87.56,3.55,3.55,0,0,1-1,.2l.08,0c-.19.27-.4.54-.61.81l-.09-.17a1.19,1.19,0,0,1,.88.36,1.5,1.5,0,0,1,.39.81,1.77,1.77,0,0,0-.49-.7,1.14,1.14,0,0,0-.76-.25h-.23l.13-.18c.2-.28.4-.56.61-.82l0-.05h0a5.48,5.48,0,0,0,1-.13A2.09,2.09,0,0,0,111.21,215.65Z" style="fill:#f0997a"></path><path d="M109.58,216.18a19.63,19.63,0,0,1-2.09-.15s-.1.4-.87,1a11.89,11.89,0,0,1-1.24.77l1.59.13a2.57,2.57,0,0,1,1.94-.72Z" style="fill:#f0997a"></path></g></g></g></g><g id="freepik--speech-bubble--inject-26"><g id="freepik--speech-bubble--inject-26"><g id="freepik--speech-bubble--inject-26"><path d="M430.83,229.66l5.27-9.91-4.24-12.24V200l13,7.5V215l-5.58,9.67a.8.8,0,0,1-.38.33h0Z" style="fill:#B2299F"></path><path d="M430.83,229.66l5.27-9.91-4.24-12.24V200l13,7.5V215l-5.58,9.67a.8.8,0,0,1-.38.33h0Z" style="opacity:0.2"></path><path d="M410.6,146.57a8.6,8.6,0,0,1,3.89-6.74l1.75-1a8.6,8.6,0,0,1,7.78,0l31.55,18.33a8.6,8.6,0,0,1,3.89,6.74v53.47a8.6,8.6,0,0,1-3.89,6.74l-1.75,1a8.6,8.6,0,0,1-7.78,0l-9.35-5.39-5.57,9.65a.83.83,0,0,1-1.51-.14l-5.88-17-9.24-5.45A8.58,8.58,0,0,1,410.6,200Z" style="fill:#B2299F"></path><path d="M410.6,146.57a8.6,8.6,0,0,1,3.89-6.74l1.75-1a8.6,8.6,0,0,1,7.78,0l31.55,18.33a8.6,8.6,0,0,1,3.89,6.74v53.47a8.6,8.6,0,0,1-3.89,6.74l-1.75,1a8.6,8.6,0,0,1-7.78,0l-9.35-5.39-5.57,9.65a.83.83,0,0,1-1.51-.14l-5.88-17-9.24-5.45A8.58,8.58,0,0,1,410.6,200Z" style="fill:#fff;opacity:0.30000000000000004"></path><path d="M459.46,217.37a8.6,8.6,0,0,1-3.89,6.74l-1.75,1a8.69,8.69,0,0,1-7.12.31c1.84.7,3.23-.34,3.23-2.56V169.39a8,8,0,0,0-1.14-3.83l9.53-5.5a7.91,7.91,0,0,1,1.14,3.84Z" style="fill:#B2299F;opacity:0.8"></path><path d="M410.72,145.47c.46-1.65,2-2.18,3.76-1.15L446,162.66a7.68,7.68,0,0,1,2.74,2.9l9.53-5.49a7.84,7.84,0,0,0-2.74-2.9L424,138.83a8.68,8.68,0,0,0-7.79,0l-1.76,1A8.61,8.61,0,0,0,410.72,145.47Z" style="fill:#fff;opacity:0.5"></path></g><polygon id="freepik--Lightning--inject-26" points="430 161.97 439.72 187.75 431.37 189.18 433.97 209.93 423.85 183.25 432.17 181.43 430 161.97" style="fill:#fff"></polygon></g></g></svg>