<svg xmlns="http://www.w3.org/2000/svg" viewBox="0 0 500 500"><path d="M443.4 330.93s51.09-57.42 34.85-157.33-99.67-136.72-155-117.49-67.81 52.7-113 71.84-131.06 6-174 70.29 11.88 170.82 81.67 237.62S365.8 460.84 443.4 330.93Z" style="fill:#b2299f"/><path d="M443.4 330.93s51.09-57.42 34.85-157.33-99.67-136.72-155-117.49-67.81 52.7-113 71.84-131.06 6-174 70.29 11.88 170.82 81.67 237.62S365.8 460.84 443.4 330.93Z" style="fill:#fff;opacity:.7000000000000001"/><path d="M445 475.44h32.66M26.64 475.44H435" style="fill:none;stroke:#263238;stroke-linecap:round;stroke-linejoin:round"/><path d="m439 401.5-16.5 23 5.83 3.94a13.88 13.88 0 0 1 6.11 11.5h11.94a13.87 13.87 0 0 1 6.1-11.5l5.83-3.94-16.49-23ZM440.19 401.8v18.53" style="fill:#fff;stroke:#263238;stroke-linecap:round;stroke-linejoin:round"/><circle cx="440.19" cy="420.33" r="3.95" style="fill:#fff;stroke:#263238;stroke-linecap:round;stroke-linejoin:round"/><path d="M468 420.33a27.85 27.85 0 0 0-55.7 0" style="fill:none;stroke:#263238;stroke-linecap:round;stroke-linejoin:round"/><path d="M465.96 418.25h4.16v4.16h-4.16zM409.96 418.25h4.16v4.16h-4.16zM438.11 390.4h4.16v4.16h-4.16z" style="fill:#fff;stroke:#263238;stroke-linejoin:round"/><circle cx="435.8" cy="321.62" r="27.59" style="fill:none;stroke:#263238;stroke-linecap:round;stroke-linejoin:round" transform="rotate(-13.44 435.966 321.69)"/><circle cx="435.8" cy="321.62" r="22.63" style="fill:none;stroke:#263238;stroke-linecap:round;stroke-linejoin:round"/><path d="M435.8 330.63v-9.01h19.87" style="fill:none;stroke:#263238;stroke-linecap:round;stroke-linejoin:round"/><path d="M433.6 291.83h4.41v4.41h-4.41zM433.6 347.06h4.41v4.41h-4.41zM461.47 319.79h4.41v4.41h-4.41zM405.93 319.79h4.41v4.41h-4.41z" style="fill:#fff;stroke:#263238;stroke-linecap:round;stroke-linejoin:round"/><path d="m455.06 340.52 2.94 24.17 5.41-9.29 10.75.21-19.1-15.09zM465.89 363.86h4.14V368h-4.14z" style="fill:#263238"/><rect width="61.78" height="45.61" x="409.15" y="196.05" rx="4.4" style="fill:none;stroke:#263238;stroke-linecap:round;stroke-linejoin:round"/><path d="M409.42 229.89h61.24M432.07 241.65h15.95v12.2h-15.95zM426.9 253.88h26.07v2.33H426.9zM47.01 304.33l13.5 129.33M57.85 408.37l-5.63-5.93" style="fill:none;stroke:#263238;stroke-linecap:round;stroke-linejoin:round"/><path d="M54.08 404.38a6.94 6.94 0 0 0-2.44-5.19c-1.57-1.4-9.83-4.88-10.62-2-.85 3.2 7.61 9.42 13.06 7.19Z" style="fill:#b2299f;stroke:#263238;stroke-linejoin:round"/><path d="m54.08 404.38-7.87-4.9M59.25 421.73l-5.5-4.58" style="fill:none;stroke:#263238;stroke-linecap:round;stroke-linejoin:round"/><path d="M55.61 419.09a6.91 6.91 0 0 0-2.43-5.19c-1.57-1.4-9.84-4.88-10.62-2-.86 3.2 7.6 9.41 13.05 7.19Z" style="fill:#b2299f;stroke:#263238;stroke-linejoin:round"/><path d="m55.61 419.09-7.87-4.9M54.03 371.55l-5.56-5" style="fill:none;stroke:#263238;stroke-linecap:round;stroke-linejoin:round"/><path d="M50.33 368.49a6.91 6.91 0 0 0-2.43-5.19c-1.57-1.4-9.84-4.88-10.62-2-.86 3.2 7.6 9.42 13.05 7.19Z" style="fill:#b2299f;stroke:#263238;stroke-linejoin:round"/><path d="m50.33 368.49-7.87-4.9M55.58 387.19l-5.57-5.93" style="fill:none;stroke:#263238;stroke-linecap:round;stroke-linejoin:round"/><path d="M51.87 383.2a6.94 6.94 0 0 0-2.44-5.2c-1.57-1.4-9.84-4.88-10.62-2-.81 3.21 7.61 9.42 13.06 7.2Z" style="fill:#b2299f;stroke:#263238;stroke-linejoin:round"/><path d="M51.87 383.2 44 378.3M51.55 348.34l-5.57-5.68" style="fill:none;stroke:#263238;stroke-linecap:round;stroke-linejoin:round"/><path d="M47.84 344.6a6.94 6.94 0 0 0-2.44-5.19c-1.57-1.4-9.83-4.88-10.62-2-.85 3.2 7.61 9.41 13.06 7.19Z" style="fill:#b2299f;stroke:#263238;stroke-linejoin:round"/><path d="m47.84 344.6-7.87-4.9M48.87 322.79l-5.4-4.12" style="fill:none;stroke:#263238;stroke-linecap:round;stroke-linejoin:round"/><path d="M45.33 320.6a6.91 6.91 0 0 0-2.43-5.19c-1.57-1.4-9.84-4.88-10.62-2-.86 3.2 7.6 9.42 13.05 7.19Z" style="fill:#b2299f;stroke:#263238;stroke-linejoin:round"/><path d="m45.33 320.6-7.87-4.9M57.31 400.21l4.65-7.59" style="fill:none;stroke:#263238;stroke-linecap:round;stroke-linejoin:round"/><path d="M60.54 394.9a6.94 6.94 0 0 1 1.31-5.58c1.25-1.7 8.62-6.81 10-4.12 1.48 2.92-5.52 10.8-11.31 9.7Z" style="fill:#b2299f;stroke:#263238;stroke-linejoin:round"/><path d="m60.54 394.9 5.54-5.2M53.27 361.5l4.65-7.59" style="fill:none;stroke:#263238;stroke-linecap:round;stroke-linejoin:round"/><path d="M56.5 356.19a6.94 6.94 0 0 1 1.31-5.58c1.25-1.69 7-5.94 8.38-3.26 1.49 2.92-3.9 9.9-9.69 8.84Z" style="fill:#b2299f;stroke:#263238;stroke-linejoin:round"/><path d="m56.5 356.19 7.09-6.77M51.49 344.49l4.66-7.58" style="fill:none;stroke:#263238;stroke-linecap:round;stroke-linejoin:round"/><path d="M54.73 339.18A6.94 6.94 0 0 1 56 333.6c1.24-1.69 8.61-6.8 10-4.12 1.51 2.93-5.48 10.76-11.27 9.7Z" style="fill:#b2299f;stroke:#263238;stroke-linejoin:round"/><path d="m54.73 339.18 7.08-6.77M48.89 319.56l4.65-7.59" style="fill:none;stroke:#263238;stroke-linecap:round;stroke-linejoin:round"/><path d="M52.12 314.25a6.92 6.92 0 0 1 1.32-5.58c1.24-1.7 8.61-6.81 10-4.12 1.47 2.92-5.52 10.75-11.32 9.7Z" style="fill:#b2299f;stroke:#263238;stroke-linejoin:round"/><path d="m52.12 314.25 7.09-6.77" style="fill:none;stroke:#263238;stroke-linecap:round;stroke-linejoin:round"/><path d="M46.9 303.61a6.94 6.94 0 0 1 1.31-5.61c1.25-1.69 8.62-6.8 10-4.12 1.48 2.96-5.52 10.79-11.31 9.73Z" style="fill:#b2299f;stroke:#263238;stroke-linejoin:round"/><path d="m46.9 303.61 7.09-6.77" style="fill:none;stroke:#263238;stroke-linecap:round;stroke-linejoin:round"/><path d="M47.31 303.91A7 7 0 0 1 41.9 302c-1.56-1.42-5.87-9.29-3-10.36 3.01-1.16 10.1 6.62 8.41 12.27Z" style="fill:#b2299f;stroke:#263238;stroke-linejoin:round"/><path d="m47.31 303.91-5.99-7.76M67.23 269.48v163.55M82.61 322.14 69.19 451.47M72.03 425.05l-3.11-3.55" style="fill:none;stroke:#263238;stroke-linecap:round;stroke-linejoin:round"/><path d="M68.92 421.5a6.94 6.94 0 0 0-1.31-5.58c-1.25-1.69-8.62-6.8-10-4.11-1.48 2.92 5.52 10.75 11.31 9.69Z" style="fill:#b2299f;stroke:#263238;stroke-linejoin:round"/><path d="m68.92 421.5-6.69-6.42M75.82 388.13l-4.61-3.85" style="fill:none;stroke:#263238;stroke-linecap:round;stroke-linejoin:round"/><path d="M72.65 385.61a6.92 6.92 0 0 0-1.32-5.61c-1.25-1.7-8.62-6.8-10-4.11-1.47 2.95 5.53 10.78 11.32 9.72Z" style="fill:#b2299f;stroke:#263238;stroke-linejoin:round"/><path d="m72.65 385.61-6.69-6.42M74.36 405.62l-4.66-7.58" style="fill:none;stroke:#263238;stroke-linecap:round;stroke-linejoin:round"/><path d="M71.12 400.32a6.94 6.94 0 0 0-1.31-5.58c-1.25-1.7-8.62-6.8-10-4.12-1.48 2.93 5.52 10.75 11.31 9.7Z" style="fill:#b2299f;stroke:#263238;stroke-linejoin:round"/><path d="m71.12 400.32-6.69-6.42M78.15 364.56l-4.44-5.12" style="fill:none;stroke:#263238;stroke-linecap:round;stroke-linejoin:round"/><path d="M75.13 361.72a6.92 6.92 0 0 0-1.32-5.58c-1.25-1.7-8.62-6.8-10-4.12-1.47 2.98 5.53 10.75 11.32 9.7Z" style="fill:#b2299f;stroke:#263238;stroke-linejoin:round"/><path d="m75.13 361.72-6.69-6.42M80.49 342.1l-4.29-6.66" style="fill:none;stroke:#263238;stroke-linecap:round;stroke-linejoin:round"/><path d="M77.62 337.72a6.92 6.92 0 0 0-1.32-5.58c-1.25-1.7-8.62-6.8-10-4.12-1.47 2.98 5.53 10.75 11.32 9.7Z" style="fill:#b2299f;stroke:#263238;stroke-linejoin:round"/><path d="m77.62 337.72-6.69-6.42M72.94 418.08l6.12-6.47" style="fill:none;stroke:#263238;stroke-linecap:round;stroke-linejoin:round"/><path d="M77.2 413.55a6.91 6.91 0 0 1 2.43-5.19c1.57-1.4 9.84-4.89 10.62-2 .86 3.19-7.6 9.41-13.05 7.19Z" style="fill:#b2299f;stroke:#263238;stroke-linejoin:round"/><path d="m77.2 413.55 8.33-5.17M76.96 379.37l6.12-6.46" style="fill:none;stroke:#263238;stroke-linecap:round;stroke-linejoin:round"/><path d="M81.22 374.84a6.92 6.92 0 0 1 2.43-5.19c1.57-1.4 9.83-4.88 10.62-2 .85 3.19-7.6 9.42-13.05 7.19Z" style="fill:#b2299f;stroke:#263238;stroke-linejoin:round"/><path d="m81.22 374.84 8.33-5.16M78.73 362.36l6.11-6.46" style="fill:none;stroke:#263238;stroke-linecap:round;stroke-linejoin:round"/><path d="M83 357.84a7 7 0 0 1 2.44-5.2c1.56-1.4 9.83-4.88 10.61-2 .84 3.19-7.62 9.42-13.05 7.2Z" style="fill:#b2299f;stroke:#263238;stroke-linejoin:round"/><path d="m82.98 357.84 8.33-5.17M81.24 336.15l6.19-5.19" style="fill:none;stroke:#263238;stroke-linecap:round;stroke-linejoin:round"/><path d="M85.57 332.9a6.91 6.91 0 0 1 2.43-5.19c1.57-1.41 9.84-4.89 10.62-2 .86 3.19-7.62 9.41-13.05 7.19ZM85.57 332.9l8.33-5.17M82.65 321.42a6.94 6.94 0 0 1 2.43-5.2c1.57-1.4 9.83-4.88 10.62-2 .86 3.2-7.6 9.42-13.05 7.2Z" style="fill:#b2299f;stroke:#263238;stroke-linejoin:round"/><path d="m82.65 321.42 8.33-5.17" style="fill:none;stroke:#263238;stroke-linecap:round;stroke-linejoin:round"/><path d="M83 321.79a7 7 0 0 1-4.91-3c-1.23-1.7-3.82-10.29-.85-10.76 3.23-.49 8.53 8.57 5.76 13.76Z" style="fill:#b2299f;stroke:#263238;stroke-linejoin:round"/><path d="m82.99 321.79-4.27-8.83M67.01 408.14l-5.06-6.77" style="fill:none;stroke:#263238;stroke-linecap:round;stroke-linejoin:round"/><path d="M63.6 403.49a6.91 6.91 0 0 0-1.89-5.41c-1.41-1.56-9.27-5.88-10.36-3.06-1.17 3.06 6.65 10.12 12.25 8.47Z" style="fill:#b2299f;stroke:#263238;stroke-linejoin:round"/><path d="m63.6 403.49-7.32-5.69M67.19 375.52l-5.24-4.88" style="fill:none;stroke:#263238;stroke-linecap:round;stroke-linejoin:round"/><path d="M63.6 372.76a6.93 6.93 0 0 0-1.89-5.42c-1.41-1.56-9.27-5.87-10.36-3.06-1.17 3.06 6.65 10.12 12.25 8.48Z" style="fill:#b2299f;stroke:#263238;stroke-linejoin:round"/><path d="m63.6 372.76-7.32-5.7M67.36 341.62l-5.41-7.07" style="fill:none;stroke:#263238;stroke-linecap:round;stroke-linejoin:round"/><path d="M63.6 336.67a6.91 6.91 0 0 0-1.89-5.41c-1.41-1.56-9.27-5.88-10.36-3.06-1.17 3.06 6.65 10.12 12.25 8.47Z" style="fill:#b2299f;stroke:#263238;stroke-linejoin:round"/><path d="m63.6 336.67-7.32-5.69M67.01 315.09l-5.06-4.56" style="fill:none;stroke:#263238;stroke-linecap:round;stroke-linejoin:round"/><path d="M63.6 312.65a6.91 6.91 0 0 0-1.89-5.41c-1.41-1.56-9.27-5.88-10.36-3.06-1.17 3.06 6.65 10.12 12.25 8.47Z" style="fill:#b2299f;stroke:#263238;stroke-linejoin:round"/><path d="m63.6 312.65-7.32-5.69M67.3 291.06l-5.25-3.85" style="fill:none;stroke:#263238;stroke-linecap:round;stroke-linejoin:round"/><path d="M63.6 288.52a6.91 6.91 0 0 0-1.89-5.41c-1.41-1.56-9.27-5.88-10.36-3.06-1.17 3.06 6.65 10.12 12.25 8.47Z" style="fill:#b2299f;stroke:#263238;stroke-linejoin:round"/><path d="m63.6 288.52-7.32-5.69M68.29 416.3l4.37-5.54" style="fill:none;stroke:#263238;stroke-linecap:round;stroke-linejoin:round"/><path d="M71 412.88a7 7 0 0 1 1.88-5.42c1.42-1.56 9.28-5.87 10.36-3.06 1.19 3.06-6.58 10.13-12.24 8.48Z" style="fill:#b2299f;stroke:#263238;stroke-linejoin:round"/><path d="m71.01 412.88 7.75-6M67.24 368.94l5.42-7.06" style="fill:none;stroke:#263238;stroke-linecap:round;stroke-linejoin:round"/><path d="M71 364a7 7 0 0 1 1.88-5.42c1.42-1.56 9.28-5.87 10.36-3.06 1.19 3.06-6.58 10.12-12.24 8.48Z" style="fill:#b2299f;stroke:#263238;stroke-linejoin:round"/><path d="m71.01 364 7.75-6.01M67.24 344.81l5.42-7.06" style="fill:none;stroke:#263238;stroke-linecap:round;stroke-linejoin:round"/><path d="M71 339.87a7 7 0 0 1 1.88-5.42c1.42-1.55 9.28-5.87 10.36-3.06 1.19 3.06-6.58 10.13-12.24 8.48Z" style="fill:#b2299f;stroke:#263238;stroke-linejoin:round"/><path d="m71.01 339.87 7.75-6M67.24 312.92l5.42-7.06" style="fill:none;stroke:#263238;stroke-linecap:round;stroke-linejoin:round"/><path d="M71 308a7 7 0 0 1 1.88-5.42c1.42-1.55 9.28-5.87 10.36-3.06 1.19 3.04-6.58 10.11-12.24 8.48Z" style="fill:#b2299f;stroke:#263238;stroke-linejoin:round"/><path d="m71.01 307.98 7.75-6M67.48 285.4l5.31-4.14" style="fill:none;stroke:#263238;stroke-linecap:round;stroke-linejoin:round"/><path d="M71 282.91a7 7 0 0 1 1.88-5.42c1.42-1.55 9.28-5.87 10.36-3.06 1.19 3.06-6.58 10.13-12.24 8.48Z" style="fill:#b2299f;stroke:#263238;stroke-linejoin:round"/><path d="m71.01 282.91 7.75-6" style="fill:none;stroke:#263238;stroke-linecap:round;stroke-linejoin:round"/><path d="M66.92 271.79a7 7 0 0 1 1.88-5.42c1.42-1.55 9.28-5.87 10.36-3.06 1.18 3.06-6.59 10.13-12.24 8.48Z" style="fill:#b2299f;stroke:#263238;stroke-linejoin:round"/><path d="m66.92 271.79 7.75-6" style="fill:none;stroke:#263238;stroke-linecap:round;stroke-linejoin:round"/><path d="M67.3 272.12a6.94 6.94 0 0 1-5.19-2.44c-1.4-1.57-4.87-9.84-2-10.62 3.21-.85 9.42 7.62 7.19 13.06Z" style="fill:#b2299f;stroke:#263238;stroke-linejoin:round"/><path d="m67.3 272.12-5.16-8.33" style="fill:none;stroke:#263238;stroke-linecap:round;stroke-linejoin:round"/><path d="M73.96 475.44H56.64l-2.16-43.74h21.65l-2.17 43.74z" style="fill:#263238;stroke:#263238;stroke-linecap:round;stroke-linejoin:round"/><path d="m277.49 286.82 7.64 19.11H265v3.44h43.45l-11.23-22.71-19.73.16z" style="fill:#fff;stroke:#263238;stroke-linejoin:round"/><path d="m275.64 286.82 7.65 19.11h-20.14v3.44h43.45l-11.23-22.71-19.73.16z" style="fill:#fff;stroke:#263238;stroke-linejoin:round"/><path d="M339.87 287H231.58a3.65 3.65 0 0 1-3.64-3.81l3.53-81.75a4.26 4.26 0 0 1 4.25-4.07H344a3.84 3.84 0 0 1 3.83 4l-3.51 81.33a4.51 4.51 0 0 1-4.45 4.3Z" style="fill:#fff;stroke:#263238;stroke-linejoin:round"/><path d="M334.33 287H226a3.64 3.64 0 0 1-3.64-3.81l3.53-81.75a4.25 4.25 0 0 1 4.25-4.07H338.5a3.84 3.84 0 0 1 3.83 4l-3.52 81.33a4.49 4.49 0 0 1-4.48 4.3Z" style="fill:#263238;stroke:#263238;stroke-linejoin:round"/><path d="M334.21 268.28H228.27l2.9-67.16h105.94l-2.9 67.16z" style="fill:#fff;stroke:#263238;stroke-linejoin:round"/><path d="M270.08 230.06a12.66 12.66 0 0 0-13.69-13.3 14.16 14.16 0 0 0-12.88 12.14 12.82 12.82 0 0 0 2.61 9.69 12.55 12.55 0 0 1 2.66 8.39l-.08 1.83h14.41l.08-1.83a13.66 13.66 0 0 1 3.41-8.38 13.94 13.94 0 0 0 3.48-8.54ZM262.95 252.38h-14.41l.16-3.57h14.41l-.16 3.57zM259.23 256h-7.29a3.38 3.38 0 0 1-3.4-3.57H263a3.76 3.76 0 0 1-3.77 3.57Z" style="fill:#fff;stroke:#263238;stroke-linecap:round;stroke-linejoin:round"/><path d="M257.25 259.51h-3.65a3.38 3.38 0 0 1-3.4-3.57H261a3.76 3.76 0 0 1-3.75 3.57Z" style="fill:#fff;stroke:#263238;stroke-linecap:round;stroke-linejoin:round"/><path d="M271.97 230.13h6.1M234.83 230.13h6.19M257.15 214.63l.27-6.12M268.02 219.06l4.4-4.22M240.48 245.42l4.47-4.28M245.76 218.94l-3.91-4.1M271.06 245.42l-3.9-4.08" style="fill:none;stroke:#263238;stroke-linecap:round;stroke-linejoin:round"/><path d="M320 230.06a12.65 12.65 0 0 0-13.68-13.3 14.15 14.15 0 0 0-12.88 12.14 12.82 12.82 0 0 0 2.6 9.69 12.62 12.62 0 0 1 2.67 8.39l-.09 1.83h14.42l.08-1.83a13.66 13.66 0 0 1 3.41-8.38 13.87 13.87 0 0 0 3.47-8.54ZM312.92 252.38H298.5l.16-3.57h14.42l-.16 3.57zM309.19 256h-7.28a3.39 3.39 0 0 1-3.41-3.57h14.42a3.77 3.77 0 0 1-3.73 3.57Z" style="fill:#263238;stroke:#fff;stroke-linecap:round;stroke-linejoin:round"/><path d="M307.22 259.51h-3.65a3.39 3.39 0 0 1-3.41-3.57h10.78a3.77 3.77 0 0 1-3.72 3.57Z" style="fill:#263238;stroke:#fff;stroke-linecap:round;stroke-linejoin:round"/><path d="M321.93 230.13h6.11M284.8 230.13h6.19M307.11 214.63l.28-6.12M317.99 219.06l4.4-4.22M290.45 245.42l4.47-4.28M295.73 218.94l-3.91-4.1M321.02 245.42l-3.89-4.08" style="fill:none;stroke:#263238;stroke-linecap:round;stroke-linejoin:round"/><path d="M334.33 287H226a3.64 3.64 0 0 1-3.64-3.81l.45-10.51h116.4l-.44 10a4.49 4.49 0 0 1-4.44 4.32Z" style="fill:#fff;stroke:#263238;stroke-linejoin:round"/><path d="M312.41 311.95h55.71v163.51h-55.71z" style="fill:#263238;stroke:#263238;stroke-linejoin:round"/><path d="M316.04 311.95h55.71v163.51h-55.71z" style="fill:#7d7d7d;stroke:#263238;stroke-linejoin:round"/><path d="M316.04 311.95h55.71v8.58h-55.71zM151.93 311.95h55.71v163.51h-55.71z" style="fill:#263238;stroke:#263238;stroke-linejoin:round"/><path d="M155.56 311.95h55.71v163.51h-55.71z" style="fill:#7d7d7d;stroke:#263238;stroke-linejoin:round"/><path d="M144.05 309.01h241.88v5.54H144.05z" style="fill:#263238;stroke:#263238;stroke-linejoin:round"/><path d="M313.14 309.01h72.79v5.54h-72.79zM296 309l-.11-.29a11.72 11.72 0 0 0-10.91-7.44h-4.63a11.74 11.74 0 0 0-10 5.64L269 309ZM198 185.66v1.85c-.07 2.72-.19 7.62-.19 8.78 0 1.61-2.54 3.92-2.54 5.54s1.39 6.7 1.85 8.31-4.16 3-4.16 3-2.08 7.63-5.08 9.47-9 0-10.16-.23-4.85-1.38-4.85-1.38l-.23 11.77-19.17-7.85 1.46-12.9.16-1.42s.69-10.85-.23-16.16c-1.62-9.29 2.08-21.25 16.39-24.25a25.22 25.22 0 0 1 24.71 8.31c1.6 2.08 2.04 7.16 2.04 7.16Z" style="fill:#fff;stroke:#263238;stroke-linejoin:round"/><path d="m174.93 197.44 25.4 2.54M196.64 198.83l4.85.46s-.7 6.46-5.55 6.46M190.17 214.53s-2.08.23-3.46-3.23M194.1 199.98l-1.39 3M192.71 196.75s1.62-2.54 4.16.69" style="fill:none;stroke:#263238;stroke-linejoin:round"/><path d="M198 185.66v1.85l-.34-.32s-6.32-5.74-10.63-6.6-3.16 5.45-2.29 6.6 6.6 3.44 3.72 5.46-5.45 3.73-5.45 3.73l-1.82 4.86a2.37 2.37 0 0 1-4.38.15c-.77-1.7-2.34-5.1-3-6.17-.86-1.43-6.54.51-6 6a6 6 0 0 0 3 5s2.76 1.9-3.55 5.92-8.61 4.59-11.77.58c-.17-.21-.34-.45-.53-.72l.16-1.42s.69-10.85-.23-16.16c-1.62-9.29 2.08-21.25 16.39-24.25a25.22 25.22 0 0 1 24.71 8.31c1.57 2.1 2.01 7.18 2.01 7.18Z" style="fill:#263238;stroke:#263238;stroke-linejoin:round"/><path d="M251.94 453.67s9.55 3.38 15.09 3.08 9.85-2.78 11.09-.62-1.24 5.54-1.85 6.77-12.63 4.32-16.63 6.16-14.47 5.24-18.78 5.85-6.16-10.47-6.16-10.47Z" style="fill:#fff;stroke:#263238;stroke-linejoin:round"/><path d="M254.71 467.52a179.74 179.74 0 0 1-17.58 4.57c.94 1.75 2.17 3.05 3.73 2.82 4.31-.61 14.78-4 18.78-5.85s16-4.92 16.63-6.16 3.08-4.61 1.85-6.77c-4.62 8.93-13.86 8.31-23.41 11.39Z" style="fill:#fff;stroke:#263238;stroke-linejoin:round"/><path d="m211.91 369.29 22.79 95.15a31.6 31.6 0 0 0 9.54-2.46c4.93-2.16 6.47-3.39 7.7-4.93s-.31-6.77-.31-7.69-2.77-2.16-2.77-2.16l-8.62-81.91Z" style="fill:#263238;stroke:#263238;stroke-linejoin:round"/><path d="M231.24 456.25s3.7 5.85 7.08 7.7 6.47 3.08 8.32 3.08 3.39 3.7 3.69 4.93a15.69 15.69 0 0 1 .31 3.08h-28.33s-17.24-2.16-18.78-6.16 10.16-19.09 10.16-19.09Z" style="fill:#fff;stroke:#263238;stroke-linejoin:round"/><path d="M250.45 472.56c-6.63-.07-21.49-.38-28.75-1.83a182.83 182.83 0 0 1-17.89-4.85 4.85 4.85 0 0 0-.28 3c1.54 4 18.78 6.16 18.78 6.16h28.33a17.83 17.83 0 0 0-.19-2.48Z" style="fill:#fff;stroke:#263238;stroke-linejoin:round"/><path d="m188.25 326.85 8.62 7.69s37.26 2.78 50.19 3.39 21.55 4.31 21.25 10.47-36.25 102.82-36.25 102.82l-.05 5.64s-1.54 1.54-8.31 0a33.47 33.47 0 0 1-11.09-4.62s-1.23-5.85 1.85-8.31 6.43-17.62 6.43-17.62l12.62-61h-93.92a70.53 70.53 0 0 1-1.84-34.18s32.64 6.19 50.5-4.28Z" style="fill:#263238;stroke:#263238;stroke-linejoin:round"/><path d="M176.3 234.49a152.34 152.34 0 0 0-14.77-9.57c-8.11-4.57-10-2.28-14.14.21s-22.47 14.36-23.92 18.31 0 8.94 0 8.94 7.07 43.69 8.94 61.16 7.28 26.21 18.72 27.46 29.54-5 34.33-7.7 5.2-1.66 4.78-6.86-5-23.72-5.62-27.88-.2-13.52-.2-13.52 4.36-21 1-32.45a51.39 51.39 0 0 0-9.12-18.1Z" style="fill:#b2299f;stroke:#263238;stroke-linejoin:round"/><path d="m234.51 292.36 33.49 6.93s9.7-5.31 12.24-5.55 8.08 3.93 9.24 4.39 2.31 2.31 2.77 3.93 2.31 1.15.69 2.54-3.69-1.39-3.69-1.39-4.62.23-7.16 1.62-5.78 3.46-9.24 3.93a24.34 24.34 0 0 1-7.85-.7l-33.95-2.54s4.62-7.39 3.46-13.16Z" style="fill:#fff;stroke:#263238;stroke-linejoin:round"/><path d="M283.93 300.67s2.78-.92 4.62-.23 3.7 1.62 3.7 1.62" style="fill:none;stroke:#263238;stroke-linejoin:round"/><path d="m175.54 280.67-9.73-2.27M173.08 233.93s6.24 1.39 10.16 5.31 30.72 43.19 31.64 43.88 15 8.08 15 8.08 1.16 6.7-.92 9-7.16 5.31-7.16 5.31-12.47-1.38-16.4-2.31-39.49-29.79-39.49-29.79" style="fill:#b2299f;stroke:#263238;stroke-linejoin:round"/><path d="M208.13 286c1.39.06 2.81.09 4.27.09M182.13 281.48a97.9 97.9 0 0 0 22.43 4.31" style="fill:none;stroke:#263238;stroke-linejoin:round"/><path d="M224.12 287.74s2.31 6.24.23 10.62a21.43 21.43 0 0 1-5.77 7.16s10.62 1.85 12.7 1.85 5.77-9 5.54-13.63-12.7-6-12.7-6Z" style="fill:#fff;stroke:#263238;stroke-linejoin:round"/><path d="M233.51 365.34A59.69 59.69 0 0 0 252 356.1M239.36 363.8s8.93-1.23 13.86-4.62" style="fill:none;stroke:#878787;stroke-linejoin:round"/><path d="M192.12 366.17s-25.53-41.6-32.21-99.63c-1.58-13.72-12.59-24.07-25.7-24.07-15.47 0-27.49 14.23-25.72 30.45 2.77 25.34 8.9 62.3 22.36 94.26Z" style="fill:#fff;stroke:#263238;stroke-linejoin:round"/><path d="M188.58 366.17s-25.53-41.6-32.21-99.63c-1.58-13.72-12.59-24.07-25.7-24.07-15.47 0-27.49 14.23-25.72 30.45 2.77 25.34 8.9 62.3 22.36 94.26ZM176.85 374.04h12.74v69.76h-12.74z" style="fill:#263238;stroke:#263238;stroke-linejoin:round"/><path d="M172 431.37h21.54v15.47H172z" style="fill:#263238;stroke:#263238;stroke-linejoin:round"/><path d="m172.3 439.26-40.34 24.87v4.55h3.94v-3.04l36.1-18.8.3-7.58z" style="fill:#fff;stroke:#263238;stroke-linejoin:round"/><path d="M142 469.59a5.46 5.46 0 1 0-5.46 5.46 5.46 5.46 0 0 0 5.46-5.46Z" style="fill:#263238;stroke:#263238;stroke-linejoin:round"/><path d="m193.53 439.26 40.34 24.87v4.55h-3.94v-3.04l-36.1-18.8-.3-7.58z" style="fill:#fff;stroke:#263238;stroke-linejoin:round"/><path d="M223.86 469.59a5.46 5.46 0 1 1 5.46 5.46 5.46 5.46 0 0 1-5.46-5.46ZM177.76 469.59a5.46 5.46 0 1 1 5.46 5.46 5.45 5.45 0 0 1-5.46-5.46Z" style="fill:#263238;stroke:#263238;stroke-linejoin:round"/><path d="M181.4 438.95h3.34v25.18h-3.34z" style="fill:#fff;stroke:#263238;stroke-linejoin:round"/><path d="M194.82 345.17h37.34v6.47h-37.34z" style="fill:#fff;stroke:#263238;stroke-linejoin:round" transform="rotate(-76.66 213.487 348.4)"/><rect width="46.19" height="9.24" x="191.94" y="323.46" rx="4.62" style="fill:#263238;stroke:#263238;stroke-linejoin:round"/><path d="M233.2 376.73H130.05a5.54 5.54 0 0 1-5.54-5.54 5.55 5.55 0 0 1 5.54-5.55H233.2a5.56 5.56 0 0 1 5.55 5.55 5.55 5.55 0 0 1-5.55 5.54Z" style="fill:#263238;stroke:#263238;stroke-linejoin:round"/><path d="M233.2 376.73h-44.65a5.54 5.54 0 0 1-5.54-5.54 5.55 5.55 0 0 1 5.54-5.55h44.65a5.56 5.56 0 0 1 5.55 5.55 5.55 5.55 0 0 1-5.55 5.54Z" style="fill:#fff;stroke:#263238;stroke-linejoin:round"/><path d="M327.59 36.48h98.66v116.47h-98.66z" style="fill:none;stroke:#b2299f;stroke-linejoin:round"/><path d="M407.65 85.83a30.07 30.07 0 1 0-53.18 19.23 29.54 29.54 0 0 1 6.85 18.94v4.12h32.51V124a29.47 29.47 0 0 1 6.84-18.9 30 30 0 0 0 6.98-19.27Z" style="fill:#fff;stroke:#263238;stroke-linecap:round;stroke-linejoin:round;stroke-width:3px"/><path d="M361.32 128.11h32.51v8.04h-32.51zM361.32 136.17h32.51v3.32a4.73 4.73 0 0 1-4.73 4.73H366a4.73 4.73 0 0 1-4.73-4.73v-3.32h.05Z" style="fill:#fff;stroke:#263238;stroke-linecap:round;stroke-linejoin:round;stroke-width:3px"/><path d="M365.42 144.2h24.3v1.63a6.41 6.41 0 0 1-6.41 6.41h-11.48a6.41 6.41 0 0 1-6.41-6.41v-1.63h0Z" style="fill:#fff;stroke:#263238;stroke-linecap:round;stroke-linejoin:round;stroke-width:3px"/><path d="M411.91 85.98h13.78M328.17 85.98h13.95M376.93 51.04V37.23M401.9 61.01l9.51-9.5M342.45 120.46l9.65-9.65M351.69 60.74l-9.24-9.23M411.41 120.46l-9.2-9.19" style="fill:none;stroke:#263238;stroke-linecap:round;stroke-linejoin:round;stroke-width:3px"/><path d="M204 36.48h98.66v116.47H204z" style="fill:none;stroke:#b2299f;stroke-linejoin:round"/><path d="M283.48 85.83a30.07 30.07 0 1 0-53.17 19.23 29.54 29.54 0 0 1 6.85 18.94v4.12h32.5V124a29.47 29.47 0 0 1 6.84-18.9 29.92 29.92 0 0 0 6.98-19.27Z" style="fill:none;stroke:#263238;stroke-linecap:round;stroke-linejoin:round;stroke-width:3px"/><path d="M237.16 128.11h32.51v8.04h-32.51zM237.16 136.17h32.51v3.32a4.73 4.73 0 0 1-4.73 4.73h-23.06a4.73 4.73 0 0 1-4.73-4.73v-3.32h.01Z" style="fill:none;stroke:#263238;stroke-linecap:round;stroke-linejoin:round;stroke-width:3px"/><path d="M241.26 144.2h24.3v1.63a6.41 6.41 0 0 1-6.41 6.41h-11.48a6.41 6.41 0 0 1-6.41-6.41v-1.63h0Z" style="fill:none;stroke:#263238;stroke-linecap:round;stroke-linejoin:round;stroke-width:3px"/><path d="M218.5 85.98h69.79M253.31 134.74v-83.7M228.48 110.81l49.8-49.8M278.59 111.27l-50.53-50.53" style="fill:none;stroke:#b2299f;stroke-linejoin:round"/><circle cx="253.4" cy="85.93" r="49.2" style="fill:none;stroke:#b2299f;stroke-linejoin:round"/><circle cx="253.4" cy="85.93" r="34.9" style="fill:none;stroke:#b2299f;stroke-linejoin:round"/><path d="M287.75 85.98h13.77M204.01 85.98h13.95M252.76 51.04V37.23M277.73 61.01l9.51-9.5M218.29 120.46l9.65-9.65M227.52 60.74l-9.23-9.23M287.24 120.46l-9.19-9.19" style="fill:none;stroke:#263238;stroke-linecap:round;stroke-linejoin:round;stroke-width:3px"/><path d="M80.28 36.48h98.66v116.47H80.28z" style="fill:none;stroke:#b2299f;stroke-linejoin:round"/><circle cx="129.99" cy="85.83" r="30.07" style="fill:none;stroke:#263238;stroke-linejoin:round"/><path d="M113.74 90.72h32.51v37.38h-32.51zM113.74 128.11h32.51v8.04h-32.51zM113.74 136.17h32.51v8.04h-32.51z" style="fill:none;stroke:#263238;stroke-linejoin:round"/><path d="M117.84 144.2h24.3v8.04h-24.3z" style="fill:none;stroke:#263238;stroke-linejoin:round"/><path d="M81.17 86.04h97.52M129.81 135.23v-98M95.11 120.72l69.59-69.55M164.48 120.56l-69.5-69.2" style="fill:none;stroke:#b2299f;stroke-linejoin:round"/><circle cx="129.99" cy="85.93" r="49.2" style="fill:none;stroke:#b2299f;stroke-linejoin:round"/><circle cx="129.99" cy="85.93" r="34.9" style="fill:none;stroke:#b2299f;stroke-linejoin:round"/></svg>