<svg xmlns="http://www.w3.org/2000/svg" viewBox="0 0 500 500"><defs><clipPath id="a"><circle cx="149.18" cy="225.12" r="47.37" transform="rotate(-45 149.177 225.119)" style="fill:#fff"/></clipPath><clipPath id="b"><circle cx="350.82" cy="309.44" r="47.37" style="fill:#fff"/></clipPath></defs><path style="fill:#ebebeb" d="M0 382.4h500v.25H0zM90.46 391.92h24.87v.25H90.46zM152.33 389.21h27.5v.25h-27.5zM47.67 401.21h58.11v.25H47.67zM428.3 399.53h21.6v.25h-21.6zM214.79 391.14h27.93v.25h-27.93zM300.67 395.31h70.22v.25h-70.22zM237 337.8H43.91a5.71 5.71 0 0 1-5.7-5.71V60.66a5.71 5.71 0 0 1 5.7-5.66H237a5.71 5.71 0 0 1 5.71 5.71v271.38a5.71 5.71 0 0 1-5.71 5.71ZM43.91 55.2a5.46 5.46 0 0 0-5.45 5.46v271.43a5.46 5.46 0 0 0 5.45 5.46H237a5.47 5.47 0 0 0 5.46-5.46V60.66A5.47 5.47 0 0 0 237 55.2ZM453.31 337.8h-193.1a5.72 5.72 0 0 1-5.71-5.71V60.66a5.72 5.72 0 0 1 5.71-5.66h193.1a5.71 5.71 0 0 1 5.69 5.66v271.43a5.71 5.71 0 0 1-5.69 5.71ZM260.21 55.2a5.47 5.47 0 0 0-5.46 5.46v271.43a5.47 5.47 0 0 0 5.46 5.46h193.1a5.47 5.47 0 0 0 5.46-5.46V60.66a5.47 5.47 0 0 0-5.46-5.46Z"/><rect x="23.25" y="64.62" width="306.37" height="195.29" rx="8.6" style="fill:#ebebeb"/><path style="fill:#fafafa" d="M23.25 74.5h306.37v157.42H23.25z"/><path d="M231.27 134.14a7.37 7.37 0 0 1 7.35-7.35h229a7.37 7.37 0 0 1 7.35 7.35v23.66h-243.7Z" style="fill:#e6e6e6"/><circle cx="290.71" cy="142.3" r="5.56" style="fill:#fff"/><circle cx="271.01" cy="142.3" r="5.56" style="fill:#fff"/><circle cx="251.32" cy="142.3" r="5.56" style="fill:#fff"/><path d="M467.59 285.2h-229a7.37 7.37 0 0 1-7.35-7.35v-120h243.7v120a7.37 7.37 0 0 1-7.35 7.35Z" style="fill:#f5f5f5"/><path d="M198.55 175.07a7.37 7.37 0 0 1 7.35-7.35h229a7.37 7.37 0 0 1 7.35 7.35v23.66h-243.7Z" style="fill:#f0f0f0"/><circle cx="257.98" cy="183.23" r="5.56" style="fill:#e6e6e6"/><circle cx="238.28" cy="183.23" r="5.56" style="fill:#e6e6e6"/><circle cx="218.59" cy="183.23" r="5.56" style="fill:#e6e6e6"/><path d="M434.86 326.13h-229a7.37 7.37 0 0 1-7.35-7.35v-120h243.7v120a7.37 7.37 0 0 1-7.35 7.35Z" style="fill:#fafafa"/><path d="M165.82 216a7.37 7.37 0 0 1 7.35-7.35h229a7.37 7.37 0 0 1 7.35 7.35v23.66h-243.7Z" style="fill:#fafafa"/><circle cx="225.25" cy="224.16" r="5.56" style="fill:#f0f0f0"/><circle cx="205.55" cy="224.16" r="5.56" style="fill:#f0f0f0"/><circle cx="185.86" cy="224.16" r="5.56" style="fill:#f0f0f0"/><path d="M402.13 367.06h-229a7.37 7.37 0 0 1-7.35-7.35v-120h243.7v120a7.37 7.37 0 0 1-7.35 7.35Z" style="fill:#e6e6e6"/><ellipse cx="250" cy="416.24" rx="193.89" ry="11.32" style="fill:#f5f5f5"/><path style="fill:#b2299f" d="M182.33 82.5h8.83v1h-8.83zM150.17 82.5h21.67v1h-21.67zM90.33 86h319.34a12 12 0 0 1 12 12v275.72H78.33V98a12 12 0 0 1 12-12Z"/><path style="fill:#fff;opacity:.8" d="M78.33 104h343.33v265.06H78.33z"/><path style="fill:#b2299f;opacity:.4" d="M78.33 104h343.33v58.27H78.33z"/><path style="fill:#b2299f;opacity:.4" d="M400.25 109.57h14.33v14.33h-14.33zM378.99 109.57h14.33v14.33h-14.33zM357.73 109.57h14.33v14.33h-14.33zM128.96 359.5h14.33v1.44h-14.33zM107.7 359.5h14.33v1.44H107.7zM86.44 359.5h14.33v1.44H86.44z"/><path d="M215.69 137.2h-4.37l-.61 2.06h-3.93l4.68-12.47h4.21l4.68 12.47h-4Zm-.8-2.69-1.37-4.51-1.37 4.49ZM221.36 126.79h3.5v4.32a3.33 3.33 0 0 1 1.17-.81 3.84 3.84 0 0 1 1.46-.28 3.54 3.54 0 0 1 2.73 1.19 4.9 4.9 0 0 1 1.08 3.41 6.42 6.42 0 0 1-.49 2.6 3.77 3.77 0 0 1-1.37 1.69 3.5 3.5 0 0 1-1.93.55 3.6 3.6 0 0 1-1.67-.39 4.23 4.23 0 0 1-1.24-1.15v1.34h-3.24Zm3.47 7.93a2.65 2.65 0 0 0 .44 1.69 1.4 1.4 0 0 0 1.11.52 1.28 1.28 0 0 0 1-.52 2.76 2.76 0 0 0 .42-1.73 2.5 2.5 0 0 0-.41-1.57 1.27 1.27 0 0 0-1-.5 1.42 1.42 0 0 0-1.15.52 2.39 2.39 0 0 0-.41 1.59ZM232.53 134.77a4.54 4.54 0 0 1 1.4-3.41 5.22 5.22 0 0 1 3.77-1.36 5.16 5.16 0 0 1 4.09 1.58 4.9 4.9 0 0 1-.26 6.53 5.28 5.28 0 0 1-3.83 1.33 5.41 5.41 0 0 1-3.52-1.1 4.44 4.44 0 0 1-1.65-3.57Zm3.47 0a2.77 2.77 0 0 0 .49 1.79 1.62 1.62 0 0 0 2.46 0 2.82 2.82 0 0 0 .48-1.83A2.67 2.67 0 0 0 239 133a1.53 1.53 0 0 0-1.2-.57 1.55 1.55 0 0 0-1.25.58 2.69 2.69 0 0 0-.55 1.75ZM254.09 139.26h-3.23v-1.46a4.67 4.67 0 0 1-1.46 1.28 3.82 3.82 0 0 1-1.81.38 2.94 2.94 0 0 1-2.24-.85 3.71 3.71 0 0 1-.81-2.63v-5.75H248v5a1.83 1.83 0 0 0 .31 1.21 1.12 1.12 0 0 0 .89.36 1.25 1.25 0 0 0 1-.48 2.68 2.68 0 0 0 .4-1.71v-4.34h3.46ZM260.37 126.79v3.44h1.9v2.53h-1.9V136a1.67 1.67 0 0 0 .11.77.62.62 0 0 0 .59.28 3.66 3.66 0 0 0 1.07-.22l.26 2.39a11.14 11.14 0 0 1-2.4.28 4.14 4.14 0 0 1-1.9-.33 2 2 0 0 1-.91-1 5.85 5.85 0 0 1-.29-2.19v-3.18h-1.28v-2.53h1.28v-1.66ZM278.07 126.79h3.84v7.43a6.27 6.27 0 0 1-.34 2.09 4.52 4.52 0 0 1-1.08 1.71 4.42 4.42 0 0 1-1.54 1 8 8 0 0 1-2.7.41 16 16 0 0 1-2-.13 5.12 5.12 0 0 1-1.79-.5 4.34 4.34 0 0 1-1.33-1.08 3.94 3.94 0 0 1-.82-1.43 7.41 7.41 0 0 1-.35-2.11v-7.43h3.84v7.61a2.19 2.19 0 0 0 .56 1.59 2.12 2.12 0 0 0 1.57.57 2.07 2.07 0 0 0 1.56-.56 2.16 2.16 0 0 0 .57-1.6ZM283.62 136.75l3.44-.32a1.66 1.66 0 0 0 .59.87 1.76 1.76 0 0 0 1 .27 1.69 1.69 0 0 0 1.08-.3.66.66 0 0 0 .3-.55.64.64 0 0 0-.39-.58 7.37 7.37 0 0 0-1.49-.36 15.22 15.22 0 0 1-2.5-.58 2.66 2.66 0 0 1-1.18-.9 2.32 2.32 0 0 1-.49-1.46 2.4 2.4 0 0 1 .52-1.53 3.22 3.22 0 0 1 1.43-1 7.67 7.67 0 0 1 2.44-.32 8.65 8.65 0 0 1 2.39.25 3.12 3.12 0 0 1 1.28.77 4 4 0 0 1 .86 1.4l-3.29.32a1.1 1.1 0 0 0-.42-.64 1.74 1.74 0 0 0-1-.27 1.38 1.38 0 0 0-.85.21.63.63 0 0 0-.27.51.54.54 0 0 0 .34.5 5.71 5.71 0 0 0 1.48.3 9.76 9.76 0 0 1 2.57.55 2.84 2.84 0 0 1 1.29 1 2.48 2.48 0 0 1 .44 1.42 2.82 2.82 0 0 1-.47 1.52 3.24 3.24 0 0 1-1.49 1.18 7.21 7.21 0 0 1-2.77.43 6.57 6.57 0 0 1-3.52-.7 3.18 3.18 0 0 1-1.32-1.99Z" style="fill:#fff"/><circle cx="149.18" cy="225.12" r="50" style="fill:#b2299f"/><circle cx="149.18" cy="225.12" r="47.37" transform="rotate(-45 149.177 225.119)" style="fill:#fff"/><g style="clip-path:url(#a)"><path d="m151.6 235 4-8.32s20.88 6.6 24 8.13c-.08-5.22 2.58-15 2.87-20.36.79-.75 2.7-2.64 3.69-2.57 3 7 2.35 31-3.55 31.43-9.43.6-31.01-8.31-31.01-8.31Z" style="fill:#b55b52"/><path d="M149 233.7c2.41 5.65 22.2 10.68 22.2 10.68l4-12.16s-7.54-5.72-15.37-7.57c-8.01-1.91-13.49 2.85-10.83 9.05Z" style="fill:#b2299f"/><path d="M149.35 234.36c2.35 3.55 11.09 6.77 16.78 8.56-3.79-7.36-8.9-11.42-16.78-8.56Z" style="opacity:.2"/><path d="m182.45 215.51-3.19-4.09 5.9-3.29a10.32 10.32 0 0 1 1.71 5.93Z" style="fill:#b55b52"/><path style="fill:#b55b52" d="m178.39 205.76 5.75-.93 1.02 3.3-5.9 3.29-.87-5.66z"/><path d="M160.31 225.06s8.06 19.4 1.74 55.55h-31.5c-.37-5.28 2.32-31-3.38-55.88a87.92 87.92 0 0 1 11.47-1.46 127.07 127.07 0 0 1 14.61 0c5.1.47 7.06 1.79 7.06 1.79Z" style="fill:#b2299f"/><path d="M134.78 230.86c.68 4.1-.37 13.89-4 25.2a165.59 165.59 0 0 0-3.08-28.86c2.3-.28 6.44-.2 7.08 3.66Z" style="opacity:.2"/><path d="M140.21 209.61c1 4.7 1.64 10.53-1.57 13.66 0 0 2 4.77 10.74 4.77 8 0 3.87-4.77 3.87-4.77-5.27-1.25-5.16-7.73-4.33-11.39Z" style="fill:#b55b52"/><path d="m149.79 227.66 1.9 2.1a.57.57 0 0 1 .12.54l-.61 1.85a.53.53 0 0 1-.48.36l-2 .1a.54.54 0 0 1-.49-.25l-1.23-1.79a.56.56 0 0 1 0-.67l2-2.24a.56.56 0 0 1 .79 0Z" style="fill:#fff"/><path d="M149.38 227.2a11.06 11.06 0 0 0-1.56 5.36s-11-3.86-10.67-9.52c0 0 1.53-.92 2.5-1.67 0 0 .46 3.57 9.73 5.83ZM149.38 227.2a15.66 15.66 0 0 1 2.25 5s4.88-3.36 3.25-8.95a19.66 19.66 0 0 0-2.82-.89s.74 3.64-2.68 4.84Z" style="fill:#263238"/><path d="M150.27 232.22s3.13 23 3.2 27a38.82 38.82 0 0 1-1.77 11.16s-2.15-4.07-2.52-11.33.08-22.76-.08-26.84Z" style="fill:#fff"/><path d="M148.92 211.89a14.15 14.15 0 0 0 .22 7.72 8.57 8.57 0 0 1-2.35-.72c-3-1.4-4.51-3.59-6.1-6.84-.14-.84-.3-1.65-.47-2.44Z" style="opacity:.2"/><path d="M157.21 208.59a5.86 5.86 0 0 1-3.5 2.95c-2 .59-3.09-1.24-2.59-3.19.46-1.76 2-4.18 4.1-3.93a2.79 2.79 0 0 1 1.99 4.17Z" style="fill:#b55b52"/><path d="M157.21 208.59a5.86 5.86 0 0 1-3.5 2.95c-2 .59-3.09-1.24-2.59-3.19.46-1.76 2-4.18 4.1-3.93a2.79 2.79 0 0 1 1.99 4.17Z" style="opacity:.2"/><path d="M151.41 204.52c2 1.83 5.65-8.21 1.56-11s-5.52 1-5.45 3.31.87 4.98 3.89 7.69Z" style="fill:#263238"/><path d="M137.75 202.83c.94 6.36 1.17 10.13 4.64 13.2 5.21 4.61 12.74 1.15 13.69-5.33.86-5.84-.82-15.27-7.21-17.4a8.51 8.51 0 0 0-11.12 9.53Z" style="fill:#b55b52"/><path d="M137.35 208.23c1.1.71 2.61 2.63 4.88-.77 0-.88-2.23-2.36-2.4-4.44-.2-2.42-.73-5-2.69-5.85-4.47-2-5.29 1.84-4.85 4.14s1.65 4.69 5.06 6.92Z" style="fill:#263238"/><path d="M136.75 199.41c10.55-1.64 16.78-2 19.95-5.95s-1.7-8.84-7-9.4c-.38 2.06-5.75 7.48-14 9.83a2.48 2.48 0 0 0-.71 4.46c1.01.65 1.76 1.06 1.76 1.06Z" style="fill:#263238"/><path d="M135.52 210.07a6.15 6.15 0 0 0 4 2.43c2.09.32 2.84-1.63 2-3.49-.75-1.68-2.74-3.86-4.72-3.33s-2.45 2.78-1.28 4.39Z" style="fill:#b55b52"/><path d="M147.46 204c0 .52.36.93.69.9s.57-.46.53-1-.35-.92-.69-.9-.57.44-.53 1ZM153.26 203.57c.05.52.36.92.69.9s.57-.46.53-1-.36-.93-.69-.9-.57.48-.53 1Z" style="fill:#263238"/><path d="M151.44 204a19.24 19.24 0 0 0 2.84 4.29 2.9 2.9 0 0 1-2.41.63Z" style="fill:#a02724"/><path d="M150.5 210.41a.14.14 0 0 0 .13-.16.15.15 0 0 0-.16-.14 4.13 4.13 0 0 1-3.45-1.39.15.15 0 1 0-.24.18 4.36 4.36 0 0 0 3.72 1.51ZM145.55 202.18a.28.28 0 0 0 .23-.13 2.35 2.35 0 0 1 1.84-1.16.29.29 0 0 0 .3-.3.31.31 0 0 0-.31-.31 2.91 2.91 0 0 0-2.34 1.43.3.3 0 0 0 .1.42.24.24 0 0 0 .18.05ZM155.69 201.31l.12-.05a.3.3 0 0 0 .08-.43 3.06 3.06 0 0 0-2.4-1.42.3.3 0 0 0-.3.31.31.31 0 0 0 .31.3 2.43 2.43 0 0 1 1.89 1.15.34.34 0 0 0 .3.14Z" style="fill:#263238"/><path d="m123.55 233.26 8.1 4.76s-10.22 20-9.11 23.12c1.51 4.2 3.8 13.43 6.48 18-.26 1-1.76 3.43-2.64 3.88-6.44-4.32-13.49-18.47-13.47-22.51.09-9.17 10.64-27.25 10.64-27.25Z" style="fill:#b55b52"/><path d="M127.17 224.73c-6.06.88-12.51 22-12.51 22L129 251.3a115.8 115.8 0 0 0 6.63-14.87c2.66-7.8-1.96-12.65-8.46-11.7Z" style="fill:#b2299f"/><path d="m127.55 278.34 6.11-.44-3.08 6.74s-5.36.21-6.34-3.88ZM138.7 281l-3.1 5.97-5.02-2.33 3.08-6.74 5.04 3.1z" style="fill:#b55b52"/></g><circle cx="350.82" cy="309.44" r="50" style="fill:#b2299f"/><circle cx="350.82" cy="309.44" r="47.37" style="fill:#fff"/><g style="clip-path:url(#b)"><path d="M348.64 273.44c-7.11-.64-11.54 10.3-10.06 27 9 5.11 19.31 0 27.56 4.11 7.63-11.67 5.6-37.99-17.5-31.11Z" style="fill:#263238"/><path d="M337.54 321.78a53.21 53.21 0 0 1-4.29 10.94 24.48 24.48 0 0 1-3.66 5.25 12 12 0 0 1-1.37 1.26 6.2 6.2 0 0 1-2.67 1.35 4.72 4.72 0 0 1-2.29-.1 4.83 4.83 0 0 1-1.79-1 6.68 6.68 0 0 1-1.56-2.09 14.77 14.77 0 0 1-1.09-3.33 27.27 27.27 0 0 1-.48-3c-.22-2-.32-3.86-.35-5.76a93.93 93.93 0 0 1 .51-11.25l3.68.07c.32 3.6.69 7.24 1.16 10.78.25 1.77.53 3.53.89 5.21.18.83.39 1.65.61 2.4a8.28 8.28 0 0 0 .77 1.86c.11.18.25.28.08.09a1.69 1.69 0 0 0-.59-.33 2 2 0 0 0-.93-.06c-.45.08-.48.21-.3 0a7.22 7.22 0 0 0 .59-.68 21.41 21.41 0 0 0 2.31-4 48.74 48.74 0 0 0 1.94-4.73c.6-1.61 1.16-3.34 1.65-4.9Z" style="fill:#ffb573"/><path d="M332.6 312.15c-3 .77-5.1 13.11-5.1 13.11l11.47 7.8s4.72-14.63 2.41-17.93-4.38-4.13-8.78-2.98Z" style="fill:#263238"/><path style="opacity:.2" d="m332.87 314.91-2.31 12.44 4.65 3.15-2.34-15.59z"/><path d="m322.34 315.15 1.52-7.67-6.1 1.77s-.6 5.31 1.86 7.06Z" style="fill:#ffb573"/><path style="fill:#ffb573" d="m323.25 304.11-5.04 2.09-.45 3.05 6.1-1.77-.61-3.37z"/><path d="M332.6 312.15s-3.47 1.23 3.48 43.93h29.55c-.49-12-.51-19.45 5.24-44.14a88 88 0 0 0-12.55-1.65 93.82 93.82 0 0 0-13.42 0c-5.76.53-12.3 1.86-12.3 1.86Z" style="fill:#263238"/><path d="M368.44 321.72c-2.68.66-5.16 3.59-4.86 9a13 13 0 0 0 2.47 6.78c.47-4.14 1.26-8.95 2.52-15.09Z" style="opacity:.2"/><path d="M346.46 319.76s4.84 4 4.84 8.23c4-2.95 9.45-11 10-16.11a1.54 1.54 0 0 0-1.46-1.68 8.79 8.79 0 0 1-1.08-.14 1 1 0 0 0-.86.22ZM346.46 319.76a12.24 12.24 0 0 0-4.85 8.23c-4.08-3-2.39-12.23-.12-16.59a2.34 2.34 0 0 1 1.82-1.24c.59-.07 1.05-.15 1.35-.21a.4.4 0 0 1 .48.34Z" style="fill:#fafafa"/><path d="M357 295.18c-.84 4.32-1.69 12.23 1.33 15.11a37.91 37.91 0 0 1-11.86 9.47c-6-4.79-1.56-9.47-1.56-9.47 4.82-1.15 4.69-4.72 3.85-8.08Z" style="fill:#ffb573"/><path d="m353.63 298.05-4.87 4.16a14.29 14.29 0 0 1 .41 2.38c1.84-.26 4.73-1.83 5.13-3.83a5.67 5.67 0 0 0-.67-2.71Z" style="opacity:.2"/><path d="M364.23 288.24c-2 6.94-2.69 9.92-7.05 12.75-6.55 4.24-14.64.27-14.76-7.13-.11-6.66 3.18-16.89 10.69-18.16a9.85 9.85 0 0 1 11.12 12.54Z" style="fill:#ffb573"/><path d="M358.9 281.77c1.22 6.93 1.69 9.61 4.14 11.4s4.73-6.43 2.92-9.59-7.06-1.81-7.06-1.81Z" style="fill:#263238"/><path d="M347.38 275.27c-1.47 1.74 1.55 5.38 4.48 6.57a5 5 0 0 1-.39-1.2 19.67 19.67 0 0 0 7 3 2.75 2.75 0 0 1-.55-1.23c0-.34 7.22 4.44 8.27 1s-2.53-7.94-8-9.38c-4.66-1.17-9-.91-10.81 1.24ZM352.59 287.62c-.12.57-.53 1-.91.88s-.57-.61-.44-1.19.53-1 .91-.88.57.57.44 1.19ZM346.12 286.18c-.13.57-.54 1-.91.88s-.58-.61-.45-1.19.53-1 .91-.88.57.61.45 1.19Z" style="fill:#263238"/><path d="m345.83 285.06-1.29-.71s.46 1.23 1.29.71Z" style="fill:#263238"/><path d="M347.88 287.65a15.7 15.7 0 0 1-2.85 3.2 2.51 2.51 0 0 0 2 .84Z" style="fill:#ed893e"/><path d="M349.61 294.63a7.09 7.09 0 0 1-.86-.12.18.18 0 0 1-.13-.21.17.17 0 0 1 .21-.13 4.66 4.66 0 0 0 4.09-.95.18.18 0 0 1 .25 0 .18.18 0 0 1 0 .24 4.87 4.87 0 0 1-3.56 1.17Z" style="fill:#263238"/><path d="M364.69 295.17a5.27 5.27 0 0 1-3.36 2.21c-1.82.34-2.57-1.33-1.92-3 .58-1.47 2.22-3.41 4-3a2.37 2.37 0 0 1 1.28 3.79Z" style="fill:#ffb573"/><path d="M355.77 286.36a.33.33 0 0 1-.29-.28 4.1 4.1 0 0 0-2.16-2.46.35.35 0 1 1 .29-.63 4.74 4.74 0 0 1 2.54 3 .35.35 0 0 1-.27.4ZM344.84 281.59a.36.36 0 0 1-.31-.16.35.35 0 0 1 .1-.48 3.43 3.43 0 0 1 3.12-.4.34.34 0 0 1 .18.46.34.34 0 0 1-.45.17 2.78 2.78 0 0 0-2.47.35.35.35 0 0 1-.17.06ZM352.3 286.5l-1.28-.71s.46 1.21 1.28.71Z" style="fill:#263238"/><path d="m366.08 354.35.75 2.64c.11.21-.14.42-.48.42h-30.42c-.27 0-.49-.14-.5-.3l-.27-2.65c0-.18.21-.34.5-.34h29.94a.53.53 0 0 1 .48.23Z" style="fill:#b2299f"/><path d="m366.08 354.35.75 2.64c.11.21-.14.42-.48.42h-30.42c-.27 0-.49-.14-.5-.3l-.27-2.65c0-.18.21-.34.5-.34h29.94a.53.53 0 0 1 .48.23Z" style="opacity:.2"/><path d="M362 357.69h.8c.16 0 .28-.08.27-.18l-.38-3.44c0-.1-.15-.18-.31-.18h-.8c-.16 0-.28.08-.27.18l.38 3.44c-.03.1.11.18.31.18Z" style="fill:#b2299f"/><path d="M362 357.69h.8c.16 0 .28-.08.27-.18l-.38-3.44c0-.1-.15-.18-.31-.18h-.8c-.16 0-.28.08-.27.18l.38 3.44c-.03.1.11.18.31.18Z" style="opacity:.4"/><path d="M338.18 357.69h.8c.16 0 .29-.08.28-.18l-.38-3.44c0-.1-.15-.18-.31-.18h-.8c-.16 0-.28.08-.27.18l.37 3.44c.01.1.13.18.31.18Z" style="fill:#b2299f"/><path d="M338.18 357.69h.8c.16 0 .29-.08.28-.18l-.38-3.44c0-.1-.15-.18-.31-.18h-.8c-.16 0-.28.08-.27.18l.37 3.44c.01.1.13.18.31.18Z" style="opacity:.4"/><path d="M350 357.69h.8c.16 0 .28-.08.27-.18l-.37-3.44c0-.1-.15-.18-.31-.18h-.8c-.16 0-.29.08-.28.18l.38 3.44c.03.1.17.18.31.18Z" style="fill:#b2299f"/><path d="M350 357.69h.8c.16 0 .28-.08.27-.18l-.37-3.44c0-.1-.15-.18-.31-.18h-.8c-.16 0-.29.08-.28.18l.38 3.44c.03.1.17.18.31.18Z" style="opacity:.4"/><path d="m347.87 362-7.17-3.21 2 7.11s4.56 1 6.54-1.25Z" style="fill:#ffb573"/><path d="M374.32 320.71c.33 2.5.59 5 .89 7.5l.76 7.51c.27 2.5.46 5 .68 7.51L377 347l.08.94c0 .1 0 .49.05.76a8.44 8.44 0 0 1 0 .87 7.89 7.89 0 0 1-1 3.05 12.63 12.63 0 0 1-3.38 3.7 26.57 26.57 0 0 1-3.62 2.29 52 52 0 0 1-7.35 3.09 94.53 94.53 0 0 1-15 3.7l-.82-3.59c2.33-.77 4.71-1.56 7-2.44s4.61-1.75 6.82-2.76a53 53 0 0 0 6.32-3.29 21.53 21.53 0 0 0 2.65-1.92 6.42 6.42 0 0 0 1.59-1.91 1.26 1.26 0 0 0 .15-.52l-.17-1.19-.53-3.74c-.35-2.49-.74-5-1-7.48l-.95-7.49c-.27-2.51-.59-5-.82-7.51Z" style="fill:#ffb573"/><path d="M370.87 311.94c3 .9 6.52 11.1 6.52 11.1L367 333.71s-5.32-11-4.07-14.79c1.32-3.99 4.56-8 7.94-6.98Z" style="fill:#263238"/><path style="fill:#ffb573" d="m334.76 360.25 2.03 5.86 5.95-.23-2.05-7.11-5.93 1.48z"/></g><path d="M346.49 220.34h-131.3a4.34 4.34 0 0 1-4.34-4.34 4.33 4.33 0 0 1 4.34-4.33h131.3a4.33 4.33 0 0 1 4.33 4.33 4.33 4.33 0 0 1-4.33 4.34ZM316 238.57H215.19a4.33 4.33 0 0 1-4.34-4.33 4.34 4.34 0 0 1 4.34-4.34H316a4.34 4.34 0 0 1 4.34 4.34 4.33 4.33 0 0 1-4.34 4.33ZM234.72 304.66h50.09a4.34 4.34 0 0 0 4.34-4.34 4.33 4.33 0 0 0-4.34-4.33h-50.09a4.33 4.33 0 0 0-4.33 4.33 4.33 4.33 0 0 0 4.33 4.34ZM179.06 304.66h34.56a4.33 4.33 0 0 0 4.33-4.34 4.33 4.33 0 0 0-4.33-4.33h-34.56a4.33 4.33 0 0 0-4.33 4.33 4.33 4.33 0 0 0 4.33 4.34ZM153.51 322.89h131.3a4.33 4.33 0 0 0 4.34-4.33 4.34 4.34 0 0 0-4.34-4.34h-131.3a4.33 4.33 0 0 0-4.33 4.34 4.33 4.33 0 0 0 4.33 4.33ZM99.83 95a4.17 4.17 0 1 1-4.16-4.17A4.17 4.17 0 0 1 99.83 95Z" style="fill:#fff"/><circle cx="109.84" cy="95" r="4.17" style="fill:#fff"/><circle cx="124.01" cy="95" r="4.17" style="fill:#fff"/></svg>