<svg xmlns="http://www.w3.org/2000/svg" xmlns:xlink="http://www.w3.org/1999/xlink" viewBox="0 0 400 400"><defs><style>.a{fill:url(#a);}.b{fill:#137fcf;}.c{fill:#288ed9;}.ab,.ac,.d,.e,.h,.j{fill:none;}.e,.h{stroke:#288ed9;}.ab,.ac,.e{stroke-width:0.34px;}.f{fill:url(#b);}.g{opacity:0.64;fill:url(#c);}.ab,.ac,.g,.n,.s,.t,.u,.w{isolation:isolate;}.h,.j{stroke-linecap:round;stroke-miterlimit:10;stroke-width:1.36px;}.i{fill:#005b9f;}.j{stroke:#014374;}.k{fill:#003c69;}.l{fill:url(#d);}.m,.w{fill:#004b83;}.n{fill:#0e71bb;opacity:0.19;}.o{fill:#ffbc98;}.p{fill:#d6eeff;}.q{fill:#21e2e2;}.r{fill:#ffb68f;}.s{opacity:0.03;fill:url(#e);}.t{opacity:0.05;fill:url(#f);}.u{opacity:0.1;fill:url(#g);}.v{fill:url(#h);}.w{opacity:0.86;}.x{fill:url(#i);}.y{fill:url(#j);}.z{fill:#fff;}.aa{fill:url(#k);}.ab{stroke:#f7f7f7;}.ab,.ac{opacity:0.23;}.ac{stroke:#fff;}</style><linearGradient id="a" x1="1.19" y1="400.31" x2="1.18" y2="400.98" gradientTransform="matrix(740.56, 0, 0, -612.51, -676.44, 245617.49)" gradientUnits="userSpaceOnUse"><stop offset="0" stop-color="#c6e6ff"/><stop offset="1" stop-color="#fff"/></linearGradient><linearGradient id="b" x1="0.98" y1="404.55" x2="0.98" y2="403.5" gradientTransform="matrix(447, 0, 0, -64, -236.26, 26151.44)" gradientUnits="userSpaceOnUse"><stop offset="0" stop-color="#288ed9"/><stop offset="1" stop-color="#137fcf" stop-opacity="0.05"/></linearGradient><linearGradient id="c" x1="-1.76" y1="413.79" x2="-1.76" y2="414.31" gradientTransform="matrix(90.46, 0, 0, -16.56, 430.24, 7185.08)" gradientUnits="userSpaceOnUse"><stop offset="0" stop-color="#288ed9" stop-opacity="0"/><stop offset="1" stop-color="#005b9f"/></linearGradient><linearGradient id="d" x1="-3.89" y1="400.73" x2="-3.36" y2="400.73" gradientTransform="matrix(53, 0, 0, -441, 438.74, 176915.44)" gradientUnits="userSpaceOnUse"><stop offset="0" stop-color="#0563a8"/><stop offset="1" stop-color="#0061aa"/></linearGradient><linearGradient id="e" x1="0.32" y1="401" x2="0.32" y2="400.48" gradientTransform="matrix(204.44, 0, 0, -293.33, 149.52, 117709.09)" gradientUnits="userSpaceOnUse"><stop offset="0" stop-color="#f7f7f7"/><stop offset="1" stop-color="#fff" stop-opacity="0"/></linearGradient><linearGradient id="f" x1="0.44" y1="401" x2="0.44" y2="400.48" gradientTransform="matrix(223.06, 0, 0, -277.34, 108.62, 111297.5)" xlink:href="#e"/><linearGradient id="g" x1="0.23" y1="401" x2="0.23" y2="400.48" gradientTransform="matrix(191.43, 0, 0, -198.45, 169.84, 79660.09)" xlink:href="#e"/><linearGradient id="h" x1="0.5" y1="400.95" x2="0.5" y2="400.43" gradientTransform="matrix(233.23, 0, 0, -502, 88.51, 201335.44)" gradientUnits="userSpaceOnUse"><stop offset="0" stop-color="#1882d1"/><stop offset="1" stop-color="#0d70b9"/></linearGradient><linearGradient id="i" x1="-5.72" y1="401.06" x2="-5.44" y2="400.51" gradientTransform="matrix(71.35, 13.87, 33.23, -170.93, -12854.49, 68835.54)" gradientUnits="userSpaceOnUse"><stop offset="0" stop-color="#50abef"/><stop offset="1" stop-color="#1175bf"/></linearGradient><linearGradient id="j" x1="-4.54" y1="401.83" x2="-5.03" y2="401.37" gradientTransform="matrix(83.03, 0, 0, -162.7, 481.35, 65611.05)" gradientUnits="userSpaceOnUse"><stop offset="0" stop-color="#ffbc98"/><stop offset="1" stop-color="#ff945a"/></linearGradient><linearGradient id="k" x1="-6.1" y1="403.49" x2="-5.63" y2="403.49" gradientTransform="matrix(67.91, 0, 0, -69.54, 464.83, 28369.64)" gradientUnits="userSpaceOnUse"><stop offset="0" stop-color="#21e2e2"/><stop offset="1" stop-color="#19dbdb"/></linearGradient></defs><title>what-is-host</title><path class="a" d="M203.7,72.8c63.1,40.3,135.5,58.5,135.5,58.5s79.6,12.1,50.3,102.8-33.1,123.2-79,125.5c-43.6,1.2-68-16.7-111.1-13.6-37.9,2.9-63.9,19.9-127.2-5C-29.2,296.2-21.6-69.3,203.7,72.8Z"/><rect class="b" x="91.4" y="262.1" width="17.2" height="17.24" rx="2.6"/><path class="c" d="M100.3,266.8a4.2,4.2,0,0,1,4.2,4.2,4.2,4.2,0,0,1-8.4,0A4.2,4.2,0,0,1,100.3,266.8Z"/><circle class="d" cx="100.3" cy="271" r="5.7"/><circle class="e" cx="100.3" cy="271" r="5.5"/><ellipse class="f" cx="202.8" cy="310.6" rx="116.6" ry="16.7"/><ellipse class="g" cx="271.5" cy="327.6" rx="23.6" ry="4.3"/><path class="h" d="M156.3,253.2H124.4c-4.3,0-6.3,2.4-6.2,6.6,0,1.1.1,18.7.1,22.1s-2.6,5.4-6.9,5.4h-6c-3.2,0-5.2-2.2-5.2-4.6v-7.9"/><rect class="i" x="131.6" y="57.1" width="134" height="261.81" rx="10.4"/><path class="j" d="M199.9,72.8V90.6c0,3.8-1.9,5.6-5.4,5.5h-5.3c-3.4,0-4.4,2.2-4.4,6v1.7"/><path class="j" d="M205.5,78v7.7c0,3.8-2,5.5-5.5,5.4h-5.2c-3.4,0-4.4,2.3-4.4,6v6.6"/><path class="j" d="M190.6,72.5V85.8c0,3.7-1.9,5.5-5.4,5.4h-5.3c-3.4,0-4.4,2.3-4.4,6v6.6"/><path class="j" d="M159.3,70.4h35.2c3.8,0,5.5,1.9,5.5,5.4,0,.9-.1,2.5-.1,5.3"/><path class="j" d="M205.6,80.1c0-2.8,0-4.3-.1-5.3-.2-3.5,1.6-5.4,5.4-5.4H240"/><path class="j" d="M227.4,69.4v70.5c0,3.7-1.9,5.5-5.4,5.4h-5.3c-3.4,0-4.5,2.3-4.5,6v1.7"/><path class="j" d="M222.2,69.4V92.3c0,3.7-1.9,5.5-5.4,5.4h-5.3c-3.4,0-4.5,2.3-4.5,6v6.6"/><path class="j" d="M217.1,71.7v87.9c0,3.7-1.9,5.5-5.3,5.4h-5.3c-3.5,0-4.5,2.3-4.5,6v38.2"/><rect class="k" x="159.2" y="116.1" width="73.5" height="165.85"/><rect class="l" x="232.8" y="78.5" width="27.6" height="230"/><path class="m" d="M165.8,201.8h72.3a1.9,1.9,0,0,1,1.8,1.9v14.5a1.8,1.8,0,0,1-1.8,1.9H165.8a1.9,1.9,0,0,1-1.9-1.9V203.7A2,2,0,0,1,165.8,201.8Z"/><path class="n" d="M166,201.8h21.4v18.3H166a2.6,2.6,0,0,1-2.6-2.6V204.4A2.6,2.6,0,0,1,166,201.8Z"/><rect class="o" x="170.3" y="208.2" width="5.7" height="5.96" rx="2.9"/><path class="p" d="M195.8,208.2h0a.9.9,0,0,1,.9.9h0a.9.9,0,0,1-.9.9h0a.9.9,0,0,1-.9-.9h0A.9.9,0,0,1,195.8,208.2Z"/><path class="p" d="M198,211.9h0a1,1,0,0,1,1,.9h0a1.1,1.1,0,0,1-1,1h0a1,1,0,0,1-.9-1h0A.9.9,0,0,1,198,211.9Z"/><path class="c" d="M214.4,208.2h0a1,1,0,0,1,1,.9h0a1,1,0,0,1-1,.9h0a.9.9,0,0,1-.9-.9h0A.9.9,0,0,1,214.4,208.2Z"/><path class="c" d="M216.7,211.9h0a.9.9,0,0,1,.9.9h0a1,1,0,0,1-.9,1h0a1,1,0,0,1-1-1h0A.9.9,0,0,1,216.7,211.9Z"/><path class="c" d="M199.5,208.2h0a1,1,0,0,1,1,.9h0a1,1,0,0,1-1,.9h0a.9.9,0,0,1-.9-.9h0A.9.9,0,0,1,199.5,208.2Z"/><path class="c" d="M201.8,211.9h0a.9.9,0,0,1,.9.9h0a1,1,0,0,1-.9,1h0a1,1,0,0,1-1-1h0A.9.9,0,0,1,201.8,211.9Z"/><path class="c" d="M218.1,208.2h0a.9.9,0,0,1,1,.9h0a.9.9,0,0,1-1,.9h0a.9.9,0,0,1-.9-.9h0A.9.9,0,0,1,218.1,208.2Z"/><path class="c" d="M220.4,211.9h0a.9.9,0,0,1,.9.9h0a1,1,0,0,1-.9,1h0a1.1,1.1,0,0,1-1-1h0A1,1,0,0,1,220.4,211.9Z"/><path class="c" d="M203.2,208.2h0a.9.9,0,0,1,1,.9h0a.9.9,0,0,1-1,.9h0a.9.9,0,0,1-.9-.9h0A.9.9,0,0,1,203.2,208.2Z"/><path class="c" d="M205.5,211.9h0a.9.9,0,0,1,.9.9h0a1,1,0,0,1-.9,1h0a1.1,1.1,0,0,1-1-1h0A1,1,0,0,1,205.5,211.9Z"/><path class="p" d="M221.9,208.2h0a.9.9,0,0,1,.9.9h0a.9.9,0,0,1-.9.9h0a1,1,0,0,1-1-.9h0A1,1,0,0,1,221.9,208.2Z"/><path class="p" d="M224.1,211.9h0a.9.9,0,0,1,.9.9h0a1,1,0,0,1-.9,1h0a1,1,0,0,1-.9-1h0A.9.9,0,0,1,224.1,211.9Z"/><path class="c" d="M207,208.2h0a.9.9,0,0,1,.9.9h0a.9.9,0,0,1-.9.9h0a1,1,0,0,1-1-.9h0A1,1,0,0,1,207,208.2Z"/><path class="p" d="M209.2,211.9h0a.9.9,0,0,1,.9.9h0a1,1,0,0,1-.9,1h0a1,1,0,0,1-.9-1h0A.9.9,0,0,1,209.2,211.9Z"/><path class="c" d="M225.6,208.2h0a.9.9,0,0,1,.9.9h0a.9.9,0,0,1-.9.9h0a.9.9,0,0,1-.9-.9h0A.9.9,0,0,1,225.6,208.2Z"/><path class="c" d="M227.8,211.9h0a1,1,0,0,1,1,.9h0a1.1,1.1,0,0,1-1,1h0a1,1,0,0,1-.9-1h0A.9.9,0,0,1,227.8,211.9Z"/><path class="c" d="M210.7,208.2h0a.9.9,0,0,1,.9.9h0a.9.9,0,0,1-.9.9h0a.9.9,0,0,1-.9-.9h0A.9.9,0,0,1,210.7,208.2Z"/><path class="c" d="M212.9,211.9h0a1,1,0,0,1,1,.9h0a1.1,1.1,0,0,1-1,1h0a1,1,0,0,1-.9-1h0A.9.9,0,0,1,212.9,211.9Z"/><path class="c" d="M229.3,208.2h0a1,1,0,0,1,1,.9h0a1,1,0,0,1-1,.9h0a.9.9,0,0,1-.9-.9h0A.9.9,0,0,1,229.3,208.2Z"/><path class="c" d="M231.6,211.9h0a.9.9,0,0,1,.9.9h0a1,1,0,0,1-.9,1h0a1,1,0,0,1-1-1h0A.9.9,0,0,1,231.6,211.9Z"/><rect class="q" x="178.6" y="208.2" width="5.7" height="5.96" rx="2.9"/><path class="m" d="M165.8,102.1h72.3a1.9,1.9,0,0,1,1.8,1.9v14.5a1.8,1.8,0,0,1-1.8,1.9H165.8a1.9,1.9,0,0,1-1.9-1.9V104A2,2,0,0,1,165.8,102.1Z"/><path class="n" d="M166,102.1h21.4v18.3H166a2.6,2.6,0,0,1-2.6-2.6V104.7A2.6,2.6,0,0,1,166,102.1Z"/><rect class="o" x="170.3" y="108.5" width="5.7" height="5.96" rx="2.9"/><path class="c" d="M195.8,108.5h0a.9.9,0,0,1,.9.9h0a.9.9,0,0,1-.9.9h0a.9.9,0,0,1-.9-.9h0A.9.9,0,0,1,195.8,108.5Z"/><path class="c" d="M198,112.2h0a1,1,0,0,1,1,.9h0a1.1,1.1,0,0,1-1,1h0a1,1,0,0,1-.9-1h0A.9.9,0,0,1,198,112.2Z"/><path class="c" d="M214.4,108.5h0a1,1,0,0,1,1,.9h0a1,1,0,0,1-1,.9h0a.9.9,0,0,1-.9-.9h0A.9.9,0,0,1,214.4,108.5Z"/><path class="p" d="M216.7,112.2h0a.9.9,0,0,1,.9.9h0a1,1,0,0,1-.9,1h0a1,1,0,0,1-1-1h0A.9.9,0,0,1,216.7,112.2Z"/><path class="p" d="M199.5,108.5h0a1,1,0,0,1,1,.9h0a1,1,0,0,1-1,.9h0a.9.9,0,0,1-.9-.9h0A.9.9,0,0,1,199.5,108.5Z"/><path class="c" d="M201.8,112.2h0a.9.9,0,0,1,.9.9h0a1,1,0,0,1-.9,1h0a1,1,0,0,1-1-1h0A.9.9,0,0,1,201.8,112.2Z"/><path class="c" d="M218.1,108.5h0a.9.9,0,0,1,1,.9h0a.9.9,0,0,1-1,.9h0a.9.9,0,0,1-.9-.9h0A.9.9,0,0,1,218.1,108.5Z"/><path class="p" d="M220.4,112.2h0a.9.9,0,0,1,.9.9h0a1,1,0,0,1-.9,1h0a1.1,1.1,0,0,1-1-1h0A1,1,0,0,1,220.4,112.2Z"/><path class="c" d="M203.2,108.5h0a.9.9,0,0,1,1,.9h0a.9.9,0,0,1-1,.9h0a.9.9,0,0,1-.9-.9h0A.9.9,0,0,1,203.2,108.5Z"/><path class="c" d="M205.5,112.2h0a.9.9,0,0,1,.9.9h0a1,1,0,0,1-.9,1h0a1.1,1.1,0,0,1-1-1h0A1,1,0,0,1,205.5,112.2Z"/><path class="c" d="M221.9,108.5h0a.9.9,0,0,1,.9.9h0a.9.9,0,0,1-.9.9h0a1,1,0,0,1-1-.9h0A1,1,0,0,1,221.9,108.5Z"/><path class="c" d="M224.1,112.2h0a.9.9,0,0,1,.9.9h0a1,1,0,0,1-.9,1h0a1,1,0,0,1-.9-1h0A.9.9,0,0,1,224.1,112.2Z"/><path class="c" d="M207,108.5h0a.9.9,0,0,1,.9.9h0a.9.9,0,0,1-.9.9h0a1,1,0,0,1-1-.9h0A1,1,0,0,1,207,108.5Z"/><path class="c" d="M209.2,112.2h0a.9.9,0,0,1,.9.9h0a1,1,0,0,1-.9,1h0a1,1,0,0,1-.9-1h0A.9.9,0,0,1,209.2,112.2Z"/><path class="c" d="M225.6,108.5h0a.9.9,0,0,1,.9.9h0a.9.9,0,0,1-.9.9h0a.9.9,0,0,1-.9-.9h0A.9.9,0,0,1,225.6,108.5Z"/><path class="p" d="M227.8,112.2h0a1,1,0,0,1,1,.9h0a1.1,1.1,0,0,1-1,1h0a1,1,0,0,1-.9-1h0A.9.9,0,0,1,227.8,112.2Z"/><path class="p" d="M210.7,108.5h0a.9.9,0,0,1,.9.9h0a.9.9,0,0,1-.9.9h0a.9.9,0,0,1-.9-.9h0A.9.9,0,0,1,210.7,108.5Z"/><path class="c" d="M212.9,112.2h0a1,1,0,0,1,1,.9h0a1.1,1.1,0,0,1-1,1h0a1,1,0,0,1-.9-1h0A.9.9,0,0,1,212.9,112.2Z"/><path class="c" d="M229.3,108.5h0a1,1,0,0,1,1,.9h0a1,1,0,0,1-1,.9h0a.9.9,0,0,1-.9-.9h0A.9.9,0,0,1,229.3,108.5Z"/><path class="c" d="M231.6,112.2h0a.9.9,0,0,1,.9.9h0a1,1,0,0,1-.9,1h0a1,1,0,0,1-1-1h0A.9.9,0,0,1,231.6,112.2Z"/><rect class="q" x="178.6" y="108.5" width="5.7" height="5.96" rx="2.9"/><path class="m" d="M165.8,226.8h72.3a1.8,1.8,0,0,1,1.8,1.8v14.6a1.8,1.8,0,0,1-1.8,1.8H165.8a1.9,1.9,0,0,1-1.9-1.8V228.6A1.9,1.9,0,0,1,165.8,226.8Z"/><path class="n" d="M166,226.7h21.4V245H166a2.6,2.6,0,0,1-2.6-2.6V229.3A2.6,2.6,0,0,1,166,226.7Z"/><rect class="o" x="170.3" y="233.1" width="5.7" height="5.96" rx="2.9"/><path class="p" d="M195.8,233.1h0a.9.9,0,0,1,.9.9h0a1,1,0,0,1-.9,1h0a1,1,0,0,1-.9-1h0A.9.9,0,0,1,195.8,233.1Z"/><path class="c" d="M198,236.8h0a1,1,0,0,1,1,1h0a1,1,0,0,1-1,.9h0a.9.9,0,0,1-.9-.9h0A.9.9,0,0,1,198,236.8Z"/><path class="c" d="M214.4,233.1h0a1,1,0,0,1,1,.9h0a1.1,1.1,0,0,1-1,1h0a1,1,0,0,1-.9-1h0A.9.9,0,0,1,214.4,233.1Z"/><path class="c" d="M216.7,236.8h0a.9.9,0,0,1,.9,1h0a.9.9,0,0,1-.9.9h0a.9.9,0,0,1-1-.9h0A.9.9,0,0,1,216.7,236.8Z"/><path class="c" d="M199.5,233.1h0a1,1,0,0,1,1,.9h0a1.1,1.1,0,0,1-1,1h0a1,1,0,0,1-.9-1h0A.9.9,0,0,1,199.5,233.1Z"/><path class="c" d="M201.8,236.8h0a.9.9,0,0,1,.9,1h0a.9.9,0,0,1-.9.9h0a.9.9,0,0,1-1-.9h0A.9.9,0,0,1,201.8,236.8Z"/><path class="p" d="M218.1,233.1h0a.9.9,0,0,1,1,.9h0a1,1,0,0,1-1,1h0a1,1,0,0,1-.9-1h0A.9.9,0,0,1,218.1,233.1Z"/><path class="c" d="M220.4,236.8h0a.9.9,0,0,1,.9,1h0a.9.9,0,0,1-.9.9h0a1,1,0,0,1-1-.9h0A1,1,0,0,1,220.4,236.8Z"/><path class="c" d="M203.2,233.1h0a.9.9,0,0,1,1,.9h0a1,1,0,0,1-1,1h0a1,1,0,0,1-.9-1h0A.9.9,0,0,1,203.2,233.1Z"/><path class="c" d="M205.5,236.8h0a.9.9,0,0,1,.9,1h0a.9.9,0,0,1-.9.9h0a1,1,0,0,1-1-.9h0A1,1,0,0,1,205.5,236.8Z"/><path class="c" d="M221.9,233.1h0a.9.9,0,0,1,.9.9h0a1,1,0,0,1-.9,1h0a1.1,1.1,0,0,1-1-1h0A1,1,0,0,1,221.9,233.1Z"/><path class="c" d="M224.1,236.8h0a.9.9,0,0,1,.9,1h0a.9.9,0,0,1-.9.9h0a.9.9,0,0,1-.9-.9h0A.9.9,0,0,1,224.1,236.8Z"/><path class="p" d="M207,233.1h0a.9.9,0,0,1,.9.9h0a1,1,0,0,1-.9,1h0a1.1,1.1,0,0,1-1-1h0A1,1,0,0,1,207,233.1Z"/><path class="c" d="M209.2,236.8h0a.9.9,0,0,1,.9,1h0a.9.9,0,0,1-.9.9h0a.9.9,0,0,1-.9-.9h0A.9.9,0,0,1,209.2,236.8Z"/><path class="c" d="M225.6,233.1h0a.9.9,0,0,1,.9.9h0a1,1,0,0,1-.9,1h0a1,1,0,0,1-.9-1h0A.9.9,0,0,1,225.6,233.1Z"/><path class="p" d="M227.8,236.8h0a1,1,0,0,1,1,1h0a1,1,0,0,1-1,.9h0a.9.9,0,0,1-.9-.9h0A.9.9,0,0,1,227.8,236.8Z"/><path class="c" d="M210.7,233.1h0a.9.9,0,0,1,.9.9h0a1,1,0,0,1-.9,1h0a1,1,0,0,1-.9-1h0A.9.9,0,0,1,210.7,233.1Z"/><path class="c" d="M212.9,236.8h0a1,1,0,0,1,1,1h0a1,1,0,0,1-1,.9h0a.9.9,0,0,1-.9-.9h0A.9.9,0,0,1,212.9,236.8Z"/><path class="c" d="M229.3,233.1h0a1,1,0,0,1,1,.9h0a1.1,1.1,0,0,1-1,1h0a1,1,0,0,1-.9-1h0A.9.9,0,0,1,229.3,233.1Z"/><path class="p" d="M231.6,236.8h0a.9.9,0,0,1,.9,1h0a.9.9,0,0,1-.9.9h0a.9.9,0,0,1-1-.9h0A.9.9,0,0,1,231.6,236.8Z"/><rect class="q" x="178.6" y="233.1" width="5.7" height="5.96" rx="2.9"/><path class="m" d="M165.8,127.1h72.3a1.8,1.8,0,0,1,1.8,1.8v14.6a1.8,1.8,0,0,1-1.8,1.8H165.8a1.9,1.9,0,0,1-1.9-1.8V128.9A1.9,1.9,0,0,1,165.8,127.1Z"/><path class="n" d="M166,127h21.4v18.3H166a2.6,2.6,0,0,1-2.6-2.6v-13A2.7,2.7,0,0,1,166,127Z"/><rect class="o" x="170.3" y="133.4" width="5.7" height="5.96" rx="2.9"/><path class="c" d="M195.8,133.4h0a.9.9,0,0,1,.9.9h0a1,1,0,0,1-.9,1h0a1,1,0,0,1-.9-1h0A.9.9,0,0,1,195.8,133.4Z"/><path class="p" d="M198,137.1h0a1,1,0,0,1,1,1h0a1,1,0,0,1-1,.9h0a.9.9,0,0,1-.9-.9h0A.9.9,0,0,1,198,137.1Z"/><path class="c" d="M214.4,133.4h0a1,1,0,0,1,1,.9h0a1.1,1.1,0,0,1-1,1h0a1,1,0,0,1-.9-1h0A.9.9,0,0,1,214.4,133.4Z"/><path class="c" d="M216.7,137.1h0a.9.9,0,0,1,.9,1h0a.9.9,0,0,1-.9.9h0a.9.9,0,0,1-1-.9h0A.9.9,0,0,1,216.7,137.1Z"/><path class="c" d="M199.5,133.4h0a1,1,0,0,1,1,.9h0a1.1,1.1,0,0,1-1,1h0a1,1,0,0,1-.9-1h0A.9.9,0,0,1,199.5,133.4Z"/><path class="c" d="M201.8,137.1h0a.9.9,0,0,1,.9,1h0a.9.9,0,0,1-.9.9h0a.9.9,0,0,1-1-.9h0A.9.9,0,0,1,201.8,137.1Z"/><path class="c" d="M218.1,133.4h0a.9.9,0,0,1,1,.9h0a1,1,0,0,1-1,1h0a1,1,0,0,1-.9-1h0A.9.9,0,0,1,218.1,133.4Z"/><path class="c" d="M220.4,137.1h0a.9.9,0,0,1,.9,1h0a.9.9,0,0,1-.9.9h0a1,1,0,0,1-1-.9h0A1,1,0,0,1,220.4,137.1Z"/><path class="c" d="M203.2,133.4h0a.9.9,0,0,1,1,.9h0a1,1,0,0,1-1,1h0a1,1,0,0,1-.9-1h0A.9.9,0,0,1,203.2,133.4Z"/><path class="p" d="M205.5,137.1h0a.9.9,0,0,1,.9,1h0a.9.9,0,0,1-.9.9h0a1,1,0,0,1-1-.9h0A1,1,0,0,1,205.5,137.1Z"/><path class="c" d="M221.9,133.4h0a.9.9,0,0,1,.9.9h0a1,1,0,0,1-.9,1h0a1.1,1.1,0,0,1-1-1h0A1,1,0,0,1,221.9,133.4Z"/><path class="c" d="M224.1,137.1h0a.9.9,0,0,1,.9,1h0a.9.9,0,0,1-.9.9h0a.9.9,0,0,1-.9-.9h0A.9.9,0,0,1,224.1,137.1Z"/><path class="c" d="M207,133.4h0a.9.9,0,0,1,.9.9h0a1,1,0,0,1-.9,1h0a1.1,1.1,0,0,1-1-1h0A1,1,0,0,1,207,133.4Z"/><path class="c" d="M209.2,137.1h0a.9.9,0,0,1,.9,1h0a.9.9,0,0,1-.9.9h0a.9.9,0,0,1-.9-.9h0A.9.9,0,0,1,209.2,137.1Z"/><path class="p" d="M225.6,133.4h0a.9.9,0,0,1,.9.9h0a1,1,0,0,1-.9,1h0a1,1,0,0,1-.9-1h0A.9.9,0,0,1,225.6,133.4Z"/><path class="c" d="M227.8,137.1h0a1,1,0,0,1,1,1h0a1,1,0,0,1-1,.9h0a.9.9,0,0,1-.9-.9h0A.9.9,0,0,1,227.8,137.1Z"/><path class="p" d="M210.7,133.4h0a.9.9,0,0,1,.9.9h0a1,1,0,0,1-.9,1h0a1,1,0,0,1-.9-1h0A.9.9,0,0,1,210.7,133.4Z"/><path class="c" d="M212.9,137.1h0a1,1,0,0,1,1,1h0a1,1,0,0,1-1,.9h0a.9.9,0,0,1-.9-.9h0A.9.9,0,0,1,212.9,137.1Z"/><path class="p" d="M229.3,133.4h0a1,1,0,0,1,1,.9h0a1.1,1.1,0,0,1-1,1h0a1,1,0,0,1-.9-1h0A.9.9,0,0,1,229.3,133.4Z"/><path class="c" d="M231.6,137.1h0a.9.9,0,0,1,.9,1h0a.9.9,0,0,1-.9.9h0a.9.9,0,0,1-1-.9h0A.9.9,0,0,1,231.6,137.1Z"/><rect class="q" x="178.6" y="133.4" width="5.7" height="5.96" rx="2.9"/><path class="m" d="M165.8,251.7h72.3a1.8,1.8,0,0,1,1.8,1.8v14.6a1.8,1.8,0,0,1-1.8,1.8H165.8a1.9,1.9,0,0,1-1.9-1.8V253.5A1.9,1.9,0,0,1,165.8,251.7Z"/><path class="n" d="M166,251.7h21.4v18.2H166a2.6,2.6,0,0,1-2.6-2.6v-13A2.6,2.6,0,0,1,166,251.7Z"/><rect class="r" x="170.3" y="258" width="5.7" height="5.96" rx="2.9"/><path class="c" d="M195.8,258h0a.9.9,0,0,1,.9,1h0a.9.9,0,0,1-.9.9h0a.9.9,0,0,1-.9-.9h0A.9.9,0,0,1,195.8,258Z"/><path class="c" d="M198,261.7h0a1.1,1.1,0,0,1,1,1h0a1,1,0,0,1-1,.9h0a.9.9,0,0,1-.9-.9h0A1,1,0,0,1,198,261.7Z"/><path class="c" d="M214.4,258h0a1,1,0,0,1,1,1h0a1,1,0,0,1-1,.9h0a.9.9,0,0,1-.9-.9h0A.9.9,0,0,1,214.4,258Z"/><path class="c" d="M216.7,261.7h0a1,1,0,0,1,.9,1h0a.9.9,0,0,1-.9.9h0a.9.9,0,0,1-1-.9h0A1,1,0,0,1,216.7,261.7Z"/><path class="c" d="M199.5,258h0a1,1,0,0,1,1,1h0a1,1,0,0,1-1,.9h0a.9.9,0,0,1-.9-.9h0A.9.9,0,0,1,199.5,258Z"/><path class="p" d="M201.8,261.7h0a1,1,0,0,1,.9,1h0a.9.9,0,0,1-.9.9h0a.9.9,0,0,1-1-.9h0A1,1,0,0,1,201.8,261.7Z"/><path class="c" d="M218.1,258h0a.9.9,0,0,1,1,1h0a.9.9,0,0,1-1,.9h0a.9.9,0,0,1-.9-.9h0A.9.9,0,0,1,218.1,258Z"/><path class="c" d="M220.4,261.7h0a1,1,0,0,1,.9,1h0a.9.9,0,0,1-.9.9h0a1,1,0,0,1-1-.9h0A1.1,1.1,0,0,1,220.4,261.7Z"/><path class="c" d="M203.2,258h0a.9.9,0,0,1,1,1h0a.9.9,0,0,1-1,.9h0a.9.9,0,0,1-.9-.9h0A.9.9,0,0,1,203.2,258Z"/><path class="p" d="M205.5,261.7h0a1,1,0,0,1,.9,1h0a.9.9,0,0,1-.9.9h0a1,1,0,0,1-1-.9h0A1.1,1.1,0,0,1,205.5,261.7Z"/><path class="c" d="M221.9,258h0a.9.9,0,0,1,.9,1h0a.9.9,0,0,1-.9.9h0a1,1,0,0,1-1-.9h0A1,1,0,0,1,221.9,258Z"/><path class="p" d="M224.1,261.7h0a1,1,0,0,1,.9,1h0a.9.9,0,0,1-.9.9h0a.9.9,0,0,1-.9-.9h0A1,1,0,0,1,224.1,261.7Z"/><path class="c" d="M207,258h0a.9.9,0,0,1,.9,1h0a.9.9,0,0,1-.9.9h0a1,1,0,0,1-1-.9h0A1,1,0,0,1,207,258Z"/><path class="c" d="M209.2,261.7h0a1,1,0,0,1,.9,1h0a.9.9,0,0,1-.9.9h0a.9.9,0,0,1-.9-.9h0A1,1,0,0,1,209.2,261.7Z"/><path class="p" d="M225.6,258h0a.9.9,0,0,1,.9,1h0a.9.9,0,0,1-.9.9h0a.9.9,0,0,1-.9-.9h0A.9.9,0,0,1,225.6,258Z"/><path class="c" d="M227.8,261.7h0a1.1,1.1,0,0,1,1,1h0a1,1,0,0,1-1,.9h0a.9.9,0,0,1-.9-.9h0A1,1,0,0,1,227.8,261.7Z"/><path class="c" d="M210.7,258h0a.9.9,0,0,1,.9,1h0a.9.9,0,0,1-.9.9h0a.9.9,0,0,1-.9-.9h0A.9.9,0,0,1,210.7,258Z"/><path class="p" d="M212.9,261.7h0a1.1,1.1,0,0,1,1,1h0a1,1,0,0,1-1,.9h0a.9.9,0,0,1-.9-.9h0A1,1,0,0,1,212.9,261.7Z"/><path class="c" d="M229.3,258h0a1,1,0,0,1,1,1h0a1,1,0,0,1-1,.9h0a.9.9,0,0,1-.9-.9h0A.9.9,0,0,1,229.3,258Z"/><path class="c" d="M231.6,261.7h0a1,1,0,0,1,.9,1h0a.9.9,0,0,1-.9.9h0a.9.9,0,0,1-1-.9h0A1,1,0,0,1,231.6,261.7Z"/><rect class="q" x="178.6" y="258" width="5.7" height="5.96" rx="2.9"/><path class="m" d="M165.8,152h72.3a1.8,1.8,0,0,1,1.8,1.9v14.5a1.8,1.8,0,0,1-1.8,1.8H165.8a1.9,1.9,0,0,1-1.9-1.8V153.9A1.9,1.9,0,0,1,165.8,152Z"/><path class="n" d="M166,152h21.4v18.2H166a2.6,2.6,0,0,1-2.6-2.6v-13A2.6,2.6,0,0,1,166,152Z"/><rect class="o" x="170.3" y="158.3" width="5.7" height="5.96" rx="2.9"/><path class="c" d="M195.8,158.3h0a.9.9,0,0,1,.9,1h0a.9.9,0,0,1-.9.9h0a.9.9,0,0,1-.9-.9h0A.9.9,0,0,1,195.8,158.3Z"/><path class="c" d="M198,162h0a1.1,1.1,0,0,1,1,1h0a1,1,0,0,1-1,.9h0a.9.9,0,0,1-.9-.9h0A1,1,0,0,1,198,162Z"/><path class="c" d="M214.4,158.3h0a1,1,0,0,1,1,1h0a1,1,0,0,1-1,.9h0a.9.9,0,0,1-.9-.9h0A.9.9,0,0,1,214.4,158.3Z"/><path class="p" d="M216.7,162h0a1,1,0,0,1,.9,1h0a.9.9,0,0,1-.9.9h0a.9.9,0,0,1-1-.9h0A1,1,0,0,1,216.7,162Z"/><path class="c" d="M199.5,158.3h0a1,1,0,0,1,1,1h0a1,1,0,0,1-1,.9h0a.9.9,0,0,1-.9-.9h0A.9.9,0,0,1,199.5,158.3Z"/><path class="c" d="M201.8,162h0a1,1,0,0,1,.9,1h0a.9.9,0,0,1-.9.9h0a.9.9,0,0,1-1-.9h0A1,1,0,0,1,201.8,162Z"/><path class="c" d="M218.1,158.3h0a.9.9,0,0,1,1,1h0a.9.9,0,0,1-1,.9h0a.9.9,0,0,1-.9-.9h0A.9.9,0,0,1,218.1,158.3Z"/><path class="c" d="M220.4,162h0a1,1,0,0,1,.9,1h0a.9.9,0,0,1-.9.9h0a1,1,0,0,1-1-.9h0A1.1,1.1,0,0,1,220.4,162Z"/><path class="p" d="M203.2,158.3h0a.9.9,0,0,1,1,1h0a.9.9,0,0,1-1,.9h0a.9.9,0,0,1-.9-.9h0A.9.9,0,0,1,203.2,158.3Z"/><path class="c" d="M205.5,162h0a1,1,0,0,1,.9,1h0a.9.9,0,0,1-.9.9h0a1,1,0,0,1-1-.9h0A1.1,1.1,0,0,1,205.5,162Z"/><path class="c" d="M221.9,158.3h0a.9.9,0,0,1,.9,1h0a.9.9,0,0,1-.9.9h0a1,1,0,0,1-1-.9h0A1,1,0,0,1,221.9,158.3Z"/><path class="p" d="M224.1,162h0a1,1,0,0,1,.9,1h0a.9.9,0,0,1-.9.9h0a.9.9,0,0,1-.9-.9h0A1,1,0,0,1,224.1,162Z"/><path class="c" d="M207,158.3h0a.9.9,0,0,1,.9,1h0a.9.9,0,0,1-.9.9h0a1,1,0,0,1-1-.9h0A1,1,0,0,1,207,158.3Z"/><path class="p" d="M209.2,162h0a1,1,0,0,1,.9,1h0a.9.9,0,0,1-.9.9h0a.9.9,0,0,1-.9-.9h0A1,1,0,0,1,209.2,162Z"/><path class="c" d="M225.6,158.3h0a.9.9,0,0,1,.9,1h0a.9.9,0,0,1-.9.9h0a.9.9,0,0,1-.9-.9h0A.9.9,0,0,1,225.6,158.3Z"/><path class="c" d="M227.8,162h0a1.1,1.1,0,0,1,1,1h0a1,1,0,0,1-1,.9h0a.9.9,0,0,1-.9-.9h0A1,1,0,0,1,227.8,162Z"/><path class="c" d="M210.7,158.3h0a.9.9,0,0,1,.9,1h0a.9.9,0,0,1-.9.9h0a.9.9,0,0,1-.9-.9h0A.9.9,0,0,1,210.7,158.3Z"/><path class="c" d="M212.9,162h0a1.1,1.1,0,0,1,1,1h0a1,1,0,0,1-1,.9h0a.9.9,0,0,1-.9-.9h0A1,1,0,0,1,212.9,162Z"/><path class="c" d="M229.3,158.3h0a1,1,0,0,1,1,1h0a1,1,0,0,1-1,.9h0a.9.9,0,0,1-.9-.9h0A.9.9,0,0,1,229.3,158.3Z"/><path class="c" d="M231.6,162h0a1,1,0,0,1,.9,1h0a.9.9,0,0,1-.9.9h0a.9.9,0,0,1-1-.9h0A1,1,0,0,1,231.6,162Z"/><rect class="q" x="178.6" y="158.3" width="5.7" height="5.96" rx="2.9"/><path class="m" d="M165.8,276.6h72.3a1.8,1.8,0,0,1,1.8,1.9V293a1.9,1.9,0,0,1-1.8,1.9H165.8a2,2,0,0,1-1.9-1.9V278.5A1.9,1.9,0,0,1,165.8,276.6Z"/><path class="n" d="M166,276.6h21.4v18.2H166a2.6,2.6,0,0,1-2.6-2.6v-13A2.6,2.6,0,0,1,166,276.6Z"/><rect class="o" x="170.3" y="282.9" width="5.7" height="5.96" rx="2.9"/><path class="c" d="M195.8,282.9h0a1,1,0,0,1,.9,1h0a.9.9,0,0,1-.9.9h0a.9.9,0,0,1-.9-.9h0A1,1,0,0,1,195.8,282.9Z"/><path class="c" d="M198,286.7h0a1,1,0,0,1,1,.9h0a1,1,0,0,1-1,.9h0a.9.9,0,0,1-.9-.9h0A.9.9,0,0,1,198,286.7Z"/><path class="p" d="M214.4,282.9h0a1.1,1.1,0,0,1,1,1h0a1,1,0,0,1-1,.9h0a.9.9,0,0,1-.9-.9h0A1,1,0,0,1,214.4,282.9Z"/><path class="p" d="M216.7,286.7h0a.9.9,0,0,1,.9.9h0a.9.9,0,0,1-.9.9h0a.9.9,0,0,1-1-.9h0A.9.9,0,0,1,216.7,286.7Z"/><path class="c" d="M199.5,282.9h0a1.1,1.1,0,0,1,1,1h0a1,1,0,0,1-1,.9h0a.9.9,0,0,1-.9-.9h0A1,1,0,0,1,199.5,282.9Z"/><path class="p" d="M201.8,286.7h0a.9.9,0,0,1,.9.9h0a.9.9,0,0,1-.9.9h0a.9.9,0,0,1-1-.9h0A.9.9,0,0,1,201.8,286.7Z"/><path class="p" d="M218.1,282.9h0a1,1,0,0,1,1,1h0a.9.9,0,0,1-1,.9h0a.9.9,0,0,1-.9-.9h0A1,1,0,0,1,218.1,282.9Z"/><path class="c" d="M220.4,286.7h0a.9.9,0,0,1,.9.9h0a.9.9,0,0,1-.9.9h0a1,1,0,0,1-1-.9h0A1,1,0,0,1,220.4,286.7Z"/><path class="c" d="M203.2,282.9h0a1,1,0,0,1,1,1h0a.9.9,0,0,1-1,.9h0a.9.9,0,0,1-.9-.9h0A1,1,0,0,1,203.2,282.9Z"/><path class="c" d="M205.5,286.7h0a.9.9,0,0,1,.9.9h0a.9.9,0,0,1-.9.9h0a1,1,0,0,1-1-.9h0A1,1,0,0,1,205.5,286.7Z"/><path class="c" d="M221.9,282.9h0a1,1,0,0,1,.9,1h0a.9.9,0,0,1-.9.9h0a1,1,0,0,1-1-.9h0A1.1,1.1,0,0,1,221.9,282.9Z"/><path class="p" d="M224.1,286.7h0a.9.9,0,0,1,.9.9h0a.9.9,0,0,1-.9.9h0a.9.9,0,0,1-.9-.9h0A.9.9,0,0,1,224.1,286.7Z"/><path class="c" d="M207,282.9h0a1,1,0,0,1,.9,1h0a.9.9,0,0,1-.9.9h0a1,1,0,0,1-1-.9h0A1.1,1.1,0,0,1,207,282.9Z"/><path class="c" d="M209.2,286.7h0a.9.9,0,0,1,.9.9h0a.9.9,0,0,1-.9.9h0a.9.9,0,0,1-.9-.9h0A.9.9,0,0,1,209.2,286.7Z"/><path class="c" d="M225.6,282.9h0a1,1,0,0,1,.9,1h0a.9.9,0,0,1-.9.9h0a.9.9,0,0,1-.9-.9h0A1,1,0,0,1,225.6,282.9Z"/><path class="c" d="M227.8,286.7h0a1,1,0,0,1,1,.9h0a1,1,0,0,1-1,.9h0a.9.9,0,0,1-.9-.9h0A.9.9,0,0,1,227.8,286.7Z"/><path class="c" d="M210.7,282.9h0a1,1,0,0,1,.9,1h0a.9.9,0,0,1-.9.9h0a.9.9,0,0,1-.9-.9h0A1,1,0,0,1,210.7,282.9Z"/><path class="c" d="M212.9,286.7h0a1,1,0,0,1,1,.9h0a1,1,0,0,1-1,.9h0a.9.9,0,0,1-.9-.9h0A.9.9,0,0,1,212.9,286.7Z"/><path class="c" d="M229.3,282.9h0a1.1,1.1,0,0,1,1,1h0a1,1,0,0,1-1,.9h0a.9.9,0,0,1-.9-.9h0A1,1,0,0,1,229.3,282.9Z"/><path class="c" d="M231.6,286.7h0a.9.9,0,0,1,.9.9h0a.9.9,0,0,1-.9.9h0a.9.9,0,0,1-1-.9h0A.9.9,0,0,1,231.6,286.7Z"/><rect class="q" x="178.6" y="282.9" width="5.7" height="5.96" rx="2.9"/><path class="m" d="M165.8,176.9h72.3a1.8,1.8,0,0,1,1.8,1.9v14.5a1.9,1.9,0,0,1-1.8,1.9H165.8a2,2,0,0,1-1.9-1.9V178.8A1.9,1.9,0,0,1,165.8,176.9Z"/><path class="n" d="M166,176.9h21.4v18.2H166a2.6,2.6,0,0,1-2.6-2.6v-13A2.6,2.6,0,0,1,166,176.9Z"/><rect class="o" x="170.3" y="183.2" width="5.7" height="5.96" rx="2.9"/><path class="c" d="M195.8,183.2h0a1,1,0,0,1,.9,1h0a.9.9,0,0,1-.9.9h0a.9.9,0,0,1-.9-.9h0A1,1,0,0,1,195.8,183.2Z"/><path class="c" d="M198,187h0a1,1,0,0,1,1,.9h0a1,1,0,0,1-1,.9h0a.9.9,0,0,1-.9-.9h0A.9.9,0,0,1,198,187Z"/><path class="c" d="M214.4,183.2h0a1.1,1.1,0,0,1,1,1h0a1,1,0,0,1-1,.9h0a.9.9,0,0,1-.9-.9h0A1,1,0,0,1,214.4,183.2Z"/><path class="c" d="M216.7,187h0a.9.9,0,0,1,.9.9h0a.9.9,0,0,1-.9.9h0a.9.9,0,0,1-1-.9h0A.9.9,0,0,1,216.7,187Z"/><path class="p" d="M199.5,183.2h0a1.1,1.1,0,0,1,1,1h0a1,1,0,0,1-1,.9h0a.9.9,0,0,1-.9-.9h0A1,1,0,0,1,199.5,183.2Z"/><path class="c" d="M201.8,187h0a.9.9,0,0,1,.9.9h0a.9.9,0,0,1-.9.9h0a.9.9,0,0,1-1-.9h0A.9.9,0,0,1,201.8,187Z"/><path class="p" d="M218.1,183.2h0a1,1,0,0,1,1,1h0a.9.9,0,0,1-1,.9h0a.9.9,0,0,1-.9-.9h0A1,1,0,0,1,218.1,183.2Z"/><path class="c" d="M220.4,187h0a.9.9,0,0,1,.9.9h0a.9.9,0,0,1-.9.9h0a1,1,0,0,1-1-.9h0A1,1,0,0,1,220.4,187Z"/><path class="p" d="M203.2,183.2h0a1,1,0,0,1,1,1h0a.9.9,0,0,1-1,.9h0a.9.9,0,0,1-.9-.9h0A1,1,0,0,1,203.2,183.2Z"/><path class="c" d="M205.5,187h0a.9.9,0,0,1,.9.9h0a.9.9,0,0,1-.9.9h0a1,1,0,0,1-1-.9h0A1,1,0,0,1,205.5,187Z"/><path class="c" d="M221.9,183.2h0a1,1,0,0,1,.9,1h0a.9.9,0,0,1-.9.9h0a1,1,0,0,1-1-.9h0A1.1,1.1,0,0,1,221.9,183.2Z"/><path class="c" d="M224.1,187h0a.9.9,0,0,1,.9.9h0a.9.9,0,0,1-.9.9h0a.9.9,0,0,1-.9-.9h0A.9.9,0,0,1,224.1,187Z"/><path class="c" d="M207,183.2h0a1,1,0,0,1,.9,1h0a.9.9,0,0,1-.9.9h0a1,1,0,0,1-1-.9h0A1.1,1.1,0,0,1,207,183.2Z"/><path class="c" d="M209.2,187h0a.9.9,0,0,1,.9.9h0a.9.9,0,0,1-.9.9h0a.9.9,0,0,1-.9-.9h0A.9.9,0,0,1,209.2,187Z"/><path class="c" d="M225.6,183.2h0a1,1,0,0,1,.9,1h0a.9.9,0,0,1-.9.9h0a.9.9,0,0,1-.9-.9h0A1,1,0,0,1,225.6,183.2Z"/><path class="c" d="M227.8,187h0a1,1,0,0,1,1,.9h0a1,1,0,0,1-1,.9h0a.9.9,0,0,1-.9-.9h0A.9.9,0,0,1,227.8,187Z"/><path class="c" d="M210.7,183.2h0a1,1,0,0,1,.9,1h0a.9.9,0,0,1-.9.9h0a.9.9,0,0,1-.9-.9h0A1,1,0,0,1,210.7,183.2Z"/><path class="p" d="M212.9,187h0a1,1,0,0,1,1,.9h0a1,1,0,0,1-1,.9h0a.9.9,0,0,1-.9-.9h0A.9.9,0,0,1,212.9,187Z"/><path class="p" d="M229.3,183.2h0a1.1,1.1,0,0,1,1,1h0a1,1,0,0,1-1,.9h0a.9.9,0,0,1-.9-.9h0A1,1,0,0,1,229.3,183.2Z"/><path class="p" d="M231.6,187h0a.9.9,0,0,1,.9.9h0a.9.9,0,0,1-.9.9h0a.9.9,0,0,1-1-.9h0A.9.9,0,0,1,231.6,187Z"/><rect class="q" x="178.6" y="183.2" width="5.7" height="5.96" rx="2.9"/><path class="s" d="M168.3,82.7h93.5c-.5,10.1,0,14.9,0,18.4,0,24.7,13.5,19.4-.8,33.6-28.4,27.9-54.2,55-98.6,101-3.3,0,0-26.1,0-146.7A6.1,6.1,0,0,1,168.3,82.7Z"/><path class="t" d="M160.2,82.7H260.5c10.4,0,1.8,6.7,1.7,12.1-.2,7.4,4.6,14.7,0,19.2-36,34.3-57.3,56.6-112.1,113.4-3.2,0,4.2-17.8,4.2-138.4A6.2,6.2,0,0,1,160.2,82.7Z"/><path class="u" d="M169.7,82.7h90.9a4.2,4.2,0,0,1,4,4.2c-37.3,37-53.7,52.4-98.9,99.3-2.2,0,0-17.7,0-99.3A4.1,4.1,0,0,1,169.7,82.7Z"/><path class="v" d="M265.8,311.2a7.7,7.7,0,0,1-7.8,7.7H154.6a10.4,10.4,0,0,1-10.5-10.4h0V67.6a10.5,10.5,0,0,1,10.4-10.5H256.2a7.8,7.8,0,0,1,3.7.9,8.4,8.4,0,0,1,3.1,2.2,11.2,11.2,0,0,1,2,3.3,11.5,11.5,0,0,1,.8,4.1ZM174,85.3a7.8,7.8,0,0,0-7.8,7.8h0V283a7.8,7.8,0,0,0,7.8,7.8h77.1a7.8,7.8,0,0,0,7.8-7.8V93.1a7.8,7.8,0,0,0-7.8-7.8H174Z"/><path class="w" d="M151,215.4V185.5a5.1,5.1,0,0,1,5.1-5.1h0a5.1,5.1,0,0,1,5.1,5.1v29.9a5.1,5.1,0,0,1-5.1,5.2h0A5.1,5.1,0,0,1,151,215.4Z"/><path class="i" d="M150.5,215.4V185.5a5.1,5.1,0,0,1,5.1-5.1h0a5.1,5.1,0,0,1,5.1,5.1v29.9a5.1,5.1,0,0,1-5.1,5.2h0A5.1,5.1,0,0,1,150.5,215.4Z"/><rect class="b" x="155.7" y="193" width="2.9" height="14.08" rx="1.5"/><path class="x" d="M67.8,291.5s-3.7-24.2-18.6-41.8,14.3-22,16.7-42.9,29.8,32.5,7.7,64.3S67.8,291.5,67.8,291.5Z"/><path class="y" d="M67.4,310.9S66,282,93,271.9s10.3-28.9,13.7-38.6-43.1,10.2-41.3,54.2S67.4,310.9,67.4,310.9Z"/><path class="z" d="M69.4,315.7s1.1-23.8-21-32.2S39.9,259.7,37,251.7s35.6,8.4,34,44.7S69.4,315.7,69.4,315.7Z"/><path class="aa" d="M48.9,291.5H84.3l-2.8,36.3H51.7Z"/><path class="ab" d="M67.4,264.1s13-30.9,2.8-51.1"/><path class="ab" d="M72.1,283.6s6.9-33.5,28.1-44.7"/><path class="ac" d="M79.5,271.4s2.5-3.9,10-4.2"/><path class="ac" d="M66.8,250.7s-.7-3.9-6.4-6.7"/><path class="ac" d="M84.5,261.2s5.6-6.5,11.8-7.2"/><path class="ac" d="M66.3,241s-2.2-7-6.9-9.6"/></svg>