<svg xmlns="http://www.w3.org/2000/svg" width="532" height="532"><g fill="#a0616a"><circle cx="270.759" cy="260.929" r="86.349"/><path d="m199.288 366.614 18-46 93-14 9.992 101.826-94 2-26.992-43.826z"/></g><path d="M357.944 276.861c-1.12 4.49-3.386 15.18-6.923 15.233-2.89.042-5.657-46.335-2.77-54.006 3.317-8.813-5.399-19.96-11.964-25.683-11.804-10.29-38.007 11.804-64.651 1.796-.706-.265-.566-.235-8.98-3.592-25.89-10.33-27.25-10.628-28.733-10.775-12.55-1.242-27.867 9.028-34.122 21.55-6.501 13.017-1.07 24.181-7.183 55.672-.713 3.67-1.832 8.902-3.592 8.98-3.218.14-6.36-17.05-7.183-21.551-3.448-18.862-6.773-37.047 0-57.468.738-2.227 5.291-10.494 14.366-26.938 13.075-23.688 19.65-35.577 21.55-37.713 13.63-15.326 38.437-29.307 59.264-23.346 10.527 3.013 8.64 7.857 21.55 12.57 23.009 8.401 43.006-1.872 46.693 5.388 1.954 3.846-3.512 7.017-3.591 14.367-.136 12.612 15.814 16.256 25.142 28.734 5.014 6.708 13.597 6.78-8.873 96.782Z" fill="#2f2e41"/><path d="M464.92 442.61c-3.48 3.91-7.09 7.74-10.83 11.48C403.85 504.33 337.05 532 266 532c-61.41 0-119.64-20.67-166.75-58.72-.03-.02-.05-.04-.08-.07-6.25-5.04-12.3-10.4-18.14-16.06.11-.88.23-1.75.36-2.61.82-5.8 1.73-11.33 2.75-16.42 8.35-41.72 118.22-85.52 121.08-86.66.04-.01.06-.02.06-.02s14.14 52.12 74.73 51.45c41.27-.45 33.27-51.45 33.27-51.45s.5.1 1.44.3c11.92 2.53 94.68 20.71 127.33 45.52 9.95 7.56 17.09 23.66 22.22 42.86.22.82.43 1.66.65 2.49Z" fill="#a6a1a6"/><path d="M454.09 77.91C403.85 27.67 337.05 0 266 0S128.15 27.67 77.91 77.91C27.67 128.15 0 194.95 0 266c0 64.85 23.05 126.16 65.29 174.57 4.03 4.63 8.24 9.14 12.62 13.52 1.03 1.03 2.07 2.06 3.12 3.06 5.84 5.66 11.89 11.02 18.14 16.06.03.03.05.05.08.07C146.36 511.33 204.59 532 266 532c71.05 0 137.85-27.67 188.09-77.91 3.74-3.74 7.35-7.57 10.83-11.48C508.29 393.89 532 331.77 532 266c0-71.05-27.67-137.85-77.91-188.09Zm10.18 362.21a265.24 265.24 0 0 1-25.33 25.18 264.131 264.131 0 0 1-56.56 37.63c-7.19 3.55-14.56 6.78-22.1 9.67C330.99 523.84 299.2 530 266 530c-32.04 0-62.76-5.74-91.19-16.24-11.67-4.3-22.95-9.41-33.78-15.26a262.372 262.372 0 0 1-28.66-17.93 264.104 264.104 0 0 1-30.98-26.03c-5.4-5.29-10.56-10.8-15.49-16.53C26.09 391.77 2 331.65 2 266 2 120.43 120.43 2 266 2s264 118.43 264 264c0 66.66-24.83 127.62-65.73 174.12Z" fill="#3f3d56"/></svg>