<svg xmlns="http://www.w3.org/2000/svg" viewBox="0 0 500 500"><ellipse cx="250" cy="377.35" rx="197.05" ry="111.94" style="fill:#f5f5f5"/><path d="M332 447.93 184.91 363a8.5 8.5 0 0 1 0-14.73l14.51-9.15a16.5 16.5 0 0 1 16.47 0L363 424.06a8.5 8.5 0 0 1 0 14.73l-14.51 9.14a16.46 16.46 0 0 1-16.49 0Z" style="fill:#e0e0e0"/><ellipse cx="108.35" cy="352.17" rx="31.92" ry="18.33" style="fill:#e6e6e6"/><path d="m384.16 374.7 14 8.05s-7.15-22.47-3.34-45.12c1.44-8.56 4.53-12.81 5.61-15.1s9.45-16.44 2-22.92-24.78 6.55-23.84 41.42a135.23 135.23 0 0 0 5.57 33.67Z" style="fill:#b2299f"/><path d="m384.16 374.7 14 8.05s-7.15-22.47-3.34-45.12c1.44-8.56 4.53-12.81 5.61-15.1s9.45-16.44 2-22.92-24.78 6.55-23.84 41.42a135.23 135.23 0 0 0 5.57 33.67Z" style="opacity:.5"/><path d="M390.67 378.94a.49.49 0 0 1-.47-.32c-.05-.15-5.4-14.77-5.23-38.27s12.52-36.26 12.64-36.38a.5.5 0 0 1 .71 0 .5.5 0 0 1 0 .71c-.12.12-12.18 12.5-12.35 35.68s5.11 37.78 5.17 37.92a.5.5 0 0 1-.3.64.47.47 0 0 1-.17.02Z" style="fill:#fff"/><path d="m390 378.14 19.14 11a9.21 9.21 0 0 0 12.22-2.63 10 10 0 0 0 1.51-6.65c-.92-9.94-5.24-12.23.05-16.66s6.67-4.74 6.37-9-3.21-6.12-4.59-7.8-5.2-5.2-2.6-10.4 6.15-10.23.77-12.53c-3.21-1.38-8.56.46-12.08 4.28s-6.42 6.57-9.79 7.49-10.39 1.07-10.09 6.88 1.84 7.8.46 10.39c-2.6 4.84-13.91 7.59-1.37 25.63Z" style="fill:#b2299f"/><path d="M399.46 384.06a.52.52 0 0 1-.5-.46c0-.34-2.94-34.66 20.66-57.5a.5.5 0 0 1 .69.72c-23.26 22.51-20.38 56.35-20.35 56.69a.5.5 0 0 1-.45.54Z" style="fill:#fff"/><path d="M403.25 354.52a.5.5 0 0 1-.5-.46 19.64 19.64 0 0 0-7.23-13.73.5.5 0 0 1-.12-.7.49.49 0 0 1 .69-.12 20.37 20.37 0 0 1 7.66 14.49.51.51 0 0 1-.46.55ZM401.62 360.41a.5.5 0 0 1-.33-.12.51.51 0 0 1-.05-.71c.24-.28 6.15-6.8 20-5.07a.5.5 0 0 1 .43.56.51.51 0 0 1-.56.44c-13.3-1.67-19.07 4.67-19.13 4.73a.51.51 0 0 1-.36.17Z" style="fill:#fff"/><path d="m327.52 437.78-129.36-74.69c-9.13-5.27-16.53-19.41-16.53-31.58v-277c0-12.17 7.4-17.76 16.53-12.49l129.36 74.69c9.13 5.27 16.53 19.41 16.53 31.58v277c0 12.16-7.4 17.76-16.53 12.49Z" style="fill:#455a64"/><path d="M342.42 108 213.05 33.31c-3.9-2.25-7.48-2.51-10.31-1.13a8.45 8.45 0 0 0-1 .59l-14.5 8.43c2.92-1.75 6.74-1.62 10.93.8l129.36 74.69c9.13 5.27 16.53 19.41 16.53 31.58v277c0 6.44-2.07 11-5.37 13.16L353 430.1c3.65-1.94 6-6.69 6-13.5v-277c0-12.19-7.45-26.33-16.58-31.6Z" style="fill:#37474f"/><path d="M344.05 148.27v277c0 6.44-2.07 11-5.37 13.16L353 430.1c3.65-1.94 6-6.69 6-13.5v-277l-14.9 8.65Z" style="fill:#263238"/><path d="m358.95 161.09-14.9 8.6v6.72l14.9-8.61v-6.71zM352.42 205.78c-1.33.77-2.41-.05-2.41-1.82v-14.45a5.78 5.78 0 0 1 2.41-4.61c1.33-.77 2.41 0 2.41 1.82v14.45a5.78 5.78 0 0 1-2.41 4.61Z" style="fill:#37474f"/><path d="M350 204v-14.49a5.78 5.78 0 0 1 2.41-4.61 1.54 1.54 0 0 1 1.52-.14l-1.81-.93a1.56 1.56 0 0 0-1.56.12 5.8 5.8 0 0 0-2.42 4.61V203a2.17 2.17 0 0 0 .82 1.93l1.89 1A2.08 2.08 0 0 1 350 204Z" style="fill:#455a64"/><path d="M352.42 240.75c-1.33.77-2.41 0-2.41-1.82v-14.45a5.79 5.79 0 0 1 2.41-4.61c1.33-.77 2.41 0 2.41 1.83v14.44a5.76 5.76 0 0 1-2.41 4.61Z" style="fill:#37474f"/><path d="M350 238.93v-14.45a5.79 5.79 0 0 1 2.41-4.61 1.57 1.57 0 0 1 1.52-.14l-1.81-.94a1.51 1.51 0 0 0-1.56.12 5.77 5.77 0 0 0-2.42 4.61V238a2.16 2.16 0 0 0 .82 1.93l1.89 1a2.07 2.07 0 0 1-.85-2Z" style="fill:#455a64"/><path d="M323 124.48 195.88 51.06a3.51 3.51 0 0 0-5.26 3v277.45c0 9.26 6.57 20.63 14.59 25.26l124 71.63a3.87 3.87 0 0 0 5.8-3.35V145.31c.05-7.64-5.37-17.01-12.01-20.83Z" style="fill:#b2299f"/><path d="M323 124.48 195.88 51.06a3.51 3.51 0 0 0-5.26 3v277.45c0 9.26 6.57 20.63 14.59 25.26l124 71.63a3.87 3.87 0 0 0 5.8-3.35V145.31c.05-7.64-5.37-17.01-12.01-20.83Z" style="fill:#fff;opacity:.9"/><path d="m233.9 70.23 1.97 8.29 42.14 24.3 7.28-3.88-51.39-28.71z" style="fill:#455a64"/><path d="M246.29 78.24c0 1.38-1 1.93-2.16 1.25a4.78 4.78 0 0 1-2.13-3.74c0-1.37 1-1.93 2.16-1.24a4.76 4.76 0 0 1 2.13 3.73ZM274.68 95.79a1.41 1.41 0 0 1-.66-.17l-21.52-12a1.35 1.35 0 0 1 1.31-2.36l21.53 12a1.35 1.35 0 0 1-.66 2.53Z" style="fill:#263238"/><path d="M217.28 108.8c-1.31-.76-2.26-.1-2.26 1.57a5.07 5.07 0 0 0 2.26 4.22 2.38 2.38 0 0 0 2.47 0l2.09 3.78a4.53 4.53 0 0 1-4.75-.23 12.11 12.11 0 0 1-5.78-9.84c0-3.71 2.49-5 5.92-3a13.54 13.54 0 0 1 4.61 5l-2.09 1.66a7.37 7.37 0 0 0-2.47-3.16ZM233.87 121.33c0 3.74-2.53 5-6 3a12.35 12.35 0 0 1-6-10c0-3.74 2.53-5 6-3a12.28 12.28 0 0 1 6 10Zm-8.29-4.77a5.42 5.42 0 0 0 2.34 4.35c1.24.72 2.24 0 2.24-1.7a5.23 5.23 0 0 0-2.24-4.27c-1.26-.73-2.34-.11-2.34 1.62ZM237.9 117.36l4.32 9v-6.48l3.27 1.89v12.61l-3-1.74-4.3-8.92v6.44l-3.29-1.9v-12.64ZM256.18 127.91v3.3l-3.12-1.8v9.32l-3.61-2.09v-9.32l-3.1-1.79v-3.29ZM263.22 142.81l-4.1-2.37-.56 1.46-3.7-2.14 4.61-9.95 3.71 2.14 4.44 15.18-3.85-2.22Zm-.89-3.5-1.12-4.31-1.15 3ZM273.35 141.17c-1.31-.75-2.26-.1-2.26 1.58a5.09 5.09 0 0 0 2.26 4.22 2.42 2.42 0 0 0 2.48 0l2.09 3.78a4.59 4.59 0 0 1-4.76-.23 12.11 12.11 0 0 1-5.78-9.85c0-3.71 2.5-5 5.92-3a13.76 13.76 0 0 1 4.62 5l-2.09 1.65a7.53 7.53 0 0 0-2.48-3.15ZM287.78 146.16v3.29l-3.12-1.8V157l-3.61-2.09v-9.32l-3.1-1.79v-3.29ZM298.45 161.64c.89.51 1.57.11 1.57-1.14v-7.27l3.62 2.08v7.27c0 3.35-2 4.35-5.2 2.52a10.3 10.3 0 0 1-5.29-8.57v-7.27l3.62 2.09v7.27a3.71 3.71 0 0 0 1.68 3.02ZM309.47 161.68c-.41-.23-.67-.24-.67.14 0 1.58 5.65 3.86 5.65 8.43 0 2.8-2.13 2.81-4.59 1.39a18.27 18.27 0 0 1-5.47-5.17l1.34-2.36a16.08 16.08 0 0 0 4.16 4.36c.53.31.87.31.87-.14 0-1.64-5.66-3.82-5.66-8.25 0-2.52 1.84-3 4.68-1.4a17.42 17.42 0 0 1 4.75 4.23l-1.31 2.42a19.69 19.69 0 0 0-3.75-3.65ZM199.09 170.94a25.69 25.69 0 1 0-6.74 5.83l12.52 5.44Z" style="fill:#b2299f"/><path d="M199.09 170.94a25.69 25.69 0 1 0-6.74 5.83l12.52 5.44Z" style="opacity:.4"/><path d="M169.65 153.34c0-.39-.28-.61-.79-.61a5.72 5.72 0 0 0-3.16 1.49l-1.42-2.76a9.08 9.08 0 0 1 5.17-1.82c2.4 0 4.22 1.26 4.22 3.14 0 1.34-1 2.63-2.28 3.92l-1.79 1.77h4.23v2.94h-9.09V159l4.05-4.19a2.73 2.73 0 0 0 .86-1.47ZM181.23 149.81l-2.76 6.62h1.13v-2.23h3.48v2.23h1.32v2.73h-1.32v2.25h-3.48v-2.25h-4.95v-2.48l3-6.87ZM195.14 155.64v5.77h-3.72v-4.7a1.08 1.08 0 0 0-1.07-1.23c-.73 0-1.19.57-1.19 1.45v4.48h-3.72v-12.26h3.72v4.51a3.14 3.14 0 0 1 2.74-1.46 3.17 3.17 0 0 1 3.24 3.44Z" style="fill:#fff"/><path d="M316.44 248.56v124.25a8 8 0 0 1-12 6.94l-66.92-38.64-11.86-6.84A26.95 26.95 0 0 1 212.2 311V186.74a8 8 0 0 1 12-6.94l78.8 45.49a26.87 26.87 0 0 1 13.44 23.27Z" style="fill:#b2299f"/><path d="M316.44 248.56v124.25a8 8 0 0 1-12 6.94l-66.92-38.64-11.86-6.84A26.95 26.95 0 0 1 212.2 311V186.74a8 8 0 0 1 12-6.94l78.8 45.49a26.87 26.87 0 0 1 13.44 23.27Z" style="fill:#fff;opacity:.5"/><path d="M277.89 322.08s12.53 20.78 3.48 44.21l-43.88-25.18Z" style="fill:#263238"/><circle cx="283.92" cy="226.99" r="14.05" style="fill:#263238" transform="rotate(-82.98 283.93 226.99)"/><path d="M284 187.59s4.31-7 5.63-6.49-.86 7.18-.86 7.18 6.52 1.36 5.31 3-9.18 1.25-9.18 1.25Z" style="fill:#263238"/><path d="M287 205.63c-3 22.54-22 22.54-22 22.54l-39.8-17.52s-3-2.63-3.92-8.67a26.41 26.41 0 0 1 0-7.46v-.07c1.27-9.48 8.36-19.67 23.8-22.8a50.59 50.59 0 0 1 10.28-1 46.83 46.83 0 0 1 5 .25c12 1.18 20.41 6.78 24.42 15.49a28 28 0 0 1 2 6.15 38.82 38.82 0 0 1 .22 13.09Z" style="fill:#263238"/><path d="M191.45 249.23s-14.13-.49-19.57 13.28c0 0 6 4.05 13.87 0s5.7-13.28 5.7-13.28Z" style="fill:#b2299f"/><path d="M191.45 249.23s-14.13-.49-19.57 13.28c0 0 6 4.05 13.87 0s5.7-13.28 5.7-13.28Z" style="opacity:.5"/><path d="M191.05 255.86s-4-17.38-6.11-17.59-2.52 5.3-2.35 8.41l-5-10.76a2.71 2.71 0 0 0-3.76-1.21c-5 2.75-13.77 11.11 4.72 31.78Z" style="fill:#945959"/><path d="m242.25 243.84-3-.39a17.18 17.18 0 0 0-16 6.72l-17.85 23.76-14-24.7s-1.68 16.8-19.57 13.28l19.21 32.33a14.78 14.78 0 0 0 24.18 1.77l16.44-20.21Z" style="fill:#b2299f"/><path d="M280.35 299.29c-4 10.14-4.44 12.12-2 17.19a64.87 64.87 0 0 1 4 11.64s-18.54 20.78-44.93 13l-11.86-6.84a26.56 26.56 0 0 1-6.58-5.36l3.61-26.92a9.4 9.4 0 0 0-.42-4.21l-3.79-11.11a30.36 30.36 0 0 1 7.52-31.51l12.74-12.45L272.1 247l5 1.43A14.15 14.15 0 0 1 287.18 264c-1.64 11.8-4.32 28.92-6.83 35.29Z" style="fill:#b2299f"/><path d="M280.35 299.29c-4 10.14-4.44 12.12-2 17.19a64.87 64.87 0 0 1 4 11.64s-18.54 20.78-44.93 13l-11.86-6.84a26.56 26.56 0 0 1-6.58-5.36l3.61-26.92a9.4 9.4 0 0 0-.42-4.21l-3.79-11.11a30.36 30.36 0 0 1 7.52-31.51l12.74-12.45L272.1 247l5 1.43A14.15 14.15 0 0 1 287.18 264c-1.64 11.8-4.32 28.92-6.83 35.29Z" style="opacity:.5"/><path d="m260.17 269-6.7-5.71a5.37 5.37 0 0 0-5.23-1l-8.1 2.79-1.09-4.54a5.38 5.38 0 0 0-6.72-3.91l-3.51 1 5.94-11.38a21.31 21.31 0 0 1 8.59-8.78l2.33-1.28 19.25 1s7.17 3 7.17 9.75l-11.93 22" style="fill:#b2299f"/><path d="m265.01 245.72-19.3 15.04v-47.89h19.3v32.85z" style="fill:#945959"/><path d="m246.01 241.77-5.87 23.35 24.79-19.4-18.92-3.95z" style="fill:#945959"/><path d="M245.71 238.3A33.78 33.78 0 0 0 265 219.94v-7.07h-19.3Z" style="fill:#703838"/><path d="M249.87 177.38c-7.32 0-22.88 4.08-24.68 23.24s-.06 34 9.82 35.44 32.84-5.73 35.92-30.53-13.93-28.15-21.06-28.15Z" style="fill:#945959"/><path d="M238.35 208.73v11.29l-6.62-2.03 6.62-9.26z" style="fill:#703838"/><circle cx="245.71" cy="210.68" r="2.3" style="fill:#263238"/><path d="M232.87 209.08a2.3 2.3 0 1 1-2.3-2.31 2.3 2.3 0 0 1 2.3 2.31ZM227.76 204.28l4.5-2.67s-1.72-1.79-3.44-.72-1.06 3.39-1.06 3.39Z" style="fill:#263238"/><path d="M235.24 224.6a9.75 9.75 0 0 0 6.19-1.66s.43 3.27-2.31 3.89-3.88-2.23-3.88-2.23Z" style="fill:#703838"/><path d="M231.31 183.9s2.75 26.45 38.72 27.28c0 0 10.87-26.29-10.61-34.83s-28.11 7.55-28.11 7.55Z" style="fill:#263238"/><path d="m280.62 207.22-4.42-2.56c-1.68-1-4-.86-6.57.62-5.1 2.94-9.24 10.11-9.24 16 0 2.95 1 5 2.72 6l4.34 2.5.25.14.15.09c1.64.8 3.83.61 6.24-.78 5.1-3 9.24-10.11 9.24-16-.03-2.98-1.06-5.04-2.71-6.01Z" style="fill:#b2299f"/><ellipse cx="274.06" cy="218.51" rx="13.06" ry="7.54" style="fill:#b2299f" transform="rotate(-60 274.06 218.515)"/><ellipse cx="274.06" cy="218.51" rx="13.06" ry="7.54" style="opacity:.5" transform="rotate(-60 274.06 218.515)"/><path d="m282.39 212.77-3-1.75c-1.14-.68-2.73-.59-4.49.42a14 14 0 0 0-6.32 10.95c0 2 .71 3.43 1.86 4.09l3 1.71a1 1 0 0 0 .17.1l.1.06a4.6 4.6 0 0 0 4.28-.54 14 14 0 0 0 6.32-10.94c-.08-2.03-.78-3.44-1.92-4.1Z" style="fill:#b2299f"/><path d="M284.23 216.85a14 14 0 0 1-6.32 10.94c-3.5 2-6.33.38-6.33-3.65a13.94 13.94 0 0 1 6.33-10.94c3.49-2.02 6.32-.39 6.32 3.65Z" style="fill:#b2299f"/><path d="M284.23 216.85a14 14 0 0 1-6.32 10.94c-3.5 2-6.33.38-6.33-3.65a13.94 13.94 0 0 1 6.33-10.94c3.49-2.02 6.32-.39 6.32 3.65Z" style="opacity:.30000000000000004"/><path d="M266.89 172.22a16.64 16.64 0 0 0-10-3.47H256a53.89 53.89 0 0 0-10.93 1h2-2v1.86h1.86a24.71 24.71 0 0 1 23.87 24.73v7.87a2.22 2.22 0 0 0 2.45 2.21h.23l2-.62a1.86 1.86 0 0 1-.41.08 2.45 2.45 0 0 0 2.12-2.48v-7.3c-.02-13.21-5.73-20.31-10.3-23.88ZM254.3 235.51a5.75 5.75 0 0 1-2.39-.52l-6.25-2.89a.75.75 0 1 1 .62-1.36l6.25 2.89a4.22 4.22 0 0 0 4.82-.9l6-6.2a.75.75 0 0 1 1.06 0 .76.76 0 0 1 0 1.06l-6 6.2a5.69 5.69 0 0 1-4.11 1.72Z" style="fill:#b2299f"/><path d="M254.3 235.51a5.75 5.75 0 0 1-2.39-.52l-6.25-2.89a.75.75 0 1 1 .62-1.36l6.25 2.89a4.22 4.22 0 0 0 4.82-.9l6-6.2a.75.75 0 0 1 1.06 0 .76.76 0 0 1 0 1.06l-6 6.2a5.69 5.69 0 0 1-4.11 1.72Z" style="opacity:.5"/><path d="M247.3 230a2.92 2.92 0 1 1-2.92-2.92 2.92 2.92 0 0 1 2.92 2.92Z" style="fill:#b2299f"/><path d="M247.3 230a2.92 2.92 0 1 1-2.92-2.92 2.92 2.92 0 0 1 2.92 2.92Z" style="opacity:.5"/><path d="M277.17 196.1v7.3a2.45 2.45 0 0 1-2.12 2.48 2.36 2.36 0 0 1-2.61-2.35v-7.43a26.29 26.29 0 0 0-27.36-26.31 53.89 53.89 0 0 1 10.93-1h.87a16.64 16.64 0 0 1 10 3.47c4.58 3.53 10.29 10.63 10.29 23.84Z" style="fill:#b2299f"/><path d="M277.17 196.1v7.3a2.45 2.45 0 0 1-2.12 2.48 2.36 2.36 0 0 1-2.61-2.35v-7.43a26.29 26.29 0 0 0-27.36-26.31 53.89 53.89 0 0 1 10.93-1h.87a16.64 16.64 0 0 1 10 3.47c4.58 3.53 10.29 10.63 10.29 23.84Z" style="opacity:.5"/><path d="M265.93 333.67S261.09 347 278.39 353c0 0 5.65-8.3 0-15.09s-12.46-4.24-12.46-4.24Z" style="fill:#b2299f"/><path d="M265.93 333.67S261.09 347 278.39 353c0 0 5.65-8.3 0-15.09s-12.46-4.24-12.46-4.24Z" style="opacity:.7000000000000001"/><path d="M272 334.28s-16.9 6.19-16.81 8.59 7.18.76 7.18.76l-2.59 1.7a15.84 15.84 0 0 0-6.05 7.38 2.92 2.92 0 0 0 1.34 3.65l6.42 3.4a3.07 3.07 0 0 0 4.19-1.35 6 6 0 0 1 3.51-3c3.49-1.16 10-4.5 12.61-13.64Z" style="fill:#945959"/><path d="M277.07 248.41s-9 5-4.22 20.18 13.75 38.73 13.75 38.73l-20.67 26.35a15.82 15.82 0 0 1 11.07 6.64 14 14 0 0 1 1.39 12.69l25.66-33a23.25 23.25 0 0 0 3.64-21.83l-11-32.12a26.88 26.88 0 0 0-17-16.81ZM125.15 158.74l-39.77-23a3.35 3.35 0 0 0-3.17-.35 1.92 1.92 0 0 0-.31.18l-8.65 5.07h.06c-1.09.62-1.78 2.06-1.78 4.12V189c0 3.74 2.27 8.09 5.08 9.71l39.77 23a3.18 3.18 0 0 0 3.5.15.18.18 0 0 0-.07.05l8.59-5c1.12-.6 1.83-2.06 1.83-4.15v-44.31c0-3.74-2.23-8.09-5.08-9.71Z" style="fill:#b2299f"/><path d="M128.81 162.93a10.12 10.12 0 0 0-3.66-4.19l-39.77-23a3.35 3.35 0 0 0-3.17-.35 1.92 1.92 0 0 0-.31.18l-8.65 5.07a3.24 3.24 0 0 1 3.36.25l39.77 23a10.3 10.3 0 0 1 3.75 4.38Z" style="fill:#b2299f"/><path d="M121.46 217.82c0 2-.64 3.39-1.65 4l8.59-5c1.12-.6 1.83-2.06 1.83-4.15v-44.22a12.51 12.51 0 0 0-1.42-5.52l-8.68 5.34a12.49 12.49 0 0 1 1.33 5.33Z" style="fill:#b2299f"/><path d="M128.81 162.93a10.12 10.12 0 0 0-3.66-4.19l-39.77-23a3.35 3.35 0 0 0-3.17-.35 1.92 1.92 0 0 0-.31.18l-8.65 5.07a3.24 3.24 0 0 1 3.36.25l39.77 23a10.3 10.3 0 0 1 3.75 4.38Z" style="opacity:.30000000000000004"/><path d="M121.46 217.82c0 2-.64 3.39-1.65 4l8.59-5c1.12-.6 1.83-2.06 1.83-4.15v-44.22a12.51 12.51 0 0 0-1.42-5.52l-8.68 5.34a12.49 12.49 0 0 1 1.33 5.33Z" style="opacity:.6000000000000001"/><path d="M109.8 186.27c0 5.73-2.27 7.68-5.67 5.71a8 8 0 0 1-3.8-5c-1 1.23-2.55 1.31-4.73.05-3.58-2.07-6.4-7-6.4-11.79s2.79-6.44 6.4-4.36a11 11 0 0 1 4.26 4.57v-1.89l3.77 2.18v10.36a3 3 0 0 0 1.33 2.81c1.27.74 2.05-.51 2.05-4.22 0-6.49-4.16-13.37-10.31-16.92s-10.3-1.08-10.3 5.6a21 21 0 0 0 10.19 17.53 11.88 11.88 0 0 0 5.46 1.74l.89 3.45a14.21 14.21 0 0 1-6.35-2.09c-8-4.63-13.29-13.95-13.29-22.39s5.34-11.5 13.4-6.84c7.79 4.49 13.1 13.48 13.1 21.5Zm-9.88-4.81a7.34 7.34 0 0 0-3.47-6.35c-2-1.17-3.43-.35-3.43 2.37a7.39 7.39 0 0 0 3.43 6.39c2 1.13 3.47.4 3.47-2.41Z" style="fill:#b2299f"/><g style="opacity:.9"><path d="M109.8 186.27c0 5.73-2.27 7.68-5.67 5.71a8 8 0 0 1-3.8-5c-1 1.23-2.55 1.31-4.73.05-3.58-2.07-6.4-7-6.4-11.79s2.79-6.44 6.4-4.36a11 11 0 0 1 4.26 4.57v-1.89l3.77 2.18v10.36a3 3 0 0 0 1.33 2.81c1.27.74 2.05-.51 2.05-4.22 0-6.49-4.16-13.37-10.31-16.92s-10.3-1.08-10.3 5.6a21 21 0 0 0 10.19 17.53 11.88 11.88 0 0 0 5.46 1.74l.89 3.45a14.21 14.21 0 0 1-6.35-2.09c-8-4.63-13.29-13.95-13.29-22.39s5.34-11.5 13.4-6.84c7.79 4.49 13.1 13.48 13.1 21.5Zm-9.88-4.81a7.34 7.34 0 0 0-3.47-6.35c-2-1.17-3.43-.35-3.43 2.37a7.39 7.39 0 0 0 3.43 6.39c2 1.13 3.47.4 3.47-2.41Z" style="fill:#fff"/></g><path d="m125.15 237.52-39.77-23a3.31 3.31 0 0 0-3.17-.34 1.92 1.92 0 0 0-.31.18l-8.65 5.07h.06c-1.09.62-1.78 2.06-1.78 4.11v44.22c0 3.75 2.27 8.09 5.08 9.71l39.77 23a3.16 3.16 0 0 0 3.5.15l-.07.06 8.59-5.05c1.12-.59 1.83-2 1.83-4.15v-44.26c0-3.74-2.23-8.08-5.08-9.7Z" style="fill:#b2299f"/><path d="M128.81 241.71a10.06 10.06 0 0 0-3.66-4.19l-39.77-23a3.31 3.31 0 0 0-3.17-.34 1.92 1.92 0 0 0-.31.18l-8.65 5.07a3.23 3.23 0 0 1 3.36.24l39.77 23a10.27 10.27 0 0 1 3.75 4.39Z" style="fill:#b2299f"/><path d="M121.46 296.59c0 2-.64 3.39-1.65 4.05l8.59-5.05c1.12-.59 1.83-2 1.83-4.15v-44.22a12.47 12.47 0 0 0-1.42-5.51l-8.68 5.34a12.45 12.45 0 0 1 1.33 5.32Z" style="fill:#b2299f"/><path d="M128.81 241.71a10.06 10.06 0 0 0-3.66-4.19l-39.77-23a3.31 3.31 0 0 0-3.17-.34 1.92 1.92 0 0 0-.31.18l-8.65 5.07a3.23 3.23 0 0 1 3.36.24l39.77 23a10.27 10.27 0 0 1 3.75 4.39Z" style="opacity:.30000000000000004"/><path d="M121.46 296.59c0 2-.64 3.39-1.65 4.05l8.59-5.05c1.12-.59 1.83-2 1.83-4.15v-44.22a12.47 12.47 0 0 0-1.42-5.51l-8.68 5.34a12.45 12.45 0 0 1 1.33 5.32Z" style="opacity:.6000000000000001"/><path d="m92.05 257.29-9.59-15.58v21.11l9.59-5.53zM100.96 261.78l9.57 16.57v-21.08l-9.57 4.51zM83.91 241l9.85 16a.63.63 0 0 1 .11.12.28.28 0 0 1 0 .12L96.8 262l2.48-1.17a.69.69 0 0 1 .13-.11.75.75 0 0 1 .32-.1l10-4.69Z" style="fill:#b2299f"/><path d="m99.51 262.46-2.68 1.26a.75.75 0 0 1-.33.07.8.8 0 0 1-.69-.38l-2.93-4.76-9.62 5.56 25.89 14.94Z" style="fill:#b2299f"/><g style="opacity:.9"><path d="m92.05 257.29-9.59-15.58v21.11l9.59-5.53zM100.96 261.78l9.57 16.57v-21.08l-9.57 4.51zM83.91 241l9.85 16a.63.63 0 0 1 .11.12.28.28 0 0 1 0 .12L96.8 262l2.48-1.17a.69.69 0 0 1 .13-.11.75.75 0 0 1 .32-.1l10-4.69Z" style="fill:#fff"/><path d="m99.51 262.46-2.68 1.26a.75.75 0 0 1-.33.07.8.8 0 0 1-.69-.38l-2.93-4.76-9.62 5.56 25.89 14.94Z" style="fill:#fff"/></g><path d="M125.15 80 85.38 57a3.31 3.31 0 0 0-3.17-.34 1.92 1.92 0 0 0-.31.18l-8.65 5.07h.06c-1.09.61-1.78 2.06-1.78 4.11v44.22c0 3.74 2.27 8.09 5.08 9.71l39.77 23a3.16 3.16 0 0 0 3.5.15l-.07.05 8.59-5c1.12-.59 1.83-2 1.83-4.15V89.67c0-3.74-2.23-8.09-5.08-9.67Z" style="fill:#b2299f"/><path d="M128.81 84.16a10.09 10.09 0 0 0-3.66-4.2L85.38 57a3.31 3.31 0 0 0-3.17-.34 1.92 1.92 0 0 0-.31.18l-8.65 5.07a3.23 3.23 0 0 1 3.36.24l39.77 23a10.27 10.27 0 0 1 3.75 4.39Z" style="fill:#b2299f"/><path d="M121.46 139c0 2-.64 3.39-1.65 4l8.59-5c1.12-.59 1.83-2 1.83-4.15V89.67a12.47 12.47 0 0 0-1.42-5.51l-8.68 5.34a12.45 12.45 0 0 1 1.33 5.32Z" style="fill:#b2299f"/><path d="M128.81 84.16a10.09 10.09 0 0 0-3.66-4.2L85.38 57a3.31 3.31 0 0 0-3.17-.34 1.92 1.92 0 0 0-.31.18l-8.65 5.07a3.23 3.23 0 0 1 3.36.24l39.77 23a10.27 10.27 0 0 1 3.75 4.39Z" style="opacity:.30000000000000004"/><path d="M121.46 139c0 2-.64 3.39-1.65 4l8.59-5c1.12-.59 1.83-2 1.83-4.15V89.67a12.47 12.47 0 0 0-1.42-5.51l-8.68 5.34a12.45 12.45 0 0 1 1.33 5.32Z" style="opacity:.6000000000000001"/><path d="M108.45 120c-1.53-2.52-3.07-5-4.6-7.54a3.92 3.92 0 0 0-2.41-2c-.74-.15-1.48-.32-2.24-.54a1.38 1.38 0 0 1-.65-.56 63.22 63.22 0 0 1-5.93-13.6.75.75 0 0 1 .08-.61c.47-.47 1-.9 1.48-1.32s.73-1.39.38-2.65c-.74-2.67-1.45-5.34-2.19-8a4.38 4.38 0 0 0-2.86-3.32 8.09 8.09 0 0 0-4.9.18c-.61.23-.93.78-.94 1.73.26 1.83.43 3.64.78 5.5q3.7 20.12 17.8 37a2.85 2.85 0 0 0 2.23 1.28 6.72 6.72 0 0 0 4.23-1.63c.89-.8.8-2.22-.26-3.92ZM108.33 106.37a21.24 21.24 0 0 0-2.33-8.24 24.35 24.35 0 0 0-3.75-5.51c-.39-.44-.72-.58-.92-.25s0 .8.38 1.23l.39.45a21.07 21.07 0 0 1 5 11.33 4 4 0 0 0 .09.91 2.43 2.43 0 0 0 .59.91c.21.15.45 0 .62 0-.06-.41-.05-.62-.07-.83ZM99.27 98.16a8.45 8.45 0 0 1 2.17 5 3.18 3.18 0 0 0 .31.81c.61.5.91.33.91-.3a11 11 0 0 0-2.81-6.41c-.38-.39-.69-.51-.87-.18a1 1 0 0 0 .29 1.08Z" style="fill:#b2299f"/><g style="opacity:.9"><path d="M108.45 120c-1.53-2.52-3.07-5-4.6-7.54a3.92 3.92 0 0 0-2.41-2c-.74-.15-1.48-.32-2.24-.54a1.38 1.38 0 0 1-.65-.56 63.22 63.22 0 0 1-5.93-13.6.75.75 0 0 1 .08-.61c.47-.47 1-.9 1.48-1.32s.73-1.39.38-2.65c-.74-2.67-1.45-5.34-2.19-8a4.38 4.38 0 0 0-2.86-3.32 8.09 8.09 0 0 0-4.9.18c-.61.23-.93.78-.94 1.73.26 1.83.43 3.64.78 5.5q3.7 20.12 17.8 37a2.85 2.85 0 0 0 2.23 1.28 6.72 6.72 0 0 0 4.23-1.63c.89-.8.8-2.22-.26-3.92ZM108.33 106.37a21.24 21.24 0 0 0-2.33-8.24 24.35 24.35 0 0 0-3.75-5.51c-.39-.44-.72-.58-.92-.25s0 .8.38 1.23l.39.45a21.07 21.07 0 0 1 5 11.33 4 4 0 0 0 .09.91 2.43 2.43 0 0 0 .59.91c.21.15.45 0 .62 0-.06-.41-.05-.62-.07-.83ZM99.27 98.16a8.45 8.45 0 0 1 2.17 5 3.18 3.18 0 0 0 .31.81c.61.5.91.33.91-.3a11 11 0 0 0-2.81-6.41c-.38-.39-.69-.51-.87-.18a1 1 0 0 0 .29 1.08Z" style="fill:#fff"/></g><path d="m329.2 53.48 9.37 5.33V54c.34-4.39 3.67-6.08 7.73-3.73a15.14 15.14 0 0 1 4.62 4.43c.91-6 5.78-8.12 11.67-4.73 6.54 3.78 11.84 13 11.84 20.52v7.1a3.24 3.24 0 0 0 1.57 2.83l5.52 3.23a8 8 0 0 1 3.92 6.86 3.27 3.27 0 0 1-4.91 2.83l-51.19-29.59a9 9 0 0 1-4.48-7.75 2.9 2.9 0 0 1 4.34-2.52ZM400.63 52.09l6.81 3.91V52.5c.25-3.19 2.67-4.42 5.62-2.71a11 11 0 0 1 3.36 3.21c.67-4.34 4.21-5.91 8.49-3.44 4.76 2.75 8.61 9.43 8.61 14.92v5.17a2.34 2.34 0 0 0 1.16 2l4 2.35a5.78 5.78 0 0 1 2.85 5 2.38 2.38 0 0 1-3.53 2.08l-37.27-21.52a6.51 6.51 0 0 1-3.25-5.63 2.11 2.11 0 0 1 3.15-1.84Z" style="fill:#e6e6e6"/></svg>