<svg xmlns="http://www.w3.org/2000/svg" viewBox="0 0 500 500"><g id="freepik--background-simple--inject-4"><path d="M443.4,330.93s51.09-57.42,34.85-157.33-99.67-136.72-155-117.49-67.81,52.7-113,71.84-131.06,6-174,70.29,11.88,170.82,81.67,237.62S365.8,460.84,443.4,330.93Z" style="fill:#B2299F"></path><path d="M443.4,330.93s51.09-57.42,34.85-157.33-99.67-136.72-155-117.49-67.81,52.7-113,71.84-131.06,6-174,70.29,11.88,170.82,81.67,237.62S365.8,460.84,443.4,330.93Z" style="fill:#fff;opacity:0.7000000000000001"></path></g><g id="freepik--Floor--inject-4"><line x1="445" y1="475.44" x2="477.66" y2="475.44" style="fill:none;stroke:#263238;stroke-linecap:round;stroke-linejoin:round"></line><line x1="26.64" y1="475.44" x2="435" y2="475.44" style="fill:none;stroke:#263238;stroke-linecap:round;stroke-linejoin:round"></line></g><g id="freepik--Graphics--inject-4"><path d="M439,401.5l-16.5,23,5.83,3.94a13.88,13.88,0,0,1,6.11,11.5h11.94a13.87,13.87,0,0,1,6.1-11.5l5.83-3.94-16.49-23Z" style="fill:#fff;stroke:#263238;stroke-linecap:round;stroke-linejoin:round"></path><line x1="440.19" y1="401.8" x2="440.19" y2="420.33" style="fill:#fff;stroke:#263238;stroke-linecap:round;stroke-linejoin:round"></line><circle cx="440.19" cy="420.33" r="3.95" style="fill:#fff;stroke:#263238;stroke-linecap:round;stroke-linejoin:round"></circle><path d="M468,420.33a27.85,27.85,0,0,0-55.7,0" style="fill:none;stroke:#263238;stroke-linecap:round;stroke-linejoin:round"></path><rect x="465.96" y="418.25" width="4.16" height="4.16" style="fill:#fff;stroke:#263238;stroke-linejoin:round"></rect><rect x="409.96" y="418.25" width="4.16" height="4.16" style="fill:#fff;stroke:#263238;stroke-linejoin:round"></rect><rect x="438.11" y="390.4" width="4.16" height="4.16" style="fill:#fff;stroke:#263238;stroke-linejoin:round"></rect><circle cx="435.8" cy="321.62" r="27.59" transform="translate(-62.83 110.14) rotate(-13.44)" style="fill:none;stroke:#263238;stroke-linecap:round;stroke-linejoin:round"></circle><circle cx="435.8" cy="321.62" r="22.63" style="fill:none;stroke:#263238;stroke-linecap:round;stroke-linejoin:round"></circle><polyline points="435.8 330.63 435.8 321.62 455.67 321.62" style="fill:none;stroke:#263238;stroke-linecap:round;stroke-linejoin:round"></polyline><rect x="433.6" y="291.83" width="4.41" height="4.41" style="fill:#fff;stroke:#263238;stroke-linecap:round;stroke-linejoin:round"></rect><rect x="433.6" y="347.06" width="4.41" height="4.41" style="fill:#fff;stroke:#263238;stroke-linecap:round;stroke-linejoin:round"></rect><rect x="461.47" y="319.79" width="4.41" height="4.41" style="fill:#fff;stroke:#263238;stroke-linecap:round;stroke-linejoin:round"></rect><rect x="405.93" y="319.79" width="4.41" height="4.41" style="fill:#fff;stroke:#263238;stroke-linecap:round;stroke-linejoin:round"></rect><polygon points="455.06 340.52 458 364.69 463.41 355.4 474.16 355.61 455.06 340.52" style="fill:#263238"></polygon><rect x="465.89" y="363.86" width="4.14" height="4.14" style="fill:#263238"></rect><rect x="409.15" y="196.05" width="61.78" height="45.61" rx="4.4" style="fill:none;stroke:#263238;stroke-linecap:round;stroke-linejoin:round"></rect><line x1="409.42" y1="229.89" x2="470.66" y2="229.89" style="fill:none;stroke:#263238;stroke-linecap:round;stroke-linejoin:round"></line><rect x="432.07" y="241.65" width="15.95" height="12.2" style="fill:none;stroke:#263238;stroke-linecap:round;stroke-linejoin:round"></rect><rect x="426.9" y="253.88" width="26.07" height="2.33" style="fill:none;stroke:#263238;stroke-linecap:round;stroke-linejoin:round"></rect></g><g id="freepik--Plant--inject-4"><line x1="47.01" y1="304.33" x2="60.51" y2="433.66" style="fill:none;stroke:#263238;stroke-linecap:round;stroke-linejoin:round"></line><line x1="57.85" y1="408.37" x2="52.22" y2="402.44" style="fill:none;stroke:#263238;stroke-linecap:round;stroke-linejoin:round"></line><path d="M54.08,404.38a6.94,6.94,0,0,0-2.44-5.19c-1.57-1.4-9.83-4.88-10.62-2C40.17,400.39,48.63,406.61,54.08,404.38Z" style="fill:#B2299F;stroke:#263238;stroke-linejoin:round"></path><line x1="54.08" y1="404.38" x2="46.21" y2="399.48" style="fill:none;stroke:#263238;stroke-linecap:round;stroke-linejoin:round"></line><line x1="59.25" y1="421.73" x2="53.75" y2="417.15" style="fill:none;stroke:#263238;stroke-linecap:round;stroke-linejoin:round"></line><path d="M55.61,419.09a6.91,6.91,0,0,0-2.43-5.19c-1.57-1.4-9.84-4.88-10.62-2C41.7,415.1,50.16,421.31,55.61,419.09Z" style="fill:#B2299F;stroke:#263238;stroke-linejoin:round"></path><line x1="55.61" y1="419.09" x2="47.74" y2="414.19" style="fill:none;stroke:#263238;stroke-linecap:round;stroke-linejoin:round"></line><line x1="54.03" y1="371.55" x2="48.47" y2="366.55" style="fill:none;stroke:#263238;stroke-linecap:round;stroke-linejoin:round"></line><path d="M50.33,368.49a6.91,6.91,0,0,0-2.43-5.19c-1.57-1.4-9.84-4.88-10.62-2C36.42,364.5,44.88,370.72,50.33,368.49Z" style="fill:#B2299F;stroke:#263238;stroke-linejoin:round"></path><line x1="50.33" y1="368.49" x2="42.46" y2="363.59" style="fill:none;stroke:#263238;stroke-linecap:round;stroke-linejoin:round"></line><line x1="55.58" y1="387.19" x2="50.01" y2="381.26" style="fill:none;stroke:#263238;stroke-linecap:round;stroke-linejoin:round"></line><path d="M51.87,383.2A6.94,6.94,0,0,0,49.43,378c-1.57-1.4-9.84-4.88-10.62-2C38,379.21,46.42,385.42,51.87,383.2Z" style="fill:#B2299F;stroke:#263238;stroke-linejoin:round"></path><line x1="51.87" y1="383.2" x2="44" y2="378.3" style="fill:none;stroke:#263238;stroke-linecap:round;stroke-linejoin:round"></line><line x1="51.55" y1="348.34" x2="45.98" y2="342.66" style="fill:none;stroke:#263238;stroke-linecap:round;stroke-linejoin:round"></line><path d="M47.84,344.6a6.94,6.94,0,0,0-2.44-5.19c-1.57-1.4-9.83-4.88-10.62-2C33.93,340.61,42.39,346.82,47.84,344.6Z" style="fill:#B2299F;stroke:#263238;stroke-linejoin:round"></path><line x1="47.84" y1="344.6" x2="39.97" y2="339.7" style="fill:none;stroke:#263238;stroke-linecap:round;stroke-linejoin:round"></line><line x1="48.87" y1="322.79" x2="43.47" y2="318.67" style="fill:none;stroke:#263238;stroke-linecap:round;stroke-linejoin:round"></line><path d="M45.33,320.6a6.91,6.91,0,0,0-2.43-5.19c-1.57-1.4-9.84-4.88-10.62-2C31.42,316.61,39.88,322.83,45.33,320.6Z" style="fill:#B2299F;stroke:#263238;stroke-linejoin:round"></path><line x1="45.33" y1="320.6" x2="37.46" y2="315.7" style="fill:none;stroke:#263238;stroke-linecap:round;stroke-linejoin:round"></line><line x1="57.31" y1="400.21" x2="61.96" y2="392.62" style="fill:none;stroke:#263238;stroke-linecap:round;stroke-linejoin:round"></line><path d="M60.54,394.9a6.94,6.94,0,0,1,1.31-5.58c1.25-1.7,8.62-6.81,10-4.12C73.33,388.12,66.33,396,60.54,394.9Z" style="fill:#B2299F;stroke:#263238;stroke-linejoin:round"></path><line x1="60.54" y1="394.9" x2="66.08" y2="389.7" style="fill:none;stroke:#263238;stroke-linecap:round;stroke-linejoin:round"></line><line x1="53.27" y1="361.5" x2="57.92" y2="353.91" style="fill:none;stroke:#263238;stroke-linecap:round;stroke-linejoin:round"></line><path d="M56.5,356.19a6.94,6.94,0,0,1,1.31-5.58c1.25-1.69,7-5.94,8.38-3.26C67.68,350.27,62.29,357.25,56.5,356.19Z" style="fill:#B2299F;stroke:#263238;stroke-linejoin:round"></path><line x1="56.5" y1="356.19" x2="63.59" y2="349.42" style="fill:none;stroke:#263238;stroke-linecap:round;stroke-linejoin:round"></line><line x1="51.49" y1="344.49" x2="56.15" y2="336.91" style="fill:none;stroke:#263238;stroke-linecap:round;stroke-linejoin:round"></line><path d="M54.73,339.18A6.94,6.94,0,0,1,56,333.6c1.24-1.69,8.61-6.8,10-4.12C67.51,332.41,60.52,340.24,54.73,339.18Z" style="fill:#B2299F;stroke:#263238;stroke-linejoin:round"></path><line x1="54.73" y1="339.18" x2="61.81" y2="332.41" style="fill:none;stroke:#263238;stroke-linecap:round;stroke-linejoin:round"></line><line x1="48.89" y1="319.56" x2="53.54" y2="311.97" style="fill:none;stroke:#263238;stroke-linecap:round;stroke-linejoin:round"></line><path d="M52.12,314.25a6.92,6.92,0,0,1,1.32-5.58c1.24-1.7,8.61-6.81,10-4.12C64.91,307.47,57.92,315.3,52.12,314.25Z" style="fill:#B2299F;stroke:#263238;stroke-linejoin:round"></path><line x1="52.12" y1="314.25" x2="59.21" y2="307.48" style="fill:none;stroke:#263238;stroke-linecap:round;stroke-linejoin:round"></line><path d="M46.9,303.61A6.94,6.94,0,0,1,48.21,298c1.25-1.69,8.62-6.8,10-4.12C59.69,296.84,52.69,304.67,46.9,303.61Z" style="fill:#B2299F;stroke:#263238;stroke-linejoin:round"></path><line x1="46.9" y1="303.61" x2="53.99" y2="296.84" style="fill:none;stroke:#263238;stroke-linecap:round;stroke-linejoin:round"></line><path d="M47.31,303.91A7,7,0,0,1,41.9,302c-1.56-1.42-5.87-9.29-3-10.36C41.91,290.48,49,298.26,47.31,303.91Z" style="fill:#B2299F;stroke:#263238;stroke-linejoin:round"></path><line x1="47.31" y1="303.91" x2="41.32" y2="296.15" style="fill:none;stroke:#263238;stroke-linecap:round;stroke-linejoin:round"></line><line x1="67.23" y1="269.48" x2="67.23" y2="433.03" style="fill:none;stroke:#263238;stroke-linecap:round;stroke-linejoin:round"></line><line x1="82.61" y1="322.14" x2="69.19" y2="451.47" style="fill:none;stroke:#263238;stroke-linecap:round;stroke-linejoin:round"></line><line x1="72.03" y1="425.05" x2="68.92" y2="421.5" style="fill:none;stroke:#263238;stroke-linecap:round;stroke-linejoin:round"></line><path d="M68.92,421.5a6.94,6.94,0,0,0-1.31-5.58c-1.25-1.69-8.62-6.8-10-4.11C56.13,414.73,63.13,422.56,68.92,421.5Z" style="fill:#B2299F;stroke:#263238;stroke-linejoin:round"></path><line x1="68.92" y1="421.5" x2="62.23" y2="415.08" style="fill:none;stroke:#263238;stroke-linecap:round;stroke-linejoin:round"></line><line x1="75.82" y1="388.13" x2="71.21" y2="384.28" style="fill:none;stroke:#263238;stroke-linecap:round;stroke-linejoin:round"></line><path d="M72.65,385.61A6.92,6.92,0,0,0,71.33,380c-1.25-1.7-8.62-6.8-10-4.11C59.86,378.84,66.86,386.67,72.65,385.61Z" style="fill:#B2299F;stroke:#263238;stroke-linejoin:round"></path><line x1="72.65" y1="385.61" x2="65.96" y2="379.19" style="fill:none;stroke:#263238;stroke-linecap:round;stroke-linejoin:round"></line><line x1="74.36" y1="405.62" x2="69.7" y2="398.04" style="fill:none;stroke:#263238;stroke-linecap:round;stroke-linejoin:round"></line><path d="M71.12,400.32a6.94,6.94,0,0,0-1.31-5.58c-1.25-1.7-8.62-6.8-10-4.12C58.33,393.55,65.33,401.37,71.12,400.32Z" style="fill:#B2299F;stroke:#263238;stroke-linejoin:round"></path><line x1="71.12" y1="400.32" x2="64.43" y2="393.9" style="fill:none;stroke:#263238;stroke-linecap:round;stroke-linejoin:round"></line><line x1="78.15" y1="364.56" x2="73.71" y2="359.44" style="fill:none;stroke:#263238;stroke-linecap:round;stroke-linejoin:round"></line><path d="M75.13,361.72a6.92,6.92,0,0,0-1.32-5.58c-1.25-1.7-8.62-6.8-10-4.12C62.34,355,69.34,362.77,75.13,361.72Z" style="fill:#B2299F;stroke:#263238;stroke-linejoin:round"></path><line x1="75.13" y1="361.72" x2="68.44" y2="355.3" style="fill:none;stroke:#263238;stroke-linecap:round;stroke-linejoin:round"></line><line x1="80.49" y1="342.1" x2="76.2" y2="335.44" style="fill:none;stroke:#263238;stroke-linecap:round;stroke-linejoin:round"></line><path d="M77.62,337.72a6.92,6.92,0,0,0-1.32-5.58c-1.25-1.7-8.62-6.8-10-4.12C64.83,331,71.83,338.77,77.62,337.72Z" style="fill:#B2299F;stroke:#263238;stroke-linejoin:round"></path><line x1="77.62" y1="337.72" x2="70.93" y2="331.3" style="fill:none;stroke:#263238;stroke-linecap:round;stroke-linejoin:round"></line><line x1="72.94" y1="418.08" x2="79.06" y2="411.61" style="fill:none;stroke:#263238;stroke-linecap:round;stroke-linejoin:round"></line><path d="M77.2,413.55a6.91,6.91,0,0,1,2.43-5.19c1.57-1.4,9.84-4.89,10.62-2C91.11,409.55,82.65,415.77,77.2,413.55Z" style="fill:#B2299F;stroke:#263238;stroke-linejoin:round"></path><line x1="77.2" y1="413.55" x2="85.53" y2="408.38" style="fill:none;stroke:#263238;stroke-linecap:round;stroke-linejoin:round"></line><line x1="76.96" y1="379.37" x2="83.08" y2="372.91" style="fill:none;stroke:#263238;stroke-linecap:round;stroke-linejoin:round"></line><path d="M81.22,374.84a6.92,6.92,0,0,1,2.43-5.19c1.57-1.4,9.83-4.88,10.62-2C95.12,370.84,86.67,377.07,81.22,374.84Z" style="fill:#B2299F;stroke:#263238;stroke-linejoin:round"></path><line x1="81.22" y1="374.84" x2="89.55" y2="369.68" style="fill:none;stroke:#263238;stroke-linecap:round;stroke-linejoin:round"></line><line x1="78.73" y1="362.36" x2="84.84" y2="355.9" style="fill:none;stroke:#263238;stroke-linecap:round;stroke-linejoin:round"></line><path d="M83,357.84a7,7,0,0,1,2.44-5.2c1.56-1.4,9.83-4.88,10.61-2C96.89,353.83,88.43,360.06,83,357.84Z" style="fill:#B2299F;stroke:#263238;stroke-linejoin:round"></path><line x1="82.98" y1="357.84" x2="91.31" y2="352.67" style="fill:none;stroke:#263238;stroke-linecap:round;stroke-linejoin:round"></line><line x1="81.24" y1="336.15" x2="87.43" y2="330.96" style="fill:none;stroke:#263238;stroke-linecap:round;stroke-linejoin:round"></line><path d="M85.57,332.9A6.91,6.91,0,0,1,88,327.71c1.57-1.41,9.84-4.89,10.62-2C99.48,328.9,91,335.12,85.57,332.9Z" style="fill:#B2299F;stroke:#263238;stroke-linejoin:round"></path><line x1="85.57" y1="332.9" x2="93.9" y2="327.73" style="fill:#B2299F;stroke:#263238;stroke-linejoin:round"></line><path d="M82.65,321.42a6.94,6.94,0,0,1,2.43-5.2c1.57-1.4,9.83-4.88,10.62-2C96.56,317.42,88.1,323.64,82.65,321.42Z" style="fill:#B2299F;stroke:#263238;stroke-linejoin:round"></path><line x1="82.65" y1="321.42" x2="90.98" y2="316.25" style="fill:none;stroke:#263238;stroke-linecap:round;stroke-linejoin:round"></line><path d="M83,321.79a7,7,0,0,1-4.91-3c-1.23-1.7-3.82-10.29-.85-10.76C80.47,307.54,85.77,316.6,83,321.79Z" style="fill:#B2299F;stroke:#263238;stroke-linejoin:round"></path><line x1="82.99" y1="321.79" x2="78.72" y2="312.96" style="fill:none;stroke:#263238;stroke-linecap:round;stroke-linejoin:round"></line><line x1="67.01" y1="408.14" x2="61.95" y2="401.37" style="fill:none;stroke:#263238;stroke-linecap:round;stroke-linejoin:round"></line><path d="M63.6,403.49a6.91,6.91,0,0,0-1.89-5.41c-1.41-1.56-9.27-5.88-10.36-3.06C50.18,398.08,58,405.14,63.6,403.49Z" style="fill:#B2299F;stroke:#263238;stroke-linejoin:round"></path><line x1="63.6" y1="403.49" x2="56.28" y2="397.8" style="fill:none;stroke:#263238;stroke-linecap:round;stroke-linejoin:round"></line><line x1="67.19" y1="375.52" x2="61.95" y2="370.64" style="fill:none;stroke:#263238;stroke-linecap:round;stroke-linejoin:round"></line><path d="M63.6,372.76a6.93,6.93,0,0,0-1.89-5.42c-1.41-1.56-9.27-5.87-10.36-3.06C50.18,367.34,58,374.4,63.6,372.76Z" style="fill:#B2299F;stroke:#263238;stroke-linejoin:round"></path><line x1="63.6" y1="372.76" x2="56.28" y2="367.06" style="fill:none;stroke:#263238;stroke-linecap:round;stroke-linejoin:round"></line><line x1="67.36" y1="341.62" x2="61.95" y2="334.55" style="fill:none;stroke:#263238;stroke-linecap:round;stroke-linejoin:round"></line><path d="M63.6,336.67a6.91,6.91,0,0,0-1.89-5.41c-1.41-1.56-9.27-5.88-10.36-3.06C50.18,331.26,58,338.32,63.6,336.67Z" style="fill:#B2299F;stroke:#263238;stroke-linejoin:round"></path><line x1="63.6" y1="336.67" x2="56.28" y2="330.98" style="fill:none;stroke:#263238;stroke-linecap:round;stroke-linejoin:round"></line><line x1="67.01" y1="315.09" x2="61.95" y2="310.53" style="fill:none;stroke:#263238;stroke-linecap:round;stroke-linejoin:round"></line><path d="M63.6,312.65a6.91,6.91,0,0,0-1.89-5.41c-1.41-1.56-9.27-5.88-10.36-3.06C50.18,307.24,58,314.3,63.6,312.65Z" style="fill:#B2299F;stroke:#263238;stroke-linejoin:round"></path><line x1="63.6" y1="312.65" x2="56.28" y2="306.96" style="fill:none;stroke:#263238;stroke-linecap:round;stroke-linejoin:round"></line><line x1="67.3" y1="291.06" x2="62.05" y2="287.21" style="fill:none;stroke:#263238;stroke-linecap:round;stroke-linejoin:round"></line><path d="M63.6,288.52a6.91,6.91,0,0,0-1.89-5.41c-1.41-1.56-9.27-5.88-10.36-3.06C50.18,283.11,58,290.17,63.6,288.52Z" style="fill:#B2299F;stroke:#263238;stroke-linejoin:round"></path><line x1="63.6" y1="288.52" x2="56.28" y2="282.83" style="fill:none;stroke:#263238;stroke-linecap:round;stroke-linejoin:round"></line><line x1="68.29" y1="416.3" x2="72.66" y2="410.76" style="fill:none;stroke:#263238;stroke-linecap:round;stroke-linejoin:round"></line><path d="M71,412.88a7,7,0,0,1,1.88-5.42c1.42-1.56,9.28-5.87,10.36-3.06C84.43,407.46,76.66,414.53,71,412.88Z" style="fill:#B2299F;stroke:#263238;stroke-linejoin:round"></path><line x1="71.01" y1="412.88" x2="78.76" y2="406.88" style="fill:none;stroke:#263238;stroke-linecap:round;stroke-linejoin:round"></line><line x1="67.24" y1="368.94" x2="72.66" y2="361.88" style="fill:none;stroke:#263238;stroke-linecap:round;stroke-linejoin:round"></line><path d="M71,364a7,7,0,0,1,1.88-5.42c1.42-1.56,9.28-5.87,10.36-3.06C84.43,358.58,76.66,365.64,71,364Z" style="fill:#B2299F;stroke:#263238;stroke-linejoin:round"></path><line x1="71.01" y1="364" x2="78.76" y2="357.99" style="fill:none;stroke:#263238;stroke-linecap:round;stroke-linejoin:round"></line><line x1="67.24" y1="344.81" x2="72.66" y2="337.75" style="fill:none;stroke:#263238;stroke-linecap:round;stroke-linejoin:round"></line><path d="M71,339.87a7,7,0,0,1,1.88-5.42c1.42-1.55,9.28-5.87,10.36-3.06C84.43,334.45,76.66,341.52,71,339.87Z" style="fill:#B2299F;stroke:#263238;stroke-linejoin:round"></path><line x1="71.01" y1="339.87" x2="78.76" y2="333.87" style="fill:none;stroke:#263238;stroke-linecap:round;stroke-linejoin:round"></line><line x1="67.24" y1="312.92" x2="72.66" y2="305.86" style="fill:none;stroke:#263238;stroke-linecap:round;stroke-linejoin:round"></line><path d="M71,308a7,7,0,0,1,1.88-5.42c1.42-1.55,9.28-5.87,10.36-3.06C84.43,302.56,76.66,309.63,71,308Z" style="fill:#B2299F;stroke:#263238;stroke-linejoin:round"></path><line x1="71.01" y1="307.98" x2="78.76" y2="301.98" style="fill:none;stroke:#263238;stroke-linecap:round;stroke-linejoin:round"></line><line x1="67.48" y1="285.4" x2="72.79" y2="281.26" style="fill:none;stroke:#263238;stroke-linecap:round;stroke-linejoin:round"></line><path d="M71,282.91a7,7,0,0,1,1.88-5.42c1.42-1.55,9.28-5.87,10.36-3.06C84.43,277.49,76.66,284.56,71,282.91Z" style="fill:#B2299F;stroke:#263238;stroke-linejoin:round"></path><line x1="71.01" y1="282.91" x2="78.76" y2="276.91" style="fill:none;stroke:#263238;stroke-linecap:round;stroke-linejoin:round"></line><path d="M66.92,271.79a7,7,0,0,1,1.88-5.42c1.42-1.55,9.28-5.87,10.36-3.06C80.34,266.37,72.57,273.44,66.92,271.79Z" style="fill:#B2299F;stroke:#263238;stroke-linejoin:round"></path><line x1="66.92" y1="271.79" x2="74.67" y2="265.79" style="fill:none;stroke:#263238;stroke-linecap:round;stroke-linejoin:round"></line><path d="M67.3,272.12a6.94,6.94,0,0,1-5.19-2.44c-1.4-1.57-4.87-9.84-2-10.62C63.32,258.21,69.53,266.68,67.3,272.12Z" style="fill:#B2299F;stroke:#263238;stroke-linejoin:round"></path><line x1="67.3" y1="272.12" x2="62.14" y2="263.79" style="fill:none;stroke:#263238;stroke-linecap:round;stroke-linejoin:round"></line><polygon points="73.96 475.44 56.64 475.44 54.48 431.7 76.13 431.7 73.96 475.44" style="fill:#263238;stroke:#263238;stroke-linecap:round;stroke-linejoin:round"></polygon></g><g id="freepik--Device--inject-4"><polygon points="277.49 286.82 285.13 305.93 265 305.93 265 309.37 308.45 309.37 297.22 286.66 277.49 286.82" style="fill:#fff;stroke:#263238;stroke-linejoin:round"></polygon><polygon points="275.64 286.82 283.29 305.93 263.15 305.93 263.15 309.37 306.6 309.37 295.37 286.66 275.64 286.82" style="fill:#fff;stroke:#263238;stroke-linejoin:round"></polygon><path d="M339.87,287H231.58a3.65,3.65,0,0,1-3.64-3.81l3.53-81.75a4.26,4.26,0,0,1,4.25-4.07H344a3.84,3.84,0,0,1,3.83,4l-3.51,81.33A4.51,4.51,0,0,1,339.87,287Z" style="fill:#fff;stroke:#263238;stroke-linejoin:round"></path><path d="M334.33,287H226a3.64,3.64,0,0,1-3.64-3.81l3.53-81.75a4.25,4.25,0,0,1,4.25-4.07H338.5a3.84,3.84,0,0,1,3.83,4l-3.52,81.33A4.49,4.49,0,0,1,334.33,287Z" style="fill:#263238;stroke:#263238;stroke-linejoin:round"></path><polygon points="334.21 268.28 228.27 268.28 231.17 201.12 337.11 201.12 334.21 268.28" style="fill:#fff;stroke:#263238;stroke-linejoin:round"></polygon><path d="M270.08,230.06a12.66,12.66,0,0,0-13.69-13.3,14.16,14.16,0,0,0-12.88,12.14,12.82,12.82,0,0,0,2.61,9.69,12.55,12.55,0,0,1,2.66,8.39l-.08,1.83h14.41l.08-1.83a13.66,13.66,0,0,1,3.41-8.38A13.94,13.94,0,0,0,270.08,230.06Z" style="fill:#fff;stroke:#263238;stroke-linecap:round;stroke-linejoin:round"></path><polygon points="262.95 252.38 248.54 252.38 248.7 248.81 263.11 248.81 262.95 252.38" style="fill:#fff;stroke:#263238;stroke-linecap:round;stroke-linejoin:round"></polygon><path d="M259.23,256h-7.29a3.38,3.38,0,0,1-3.4-3.57H263A3.76,3.76,0,0,1,259.23,256Z" style="fill:#fff;stroke:#263238;stroke-linecap:round;stroke-linejoin:round"></path><path d="M257.25,259.51H253.6a3.38,3.38,0,0,1-3.4-3.57H261A3.76,3.76,0,0,1,257.25,259.51Z" style="fill:#fff;stroke:#263238;stroke-linecap:round;stroke-linejoin:round"></path><line x1="271.97" y1="230.13" x2="278.07" y2="230.13" style="fill:none;stroke:#263238;stroke-linecap:round;stroke-linejoin:round"></line><line x1="234.83" y1="230.13" x2="241.02" y2="230.13" style="fill:none;stroke:#263238;stroke-linecap:round;stroke-linejoin:round"></line><line x1="257.15" y1="214.63" x2="257.42" y2="208.51" style="fill:none;stroke:#263238;stroke-linecap:round;stroke-linejoin:round"></line><line x1="268.02" y1="219.06" x2="272.42" y2="214.84" style="fill:none;stroke:#263238;stroke-linecap:round;stroke-linejoin:round"></line><line x1="240.48" y1="245.42" x2="244.95" y2="241.14" style="fill:none;stroke:#263238;stroke-linecap:round;stroke-linejoin:round"></line><line x1="245.76" y1="218.94" x2="241.85" y2="214.84" style="fill:none;stroke:#263238;stroke-linecap:round;stroke-linejoin:round"></line><line x1="271.06" y1="245.42" x2="267.16" y2="241.34" style="fill:none;stroke:#263238;stroke-linecap:round;stroke-linejoin:round"></line><path d="M320,230.06a12.65,12.65,0,0,0-13.68-13.3,14.15,14.15,0,0,0-12.88,12.14,12.82,12.82,0,0,0,2.6,9.69,12.62,12.62,0,0,1,2.67,8.39l-.09,1.83h14.42l.08-1.83a13.66,13.66,0,0,1,3.41-8.38A13.87,13.87,0,0,0,320,230.06Z" style="fill:#263238;stroke:#fff;stroke-linecap:round;stroke-linejoin:round"></path><polygon points="312.92 252.38 298.5 252.38 298.66 248.81 313.08 248.81 312.92 252.38" style="fill:#263238;stroke:#fff;stroke-linecap:round;stroke-linejoin:round"></polygon><path d="M309.19,256h-7.28a3.39,3.39,0,0,1-3.41-3.57h14.42A3.77,3.77,0,0,1,309.19,256Z" style="fill:#263238;stroke:#fff;stroke-linecap:round;stroke-linejoin:round"></path><path d="M307.22,259.51h-3.65a3.39,3.39,0,0,1-3.41-3.57h10.78A3.77,3.77,0,0,1,307.22,259.51Z" style="fill:#263238;stroke:#fff;stroke-linecap:round;stroke-linejoin:round"></path><line x1="321.93" y1="230.13" x2="328.04" y2="230.13" style="fill:none;stroke:#263238;stroke-linecap:round;stroke-linejoin:round"></line><line x1="284.8" y1="230.13" x2="290.99" y2="230.13" style="fill:none;stroke:#263238;stroke-linecap:round;stroke-linejoin:round"></line><line x1="307.11" y1="214.63" x2="307.39" y2="208.51" style="fill:none;stroke:#263238;stroke-linecap:round;stroke-linejoin:round"></line><line x1="317.99" y1="219.06" x2="322.39" y2="214.84" style="fill:none;stroke:#263238;stroke-linecap:round;stroke-linejoin:round"></line><line x1="290.45" y1="245.42" x2="294.92" y2="241.14" style="fill:none;stroke:#263238;stroke-linecap:round;stroke-linejoin:round"></line><line x1="295.73" y1="218.94" x2="291.82" y2="214.84" style="fill:none;stroke:#263238;stroke-linecap:round;stroke-linejoin:round"></line><line x1="321.02" y1="245.42" x2="317.13" y2="241.34" style="fill:none;stroke:#263238;stroke-linecap:round;stroke-linejoin:round"></line><path d="M334.33,287H226a3.64,3.64,0,0,1-3.64-3.81l.45-10.51h116.4l-.44,10A4.49,4.49,0,0,1,334.33,287Z" style="fill:#fff;stroke:#263238;stroke-linejoin:round"></path></g><g id="freepik--Desk--inject-4"><rect x="312.41" y="311.95" width="55.71" height="163.51" style="fill:#263238;stroke:#263238;stroke-linejoin:round"></rect><rect x="316.04" y="311.95" width="55.71" height="163.51" style="fill:#7d7d7d;stroke:#263238;stroke-linejoin:round"></rect><rect x="316.04" y="311.95" width="55.71" height="8.58" style="fill:#263238;stroke:#263238;stroke-linejoin:round"></rect><rect x="151.93" y="311.95" width="55.71" height="163.51" style="fill:#263238;stroke:#263238;stroke-linejoin:round"></rect><rect x="155.56" y="311.95" width="55.71" height="163.51" style="fill:#7d7d7d;stroke:#263238;stroke-linejoin:round"></rect><rect x="144.05" y="309.01" width="241.88" height="5.54" style="fill:#263238;stroke:#263238;stroke-linejoin:round"></rect><rect x="313.14" y="309.01" width="72.79" height="5.54" style="fill:#fff;stroke:#263238;stroke-linejoin:round"></rect></g><g id="freepik--Character--inject-4"><path d="M296,309l-.11-.29a11.72,11.72,0,0,0-10.91-7.44h-4.63a11.74,11.74,0,0,0-10,5.64L269,309Z" style="fill:#fff;stroke:#263238;stroke-linejoin:round"></path><path d="M198,185.66s0,.75,0,1.85c-.07,2.72-.19,7.62-.19,8.78,0,1.61-2.54,3.92-2.54,5.54s1.39,6.7,1.85,8.31-4.16,3-4.16,3-2.08,7.63-5.08,9.47-9,0-10.16-.23-4.85-1.38-4.85-1.38l-.23,11.77-19.17-7.85,1.46-12.9.16-1.42s.69-10.85-.23-16.16c-1.62-9.29,2.08-21.25,16.39-24.25a25.22,25.22,0,0,1,24.71,8.31C197.56,180.58,198,185.66,198,185.66Z" style="fill:#fff;stroke:#263238;stroke-linejoin:round"></path><line x1="174.93" y1="197.44" x2="200.33" y2="199.98" style="fill:none;stroke:#263238;stroke-linejoin:round"></line><path d="M196.64,198.83l4.85.46s-.7,6.46-5.55,6.46" style="fill:none;stroke:#263238;stroke-linejoin:round"></path><path d="M190.17,214.53s-2.08.23-3.46-3.23" style="fill:none;stroke:#263238;stroke-linejoin:round"></path><line x1="194.1" y1="199.98" x2="192.71" y2="202.98" style="fill:none;stroke:#263238;stroke-linejoin:round"></line><path d="M192.71,196.75s1.62-2.54,4.16.69" style="fill:none;stroke:#263238;stroke-linejoin:round"></path><path d="M198,185.66s0,.75,0,1.85l-.34-.32s-6.32-5.74-10.63-6.6-3.16,5.45-2.29,6.6,6.6,3.44,3.72,5.46-5.45,3.73-5.45,3.73l-1.82,4.86a2.37,2.37,0,0,1-4.38.15c-.77-1.7-2.34-5.1-3-6.17-.86-1.43-6.54.51-6,6a6,6,0,0,0,3,5s2.76,1.9-3.55,5.92-8.61,4.59-11.77.58c-.17-.21-.34-.45-.53-.72l.16-1.42s.69-10.85-.23-16.16c-1.62-9.29,2.08-21.25,16.39-24.25a25.22,25.22,0,0,1,24.71,8.31C197.56,180.58,198,185.66,198,185.66Z" style="fill:#263238;stroke:#263238;stroke-linejoin:round"></path><path d="M251.94,453.67s9.55,3.38,15.09,3.08,9.85-2.78,11.09-.62-1.24,5.54-1.85,6.77-12.63,4.32-16.63,6.16-14.47,5.24-18.78,5.85-6.16-10.47-6.16-10.47Z" style="fill:#fff;stroke:#263238;stroke-linejoin:round"></path><path d="M254.71,467.52a179.74,179.74,0,0,1-17.58,4.57c.94,1.75,2.17,3.05,3.73,2.82,4.31-.61,14.78-4,18.78-5.85s16-4.92,16.63-6.16,3.08-4.61,1.85-6.77C273.5,465.06,264.26,464.44,254.71,467.52Z" style="fill:#fff;stroke:#263238;stroke-linejoin:round"></path><path d="M211.91,369.29l22.79,95.15a31.6,31.6,0,0,0,9.54-2.46c4.93-2.16,6.47-3.39,7.7-4.93s-.31-6.77-.31-7.69-2.77-2.16-2.77-2.16l-8.62-81.91Z" style="fill:#263238;stroke:#263238;stroke-linejoin:round"></path><path d="M231.24,456.25s3.7,5.85,7.08,7.7,6.47,3.08,8.32,3.08,3.39,3.7,3.69,4.93a15.69,15.69,0,0,1,.31,3.08H222.31s-17.24-2.16-18.78-6.16,10.16-19.09,10.16-19.09Z" style="fill:#fff;stroke:#263238;stroke-linejoin:round"></path><path d="M250.45,472.56c-6.63-.07-21.49-.38-28.75-1.83a182.83,182.83,0,0,1-17.89-4.85,4.85,4.85,0,0,0-.28,3c1.54,4,18.78,6.16,18.78,6.16h28.33A17.83,17.83,0,0,0,250.45,472.56Z" style="fill:#fff;stroke:#263238;stroke-linejoin:round"></path><path d="M188.25,326.85l8.62,7.69s37.26,2.78,50.19,3.39,21.55,4.31,21.25,10.47-36.25,102.82-36.25,102.82l-.05,5.64s-1.54,1.54-8.31,0a33.47,33.47,0,0,1-11.09-4.62s-1.23-5.85,1.85-8.31,6.43-17.62,6.43-17.62l12.62-61H139.59a70.53,70.53,0,0,1-1.84-34.18S170.39,337.32,188.25,326.85Z" style="fill:#263238;stroke:#263238;stroke-linejoin:round"></path><path d="M176.3,234.49a152.34,152.34,0,0,0-14.77-9.57c-8.11-4.57-10-2.28-14.14.21s-22.47,14.36-23.92,18.31,0,8.94,0,8.94,7.07,43.69,8.94,61.16,7.28,26.21,18.72,27.46,29.54-5,34.33-7.7,5.2-1.66,4.78-6.86-5-23.72-5.62-27.88-.2-13.52-.2-13.52,4.36-21,1-32.45A51.39,51.39,0,0,0,176.3,234.49Z" style="fill:#B2299F;stroke:#263238;stroke-linejoin:round"></path><path d="M234.51,292.36,268,299.29s9.7-5.31,12.24-5.55,8.08,3.93,9.24,4.39,2.31,2.31,2.77,3.93,2.31,1.15.69,2.54-3.69-1.39-3.69-1.39-4.62.23-7.16,1.62-5.78,3.46-9.24,3.93a24.34,24.34,0,0,1-7.85-.7l-33.95-2.54S235.67,298.13,234.51,292.36Z" style="fill:#fff;stroke:#263238;stroke-linejoin:round"></path><path d="M283.93,300.67s2.78-.92,4.62-.23,3.7,1.62,3.7,1.62" style="fill:none;stroke:#263238;stroke-linejoin:round"></path><line x1="175.54" y1="280.67" x2="165.81" y2="278.4" style="fill:#B2299F;stroke:#263238;stroke-linejoin:round"></line><path d="M173.08,233.93s6.24,1.39,10.16,5.31,30.72,43.19,31.64,43.88,15,8.08,15,8.08,1.16,6.7-.92,9-7.16,5.31-7.16,5.31-12.47-1.38-16.4-2.31-39.49-29.79-39.49-29.79" style="fill:#B2299F;stroke:#263238;stroke-linejoin:round"></path><path d="M208.13,286c1.39.06,2.81.09,4.27.09" style="fill:none;stroke:#263238;stroke-linejoin:round"></path><path d="M182.13,281.48a97.9,97.9,0,0,0,22.43,4.31" style="fill:none;stroke:#263238;stroke-linejoin:round"></path><path d="M224.12,287.74s2.31,6.24.23,10.62a21.43,21.43,0,0,1-5.77,7.16s10.62,1.85,12.7,1.85,5.77-9,5.54-13.63S224.12,287.74,224.12,287.74Z" style="fill:#fff;stroke:#263238;stroke-linejoin:round"></path><path d="M233.51,365.34A59.69,59.69,0,0,0,252,356.1" style="fill:none;stroke:#878787;stroke-linejoin:round"></path><path d="M239.36,363.8s8.93-1.23,13.86-4.62" style="fill:none;stroke:#878787;stroke-linejoin:round"></path><path d="M192.12,366.17s-25.53-41.6-32.21-99.63c-1.58-13.72-12.59-24.07-25.7-24.07h0c-15.47,0-27.49,14.23-25.72,30.45,2.77,25.34,8.9,62.3,22.36,94.26Z" style="fill:#fff;stroke:#263238;stroke-linejoin:round"></path><path d="M188.58,366.17s-25.53-41.6-32.21-99.63c-1.58-13.72-12.59-24.07-25.7-24.07h0c-15.47,0-27.49,14.23-25.72,30.45,2.77,25.34,8.9,62.3,22.36,94.26Z" style="fill:#263238;stroke:#263238;stroke-linejoin:round"></path><rect x="176.85" y="374.04" width="12.74" height="69.76" style="fill:#263238;stroke:#263238;stroke-linejoin:round"></rect><rect x="172" y="431.37" width="21.54" height="15.47" style="fill:#263238;stroke:#263238;stroke-linejoin:round"></rect><polygon points="172.3 439.26 131.96 464.13 131.96 468.68 135.9 468.68 135.9 465.64 172 446.84 172.3 439.26" style="fill:#fff;stroke:#263238;stroke-linejoin:round"></polygon><path d="M142,469.59a5.46,5.46,0,1,0-5.46,5.46A5.46,5.46,0,0,0,142,469.59Z" style="fill:#263238;stroke:#263238;stroke-linejoin:round"></path><polygon points="193.53 439.26 233.87 464.13 233.87 468.68 229.93 468.68 229.93 465.64 193.83 446.84 193.53 439.26" style="fill:#fff;stroke:#263238;stroke-linejoin:round"></polygon><path d="M223.86,469.59a5.46,5.46,0,1,1,5.46,5.46A5.46,5.46,0,0,1,223.86,469.59Z" style="fill:#263238;stroke:#263238;stroke-linejoin:round"></path><path d="M177.76,469.59a5.46,5.46,0,1,1,5.46,5.46A5.45,5.45,0,0,1,177.76,469.59Z" style="fill:#263238;stroke:#263238;stroke-linejoin:round"></path><rect x="181.4" y="438.95" width="3.34" height="25.18" style="fill:#fff;stroke:#263238;stroke-linejoin:round"></rect><rect x="194.82" y="345.17" width="37.34" height="6.47" transform="translate(-174.77 475.74) rotate(-76.66)" style="fill:#fff;stroke:#263238;stroke-linejoin:round"></rect><rect x="191.94" y="323.46" width="46.19" height="9.24" rx="4.62" style="fill:#263238;stroke:#263238;stroke-linejoin:round"></rect><path d="M233.2,376.73H130.05a5.54,5.54,0,0,1-5.54-5.54h0a5.55,5.55,0,0,1,5.54-5.55H233.2a5.56,5.56,0,0,1,5.55,5.55h0A5.55,5.55,0,0,1,233.2,376.73Z" style="fill:#263238;stroke:#263238;stroke-linejoin:round"></path><path d="M233.2,376.73H188.55a5.54,5.54,0,0,1-5.54-5.54h0a5.55,5.55,0,0,1,5.54-5.55H233.2a5.56,5.56,0,0,1,5.55,5.55h0A5.55,5.55,0,0,1,233.2,376.73Z" style="fill:#fff;stroke:#263238;stroke-linejoin:round"></path></g><g id="freepik--icon-3--inject-4"><rect x="327.59" y="36.48" width="98.66" height="116.47" style="fill:none;stroke:#B2299F;stroke-linejoin:round"></rect><path d="M407.65,85.83a30.07,30.07,0,1,0-53.18,19.23A29.54,29.54,0,0,1,361.32,124v4.12h32.51V124a29.47,29.47,0,0,1,6.84-18.9A30,30,0,0,0,407.65,85.83Z" style="fill:#fff;stroke:#263238;stroke-linecap:round;stroke-linejoin:round;stroke-width:3px"></path><rect x="361.32" y="128.11" width="32.51" height="8.04" style="fill:#fff;stroke:#263238;stroke-linecap:round;stroke-linejoin:round;stroke-width:3px"></rect><path d="M361.32,136.17h32.51a0,0,0,0,1,0,0v3.32a4.73,4.73,0,0,1-4.73,4.73H366a4.73,4.73,0,0,1-4.73-4.73v-3.32A0,0,0,0,1,361.32,136.17Z" style="fill:#fff;stroke:#263238;stroke-linecap:round;stroke-linejoin:round;stroke-width:3px"></path><path d="M365.42,144.2h24.3a0,0,0,0,1,0,0v1.63a6.41,6.41,0,0,1-6.41,6.41H371.83a6.41,6.41,0,0,1-6.41-6.41V144.2A0,0,0,0,1,365.42,144.2Z" style="fill:#fff;stroke:#263238;stroke-linecap:round;stroke-linejoin:round;stroke-width:3px"></path><line x1="411.91" y1="85.98" x2="425.69" y2="85.98" style="fill:none;stroke:#263238;stroke-linecap:round;stroke-linejoin:round;stroke-width:3px"></line><line x1="328.17" y1="85.98" x2="342.12" y2="85.98" style="fill:none;stroke:#263238;stroke-linecap:round;stroke-linejoin:round;stroke-width:3px"></line><line x1="376.93" y1="51.04" x2="376.93" y2="37.23" style="fill:none;stroke:#263238;stroke-linecap:round;stroke-linejoin:round;stroke-width:3px"></line><line x1="401.9" y1="61.01" x2="411.41" y2="51.51" style="fill:none;stroke:#263238;stroke-linecap:round;stroke-linejoin:round;stroke-width:3px"></line><line x1="342.45" y1="120.46" x2="352.1" y2="110.81" style="fill:none;stroke:#263238;stroke-linecap:round;stroke-linejoin:round;stroke-width:3px"></line><line x1="351.69" y1="60.74" x2="342.45" y2="51.51" style="fill:none;stroke:#263238;stroke-linecap:round;stroke-linejoin:round;stroke-width:3px"></line><line x1="411.41" y1="120.46" x2="402.21" y2="111.27" style="fill:none;stroke:#263238;stroke-linecap:round;stroke-linejoin:round;stroke-width:3px"></line></g><g id="freepik--icon-2--inject-4"><rect x="204" y="36.48" width="98.66" height="116.47" style="fill:none;stroke:#B2299F;stroke-linejoin:round"></rect><path d="M283.48,85.83a30.07,30.07,0,1,0-53.17,19.23A29.54,29.54,0,0,1,237.16,124v4.12h32.5V124a29.47,29.47,0,0,1,6.84-18.9A29.92,29.92,0,0,0,283.48,85.83Z" style="fill:none;stroke:#263238;stroke-linecap:round;stroke-linejoin:round;stroke-width:3px"></path><rect x="237.16" y="128.11" width="32.51" height="8.04" style="fill:none;stroke:#263238;stroke-linecap:round;stroke-linejoin:round;stroke-width:3px"></rect><path d="M237.16,136.17h32.51a0,0,0,0,1,0,0v3.32a4.73,4.73,0,0,1-4.73,4.73H241.88a4.73,4.73,0,0,1-4.73-4.73v-3.32A0,0,0,0,1,237.16,136.17Z" style="fill:none;stroke:#263238;stroke-linecap:round;stroke-linejoin:round;stroke-width:3px"></path><path d="M241.26,144.2h24.3a0,0,0,0,1,0,0v1.63a6.41,6.41,0,0,1-6.41,6.41H247.67a6.41,6.41,0,0,1-6.41-6.41V144.2A0,0,0,0,1,241.26,144.2Z" style="fill:none;stroke:#263238;stroke-linecap:round;stroke-linejoin:round;stroke-width:3px"></path><line x1="218.5" y1="85.98" x2="288.29" y2="85.98" style="fill:none;stroke:#B2299F;stroke-linejoin:round"></line><line x1="253.31" y1="134.74" x2="253.31" y2="51.04" style="fill:none;stroke:#B2299F;stroke-linejoin:round"></line><line x1="228.48" y1="110.81" x2="278.28" y2="61.01" style="fill:none;stroke:#B2299F;stroke-linejoin:round"></line><line x1="278.59" y1="111.27" x2="228.06" y2="60.74" style="fill:none;stroke:#B2299F;stroke-linejoin:round"></line><circle cx="253.4" cy="85.93" r="49.2" style="fill:none;stroke:#B2299F;stroke-linejoin:round"></circle><circle cx="253.4" cy="85.93" r="34.9" style="fill:none;stroke:#B2299F;stroke-linejoin:round"></circle><line x1="287.75" y1="85.98" x2="301.52" y2="85.98" style="fill:none;stroke:#263238;stroke-linecap:round;stroke-linejoin:round;stroke-width:3px"></line><line x1="204.01" y1="85.98" x2="217.96" y2="85.98" style="fill:none;stroke:#263238;stroke-linecap:round;stroke-linejoin:round;stroke-width:3px"></line><line x1="252.76" y1="51.04" x2="252.76" y2="37.23" style="fill:none;stroke:#263238;stroke-linecap:round;stroke-linejoin:round;stroke-width:3px"></line><line x1="277.73" y1="61.01" x2="287.24" y2="51.51" style="fill:none;stroke:#263238;stroke-linecap:round;stroke-linejoin:round;stroke-width:3px"></line><line x1="218.29" y1="120.46" x2="227.94" y2="110.81" style="fill:none;stroke:#263238;stroke-linecap:round;stroke-linejoin:round;stroke-width:3px"></line><line x1="227.52" y1="60.74" x2="218.29" y2="51.51" style="fill:none;stroke:#263238;stroke-linecap:round;stroke-linejoin:round;stroke-width:3px"></line><line x1="287.24" y1="120.46" x2="278.05" y2="111.27" style="fill:none;stroke:#263238;stroke-linecap:round;stroke-linejoin:round;stroke-width:3px"></line></g><g id="freepik--icon-1--inject-4"><rect x="80.28" y="36.48" width="98.66" height="116.47" style="fill:none;stroke:#B2299F;stroke-linejoin:round"></rect><circle cx="129.99" cy="85.83" r="30.07" style="fill:none;stroke:#263238;stroke-linejoin:round"></circle><rect x="113.74" y="90.72" width="32.51" height="37.38" style="fill:none;stroke:#263238;stroke-linejoin:round"></rect><rect x="113.74" y="128.11" width="32.51" height="8.04" style="fill:none;stroke:#263238;stroke-linejoin:round"></rect><rect x="113.74" y="136.17" width="32.51" height="8.04" style="fill:none;stroke:#263238;stroke-linejoin:round"></rect><rect x="117.84" y="144.2" width="24.3" height="8.04" style="fill:none;stroke:#263238;stroke-linejoin:round"></rect><line x1="81.17" y1="86.04" x2="178.69" y2="86.04" style="fill:none;stroke:#B2299F;stroke-linejoin:round"></line><line x1="129.81" y1="135.23" x2="129.81" y2="37.23" style="fill:none;stroke:#B2299F;stroke-linejoin:round"></line><line x1="95.11" y1="120.72" x2="164.7" y2="51.17" style="fill:none;stroke:#B2299F;stroke-linejoin:round"></line><line x1="164.48" y1="120.56" x2="94.98" y2="51.36" style="fill:none;stroke:#B2299F;stroke-linejoin:round"></line><circle cx="129.99" cy="85.93" r="49.2" style="fill:none;stroke:#B2299F;stroke-linejoin:round"></circle><circle cx="129.99" cy="85.93" r="34.9" style="fill:none;stroke:#B2299F;stroke-linejoin:round"></circle></g></svg>