<svg xmlns="http://www.w3.org/2000/svg" viewBox="0 0 500 500"><path d="M89.17 257.05C.34 308.33.35 391.47 89.17 442.76s232.83 51.24 321.66 0 88.82-134.43 0-185.71-232.83-51.29-321.66 0Z" style="fill:#fafafa"/><ellipse cx="217.36" cy="439.42" rx="42.91" ry="24.77" style="fill:#e0e0e0"/><ellipse cx="289.24" cy="419.81" rx="46.02" ry="26.57" style="fill:#e0e0e0"/><path d="m74.4 408.32-9.32 5.38a122.57 122.57 0 0 0-3-27.26c-6.18-28.72-18.72-33.71-24.83-44.89-6.42-11.76 1.83-18.81 9.61-17.6 7 1.07 18 9.62 23.47 27.27 7.31 23.27 5.52 46.49 4.07 57.1Z" style="fill:#b2299f"/><path d="m74.4 408.32-9.32 5.38a122.57 122.57 0 0 0-3-27.26c-6.18-28.72-18.72-33.71-24.83-44.89-6.42-11.76 1.83-18.81 9.61-17.6 7 1.07 18 9.62 23.47 27.27 7.31 23.27 5.52 46.49 4.07 57.1Z" style="fill:#fff;opacity:.5"/><path d="M68.92 406.05a.49.49 0 0 1-.41-.56c4.94-34.57-10.48-64.36-23-74.46a.49.49 0 0 1-.07-.69.47.47 0 0 1 .68-.08c12.71 10.26 28.35 40.42 23.36 75.37a.5.5 0 0 1-.56.42Z" style="fill:#fff"/><path d="m69.73 411-4.65 2.68-.76.44c-1.53-6.95-5.62-14.2-13.37-22-9.09-9.11-21.76-17.62-19.52-25.27s12.46-5.63 19.52-1.1c6.63 4.31 20.75 20.02 18.78 45.25Z" style="fill:#b2299f"/><path d="m69.73 411-4.65 2.68-.76.44c-1.53-6.95-5.62-14.2-13.37-22-9.09-9.11-21.76-17.62-19.52-25.27s12.46-5.63 19.52-1.1c6.63 4.31 20.75 20.02 18.78 45.25Z" style="fill:#fff;opacity:.65"/><path d="M67.26 408.87a.5.5 0 0 1-.42-.47c-.65-16.94-19.24-38.87-28.1-42.47a.49.49 0 1 1 .37-.9c9.28 3.77 28 25.73 28.7 43.33a.48.48 0 0 1-.47.51Z" style="fill:#fff"/><path style="fill:#b2299f" d="m331.38 71.91 5.33 23.86 21.92 12.83-5.45-24.11-21.8-12.58z"/><path style="opacity:.2" d="m331.38 71.91 5.33 23.86 21.92 12.83-5.45-24.11-21.8-12.58z"/><path style="fill:#b2299f" d="m284.13 189.61 69.05-105.12-21.8-12.58 82.88-23.39 15.09 79.95-21.74-12.55-69.05 105.11-54.43-31.42z"/><path style="fill:#fff;opacity:.2" d="m284.13 189.61 69.05-105.12-21.8-12.58 82.88-23.39 15.09 79.95-21.74-12.55-69.05 105.11-54.43-31.42z"/><path style="fill:#b2299f" d="m407.61 115.92-69.02 105.11 12.22 13.9 62.33-94.87 21.69 12.53-5.48-24.12-21.74-12.55z"/><path style="opacity:.2" d="m407.61 115.92-69.02 105.11 12.22 13.9 62.33-94.87 21.69 12.53-5.48-24.12-21.74-12.55z"/><path style="fill:#b2299f" d="m296.35 203.6-12.22-13.89 54.46 31.32 12.22 13.9-54.46-31.33z"/><path style="opacity:.4" d="m296.35 203.6-12.22-13.89 54.46 31.32 12.22 13.9-54.46-31.33z"/><path style="opacity:.2" d="m413.14 140.06-5.53-24.14 21.74 12.55 5.48 24.12-21.69-12.53z"/><path style="fill:#b2299f" d="m104.26 460.12 80.69-122.53-54.43-31.42L49.83 428.7l54.43 31.42z"/><path style="fill:#fff;opacity:.2" d="m104.26 460.12 80.69-122.53-54.43-31.42L49.83 428.7l54.43 31.42z"/><path style="fill:#b2299f" d="m184.95 337.59-80.69 122.53 32.65-18.85 58.85-89.01-10.81-14.67z"/><path style="opacity:.2" d="m184.95 337.59-80.69 122.53 32.65-18.85 58.85-89.01-10.81-14.67z"/><path d="M328.92 395.62v22.76c-.79 5.2-4.64 10.29-11.54 14.27-15.6 9-40.89 9-56.49 0-8-4.64-11.94-10.78-11.68-16.86 0-.52.1-1.06.16-1.62v-.06c.68-5.91 1.16-11.83 1.49-17.38.53-8.81.46-12.69.39-17.43-.09-5.85-2.52-10.44-8.69-15.63s-18.44-22.93-18.44-22.93l81.37-41.83 23.13 73.28s.3 17.65.3 23.43Z" style="fill:#ffa8a7"/><path d="M306.12 283.73s-1.53 6.16-8.8-2-19.17-20.62-31.71-32.61c-6-5.75-30.08-25.11-46.23-39.75-5.15-5.31-12.46-9-17.49-5.16s-5 13.35-1.87 18.05c2.8 4.17 8.8 9.95 13.38 14.1 0 .25-.05.5-.08.75-.87 7.57-2.42 16.08-3.15 25.25-.44 5.47-7 12.35-6.94 18 1.94 8 12.53 16.57 20 22.55s10.75 8.41 10.67 10.3c-.13 2.89-12.26-7.63-17.65-11.33.3 17.17-10.68 19.24-10.68 19.24 1.65 3.3 11 10.58 24.31 27.61 5.25 6.73 58.69-37.51 58.69-37.51l12.69-8.15 8.93-14.77Z" style="fill:#ffa8a7"/><path d="M301.69 298.88c-5 6.3-24.71 26.4-9.21 53.05a22.67 22.67 0 0 1-2.9-3.27 36.41 36.41 0 0 1-5.21-9.71c-.05-.13-.09-.25-.13-.38-3.52-10.14-2.32-20.47 4.25-29.19 5.17-6.85 14.58-13.51 15.84-20.9 0-.27.07-.54.09-.8.22 2.32.48 7.18-2.73 11.2Z" style="fill:#f28f8f"/><path d="M199 208c-2 4.52-1.39 10.74 1 14.26 2.8 4.17 8.8 9.95 13.38 14.1l-.06.6c2 1.73 4.19 3.57 6.57 5.67 5.74 5.05 13.33 11.57 19.06 16.63 2.87 2.53 16.5 13.5 21.45 17.91-7.61-8.35-24.71-23.5-33.31-32-6.49-6.39-16.07-15.31-19.18-18.87s-4.94-6-6-7.32A14.29 14.29 0 0 1 199 208Z" style="fill:#f28f8f;opacity:.5"/><path d="M213.62 328.5a11.09 11.09 0 0 0 7.55-4.56c2-3.33 2.39-5.92 1.85-11.12a40.49 40.49 0 0 0-1.47-7.17c-1.78-1.28-3.64-2.66-5.29-3.79.3 17.17-10.68 19.24-10.68 19.24.75 1.49 3.08 3.81 6.64 7.48.47-.01.93-.04 1.4-.08ZM204.83 259.12c-.43.39 5.65 6.25 6.29 6.6 2.25 1.26 6.55-.3 8.41-1.86a9.64 9.64 0 0 0 2.63-3.72c2-4.8 1-10.29 0-15.4a2.88 2.88 0 0 0-1.11-2.1c-.12 2.68-2.48 3.84-4.22 5.45l-5 4.59Z" style="fill:#f28f8f"/><path style="fill:#f28f8f" d="m218.65 262.27 31.82 32.12-37.15-31.14 5.33-.98z"/><path d="M214.3 289.71a10.73 10.73 0 0 0 6.72-6.53c.91-2.61.76-5.45.58-8.21a22.42 22.42 0 0 0-1.18-6.91l-14.88 5.06c-1.3 2.49-2.35 5-2.31 7.22.79 3.25 2.86 6.54 5.77 9.7a11.59 11.59 0 0 0 5.3-.33Z" style="fill:#f28f8f"/><path d="M210.34 236.13c6.54-.6 10 2.27 11.44 8.14a28.74 28.74 0 0 1 0 10.09c-.62 4.36-4.74 9.59-10.06 8.81h-.26c-8.6-1.4-9.57-6-9.57-13.47s2.63-13.04 8.45-13.57Z" style="fill:#ffa8a7"/><path d="M218.06 237.86c.48.41 3.25 3.13 3.28 10.65 0 8.22-4.1 9.92-8.66 10.66S202 257.06 202 253c.39 5.53 2.22 9 9.47 10.18h.26c5.32.78 9.44-4.45 10.06-8.81a28.74 28.74 0 0 0 0-10.09 11.11 11.11 0 0 0-3.73-6.42Z" style="fill:#f28f8f;opacity:.5"/><path d="M210.49 262.34c6-.55 9.11 2.07 10.45 7.43a26.51 26.51 0 0 1 0 9.22c-.56 4-4.34 8.76-9.19 8h-.24c-7.85-1.28-8.74-5.5-8.74-12.3s2.4-11.87 7.72-12.35Z" style="fill:#ffa8a7"/><path d="M218.82 265.17c.84 1.25 1.45 4.33 1 9-.65 6.11-2 9.07-7.29 9.46-5.53.39-8.93-2.17-9.52-4.86.53 4.44 2.4 7.25 8.55 8.25h.24c4.85.72 8.63-4 9.19-8a26.51 26.51 0 0 0 0-9.22 11.89 11.89 0 0 0-2.17-4.63Z" style="fill:#f28f8f;opacity:.5"/><path d="M210.81 299.3c6.2-.56 10.84 2.38 10.84 7.72v9.57a8.39 8.39 0 0 1-9.54 8.35h-.24c-8.15-1.33-8.05-8.77-8.15-12.68s1.57-12.45 7.09-12.96Z" style="fill:#ffa8a7"/><path d="M218.63 301c2.71 2.83 1.65 8.6 1.45 14.29-.15 3.95-2.2 7.22-7.6 7.22s-7.82-3.29-8.55-6.52c.45 3.73 2 7.94 7.94 8.91h.24a8.39 8.39 0 0 0 9.54-8.35V307a7.05 7.05 0 0 0-3.02-6Z" style="fill:#f28f8f;opacity:.5"/><path style="fill:#b2299f" d="m142.07 297.42 133.39-101.14 54.47 31.43L196.5 328.85l-54.43-31.43z"/><path style="fill:#b2299f" d="m329.93 227.71 12.22 13.89-134.84 101.91-10.81-14.66 133.43-101.14z"/><path style="opacity:.2" d="m329.93 227.71 12.22 13.89-134.84 101.91-10.81-14.66 133.43-101.14z"/><path style="fill:#b2299f" d="m142.07 297.42 10.81 14.67 54.43 31.42-10.81-14.66-54.43-31.43z"/><path style="opacity:.4" d="m142.07 297.42 10.81 14.67 54.43 31.42-10.81-14.66-54.43-31.43z"/><path d="M328.63 372.17a377.62 377.62 0 0 1 3.37-49.62c2.35-16.41 1.89-30.45 1.18-34.42s-.93-9.73-7.05-17.05c-2.88-3.45-9.21-8.47-14.49-14.67s-10.29-13.2-13.11-17-9.81 2.31-9.47 14.42c.28 9.89 7 18.54 9.65 22.24 3.19 4.51 5.45 8.87 5.7 11.59.22 2.3.48 7.18-2.74 11.22-5 6.29-24.7 26.39-9.2 53v24.45Z" style="fill:#ffa8a7"/><path d="M299.81 246.82s6 8.15 7.93 9.2 2.47-1.34 2.47-1.34c-2.76-3.88-7.91-10.94-11.66-15.25a14.24 14.24 0 0 1 1.26 7.39Z" style="fill:#ffa8a7"/><path d="M299.81 246.82s6 8.15 7.93 9.2 2.47-1.34 2.47-1.34c-2.76-3.88-7.91-10.94-11.66-15.25a14.24 14.24 0 0 1 1.26 7.39Z" style="fill:#fff;opacity:.6000000000000001"/><path d="M310.21 254.68a11.75 11.75 0 0 0-.89-1.25 2.84 2.84 0 0 1-1.12 2.79c1.57.46 2.01-1.54 2.01-1.54Z" style="fill:#f28f8f"/><path d="M225.51 284.07a73.75 73.75 0 0 1 17.61-10.74c8.11-3.68 17.85-6.93 24.62-10.93 8.79-5.2 12.15-11.46 11.51-17.76-.37-3.57-2.49-7.53-10.61-10.16a28.61 28.61 0 0 0-7.33-1.38 30 30 0 0 0-10.31 1.44c-14.9 4.51-21.23 11.44-26.23 18.17s-11.08 10.64-22 17c-4.67 2.71-9.68 5.37-14.1 8.12l-.1.07a56.94 56.94 0 0 0-6.44 4.19c-2.8 2.39-5.26 4.86-6.27 7.47s-.51 5.38 2.47 8a8 8 0 0 0 3.46 1.81 22.55 22.55 0 0 0 5 .62 44.35 44.35 0 0 0 9.88-.78 47.15 47.15 0 0 0 7.55-2.19 66.15 66.15 0 0 0 21.29-12.95Z" style="opacity:.2"/><path d="M179.8 151.35c-.82 2.17-3.2 6.77-3.05 7.35a8.62 8.62 0 0 1 .14 4.42c-.21 1.11-9.81 4.88-9.81 4.88l-.23-1.52a5.49 5.49 0 0 1 .38-3 61 61 0 0 0 4.09-12.84Z" style="fill:#ffa8a7"/><path d="m177 162.14-10.15 4.57.19 1.29s9.6-3.77 9.81-4.88c.15-.36.15-.67.15-.98Z" style="fill:#f28f8f"/><path d="M146.25 181.66 143.2 213c-.15 1.52.84 2.5 2.08 3.4l3.11 2.23a3.19 3.19 0 0 0 2.53.75 6.94 6.94 0 0 0 1.83-.55h.07l.19-.09 35.58-16.17a8 8 0 0 0 4.64-6.5l2.77-28.56a2.26 2.26 0 0 0-.85-1.87l-5.31-3.79a2.27 2.27 0 0 0-2-.2L147.45 180a2.18 2.18 0 0 0-.8.69 2.22 2.22 0 0 0-.4.97Z" style="fill:#37474f"/><path d="M146.25 181.66 143.2 213c-.15 1.52.84 2.5 2.08 3.4l3.11 2.23a3.19 3.19 0 0 0 2.53.75 6.94 6.94 0 0 0 1.83-.55c-1.38.49-2.34-.3-2.19-1.85l2.87-29.53A3.3 3.3 0 0 1 154 186l-7.38-5.28a2.22 2.22 0 0 0-.37.94Z" style="fill:#263238"/><path d="M153.43 187.44a3.47 3.47 0 0 1 1.81-2.53l38.14-17.33c1.51-.69 2.62.1 2.45 1.75l-2.59 26.72a8 8 0 0 1-4.65 6.5L153 218.72c-1.51.69-2.61-.1-2.45-1.75Z" style="fill:#455a64"/><path d="M194.37 168.83a3.14 3.14 0 0 0 0 .35l-2.6 26.72a6.53 6.53 0 0 1-3.77 5.29l-35.58 16.17a1.38 1.38 0 0 1-.36.11s0-.17 0-.35l2.87-29.53a1.78 1.78 0 0 1 .94-1.31L194 168.94a1.38 1.38 0 0 1 .36-.11m0-1.5a2.42 2.42 0 0 0-1 .25l-38.15 17.33a3.47 3.47 0 0 0-1.81 2.53L150.56 217c-.12 1.24.47 2 1.42 2a2.5 2.5 0 0 0 1-.25l35.58-16.17a8 8 0 0 0 4.65-6.5l2.59-26.72c.13-1.24-.47-2-1.42-2Z" style="fill:#37474f"/><path d="m191.57 163.08-40.45 18.59a3.61 3.61 0 0 0-2.08 2.92l-3.14 32.25.55.4 3.17-32.59a3.05 3.05 0 0 1 1.74-2.45l40.76-18.73Z" style="fill:#b2299f"/><path d="M149.69 182.86a3.55 3.55 0 0 0-.65 1.73l-3.14 32.25.55.4 3.17-32.59a3.09 3.09 0 0 1 .55-1.45Z" style="opacity:.2"/><path d="M150.17 183.2a3 3 0 0 1 1.19-1l40.76-18.73-.55-.39-40.45 18.59a3.61 3.61 0 0 0-1.43 1.19" style="opacity:.2"/><path d="m177.58 165.76-.47 4.85 1.79 1.28.63-6.44c0-.33-.19-.49-.49-.35Z" style="fill:#b2299f"/><path d="m177.58 165.76-.47 4.85 1.79 1.28.63-6.44c0-.33-.19-.49-.49-.35Z" style="opacity:.4"/><path d="m163.78 169.26-.77 7.85 1.71 1.23 1.29-.59.63-6.44a1.15 1.15 0 0 1 .61-.85L177 166l2-.92c.3-.14.52 0 .49.35l-.63 6.44 1.29-.58.77-7.86v-.1a1.15 1.15 0 0 0-.44-.85l-.72-.52a1.16 1.16 0 0 0-1-.1l-14.37 6.53a1.14 1.14 0 0 0-.61.87Z" style="fill:#b2299f"/><path d="m165.49 170.48-.77 7.86 1.29-.59.63-6.44a1.15 1.15 0 0 1 .61-.85L177 166l2-.92c.3-.14.52 0 .49.35l-.63 6.44 1.29-.58.77-7.86v-.1c0-.26-.22-.37-.49-.25l-14.37 6.53a1.17 1.17 0 0 0-.57.87Z" style="opacity:.2"/><path d="M175.48 165.4a1 1 0 0 1 .58.19 1.48 1.48 0 0 1 1.28-.71.53.53 0 0 1 .55.31.54.54 0 0 1 0 .22q-.1 1.09-.3 2.16A2.29 2.29 0 0 1 177 169a1.26 1.26 0 0 1-1.21.23 1.43 1.43 0 0 1-.78.75c-.08 0-1.09.12-1 0a2.16 2.16 0 0 1-2.29 1.22s-.27.78-1.7.61a2.88 2.88 0 0 1-2.05-1.74c.08-.43.23-.61.72-.8.24-.1.5-.2.74-.32a3.17 3.17 0 0 0 .79-.84 2.3 2.3 0 0 1 .88-.7 1.05 1.05 0 0 1 1.07.16 1.41 1.41 0 0 1 .44-.76 1.17 1.17 0 0 1 .69-.41c.08 0 .73.1.65.27a2.3 2.3 0 0 1 .86-1.06 1.35 1.35 0 0 1 .67-.21Z" style="fill:#ffa8a7"/><path d="M181.23 150.62c-.62 2.87-2.18 5.45-1.49 7.86.47 1.63.6 1.46.41 3.12a11 11 0 0 1-.54 2.18c-.12.34-.24.69-.37 1a7.13 7.13 0 0 1-.45 1.07 8.72 8.72 0 0 1-.91 1.19 9.72 9.72 0 0 1-1.87 1.81l-.12.07a.5.5 0 0 1-.51-.17c-.63-.69-.16-1.69.17-2.38a5.56 5.56 0 0 0 .78-2.45v-1l-.89-.22s-2.87-.69-2.92-2.08 1.05-2.72 1.88-4.35 1.17-2.69 2-6.89Z" style="fill:#ffa8a7"/><path d="M178.79 165.89a12.92 12.92 0 0 1-2.43 2.84c-.16.11-.29.32-.58.34-1.33-.25-.7-2-.25-2.79a5.74 5.74 0 0 0 .8-2.32 5 5 0 0 1-.66 2.39c-.35.72-1 2.2.11 2.53a13.13 13.13 0 0 0 3-3ZM176.11 162.69c-.35-.18-.73-.31-1.06-.52a2.37 2.37 0 0 1-.65-.65 3.17 3.17 0 0 1-.67-2.17s0-.13-.07 0a3.05 3.05 0 0 0 .39 2.57 2.65 2.65 0 0 0 .88.85 2 2 0 0 0 .58.24.83.83 0 0 0 .62 0c.08-.12.04-.29-.02-.32Z" style="fill:#f28f8f"/><path d="M198.27 93.05c-6.19-.48-11.14.75-14.35 8.9-3.61 9.21-7.18 16.31-9 23s-4.44 27.88-4.44 27.88 4.68 4.08 9.83 2.22l7.8-24.08 10.13-19.49Z" style="fill:#e6e6e6"/><path d="M268.64 245.09c.43-.3 1.07.81 1.08 1.51 0 2-1.3 4.93-4.22 7.53s-9.93 5.35-11.95 6.37-4.86 3.93-6.65 5.35c-3.27 2.57-6.27 2.95-8.09 2.45a2.47 2.47 0 0 1-1.43-1.42c-.73-1.38-.76-1.72-.61-1.79Z" style="fill:#37474f"/><path d="M235 260.9a19.34 19.34 0 0 0 2.42 5.09 4.27 4.27 0 0 0 3.46.52 15.69 15.69 0 0 0 7.24-4 21.27 21.27 0 0 1 4.76-3.42c2.11-1 6.86-3.08 8.92-4.19a16.12 16.12 0 0 0 5-4.18c1-1.38 2.27-3.91 2.14-5.21-.92-2.7-2-4-3.86-4.06s-4.21 1-7.27 2.39c-.92.42-2.06 1-2.56 1.2-1.9.8-3.64 1.6-5 2.27a8.85 8.85 0 0 1-3.73 1.13 2.65 2.65 0 0 1-1.7-.45c-.63-.47-1.13-1.39-1.71-1.14 0 0-9.13 7.34-9.89 7.88s.35 1.64 1.78 6.17Z" style="fill:#455a64"/><path d="M255.89 244.54a3.19 3.19 0 0 1 1.24.46 6.17 6.17 0 0 1 1.12.92c.42.44-.16.89-.74.44a7.46 7.46 0 0 0-1.5-1 1.9 1.9 0 0 0-1.23-.13l-.54.23c-.07-.46 1.12-.96 1.65-.92ZM251.05 246.54a1.4 1.4 0 0 1 1.11-.24 2.74 2.74 0 0 1 1.31.67 11 11 0 0 1 1.25 1.3c.22.31-.56.73-.85.41a16.05 16.05 0 0 0-1.17-1.16c-.22-.18-1.1-.82-1.69-.61l-.25.12c-.07-.11 0-.28.14-.36a.93.93 0 0 1 .15-.13ZM248.34 248a1.16 1.16 0 0 1 .78 0 3.18 3.18 0 0 1 .86.56 6.41 6.41 0 0 1 1.14 1.5c.25.42-.59.74-.77.47a4.83 4.83 0 0 0-1.7-1.86 2.48 2.48 0 0 0-1.07-.33c0-.08.09-.16.17-.19s.45-.15.59-.15Z" style="fill:#fafafa"/><path d="M226.82 244.24s5.12 9.07 6.54 11.09c.45.65 1.9.2 2.73.12a9 9 0 0 1 3 0c2.64.74 4.13.42 3.51-3.1-.13-.72.11-1.2 1-1.49a5.55 5.55 0 0 0 1.89-.73c.05-.11-.08-.22-.19-.27a3.34 3.34 0 0 1-1.91-2c-1.83-3.95-3.49-12.1-3.49-12.1ZM188 264.52c1.57-2.51 2.42-7.34 5.87-17.17l12.81 9.39-7.34 14.26a11 11 0 0 0-.58 2c-1.71 2.51-10.76-8.48-10.76-8.48Z" style="fill:#ffa8a7"/><path d="M183.24 269.88c0-.15-.05-1.33 0-1.47.34-1.28 1.13-1.63 2.14-2.34a15.56 15.56 0 0 0 2.79-2.39c.34-.47.4-.71.93-.92a4.93 4.93 0 0 1 4.11.53c2.9 1.53 3.79 3.37 3.62 5.36-.12 1.52-.25 3.54 1.09 4.44.56.38 1.44-2 1.44-2 .82 1.39-.34 3.3-.94 6.11a11.32 11.32 0 0 0-.08 4.71c.29 2.46.63 2.45 1.94 2.62 1.12.15 4.32-.06 6.26 1.29a4.13 4.13 0 0 1 2 4.36c-.35.95-3.26 5.54-13.89 3.82-3.09-.49-9.57-5.34-9.47-5.8a5.89 5.89 0 0 0 0-1.39c0-1.09-.08-2.17-.13-3.26a16.1 16.1 0 0 0-.18-3.11 18.33 18.33 0 0 1-.4-2.57q-.3-3.27-.61-6.55c-.14-.68-.7-.82-.62-1.44Z" style="fill:#455a64"/><path d="M181.91 269.45c-1 1-.42 4 1 7.49.63 1.57 1.79 4.27 1.45 7.14s-.41 4.22.33 5.57c1.16 2.1 7.34 4.79 11 5.64a20.12 20.12 0 0 1-3.69-10.53c-.36-6.33-.85-10.41-3.74-13.22-3.7-3.54-6.35-2.09-6.35-2.09Z" style="fill:#263238"/><path d="M208.48 290.13s-2.13 4-10.36 3.87c-3.24-.05-5-1.63-5.06-6.56-.09-5.93-.57-11.92-2.49-14.87s-5-4.37-7.35-4.16a2.23 2.23 0 0 0-1.31 1s2.37-.78 6.06 2.28c2.73 2.26 3.46 7 3.42 12.86 0 2.52-.17 5.39.57 7.3a5.79 5.79 0 0 0 3.93 3.46c4.47 1.26 10.6-.81 12.14-2.7a3 3 0 0 0 .45-2.48Z" style="fill:#37474f"/><path d="M198.59 283.41a1.7 1.7 0 0 1 .67 1A2.84 2.84 0 0 1 198 287c-.49.3-.92.2-.14-.84a5.11 5.11 0 0 0 .73-2.75ZM198.15 280.34s.26.16.33 1A4.06 4.06 0 0 1 197 284c-.87.42-.4-.58 0-1.07a6.44 6.44 0 0 0 1.15-2.59ZM198.44 276.94s.28.08 0 1.22a3.62 3.62 0 0 1-1.79 1.57c-.56.07-.83-.21-.14-.71.49-.39 1.83-1.53 1.93-2.08Z" style="fill:#fafafa"/><path d="M219.44 150.12s5 6 8 17.12a260.14 260.14 0 0 1 6.21 31.53c.72 4.75 1.4 9.33 3.06 18.47 1.57 8.68 5.47 27.45 5.47 27.45s-.68 2.87-4.55 4.56a16.25 16.25 0 0 1-8 1s-2.65-4.53-8.17-15.18a46.26 46.26 0 0 1-5.08-14.87 68.39 68.39 0 0 1-1.14-10.72l-20.77-35.18a23.72 23.72 0 0 1-4.16-7.17c-2.93-7.35.81-17.95.81-17.95Z" style="fill:#37474f"/><path d="M219.44 150.12s5 6 8 17.12a260.14 260.14 0 0 1 6.21 31.53c.72 4.75 1.4 9.33 3.06 18.47 1.57 8.68 5.47 27.45 5.47 27.45s-.68 2.87-4.55 4.56a16.25 16.25 0 0 1-8 1s-2.65-4.53-8.17-15.18a46.26 46.26 0 0 1-5.08-14.87 68.39 68.39 0 0 1-1.14-10.72l-20.77-35.18a23.72 23.72 0 0 1-4.16-7.17c-2.93-7.35.81-17.95.81-17.95Z" style="fill:#37474f"/><path d="M233.23 196.06a243 243 0 0 0-5.8-28.82 58.39 58.39 0 0 0-3.17-8.86l-26.26-.46c-2 4.57-3.5 10.28.78 17.26l1.12 8.32 15.31 26a68.39 68.39 0 0 0 1.14 10.72 46.26 46.26 0 0 0 5.08 14.87l.48.92a69.24 69.24 0 0 0 5.25-8.85c1.5-3.56 2.54-10.44 4.11-19.14.57-3.19 1.32-7.84 1.96-11.96Z" style="fill:#263238"/><path d="M202.16 150.12a21.36 21.36 0 0 0-5.06 12.66 18.93 18.93 0 0 0 4 12.52c1 15.24 4.05 44.59 4.05 44.59-4 4.15-5.07 6.82-7.4 14.26-1.41 4.51-5.54 18.15-7.14 23.24 9.77.42 11.61 8.79 11.61 8.79s11.84-19.09 17.82-29.87c4.42-8 5-9.87 6.18-14.62s1.43-9.15 2.88-19.06 4-23.58 4.74-33.34.84-20.11.84-20.11Z" style="fill:#37474f"/><path d="M189.24 162.06a6 6 0 0 0 2.93-2.08 8.47 8.47 0 0 0 .76-2.15 21.26 21.26 0 0 1 1.23-3.67l.75.34a23 23 0 0 0-1.19 3.54 8.81 8.81 0 0 1-.85 2.38 6.68 6.68 0 0 1-3.56 2.46c-.02-.27-.05-.54-.07-.82ZM208.82 170.79a2.58 2.58 0 0 1-.53 0c-1.2-.26-2.13-1.07-4-3.44-1.41-1.8-1.27-3.1-1-5.24.09-.79.92-5 1-6.11l.79.44c0 1.13-.85 5-.94 5.76-.23 2.13-.34 3.11.86 4.65 1.71 2.19 2.53 2.92 3.51 3.13a14.58 14.58 0 0 0 6.24-1.25c.64-.44 1.72-6 2.35-10.8l.82.11c-.32 2.45-1.46 10.51-2.7 11.37s-4.74 1.43-6.4 1.38Z" style="fill:#263238"/><path d="M190.91 97.47c-2.79 5.33-2.45 10.11-1.64 17.6.74 6.91 1.26 11.18 1.9 19.72a62.28 62.28 0 0 1-.57 15.92s.27 4.13 12.44 7.23c21.38 5.45 31.64-.76 31.64-.76s.52-12-.31-27.79c-.93-17.65-1.24-20.23-2.6-24.43a11 11 0 0 0-5.47-5.57c-2.13-1-7.21-2.62-10.23-3.79a45.57 45.57 0 0 0-15.13-2.54c-6.09-.41-8.58 1.64-10.03 4.41Z" style="fill:#f5f5f5"/><path d="M199.44 94h1.79a44.38 44.38 0 0 1 14.48 2.48c1.23.47 2.8 1 4.32 1.57 2.27.8 4.62 1.63 5.85 2.19a10 10 0 0 1 5 5c1.29 4 1.59 6.17 2.54 24.12.71 13.6.42 24.55.33 27.12-1.42.69-6.13 2.62-14.18 2.62a66 66 0 0 1-16.28-2.1c-10.07-2.56-11.5-5.75-11.67-6.26a64.91 64.91 0 0 0 .55-16c-.54-7.23-1-11.41-1.57-16.7l-.34-3.06c-.8-7.47-1.12-11.94 1.54-17 1-1.94 2.71-3.92 7.64-3.92m0-1c-5 0-7.2 1.93-8.53 4.46-2.79 5.33-2.45 10.11-1.64 17.6.74 6.91 1.26 11.18 1.9 19.72a62.28 62.28 0 0 1-.57 15.92s.27 4.13 12.44 7.23a66.93 66.93 0 0 0 16.48 2.24c10.21 0 15.16-3 15.16-3s.52-12-.31-27.79c-.93-17.65-1.24-20.23-2.6-24.43a11 11 0 0 0-5.47-5.57c-2.13-1-7.21-2.62-10.23-3.79a45.25 45.25 0 0 0-14.84-2.54h-1.79Z" style="fill:#e0e0e0"/><path d="m216.6 89.56-.6 6.49c-3.56.77-12.19.22-13.81-2l.34-6Z" style="fill:#ffa8a7"/><path d="M225.85 72.92s1.65 1.25 2.9 5.56l-2.44 1.79c-.8-3.03-1.67-6.11-.46-7.35Z" style="fill:#f28f8f"/><path d="M219.55 60.86c6.07.4 7.08 3.56 6.18 13.9 2.13 9.82-.81 13.71-2.08 15-2.85 1.53-5.76 1.79-9.71.76-3-.79-10.63-3.05-13.82-7.78-3.76-5.56-4.74-14-.74-17.17 5.62-4.45 17.76-4.87 20.17-4.71Z" style="fill:#ffa8a7"/><path d="M223.65 89.75c-.7.71-4.75 2-7.25 1.72l.2-1.91a25.66 25.66 0 0 0 7.05.19Z" style="fill:#f28f8f"/><path d="M220.19 68a4.78 4.78 0 0 1-.57 1.26 7.68 7.68 0 0 1-2.7 2.3 14.63 14.63 0 0 1 .81 3.92 2.13 2.13 0 0 1-.28 1.24.83.83 0 0 1-1.48 0 9.77 9.77 0 0 0-1.23-2.06 3.93 3.93 0 0 0-2.49-1.34c-3.66-.36-3.67 5.34-2.21 7.27 2.4 3.15 4.38 1.13 4.38 1.13s1.23 4.87-2.3 7c0 0-5.68 1.4-9.56-.57-1.77-3.65-4.17-5.78-6.07-9.67-3.34-6.81-1.74-12.78.53-14-.64-3.18 1.3-6.3 5.41-8.24s9.65-.94 14-.25a18 18 0 0 0 7.7-.44 4.56 4.56 0 0 1 1.08-.2 1.17 1.17 0 0 1 1 .43 1.37 1.37 0 0 1 0 1.37 11 11 0 0 0-.68 1.26 2.06 2.06 0 0 1 2.21 1.25 3.73 3.73 0 0 1-.41 3.67 5.79 5.79 0 0 1-3.14 2.12 13 13 0 0 1-3.83.42 4.36 4.36 0 0 1-.17 2.13Z" style="fill:#263238"/><path d="M216.27 93.28c.93 0 1.94 1.87 3.75 3.76a20.88 20.88 0 0 1-12.77 1.82c-7.65-1.15-9.12-5.8-9.12-5.8s1.75-1.35 2.67-2.25c1.12-1.1 1.67-1.12 1.67-1.12l-.09 1.57s1.47 1.52 6.13 2.46a13.78 13.78 0 0 0 7.76-.44Z" style="fill:#e6e6e6"/><path d="M243.34 138.31s-2.19-11-3.78-18.65-1-16.56-13.08-19.6c-2 3-3.3 7.73-2.63 13.56s3.34 15 4 18.07a46.07 46.07 0 0 0 5.82 13.54c3.83 5.7 11 15.34 13.88 18.88 1.34 1.64 2.5 3.3 3.74 5a48.07 48.07 0 0 0 4.51 4.86 6.1 6.1 0 0 0 2.7 1.57c.65.18 1.3-.07 1.91.1s1 .76 1.78.78 1.52-.55 2.28-.48a18.58 18.58 0 0 0 2.39.34 4.16 4.16 0 0 1 2 .18c.58.24 1.4 1 2.07.62s.52-1.26.26-1.94a6.62 6.62 0 0 0-2.9-3 37.48 37.48 0 0 0-3.79-2.14 9.44 9.44 0 0 1-3.23-2.54c-.62-.7-1-1.77.24-1.78 1.49 0 3.35.55 4.71-.4.94-.65.62-1.48-.29-1.88a32.62 32.62 0 0 1-4.34-2.28c-1.42-.88-2.73-1.9-4.16-2.74a20 20 0 0 0-2.38-1.13c-2.25-.94-3.23-3.19-4.37-5.18-1.58-2.74-5.57-10.07-7.34-13.76Z" style="fill:#ffa8a7"/><path d="M225.9 126.59s-2.12-8.33-2.67-11.82-.85-12.54 2.76-15.51c2.6.63 9.57 1.87 11.58 8.43s5 23.81 5 23.81l9.08 21.43s0 2-3.77 4.57-5.74 1.7-5.74 1.7-7.49-11.34-11.12-16.93c-2.42-3.75-3.02-6.27-5.12-15.68Z" style="fill:#e6e6e6"/><path d="M251.2 430.15a23.19 23.19 0 0 0-8.55-7.9c-14-8.06-36.62-8.06-50.59 0a23.07 23.07 0 0 0-8.54 7.9h-1.93v7.31c.26 5.08 3.74 10.12 10.45 14 14 8.06 36.62 8.06 50.59 0 6.72-3.88 10.22-8.92 10.48-14v-7.31Z" style="fill:#b2299f"/><path d="M251.2 430.15a23.19 23.19 0 0 0-8.55-7.9c-14-8.06-36.62-8.06-50.59 0a23.07 23.07 0 0 0-8.54 7.9h-1.93v7.31c.26 5.08 3.74 10.12 10.45 14 14 8.06 36.62 8.06 50.59 0 6.72-3.88 10.22-8.92 10.48-14v-7.31Z" style="opacity:.25"/><path d="M217.36 416.2c-9.16 0-18.31 2-25.3 6.05a23.07 23.07 0 0 0-8.54 7.9h-1.93v7.31c.26 5.08 3.74 10.12 10.45 14 7 4 16.14 6.05 25.3 6.05Z" style="opacity:.1"/><path d="M197.82 419.56a38.5 38.5 0 0 0-5.76 2.69 23.07 23.07 0 0 0-8.54 7.9h-1.93v7.31c.26 5.08 3.74 10.12 10.45 14a38.5 38.5 0 0 0 5.76 2.69Z" style="opacity:.1"/><path d="M236.89 419.56a38.5 38.5 0 0 1 5.76 2.69 23.19 23.19 0 0 1 8.55 7.9h1.93v7.31c-.26 5.08-3.76 10.12-10.48 14a38.5 38.5 0 0 1-5.76 2.69Z" style="fill:#b2299f;opacity:.5"/><path d="M192.06 415.55c-14 8.07-14 21.15 0 29.21 12.23 7.06 31.09 7.94 45 2.65l.55-.22a39.4 39.4 0 0 0 5.06-2.43c11.65-6.73 13.59-16.94 5.8-24.82a27.27 27.27 0 0 0-5.8-4.39c-13.99-8.06-36.67-8.06-50.61 0Z" style="fill:#b2299f"/><path d="M192.06 415.55c-14 8.07-14 21.15 0 29.21 12.23 7.06 31.09 7.94 45 2.65l.55-.22a39.4 39.4 0 0 0 5.06-2.43c11.65-6.73 13.59-16.94 5.8-24.82a27.27 27.27 0 0 0-5.8-4.39c-13.99-8.06-36.67-8.06-50.61 0Z" style="opacity:.2"/><path d="M248.45 419.94a15.66 15.66 0 0 1 3.75 12.74c-1.24 7.1-11.18 13.08-14.61 14.51a39.4 39.4 0 0 0 5.06-2.43c11.65-6.76 13.59-16.94 5.8-24.82ZM186.26 440.37a15.61 15.61 0 0 1-3.74-12.74c1.24-7.1 11.18-13.07 14.6-14.51a40 40 0 0 0-5.06 2.43c-11.65 6.73-13.58 16.94-5.8 24.82Z" style="fill:#f5f5f5;opacity:.5"/><path d="M240.88 443.7c13-7.49 13-19.65 0-27.15s-34-7.49-47 0-13 19.66 0 27.15 34.02 7.5 47 0Z" style="fill:#b2299f"/><path d="M240.88 443.7c13-7.49 13-19.65 0-27.15s-34-7.49-47 0-13 19.66 0 27.15 34.02 7.5 47 0Z" style="fill:#fff;opacity:.4"/><path d="M249.11 435.86c2.67-4.94 1.8-10.38-2.61-15a22.25 22.25 0 0 0-2.82-2.47 26.08 26.08 0 0 0-2.69-1.77c-.53-.32-1.07-.61-1.64-.89 1.39 2.27.88 4.71-6.95 5.17-15.33.89 4.09 15.54 4.09 15.54s9.88-4.77 12.62-.58Z" style="fill:#fff;opacity:.2"/><path d="M247.53 431.81c2.3-.26 3.44-2.62 2.55-5.28s-3.49-4.61-5.79-4.35-3.44 2.62-2.54 5.28 3.48 4.61 5.78 4.35Z" style="fill:#fff;opacity:.5"/><path d="M223.29 444c-.76-5.69-25.63-21.45-25.63-21.45s-5.52-2.21-3.69-6.07a28.35 28.35 0 0 0-2.66 1.72c-.58.41-1.11.84-1.62 1.28-7.4 6.41-7.41 14.84 0 21.26.5.43 1 .86 1.61 1.28a25.64 25.64 0 0 0 2.47 1.6 28.47 28.47 0 0 0 2.63 1.38c.73.35 1.48.67 2.24 1s1.54.58 2.34.84a47.55 47.55 0 0 0 7.42 1.78l1.67.25a57.19 57.19 0 0 0 7.42.46 55.9 55.9 0 0 0 9.08-.74s-3.99-.83-3.28-4.59Z" style="fill:#b2299f"/><path d="M223.29 444c-.76-5.69-25.63-21.45-25.63-21.45s-5.52-2.21-3.69-6.07a28.35 28.35 0 0 0-2.66 1.72c-.58.41-1.11.84-1.62 1.28-7.4 6.41-7.41 14.84 0 21.26.5.43 1 .86 1.61 1.28a25.64 25.64 0 0 0 2.47 1.6 28.47 28.47 0 0 0 2.63 1.38c.73.35 1.48.67 2.24 1s1.54.58 2.34.84a47.55 47.55 0 0 0 7.42 1.78l1.67.25a57.19 57.19 0 0 0 7.42.46 55.9 55.9 0 0 0 9.08-.74s-3.99-.83-3.28-4.59Z" style="fill:#fff;opacity:.30000000000000004"/><path d="M199.84 420c-9.28 5.36-9.66 13.91-1.13 19.53.36.24.74.47 1.13.7 9.68 5.59 25.36 5.59 35 0s9.68-14.64 0-20.23l-1.22-.65c-9.69-4.91-24.5-4.69-33.78.65Z" style="fill:#b2299f"/><path d="M199.84 420c-9.28 5.36-9.66 13.91-1.13 19.53.36.24.74.47 1.13.7 9.68 5.59 25.36 5.59 35 0s9.68-14.64 0-20.23l-1.22-.65c-9.69-4.91-24.5-4.69-33.78.65Z" style="opacity:.2"/><ellipse cx="217.37" cy="430.13" rx="23.68" ry="13.67" style="fill:#b2299f"/><ellipse cx="217.37" cy="430.13" rx="23.68" ry="13.67" style="opacity:.5"/><path d="M200.63 424.27c9.24-5.34 24.24-5.34 33.48 0 3.79 2.19 6 4.93 6.71 7.76-.69 2.84-2.92 5.58-6.71 7.76-9.24 5.34-24.24 5.34-33.48 0-3.78-2.18-6-4.92-6.71-7.76.69-2.83 2.93-5.57 6.71-7.76Z" style="fill:#b2299f"/><path d="M200.63 424.27c9.24-5.34 24.24-5.34 33.48 0 3.79 2.19 6 4.93 6.71 7.76-.69 2.84-2.92 5.58-6.71 7.76-9.24 5.34-24.24 5.34-33.48 0-3.78-2.18-6-4.92-6.71-7.76.69-2.83 2.93-5.57 6.71-7.76Z" style="opacity:.35000000000000003"/><path d="M232.28 434.25v-2.83c0-1.16-.8-2.28-2.52-3.29h-.06c-3.18-1.84-6.47-1.6-9.4-.86-1.24.32-2.43.72-3.51 1.09a35.06 35.06 0 0 1-3.76 1.17 6.8 6.8 0 0 1-1.79.17 3.83 3.83 0 0 1-1.48-.39l.12-.09.37-.22a7.66 7.66 0 0 1 1-.5 6.87 6.87 0 0 1 5.26-.12l3-3.06v-2.81a14.39 14.39 0 0 0-8.3-.3 17.21 17.21 0 0 0-2.64.91l-3-1.75-3.62 2.09v2.81l1.24.72a3.06 3.06 0 0 0-.53 1.64v2.8c0 1.16.84 2.28 2.58 3.29a10.55 10.55 0 0 0 5 1.44h1a19.9 19.9 0 0 0 5.37-1.16l1-.36-3.06 3.06v2.81a14.87 14.87 0 0 0 11.71-.51l3 1.73 3.62-2.09v-2.81l-1.24-.72a3.33 3.33 0 0 0 .64-1.86Zm-7.64-.25a6.58 6.58 0 0 1-.84.42 7.74 7.74 0 0 1-5.92.09c2.83-1 5.2-1.87 7.22-.8a4 4 0 0 1-.46.29Z" style="fill:#b2299f"/><path d="M220.3 427.23c-1.24.32-2.43.72-3.51 1.09a35.06 35.06 0 0 1-3.76 1.17 6.8 6.8 0 0 1-1.79.17 3.79 3.79 0 0 1-1.72-.52c-1.17-.67-1.34-1.65.36-2.77l.37-.23a9.08 9.08 0 0 1 1-.49 6.87 6.87 0 0 1 5.26-.12l3-3.06a14.39 14.39 0 0 0-8.3-.3 17.21 17.21 0 0 0-2.64.91l-3-1.75-3.62 2.09 3 1.73c-3 2.31-3.1 4.71.32 6.69a10.55 10.55 0 0 0 5 1.44h1a19.53 19.53 0 0 0 5.37-1.17c3.48-1.16 6.3-2.53 8.64-1.18 1.57.91 1.13 2.05-.59 3a6.58 6.58 0 0 1-.84.42 7.76 7.76 0 0 1-6 .05l-3.19 3.19a14.87 14.87 0 0 0 11.71-.51l3 1.73 3.62-2.09-3-1.73c3-2.33 3.37-4.87-.15-6.93h-.06c-3.26-1.81-6.55-1.57-9.48-.83Z" style="fill:#b2299f"/><g style="opacity:.30000000000000004"><path d="M220.3 427.23c-1.24.32-2.43.72-3.51 1.09a35.06 35.06 0 0 1-3.76 1.17 6.8 6.8 0 0 1-1.79.17 3.79 3.79 0 0 1-1.72-.52c-1.17-.67-1.34-1.65.36-2.77l.37-.23a9.08 9.08 0 0 1 1-.49 6.87 6.87 0 0 1 5.26-.12l3-3.06a14.39 14.39 0 0 0-8.3-.3 17.21 17.21 0 0 0-2.64.91l-3-1.75-3.62 2.09 3 1.73c-3 2.31-3.1 4.71.32 6.69a10.55 10.55 0 0 0 5 1.44h1a19.53 19.53 0 0 0 5.37-1.17c3.48-1.16 6.3-2.53 8.64-1.18 1.57.91 1.13 2.05-.59 3a6.58 6.58 0 0 1-.84.42 7.76 7.76 0 0 1-6 .05l-3.19 3.19a14.87 14.87 0 0 0 11.71-.51l3 1.73 3.62-2.09-3-1.73c3-2.33 3.37-4.87-.15-6.93h-.06c-3.26-1.81-6.55-1.57-9.48-.83Z" style="fill:#fff"/></g><path style="fill:#f5f5f5;opacity:.45" d="m201.92 423.42 3.66-1.66 3 1.32-3.04-1.75-3.62 2.09zM210.8 422.28a17 17 0 0 1 7.79.27l-2.11 3 3-3.06a14.49 14.49 0 0 0-8.68-.21ZM229.7 428.09h.06c3.52 2.06 3.17 4.6.15 6.93 2.68-2.91 2.19-4.94-.71-6.61a13.63 13.63 0 0 0-8.9-1.22c2.93-.7 6.22-.94 9.4.9ZM229.91 435.06l2.3 1.77-2.92 2.05 3.62-2.09-3-1.73zM223.8 434.42a7.8 7.8 0 0 1-5.77.51l-3.45 2.73 3.19-3.19a7.76 7.76 0 0 0 6.03-.05ZM213 429.49a4.7 4.7 0 0 1-4.34-.41c-1-.9-.38-1.87 1.19-2.71-1.7 1.12-1.53 2.1-.36 2.77a3.79 3.79 0 0 0 1.72.52 6.8 6.8 0 0 0 1.79-.17ZM204.89 425.18c-.25.22-2.43 2.26-1.47 4.29s4.22 3.56 6.8 3.84a10.55 10.55 0 0 1-5-1.44c-3.43-1.98-3.37-4.38-.33-6.69Z"/><path d="M258 419.86a23 23 0 0 0-8.54-7.9c-14-8.07-36.62-8.07-50.59 0a23 23 0 0 0-8.54 7.9h-1.94v7.31c.26 5.08 3.73 10.12 10.45 14 14 8.07 36.62 8.07 50.59 0 6.72-3.87 10.22-8.91 10.47-14v-7.31Z" style="fill:#b2299f"/><path d="M258 419.86a23 23 0 0 0-8.54-7.9c-14-8.07-36.62-8.07-50.59 0a23 23 0 0 0-8.54 7.9h-1.94v7.31c.26 5.08 3.73 10.12 10.45 14 14 8.07 36.62 8.07 50.59 0 6.72-3.87 10.22-8.91 10.47-14v-7.31Z" style="opacity:.25"/><path d="M224.13 405.91c-9.16 0-18.31 2-25.3 6a23 23 0 0 0-8.54 7.9h-1.94v7.31c.26 5.08 3.73 10.12 10.45 14 7 4 16.14 6 25.3 6Z" style="opacity:.1"/><path d="M204.59 409.26a39.55 39.55 0 0 0-5.76 2.7 23 23 0 0 0-8.54 7.9h-1.94v7.31c.26 5.08 3.73 10.12 10.45 14a38.54 38.54 0 0 0 5.76 2.7Z" style="opacity:.1"/><path d="M243.66 409.26a39.55 39.55 0 0 1 5.76 2.7 23 23 0 0 1 8.54 7.9h1.93v7.31c-.25 5.08-3.76 10.12-10.47 14a38.54 38.54 0 0 1-5.76 2.7Z" style="fill:#b2299f;opacity:.5"/><path d="M198.83 405.26c-14 8.06-14 21.14 0 29.21 12.22 7 31.09 7.94 45 2.64l.55-.21a40 40 0 0 0 5.06-2.43c11.65-6.73 13.58-16.94 5.8-24.82a27.25 27.25 0 0 0-5.8-4.38c-13.99-8.08-36.64-8.08-50.61-.01Z" style="fill:#b2299f"/><path d="M198.83 405.26c-14 8.06-14 21.14 0 29.21 12.22 7 31.09 7.94 45 2.64l.55-.21a40 40 0 0 0 5.06-2.43c11.65-6.73 13.58-16.94 5.8-24.82a27.25 27.25 0 0 0-5.8-4.38c-13.99-8.08-36.64-8.08-50.61-.01Z" style="opacity:.2"/><path d="M255.22 409.65a15.61 15.61 0 0 1 3.78 12.74c-1.24 7.1-11.17 13.07-14.6 14.51a40 40 0 0 0 5.06-2.43c11.61-6.73 13.54-16.94 5.76-24.82ZM193 430.08a15.63 15.63 0 0 1-3.74-12.74c1.23-7.1 11.17-13.08 14.6-14.51a39.4 39.4 0 0 0-5.06 2.43c-11.62 6.74-13.55 16.94-5.8 24.82Z" style="fill:#f5f5f5;opacity:.5"/><path d="M247.65 433.41c13-7.5 13-19.65 0-27.15s-34-7.5-47 0-13 19.65 0 27.15 34.01 7.5 47 0Z" style="fill:#b2299f"/><path d="M247.65 433.41c13-7.5 13-19.65 0-27.15s-34-7.5-47 0-13 19.65 0 27.15 34.01 7.5 47 0Z" style="fill:#fff;opacity:.4"/><path d="M255.88 425.57c2.67-4.94 1.8-10.39-2.61-15a22.2 22.2 0 0 0-2.82-2.46 27.87 27.87 0 0 0-2.69-1.78c-.53-.31-1.08-.61-1.64-.89 1.38 2.28.88 4.71-7 5.17-15.32.9 4.1 15.54 4.1 15.54s9.92-4.78 12.66-.58Z" style="fill:#fff;opacity:.2"/><path d="M254.3 421.52c2.3-.26 3.44-2.63 2.54-5.29s-3.48-4.6-5.78-4.35-3.44 2.63-2.55 5.29 3.49 4.6 5.79 4.35Z" style="fill:#fff;opacity:.5"/><path d="M230.06 433.72c-.76-5.69-25.64-21.44-25.64-21.44s-5.51-2.22-3.68-6.07a25.38 25.38 0 0 0-2.66 1.72 19.44 19.44 0 0 0-1.62 1.28c-7.41 6.41-7.42 14.83 0 21.25q.75.66 1.62 1.29a29 29 0 0 0 2.46 1.6q1.28.73 2.64 1.38c.72.34 1.48.67 2.24 1s1.54.58 2.33.84a49.12 49.12 0 0 0 7.43 1.78c.55.09 1.11.17 1.66.24a56.91 56.91 0 0 0 16.51-.28s-4.01-.84-3.29-4.59Z" style="fill:#b2299f"/><path d="M230.06 433.72c-.76-5.69-25.64-21.44-25.64-21.44s-5.51-2.22-3.68-6.07a25.38 25.38 0 0 0-2.66 1.72 19.44 19.44 0 0 0-1.62 1.28c-7.41 6.41-7.42 14.83 0 21.25q.75.66 1.62 1.29a29 29 0 0 0 2.46 1.6q1.28.73 2.64 1.38c.72.34 1.48.67 2.24 1s1.54.58 2.33.84a49.12 49.12 0 0 0 7.43 1.78c.55.09 1.11.17 1.66.24a56.91 56.91 0 0 0 16.51-.28s-4.01-.84-3.29-4.59Z" style="fill:#fff;opacity:.30000000000000004"/><path d="M206.61 409.72c-9.28 5.36-9.66 13.91-1.13 19.53.36.23.74.47 1.13.7 9.68 5.58 25.36 5.58 35 0s9.68-14.64 0-20.23c-.39-.23-.8-.45-1.21-.66-9.7-4.92-24.51-4.7-33.79.66Z" style="fill:#b2299f"/><path d="M206.61 409.72c-9.28 5.36-9.66 13.91-1.13 19.53.36.23.74.47 1.13.7 9.68 5.58 25.36 5.58 35 0s9.68-14.64 0-20.23c-.39-.23-.8-.45-1.21-.66-9.7-4.92-24.51-4.7-33.79.66Z" style="opacity:.2"/><ellipse cx="224.14" cy="419.83" rx="23.68" ry="13.67" style="fill:#b2299f"/><ellipse cx="224.14" cy="419.83" rx="23.68" ry="13.67" style="opacity:.5"/><path d="M207.39 414c9.25-5.34 24.24-5.34 33.49 0 3.78 2.18 6 4.92 6.71 7.76-.69 2.84-2.93 5.58-6.71 7.76-9.25 5.34-24.24 5.34-33.49 0-3.78-2.18-6-4.92-6.7-7.76.69-2.86 2.92-5.6 6.7-7.76Z" style="fill:#b2299f"/><path d="M207.39 414c9.25-5.34 24.24-5.34 33.49 0 3.78 2.18 6 4.92 6.71 7.76-.69 2.84-2.93 5.58-6.71 7.76-9.25 5.34-24.24 5.34-33.49 0-3.78-2.18-6-4.92-6.7-7.76.69-2.86 2.92-5.6 6.7-7.76Z" style="opacity:.35000000000000003"/><path d="M239.05 424v-2.82c0-1.16-.8-2.29-2.53-3.3h-.06c-3.18-1.83-6.46-1.59-9.39-.85-1.25.31-2.43.72-3.51 1.09a32.6 32.6 0 0 1-3.76 1.16 7.17 7.17 0 0 1-1.78.17 4.08 4.08 0 0 1-1.49-.4l.12-.08.37-.23a9.21 9.21 0 0 1 1-.49 6.82 6.82 0 0 1 5.26-.12l3-3.06v-2.81a14.39 14.39 0 0 0-8.3-.31 16.55 16.55 0 0 0-2.64.92l-3-1.76-3.62 2.1v2.81l1.24.71a2.89 2.89 0 0 0-.53 1.64v2.81c0 1.16.83 2.28 2.58 3.29a10.66 10.66 0 0 0 5 1.44h1a19.9 19.9 0 0 0 5.37-1.16l1-.36-3.06 3.06v2.82a15 15 0 0 0 11.71-.51l3 1.73 3.62-2.09v-2.9l-1.24-.72a3.33 3.33 0 0 0 .64-1.78Zm-7.64-.24a8.22 8.22 0 0 1-.84.42 7.81 7.81 0 0 1-5.93.09c2.84-1 5.21-1.88 7.23-.8-.14.05-.3.14-.46.24Z" style="fill:#b2299f"/><path d="M227.07 416.94c-1.25.31-2.43.72-3.51 1.09a32.6 32.6 0 0 1-3.76 1.16 7.17 7.17 0 0 1-1.78.17 3.83 3.83 0 0 1-1.73-.52c-1.16-.67-1.33-1.66.36-2.77l.37-.23a9.21 9.21 0 0 1 1-.49 6.82 6.82 0 0 1 5.26-.12l3-3.06a14.39 14.39 0 0 0-8.3-.31 16.55 16.55 0 0 0-2.64.92l-3-1.76-3.62 2.1 3 1.73c-3 2.32-3.11 4.72.32 6.7a10.66 10.66 0 0 0 5 1.44 8.34 8.34 0 0 0 1 0 19.9 19.9 0 0 0 5.37-1.16c3.48-1.16 6.29-2.53 8.64-1.18 1.56.91 1.13 2.05-.59 3a8.22 8.22 0 0 1-.84.42 7.78 7.78 0 0 1-6 0l-3.18 3.19a14.92 14.92 0 0 0 11.71-.5l3 1.73 3.62-2.09-3-1.73c3-2.34 3.36-4.88-.16-6.94h-.06c-3.27-1.73-6.55-1.53-9.48-.79Z" style="fill:#b2299f"/><g style="opacity:.30000000000000004"><path d="M227.07 416.94c-1.25.31-2.43.72-3.51 1.09a32.6 32.6 0 0 1-3.76 1.16 7.17 7.17 0 0 1-1.78.17 3.83 3.83 0 0 1-1.73-.52c-1.16-.67-1.33-1.66.36-2.77l.37-.23a9.21 9.21 0 0 1 1-.49 6.82 6.82 0 0 1 5.26-.12l3-3.06a14.39 14.39 0 0 0-8.3-.31 16.55 16.55 0 0 0-2.64.92l-3-1.76-3.62 2.1 3 1.73c-3 2.32-3.11 4.72.32 6.7a10.66 10.66 0 0 0 5 1.44 8.34 8.34 0 0 0 1 0 19.9 19.9 0 0 0 5.37-1.16c3.48-1.16 6.29-2.53 8.64-1.18 1.56.91 1.13 2.05-.59 3a8.22 8.22 0 0 1-.84.42 7.78 7.78 0 0 1-6 0l-3.18 3.19a14.92 14.92 0 0 0 11.71-.5l3 1.73 3.62-2.09-3-1.73c3-2.34 3.36-4.88-.16-6.94h-.06c-3.27-1.73-6.55-1.53-9.48-.79Z" style="fill:#fff"/></g><path style="fill:#f5f5f5;opacity:.45" d="m208.69 413.13 3.66-1.66 3 1.32-3.04-1.75-3.62 2.09zM217.57 412a17 17 0 0 1 7.78.26l-2.1 3 3-3.06a14.49 14.49 0 0 0-8.68-.2ZM236.46 417.79h.06c3.52 2.06 3.18 4.6.16 6.94 2.67-2.91 2.19-4.94-.71-6.62a13.69 13.69 0 0 0-8.9-1.21c2.93-.7 6.21-.9 9.39.89ZM236.68 424.77l2.3 1.76-2.92 2.06 3.62-2.09-3-1.73zM230.57 424.13a7.79 7.79 0 0 1-5.78.5l-3.44 2.73 3.18-3.19a7.78 7.78 0 0 0 6.04-.04ZM219.77 419.2a4.73 4.73 0 0 1-4.34-.42c-1-.9-.37-1.86 1.19-2.7-1.69 1.11-1.52 2.1-.36 2.77a3.83 3.83 0 0 0 1.73.52 7.17 7.17 0 0 0 1.78-.17ZM211.66 414.88c-.26.23-2.44 2.26-1.47 4.3s4.22 3.56 6.8 3.83a10.66 10.66 0 0 1-5-1.44c-3.44-1.97-3.37-4.37-.33-6.69Z"/><path d="M249.84 407.82a23.11 23.11 0 0 0-8.55-7.9c-14-8.06-36.61-8.06-50.58 0a23.11 23.11 0 0 0-8.55 7.9h-1.93v7.31c.26 5.08 3.74 10.12 10.46 14 14 8.06 36.61 8.06 50.58 0 6.72-3.88 10.22-8.92 10.48-14v-7.31Z" style="fill:#b2299f"/><path d="M249.84 407.82a23.11 23.11 0 0 0-8.55-7.9c-14-8.06-36.61-8.06-50.58 0a23.11 23.11 0 0 0-8.55 7.9h-1.93v7.31c.26 5.08 3.74 10.12 10.46 14 14 8.06 36.61 8.06 50.58 0 6.72-3.88 10.22-8.92 10.48-14v-7.31Z" style="opacity:.25"/><path d="M216 393.87c-9.15 0-18.31 2-25.29 6.05a23.11 23.11 0 0 0-8.55 7.9h-1.93v7.31c.26 5.08 3.74 10.12 10.46 14 7 4 16.14 6.05 25.29 6.05Z" style="opacity:.1"/><path d="M196.46 397.22a39.43 39.43 0 0 0-5.75 2.7 23.11 23.11 0 0 0-8.55 7.9h-1.93v7.31c.26 5.08 3.74 10.12 10.46 14a38.38 38.38 0 0 0 5.75 2.69Z" style="opacity:.1"/><path d="M235.54 397.22a39.43 39.43 0 0 1 5.75 2.7 23.11 23.11 0 0 1 8.55 7.9h1.93v7.31c-.26 5.08-3.76 10.12-10.48 14a38.38 38.38 0 0 1-5.75 2.69Z" style="fill:#b2299f;opacity:.5"/><path d="M190.71 393.22c-14 8.07-14 21.14 0 29.21 12.22 7.06 31.09 7.94 45 2.65l.56-.22a39.26 39.26 0 0 0 5-2.43c11.65-6.73 13.59-16.94 5.81-24.82a27 27 0 0 0-5.8-4.39c-13.95-8.06-36.6-8.06-50.57 0Z" style="fill:#b2299f"/><path d="M190.71 393.22c-14 8.07-14 21.14 0 29.21 12.22 7.06 31.09 7.94 45 2.65l.56-.22a39.26 39.26 0 0 0 5-2.43c11.65-6.73 13.59-16.94 5.81-24.82a27 27 0 0 0-5.8-4.39c-13.95-8.06-36.6-8.06-50.57 0Z" style="opacity:.2"/><path d="M247.1 397.61a15.65 15.65 0 0 1 3.74 12.74c-1.24 7.1-11.18 13.07-14.6 14.51a39.26 39.26 0 0 0 5-2.43c11.7-6.73 13.64-16.94 5.86-24.82ZM184.9 418a15.65 15.65 0 0 1-3.74-12.74c1.24-7.1 11.18-13.07 14.6-14.51a39.91 39.91 0 0 0-5 2.43c-11.7 6.82-13.64 16.98-5.86 24.82Z" style="fill:#f5f5f5;opacity:.5"/><ellipse cx="216.01" cy="407.8" rx="33.25" ry="19.2" style="fill:#b2299f"/><ellipse cx="216.01" cy="407.8" rx="33.25" ry="19.2" style="fill:#fff;opacity:.4"/><path d="M184.27 413.53c-2.67-4.94-1.8-10.39 2.61-15a22.25 22.25 0 0 1 2.82-2.47 27.87 27.87 0 0 1 2.69-1.78c.53-.31 1.08-.6 1.64-.88-1.38 2.27-.88 4.71 7 5.16 15.32.9-4.1 15.55-4.1 15.55s-9.93-4.77-12.66-.58Z" style="fill:#fff;opacity:.2"/><path d="M185.85 409.48c-2.3-.26-3.44-2.62-2.54-5.28s3.48-4.61 5.78-4.35 3.44 2.62 2.55 5.28-3.49 4.61-5.79 4.35Z" style="fill:#fff;opacity:.5"/><path d="M210.09 421.69c.76-5.7 25.64-21.45 25.64-21.45s5.51-2.22 3.68-6.07a27.1 27.1 0 0 1 2.66 1.72 19.44 19.44 0 0 1 1.62 1.28c7.41 6.41 7.42 14.84 0 21.26-.5.43-1 .86-1.62 1.28a29 29 0 0 1-2.46 1.6q-1.28.75-2.64 1.38c-.72.35-1.48.67-2.24 1s-1.54.58-2.33.84a48 48 0 0 1-7.43 1.78l-1.66.25a57.45 57.45 0 0 1-7.43.46 55.9 55.9 0 0 1-9.08-.74s4.01-.85 3.29-4.59Z" style="fill:#b2299f"/><path d="M210.09 421.69c.76-5.7 25.64-21.45 25.64-21.45s5.51-2.22 3.68-6.07a27.1 27.1 0 0 1 2.66 1.72 19.44 19.44 0 0 1 1.62 1.28c7.41 6.41 7.42 14.84 0 21.26-.5.43-1 .86-1.62 1.28a29 29 0 0 1-2.46 1.6q-1.28.75-2.64 1.38c-.72.35-1.48.67-2.24 1s-1.54.58-2.33.84a48 48 0 0 1-7.43 1.78l-1.66.25a57.45 57.45 0 0 1-7.43.46 55.9 55.9 0 0 1-9.08-.74s4.01-.85 3.29-4.59Z" style="fill:#fff;opacity:.30000000000000004"/><path d="M233.54 397.68c9.28 5.36 9.66 13.91 1.13 19.53-.36.24-.74.47-1.13.7-9.68 5.59-25.36 5.59-35 0s-9.68-14.64 0-20.23c.39-.22.8-.44 1.21-.65 9.7-4.92 24.51-4.7 33.79.65Z" style="fill:#b2299f"/><path d="M233.54 397.68c9.28 5.36 9.66 13.91 1.13 19.53-.36.24-.74.47-1.13.7-9.68 5.59-25.36 5.59-35 0s-9.68-14.64 0-20.23c.39-.22.8-.44 1.21-.65 9.7-4.92 24.51-4.7 33.79.65Z" style="opacity:.2"/><path d="M232.76 398.13c9.24 5.34 9.24 14 0 19.33s-24.24 5.34-33.49 0-9.25-14 0-19.33 24.24-5.34 33.49 0Z" style="fill:#b2299f"/><path d="M232.76 398.13c9.24 5.34 9.24 14 0 19.33s-24.24 5.34-33.49 0-9.25-14 0-19.33 24.24-5.34 33.49 0Z" style="opacity:.5"/><path d="M232.76 401.94c-9.25-5.34-24.24-5.34-33.49 0-3.78 2.19-6 4.92-6.7 7.76.68 2.84 2.92 5.58 6.7 7.76 9.25 5.34 24.24 5.34 33.49 0 3.78-2.18 6-4.92 6.7-7.76-.69-2.84-2.92-5.57-6.7-7.76Z" style="fill:#b2299f"/><path d="M232.76 401.94c-9.25-5.34-24.24-5.34-33.49 0-3.78 2.19-6 4.92-6.7 7.76.68 2.84 2.92 5.58 6.7 7.76 9.25 5.34 24.24 5.34 33.49 0 3.78-2.18 6-4.92 6.7-7.76-.69-2.84-2.92-5.57-6.7-7.76Z" style="opacity:.35000000000000003"/><path d="M230.92 411.91v-2.82c0-1.16-.81-2.28-2.53-3.29h-.06c-3.18-1.84-6.47-1.6-9.39-.86-1.24.32-2.42.72-3.5 1.09a33.21 33.21 0 0 1-3.76 1.16 6.76 6.76 0 0 1-1.79.17 3.83 3.83 0 0 1-1.48-.39l.12-.09.37-.23a9.08 9.08 0 0 1 1-.49 6.89 6.89 0 0 1 5.27-.12l3-3.06v-2.81a14.39 14.39 0 0 0-8.3-.3 17.21 17.21 0 0 0-2.64.91l-3-1.75-3.63 2.09v2.81l1.25.72a3 3 0 0 0-.54 1.64v2.8c0 1.16.83 2.28 2.58 3.29a10.6 10.6 0 0 0 5 1.44h1a19.59 19.59 0 0 0 5.38-1.16l1-.36-3.05 3.07v2.81a14.85 14.85 0 0 0 11.7-.51l3 1.73 3.63-2.09v-2.81l-1.25-.72a3.18 3.18 0 0 0 .62-1.87Zm-7.64-.24a7.31 7.31 0 0 1-.84.42 7.74 7.74 0 0 1-5.92.09c2.84-1 5.2-1.88 7.22-.8a4 4 0 0 1-.46.29Z" style="fill:#b2299f"/><path d="M219 404.9c-1.24.32-2.42.72-3.5 1.09a33.21 33.21 0 0 1-3.76 1.16 6.76 6.76 0 0 1-1.79.17 3.82 3.82 0 0 1-1.72-.52c-1.17-.67-1.34-1.66.36-2.77l.37-.23a9.08 9.08 0 0 1 1-.49 6.89 6.89 0 0 1 5.27-.12l3-3.06a14.39 14.39 0 0 0-8.3-.3 17.21 17.21 0 0 0-2.64.91l-3-1.75-3.63 2.09 3 1.73c-3 2.31-3.11 4.71.32 6.69a10.6 10.6 0 0 0 5 1.44h1a19.59 19.59 0 0 0 5.38-1.16c3.47-1.16 6.29-2.53 8.63-1.18 1.57.91 1.14 2.05-.59 3a7.31 7.31 0 0 1-.84.42 7.76 7.76 0 0 1-6 .05l-3.18 3.19a14.85 14.85 0 0 0 11.7-.51l3 1.73 3.63-2.09-3-1.73c3-2.33 3.36-4.87-.16-6.93h-.06c-3.33-1.81-6.62-1.57-9.49-.83Z" style="fill:#b2299f"/><g style="opacity:.30000000000000004"><path d="M219 404.9c-1.24.32-2.42.72-3.5 1.09a33.21 33.21 0 0 1-3.76 1.16 6.76 6.76 0 0 1-1.79.17 3.82 3.82 0 0 1-1.72-.52c-1.17-.67-1.34-1.66.36-2.77l.37-.23a9.08 9.08 0 0 1 1-.49 6.89 6.89 0 0 1 5.27-.12l3-3.06a14.39 14.39 0 0 0-8.3-.3 17.21 17.21 0 0 0-2.64.91l-3-1.75-3.63 2.09 3 1.73c-3 2.31-3.11 4.71.32 6.69a10.6 10.6 0 0 0 5 1.44h1a19.59 19.59 0 0 0 5.38-1.16c3.47-1.16 6.29-2.53 8.63-1.18 1.57.91 1.14 2.05-.59 3a7.31 7.31 0 0 1-.84.42 7.76 7.76 0 0 1-6 .05l-3.18 3.19a14.85 14.85 0 0 0 11.7-.51l3 1.73 3.63-2.09-3-1.73c3-2.33 3.36-4.87-.16-6.93h-.06c-3.33-1.81-6.62-1.57-9.49-.83Z" style="fill:#fff"/></g><path style="fill:#f5f5f5;opacity:.45" d="m200.57 401.09 3.65-1.66 3 1.32-3.03-1.75-3.62 2.09zM209.44 400a17 17 0 0 1 7.79.27l-2.1 3 3-3.06a14.49 14.49 0 0 0-8.69-.21ZM228.34 405.76h.06c3.52 2.06 3.17 4.6.16 6.93 2.67-2.91 2.19-4.94-.71-6.62a13.7 13.7 0 0 0-8.9-1.21c2.92-.7 6.21-.94 9.39.9ZM228.56 412.73l2.3 1.77-2.93 2.05 3.63-2.09-3-1.73zM222.44 412.09a7.8 7.8 0 0 1-5.77.51l-3.44 2.73 3.18-3.19a7.76 7.76 0 0 0 6.03-.05ZM211.65 407.16a4.72 4.72 0 0 1-4.34-.41c-1.05-.9-.37-1.87 1.19-2.71-1.7 1.11-1.53 2.1-.36 2.77a3.82 3.82 0 0 0 1.72.52 6.76 6.76 0 0 0 1.79-.17ZM203.54 402.85c-.26.22-2.44 2.26-1.48 4.29s4.22 3.56 6.8 3.84a10.6 10.6 0 0 1-5-1.44c-3.43-1.98-3.37-4.38-.32-6.69Z"/><path style="fill:#fff" d="m184.41 404.19.9-6.85.9 6.85 11.85.52-11.85.52-.9 6.84-.9-6.84-11.86-.52 11.86-.52z"/><g style="opacity:.30000000000000004"><path d="M398.77 418.08a.28.28 0 0 1-.15 0l-19.36-11.18a.3.3 0 0 1-.15-.26.29.29 0 0 1 .15-.25l24.21-14a.3.3 0 0 1 .29 0l19.37 11.18a.3.3 0 0 1 .15.26.31.31 0 0 1-.15.26l-24.21 14a.26.26 0 0 1-.15-.01ZM380 406.6l18.76 10.84 23.61-13.63L403.61 393Z" style="fill:#b2299f"/></g><path style="fill:#b2299f" d="M398.77 414.99V314.76l-14.52-8.38v100.23l14.52 8.38z"/><path style="opacity:.2" d="M398.77 414.99V314.76l-14.52-8.38v100.23l14.52 8.38z"/><path style="fill:#b2299f" d="m398.77 414.99 19.37-11.18V303.59l-19.37 11.17v100.23z"/><path style="fill:#b2299f" d="m418.14 303.59-14.52-8.39-19.37 11.18 14.52 8.38 19.37-11.17z"/><path style="fill:#fff;opacity:.25" d="m418.14 303.59-14.52-8.39-19.37 11.18 14.52 8.38 19.37-11.17z"/><path d="m418.14 303.59-19.56 10.78-6.35-3.55-8-4.44 7.84 4.69 6.42 3.83c-.15 2.18-.19 91.23-.16 93.41a57.6 57.6 0 0 0 .42 6.68 57.61 57.61 0 0 0 .43-6.68c0-2.11 0-91.09-.16-93.2Z" style="fill:#fff;opacity:.30000000000000004"/><g style="opacity:.30000000000000004"><path d="M362.47 439.05a.33.33 0 0 1-.15 0L343 427.82a.29.29 0 0 1-.15-.25.3.3 0 0 1 .15-.26l24.21-14a.32.32 0 0 1 .3 0l19.36 11.18a.32.32 0 0 1 .15.26.3.3 0 0 1-.15.26l-24.21 14a.33.33 0 0 1-.19.04Zm-18.77-11.48 18.77 10.83 23.6-13.63-18.76-10.83Z" style="fill:#b2299f"/></g><path style="fill:#b2299f" d="m362.47 435.95-.01-60.13-14.52-8.39v60.14l14.53 8.38z"/><path style="fill:#fff;opacity:.1" d="m362.47 435.95-.01-60.13-14.52-8.39v60.14l14.53 8.38z"/><path style="fill:#b2299f" d="m362.47 435.95 19.36-11.18v-60.13l-19.37 11.18.01 60.13z"/><path style="fill:#fff;opacity:.30000000000000004" d="m362.47 435.95 19.36-11.18v-60.13l-19.37 11.18.01 60.13z"/><path style="fill:#b2299f" d="m381.83 364.64-14.52-8.39-19.37 11.18 14.52 8.39 19.37-11.18z"/><path style="fill:#fff;opacity:.55" d="m381.83 364.64-14.52-8.39-19.37 11.18 14.52 8.39 19.37-11.18z"/><path d="m362.72 376.18 19.11-11.54-19.56 10.79c-2.11-1.2-4.23-2.37-6.35-3.55l-8-4.45 7.84 4.69q3.21 1.94 6.43 3.84c-.07 2.26-.14 13.17-.16 15.43s0 28.41 0 30.72 0 4.61.13 6.92.15 4.62.3 6.92q.21-3.45.29-6.92c.08-2.31.12-4.61.13-6.92s0-28.42 0-30.72-.09-13.03-.16-15.21Z" style="fill:#fff;opacity:.30000000000000004"/><g style="opacity:.30000000000000004"><path d="M326.16 460a.42.42 0 0 1-.15 0l-19.37-11.18a.3.3 0 0 1-.14-.26.29.29 0 0 1 .14-.26l24.21-14a.27.27 0 0 1 .3 0l19.36 11.18a.29.29 0 0 1 .15.25.3.3 0 0 1-.15.26l-24.2 14a.42.42 0 0 1-.15.01Zm-18.77-11.48 18.77 10.84 23.61-13.64L331 434.9Z" style="fill:#b2299f"/></g><path style="fill:#b2299f" d="m326.16 456.91-.01-21.13-14.52-8.38v21.13l14.53 8.38z"/><path style="opacity:.45" d="m326.16 456.91-.01-21.13-14.52-8.38v21.13l14.53 8.38z"/><path style="fill:#b2299f" d="m326.16 456.91 19.36-11.17V424.6l-19.37 11.18.01 21.13z"/><path style="opacity:.30000000000000004" d="m326.16 456.91 19.36-11.17V424.6l-19.37 11.18.01 21.13z"/><path style="fill:#b2299f" d="M345.52 424.6 331 416.22l-19.37 11.18 14.52 8.38 19.37-11.18z"/><path style="opacity:.15" d="M345.52 424.6 331 416.22l-19.37 11.18 14.52 8.38 19.37-11.18z"/><path d="M345.52 424.6 326 435.39l-6.35-3.55-8-4.44 7.84 4.69 6.42 3.83c-.15 1.32-.19 15.55-.16 16.88a22.06 22.06 0 0 0 .43 4.11 22 22 0 0 0 .42-4.11c0-1.26 0-15.42-.14-16.68Z" style="fill:#fff;opacity:.30000000000000004"/><g style="opacity:.30000000000000004"><path d="M435.08 397.12a.28.28 0 0 1-.15 0l-19.36-11.22a.3.3 0 0 1-.15-.26.32.32 0 0 1 .15-.26l24.2-14a.32.32 0 0 1 .3 0l19.37 11.18a.29.29 0 0 1 .14.26.31.31 0 0 1-.14.26l-24.21 14a.28.28 0 0 1-.15.04Zm-18.77-11.48 18.77 10.84 23.61-13.63L439.92 372Z" style="fill:#b2299f"/></g><path style="fill:#b2299f" d="M435.08 394.03V255.29l-14.52-8.39v138.74l14.52 8.39z"/><path style="fill:#fff;opacity:.30000000000000004" d="M435.08 394.03V255.29l-14.52-8.39v138.74l14.52 8.39z"/><path style="fill:#b2299f" d="m435.08 394.03 19.36-11.18.01-138.74-19.37 11.18v138.74z"/><path style="fill:#fff;opacity:.55" d="m435.08 394.03 19.36-11.18.01-138.74-19.37 11.18v138.74z"/><path style="fill:#b2299f" d="m454.45 244.11-14.53-8.39-19.36 11.18 14.52 8.39 19.37-11.18z"/><path style="fill:#fff;opacity:.75" d="m454.45 244.11-14.53-8.39-19.36 11.18 14.52 8.39 19.37-11.18z"/><path d="m435.34 255.65 19.11-11.54-19.57 10.78q-3.17-1.78-6.35-3.54l-8-4.45 7.83 4.69c2.14 1.29 4.28 2.57 6.44 3.84-.07 2.56-.14 34.69-.16 37.26s0 83.08 0 85.69.05 5.21.13 7.82.15 5.22.3 7.83c.15-2.61.24-5.22.3-7.83s.11-5.21.13-7.82 0-83.09 0-85.69-.1-34.55-.16-37.04Z" style="fill:#fff;opacity:.30000000000000004"/><path style="fill:#b2299f;opacity:.5" d="m97.97 169.84-56.1 32.39 28.05-51.53 28.05 19.14z"/><path style="fill:#b2299f;opacity:.30000000000000004" d="m97.97 193.4-56.1 32.39 28.05-51.53 28.05 19.14z"/><path style="fill:#b2299f;opacity:.15" d="m97.97 216.95-56.1 32.39 28.05-51.53 28.05 19.14z"/><path d="M157.35 90.77V77.88l10.84-1.14a.94.94 0 0 1 .62.13l5.68 3.29a1 1 0 0 1 .23 1.59L163 94.07Z" style="fill:#b2299f"/><path d="M123.35 119.85V80a2 2 0 0 1 .91-1.58l32.52-18.74a2 2 0 0 1 1.81 0l5.06 3a2 2 0 0 1 .9 1.58v39.88a2 2 0 0 1-.91 1.58l-32.52 18.73a2 2 0 0 1-1.81 0l-5.06-3a2 2 0 0 1-.9-1.6Z" style="fill:#b2299f"/><path d="M131 124.49c-.43.17-.76-.07-.76-.59V84a1.84 1.84 0 0 1 .27-.9l-6.88-4a1.8 1.8 0 0 0-.25.87v39.88a2 2 0 0 0 .9 1.58l5.06 3a2 2 0 0 0 1.66.06Z" style="opacity:.15"/><path d="m173.9 80-9.35 1V64.23c0-.58-.41-.81-.91-.52l-32.52 18.74a2 2 0 0 0-.91 1.57v39.88c0 .58.41.81.91.52l32.52-18.73a2 2 0 0 0 .91-1.58V92.48l10.19-10.73a1 1 0 0 0-.84-1.75Z" style="fill:#b2299f"/><path d="m173.9 80-9.35 1V64.23c0-.58-.41-.81-.91-.52l-32.52 18.74a2 2 0 0 0-.91 1.57v39.88c0 .58.41.81.91.52l32.52-18.73a2 2 0 0 0 .91-1.58V92.48l10.19-10.73a1 1 0 0 0-.84-1.75Z" style="fill:#fff;opacity:.35000000000000003"/><path d="M156.85 98.06a.48.48 0 0 0 0-.46l-1.39-1.55a2 2 0 0 1-.17-1.8 3.36 3.36 0 0 1 1.13-1.82l2.23-1.62a.76.76 0 0 0 .26-.47 22.76 22.76 0 0 0 .18-2.86 21.18 21.18 0 0 0-.17-2.68c0-.15-.13-.22-.26-.17l-2.22.94a.8.8 0 0 1-1.13-.51s0 0 0-.05a2.71 2.71 0 0 1 .18-2l1.39-3.14a.52.52 0 0 0 0-.47 6.27 6.27 0 0 0-2.88-2.27c-.11 0-.25 0-.35.2l-1.76 2.87a2 2 0 0 1-1.43 1.06c-.49 0-.83-.39-.88-1l-.25-2.83c0-.17-.11-.24-.24-.2a13.93 13.93 0 0 0-4.15 2.38.76.76 0 0 0-.24.48l-.26 3.12a3.58 3.58 0 0 1-.88 2c-.49.54-1 .77-1.43.58L140.3 85c-.11 0-.25 0-.36.19a31.21 31.21 0 0 0-2.94 5.57.51.51 0 0 0 0 .47l1.39 1.54a2 2 0 0 1 .16 1.8.13.13 0 0 1 0 .06 3.37 3.37 0 0 1-1.12 1.8l-2.24 1.63a.7.7 0 0 0-.25.47 22.93 22.93 0 0 0-.19 2.87 18.3 18.3 0 0 0 .18 2.65c0 .16.12.23.25.17l2.23-.93a.8.8 0 0 1 1.13.53 2.75 2.75 0 0 1-.18 2L137 109a.54.54 0 0 0 0 .48 6.29 6.29 0 0 0 2.93 2.22c.11 0 .25 0 .35-.21l1.75-2.87a2 2 0 0 1 1.44-1c.49 0 .82.37.88 1l.25 2.83c0 .16.11.25.24.2a11.72 11.72 0 0 0 2.07-1 16.39 16.39 0 0 0 2.08-1.43.79.79 0 0 0 .24-.48l.26-3.12a3.67 3.67 0 0 1 .87-2c.5-.55 1-.78 1.44-.59l1.74.86c.1 0 .25 0 .35-.19a31.94 31.94 0 0 0 2.96-5.64Zm-9.93 4.55c-3.39 1.94-6.14-.15-6.13-4.67s2.76-9.8 6.15-11.74 6.14.16 6.13 4.68-2.77 9.78-6.15 11.73Z" style="fill:#fff"/></svg>