<svg xmlns="http://www.w3.org/2000/svg" viewBox="0 0 500 500"><g id="freepik--Floor--inject-4"><path id="freepik--floor--inject-4" d="M89.17,257.05C.34,308.33.35,391.47,89.17,442.76S322,494,410.83,442.76s88.82-134.43,0-185.71S178,205.76,89.17,257.05Z" style="fill:#fafafa"></path></g><g id="freepik--Shadows--inject-4"><ellipse id="freepik--Shadow--inject-4" cx="217.36" cy="439.42" rx="42.91" ry="24.77" style="fill:#e0e0e0"></ellipse><ellipse id="freepik--shadow--inject-4" cx="289.24" cy="419.81" rx="46.02" ry="26.57" style="fill:#e0e0e0"></ellipse></g><g id="freepik--Plants--inject-4"><g id="freepik--plants--inject-4"><path d="M74.4,408.32l-9.32,5.38a122.57,122.57,0,0,0-3-27.26c-6.18-28.72-18.72-33.71-24.83-44.89-6.42-11.76,1.83-18.81,9.61-17.6,7,1.07,18,9.62,23.47,27.27C77.64,374.49,75.85,397.71,74.4,408.32Z" style="fill:#B2299F"></path><path d="M74.4,408.32l-9.32,5.38a122.57,122.57,0,0,0-3-27.26c-6.18-28.72-18.72-33.71-24.83-44.89-6.42-11.76,1.83-18.81,9.61-17.6,7,1.07,18,9.62,23.47,27.27C77.64,374.49,75.85,397.71,74.4,408.32Z" style="fill:#fff;opacity:0.5"></path><path d="M68.92,406.05a.49.49,0,0,1-.41-.56c4.94-34.57-10.48-64.36-23-74.46a.49.49,0,0,1-.07-.69.47.47,0,0,1,.68-.08c12.71,10.26,28.35,40.42,23.36,75.37A.5.5,0,0,1,68.92,406.05Z" style="fill:#fff"></path><path d="M69.73,411l-4.65,2.68-.76.44c-1.53-6.95-5.62-14.2-13.37-22-9.09-9.11-21.76-17.62-19.52-25.27s12.46-5.63,19.52-1.1C57.58,370.06,71.7,385.77,69.73,411Z" style="fill:#B2299F"></path><path d="M69.73,411l-4.65,2.68-.76.44c-1.53-6.95-5.62-14.2-13.37-22-9.09-9.11-21.76-17.62-19.52-25.27s12.46-5.63,19.52-1.1C57.58,370.06,71.7,385.77,69.73,411Z" style="fill:#fff;opacity:0.65"></path><path d="M67.26,408.87a.5.5,0,0,1-.42-.47c-.65-16.94-19.24-38.87-28.1-42.47a.49.49,0,1,1,.37-.9c9.28,3.77,28,25.73,28.7,43.33a.48.48,0,0,1-.47.51Z" style="fill:#fff"></path></g></g><g id="freepik--arrow-2--inject-4"><g id="freepik--Arrow--inject-4"><polygon points="331.38 71.91 336.71 95.77 358.63 108.6 353.18 84.49 331.38 71.91" style="fill:#B2299F"></polygon><polygon points="331.38 71.91 336.71 95.77 358.63 108.6 353.18 84.49 331.38 71.91" style="opacity:0.2"></polygon><polygon points="284.13 189.61 353.18 84.49 331.38 71.91 414.26 48.52 429.35 128.47 407.61 115.92 338.56 221.03 284.13 189.61" style="fill:#B2299F"></polygon><polygon points="284.13 189.61 353.18 84.49 331.38 71.91 414.26 48.52 429.35 128.47 407.61 115.92 338.56 221.03 284.13 189.61" style="fill:#fff;opacity:0.2"></polygon><polygon points="407.61 115.92 338.59 221.03 350.81 234.93 413.14 140.06 434.83 152.59 429.35 128.47 407.61 115.92" style="fill:#B2299F"></polygon><polygon points="407.61 115.92 338.59 221.03 350.81 234.93 413.14 140.06 434.83 152.59 429.35 128.47 407.61 115.92" style="opacity:0.2"></polygon><polygon points="296.35 203.6 284.13 189.71 338.59 221.03 350.81 234.93 296.35 203.6" style="fill:#B2299F"></polygon><polygon points="296.35 203.6 284.13 189.71 338.59 221.03 350.81 234.93 296.35 203.6" style="opacity:0.4"></polygon><polygon points="413.14 140.06 407.61 115.92 429.35 128.47 434.83 152.59 413.14 140.06" style="opacity:0.2"></polygon></g></g><g id="freepik--arrow-piece--inject-4"><polygon points="104.26 460.12 184.95 337.59 130.52 306.17 49.83 428.7 104.26 460.12" style="fill:#B2299F"></polygon><polygon points="104.26 460.12 184.95 337.59 130.52 306.17 49.83 428.7 104.26 460.12" style="fill:#fff;opacity:0.2"></polygon><polygon points="184.95 337.59 104.26 460.12 136.91 441.27 195.76 352.26 184.95 337.59" style="fill:#B2299F"></polygon><polygon points="184.95 337.59 104.26 460.12 136.91 441.27 195.76 352.26 184.95 337.59" style="opacity:0.2"></polygon></g><g id="freepik--Character--inject-4"><g id="freepik--Hand--inject-4"><path d="M328.92,395.62c0,5.78,0,13.6,0,18.57,0,1.08,0,2.42,0,4.19,0,0,0,0,0,0-.79,5.2-4.64,10.29-11.54,14.27-15.6,9-40.89,9-56.49,0-8-4.64-11.94-10.78-11.68-16.86v0c0-.52.1-1.06.16-1.62,0,0,0,0,0-.06.68-5.91,1.16-11.83,1.49-17.38.53-8.81.46-12.69.39-17.43-.09-5.85-2.52-10.44-8.69-15.63s-18.44-22.93-18.44-22.93l81.37-41.83,23.13,73.28S328.92,389.84,328.92,395.62Z" style="fill:#ffa8a7"></path><path d="M306.12,283.73s-1.53,6.16-8.8-2-19.17-20.62-31.71-32.61c-6-5.75-30.08-25.11-46.23-39.75-5.15-5.31-12.46-9-17.49-5.16s-5,13.35-1.87,18.05c2.8,4.17,8.8,9.95,13.38,14.1,0,.25-.05.5-.08.75-.87,7.57-2.42,16.08-3.15,25.25-.44,5.47-7,12.35-6.94,18,1.94,8,12.53,16.57,20,22.55s10.75,8.41,10.67,10.3c-.13,2.89-12.26-7.63-17.65-11.33.3,17.17-10.68,19.24-10.68,19.24,1.65,3.3,11,10.58,24.31,27.61,5.25,6.73,58.69-37.51,58.69-37.51l12.69-8.15,8.93-14.77Z" style="fill:#ffa8a7"></path><path d="M301.69,298.88c-5,6.3-24.71,26.4-9.21,53.05a22.67,22.67,0,0,1-2.9-3.27,36.41,36.41,0,0,1-5.21-9.71c-.05-.13-.09-.25-.13-.38-3.52-10.14-2.32-20.47,4.25-29.19,5.17-6.85,14.58-13.51,15.84-20.9,0-.27.07-.54.09-.8C304.64,290,304.9,294.86,301.69,298.88Z" style="fill:#f28f8f"></path><path d="M199,208c-2,4.52-1.39,10.74,1,14.26,2.8,4.17,8.8,9.95,13.38,14.1l-.06.6c2,1.73,4.19,3.57,6.57,5.67,5.74,5.05,13.33,11.57,19.06,16.63,2.87,2.53,16.5,13.5,21.45,17.91-7.61-8.35-24.71-23.5-33.31-32-6.49-6.39-16.07-15.31-19.18-18.87s-4.94-6-6-7.32A14.29,14.29,0,0,1,199,208Z" style="fill:#f28f8f;opacity:0.5"></path><path d="M213.62,328.5a11.09,11.09,0,0,0,7.55-4.56c2-3.33,2.39-5.92,1.85-11.12a40.49,40.49,0,0,0-1.47-7.17c-1.78-1.28-3.64-2.66-5.29-3.79.3,17.17-10.68,19.24-10.68,19.24.75,1.49,3.08,3.81,6.64,7.48C212.69,328.57,213.15,328.54,213.62,328.5Z" style="fill:#f28f8f"></path><path d="M204.83,259.12c-.43.39,5.65,6.25,6.29,6.6,2.25,1.26,6.55-.3,8.41-1.86a9.64,9.64,0,0,0,2.63-3.72c2-4.8,1-10.29,0-15.4a2.88,2.88,0,0,0-1.11-2.1c-.12,2.68-2.48,3.84-4.22,5.45l-5,4.59Z" style="fill:#f28f8f"></path><polygon points="218.65 262.27 250.47 294.39 213.32 263.25 218.65 262.27" style="fill:#f28f8f"></polygon><path d="M214.3,289.71a10.73,10.73,0,0,0,6.72-6.53c.91-2.61.76-5.45.58-8.21a22.42,22.42,0,0,0-1.18-6.91l-14.88,5.06c-1.3,2.49-2.35,5-2.31,7.22.79,3.25,2.86,6.54,5.77,9.7A11.59,11.59,0,0,0,214.3,289.71Z" style="fill:#f28f8f"></path><path d="M210.34,236.13c6.54-.6,10,2.27,11.44,8.14a28.74,28.74,0,0,1,0,10.09c-.62,4.36-4.74,9.59-10.06,8.81l-.26,0c-8.6-1.4-9.57-6-9.57-13.47S204.52,236.66,210.34,236.13Z" style="fill:#ffa8a7"></path><path d="M218.06,237.86c.48.41,3.25,3.13,3.28,10.65,0,8.22-4.1,9.92-8.66,10.66S202,257.06,202,253h0c.39,5.53,2.22,9,9.47,10.18l.26,0c5.32.78,9.44-4.45,10.06-8.81a28.74,28.74,0,0,0,0-10.09A11.11,11.11,0,0,0,218.06,237.86Z" style="fill:#f28f8f;opacity:0.5"></path><path d="M210.49,262.34c6-.55,9.11,2.07,10.45,7.43a26.51,26.51,0,0,1,0,9.22c-.56,4-4.34,8.76-9.19,8l-.24,0c-7.85-1.28-8.74-5.5-8.74-12.3S205.17,262.82,210.49,262.34Z" style="fill:#ffa8a7"></path><path d="M218.82,265.17c.84,1.25,1.45,4.33,1,9-.65,6.11-2,9.07-7.29,9.46-5.53.39-8.93-2.17-9.52-4.86.53,4.44,2.4,7.25,8.55,8.25l.24,0c4.85.72,8.63-4,9.19-8a26.51,26.51,0,0,0,0-9.22A11.89,11.89,0,0,0,218.82,265.17Z" style="fill:#f28f8f;opacity:0.5"></path><path d="M210.81,299.3c6.2-.56,10.84,2.38,10.84,7.72v9.57a8.39,8.39,0,0,1-9.54,8.35l-.24,0c-8.15-1.33-8.05-8.77-8.15-12.68S205.29,299.81,210.81,299.3Z" style="fill:#ffa8a7"></path><path d="M218.63,301c2.71,2.83,1.65,8.6,1.45,14.29-.15,3.95-2.2,7.22-7.6,7.22s-7.82-3.29-8.55-6.52h0c.45,3.73,2,7.94,7.94,8.91l.24,0a8.39,8.39,0,0,0,9.54-8.35V307A7.05,7.05,0,0,0,218.63,301Z" style="fill:#f28f8f;opacity:0.5"></path><polygon points="142.07 297.42 275.46 196.28 329.93 227.71 196.5 328.85 142.07 297.42" style="fill:#B2299F"></polygon><polygon points="329.93 227.71 342.15 241.6 207.31 343.51 196.5 328.85 329.93 227.71" style="fill:#B2299F"></polygon><polygon points="329.93 227.71 342.15 241.6 207.31 343.51 196.5 328.85 329.93 227.71" style="opacity:0.2"></polygon><polygon points="142.07 297.42 152.88 312.09 207.31 343.51 196.5 328.85 142.07 297.42" style="fill:#B2299F"></polygon><polygon points="142.07 297.42 152.88 312.09 207.31 343.51 196.5 328.85 142.07 297.42" style="opacity:0.4"></polygon><path d="M328.63,372.17A377.62,377.62,0,0,1,332,322.55c2.35-16.41,1.89-30.45,1.18-34.42s-.93-9.73-7.05-17.05c-2.88-3.45-9.21-8.47-14.49-14.67s-10.29-13.2-13.11-17-9.81,2.31-9.47,14.42c.28,9.89,7,18.54,9.65,22.24,3.19,4.51,5.45,8.87,5.7,11.59.22,2.3.48,7.18-2.74,11.22-5,6.29-24.7,26.39-9.2,53v24.45Z" style="fill:#ffa8a7"></path><path d="M299.81,246.82s6,8.15,7.93,9.2,2.47-1.34,2.47-1.34h0c-2.76-3.88-7.91-10.94-11.66-15.25A14.24,14.24,0,0,1,299.81,246.82Z" style="fill:#ffa8a7"></path><path d="M299.81,246.82s6,8.15,7.93,9.2,2.47-1.34,2.47-1.34h0c-2.76-3.88-7.91-10.94-11.66-15.25A14.24,14.24,0,0,1,299.81,246.82Z" style="fill:#fff;opacity:0.6000000000000001"></path><path d="M310.21,254.68h0a11.75,11.75,0,0,0-.89-1.25,2.84,2.84,0,0,1-1.12,2.79h0C309.77,256.68,310.21,254.68,310.21,254.68Z" style="fill:#f28f8f"></path></g><g id="freepik--character--inject-4"><path id="freepik--shadow--inject-4" d="M225.51,284.07a73.75,73.75,0,0,1,17.61-10.74c8.11-3.68,17.85-6.93,24.62-10.93,8.79-5.2,12.15-11.46,11.51-17.76-.37-3.57-2.49-7.53-10.61-10.16a28.61,28.61,0,0,0-7.33-1.38A30,30,0,0,0,251,234.54c-14.9,4.51-21.23,11.44-26.23,18.17s-11.08,10.64-22,17c-4.67,2.71-9.68,5.37-14.1,8.12l-.1.07a56.94,56.94,0,0,0-6.44,4.19c-2.8,2.39-5.26,4.86-6.27,7.47s-.51,5.38,2.47,8a8,8,0,0,0,3.46,1.81,22.55,22.55,0,0,0,5,.62,44.35,44.35,0,0,0,9.88-.78,47.15,47.15,0,0,0,7.55-2.19A66.15,66.15,0,0,0,225.51,284.07Z" style="opacity:0.2"></path><g id="freepik--character--inject-4"><g id="freepik--Arm--inject-4"><path d="M179.8,151.35c-.82,2.17-3.2,6.77-3.05,7.35a8.62,8.62,0,0,1,.14,4.42c-.21,1.11-9.81,4.88-9.81,4.88l-.23-1.52a5.49,5.49,0,0,1,.38-3,61,61,0,0,0,4.09-12.84Z" style="fill:#ffa8a7"></path><path d="M177,162.14l-10.15,4.57.19,1.29s9.6-3.77,9.81-4.88C177,162.76,177,162.45,177,162.14Z" style="fill:#f28f8f"></path><g id="freepik--Briefcase--inject-4"><path d="M146.25,181.66,143.2,213c-.15,1.52.84,2.5,2.08,3.4l3.11,2.23a3.19,3.19,0,0,0,2.53.75,6.94,6.94,0,0,0,1.83-.55l.07,0,.19-.09,35.58-16.17a8,8,0,0,0,4.64-6.5L196,167.51a2.26,2.26,0,0,0-.85-1.87l-5.31-3.79a2.27,2.27,0,0,0-2-.2L147.45,180a2.18,2.18,0,0,0-.8.69A2.22,2.22,0,0,0,146.25,181.66Z" style="fill:#37474f"></path><path d="M146.25,181.66,143.2,213c-.15,1.52.84,2.5,2.08,3.4l3.11,2.23a3.19,3.19,0,0,0,2.53.75,6.94,6.94,0,0,0,1.83-.55h0c-1.38.49-2.34-.3-2.19-1.85l2.87-29.53A3.3,3.3,0,0,1,154,186l-7.38-5.28A2.22,2.22,0,0,0,146.25,181.66Z" style="fill:#263238"></path><path d="M153.43,187.44a3.47,3.47,0,0,1,1.81-2.53l38.14-17.33c1.51-.69,2.62.1,2.45,1.75l-2.59,26.72a8,8,0,0,1-4.65,6.5L153,218.72c-1.51.69-2.61-.1-2.45-1.75Z" style="fill:#455a64"></path><path d="M194.37,168.83a3.14,3.14,0,0,0,0,.35l-2.6,26.72a6.53,6.53,0,0,1-3.77,5.29l-35.58,16.17a1.38,1.38,0,0,1-.36.11s0-.17,0-.35l2.87-29.53a1.78,1.78,0,0,1,.94-1.31L194,168.94a1.38,1.38,0,0,1,.36-.11m0-1.5a2.42,2.42,0,0,0-1,.25l-38.15,17.33a3.47,3.47,0,0,0-1.81,2.53L150.56,217c-.12,1.24.47,2,1.42,2a2.5,2.5,0,0,0,1-.25l35.58-16.17a8,8,0,0,0,4.65-6.5l2.59-26.72c.13-1.24-.47-2-1.42-2Z" style="fill:#37474f"></path><path d="M191.57,163.08l-40.45,18.59a3.61,3.61,0,0,0-2.08,2.92l-3.14,32.25.55.4,3.17-32.59a3.05,3.05,0,0,1,1.74-2.45l40.76-18.73Z" style="fill:#B2299F"></path><path d="M149.69,182.86a3.55,3.55,0,0,0-.65,1.73l-3.14,32.25.55.4,3.17-32.59a3.09,3.09,0,0,1,.55-1.45Z" style="opacity:0.2"></path><path d="M150.17,183.2a3,3,0,0,1,1.19-1l40.76-18.73-.55-.39-40.45,18.59a3.61,3.61,0,0,0-1.43,1.19" style="opacity:0.2"></path><path d="M177.58,165.76l-.47,4.85,1.79,1.28.63-6.44c0-.33-.19-.49-.49-.35Z" style="fill:#B2299F"></path><path d="M177.58,165.76l-.47,4.85,1.79,1.28.63-6.44c0-.33-.19-.49-.49-.35Z" style="opacity:0.4"></path><path d="M163.78,169.26l-.77,7.85,1.71,1.23,1.29-.59.63-6.44a1.15,1.15,0,0,1,.61-.85L177,166l2-.92c.3-.14.52,0,.49.35l-.63,6.44,1.29-.58.77-7.86v-.1a1.15,1.15,0,0,0-.44-.85l-.72-.52a1.16,1.16,0,0,0-1-.1l-14.37,6.53A1.14,1.14,0,0,0,163.78,169.26Z" style="fill:#B2299F"></path><path d="M165.49,170.48l-.77,7.86,1.29-.59.63-6.44a1.15,1.15,0,0,1,.61-.85L177,166l2-.92c.3-.14.52,0,.49.35l-.63,6.44,1.29-.58.77-7.86v-.1c0-.26-.22-.37-.49-.25l-14.37,6.53A1.17,1.17,0,0,0,165.49,170.48Z" style="opacity:0.2"></path></g><path d="M175.48,165.4a1,1,0,0,1,.58.19,1.48,1.48,0,0,1,1.28-.71.53.53,0,0,1,.55.31.54.54,0,0,1,0,.22q-.1,1.09-.3,2.16A2.29,2.29,0,0,1,177,169a1.26,1.26,0,0,1-1.21.23,1.43,1.43,0,0,1-.78.75c-.08,0-1.09.12-1,0a2.16,2.16,0,0,1-2.29,1.22s-.27.78-1.7.61a2.88,2.88,0,0,1-2.05-1.74c.08-.43.23-.61.72-.8.24-.1.5-.2.74-.32a3.17,3.17,0,0,0,.79-.84,2.3,2.3,0,0,1,.88-.7,1.05,1.05,0,0,1,1.07.16,1.41,1.41,0,0,1,.44-.76,1.17,1.17,0,0,1,.69-.41c.08,0,.73.1.65.27a2.3,2.3,0,0,1,.86-1.06A1.35,1.35,0,0,1,175.48,165.4Z" style="fill:#ffa8a7"></path><path d="M181.23,150.62c-.62,2.87-2.18,5.45-1.49,7.86.47,1.63.6,1.46.41,3.12a11,11,0,0,1-.54,2.18c-.12.34-.24.69-.37,1a7.13,7.13,0,0,1-.45,1.07,8.72,8.72,0,0,1-.91,1.19,9.72,9.72,0,0,1-1.87,1.81l-.12.07a.5.5,0,0,1-.51-.17c-.63-.69-.16-1.69.17-2.38a5.56,5.56,0,0,0,.78-2.45c0-.11,0-.45,0-1l-.89-.22s-2.87-.69-2.92-2.08,1.05-2.72,1.88-4.35,1.17-2.69,2-6.89Z" style="fill:#ffa8a7"></path><path d="M178.79,165.89a12.92,12.92,0,0,1-2.43,2.84c-.16.11-.29.32-.58.34-1.33-.25-.7-2-.25-2.79a5.74,5.74,0,0,0,.8-2.32,5,5,0,0,1-.66,2.39c-.35.72-1,2.2.11,2.53a13.13,13.13,0,0,0,3-3Z" style="fill:#f28f8f"></path><path d="M176.11,162.69c-.35-.18-.73-.31-1.06-.52a2.37,2.37,0,0,1-.65-.65,3.17,3.17,0,0,1-.67-2.17s0-.13-.07,0a3.05,3.05,0,0,0,.39,2.57,2.65,2.65,0,0,0,.88.85,2,2,0,0,0,.58.24.83.83,0,0,0,.62,0C176.21,162.89,176.17,162.72,176.11,162.69Z" style="fill:#f28f8f"></path><path d="M198.27,93.05c-6.19-.48-11.14.75-14.35,8.9-3.61,9.21-7.18,16.31-9,23s-4.44,27.88-4.44,27.88,4.68,4.08,9.83,2.22l7.8-24.08,10.13-19.49Z" style="fill:#e6e6e6"></path></g><g id="freepik--Bottom--inject-4"><g id="freepik--bottom--inject-4"><path d="M268.64,245.09c.43-.3,1.07.81,1.08,1.51,0,2-1.3,4.93-4.22,7.53s-9.93,5.35-11.95,6.37-4.86,3.93-6.65,5.35c-3.27,2.57-6.27,2.95-8.09,2.45a2.47,2.47,0,0,1-1.43-1.42c-.73-1.38-.76-1.72-.61-1.79Z" style="fill:#37474f"></path><path d="M235,260.9a19.34,19.34,0,0,0,2.42,5.09,4.27,4.27,0,0,0,3.46.52,15.69,15.69,0,0,0,7.24-4,21.27,21.27,0,0,1,4.76-3.42c2.11-1,6.86-3.08,8.92-4.19a16.12,16.12,0,0,0,5-4.18c1-1.38,2.27-3.91,2.14-5.21-.92-2.7-2-4-3.86-4.06s-4.21,1-7.27,2.39c-.92.42-2.06,1-2.56,1.2-1.9.8-3.64,1.6-5,2.27a8.85,8.85,0,0,1-3.73,1.13,2.65,2.65,0,0,1-1.7-.45c-.63-.47-1.13-1.39-1.71-1.14,0,0-9.13,7.34-9.89,7.88S233.57,256.37,235,260.9Z" style="fill:#455a64"></path><path d="M255.89,244.54a3.19,3.19,0,0,1,1.24.46,6.17,6.17,0,0,1,1.12.92c.42.44-.16.89-.74.44a7.46,7.46,0,0,0-1.5-1,1.9,1.9,0,0,0-1.23-.13l-.54.23C254.17,245,255.36,244.5,255.89,244.54Z" style="fill:#fafafa"></path><path d="M251.05,246.54a1.4,1.4,0,0,1,1.11-.24,2.74,2.74,0,0,1,1.31.67,11,11,0,0,1,1.25,1.3c.22.31-.56.73-.85.41a16.05,16.05,0,0,0-1.17-1.16c-.22-.18-1.1-.82-1.69-.61l-.25.12c-.07-.11,0-.28.14-.36A.93.93,0,0,1,251.05,246.54Z" style="fill:#fafafa"></path><path d="M248.34,248a1.16,1.16,0,0,1,.78,0,3.18,3.18,0,0,1,.86.56,6.41,6.41,0,0,1,1.14,1.5c.25.42-.59.74-.77.47a4.83,4.83,0,0,0-1.7-1.86,2.48,2.48,0,0,0-1.07-.33c0-.08.09-.16.17-.19S248.2,248,248.34,248Z" style="fill:#fafafa"></path><path d="M226.82,244.24s5.12,9.07,6.54,11.09c.45.65,1.9.2,2.73.12a9,9,0,0,1,3,0c2.64.74,4.13.42,3.51-3.1-.13-.72.11-1.2,1-1.49a5.55,5.55,0,0,0,1.89-.73c.05-.11-.08-.22-.19-.27a3.34,3.34,0,0,1-1.91-2c-1.83-3.95-3.49-12.1-3.49-12.1Z" style="fill:#ffa8a7"></path><path d="M188,264.52c1.57-2.51,2.42-7.34,5.87-17.17l12.81,9.39L199.34,271a11,11,0,0,0-.58,2C197.05,275.51,188,264.52,188,264.52Z" style="fill:#ffa8a7"></path><path d="M183.24,269.88c0-.15-.05-1.33,0-1.47.34-1.28,1.13-1.63,2.14-2.34a15.56,15.56,0,0,0,2.79-2.39c.34-.47.4-.71.93-.92a4.93,4.93,0,0,1,4.11.53c2.9,1.53,3.79,3.37,3.62,5.36-.12,1.52-.25,3.54,1.09,4.44.56.38,1.44-2,1.44-2,.82,1.39-.34,3.3-.94,6.11a11.32,11.32,0,0,0-.08,4.71c.29,2.46.63,2.45,1.94,2.62,1.12.15,4.32-.06,6.26,1.29a4.13,4.13,0,0,1,2,4.36c-.35.95-3.26,5.54-13.89,3.82-3.09-.49-9.57-5.34-9.47-5.8a5.89,5.89,0,0,0,0-1.39c0-1.09-.08-2.17-.13-3.26a16.1,16.1,0,0,0-.18-3.11,18.33,18.33,0,0,1-.4-2.57q-.3-3.27-.61-6.55C183.72,270.64,183.16,270.5,183.24,269.88Z" style="fill:#455a64"></path><path d="M181.91,269.45c-1,1-.42,4,1,7.49.63,1.57,1.79,4.27,1.45,7.14s-.41,4.22.33,5.57c1.16,2.1,7.34,4.79,11,5.64A20.12,20.12,0,0,1,192,284.76c-.36-6.33-.85-10.41-3.74-13.22C184.56,268,181.91,269.45,181.91,269.45Z" style="fill:#263238"></path><path d="M208.48,290.13s-2.13,4-10.36,3.87c-3.24-.05-5-1.63-5.06-6.56-.09-5.93-.57-11.92-2.49-14.87s-5-4.37-7.35-4.16a2.23,2.23,0,0,0-1.31,1s2.37-.78,6.06,2.28c2.73,2.26,3.46,7,3.42,12.86,0,2.52-.17,5.39.57,7.3a5.79,5.79,0,0,0,3.93,3.46c4.47,1.26,10.6-.81,12.14-2.7A3,3,0,0,0,208.48,290.13Z" style="fill:#37474f"></path><path d="M198.59,283.41a1.7,1.7,0,0,1,.67,1A2.84,2.84,0,0,1,198,287c-.49.3-.92.2-.14-.84A5.11,5.11,0,0,0,198.59,283.41Z" style="fill:#fafafa"></path><path d="M198.15,280.34s.26.16.33,1A4.06,4.06,0,0,1,197,284c-.87.42-.4-.58,0-1.07A6.44,6.44,0,0,0,198.15,280.34Z" style="fill:#fafafa"></path><path d="M198.44,276.94s.28.08,0,1.22a3.62,3.62,0,0,1-1.79,1.57c-.56.07-.83-.21-.14-.71C197,278.63,198.34,277.49,198.44,276.94Z" style="fill:#fafafa"></path><path d="M219.44,150.12s5,6,8,17.12a260.14,260.14,0,0,1,6.21,31.53c.72,4.75,1.4,9.33,3.06,18.47,1.57,8.68,5.47,27.45,5.47,27.45s-.68,2.87-4.55,4.56a16.25,16.25,0,0,1-8,1s-2.65-4.53-8.17-15.18a46.26,46.26,0,0,1-5.08-14.87,68.39,68.39,0,0,1-1.14-10.72L194.47,174.3a23.72,23.72,0,0,1-4.16-7.17c-2.93-7.35.81-17.95.81-17.95Z" style="fill:#37474f"></path><path d="M219.44,150.12s5,6,8,17.12a260.14,260.14,0,0,1,6.21,31.53c.72,4.75,1.4,9.33,3.06,18.47,1.57,8.68,5.47,27.45,5.47,27.45s-.68,2.87-4.55,4.56a16.25,16.25,0,0,1-8,1s-2.65-4.53-8.17-15.18a46.26,46.26,0,0,1-5.08-14.87,68.39,68.39,0,0,1-1.14-10.72L194.47,174.3a23.72,23.72,0,0,1-4.16-7.17c-2.93-7.35.81-17.95.81-17.95Z" style="fill:#37474f"></path><path d="M233.23,196.06a243,243,0,0,0-5.8-28.82,58.39,58.39,0,0,0-3.17-8.86L198,157.92c-2,4.57-3.5,10.28.78,17.26l1.12,8.32,15.31,26a68.39,68.39,0,0,0,1.14,10.72,46.26,46.26,0,0,0,5.08,14.87l.48.92a69.24,69.24,0,0,0,5.25-8.85c1.5-3.56,2.54-10.44,4.11-19.14C231.84,204.83,232.59,200.18,233.23,196.06Z" style="fill:#263238"></path><path d="M202.16,150.12a21.36,21.36,0,0,0-5.06,12.66,18.93,18.93,0,0,0,4,12.52c1,15.24,4.05,44.59,4.05,44.59-4,4.15-5.07,6.82-7.4,14.26-1.41,4.51-5.54,18.15-7.14,23.24,9.77.42,11.61,8.79,11.61,8.79s11.84-19.09,17.82-29.87c4.42-8,5-9.87,6.18-14.62s1.43-9.15,2.88-19.06,4-23.58,4.74-33.34.84-20.11.84-20.11Z" style="fill:#37474f"></path><path d="M189.24,162.06a6,6,0,0,0,2.93-2.08,8.47,8.47,0,0,0,.76-2.15,21.26,21.26,0,0,1,1.23-3.67l.75.34a23,23,0,0,0-1.19,3.54,8.81,8.81,0,0,1-.85,2.38,6.68,6.68,0,0,1-3.56,2.46C189.29,162.61,189.26,162.34,189.24,162.06Z" style="fill:#263238"></path><path d="M208.82,170.79a2.58,2.58,0,0,1-.53,0c-1.2-.26-2.13-1.07-4-3.44-1.41-1.8-1.27-3.1-1-5.24.09-.79.92-5,1-6.11l.79.44c0,1.13-.85,5-.94,5.76-.23,2.13-.34,3.11.86,4.65,1.71,2.19,2.53,2.92,3.51,3.13a14.58,14.58,0,0,0,6.24-1.25c.64-.44,1.72-6,2.35-10.8l.82.11c-.32,2.45-1.46,10.51-2.7,11.37S210.48,170.84,208.82,170.79Z" style="fill:#263238"></path></g></g><g id="freepik--Top--inject-4"><path d="M190.91,97.47c-2.79,5.33-2.45,10.11-1.64,17.6.74,6.91,1.26,11.18,1.9,19.72a62.28,62.28,0,0,1-.57,15.92s.27,4.13,12.44,7.23c21.38,5.45,31.64-.76,31.64-.76s.52-12-.31-27.79c-.93-17.65-1.24-20.23-2.6-24.43a11,11,0,0,0-5.47-5.57c-2.13-1-7.21-2.62-10.23-3.79a45.57,45.57,0,0,0-15.13-2.54C194.85,92.65,192.36,94.7,190.91,97.47Z" style="fill:#f5f5f5"></path><path d="M199.44,94c.46,0,.94,0,1.43,0h.36a44.38,44.38,0,0,1,14.48,2.48c1.23.47,2.8,1,4.32,1.57,2.27.8,4.62,1.63,5.85,2.19a10,10,0,0,1,5,5c1.29,4,1.59,6.17,2.54,24.12.71,13.6.42,24.55.33,27.12-1.42.69-6.13,2.62-14.18,2.62A66,66,0,0,1,203.29,157c-10.07-2.56-11.5-5.75-11.67-6.26a64.91,64.91,0,0,0,.55-16c-.54-7.23-1-11.41-1.57-16.7l-.34-3.06c-.8-7.47-1.12-11.94,1.54-17,1-1.94,2.71-3.92,7.64-3.92m0-1c-5,0-7.2,1.93-8.53,4.46-2.79,5.33-2.45,10.11-1.64,17.6.74,6.91,1.26,11.18,1.9,19.72a62.28,62.28,0,0,1-.57,15.92s.27,4.13,12.44,7.23a66.93,66.93,0,0,0,16.48,2.24c10.21,0,15.16-3,15.16-3s.52-12-.31-27.79c-.93-17.65-1.24-20.23-2.6-24.43a11,11,0,0,0-5.47-5.57c-2.13-1-7.21-2.62-10.23-3.79a45.25,45.25,0,0,0-14.84-2.54h-.29c-.53,0-1,0-1.5,0Z" style="fill:#e0e0e0"></path><path d="M216.6,89.56,216,96.05c-3.56.77-12.19.22-13.81-2l.34-6Z" style="fill:#ffa8a7"></path><path d="M225.85,72.92s1.65,1.25,2.9,5.56l-2.44,1.79C225.51,77.24,224.64,74.16,225.85,72.92Z" style="fill:#f28f8f"></path><path d="M219.55,60.86c6.07.4,7.08,3.56,6.18,13.9,2.13,9.82-.81,13.71-2.08,15-2.85,1.53-5.76,1.79-9.71.76-3-.79-10.63-3.05-13.82-7.78-3.76-5.56-4.74-14-.74-17.17C205,61.12,217.14,60.7,219.55,60.86Z" style="fill:#ffa8a7"></path><path d="M223.65,89.75c-.7.71-4.75,2-7.25,1.72l.2-1.91A25.66,25.66,0,0,0,223.65,89.75Z" style="fill:#f28f8f"></path><path d="M220.19,68a4.78,4.78,0,0,1-.57,1.26,7.68,7.68,0,0,1-2.7,2.3,14.63,14.63,0,0,1,.81,3.92,2.13,2.13,0,0,1-.28,1.24.83.83,0,0,1-1.48,0,9.77,9.77,0,0,0-1.23-2.06,3.93,3.93,0,0,0-2.49-1.34c-3.66-.36-3.67,5.34-2.21,7.27,2.4,3.15,4.38,1.13,4.38,1.13s1.23,4.87-2.3,7c0,0-5.68,1.4-9.56-.57-1.77-3.65-4.17-5.78-6.07-9.67-3.34-6.81-1.74-12.78.53-14-.64-3.18,1.3-6.3,5.41-8.24s9.65-.94,14-.25a18,18,0,0,0,7.7-.44,4.56,4.56,0,0,1,1.08-.2,1.17,1.17,0,0,1,1,.43,1.37,1.37,0,0,1,0,1.37,11,11,0,0,0-.68,1.26,2.06,2.06,0,0,1,2.21,1.25,3.73,3.73,0,0,1-.41,3.67,5.79,5.79,0,0,1-3.14,2.12,13,13,0,0,1-3.83.42A4.36,4.36,0,0,1,220.19,68Z" style="fill:#263238"></path><path d="M216.27,93.28c.93,0,1.94,1.87,3.75,3.76a20.88,20.88,0,0,1-12.77,1.82c-7.65-1.15-9.12-5.8-9.12-5.8s1.75-1.35,2.67-2.25c1.12-1.1,1.67-1.12,1.67-1.12l-.09,1.57s1.47,1.52,6.13,2.46A13.78,13.78,0,0,0,216.27,93.28Z" style="fill:#e6e6e6"></path><path id="freepik--arm--inject-4" d="M243.34,138.31s-2.19-11-3.78-18.65-1-16.56-13.08-19.6c-2,3-3.3,7.73-2.63,13.56s3.34,15,4,18.07a46.07,46.07,0,0,0,5.82,13.54c3.83,5.7,11,15.34,13.88,18.88,1.34,1.64,2.5,3.3,3.74,5a48.07,48.07,0,0,0,4.51,4.86,6.1,6.1,0,0,0,2.7,1.57c.65.18,1.3-.07,1.91.1s1,.76,1.78.78,1.52-.55,2.28-.48a18.58,18.58,0,0,0,2.39.34,4.16,4.16,0,0,1,2,.18c.58.24,1.4,1,2.07.62s.52-1.26.26-1.94a6.62,6.62,0,0,0-2.9-3A37.48,37.48,0,0,0,264.5,170a9.44,9.44,0,0,1-3.23-2.54c-.62-.7-1-1.77.24-1.78,1.49,0,3.35.55,4.71-.4.94-.65.62-1.48-.29-1.88a32.62,32.62,0,0,1-4.34-2.28c-1.42-.88-2.73-1.9-4.16-2.74a20,20,0,0,0-2.38-1.13c-2.25-.94-3.23-3.19-4.37-5.18C249.1,149.33,245.11,142,243.34,138.31Z" style="fill:#ffa8a7"></path><path d="M225.9,126.59s-2.12-8.33-2.67-11.82-.85-12.54,2.76-15.51c2.6.63,9.57,1.87,11.58,8.43s5,23.81,5,23.81l9.08,21.43s0,2-3.77,4.57-5.74,1.7-5.74,1.7-7.49-11.34-11.12-16.93C228.6,138.52,228,136,225.9,126.59Z" style="fill:#e6e6e6"></path></g></g></g></g><g id="freepik--Coins--inject-4"><g id="freepik--coins--inject-4"><g id="freepik--Coin--inject-4"><path d="M251.2,430.15a23.19,23.19,0,0,0-8.55-7.9c-14-8.06-36.62-8.06-50.59,0a23.07,23.07,0,0,0-8.54,7.9h-1.93v7.31h0c.26,5.08,3.74,10.12,10.45,14,14,8.06,36.62,8.06,50.59,0,6.72-3.88,10.22-8.92,10.48-14h0v-7.31Z" style="fill:#B2299F"></path><path d="M251.2,430.15a23.19,23.19,0,0,0-8.55-7.9c-14-8.06-36.62-8.06-50.59,0a23.07,23.07,0,0,0-8.54,7.9h-1.93v7.31h0c.26,5.08,3.74,10.12,10.45,14,14,8.06,36.62,8.06,50.59,0,6.72-3.88,10.22-8.92,10.48-14h0v-7.31Z" style="opacity:0.25"></path><path d="M217.36,416.2c-9.16,0-18.31,2-25.3,6.05a23.07,23.07,0,0,0-8.54,7.9h-1.93v7.31h0c.26,5.08,3.74,10.12,10.45,14,7,4,16.14,6.05,25.3,6.05Z" style="opacity:0.1"></path><path d="M197.82,419.56a38.5,38.5,0,0,0-5.76,2.69,23.07,23.07,0,0,0-8.54,7.9h-1.93v7.31h0c.26,5.08,3.74,10.12,10.45,14a38.5,38.5,0,0,0,5.76,2.69Z" style="opacity:0.1"></path><path d="M236.89,419.56a38.5,38.5,0,0,1,5.76,2.69,23.19,23.19,0,0,1,8.55,7.9h1.93v7.31h0c-.26,5.08-3.76,10.12-10.48,14a38.5,38.5,0,0,1-5.76,2.69Z" style="fill:#B2299F;opacity:0.5"></path><path d="M192.06,415.55c-14,8.07-14,21.15,0,29.21,12.23,7.06,31.09,7.94,45,2.65h0l.55-.22a39.4,39.4,0,0,0,5.06-2.43c11.65-6.73,13.59-16.94,5.8-24.82h0a27.27,27.27,0,0,0-5.8-4.39C228.68,407.49,206,407.49,192.06,415.55Z" style="fill:#B2299F"></path><path d="M192.06,415.55c-14,8.07-14,21.15,0,29.21,12.23,7.06,31.09,7.94,45,2.65h0l.55-.22a39.4,39.4,0,0,0,5.06-2.43c11.65-6.73,13.59-16.94,5.8-24.82h0a27.27,27.27,0,0,0-5.8-4.39C228.68,407.49,206,407.49,192.06,415.55Z" style="opacity:0.2"></path><path d="M248.45,419.94a15.66,15.66,0,0,1,3.75,12.74c-1.24,7.1-11.18,13.08-14.61,14.51a39.4,39.4,0,0,0,5.06-2.43C254.3,438,256.24,427.82,248.45,419.94Z" style="fill:#f5f5f5;opacity:0.5"></path><path d="M186.26,440.37a15.61,15.61,0,0,1-3.74-12.74c1.24-7.1,11.18-13.07,14.6-14.51a40,40,0,0,0-5.06,2.43C180.41,422.28,178.48,432.49,186.26,440.37Z" style="fill:#f5f5f5;opacity:0.5"></path><path d="M240.88,443.7c13-7.49,13-19.65,0-27.15s-34-7.49-47,0-13,19.66,0,27.15S227.9,451.2,240.88,443.7Z" style="fill:#B2299F"></path><path d="M240.88,443.7c13-7.49,13-19.65,0-27.15s-34-7.49-47,0-13,19.66,0,27.15S227.9,451.2,240.88,443.7Z" style="fill:#fff;opacity:0.4"></path><path d="M249.11,435.86c2.67-4.94,1.8-10.38-2.61-15a22.25,22.25,0,0,0-2.82-2.47,26.08,26.08,0,0,0-2.69-1.77c-.53-.32-1.07-.61-1.64-.89,1.39,2.27.88,4.71-6.95,5.17-15.33.89,4.09,15.54,4.09,15.54S246.37,431.67,249.11,435.86Z" style="fill:#fff;opacity:0.2"></path><path d="M247.53,431.81c2.3-.26,3.44-2.62,2.55-5.28s-3.49-4.61-5.79-4.35-3.44,2.62-2.54,5.28S245.23,432.07,247.53,431.81Z" style="fill:#fff;opacity:0.5"></path><path d="M223.29,444c-.76-5.69-25.63-21.45-25.63-21.45s-5.52-2.21-3.69-6.07a28.35,28.35,0,0,0-2.66,1.72c-.58.41-1.11.84-1.62,1.28-7.4,6.41-7.41,14.84,0,21.26.5.43,1,.86,1.61,1.28a25.64,25.64,0,0,0,2.47,1.6,28.47,28.47,0,0,0,2.63,1.38c.73.35,1.48.67,2.24,1s1.54.58,2.34.84a47.55,47.55,0,0,0,7.42,1.78l1.67.25a57.19,57.19,0,0,0,7.42.46,55.9,55.9,0,0,0,9.08-.74S222.58,447.76,223.29,444Z" style="fill:#B2299F"></path><path d="M223.29,444c-.76-5.69-25.63-21.45-25.63-21.45s-5.52-2.21-3.69-6.07a28.35,28.35,0,0,0-2.66,1.72c-.58.41-1.11.84-1.62,1.28-7.4,6.41-7.41,14.84,0,21.26.5.43,1,.86,1.61,1.28a25.64,25.64,0,0,0,2.47,1.6,28.47,28.47,0,0,0,2.63,1.38c.73.35,1.48.67,2.24,1s1.54.58,2.34.84a47.55,47.55,0,0,0,7.42,1.78l1.67.25a57.19,57.19,0,0,0,7.42.46,55.9,55.9,0,0,0,9.08-.74S222.58,447.76,223.29,444Z" style="fill:#fff;opacity:0.30000000000000004"></path><path d="M199.84,420c-9.28,5.36-9.66,13.91-1.13,19.53.36.24.74.47,1.13.7,9.68,5.59,25.36,5.59,35,0s9.68-14.64,0-20.23l-1.22-.65C223.93,414.44,209.12,414.66,199.84,420Z" style="fill:#B2299F"></path><path d="M199.84,420c-9.28,5.36-9.66,13.91-1.13,19.53.36.24.74.47,1.13.7,9.68,5.59,25.36,5.59,35,0s9.68-14.64,0-20.23l-1.22-.65C223.93,414.44,209.12,414.66,199.84,420Z" style="opacity:0.2"></path><ellipse cx="217.37" cy="430.13" rx="23.68" ry="13.67" style="fill:#B2299F"></ellipse><ellipse cx="217.37" cy="430.13" rx="23.68" ry="13.67" style="opacity:0.5"></ellipse><path d="M200.63,424.27c9.24-5.34,24.24-5.34,33.48,0,3.79,2.19,6,4.93,6.71,7.76-.69,2.84-2.92,5.58-6.71,7.76-9.24,5.34-24.24,5.34-33.48,0-3.78-2.18-6-4.92-6.71-7.76C194.61,429.2,196.85,426.46,200.63,424.27Z" style="fill:#B2299F"></path><path d="M200.63,424.27c9.24-5.34,24.24-5.34,33.48,0,3.79,2.19,6,4.93,6.71,7.76-.69,2.84-2.92,5.58-6.71,7.76-9.24,5.34-24.24,5.34-33.48,0-3.78-2.18-6-4.92-6.71-7.76C194.61,429.2,196.85,426.46,200.63,424.27Z" style="opacity:0.35000000000000003"></path><path d="M232.28,434.25c0-.47,0-2.35,0-2.83,0-1.16-.8-2.28-2.52-3.29l-.06,0c-3.18-1.84-6.47-1.6-9.4-.86h0c-1.24.32-2.43.72-3.51,1.09a35.06,35.06,0,0,1-3.76,1.17h0a6.8,6.8,0,0,1-1.79.17,3.83,3.83,0,0,1-1.48-.39l.12-.09.37-.22a7.66,7.66,0,0,1,1-.5,6.87,6.87,0,0,1,5.26-.12l3-3.06v-2.81a14.39,14.39,0,0,0-8.3-.3,17.21,17.21,0,0,0-2.64.91l-3-1.75-3.62,2.09v2.81l1.24.72a3.06,3.06,0,0,0-.53,1.64v2.8c0,1.16.84,2.28,2.58,3.29a10.55,10.55,0,0,0,5,1.44h1a19.9,19.9,0,0,0,5.37-1.16l1-.36-3.06,3.06v2.81a14.87,14.87,0,0,0,11.71-.51l3,1.73,3.62-2.09v-2.81l-1.24-.72A3.33,3.33,0,0,0,232.28,434.25Zm-7.64-.25a6.58,6.58,0,0,1-.84.42,7.74,7.74,0,0,1-5.92.09c2.83-1,5.2-1.87,7.22-.8A4,4,0,0,1,224.64,434Z" style="fill:#B2299F"></path><path d="M220.3,427.23h0c-1.24.32-2.43.72-3.51,1.09a35.06,35.06,0,0,1-3.76,1.17h0a6.8,6.8,0,0,1-1.79.17,3.79,3.79,0,0,1-1.72-.52c-1.17-.67-1.34-1.65.36-2.77l.37-.23a9.08,9.08,0,0,1,1-.49,6.87,6.87,0,0,1,5.26-.12l3-3.06a14.39,14.39,0,0,0-8.3-.3,17.21,17.21,0,0,0-2.64.91l-3-1.75-3.62,2.09,3,1.73,0,0c-3,2.31-3.1,4.71.32,6.69a10.55,10.55,0,0,0,5,1.44h1a19.53,19.53,0,0,0,5.37-1.17c3.48-1.16,6.3-2.53,8.64-1.18,1.57.91,1.13,2.05-.59,3a6.58,6.58,0,0,1-.84.42,7.76,7.76,0,0,1-6,.05l-3.19,3.19a14.87,14.87,0,0,0,11.71-.51l3,1.73,3.62-2.09-3-1.73c3-2.33,3.37-4.87-.15-6.93l-.06,0C226.52,426.25,223.23,426.49,220.3,427.23Z" style="fill:#B2299F"></path><g style="opacity:0.30000000000000004"><path d="M220.3,427.23h0c-1.24.32-2.43.72-3.51,1.09a35.06,35.06,0,0,1-3.76,1.17h0a6.8,6.8,0,0,1-1.79.17,3.79,3.79,0,0,1-1.72-.52c-1.17-.67-1.34-1.65.36-2.77l.37-.23a9.08,9.08,0,0,1,1-.49,6.87,6.87,0,0,1,5.26-.12l3-3.06a14.39,14.39,0,0,0-8.3-.3,17.21,17.21,0,0,0-2.64.91l-3-1.75-3.62,2.09,3,1.73,0,0c-3,2.31-3.1,4.71.32,6.69a10.55,10.55,0,0,0,5,1.44h1a19.53,19.53,0,0,0,5.37-1.17c3.48-1.16,6.3-2.53,8.64-1.18,1.57.91,1.13,2.05-.59,3a6.58,6.58,0,0,1-.84.42,7.76,7.76,0,0,1-6,.05l-3.19,3.19a14.87,14.87,0,0,0,11.71-.51l3,1.73,3.62-2.09-3-1.73c3-2.33,3.37-4.87-.15-6.93l-.06,0C226.52,426.25,223.23,426.49,220.3,427.23Z" style="fill:#fff"></path></g><polygon points="201.92 423.42 205.58 421.76 208.58 423.08 205.54 421.33 201.92 423.42" style="fill:#f5f5f5;opacity:0.45"></polygon><path d="M210.8,422.28a17,17,0,0,1,7.79.27l-2.11,3,3-3.06A14.49,14.49,0,0,0,210.8,422.28Z" style="fill:#f5f5f5;opacity:0.45"></path><path d="M229.7,428.09l.06,0c3.52,2.06,3.17,4.6.15,6.93,2.68-2.91,2.19-4.94-.71-6.61a13.63,13.63,0,0,0-8.9-1.22C223.23,426.49,226.52,426.25,229.7,428.09Z" style="fill:#f5f5f5;opacity:0.45"></path><polygon points="229.91 435.06 232.21 436.83 229.29 438.88 232.91 436.79 229.91 435.06" style="fill:#f5f5f5;opacity:0.45"></polygon><path d="M223.8,434.42a7.8,7.8,0,0,1-5.77.51l-3.45,2.73,3.19-3.19A7.76,7.76,0,0,0,223.8,434.42Z" style="fill:#f5f5f5;opacity:0.45"></path><path d="M213,429.49a4.7,4.7,0,0,1-4.34-.41c-1-.9-.38-1.87,1.19-2.71-1.7,1.12-1.53,2.1-.36,2.77a3.79,3.79,0,0,0,1.72.52A6.8,6.8,0,0,0,213,429.49Z" style="fill:#f5f5f5;opacity:0.45"></path><path d="M204.89,425.18c-.25.22-2.43,2.26-1.47,4.29s4.22,3.56,6.8,3.84h0a10.55,10.55,0,0,1-5-1.44C201.79,429.89,201.85,427.49,204.89,425.18Z" style="fill:#f5f5f5;opacity:0.45"></path></g><g id="freepik--coin--inject-4"><path d="M258,419.86a23,23,0,0,0-8.54-7.9c-14-8.07-36.62-8.07-50.59,0a23,23,0,0,0-8.54,7.9h-1.94v7.31h0c.26,5.08,3.73,10.12,10.45,14,14,8.07,36.62,8.07,50.59,0,6.72-3.87,10.22-8.91,10.47-14h0v-7.31Z" style="fill:#B2299F"></path><path d="M258,419.86a23,23,0,0,0-8.54-7.9c-14-8.07-36.62-8.07-50.59,0a23,23,0,0,0-8.54,7.9h-1.94v7.31h0c.26,5.08,3.73,10.12,10.45,14,14,8.07,36.62,8.07,50.59,0,6.72-3.87,10.22-8.91,10.47-14h0v-7.31Z" style="opacity:0.25"></path><path d="M224.13,405.91c-9.16,0-18.31,2-25.3,6a23,23,0,0,0-8.54,7.9h-1.94v7.31h0c.26,5.08,3.73,10.12,10.45,14,7,4,16.14,6,25.3,6Z" style="opacity:0.1"></path><path d="M204.59,409.26a39.55,39.55,0,0,0-5.76,2.7,23,23,0,0,0-8.54,7.9h-1.94v7.31h0c.26,5.08,3.73,10.12,10.45,14a38.54,38.54,0,0,0,5.76,2.7Z" style="opacity:0.1"></path><path d="M243.66,409.26a39.55,39.55,0,0,1,5.76,2.7,23,23,0,0,1,8.54,7.9h1.93v7.31h0c-.25,5.08-3.76,10.12-10.47,14a38.54,38.54,0,0,1-5.76,2.7Z" style="fill:#B2299F;opacity:0.5"></path><path d="M198.83,405.26c-14,8.06-14,21.14,0,29.21,12.22,7,31.09,7.94,45,2.64h0l.55-.21a40,40,0,0,0,5.06-2.43c11.65-6.73,13.58-16.94,5.8-24.82h0a27.25,27.25,0,0,0-5.8-4.38C235.45,397.19,212.8,397.19,198.83,405.26Z" style="fill:#B2299F"></path><path d="M198.83,405.26c-14,8.06-14,21.14,0,29.21,12.22,7,31.09,7.94,45,2.64h0l.55-.21a40,40,0,0,0,5.06-2.43c11.65-6.73,13.58-16.94,5.8-24.82h0a27.25,27.25,0,0,0-5.8-4.38C235.45,397.19,212.8,397.19,198.83,405.26Z" style="opacity:0.2"></path><path d="M255.22,409.65A15.61,15.61,0,0,1,259,422.39c-1.24,7.1-11.17,13.07-14.6,14.51a40,40,0,0,0,5.06-2.43C261.07,427.74,263,417.53,255.22,409.65Z" style="fill:#f5f5f5;opacity:0.5"></path><path d="M193,430.08a15.63,15.63,0,0,1-3.74-12.74c1.23-7.1,11.17-13.08,14.6-14.51a39.4,39.4,0,0,0-5.06,2.43C187.18,412,185.25,422.2,193,430.08Z" style="fill:#f5f5f5;opacity:0.5"></path><path d="M247.65,433.41c13-7.5,13-19.65,0-27.15s-34-7.5-47,0-13,19.65,0,27.15S234.66,440.91,247.65,433.41Z" style="fill:#B2299F"></path><path d="M247.65,433.41c13-7.5,13-19.65,0-27.15s-34-7.5-47,0-13,19.65,0,27.15S234.66,440.91,247.65,433.41Z" style="fill:#fff;opacity:0.4"></path><path d="M255.88,425.57c2.67-4.94,1.8-10.39-2.61-15a22.2,22.2,0,0,0-2.82-2.46,27.87,27.87,0,0,0-2.69-1.78c-.53-.31-1.08-.61-1.64-.89,1.38,2.28.88,4.71-7,5.17-15.32.9,4.1,15.54,4.1,15.54S253.14,421.37,255.88,425.57Z" style="fill:#fff;opacity:0.2"></path><path d="M254.3,421.52c2.3-.26,3.44-2.63,2.54-5.29s-3.48-4.6-5.78-4.35-3.44,2.63-2.55,5.29S252,421.77,254.3,421.52Z" style="fill:#fff;opacity:0.5"></path><path d="M230.06,433.72c-.76-5.69-25.64-21.44-25.64-21.44s-5.51-2.22-3.68-6.07a25.38,25.38,0,0,0-2.66,1.72,19.44,19.44,0,0,0-1.62,1.28c-7.41,6.41-7.42,14.83,0,21.25q.75.66,1.62,1.29a29,29,0,0,0,2.46,1.6q1.28.73,2.64,1.38c.72.34,1.48.67,2.24,1s1.54.58,2.33.84a49.12,49.12,0,0,0,7.43,1.78c.55.09,1.11.17,1.66.24a56.91,56.91,0,0,0,16.51-.28S229.34,437.47,230.06,433.72Z" style="fill:#B2299F"></path><path d="M230.06,433.72c-.76-5.69-25.64-21.44-25.64-21.44s-5.51-2.22-3.68-6.07a25.38,25.38,0,0,0-2.66,1.72,19.44,19.44,0,0,0-1.62,1.28c-7.41,6.41-7.42,14.83,0,21.25q.75.66,1.62,1.29a29,29,0,0,0,2.46,1.6q1.28.73,2.64,1.38c.72.34,1.48.67,2.24,1s1.54.58,2.33.84a49.12,49.12,0,0,0,7.43,1.78c.55.09,1.11.17,1.66.24a56.91,56.91,0,0,0,16.51-.28S229.34,437.47,230.06,433.72Z" style="fill:#fff;opacity:0.30000000000000004"></path><path d="M206.61,409.72c-9.28,5.36-9.66,13.91-1.13,19.53.36.23.74.47,1.13.7,9.68,5.58,25.36,5.58,35,0s9.68-14.64,0-20.23c-.39-.23-.8-.45-1.21-.66C230.7,404.14,215.89,404.36,206.61,409.72Z" style="fill:#B2299F"></path><path d="M206.61,409.72c-9.28,5.36-9.66,13.91-1.13,19.53.36.23.74.47,1.13.7,9.68,5.58,25.36,5.58,35,0s9.68-14.64,0-20.23c-.39-.23-.8-.45-1.21-.66C230.7,404.14,215.89,404.36,206.61,409.72Z" style="opacity:0.2"></path><ellipse cx="224.14" cy="419.83" rx="23.68" ry="13.67" style="fill:#B2299F"></ellipse><ellipse cx="224.14" cy="419.83" rx="23.68" ry="13.67" style="opacity:0.5"></ellipse><path d="M207.39,414c9.25-5.34,24.24-5.34,33.49,0,3.78,2.18,6,4.92,6.71,7.76-.69,2.84-2.93,5.58-6.71,7.76-9.25,5.34-24.24,5.34-33.49,0-3.78-2.18-6-4.92-6.7-7.76C201.38,418.9,203.61,416.16,207.39,414Z" style="fill:#B2299F"></path><path d="M207.39,414c9.25-5.34,24.24-5.34,33.49,0,3.78,2.18,6,4.92,6.71,7.76-.69,2.84-2.93,5.58-6.71,7.76-9.25,5.34-24.24,5.34-33.49,0-3.78-2.18-6-4.92-6.7-7.76C201.38,418.9,203.61,416.16,207.39,414Z" style="opacity:0.35000000000000003"></path><path d="M239.05,424v-2.82c0-1.16-.8-2.29-2.53-3.3l-.06,0c-3.18-1.83-6.46-1.59-9.39-.85h0c-1.25.31-2.43.72-3.51,1.09a32.6,32.6,0,0,1-3.76,1.16h0a7.17,7.17,0,0,1-1.78.17,4.08,4.08,0,0,1-1.49-.4l.12-.08.37-.23a9.21,9.21,0,0,1,1-.49,6.82,6.82,0,0,1,5.26-.12l3-3.06v-2.81a14.39,14.39,0,0,0-8.3-.31,16.55,16.55,0,0,0-2.64.92l-3-1.76-3.62,2.1v2.81l1.24.71a2.89,2.89,0,0,0-.53,1.64v2.81c0,1.16.83,2.28,2.58,3.29a10.66,10.66,0,0,0,5,1.44h0c.33,0,.66,0,1,0a19.9,19.9,0,0,0,5.37-1.16l1-.36-3.06,3.06v2.82a15,15,0,0,0,11.71-.51l3,1.73,3.62-2.09V426.5l-1.24-.72A3.33,3.33,0,0,0,239.05,424Zm-7.64-.24a8.22,8.22,0,0,1-.84.42,7.81,7.81,0,0,1-5.93.09c2.84-1,5.21-1.88,7.23-.8C231.73,423.52,231.57,423.61,231.41,423.71Z" style="fill:#B2299F"></path><path d="M227.07,416.94h0c-1.25.31-2.43.72-3.51,1.09a32.6,32.6,0,0,1-3.76,1.16h0a7.17,7.17,0,0,1-1.78.17,3.83,3.83,0,0,1-1.73-.52c-1.16-.67-1.33-1.66.36-2.77l.37-.23a9.21,9.21,0,0,1,1-.49,6.82,6.82,0,0,1,5.26-.12l3-3.06a14.39,14.39,0,0,0-8.3-.31,16.55,16.55,0,0,0-2.64.92l-3-1.76-3.62,2.1,3,1.73,0,0c-3,2.32-3.11,4.72.32,6.7a10.66,10.66,0,0,0,5,1.44h0a8.34,8.34,0,0,0,1,0,19.9,19.9,0,0,0,5.37-1.16c3.48-1.16,6.29-2.53,8.64-1.18,1.56.91,1.13,2.05-.59,3a8.22,8.22,0,0,1-.84.42,7.78,7.78,0,0,1-6,0l-3.18,3.19a14.92,14.92,0,0,0,11.71-.5l3,1.73,3.62-2.09-3-1.73c3-2.34,3.36-4.88-.16-6.94l-.06,0C233.28,416,230,416.2,227.07,416.94Z" style="fill:#B2299F"></path><g style="opacity:0.30000000000000004"><path d="M227.07,416.94h0c-1.25.31-2.43.72-3.51,1.09a32.6,32.6,0,0,1-3.76,1.16h0a7.17,7.17,0,0,1-1.78.17,3.83,3.83,0,0,1-1.73-.52c-1.16-.67-1.33-1.66.36-2.77l.37-.23a9.21,9.21,0,0,1,1-.49,6.82,6.82,0,0,1,5.26-.12l3-3.06a14.39,14.39,0,0,0-8.3-.31,16.55,16.55,0,0,0-2.64.92l-3-1.76-3.62,2.1,3,1.73,0,0c-3,2.32-3.11,4.72.32,6.7a10.66,10.66,0,0,0,5,1.44h0a8.34,8.34,0,0,0,1,0,19.9,19.9,0,0,0,5.37-1.16c3.48-1.16,6.29-2.53,8.64-1.18,1.56.91,1.13,2.05-.59,3a8.22,8.22,0,0,1-.84.42,7.78,7.78,0,0,1-6,0l-3.18,3.19a14.92,14.92,0,0,0,11.71-.5l3,1.73,3.62-2.09-3-1.73c3-2.34,3.36-4.88-.16-6.94l-.06,0C233.28,416,230,416.2,227.07,416.94Z" style="fill:#fff"></path></g><polygon points="208.69 413.13 212.35 411.47 215.35 412.79 212.31 411.04 208.69 413.13" style="fill:#f5f5f5;opacity:0.45"></polygon><path d="M217.57,412a17,17,0,0,1,7.78.26l-2.1,3,3-3.06A14.49,14.49,0,0,0,217.57,412Z" style="fill:#f5f5f5;opacity:0.45"></path><path d="M236.46,417.79l.06,0c3.52,2.06,3.18,4.6.16,6.94,2.67-2.91,2.19-4.94-.71-6.62a13.69,13.69,0,0,0-8.9-1.21C230,416.2,233.28,416,236.46,417.79Z" style="fill:#f5f5f5;opacity:0.45"></path><polygon points="236.68 424.77 238.98 426.53 236.06 428.59 239.68 426.5 236.68 424.77" style="fill:#f5f5f5;opacity:0.45"></polygon><path d="M230.57,424.13a7.79,7.79,0,0,1-5.78.5l-3.44,2.73,3.18-3.19A7.78,7.78,0,0,0,230.57,424.13Z" style="fill:#f5f5f5;opacity:0.45"></path><path d="M219.77,419.2a4.73,4.73,0,0,1-4.34-.42c-1-.9-.37-1.86,1.19-2.7-1.69,1.11-1.52,2.1-.36,2.77a3.83,3.83,0,0,0,1.73.52A7.17,7.17,0,0,0,219.77,419.2Z" style="fill:#f5f5f5;opacity:0.45"></path><path d="M211.66,414.88c-.26.23-2.44,2.26-1.47,4.3s4.22,3.56,6.8,3.83h0a10.66,10.66,0,0,1-5-1.44C208.55,419.6,208.62,417.2,211.66,414.88Z" style="fill:#f5f5f5;opacity:0.45"></path></g><g id="freepik--coin--inject-4"><path d="M249.84,407.82a23.11,23.11,0,0,0-8.55-7.9c-14-8.06-36.61-8.06-50.58,0a23.11,23.11,0,0,0-8.55,7.9h-1.93v7.31h0c.26,5.08,3.74,10.12,10.46,14,14,8.06,36.61,8.06,50.58,0,6.72-3.88,10.22-8.92,10.48-14h0v-7.31Z" style="fill:#B2299F"></path><path d="M249.84,407.82a23.11,23.11,0,0,0-8.55-7.9c-14-8.06-36.61-8.06-50.58,0a23.11,23.11,0,0,0-8.55,7.9h-1.93v7.31h0c.26,5.08,3.74,10.12,10.46,14,14,8.06,36.61,8.06,50.58,0,6.72-3.88,10.22-8.92,10.48-14h0v-7.31Z" style="opacity:0.25"></path><path d="M216,393.87c-9.15,0-18.31,2-25.29,6.05a23.11,23.11,0,0,0-8.55,7.9h-1.93v7.31h0c.26,5.08,3.74,10.12,10.46,14,7,4,16.14,6.05,25.29,6.05Z" style="opacity:0.1"></path><path d="M196.46,397.22a39.43,39.43,0,0,0-5.75,2.7,23.11,23.11,0,0,0-8.55,7.9h-1.93v7.31h0c.26,5.08,3.74,10.12,10.46,14a38.38,38.38,0,0,0,5.75,2.69Z" style="opacity:0.1"></path><path d="M235.54,397.22a39.43,39.43,0,0,1,5.75,2.7,23.11,23.11,0,0,1,8.55,7.9h1.93v7.31h0c-.26,5.08-3.76,10.12-10.48,14a38.38,38.38,0,0,1-5.75,2.69Z" style="fill:#B2299F;opacity:0.5"></path><path d="M190.71,393.22c-14,8.07-14,21.14,0,29.21,12.22,7.06,31.09,7.94,45,2.65h0l.56-.22a39.26,39.26,0,0,0,5-2.43c11.65-6.73,13.59-16.94,5.81-24.82h0a27,27,0,0,0-5.8-4.39C227.33,385.16,204.68,385.16,190.71,393.22Z" style="fill:#B2299F"></path><path d="M190.71,393.22c-14,8.07-14,21.14,0,29.21,12.22,7.06,31.09,7.94,45,2.65h0l.56-.22a39.26,39.26,0,0,0,5-2.43c11.65-6.73,13.59-16.94,5.81-24.82h0a27,27,0,0,0-5.8-4.39C227.33,385.16,204.68,385.16,190.71,393.22Z" style="opacity:0.2"></path><path d="M247.1,397.61a15.65,15.65,0,0,1,3.74,12.74c-1.24,7.1-11.18,13.07-14.6,14.51a39.26,39.26,0,0,0,5-2.43C252.94,415.7,254.88,405.49,247.1,397.61Z" style="fill:#f5f5f5;opacity:0.5"></path><path d="M184.9,418a15.65,15.65,0,0,1-3.74-12.74c1.24-7.1,11.18-13.07,14.6-14.51a39.91,39.91,0,0,0-5,2.43C179.06,400,177.12,410.16,184.9,418Z" style="fill:#f5f5f5;opacity:0.5"></path><ellipse cx="216.01" cy="407.8" rx="33.25" ry="19.2" style="fill:#B2299F"></ellipse><ellipse cx="216.01" cy="407.8" rx="33.25" ry="19.2" style="fill:#fff;opacity:0.4"></ellipse><path d="M184.27,413.53c-2.67-4.94-1.8-10.39,2.61-15a22.25,22.25,0,0,1,2.82-2.47,27.87,27.87,0,0,1,2.69-1.78c.53-.31,1.08-.6,1.64-.88-1.38,2.27-.88,4.71,7,5.16,15.32.9-4.1,15.55-4.1,15.55S187,409.34,184.27,413.53Z" style="fill:#fff;opacity:0.2"></path><path d="M185.85,409.48c-2.3-.26-3.44-2.62-2.54-5.28s3.48-4.61,5.78-4.35,3.44,2.62,2.55,5.28S188.15,409.74,185.85,409.48Z" style="fill:#fff;opacity:0.5"></path><path d="M210.09,421.69c.76-5.7,25.64-21.45,25.64-21.45s5.51-2.22,3.68-6.07a27.1,27.1,0,0,1,2.66,1.72,19.44,19.44,0,0,1,1.62,1.28c7.41,6.41,7.42,14.84,0,21.26-.5.43-1,.86-1.62,1.28a29,29,0,0,1-2.46,1.6q-1.28.75-2.64,1.38c-.72.35-1.48.67-2.24,1s-1.54.58-2.33.84a48,48,0,0,1-7.43,1.78l-1.66.25a57.45,57.45,0,0,1-7.43.46,55.9,55.9,0,0,1-9.08-.74S210.81,425.43,210.09,421.69Z" style="fill:#B2299F"></path><path d="M210.09,421.69c.76-5.7,25.64-21.45,25.64-21.45s5.51-2.22,3.68-6.07a27.1,27.1,0,0,1,2.66,1.72,19.44,19.44,0,0,1,1.62,1.28c7.41,6.41,7.42,14.84,0,21.26-.5.43-1,.86-1.62,1.28a29,29,0,0,1-2.46,1.6q-1.28.75-2.64,1.38c-.72.35-1.48.67-2.24,1s-1.54.58-2.33.84a48,48,0,0,1-7.43,1.78l-1.66.25a57.45,57.45,0,0,1-7.43.46,55.9,55.9,0,0,1-9.08-.74S210.81,425.43,210.09,421.69Z" style="fill:#fff;opacity:0.30000000000000004"></path><path d="M233.54,397.68c9.28,5.36,9.66,13.91,1.13,19.53-.36.24-.74.47-1.13.7-9.68,5.59-25.36,5.59-35,0s-9.68-14.64,0-20.23c.39-.22.8-.44,1.21-.65C209.45,392.11,224.26,392.33,233.54,397.68Z" style="fill:#B2299F"></path><path d="M233.54,397.68c9.28,5.36,9.66,13.91,1.13,19.53-.36.24-.74.47-1.13.7-9.68,5.59-25.36,5.59-35,0s-9.68-14.64,0-20.23c.39-.22.8-.44,1.21-.65C209.45,392.11,224.26,392.33,233.54,397.68Z" style="opacity:0.2"></path><path d="M232.76,398.13c9.24,5.34,9.24,14,0,19.33s-24.24,5.34-33.49,0-9.25-14,0-19.33S223.51,392.79,232.76,398.13Z" style="fill:#B2299F"></path><path d="M232.76,398.13c9.24,5.34,9.24,14,0,19.33s-24.24,5.34-33.49,0-9.25-14,0-19.33S223.51,392.79,232.76,398.13Z" style="opacity:0.5"></path><path d="M232.76,401.94c-9.25-5.34-24.24-5.34-33.49,0-3.78,2.19-6,4.92-6.7,7.76.68,2.84,2.92,5.58,6.7,7.76,9.25,5.34,24.24,5.34,33.49,0,3.78-2.18,6-4.92,6.7-7.76C238.77,406.86,236.54,404.13,232.76,401.94Z" style="fill:#B2299F"></path><path d="M232.76,401.94c-9.25-5.34-24.24-5.34-33.49,0-3.78,2.19-6,4.92-6.7,7.76.68,2.84,2.92,5.58,6.7,7.76,9.25,5.34,24.24,5.34,33.49,0,3.78-2.18,6-4.92,6.7-7.76C238.77,406.86,236.54,404.13,232.76,401.94Z" style="opacity:0.35000000000000003"></path><path d="M230.92,411.91c0-.46,0-2.34,0-2.82,0-1.16-.81-2.28-2.53-3.29l-.06,0c-3.18-1.84-6.47-1.6-9.39-.86h0c-1.24.32-2.42.72-3.5,1.09a33.21,33.21,0,0,1-3.76,1.16h0a6.76,6.76,0,0,1-1.79.17,3.83,3.83,0,0,1-1.48-.39l.12-.09.37-.23a9.08,9.08,0,0,1,1-.49,6.89,6.89,0,0,1,5.27-.12l3-3.06v-2.81a14.39,14.39,0,0,0-8.3-.3,17.21,17.21,0,0,0-2.64.91l-3-1.75-3.63,2.09v2.81l1.25.72a3,3,0,0,0-.54,1.64c0,.46,0,2.33,0,2.8,0,1.16.83,2.28,2.58,3.29a10.6,10.6,0,0,0,5,1.44h0c.33,0,.67,0,1,0a19.59,19.59,0,0,0,5.38-1.16l1-.36-3.05,3.07v2.81a14.85,14.85,0,0,0,11.7-.51l3,1.73,3.63-2.09v-2.81l-1.25-.72A3.18,3.18,0,0,0,230.92,411.91Zm-7.64-.24a7.31,7.31,0,0,1-.84.42,7.74,7.74,0,0,1-5.92.09c2.84-1,5.2-1.88,7.22-.8A4,4,0,0,1,223.28,411.67Z" style="fill:#B2299F"></path><path d="M219,404.9h0c-1.24.32-2.42.72-3.5,1.09a33.21,33.21,0,0,1-3.76,1.16h0a6.76,6.76,0,0,1-1.79.17,3.82,3.82,0,0,1-1.72-.52c-1.17-.67-1.34-1.66.36-2.77l.37-.23a9.08,9.08,0,0,1,1-.49,6.89,6.89,0,0,1,5.27-.12l3-3.06a14.39,14.39,0,0,0-8.3-.3,17.21,17.21,0,0,0-2.64.91l-3-1.75-3.63,2.09,3,1.73,0,0c-3,2.31-3.11,4.71.32,6.69a10.6,10.6,0,0,0,5,1.44h0c.33,0,.67,0,1,0a19.59,19.59,0,0,0,5.38-1.16c3.47-1.16,6.29-2.53,8.63-1.18,1.57.91,1.14,2.05-.59,3a7.31,7.31,0,0,1-.84.42,7.76,7.76,0,0,1-6,.05l-3.18,3.19a14.85,14.85,0,0,0,11.7-.51l3,1.73,3.63-2.09-3-1.73c3-2.33,3.36-4.87-.16-6.93l-.06,0C225.16,403.92,221.87,404.16,219,404.9Z" style="fill:#B2299F"></path><g style="opacity:0.30000000000000004"><path d="M219,404.9h0c-1.24.32-2.42.72-3.5,1.09a33.21,33.21,0,0,1-3.76,1.16h0a6.76,6.76,0,0,1-1.79.17,3.82,3.82,0,0,1-1.72-.52c-1.17-.67-1.34-1.66.36-2.77l.37-.23a9.08,9.08,0,0,1,1-.49,6.89,6.89,0,0,1,5.27-.12l3-3.06a14.39,14.39,0,0,0-8.3-.3,17.21,17.21,0,0,0-2.64.91l-3-1.75-3.63,2.09,3,1.73,0,0c-3,2.31-3.11,4.71.32,6.69a10.6,10.6,0,0,0,5,1.44h0c.33,0,.67,0,1,0a19.59,19.59,0,0,0,5.38-1.16c3.47-1.16,6.29-2.53,8.63-1.18,1.57.91,1.14,2.05-.59,3a7.31,7.31,0,0,1-.84.42,7.76,7.76,0,0,1-6,.05l-3.18,3.19a14.85,14.85,0,0,0,11.7-.51l3,1.73,3.63-2.09-3-1.73c3-2.33,3.36-4.87-.16-6.93l-.06,0C225.16,403.92,221.87,404.16,219,404.9Z" style="fill:#fff"></path></g><polygon points="200.57 401.09 204.22 399.43 207.22 400.75 204.19 399 200.57 401.09" style="fill:#f5f5f5;opacity:0.45"></polygon><path d="M209.44,400a17,17,0,0,1,7.79.27l-2.1,3,3-3.06A14.49,14.49,0,0,0,209.44,400Z" style="fill:#f5f5f5;opacity:0.45"></path><path d="M228.34,405.76l.06,0c3.52,2.06,3.17,4.6.16,6.93,2.67-2.91,2.19-4.94-.71-6.62a13.7,13.7,0,0,0-8.9-1.21C221.87,404.16,225.16,403.92,228.34,405.76Z" style="fill:#f5f5f5;opacity:0.45"></path><polygon points="228.56 412.73 230.86 414.5 227.93 416.55 231.56 414.46 228.56 412.73" style="fill:#f5f5f5;opacity:0.45"></polygon><path d="M222.44,412.09a7.8,7.8,0,0,1-5.77.51l-3.44,2.73,3.18-3.19A7.76,7.76,0,0,0,222.44,412.09Z" style="fill:#f5f5f5;opacity:0.45"></path><path d="M211.65,407.16a4.72,4.72,0,0,1-4.34-.41c-1.05-.9-.37-1.87,1.19-2.71-1.7,1.11-1.53,2.1-.36,2.77a3.82,3.82,0,0,0,1.72.52A6.76,6.76,0,0,0,211.65,407.16Z" style="fill:#f5f5f5;opacity:0.45"></path><path d="M203.54,402.85c-.26.22-2.44,2.26-1.48,4.29s4.22,3.56,6.8,3.84h0a10.6,10.6,0,0,1-5-1.44C200.43,407.56,200.49,405.16,203.54,402.85Z" style="fill:#f5f5f5;opacity:0.45"></path><polygon points="184.41 404.19 185.31 397.34 186.21 404.19 198.06 404.71 186.21 405.23 185.31 412.07 184.41 405.23 172.55 404.71 184.41 404.19" style="fill:#fff"></polygon></g></g></g><g id="freepik--bar-graph--inject-4"><g id="freepik--bar-graph--inject-4"><g style="opacity:0.30000000000000004"><path d="M398.77,418.08a.28.28,0,0,1-.15,0l-19.36-11.18a.3.3,0,0,1-.15-.26.29.29,0,0,1,.15-.25l24.21-14a.3.3,0,0,1,.29,0l19.37,11.18a.3.3,0,0,1,.15.26.31.31,0,0,1-.15.26l-24.21,14A.26.26,0,0,1,398.77,418.08ZM380,406.6l18.76,10.84,23.61-13.63L403.61,393Z" style="fill:#B2299F"></path></g><polygon points="398.77 414.99 398.77 314.76 384.25 306.38 384.25 406.61 398.77 414.99" style="fill:#B2299F"></polygon><polygon points="398.77 414.99 398.77 314.76 384.25 306.38 384.25 406.61 398.77 414.99" style="opacity:0.2"></polygon><polygon points="398.77 414.99 418.14 403.81 418.14 303.59 398.77 314.76 398.77 414.99" style="fill:#B2299F"></polygon><polygon points="418.14 303.59 403.62 295.2 384.25 306.38 398.77 314.76 418.14 303.59" style="fill:#B2299F"></polygon><polygon points="418.14 303.59 403.62 295.2 384.25 306.38 398.77 314.76 418.14 303.59" style="fill:#fff;opacity:0.25"></polygon><path d="M418.14,303.59l-19.56,10.78-6.35-3.55-8-4.44,7.84,4.69,6.42,3.83c-.15,2.18-.19,91.23-.16,93.41a57.6,57.6,0,0,0,.42,6.68,57.61,57.61,0,0,0,.43-6.68c0-2.11,0-91.09-.16-93.2Z" style="fill:#fff;opacity:0.30000000000000004"></path><g style="opacity:0.30000000000000004"><path d="M362.47,439.05a.33.33,0,0,1-.15,0L343,427.82a.29.29,0,0,1-.15-.25.3.3,0,0,1,.15-.26l24.21-14a.32.32,0,0,1,.3,0l19.36,11.18a.32.32,0,0,1,.15.26.3.3,0,0,1-.15.26l-24.21,14A.33.33,0,0,1,362.47,439.05ZM343.7,427.57l18.77,10.83,23.6-13.63-18.76-10.83Z" style="fill:#B2299F"></path></g><polygon points="362.47 435.95 362.46 375.82 347.94 367.43 347.94 427.57 362.47 435.95" style="fill:#B2299F"></polygon><polygon points="362.47 435.95 362.46 375.82 347.94 367.43 347.94 427.57 362.47 435.95" style="fill:#fff;opacity:0.1"></polygon><polygon points="362.47 435.95 381.83 424.77 381.83 364.64 362.46 375.82 362.47 435.95" style="fill:#B2299F"></polygon><polygon points="362.47 435.95 381.83 424.77 381.83 364.64 362.46 375.82 362.47 435.95" style="fill:#fff;opacity:0.30000000000000004"></polygon><polygon points="381.83 364.64 367.31 356.25 347.94 367.43 362.46 375.82 381.83 364.64" style="fill:#B2299F"></polygon><polygon points="381.83 364.64 367.31 356.25 347.94 367.43 362.46 375.82 381.83 364.64" style="fill:#fff;opacity:0.55"></polygon><path d="M362.72,376.18l19.11-11.54-19.56,10.79c-2.11-1.2-4.23-2.37-6.35-3.55l-8-4.45,7.84,4.69q3.21,1.94,6.43,3.84c-.07,2.26-.14,13.17-.16,15.43s0,28.41,0,30.72,0,4.61.13,6.92.15,4.62.3,6.92q.21-3.45.29-6.92c.08-2.31.12-4.61.13-6.92s0-28.42,0-30.72S362.79,378.36,362.72,376.18Z" style="fill:#fff;opacity:0.30000000000000004"></path><g style="opacity:0.30000000000000004"><path d="M326.16,460a.42.42,0,0,1-.15,0l-19.37-11.18a.3.3,0,0,1-.14-.26.29.29,0,0,1,.14-.26l24.21-14a.27.27,0,0,1,.3,0l19.36,11.18a.29.29,0,0,1,.15.25.3.3,0,0,1-.15.26l-24.2,14A.42.42,0,0,1,326.16,460Zm-18.77-11.48,18.77,10.84,23.61-13.64L331,434.9Z" style="fill:#B2299F"></path></g><polygon points="326.16 456.91 326.15 435.78 311.63 427.4 311.63 448.53 326.16 456.91" style="fill:#B2299F"></polygon><polygon points="326.16 456.91 326.15 435.78 311.63 427.4 311.63 448.53 326.16 456.91" style="opacity:0.45"></polygon><polygon points="326.16 456.91 345.52 445.74 345.52 424.6 326.15 435.78 326.16 456.91" style="fill:#B2299F"></polygon><polygon points="326.16 456.91 345.52 445.74 345.52 424.6 326.15 435.78 326.16 456.91" style="opacity:0.30000000000000004"></polygon><polygon points="345.52 424.6 331 416.22 311.63 427.4 326.15 435.78 345.52 424.6" style="fill:#B2299F"></polygon><polygon points="345.52 424.6 331 416.22 311.63 427.4 326.15 435.78 345.52 424.6" style="opacity:0.15"></polygon><path d="M345.52,424.6,326,435.39l-6.35-3.55-8-4.44,7.84,4.69,6.42,3.83c-.15,1.32-.19,15.55-.16,16.88a22.06,22.06,0,0,0,.43,4.11,22,22,0,0,0,.42-4.11c0-1.26,0-15.42-.14-16.68Z" style="fill:#fff;opacity:0.30000000000000004"></path><g style="opacity:0.30000000000000004"><path d="M435.08,397.12a.28.28,0,0,1-.15,0L415.57,385.9a.3.3,0,0,1-.15-.26.32.32,0,0,1,.15-.26l24.2-14a.32.32,0,0,1,.3,0l19.37,11.18a.29.29,0,0,1,.14.26.31.31,0,0,1-.14.26l-24.21,14A.28.28,0,0,1,435.08,397.12Zm-18.77-11.48,18.77,10.84,23.61-13.63L439.92,372Z" style="fill:#B2299F"></path></g><polygon points="435.08 394.03 435.08 255.29 420.56 246.9 420.56 385.64 435.08 394.03" style="fill:#B2299F"></polygon><polygon points="435.08 394.03 435.08 255.29 420.56 246.9 420.56 385.64 435.08 394.03" style="fill:#fff;opacity:0.30000000000000004"></polygon><polygon points="435.08 394.03 454.44 382.85 454.45 244.11 435.08 255.29 435.08 394.03" style="fill:#B2299F"></polygon><polygon points="435.08 394.03 454.44 382.85 454.45 244.11 435.08 255.29 435.08 394.03" style="fill:#fff;opacity:0.55"></polygon><polygon points="454.45 244.11 439.92 235.72 420.56 246.9 435.08 255.29 454.45 244.11" style="fill:#B2299F"></polygon><polygon points="454.45 244.11 439.92 235.72 420.56 246.9 435.08 255.29 454.45 244.11" style="fill:#fff;opacity:0.75"></polygon><path d="M435.34,255.65l19.11-11.54-19.57,10.78q-3.17-1.78-6.35-3.54l-8-4.45,7.83,4.69c2.14,1.29,4.28,2.57,6.44,3.84-.07,2.56-.14,34.69-.16,37.26s0,83.08,0,85.69.05,5.21.13,7.82.15,5.22.3,7.83c.15-2.61.24-5.22.3-7.83s.11-5.21.13-7.82,0-83.09,0-85.69S435.4,258.14,435.34,255.65Z" style="fill:#fff;opacity:0.30000000000000004"></path></g></g><g id="freepik--arrow-1--inject-4"><g id="freepik--Triangles--inject-4"><polygon points="97.97 169.84 41.87 202.23 69.92 150.7 97.97 169.84" style="fill:#B2299F;opacity:0.5"></polygon><polygon points="97.97 193.4 41.87 225.79 69.92 174.26 97.97 193.4" style="fill:#B2299F;opacity:0.30000000000000004"></polygon><polygon points="97.97 216.95 41.87 249.34 69.92 197.81 97.97 216.95" style="fill:#B2299F;opacity:0.15"></polygon></g></g><g id="freepik--speech-bubble--inject-4"><g id="freepik--speech-bubble--inject-4"><g id="freepik--speech-bubble--inject-4"><path d="M157.35,90.77l0-12.89,10.84-1.14a.94.94,0,0,1,.62.13l5.68,3.29a1,1,0,0,1,.23,1.59L163,94.07Z" style="fill:#B2299F"></path><path d="M123.35,119.85V80a2,2,0,0,1,.91-1.58l32.52-18.74a2,2,0,0,1,1.81,0l5.06,3a2,2,0,0,1,.9,1.58v39.88a2,2,0,0,1-.91,1.58l-32.52,18.73a2,2,0,0,1-1.81,0l-5.06-3A2,2,0,0,1,123.35,119.85Z" style="fill:#B2299F"></path><path d="M131,124.49c-.43.17-.76-.07-.76-.59V84a1.84,1.84,0,0,1,.27-.9l-6.88-4a1.8,1.8,0,0,0-.25.87v39.88a2,2,0,0,0,.9,1.58l5.06,3A2,2,0,0,0,131,124.49Z" style="opacity:0.15"></path><path d="M173.9,80l-9.35,1V64.23c0-.58-.41-.81-.91-.52L131.12,82.45a2,2,0,0,0-.91,1.57V123.9c0,.58.41.81.91.52l32.52-18.73a2,2,0,0,0,.91-1.58V92.48l10.19-10.73A1,1,0,0,0,173.9,80Z" style="fill:#B2299F"></path><path d="M173.9,80l-9.35,1V64.23c0-.58-.41-.81-.91-.52L131.12,82.45a2,2,0,0,0-.91,1.57V123.9c0,.58.41.81.91.52l32.52-18.73a2,2,0,0,0,.91-1.58V92.48l10.19-10.73A1,1,0,0,0,173.9,80Z" style="fill:#fff;opacity:0.35000000000000003"></path></g><path id="freepik--Gear--inject-4" d="M156.85,98.06a.48.48,0,0,0,0-.46l-1.39-1.55a2,2,0,0,1-.17-1.8.08.08,0,0,0,0,0h0a3.36,3.36,0,0,1,1.13-1.82l2.23-1.62a.76.76,0,0,0,.26-.47,22.76,22.76,0,0,0,.18-2.86,21.18,21.18,0,0,0-.17-2.68c0-.15-.13-.22-.26-.17l-2.22.94a.8.8,0,0,1-1.13-.51s0,0,0-.05a2.71,2.71,0,0,1,.18-2l1.39-3.14a.52.52,0,0,0,0-.47A6.27,6.27,0,0,0,154,77.13c-.11,0-.25,0-.35.2l-1.76,2.87a2,2,0,0,1-1.43,1.06s0,0,0,0c-.49,0-.83-.39-.88-1l-.25-2.83c0-.17-.11-.24-.24-.2a13.93,13.93,0,0,0-4.15,2.38.76.76,0,0,0-.24.48l-.26,3.12a3.58,3.58,0,0,1-.88,2l0,0c-.49.54-1,.77-1.43.58L140.3,85c-.11,0-.25,0-.36.19A31.21,31.21,0,0,0,137,90.76a.51.51,0,0,0,0,.47l1.39,1.54a2,2,0,0,1,.16,1.8.13.13,0,0,1,0,.06,3.37,3.37,0,0,1-1.12,1.8l-2.24,1.63a.7.7,0,0,0-.25.47,22.93,22.93,0,0,0-.19,2.87,18.3,18.3,0,0,0,.18,2.65c0,.16.12.23.25.17l2.23-.93a.8.8,0,0,1,1.13.53s0,0,0,0a2.75,2.75,0,0,1-.18,2L137,109a.54.54,0,0,0,0,.48,6.29,6.29,0,0,0,2.93,2.22c.11,0,.25,0,.35-.21l1.75-2.87a2,2,0,0,1,1.44-1h0c.49,0,.82.37.88,1l.25,2.83c0,.16.11.25.24.2a11.72,11.72,0,0,0,2.07-1,16.39,16.39,0,0,0,2.08-1.43.79.79,0,0,0,.24-.48l.26-3.12a3.67,3.67,0,0,1,.87-2s0,0,0,0c.5-.55,1-.78,1.44-.59l1.74.86c.1,0,.25,0,.35-.19A31.94,31.94,0,0,0,156.85,98.06Zm-9.93,4.55c-3.39,1.94-6.14-.15-6.13-4.67s2.76-9.8,6.15-11.74,6.14.16,6.13,4.68S150.3,100.66,146.92,102.61Z" style="fill:#fff"></path></g></g></svg>
