<svg xmlns="http://www.w3.org/2000/svg" viewBox="0 0 500 500"><g id="freepik--background-complete--inject-3"><rect y="382.4" width="500" height="0.25" style="fill:#ebebeb"></rect><rect x="174.44" y="391.92" width="26" height="0.25" style="fill:#ebebeb"></rect><rect x="52.46" y="389.21" width="54.1" height="0.25" style="fill:#ebebeb"></rect><rect x="147.12" y="401.21" width="26.32" height="0.25" style="fill:#ebebeb"></rect><rect x="258.23" y="399.53" width="38.83" height="0.25" style="fill:#ebebeb"></rect><rect x="305.96" y="399.53" width="10.69" height="0.25" style="fill:#ebebeb"></rect><rect x="395.35" y="395.31" width="54.56" height="0.25" style="fill:#ebebeb"></rect><path d="M237,337.8H43.91a5.71,5.71,0,0,1-5.7-5.71V60.66A5.71,5.71,0,0,1,43.91,55H237a5.71,5.71,0,0,1,5.71,5.71V332.09A5.71,5.71,0,0,1,237,337.8ZM43.91,55.2a5.46,5.46,0,0,0-5.45,5.46V332.09a5.46,5.46,0,0,0,5.45,5.46H237a5.47,5.47,0,0,0,5.46-5.46V60.66A5.47,5.47,0,0,0,237,55.2Z" style="fill:#ebebeb"></path><path d="M453.31,337.8H260.21a5.72,5.72,0,0,1-5.71-5.71V60.66A5.72,5.72,0,0,1,260.21,55h193.1A5.71,5.71,0,0,1,459,60.66V332.09A5.71,5.71,0,0,1,453.31,337.8ZM260.21,55.2a5.47,5.47,0,0,0-5.46,5.46V332.09a5.47,5.47,0,0,0,5.46,5.46h193.1a5.47,5.47,0,0,0,5.46-5.46V60.66a5.47,5.47,0,0,0-5.46-5.46Z" style="fill:#ebebeb"></path><path d="M212.15,382.4s-15.86-18.94-17.71-38.88c-2.69-28.88,26.22,6.06,34.82-1.37s-18.61-41.84,3.43-48.52,27.37,18.59,36.09,37.07C283.07,361,284,284.08,308,321c15.65,24.08,7.22,61.39,7.22,61.39Z" style="fill:#f5f5f5"></path><path d="M313.27,382.4s-16.81-17.12-12.09-35.19c6.84-26.2,18,5.5,26.84-1.24s-1.25-37.94,17.52-44,15.06,16.86,16,33.63c1.53,27.46,25.84-42.27,32.7-8.77,4.47,21.83-15,55.56-15,55.56Z" style="fill:#f5f5f5"></path><path d="M353.76,382.4c.77-1.91,3.15-15.57,25.1-26.42-9.43,12.59-12,22-11.51,26.42Z" style="fill:#e0e0e0"></path><path d="M105.7,382.4c-.06-2.88-2.37-27.42-24.52-39.79,6.72,19,5.24,33.21,2.2,39.79Z" style="fill:#f5f5f5"></path><path d="M93.4,382.4c-.55-1.89-1.1-15.39-23-26.11,8.26,12.44,9.61,21.79,8.47,26.11Z" style="fill:#f5f5f5"></path><path d="M169.58,382.4c0-1.76,1.16-16.75,12-24.31-3.29,11.58-2.56,20.29-1.07,24.31Z" style="fill:#f5f5f5"></path><path d="M175.6,382.4c.26-1.16.53-9.4,11.26-15.95-4,7.6-4.7,13.31-4.14,15.95Z" style="fill:#f5f5f5"></path><path d="M240.43,382.4c-.61-2.29-1.22-18.59-25.67-31.55,9.21,15,10.71,26.33,9.45,31.55Z" style="fill:#e0e0e0"></path><path d="M248.15,382.4c.18-1.73,4.25-14.06-10.62-23.85,2.77,11.37.76,19.91-1.65,23.85Z" style="fill:#e0e0e0"></path><path d="M361.62,382.4c-.18-1.4.8-11.38-13.08-19.31,4.38,9.2,4.36,16.12,3.15,19.31Z" style="fill:#fff"></path><path d="M381.94,150.51c18.15-5.5-7.62-18-36.05-19.22-67.14-2.94-83.56-18-131.14-23.24-14.82-1.63-4.6,20.44,29.71,30.16,43.46,12.31,118.77,5.13,100.35,12.86s1.12,30.8,39.86,23.77c30-5.44,72.24,18.93,57.08-2.16-9.59-13.34-32.12-8.48-42.53-9.44S355.09,158.65,381.94,150.51Z" style="fill:#f5f5f5"></path><path d="M362.62,195.61c-6.36,2.51-22.32-2.93-32.46-2.75s-25.87,4-34.07-4.17,34.26-3.45,43-2.66C355.3,187.48,371.93,192,362.62,195.61Z" style="fill:#fafafa"></path><path d="M396.68,79.09c3.48-3.43,13.07,2.93,18.9,2.32s14.62-6,19.94,4.08-19.5,5.66-24.59,5C401.49,89.22,391.58,84.12,396.68,79.09Z" style="fill:#f5f5f5"></path><path d="M68.94,148.39c3.48-3.43,13.07,2.93,18.9,2.32s14.62-6.05,19.94,4.08-19.49,5.66-24.59,5C73.75,158.52,63.84,153.42,68.94,148.39Z" style="fill:#f5f5f5"></path><path d="M98.93,77.17c9.1,7.06,34.67,1.41,50.06,5.07S187.44,98.59,201.84,85,150.48,67,137,65.71C112,63.34,85.6,66.84,98.93,77.17Z" style="fill:#fafafa"></path><path d="M196.5,260.89c12.95-18.36-7.9-146.67-35.94-155s-29.7,135.88-19.54,153C152.49,278.22,182.41,280.89,196.5,260.89Z" style="fill:#ebebeb"></path><path d="M170.42,224h0a4.46,4.46,0,0,1,4.44,4,841.35,841.35,0,0,1-.38,154.36h-8.91A842.42,842.42,0,0,0,166,228.84,4.43,4.43,0,0,1,170.42,224Z" style="fill:#e0e0e0"></path><path d="M402.08,314.52c-7.23-10.25,4.42-81.92,20.08-86.58s16.59,75.9,10.92,85.47C426.67,324.21,410,325.7,402.08,314.52Z" style="fill:#ebebeb"></path><path d="M426.27,287a2,2,0,0,1-.85-3.27l3.76-4.32a2.05,2.05,0,1,1,3.1,2.69l-3.76,4.32A2,2,0,0,1,426.27,287Z" style="fill:#fff"></path><path d="M412.23,266.05a2,2,0,0,1-1.82-1.43l-2-6.17a2.05,2.05,0,0,1,3.91-1.25l2,6.18A2.06,2.06,0,0,1,413,266,2.2,2.2,0,0,1,412.23,266.05Z" style="fill:#fff"></path><path d="M416.65,293.92h0a2.5,2.5,0,0,0-2.48,2.26,470.31,470.31,0,0,0,.21,86.22h5a470,470,0,0,1-.24-85.78A2.48,2.48,0,0,0,416.65,293.92Z" style="fill:#e0e0e0"></path><path d="M159.91,217.58a3.41,3.41,0,0,1-1.32-.26l-17.29-7.1a3.5,3.5,0,0,1,2.66-6.48l17.29,7.1a3.5,3.5,0,0,1-1.34,6.74Z" style="fill:#fff"></path><path d="M182.86,200.46a3.45,3.45,0,0,1-1.25-.23,3.51,3.51,0,0,1-2-4.52l3.5-9.14a3.5,3.5,0,0,1,6.54,2.5l-3.5,9.14A3.5,3.5,0,0,1,182.86,200.46Z" style="fill:#fff"></path><path d="M156.89,177.23a3.5,3.5,0,0,1-3.26-2.22l-4-10.3a3.5,3.5,0,0,1,6.52-2.55l4,10.3a3.49,3.49,0,0,1-2,4.53A3.36,3.36,0,0,1,156.89,177.23Z" style="fill:#fff"></path></g><g id="freepik--Shadow--inject-3"><ellipse id="freepik--path--inject-3" cx="250" cy="416.24" rx="193.89" ry="11.32" style="fill:#f5f5f5"></ellipse></g><g id="freepik--Plant--inject-3"><path d="M163.12,416.78a.53.53,0,0,1-.3-.09c-10.18-6.79-6.42-14.51-2.07-23.45,5.64-11.61,12.67-26.06-6-45.71-15.89-16.7-23.61-32.7-21.73-45.06a20.73,20.73,0,0,1,10.88-15.38.54.54,0,0,1,.53,1,19.68,19.68,0,0,0-10.35,14.59c-1.82,12,5.8,27.71,21.46,44.16,19.21,20.19,12,35,6.21,46.92-4.3,8.84-7.7,15.82,1.7,22.08a.55.55,0,0,1,.15.75A.57.57,0,0,1,163.12,416.78Z" style="fill:#263238"></path><path d="M140.5,290.06c6.67-7.4,4.13-18.38,1.81-24.2C137.08,268,132.83,281.81,140.5,290.06Z" style="fill:#263238"></path><path d="M140.49,328.39c-8.65-16.41-24.74-18.45-33.81-19.21C112.05,320,126.17,333.45,140.49,328.39Z" style="fill:#263238"></path><path d="M158.13,399.53c11.49-18.86-8.36-32.49-18.8-46.25C135.31,367.18,138.28,391.08,158.13,399.53Z" style="fill:#263238"></path><path d="M156.33,348.47c-13.94-16.32-10.75-28.15-7-35.79C156.86,322.35,168.19,339.5,156.33,348.47Z" style="fill:#263238"></path><path d="M136.37,294.48c4.06-4.82,11.09-4.11,14.9-3.11C150.36,294.85,142.13,298.66,136.37,294.48Z" style="fill:#263238"></path><path d="M166.41,381c1.53-12.45,7-11.48,11.2-17A13.45,13.45,0,0,1,166.41,381Z" style="fill:#263238"></path></g><g id="freepik--Character--inject-3"><path d="M330.07,148.43c-6.74,1.55-16.31,5.34-24.8,8.73a11.41,11.41,0,0,0,.22-1.93c-.44.79-.88,1.57-1.31,2.37l-.32.13a11.58,11.58,0,0,0-.18-2.56,7.37,7.37,0,0,1-1.43,3.11,1.34,1.34,0,0,1-.11.14l-1.7.69a21.63,21.63,0,0,0,0-5.15,35.73,35.73,0,0,1-.78,4.83c-.06.24-.11.48-.18.73l-2.21.91c-.15-.61-.31-1.22-.47-1.83L296,161l-.92.38a15.68,15.68,0,0,0-.63-2.71,20.37,20.37,0,0,1-.54,3.2l-.75.32a25.91,25.91,0,0,0-.58-4.88c-.15,1.25-.3,2.48-.44,3.72l-.21,1.67c-3.29,1.4-5.35,2.31-5.35,2.31s-.24-11.9,0-29.94,3.83-32.8,11.19-40S320.83,86.6,328.24,93s9.5,21.42,6.69,36.09C333.3,137.58,349,144.07,330.07,148.43Z" style="fill:#263238"></path><path d="M264.19,230.18l.7-2.13a6,6,0,0,1,3.51-3.71l9.25-3.65,4.63,2.26c-1.24,5.05-6.94,10.15-6.94,10.15l-1.45,1.59a4.11,4.11,0,0,1-5,.94l-3.48-2A2.84,2.84,0,0,1,264.19,230.18Z" style="fill:#b55b52"></path><path d="M316.42,171.55c-.18,1.69-.37,3.17-.6,4.72s-.5,3.07-.77,4.59c-.57,3-1.22,6.08-2,9.1s-1.62,6-2.59,9-2.1,5.95-3.33,8.89l-.17.41a4.88,4.88,0,0,1-1,1.51,51.1,51.1,0,0,1-6.74,5.67c-2.24,1.66-4.54,3.14-6.83,4.58s-4.63,2.77-7,4-4.73,2.5-7.23,3.62a3.44,3.44,0,0,1-3.72-5.69l.05,0c1.93-1.73,3.93-3.45,5.89-5.15s3.94-3.4,5.86-5.11,3.82-3.42,5.63-5.12a54,54,0,0,0,4.82-5.06l-1.16,1.91c.85-2.67,1.62-5.38,2.33-8.14s1.34-5.56,1.91-8.38,1.12-5.65,1.61-8.5l.71-4.26.65-4.17,0-.2a6.87,6.87,0,0,1,13.63,1.77Z" style="fill:#b55b52"></path><path d="M316.71,152.29c-18.73,2.3-21.93,38-20.23,45.17,2.64,6.17,14.13,3,14.13,3S328.82,173.38,316.71,152.29Z" style="fill:#263238"></path><path d="M312.5,199.39a11.87,11.87,0,0,1-1.68,2.87.45.45,0,0,1-.21.15c-1,.43-8.2,3.18-14.23-.91a.58.58,0,0,1-.23-.28,12.42,12.42,0,0,1-.76-4.84.59.59,0,0,1,.78-.54c2.28.82,9.41,3.13,15.75,2.73A.59.59,0,0,1,312.5,199.39Z" style="fill:#fff"></path><path d="M389.8,416.23c9.13,0,8.46-.14,13.58-.32,4.38-.15,5.48.4,9,.32,2.95-.07,2.63-2.89,1.47-6.14-.58-1.63-1.43-3.63-2.26-6.26H397.71c-1.61,3.59-5.16,6.29-10.25,7C382.59,411.47,386.15,416.23,389.8,416.23Z" style="fill:#263238"></path><path d="M314.35,416.23c11.61,0,12.72-5,17-7.65,3.7-2.26,5.17-1.63,9-3.79,2.53-1.42,1.41-4.55-.62-6.22a27.32,27.32,0,0,1-4.93-5.18l-11.32,5c-.62,4.56-2.76,12.24-9.58,12.72C309.05,411.5,310.76,416.23,314.35,416.23Z" style="fill:#263238"></path><path d="M316.64,223.16s-22,56-24.92,83.77c-.08,23,31.79,91.49,31.79,91.49,1,1.71,10.14-3.21,11.32-5-11.74-28.66-5.57-64.52-16.16-85.56,22.7-32.28,40.31-92,40.31-92Z" style="fill:#B2299F"></path><path d="M312.87,237.1a.25.25,0,0,1-.06-.5,11.48,11.48,0,0,0,6.85-4.45.25.25,0,0,1,.34-.08.24.24,0,0,1,.08.34,11.72,11.72,0,0,1-7.16,4.68Z" style="fill:#fff;opacity:0.2"></path><path d="M337.26,249c-4.9,9.92-5.67,24.72-5.28,36.06A389.92,389.92,0,0,0,348.35,247l-.05-.05A7,7,0,0,0,337.26,249Z" style="opacity:0.2"></path><path d="M329.33,221s5.85,52.31,17.46,88c5.8,17.8,38.9,58.23,50.92,94.86,2.24,1.24,9.76,1.32,13.88,0,0,0-18.47-80.51-38.36-97.45-.06-43.51,1.5-64.51-8-91.67Z" style="fill:#B2299F"></path><path d="M406.5,399a.25.25,0,0,1-.25-.2c-8.22-48.61-37.66-91-38-91.39a.33.33,0,0,1,0-.17c0-.05.51-6,1-28.1.48-20.8-1.44-43.37-1.68-46.09-1.56.26-9.43,1.33-15.39-2.58a.25.25,0,0,1-.07-.35.26.26,0,0,1,.35-.07c6.43,4.22,15.2,2.48,15.29,2.46a.22.22,0,0,1,.19,0,.27.27,0,0,1,.11.18c0,.24,2.21,24.33,1.7,46.42-.49,20.64-1,27.22-1,28.05,1.4,2,29.9,43.76,38,91.51a.25.25,0,0,1-.21.29Z" style="fill:#fff;opacity:0.2"></path><path d="M395.08,398.63a38.28,38.28,0,0,1,1,5.13,1.52,1.52,0,0,0,1.26,1.26c5.31.81,12.32-.37,14.53-.79a.73.73,0,0,0,.6-.88l-.62-4.8a1.5,1.5,0,0,0-1.43-1.23l-14.59.28A.77.77,0,0,0,395.08,398.63Z" style="fill:#B2299F"></path><path d="M395.08,398.63a38.28,38.28,0,0,1,1,5.13,1.52,1.52,0,0,0,1.26,1.26c5.31.81,12.32-.37,14.53-.79a.73.73,0,0,0,.6-.88l-.62-4.8a1.5,1.5,0,0,0-1.43-1.23l-14.59.28A.77.77,0,0,0,395.08,398.63Z" style="opacity:0.2"></path><path d="M320.25,393.93c.45,1.26,1.24,3.52,1.77,5.21a1.06,1.06,0,0,0,1.32.7c4.22-1.21,10.41-4.56,12.43-5.68a1.06,1.06,0,0,0,.52-1.13l-.9-4.85a1.06,1.06,0,0,0-1.44-.79l-13.09,5.19A1.06,1.06,0,0,0,320.25,393.93Z" style="fill:#B2299F"></path><path d="M320.25,393.93c.45,1.26,1.24,3.52,1.77,5.21a1.06,1.06,0,0,0,1.32.7c4.22-1.21,10.41-4.56,12.43-5.68a1.06,1.06,0,0,0,.52-1.13l-.9-4.85a1.06,1.06,0,0,0-1.44-.79l-13.09,5.19A1.06,1.06,0,0,0,320.25,393.93Z" style="opacity:0.2"></path><path d="M316.38,221.08c.13.65-.55,3.44-1.57,5.91,1.8,1.22,8,2.57,15.83,2.91.74-1.21,1.2-4.4,1.78-5.7a11.65,11.65,0,0,0,3.5,5.77A79.43,79.43,0,0,0,349,228.68c15.25-2.86,18.85-7.6,18.85-7.6s-2.92-8.8-3.75-12C356.21,209.67,316.79,210.82,316.38,221.08Z" style="fill:#fff"></path><path d="M302.12,176.78A223.08,223.08,0,0,0,309.87,198c5.95,15.3,4.55,18.67,6.09,24.95a38.08,38.08,0,0,0,13.37,2.57,20.63,20.63,0,0,1,2.72-4.46c1.21.81,4.95,3.14,7.1,3.28,9.72-1.5,22.26-5.27,26.66-9.93-3.35-13.52-4.56-28.26-6.52-60.69-.46-7.51-7.08-12.57-14.22-10.86-1.91.46-3.92,1-6,1.59-7.94,2.35-14.43,4.34-21.14,7.4-2.22,1-4.5,2.13-6.67,3.24A18.57,18.57,0,0,0,302.12,176.78Z" style="fill:#263238"></path><path d="M385.28,230.13l-1.51-1.66a6,6,0,0,1-1.48-4.88l1.43-9.85,4.26-2.89c3.76,3.58,5.36,11.05,5.36,11.05l.66,2a4.14,4.14,0,0,1-1.64,4.78l-3.49,2A2.83,2.83,0,0,1,385.28,230.13Z" style="fill:#b55b52"></path><path d="M364.31,152.32c1.29,1.2,2.37,2.26,3.5,3.42s2.18,2.31,3.25,3.48c2.11,2.36,4.15,4.78,6.1,7.3s3.82,5.08,5.59,7.75,3.43,5.43,5,8.26l.2.36a4.39,4.39,0,0,1,.35.84,52.67,52.67,0,0,1,1.58,8.67c.32,2.76.46,5.49.57,8.19s.11,5.4.05,8.09-.18,5.35-.44,8.08a3.44,3.44,0,0,1-6.79.4v-.06c-.55-2.54-1-5.13-1.55-7.68s-1-5.1-1.53-7.62-1.07-5-1.65-7.43a52.06,52.06,0,0,0-2-6.69l.55,1.19c-1.6-2.37-3.25-4.71-5-7s-3.58-4.55-5.47-6.77-3.81-4.41-5.79-6.55l-3-3.19c-1-1-2-2.14-2.95-3.05l-.11-.12a6.87,6.87,0,0,1,9.56-9.87Z" style="fill:#b55b52"></path><path d="M344.22,143c17.67-6.64,37,23.5,38.84,30.68.51,6.69-11.16,9.17-11.16,9.17S343.25,167.34,344.22,143Z" style="fill:#263238"></path><path d="M321.53,166.73a.63.63,0,0,1-.54-.31.62.62,0,0,1,.23-.85c1.45-.85,7.54-6.8,10-11.79a.62.62,0,0,1,.84-.28.63.63,0,0,1,.28.84c-2.66,5.28-9,11.38-10.54,12.31A.61.61,0,0,1,321.53,166.73Z" style="fill:#B2299F"></path><path d="M319.38,166.42a.72.72,0,0,1-.32-.08c-1.87-1.1-5.2-5.55-4.77-11.34a.63.63,0,1,1,1.25.09c-.41,5.59,2.95,9.46,4.16,10.17a.62.62,0,0,1-.32,1.16Z" style="fill:#B2299F"></path><path d="M327.67,121.55c1.17,7.37,4.27,20.29,10.27,23.28,0,0-6.78,1.28-17.49,14.53-5.95-4.3-3.64-7.14-3.64-7.14,7.08-4.51,5.5-9.28,2.32-14Z" style="fill:#b55b52"></path><path d="M322.73,156.65c4.73-.94,8.52,5.37,8.52,5.37s8.14-11.43,9.68-18a47,47,0,0,1-4.83-1.13S324.45,153.13,322.73,156.65Z" style="fill:#fff"></path><path d="M318.19,157.42s-3.52,2.41-3,8.38c-4.5-9.56-.45-12.87-.45-12.87a6.1,6.1,0,0,1,3.86-2A5.11,5.11,0,0,0,318.19,157.42Z" style="fill:#fff"></path><path d="M324.19,128.35l-5.06,9.87a22.73,22.73,0,0,1,2,3.47c2.65-1.67,5.35-6.57,4.56-9.74A11,11,0,0,0,324.19,128.35Z" style="opacity:0.2"></path><path d="M301.33,132H299a.28.28,0,0,1-.21-.1.28.28,0,0,1-.05-.23l1.16-5.35a.26.26,0,0,1,.26-.21h0a.28.28,0,0,1,.27.21l1.16,5.35a.28.28,0,0,1-.05.23A.3.3,0,0,1,301.33,132Zm-2-.55H301l-.82-3.78Z" style="fill:#fff"></path><path d="M327.38,105.84c2.76,11.51,4.16,16.31.39,24.11-5.69,11.74-20,13.3-26.06,3-5.45-9.26-9-26.53.33-34.93S324.62,94.33,327.38,105.84Z" style="fill:#b55b52"></path><path d="M295.12,110.78c10.59-2.07,17-12.33,22-12-.76,7.78,5.34,16.57,11.35,16.78,8.13.28.6-19.7-4.86-22.86C317.85,89.33,293.25,89.09,295.12,110.78Z" style="fill:#263238"></path><path d="M323.54,116a4.26,4.26,0,0,1-2.49-.87c-3.67-2.63-5.89-10.8-4.48-16.49a.55.55,0,1,1,1.06.26c-1.29,5.23.75,13,4.05,15.34a3,3,0,0,0,3.58.11.54.54,0,0,1,.75.16.55.55,0,0,1-.16.76A4.33,4.33,0,0,1,323.54,116Z" style="fill:#263238"></path><path d="M311.35,115.14c.27,1,0,1.9-.58,2.12s-1.3-.39-1.57-1.34,0-1.91.58-2.12S311.08,114.18,311.35,115.14Z" style="fill:#263238"></path><ellipse cx="299.15" cy="119.74" rx="1.14" ry="1.8" transform="translate(-19.54 72.14) rotate(-13.32)" style="fill:#263238"></ellipse><path d="M298.93,118l-2.37.13S298.19,119.49,298.93,118Z" style="fill:#263238"></path><path d="M303.79,119.79a29.29,29.29,0,0,1-1.5,7.28c1.54.74,3.42-.54,3.42-.54Z" style="fill:#a02724"></path><path d="M311.59,128a8.88,8.88,0,0,1-1.58.43.27.27,0,0,1-.31-.24.31.31,0,0,1,.25-.34,8.23,8.23,0,0,0,5.8-4.17.3.3,0,0,1,.38-.16.29.29,0,0,1,.13.39A8.72,8.72,0,0,1,311.59,128Z" style="fill:#263238"></path><path d="M333.08,116.76a8.16,8.16,0,0,1-3.73,5.43c-2.44,1.36-4.35-1.36-4.24-4.58.1-2.91,1.49-7.12,4.22-7.12S333.72,113.79,333.08,116.76Z" style="fill:#b55b52"></path><path d="M305.39,111a.55.55,0,0,1,.36-.25,4.24,4.24,0,0,0,3.24-2.41.52.52,0,0,1,.72-.29.63.63,0,0,1,.32.78,5.32,5.32,0,0,1-4.06,3.09.58.58,0,0,1-.65-.49A.62.62,0,0,1,305.39,111Z" style="fill:#263238"></path><path d="M295.33,115.48a.51.51,0,0,1-.42,0,.57.57,0,0,1-.28-.76,6.09,6.09,0,0,1,3.94-3.68.54.54,0,0,1,.64.46.63.63,0,0,1-.47.7,4.84,4.84,0,0,0-3.09,2.94A.58.58,0,0,1,295.33,115.48Z" style="fill:#263238"></path><path d="M310.06,113.75l-2.37.13S309.32,115.27,310.06,113.75Z" style="fill:#263238"></path><path d="M319.36,162.22a14.38,14.38,0,0,1,2.73-.26,1.07,1.07,0,0,1,1,.78c.29,1,.83,2.82,1.15,3.69.45,1.25-3.09,3.82-3.09,3.82s-2.92-1.39-3-3.23a24.1,24.1,0,0,1,.29-3.89A1.07,1.07,0,0,1,319.36,162.22Z" style="fill:#B2299F"></path><path d="M326.68,198.83c-.24-5.77-4-32.12-4-32.12l-2.81.35c-.21,3.75-2.2,26.28-2.2,32.25s5.1,12.64,5.1,12.64S326.92,204.59,326.68,198.83Z" style="fill:#B2299F"></path><path d="M369.74,182.84a12,12,0,0,0,2.82,1.77.57.57,0,0,0,.26,0c1.1-.09,8.74-1,12.19-7.39a.66.66,0,0,0,.08-.36,12.54,12.54,0,0,0-1.57-4.64.59.59,0,0,0-.94-.12c-1.64,1.78-6.89,7.12-12.7,9.7A.59.59,0,0,0,369.74,182.84Z" style="fill:#fff"></path><path d="M292,248.32l-4.91,10a3.87,3.87,0,0,1-5.37,1.66l-63.29-35.67L224,213l66.13,30.14A3.87,3.87,0,0,1,292,248.32Z" style="fill:#B2299F"></path><path d="M292,248.32l-4.91,10a3.87,3.87,0,0,1-5.37,1.66l-63.29-35.67L224,213l66.13,30.14A3.87,3.87,0,0,1,292,248.32Z" style="opacity:0.4"></path><path d="M224.05,172.36c-.08-.2-.15-.39-.22-.58-.27-.7-.56-1.39-.86-2.08l-.13-.27c-.26-.6-.54-1.19-.83-1.78-.1-.21-.21-.41-.32-.62-.25-.5-.51-1-.78-1.49-.11-.18-.21-.37-.31-.56-.37-.66-.76-1.31-1.16-2l-.14-.22c-.36-.57-.73-1.14-1.11-1.7l-.41-.58c-.32-.46-.66-.92-1-1.38l-.39-.53c-.47-.61-.95-1.22-1.44-1.81l-.15-.17c-.45-.54-.92-1.07-1.39-1.59l-.48-.52c-.4-.42-.8-.84-1.21-1.25l-.48-.49q-.84-.83-1.71-1.62l-.12-.11c-.55-.5-1.11-1-1.69-1.46l-.55-.45-1.4-1.1-.56-.43q-1-.72-2-1.41l-.07,0c-.65-.43-1.31-.86-2-1.27l-.64-.39c-.51-.31-1-.61-1.57-.91l-.65-.36c-.73-.4-1.46-.79-2.22-1.16-26.73-13.12-58.24-3.73-70.35,21l-4,8c12.11-24.68,43.62-34.07,70.36-20.95.75.37,1.49.76,2.21,1.15.22.12.44.24.65.37.53.29,1.06.6,1.58.91l.63.38c.67.42,1.33.84,2,1.28l.07.05c.68.46,1.33.93,2,1.41l.56.43c.47.36.94.72,1.39,1.09l.57.46c.57.48,1.13,1,1.68,1.45l.12.11c.59.53,1.15,1.08,1.71,1.63.17.16.32.32.48.48.41.41.81.83,1.21,1.25l.48.53c.48.52.94,1,1.39,1.59l.15.17q.74.89,1.44,1.8l.4.54c.34.45.67.91,1,1.38.13.19.27.38.4.58.38.56.75,1.12,1.11,1.69.05.08.1.15.14.23.4.64.79,1.3,1.16,2l.31.57c.27.49.53,1,.79,1.49l.31.62c.29.59.57,1.18.83,1.77.05.09.09.19.13.28.3.68.59,1.38.86,2.07l.22.58c.2.53.38,1,.56,1.57.08.22.15.44.22.66.2.6.38,1.2.56,1.81,0,.11.07.22.1.34.2.71.38,1.43.54,2.14,0,.2.09.4.13.6q.18.81.33,1.62c0,.23.09.46.12.69.11.6.2,1.21.28,1.82,0,.13,0,.25.05.38.1.73.17,1.46.23,2.19l0,.6q.06.83.09,1.65c0,.23,0,.47,0,.7,0,.6,0,1.2,0,1.81v.41c0,.23,0,.46,0,.68,0,.67-.06,1.35-.12,2,0,.32-.07.64-.1,1q-.09.85-.21,1.71c0,.35-.11.7-.17,1-.09.55-.19,1.1-.3,1.64-.07.35-.15.7-.22,1-.13.56-.27,1.12-.42,1.67-.1.35-.19.7-.29,1.06l-.24.77c-.15.49-.31,1-.48,1.46-.09.27-.19.53-.29.8-.18.5-.38,1-.59,1.5-.09.23-.18.46-.28.69-.31.72-.63,1.44-1,2.15l3.95-8.05c.35-.71.67-1.43,1-2.15.1-.23.19-.46.28-.69.21-.5.4-1,.59-1.5.1-.26.19-.53.29-.79.17-.49.33-1,.48-1.46l.24-.78.12-.38c.06-.22.11-.45.17-.68.14-.55.29-1.1.41-1.66.08-.35.16-.69.23-1,.11-.55.21-1.1.3-1.64.06-.35.12-.7.17-1,.08-.57.15-1.14.21-1.72,0-.32.07-.64.1-1,.06-.67.09-1.34.12-2,0-.19,0-.38,0-.57v-.53c0-.6,0-1.21,0-1.81,0-.23,0-.46,0-.69,0-.55,0-1.11-.09-1.66,0-.2,0-.4,0-.59,0-.74-.13-1.47-.22-2.2,0-.12,0-.25-.05-.38-.08-.6-.17-1.21-.28-1.82l-.12-.68q-.15-.81-.33-1.62c0-.2-.08-.4-.13-.6-.17-.72-.35-1.44-.54-2.15a3.37,3.37,0,0,1-.1-.34c-.18-.6-.36-1.2-.56-1.8-.07-.22-.14-.44-.22-.66C224.43,173.4,224.24,172.88,224.05,172.36Z" style="fill:#B2299F"></path><path d="M224.05,172.36c-.08-.2-.15-.39-.22-.58-.27-.7-.56-1.39-.86-2.08l-.13-.27c-.26-.6-.54-1.19-.83-1.78-.1-.21-.21-.41-.32-.62-.25-.5-.51-1-.78-1.49-.11-.18-.21-.37-.31-.56-.37-.66-.76-1.31-1.16-2l-.14-.22c-.36-.57-.73-1.14-1.11-1.7l-.41-.58c-.32-.46-.66-.92-1-1.38l-.39-.53c-.47-.61-.95-1.22-1.44-1.81l-.15-.17c-.45-.54-.92-1.07-1.39-1.59l-.48-.52c-.4-.42-.8-.84-1.21-1.25l-.48-.49q-.84-.83-1.71-1.62l-.12-.11c-.55-.5-1.11-1-1.69-1.46l-.55-.45-1.4-1.1-.56-.43q-1-.72-2-1.41l-.07,0c-.65-.43-1.31-.86-2-1.27l-.64-.39c-.51-.31-1-.61-1.57-.91l-.65-.36c-.73-.4-1.46-.79-2.22-1.16-26.73-13.12-58.24-3.73-70.35,21l-4,8c12.11-24.68,43.62-34.07,70.36-20.95.75.37,1.49.76,2.21,1.15.22.12.44.24.65.37.53.29,1.06.6,1.58.91l.63.38c.67.42,1.33.84,2,1.28l.07.05c.68.46,1.33.93,2,1.41l.56.43c.47.36.94.72,1.39,1.09l.57.46c.57.48,1.13,1,1.68,1.45l.12.11c.59.53,1.15,1.08,1.71,1.63.17.16.32.32.48.48.41.41.81.83,1.21,1.25l.48.53c.48.52.94,1,1.39,1.59l.15.17q.74.89,1.44,1.8l.4.54c.34.45.67.91,1,1.38.13.19.27.38.4.58.38.56.75,1.12,1.11,1.69.05.08.1.15.14.23.4.64.79,1.3,1.16,2l.31.57c.27.49.53,1,.79,1.49l.31.62c.29.59.57,1.18.83,1.77.05.09.09.19.13.28.3.68.59,1.38.86,2.07l.22.58c.2.53.38,1,.56,1.57.08.22.15.44.22.66.2.6.38,1.2.56,1.81,0,.11.07.22.1.34.2.71.38,1.43.54,2.14,0,.2.09.4.13.6q.18.81.33,1.62c0,.23.09.46.12.69.11.6.2,1.21.28,1.82,0,.13,0,.25.05.38.1.73.17,1.46.23,2.19l0,.6q.06.83.09,1.65c0,.23,0,.47,0,.7,0,.6,0,1.2,0,1.81v.41c0,.23,0,.46,0,.68,0,.67-.06,1.35-.12,2,0,.32-.07.64-.1,1q-.09.85-.21,1.71c0,.35-.11.7-.17,1-.09.55-.19,1.1-.3,1.64-.07.35-.15.7-.22,1-.13.56-.27,1.12-.42,1.67-.1.35-.19.7-.29,1.06l-.24.77c-.15.49-.31,1-.48,1.46-.09.27-.19.53-.29.8-.18.5-.38,1-.59,1.5-.09.23-.18.46-.28.69-.31.72-.63,1.44-1,2.15l3.95-8.05c.35-.71.67-1.43,1-2.15.1-.23.19-.46.28-.69.21-.5.4-1,.59-1.5.1-.26.19-.53.29-.79.17-.49.33-1,.48-1.46l.24-.78.12-.38c.06-.22.11-.45.17-.68.14-.55.29-1.1.41-1.66.08-.35.16-.69.23-1,.11-.55.21-1.1.3-1.64.06-.35.12-.7.17-1,.08-.57.15-1.14.21-1.72,0-.32.07-.64.1-1,.06-.67.09-1.34.12-2,0-.19,0-.38,0-.57v-.53c0-.6,0-1.21,0-1.81,0-.23,0-.46,0-.69,0-.55,0-1.11-.09-1.66,0-.2,0-.4,0-.59,0-.74-.13-1.47-.22-2.2,0-.12,0-.25-.05-.38-.08-.6-.17-1.21-.28-1.82l-.12-.68q-.15-.81-.33-1.62c0-.2-.08-.4-.13-.6-.17-.72-.35-1.44-.54-2.15a3.37,3.37,0,0,1-.1-.34c-.18-.6-.36-1.2-.56-1.8-.07-.22-.14-.44-.22-.66C224.43,173.4,224.24,172.88,224.05,172.36Z" style="opacity:0.4"></path><path d="M145.71,244.74c-1-.48-1.93-1-2.87-1.49l-.84-.47c-.69-.39-1.37-.78-2-1.19l-.82-.49c-.87-.54-1.73-1.09-2.57-1.66l-.1-.06q-1.31-.9-2.55-1.83l-.74-.56c-.61-.46-1.21-.94-1.81-1.42l-.72-.59c-.74-.62-1.47-1.24-2.18-1.88l-.16-.14c-.76-.69-1.5-1.39-2.22-2.11l-.63-.63c-.53-.53-1-1.07-1.55-1.62l-.63-.68c-.62-.68-1.22-1.37-1.81-2.06l-.18-.22c-.65-.77-1.27-1.55-1.87-2.34l-.52-.69c-.44-.59-.87-1.19-1.29-1.79l-.52-.75c-.5-.73-1-1.46-1.44-2.2l-.19-.3c-.52-.83-1-1.68-1.5-2.53-.14-.24-.27-.49-.4-.74q-.53-.95-1-1.92c-.14-.27-.28-.54-.41-.81-.37-.76-.73-1.52-1.08-2.29,0-.12-.11-.24-.17-.37-.39-.88-.76-1.78-1.11-2.68-.1-.25-.19-.51-.28-.76-.26-.67-.5-1.35-.73-2-.1-.29-.2-.57-.29-.86q-.37-1.16-.72-2.34c0-.14-.09-.29-.13-.44-.26-.92-.49-1.85-.7-2.78-.06-.26-.12-.52-.17-.77-.16-.7-.3-1.41-.43-2.11,0-.29-.11-.59-.16-.88q-.19-1.19-.36-2.37c0-.16,0-.33-.07-.49-.12-.94-.21-1.89-.28-2.84,0-.26,0-.51,0-.77-.05-.72-.09-1.43-.11-2.15l0-.9c0-.78,0-1.56,0-2.35v-.54c0-.29,0-.58,0-.87,0-.87.08-1.75.16-2.62,0-.41.09-.83.13-1.25q.12-1.11.27-2.22c.07-.44.14-.89.22-1.34q.18-1.06.39-2.13c.09-.45.19-.9.29-1.35q.25-1.08.54-2.16c.13-.46.24-.92.38-1.37s.2-.67.31-1c.2-.63.4-1.26.62-1.89.13-.35.25-.69.37-1,.25-.66.5-1.3.77-2l.36-.89c.41-.94.83-1.87,1.28-2.79l-4,8c-.45.93-.87,1.86-1.27,2.79-.13.3-.25.6-.37.89-.27.65-.52,1.3-.76,2-.13.34-.25.69-.37,1-.22.63-.43,1.26-.63,1.9-.11.33-.21.67-.31,1,0,.17-.11.33-.15.5s-.15.58-.22.88c-.2.72-.38,1.43-.55,2.15-.1.45-.19.9-.29,1.35q-.21,1.06-.39,2.13c-.08.45-.15.9-.22,1.35q-.15,1.11-.27,2.22c0,.41-.09.83-.13,1.25-.07.87-.12,1.74-.16,2.61,0,.25,0,.49,0,.73,0,.05,0,.1,0,.15v.54c0,.78,0,1.56,0,2.35,0,.3,0,.6,0,.9,0,.71.06,1.43.11,2.14,0,.26,0,.52,0,.77.07,1,.17,1.9.28,2.85,0,.16,0,.32.07.49.11.79.23,1.58.36,2.36.05.3.11.59.16.89.13.7.27,1.4.43,2.1,0,.26.11.52.17.78.21.93.45,1.86.7,2.78l.13.43c.23.79.47,1.57.72,2.35.09.29.19.57.29.85.23.68.47,1.36.73,2,.09.26.19.51.28.77.36.9.72,1.79,1.11,2.68.06.12.12.24.17.36.35.77.71,1.54,1.08,2.3l.41.81q.5,1,1,1.92l.4.74c.48.85,1,1.69,1.5,2.53l.19.3q.69,1.11,1.44,2.19l.52.75c.42.6.85,1.2,1.29,1.79l.52.69c.61.79,1.23,1.58,1.87,2.35l.18.21c.59.7,1.19,1.39,1.81,2.07l.63.67c.51.55,1,1.09,1.56,1.63l.62.63c.73.71,1.46,1.42,2.22,2.1l.15.14q1.08,1,2.19,1.89l.73.59c.59.48,1.19.95,1.8,1.42l.74.56c.83.62,1.68,1.23,2.55,1.82l.1.06c.84.57,1.7,1.12,2.57,1.66l.82.5c.67.4,1.35.8,2,1.18l.84.47q1.41.78,2.88,1.5c34.65,17,75.48,4.84,91.2-27.17l3.94-8.05C221.2,249.59,180.37,261.75,145.71,244.74Z" style="fill:#B2299F"></path><path d="M145.71,244.74c-1-.48-1.93-1-2.87-1.49l-.84-.47c-.69-.39-1.37-.78-2-1.19l-.82-.49c-.87-.54-1.73-1.09-2.57-1.66l-.1-.06q-1.31-.9-2.55-1.83l-.74-.56c-.61-.46-1.21-.94-1.81-1.42l-.72-.59c-.74-.62-1.47-1.24-2.18-1.88l-.16-.14c-.76-.69-1.5-1.39-2.22-2.11l-.63-.63c-.53-.53-1-1.07-1.55-1.62l-.63-.68c-.62-.68-1.22-1.37-1.81-2.06l-.18-.22c-.65-.77-1.27-1.55-1.87-2.34l-.52-.69c-.44-.59-.87-1.19-1.29-1.79l-.52-.75c-.5-.73-1-1.46-1.44-2.2l-.19-.3c-.52-.83-1-1.68-1.5-2.53-.14-.24-.27-.49-.4-.74q-.53-.95-1-1.92c-.14-.27-.28-.54-.41-.81-.37-.76-.73-1.52-1.08-2.29,0-.12-.11-.24-.17-.37-.39-.88-.76-1.78-1.11-2.68-.1-.25-.19-.51-.28-.76-.26-.67-.5-1.35-.73-2-.1-.29-.2-.57-.29-.86q-.37-1.16-.72-2.34c0-.14-.09-.29-.13-.44-.26-.92-.49-1.85-.7-2.78-.06-.26-.12-.52-.17-.77-.16-.7-.3-1.41-.43-2.11,0-.29-.11-.59-.16-.88q-.19-1.19-.36-2.37c0-.16,0-.33-.07-.49-.12-.94-.21-1.89-.28-2.84,0-.26,0-.51,0-.77-.05-.72-.09-1.43-.11-2.15l0-.9c0-.78,0-1.56,0-2.35v-.54c0-.29,0-.58,0-.87,0-.87.08-1.75.16-2.62,0-.41.09-.83.13-1.25q.12-1.11.27-2.22c.07-.44.14-.89.22-1.34q.18-1.06.39-2.13c.09-.45.19-.9.29-1.35q.25-1.08.54-2.16c.13-.46.24-.92.38-1.37s.2-.67.31-1c.2-.63.4-1.26.62-1.89.13-.35.25-.69.37-1,.25-.66.5-1.3.77-2l.36-.89c.41-.94.83-1.87,1.28-2.79l-4,8c-.45.93-.87,1.86-1.27,2.79-.13.3-.25.6-.37.89-.27.65-.52,1.3-.76,2-.13.34-.25.69-.37,1-.22.63-.43,1.26-.63,1.9-.11.33-.21.67-.31,1,0,.17-.11.33-.15.5s-.15.58-.22.88c-.2.72-.38,1.43-.55,2.15-.1.45-.19.9-.29,1.35q-.21,1.06-.39,2.13c-.08.45-.15.9-.22,1.35q-.15,1.11-.27,2.22c0,.41-.09.83-.13,1.25-.07.87-.12,1.74-.16,2.61,0,.25,0,.49,0,.73,0,.05,0,.1,0,.15v.54c0,.78,0,1.56,0,2.35,0,.3,0,.6,0,.9,0,.71.06,1.43.11,2.14,0,.26,0,.52,0,.77.07,1,.17,1.9.28,2.85,0,.16,0,.32.07.49.11.79.23,1.58.36,2.36.05.3.11.59.16.89.13.7.27,1.4.43,2.1,0,.26.11.52.17.78.21.93.45,1.86.7,2.78l.13.43c.23.79.47,1.57.72,2.35.09.29.19.57.29.85.23.68.47,1.36.73,2,.09.26.19.51.28.77.36.9.72,1.79,1.11,2.68.06.12.12.24.17.36.35.77.71,1.54,1.08,2.3l.41.81q.5,1,1,1.92l.4.74c.48.85,1,1.69,1.5,2.53l.19.3q.69,1.11,1.44,2.19l.52.75c.42.6.85,1.2,1.29,1.79l.52.69c.61.79,1.23,1.58,1.87,2.35l.18.21c.59.7,1.19,1.39,1.81,2.07l.63.67c.51.55,1,1.09,1.56,1.63l.62.63c.73.71,1.46,1.42,2.22,2.1l.15.14q1.08,1,2.19,1.89l.73.59c.59.48,1.19.95,1.8,1.42l.74.56c.83.62,1.68,1.23,2.55,1.82l.1.06c.84.57,1.7,1.12,2.57,1.66l.82.5c.67.4,1.35.8,2,1.18l.84.47q1.41.78,2.88,1.5c34.65,17,75.48,4.84,91.2-27.17l3.94-8.05C221.2,249.59,180.37,261.75,145.71,244.74Z" style="opacity:0.4"></path><path d="M131.25,129.93l-.55-.84a68.89,68.89,0,0,1,7.73-4.37l.44.9A66.11,66.11,0,0,0,131.25,129.93Zm15.11-7.4-.33-.94a74.45,74.45,0,0,1,37-2.76l-.17,1A73.63,73.63,0,0,0,146.36,122.53Z" style="fill:#B2299F"></path><path d="M111.41,156c15.71-32,56.53-44.16,91.19-27.15s50,56.74,34.31,88.74-56.54,44.18-91.2,27.17S95.7,188,111.41,156Zm111.16,54.55c12.11-24.68.27-55.35-26.47-68.47s-58.24-3.73-70.35,21-.26,55.35,26.47,68.47,58.22,3.74,70.35-21" style="fill:#B2299F"></path><path d="M296,240.27l-5,10.12a3.86,3.86,0,0,1-5.27,1.71l-64.3-33.86L228,204.92l66.12,30.14A3.86,3.86,0,0,1,296,240.27Z" style="fill:#B2299F"></path><path d="M223.49,211c12.35-25.15.28-56.4-27-69.77s-59.35-3.8-71.7,21.35-.26,56.41,27,69.78,59.34,3.82,71.69-21.36" style="fill:#fff;opacity:0.1"></path><path d="M196.52,141.21a58.69,58.69,0,0,0-21.47-5.87l-54.49,40.77a49.37,49.37,0,0,0,1.31,21Z" style="fill:#fff;opacity:0.1"></path><path d="M277.15,221.57c-4.06-1.46-6.85,1.24-9.66,2.64-.48.24-.34,1.66.62,1.8a4.41,4.41,0,0,0,3.41-.59c1,.92,4.58,2.46,7.2-.31A5.47,5.47,0,0,0,277.15,221.57Z" style="fill:#b55b52"></path><path d="M330.8,126.78h-2.32a.27.27,0,0,1-.27-.33l1.16-5.34a.28.28,0,0,1,.27-.22h0a.26.26,0,0,1,.26.22l1.16,5.34a.27.27,0,0,1-.05.23A.25.25,0,0,1,330.8,126.78Zm-2-.54h1.64l-.82-3.78Z" style="fill:#fff"></path></g><g id="freepik--question-marks--inject-3"><path d="M263.74,97.1l-5.67,9-.9-.57a13.2,13.2,0,0,1-3.41-2.87,10,10,0,0,1-1.64-3.21,58,58,0,0,1-1.25-7.26c-.23-1.93-.79-3.18-1.66-3.72A3.1,3.1,0,0,0,246.7,88a3.94,3.94,0,0,0-2.19,1.88,4.41,4.41,0,0,0-.64,3.48c.28,1.21,1.28,2.49,3,3.86l-6.94,8.48a14.85,14.85,0,0,1-5.84-8.83q-1.07-5.16,3.12-11.79,3.25-5.17,7.41-7a10.6,10.6,0,0,1,10.49.58,9,9,0,0,1,3.18,3.56A22.74,22.74,0,0,1,260,89.65a14.6,14.6,0,0,0,1.14,4.94A7.3,7.3,0,0,0,263.74,97.1Zm-3.47,10.82,6.07-9.64,8.51,5.36-6.08,9.65Z" style="fill:#B2299F"></path><path d="M344,73.59l-7.5-4.08.41-.75a10.61,10.61,0,0,1,2.12-2.87,8,8,0,0,1,2.48-1.48A46.94,46.94,0,0,1,347.28,63c1.53-.29,2.5-.79,2.89-1.52a2.47,2.47,0,0,0,.28-2,3.11,3.11,0,0,0-1.62-1.66,3.56,3.56,0,0,0-2.82-.34,6.25,6.25,0,0,0-2.93,2.6L335.94,55a11.89,11.89,0,0,1,6.76-5.13q4.08-1.11,9.6,1.89a13.89,13.89,0,0,1,6,5.57,8.52,8.52,0,0,1,.07,8.42,7.12,7.12,0,0,1-2.69,2.73,17.92,17.92,0,0,1-5.86,1.75,11.45,11.45,0,0,0-3.89,1.17A5.77,5.77,0,0,0,344,73.59Zm-8.84-2.23,8,4.37-3.85,7.08-8-4.37Z" style="fill:#B2299F"></path><path d="M356.15,94.65l-2-6.38.64-.2a8.29,8.29,0,0,1,2.76-.45,6,6,0,0,1,2.19.52,35.29,35.29,0,0,1,4,2.36,3.06,3.06,0,0,0,2.45.72,2,2,0,0,0,1.27-1,2.49,2.49,0,0,0,0-1.81,2.78,2.78,0,0,0-1.4-1.73,4.9,4.9,0,0,0-3.06-.14l-1.23-6.76a9.32,9.32,0,0,1,6.6.81q2.89,1.59,4.36,6.29a10.81,10.81,0,0,1,.31,6.38A6.65,6.65,0,0,1,368.47,98a5.5,5.5,0,0,1-3,.07,14.28,14.28,0,0,1-4.25-2.21,9,9,0,0,0-2.82-1.47A4.62,4.62,0,0,0,356.15,94.65Zm-3.75-6.07,2.13,6.83-6,1.88-2.13-6.83Z" style="fill:#B2299F"></path></g></svg>