<svg xmlns="http://www.w3.org/2000/svg" viewBox="0 0 500 500"><ellipse cx="244.99" cy="342.95" rx="236.58" ry="136.59" style="fill:#f0f0f0"/><path d="M200.61 459.68a14.67 14.67 0 0 1-7.23-1.79L78.09 391.32a7 7 0 0 1 0-12.83l203-117.21a15.52 15.52 0 0 1 14.47 0l115.29 66.57a7 7 0 0 1 0 12.83l-203 117.21a14.74 14.74 0 0 1-7.24 1.79Z" style="fill:#e0e0e0"/><path d="m406.14 320.23-11.25-6s-.86-17.2.48-30.83c1.89-19.16 16.13-41.4 30.88-36s-6.76 24.92-11.55 41.16-8.56 31.67-8.56 31.67Z" style="fill:#b2299f"/><path d="m406.14 320.23-11.25-6s-.86-17.2.48-30.83c1.89-19.16 16.13-41.4 30.88-36s-6.76 24.92-11.55 41.16-8.56 31.67-8.56 31.67Z" style="opacity:.1"/><path d="M400.64 318.23a.5.5 0 0 0 .48-.51c-1.45-42.56 19.74-64 19.95-64.18a.49.49 0 0 0 0-.7.5.5 0 0 0-.71 0c-.21.22-21.71 21.93-20.25 64.92a.5.5 0 0 0 .53.47Z" style="fill:#fff"/><path d="m411.91 323.63-5.85-3.38a65.32 65.32 0 0 1 3.64-28.39c5.42-14.71 19.42-22.73 25.86-20.54 7.87 2.68 7.92 10.21 5.06 15.16-3.38 5.84-24.46 20.61-28.71 37.15Z" style="fill:#b2299f"/><path d="M408.83 322.34a.5.5 0 0 0 .5-.5c-.12-26.91 25.15-45.09 25.4-45.27a.5.5 0 0 0-.57-.82c-.26.19-26 18.68-25.83 46.1a.49.49 0 0 0 .5.49Z" style="fill:#fff"/><path d="M69 331.9v-23.44s-1.2-13.23-10.46-23.26-17.54-6.62-20.25-1.86 3.44 13.8 7.37 18.89C50.39 308.35 69 336.78 69 349.51Z" style="fill:#b2299f"/><path d="M69 331.9v-23.44s-1.2-13.23-10.46-23.26-17.54-6.62-20.25-1.86 3.44 13.8 7.37 18.89C50.39 308.35 69 336.78 69 349.51Z" style="opacity:.2"/><path d="M69 328.2a.58.58 0 0 1-.57-.49c-4.22-25.56-23.68-43.1-23.87-43.27a.57.57 0 0 1 .76-.86c.2.18 20 18 24.25 43.95a.58.58 0 0 1-.48.66Z" style="fill:#fff"/><path d="M69.12 335s.77-2.33-2.65-2.92-4.74-3.43-5.06-8.21-1.76-8.2-6.06-8.9-7.74 1.45-10.53-.7-10-7.34-16-5-4 7.5-.92 10.82 4 4.45 1.64 9.85-.65 10.46 4.87 11.72 8.62.62 8.7 6.68.92 8.76 4 11.14 12.55 1.3 16.51 2.22a8.6 8.6 0 0 1 5.55 4.45Z" style="fill:#b2299f"/><path d="M69.12 359.94a.48.48 0 0 1-.45-.32c-10.05-29.86-32.81-41.92-33-42a.47.47 0 0 1 .44-.84c.23.12 23.32 12.34 33.5 42.57a.47.47 0 0 1-.3.6Z" style="fill:#fff"/><path d="M54.7 333.91h-.11c-6.56-1.5-17.07-.69-17.17-.68a.48.48 0 0 1-.52-.43.49.49 0 0 1 .44-.52c.44 0 10.76-.83 17.46.71a.47.47 0 0 1-.1.93ZM60.05 348.26c-3 0-6.18-.19-6.38-.2a.49.49 0 0 1-.45-.51.47.47 0 0 1 .51-.44c.07 0 7.4.45 10.26 0a.48.48 0 1 1 .15.94 29.48 29.48 0 0 1-4.09.21ZM51.62 330.41a.49.49 0 0 1-.45-.5 36.32 36.32 0 0 1 2.11-10 .48.48 0 0 1 .62-.27.48.48 0 0 1 .27.61 35.77 35.77 0 0 0-2 9.71.47.47 0 0 1-.55.45Z" style="fill:#fff"/><path d="M74.73 376.14a11.34 11.34 0 0 0 5.3 8.79l115.29 66.58a11.69 11.69 0 0 0 10.59 0l203-117.21a10 10 0 0 0 0-17.59l-115.3-66.58a11.69 11.69 0 0 0-10.59 0L80 367.34a11.37 11.37 0 0 0-5.27 8.8Z" style="fill:#b2299f"/><path d="M414.22 325.5a11.36 11.36 0 0 1-5.29 8.8l-203 117.21a10.89 10.89 0 0 1-5.29 1.27v-11.47a10.89 10.89 0 0 0 5.29-1.27l203-117.21c2.56-1.48 2.88-3.76 1-5.44a11.34 11.34 0 0 1 4.29 8.11Z" style="opacity:.5"/><path d="M80 373.46 195.32 440a11.69 11.69 0 0 0 10.59 0l203-117.22c2.92-1.68 2.92-4.42 0-6.11l-115.3-66.58a11.69 11.69 0 0 0-10.59 0L80 367.34c-2.9 1.66-2.9 4.43 0 6.12Z" style="opacity:.30000000000000004"/><path d="M200.62 441.31v11.46a10.76 10.76 0 0 1-5.3-1.26L80 384.93a9.92 9.92 0 0 1-.54-17.24c-2.37 1.7-2.18 4.19.54 5.77L195.32 440a10.88 10.88 0 0 0 5.3 1.31Z" style="opacity:.7000000000000001"/><path d="M69.76 367.53c-2.74-1.58-2.59-4.25-2.59-7.63V200.65a11.71 11.71 0 0 1 5.29-9.17l203-117.21a11.33 11.33 0 0 1 10.26-.19c2.75 1.58 2.6 4.26 2.6 7.63V241a11.69 11.69 0 0 1-5.3 9.17L80 367.34a11.33 11.33 0 0 1-10.24.19Z" style="fill:#b2299f"/><path d="M288.34 81.71c0-3.37-2.37-4.74-5.3-3.06L80 195.87a10.75 10.75 0 0 0-3.74 4l-7.56-4.4a10.94 10.94 0 0 1 3.75-4l203-117.2a11.33 11.33 0 0 1 10.26-.19c2.77 1.58 2.63 4.26 2.63 7.63Z" style="opacity:.30000000000000004"/><path d="M74.73 205v159.29c0 3.37 2.37 4.74 5.29 3L283 250.13a11.69 11.69 0 0 0 5.3-9.17V81.71c0-3.37-2.37-4.74-5.3-3L80 195.87a11.71 11.71 0 0 0-5.27 9.13Z" style="opacity:.5"/><path d="M79.4 367.66a11.38 11.38 0 0 1-9.64-.13c-2.74-1.58-2.59-4.25-2.59-7.63V200.65a10.74 10.74 0 0 1 1.55-5.21l7.56 4.37a10.94 10.94 0 0 0-1.55 5.19v159.29c0 3.13 2.04 4.54 4.67 3.37Z" style="opacity:.7000000000000001"/><path d="M82.87 202 278.61 89c1.75-1 3.17-.19 3.17 1.83v139a7 7 0 0 1-3.17 5.5l-195.74 113c-1.75 1-3.17.19-3.17-1.84v-139a7 7 0 0 1 3.17-5.49Z" style="fill:#fafafa"/><path d="m123.84 236.94 114.93-66.35c3.41-2 6.17-.57 6.17 3.12s-2.76 8.29-6.17 10.29l-114.93 66.3c-3.4 2-6.16.57-6.16-3.12s2.76-8.27 6.16-10.24Z" style="fill:#455a64"/><path d="M243 173.71c0 3-2.39 7-5.22 8.59l-23.47 13.56-91.46 52.79a3.84 3.84 0 0 1-1.94.64c-.91 0-1.38-.71-1.38-2.11 0-3 2.39-7 5.22-8.6l89.56-51.7 25.37-14.65a4.06 4.06 0 0 1 1.95-.64c.95 0 1.37.72 1.37 2.12Z" style="fill:#b2299f"/><path d="M243 173.71c0 3-2.39 7-5.22 8.59l-23.47 13.56-91.46 52.79a3.84 3.84 0 0 1-1.94.64c-.91 0-1.38-.71-1.38-2.11 0-3 2.39-7 5.22-8.6l89.56-51.7 25.37-14.65a4.06 4.06 0 0 1 1.95-.64c.95 0 1.37.72 1.37 2.12Z" style="fill:#b2299f"/><path d="M243 173.71c0 3-2.39 7-5.22 8.59l-23.47 13.56v-9l25.37-14.65a4.06 4.06 0 0 1 1.95-.64c.95.02 1.37.74 1.37 2.14Z" style="fill:#263238"/><path d="m151.07 223.41-26.28 15.17c-2.83 1.63-5.22 5.57-5.22 8.6 0 1.4.47 2.11 1.38 2.11a3.84 3.84 0 0 0 1.94-.64l28.18-16.26Z" style="fill:#fff;opacity:.6000000000000001"/><path style="fill:#fff;opacity:.4" d="M151.08 232.38 182.93 214v-8.98l-31.85 18.39v8.97z"/><path d="M159.66 253.51a.2.2 0 0 1 .26 0 .45.45 0 0 1 .11.33v1.46a1.07 1.07 0 0 1-.11.46.68.68 0 0 1-.26.31l-5.87 3.39a.18.18 0 0 1-.25 0 .45.45 0 0 1-.11-.33V245.8a1.11 1.11 0 0 1 .11-.46.67.67 0 0 1 .25-.31l1.09-.63a.19.19 0 0 1 .25 0 .45.45 0 0 1 .11.33v11.31ZM164.93 242.11a2.56 2.56 0 0 1 1.34-.42 1.57 1.57 0 0 1 1 .37 2.65 2.65 0 0 1 .7 1.05 5.24 5.24 0 0 1 .3 1.6v2.08a10 10 0 0 1-.31 2 9.43 9.43 0 0 1-.69 1.84 7.6 7.6 0 0 1-1 1.55 5.27 5.27 0 0 1-1.34 1.13 2.6 2.6 0 0 1-1.33.41 1.56 1.56 0 0 1-1-.36 2.37 2.37 0 0 1-.69-1 5.22 5.22 0 0 1-.31-1.59v-2.09a9.4 9.4 0 0 1 .3-2 9.8 9.8 0 0 1 .7-1.85 7.4 7.4 0 0 1 1-1.56 5 5 0 0 1 1.33-1.16Zm1.63 3.71a3 3 0 0 0-.2-1 .92.92 0 0 0-.38-.45.77.77 0 0 0-.5 0 2 2 0 0 0-.55.23 3.18 3.18 0 0 0-.55.4 2.93 2.93 0 0 0-.49.63 4 4 0 0 0-.38.89 5 5 0 0 0-.2 1.18V249.56a2.7 2.7 0 0 0 .2.95.92.92 0 0 0 .38.45.74.74 0 0 0 .49.05 1.81 1.81 0 0 0 .55-.22 3.41 3.41 0 0 0 .55-.41 3 3 0 0 0 .5-.63 3.84 3.84 0 0 0 .38-.89 5.46 5.46 0 0 0 .2-1.18v-1.41c.01-.21 0-.35 0-.45ZM170.51 241.74a6.26 6.26 0 0 1 .25-1.08 6.64 6.64 0 0 1 .55-1.24 7.17 7.17 0 0 1 .87-1.22 4.73 4.73 0 0 1 1.2-1 2.93 2.93 0 0 1 1.23-.43 1.29 1.29 0 0 1 .95.27 2 2 0 0 1 .61 1 6.08 6.08 0 0 1 .21 1.74v6.07a1 1 0 0 1-.1.45.67.67 0 0 1-.26.32l-1 .58a.18.18 0 0 1-.25 0 .45.45 0 0 1-.11-.33v-.69a6.22 6.22 0 0 1-.81 1.49 4.26 4.26 0 0 1-1.35 1.21 2.45 2.45 0 0 1-1 .36 1.08 1.08 0 0 1-.76-.23 1.58 1.58 0 0 1-.48-.75 3.81 3.81 0 0 1-.17-1.2 5.26 5.26 0 0 1 .66-2.6 7.34 7.34 0 0 1 1.76-2.11l2.18-1.84c0-.57-.12-.89-.36-1a1.06 1.06 0 0 0-.9.17 1.78 1.78 0 0 0-.52.44 3.17 3.17 0 0 0-.36.61 1.92 1.92 0 0 1-.23.35.79.79 0 0 1-.22.19l-1.24.72a.21.21 0 0 1-.23 0 .31.31 0 0 1-.12-.25Zm2.24 4.53a3.44 3.44 0 0 0 .81-.67 4.22 4.22 0 0 0 .6-.87 4.4 4.4 0 0 0 .36-.95 3.81 3.81 0 0 0 .12-.92v-.21l-1.82 1.55a3.41 3.41 0 0 0-.79.88 1.79 1.79 0 0 0-.25.9c0 .29.1.44.29.47a1.12 1.12 0 0 0 .68-.18ZM181.52 232.53a2.39 2.39 0 0 1 .74-.3 1.46 1.46 0 0 1 .58 0 1.05 1.05 0 0 1 .42.16 1.39 1.39 0 0 1 .28.24v-4.4a1.06 1.06 0 0 1 .11-.45.68.68 0 0 1 .26-.31l1-.59a.2.2 0 0 1 .26 0 .45.45 0 0 1 .11.33v13.54a1.06 1.06 0 0 1-.11.45.67.67 0 0 1-.26.32l-1 .59a.21.21 0 0 1-.26 0 .45.45 0 0 1-.11-.33v-.48a4.92 4.92 0 0 1-.28.57 5.38 5.38 0 0 1-.42.64 5.76 5.76 0 0 1-.58.65 3.75 3.75 0 0 1-.74.55 1.83 1.83 0 0 1-1.21.3 1.49 1.49 0 0 1-.93-.54 3.07 3.07 0 0 1-.6-1.2 6.6 6.6 0 0 1-.25-1.69v-1.44a10.52 10.52 0 0 1 .25-2 9.79 9.79 0 0 1 .6-1.9 7 7 0 0 1 .93-1.6 4.07 4.07 0 0 1 1.21-1.11Zm-1.25 5.72a11 11 0 0 0 0 1.15c.06.87.23 1.41.54 1.62a1 1 0 0 0 1.11-.05 2.89 2.89 0 0 0 1.11-1.24 4.81 4.81 0 0 0 .51-2v-1.57a1.86 1.86 0 0 0-.51-1.39.91.91 0 0 0-1.11 0 2.92 2.92 0 0 0-1.11 1.23 5.42 5.42 0 0 0-.54 2.25ZM189.26 224.35a.18.18 0 0 1 .25 0 .45.45 0 0 1 .11.33v1.61a1.06 1.06 0 0 1-.11.45.68.68 0 0 1-.25.31l-1.16.67a.18.18 0 0 1-.25 0 .45.45 0 0 1-.11-.33v-1.61a1.06 1.06 0 0 1 .11-.45.62.62 0 0 1 .25-.31Zm.29 13.93a1.06 1.06 0 0 1-.11.45.7.7 0 0 1-.25.32l-1 .58a.21.21 0 0 1-.26 0 .45.45 0 0 1-.1-.33v-9.62a1.06 1.06 0 0 1 .1-.46.75.75 0 0 1 .26-.31l1-.59a.18.18 0 0 1 .25 0 .45.45 0 0 1 .11.33ZM198.61 233.05a1 1 0 0 1-.1.45.69.69 0 0 1-.26.31l-1 .59a.18.18 0 0 1-.25 0 .45.45 0 0 1-.11-.33v-5.24a3.15 3.15 0 0 0-.37-1.77c-.26-.35-.64-.37-1.16-.07a2.76 2.76 0 0 0-1.12 1.39 5.73 5.73 0 0 0-.41 2.21v5.25a1 1 0 0 1-.1.45.69.69 0 0 1-.26.31l-1 .59a.18.18 0 0 1-.25 0 .44.44 0 0 1-.11-.33v-9.66a1.06 1.06 0 0 1 .11-.45.62.62 0 0 1 .25-.31l1-.59a.2.2 0 0 1 .26 0 .45.45 0 0 1 .1.33v.47a8.77 8.77 0 0 1 .82-1.36 3.86 3.86 0 0 1 1.11-1 2.26 2.26 0 0 1 1.37-.4 1.28 1.28 0 0 1 .89.54 3.15 3.15 0 0 1 .47 1.27 9.59 9.59 0 0 1 .14 1.76ZM204.11 232.49a2.53 2.53 0 0 0 .58-.46 3.9 3.9 0 0 0 .53-.74 4.2 4.2 0 0 0 .4-1 4.11 4.11 0 0 0 .15-1.13v-.76a5.81 5.81 0 0 1-.28.56 7.09 7.09 0 0 1-.42.65 5.69 5.69 0 0 1-.58.64 3.79 3.79 0 0 1-.74.56 1.88 1.88 0 0 1-1.21.29 1.49 1.49 0 0 1-.93-.54 3.07 3.07 0 0 1-.6-1.2 6.59 6.59 0 0 1-.25-1.68v-1.44a10.42 10.42 0 0 1 .25-2 9.37 9.37 0 0 1 .6-1.9 7.06 7.06 0 0 1 .93-1.61 4 4 0 0 1 1.21-1.1 2.73 2.73 0 0 1 .74-.31 1.65 1.65 0 0 1 .58 0 1.11 1.11 0 0 1 .42.16 1.13 1.13 0 0 1 .28.24v-.48a1.06 1.06 0 0 1 .11-.45.64.64 0 0 1 .26-.31l1-.59a.2.2 0 0 1 .26 0 .45.45 0 0 1 .11.33V228a9.49 9.49 0 0 1-.91 4.29 6.33 6.33 0 0 1-2.5 2.71 3.15 3.15 0 0 1-1.27.45 1.85 1.85 0 0 1-1-.15 1.72 1.72 0 0 1-.68-.66 2.18 2.18 0 0 1-.28-1.05.86.86 0 0 1 .1-.45.64.64 0 0 1 .26-.31l.91-.53a.25.25 0 0 1 .32 0l.23.23a.67.67 0 0 0 .48.3 1.59 1.59 0 0 0 .94-.34Zm-1.61-7.08a7.48 7.48 0 0 0 0 1.16c.06.86.23 1.4.54 1.62a1 1 0 0 0 1.11-.05 3 3 0 0 0 1.11-1.24 4.81 4.81 0 0 0 .51-2v-1.57a1.88 1.88 0 0 0-.51-1.4.93.93 0 0 0-1.11 0 3 3 0 0 0-1.11 1.23 5.46 5.46 0 0 0-.54 2.25ZM211.49 223a.2.2 0 0 1 .25 0 .45.45 0 0 1 .11.33v2a1.06 1.06 0 0 1-.11.45.68.68 0 0 1-.25.31l-1.25.72a.2.2 0 0 1-.26 0 .44.44 0 0 1-.1-.33v-2a1 1 0 0 1 .1-.45.79.79 0 0 1 .26-.32ZM215.65 220.63a.2.2 0 0 1 .26 0 .42.42 0 0 1 .11.33v2a1.06 1.06 0 0 1-.11.45.64.64 0 0 1-.26.31l-1.24.72a.2.2 0 0 1-.26 0 .45.45 0 0 1-.1-.33v-2a1 1 0 0 1 .1-.45.64.64 0 0 1 .26-.31ZM219.82 218.22a.2.2 0 0 1 .26 0 .45.45 0 0 1 .11.33v2a1.14 1.14 0 0 1-.11.46.68.68 0 0 1-.26.31l-1.24.72a.21.21 0 0 1-.26 0 .45.45 0 0 1-.1-.33v-2a1.09 1.09 0 0 1 .1-.46.68.68 0 0 1 .26-.31Z" style="fill:#455a64"/><path d="m94.68 367.66 188.44-108.8a5.89 5.89 0 0 1 5.3 0l3.14 1.72c1.46.85 1.46 2.22 0 3.06L103.08 372.42a5.81 5.81 0 0 1-5.29 0l-3.11-1.71c-1.46-.84-1.46-2.21 0-3.05Z" style="opacity:.30000000000000004"/><path d="m109.46 376.45 188.44-108.8a5.41 5.41 0 0 1 4.84-.27l49.05 28.32c1.21.7 1 1.95-.46 2.8L163.11 407.15a5.47 5.47 0 0 1-4.85.27L109 379.23c-1.21-.69-1-1.94.46-2.78Z" style="fill:#263238;opacity:.30000000000000004"/><path d="m272.75 313.35 5.9-3.41c.25-.15.27-.37.05-.5l-5.65-3.26a1 1 0 0 0-.85 0l-5.9 3.41c-.26.15-.28.37-.05.5l5.64 3.25a1 1 0 0 0 .86.01Zm-8.62-11.79-5.9 3.4c-.25.15-.27.37-.05.5l5.65 3.26a1 1 0 0 0 .85 0l5.9-3.41c.25-.14.28-.36.05-.49l-5.63-3.29a.94.94 0 0 0-.87.03Zm-19.06 11-10 5.77c-.26.14-.28.37-.06.49l5.65 3.26a.94.94 0 0 0 .86 0l10-5.76c.25-.15.27-.37 0-.5l-5.64-3.26a1 1 0 0 0-.81 0Zm10.44-6-5.9 3.4c-.25.15-.27.37-.05.5l5.64 3.26a1 1 0 0 0 .86 0l5.9-3.41c.25-.14.27-.36.05-.49l-5.64-3.26a.94.94 0 0 0-.86-.02Zm-23.15 13.34-5.9 3.41c-.25.14-.27.36-.05.49l5.65 3.26a.92.92 0 0 0 .85 0l5.9-3.4c.25-.15.28-.37.05-.5l-5.64-3.26a1 1 0 0 0-.86 0Zm-8.62 5-5.9 3.41c-.25.14-.27.36-.05.49l5.64 3.26a.94.94 0 0 0 .86 0l5.9-3.41c.25-.14.27-.36.05-.49l-5.64-3.26a.94.94 0 0 0-.86-.02Zm22.12 13.3 5.9-3.41c.25-.14.28-.37.05-.49l-5.64-3.3a.94.94 0 0 0-.86 0l-5.9 3.4c-.25.15-.27.37 0 .5l5.65 3.26a1 1 0 0 0 .8.02Zm-8.62 5 5.9-3.41c.25-.15.27-.37.05-.5l-5.64-3.29a1 1 0 0 0-.86 0l-5.9 3.41c-.25.15-.27.37 0 .5l5.64 3.26a1 1 0 0 0 .81-.01Zm-8.62 5 5.9-3.41c.25-.15.27-.37 0-.5l-5.6-3.29a1 1 0 0 0-.85 0l-5.9 3.41c-.26.15-.28.37 0 .49l5.64 3.26a1 1 0 0 0 .81-.02Zm-8.63 5 5.9-3.4c.25-.15.28-.37.05-.5l-5.64-3.3a1 1 0 0 0-.86 0l-5.9 3.41c-.25.14-.27.37 0 .49l5.65 3.26a.92.92 0 0 0 .81-.05Zm44.13-34.79 5.9-3.4c.25-.15.28-.37.05-.5l-5.64-3.26a1 1 0 0 0-.86 0l-5.9 3.41c-.25.14-.27.37-.05.49l5.65 3.26a.92.92 0 0 0 .85-.09Zm-9.63 14.88 13.16-7.6c.25-.15.27-.37.05-.5l-13.7-8a1 1 0 0 0-.86 0l-6.8 3.93c-.25.15-.28.37-.05.5l7.25 4.19c.23.12.2.35-.05.49l-5.49 3.17c-.25.15-.28.37 0 .5l5.64 3.26a1 1 0 0 0 .85-.03Zm-39.37-3.34-5.9 3.4c-.26.15-.28.37-.06.5l5.65 3.26a1 1 0 0 0 .86 0l5.9-3.41c.25-.14.27-.36.05-.49l-5.62-3.38a.92.92 0 0 0-.88.03Zm-8.63 5-5.9 3.4c-.25.15-.27.37-.05.5l5.65 3.26a1 1 0 0 0 .85 0l5.9-3.41c.25-.14.28-.37.05-.49l-5.64-3.26a.94.94 0 0 0-.86-.11ZM158.77 388a.94.94 0 0 0 .86 0l5.9-3.4c.25-.15.27-.37.05-.5l-5.64-3.26a1 1 0 0 0-.86 0l-5.9 3.41c-.25.14-.27.37-.05.49Zm-21.26-13.32-5.9 3.4c-.26.15-.28.37-.05.5l5.64 3.26a1 1 0 0 0 .86 0l5.9-3.41c.25-.14.27-.37 0-.49l-5.65-3.26a.92.92 0 0 0-.8-.01Zm10.93 10a1 1 0 0 0 .86 0l5.9-3.41c.25-.14.27-.36.05-.49l-5.65-3.26a.92.92 0 0 0-.85 0l-5.9 3.4c-.25.15-.28.37 0 .5Zm23.79 5.32 5.9-3.41c.25-.14.28-.36.05-.49l-5.64-3.26a.94.94 0 0 0-.86 0l-5.9 3.4c-.25.15-.27.37-.05.5l5.65 3.26a1 1 0 0 0 .85 0Zm-9.48 5a1 1 0 0 0 .86 0l5.9-3.41c.25-.14.27-.36.05-.49l-5.64-3.26a.94.94 0 0 0-.86 0l-5.9 3.4c-.25.15-.27.37 0 .5Zm-16.62-25.32-5.9 3.4c-.25.15-.27.37 0 .5l5.64 3.26a1 1 0 0 0 .86 0l5.9-3.41c.25-.14.27-.36 0-.49l-5.63-3.28a.94.94 0 0 0-.87.03Zm43.12-24.9-5.9 3.41c-.26.15-.28.37-.06.5l5.65 3.25a1 1 0 0 0 .86 0l5.9-3.41c.25-.15.27-.37.05-.5l-5.65-3.25a.94.94 0 0 0-.85.01Zm-34.5 19.92-5.9 3.41c-.25.14-.27.36 0 .49l5.65 3.26a1 1 0 0 0 .85 0l5.9-3.41c.25-.14.28-.36.05-.49l-5.64-3.26a.94.94 0 0 0-.91.01Zm43.12-24.89-5.9 3.4c-.25.15-.27.37-.05.5l5.64 3.26a1 1 0 0 0 .86 0l5.9-3.41c.25-.14.27-.37.05-.49l-5.64-3.26a.94.94 0 0 0-.86.01Zm-17.25 9.95-5.9 3.41c-.25.14-.27.37-.05.49l5.65 3.26a.92.92 0 0 0 .85 0l5.9-3.4c.25-.15.28-.37.05-.5l-5.64-3.26a1 1 0 0 0-.86.01Zm-8.62 5-5.9 3.41c-.25.14-.27.36 0 .49l5.64 3.26a.94.94 0 0 0 .86 0l5.9-3.4c.25-.15.27-.37.05-.5l-5.64-3.26a1 1 0 0 0-.91-.01Zm-8.62 5-5.9 3.41c-.26.14-.28.36-.06.49l5.65 3.26a.94.94 0 0 0 .86 0l5.9-3.41c.25-.14.27-.36 0-.49l-5.65-3.26a1 1 0 0 0-.8-.03Zm39.37 3.34 5.9-3.41c.25-.14.27-.36 0-.49l-5.65-3.26a1 1 0 0 0-.85 0l-5.9 3.41c-.26.14-.28.36-.05.49l5.64 3.26a.94.94 0 0 0 .91-.03Zm80.44-72.52-5.9 3.41c-.25.14-.27.37-.05.49l5.65 3.26a.94.94 0 0 0 .86 0l5.9-3.4c.25-.15.27-.37.05-.5l-5.65-3.26a1 1 0 0 0-.86-.03Zm-10.43 6-5.9 3.41c-.26.14-.28.36-.06.49l5.65 3.26a.94.94 0 0 0 .86 0l5.9-3.41c.25-.14.27-.36.05-.49l-5.65-3.26a1 1 0 0 0-.85 0Zm19.06-11-5.9 3.41c-.25.15-.28.37-.05.5l5.64 3.25a1 1 0 0 0 .86 0l5.9-3.41c.25-.15.27-.37.05-.5l-5.65-3.26a1 1 0 0 0-.85 0Zm-47.67 44.28 5.9-3.4c.25-.15.28-.37 0-.5l-5.64-3.26a1 1 0 0 0-.86 0l-5.9 3.41c-.25.14-.27.36 0 .49l5.65 3.26a.92.92 0 0 0 .85-.01Zm57.15-49.28a.94.94 0 0 0-.86 0l-5.9 3.4c-.25.15-.27.37-.05.5l5.64 3.26a1 1 0 0 0 .86 0l5.9-3.41c.25-.14.28-.37.05-.49Zm-89.93 77.52 5.9-3.4c.25-.15.27-.37 0-.5l-5.64-3.26a1 1 0 0 0-.86 0l-5.9 3.41c-.25.14-.27.36 0 .49l5.64 3.26a.94.94 0 0 0 .86-.01Zm105.75-61 5.9-3.41c.25-.14.27-.37.05-.49l-5.64-3.26a.94.94 0 0 0-.86 0l-5.9 3.4c-.25.15-.28.37-.05.5l5.64 3.26a1 1 0 0 0 .86-.1Zm-16.69.32 5.9-3.41c.25-.14.28-.36.05-.49l-5.64-3.26a1 1 0 0 0-.86 0l-5.9 3.41c-.25.14-.27.36-.05.49l5.65 3.26a.92.92 0 0 0 .85-.06Zm8.93-12.14a1 1 0 0 0-.86 0l-5.9 3.41c-.25.14-.27.36-.05.49l5.65 3.26a.94.94 0 0 0 .86 0L315 289c.25-.15.27-.37.05-.5Zm1.82-1.05 13.71 7.92a1 1 0 0 0 .85 0l5.9-3.41c.25-.14.28-.36.05-.49L318 280.24a1 1 0 0 0-.85 0l-5.9 3.41c-.25.17-.25.4-.07.52Zm-19.92 11-5.9 3.41c-.25.14-.28.36-.05.49l5.64 3.26a1 1 0 0 0 .86 0l5.9-3.41c.25-.14.27-.36.05-.49l-5.64-3.26a.94.94 0 0 0-.86-.02Zm-64.9 37.47-5.9 3.41c-.25.14-.28.36-.05.49l5.64 3.26a.94.94 0 0 0 .86 0l5.9-3.41c.25-.14.27-.36.05-.49l-5.65-3.26a.92.92 0 0 0-.85-.02Zm81.28-30.63a1 1 0 0 0 .86 0l5.9-3.41c.25-.14.27-.37.05-.49l-5.65-3.26a.92.92 0 0 0-.85 0l-5.9 3.4c-.26.15-.28.37-.06.5ZM235 327.7l-5.9 3.41c-.25.14-.27.36-.05.49l5.64 3.26a.94.94 0 0 0 .86 0l5.9-3.4c.25-.15.27-.37 0-.5l-5.64-3.26a1 1 0 0 0-.81 0ZM167.4 383a.94.94 0 0 0 .85 0l5.9-3.41c.25-.15.28-.37 0-.5l-5.64-3.25a1 1 0 0 0-.86 0l-5.9 3.41c-.25.15-.27.37-.05.5Zm-10-10.5-5.9 3.41c-.25.14-.27.36-.05.49l5.64 3.26a1 1 0 0 0 .86 0l5.9-3.41c.25-.14.27-.36.05-.49l-5.64-3.26a.94.94 0 0 0-.89.01Zm19.51 5.5 5.9-3.41c.25-.14.27-.37.05-.49l-5.65-3.26a.92.92 0 0 0-.85 0l-5.9 3.4c-.25.15-.28.37-.05.5L176 378a1 1 0 0 0 .88 0Zm8.62-5 5.9-3.41c.25-.14.27-.36 0-.49l-5.64-3.26a.94.94 0 0 0-.86 0l-5.9 3.4c-.25.15-.27.37-.05.5l5.64 3.26a1 1 0 0 0 .88 0Zm8.62-5 5.9-3.41c.25-.14.28-.36 0-.49l-5.64-3.26a.94.94 0 0 0-.86 0l-5.9 3.4c-.25.15-.27.37 0 .5l5.65 3.26a1 1 0 0 0 .82.05Zm-28.15-.47-5.9 3.41c-.25.14-.27.36-.05.49l5.65 3.26a.92.92 0 0 0 .85 0l5.9-3.41c.25-.14.28-.36.05-.49l-5.64-3.26a1 1 0 0 0-.86 0Zm8.63-5-5.9 3.41c-.25.14-.28.36-.05.49l5.64 3.26a.94.94 0 0 0 .86 0l5.9-3.4c.25-.15.27-.37.05-.5l-5.65-3.26a1 1 0 0 0-.86.02Zm34.49-19.91-5.9 3.4c-.25.15-.27.37-.05.5l5.64 3.26a1 1 0 0 0 .86 0l5.9-3.41c.25-.14.27-.37.05-.49l-5.62-3.27a.94.94 0 0 0-.89.03Zm-8.62 5-5.9 3.4c-.25.15-.28.37-.05.5l5.64 3.26a1 1 0 0 0 .86 0l5.9-3.41c.25-.14.27-.37.05-.49l-5.65-3.26a.92.92 0 0 0-.86 0Zm17.24-10-5.9 3.4c-.25.15-.27.37-.05.5l5.65 3.26a1 1 0 0 0 .85 0l5.9-3.41c.25-.14.28-.36 0-.49l-5.64-3.26a.94.94 0 0 0-.82.04Zm-34.49 19.91-5.9 3.41c-.25.14-.27.37-.05.49l5.64 3.26a.94.94 0 0 0 .86 0l5.9-3.4c.25-.15.27-.37.05-.5l-5.64-3.26a1 1 0 0 0-.87.04Zm8.62-5L186 356c-.25.15-.27.37-.05.5l5.65 3.25a.94.94 0 0 0 .85 0l5.9-3.41c.25-.15.28-.37.05-.5l-5.64-3.25a1 1 0 0 0-.9 0Zm-11 32.43 5.9-3.41c.25-.14.27-.36.05-.49l-5.65-3.26a.92.92 0 0 0-.85 0l-5.9 3.41c-.26.14-.28.36-.06.49l5.65 3.26a.94.94 0 0 0 .85.04Zm-45.48-2.15-5.64-3.25a1 1 0 0 0-.86 0l-5.9 3.41c-.25.15-.27.37 0 .5l5.65 3.26a1 1 0 0 0 .85 0l5.9-3.41c.19-.1.22-.32-.01-.45Zm11.24 2.83-5.63-3.2a.94.94 0 0 0-.86 0l-9.07 5.24c-.25.14-.28.36-.05.49l5.64 3.26a.94.94 0 0 0 .86 0l9.07-5.24c.23-.14.26-.37.03-.49Zm-19.63-9.2-5.65-3.26a.92.92 0 0 0-.85 0l-7.26 4.19c-.25.15-.28.37-.06.5l5.65 3.25a1 1 0 0 0 .86 0l7.26-4.2c.21-.13.23-.35.05-.48Zm5.57-3.22a.92.92 0 0 0 .85 0l5.9-3.4c.25-.15.28-.37.05-.5l-5.68-3.32a1 1 0 0 0-.86 0l-5.9 3.41c-.25.14-.27.37-.05.49ZM157 389l-5.65-3.26a1 1 0 0 0-.85 0l-11.35 6.55c-.25.15-.27.37-.05.5l5.64 3.26a1 1 0 0 0 .86 0l11.35-6.55c.21-.11.23-.33.05-.5Zm4 7-5.65-3.26a.92.92 0 0 0-.85 0l-7.33 4.26c-.25.14-.27.36 0 .49l5.65 3.26a.92.92 0 0 0 .85 0l7.27-4.19c.2-.15.22-.38 0-.5Zm35.7-59.85a1 1 0 0 0 .86 0l5.9-3.41c.25-.14.27-.36 0-.49L197.8 329a.92.92 0 0 0-.85 0l-5.9 3.4c-.25.15-.28.37-.05.5Zm-17.25 10a1 1 0 0 0 .86 0l5.9-3.41c.25-.15.28-.37 0-.5l-5.65-3.24a1 1 0 0 0-.86 0l-5.9 3.41c-.25.15-.27.37-.05.5Zm-38.24 22.08a1 1 0 0 0 .86 0l5.9-3.41c.25-.15.27-.37.05-.5l-5.65-3.25a.92.92 0 0 0-.85 0l-5.9 3.4c-.25.15-.28.37-.06.5ZM188 341.19a1 1 0 0 0 .86 0l5.9-3.41c.25-.14.27-.37.05-.49l-5.63-3.29a.94.94 0 0 0-.86 0l-5.9 3.4c-.25.15-.27.37 0 .5Zm-17.25 9.95a.94.94 0 0 0 .86 0l5.9-3.4c.25-.15.27-.37.05-.5l-5.63-3.24a1 1 0 0 0-.85 0l-5.9 3.41c-.25.14-.28.37-.05.49Zm-5.6 45.26a1 1 0 0 0-.86 0l-9.07 5.24c-.25.15-.28.37-.05.5l5.64 3.26a1 1 0 0 0 .86 0l9.08-5.24c.25-.15.27-.37 0-.5Zm-6.77-38.11a1 1 0 0 0 .85 0l5.9-3.41c.25-.14.28-.36 0-.49l-5.64-3.26a.94.94 0 0 0-.86 0l-5.9 3.4c-.25.15-.27.37-.05.5Zm-8.63 5a1 1 0 0 0 .86 0l5.9-3.41c.25-.14.27-.37.05-.49l-5.64-3.26a.94.94 0 0 0-.86 0l-5.9 3.4c-.25.15-.27.37-.05.5Zm175.16-59.1a.94.94 0 0 0-.86 0l-14.52 8.38c-.25.15-.27.37-.05.5l5.64 3.26a1 1 0 0 0 .86 0l14.52-8.39c.25-.14.28-.36.05-.49Zm-19.06 11a1 1 0 0 0-.86 0l-5.9 3.41c-.25.14-.27.37-.05.49l5.64 3.26a.94.94 0 0 0 .86 0l5.9-3.4c.25-.15.27-.37.05-.5ZM189.48 380l5.9-3.4c.25-.15.27-.37.05-.5l-5.64-3.26a1 1 0 0 0-.86 0l-5.9 3.41c-.25.14-.27.36-.05.49l5.64 3.26a.94.94 0 0 0 .86 0Zm99.14-54.91a1 1 0 0 0-.86 0l-5.9 3.41c-.25.14-.27.36-.05.49l5.65 3.26a.92.92 0 0 0 .85 0l5.9-3.41c.26-.14.28-.36.06-.49Zm44.93-25.94a.92.92 0 0 0-.85 0l-5.9 3.4c-.25.15-.28.37-.05.5l5.64 3.26a1 1 0 0 0 .86 0l5.9-3.41c.25-.14.27-.36.05-.49Zm14.27-1.72-13.71-7.92a1 1 0 0 0-.85 0l-5.9 3.41c-.26.15-.28.37-.06.49l13.7 7.99a.94.94 0 0 0 .86 0l5.9-3.41c.24-.17.24-.39.06-.52Zm-91.42 46.3a1 1 0 0 0-.86 0l-7.26 4.2c-.25.14-.28.36-.05.49l5.64 3.26a.94.94 0 0 0 .86 0l7.26-4.19c.25-.15.27-.37.05-.5Zm21.78-12.57a.92.92 0 0 0-.85 0l-9.08 5.24c-.25.14-.27.36-.05.49l5.64 3.26a.94.94 0 0 0 .86 0l9.08-5.24c.25-.14.27-.36.05-.49Zm-41.75 24.1a1 1 0 0 0-.86 0l-48.56 28c-.25.15-.28.37 0 .5l5.64 3.26a1 1 0 0 0 .86 0L242 359c.25-.15.27-.37 0-.5Zm-51.29 29.61a1 1 0 0 0-.86 0L177 389.1c-.25.14-.27.36-.05.49l5.65 3.26a.92.92 0 0 0 .85 0l7.27-4.19c.25-.15.27-.37 0-.5Zm61.27-35.37a.92.92 0 0 0-.85 0l-7.27 4.19c-.25.15-.27.37 0 .5l5.65 3.25a.94.94 0 0 0 .85 0l7.27-4.2c.25-.14.27-.36.05-.49Zm-71.25 41.14a.94.94 0 0 0-.86 0l-7.3 4.22c-.25.15-.28.37 0 .5l5.64 3.25a1 1 0 0 0 .86 0l7.26-4.2c.25-.14.27-.36.05-.49ZM266.38 338a.94.94 0 0 0-.86 0l-7.26 4.19c-.25.15-.27.37-.05.5l5.65 3.26a1 1 0 0 0 .85 0l7.27-4.2c.25-.14.27-.36 0-.49Zm30.86-17.82a1 1 0 0 0-.85 0l-5.9 3.41c-.25.14-.28.36-.05.49l5.64 3.26a.94.94 0 0 0 .86 0l5.9-3.4c.25-.15.27-.37.05-.5Zm19.32-13.48 5.9-3.4c.25-.15.27-.37.05-.5l-5.64-3.26a1 1 0 0 0-.86 0l-5.9 3.41c-.25.14-.27.36-.05.49l5.64 3.26a.94.94 0 0 0 .86-.03Zm-35.19 1.7 5.9-3.41c.25-.14.27-.37.05-.5l-5.64-3.25a.94.94 0 0 0-.86 0l-5.9 3.4c-.25.15-.27.37-.05.5l5.64 3.26a1 1 0 0 0 .86-.03Zm-22.9 31.84 17.24-9.95c.25-.15.28-.37.05-.5l-5.64-3.26a1 1 0 0 0-.86 0l-17.25 10c-.25.14-.27.36 0 .49l5.65 3.26a.94.94 0 0 0 .81-.07Zm48.61-28.53a.94.94 0 0 0 .86 0l5.9-3.41c.25-.14.27-.36.05-.49l-5.65-3.26a1 1 0 0 0-.85 0l-5.9 3.41c-.26.14-.28.36-.06.49Zm-7.21-4.71 5.9-3.41c.25-.15.28-.37.05-.5l-5.64-3.25a1 1 0 0 0-.86 0l-5.9 3.41c-.25.15-.27.37-.05.5L299 307a.94.94 0 0 0 .87 0Zm-50 38.19 5.9-3.41c.25-.14.28-.36 0-.49l-5.62-3.29a1 1 0 0 0-.86 0l-5.9 3.41c-.25.14-.27.36 0 .49l5.65 3.26a.92.92 0 0 0 .8.03Zm38.13-22.5a1 1 0 0 0 .85 0l5.9-3.41c.26-.14.28-.37.06-.49l-5.65-3.26a.94.94 0 0 0-.86 0l-5.9 3.4c-.25.15-.27.37-.05.5Zm-81.29 47.39 5.9-3.4c.25-.15.27-.37.05-.5l-5.66-3.26a1 1 0 0 0-.85 0l-5.9 3.41c-.26.15-.28.37-.06.49l5.65 3.26a.94.94 0 0 0 .89 0Zm8.62-5 5.9-3.41c.25-.15.27-.37.05-.5l-5.62-3.17a.94.94 0 0 0-.86 0l-5.9 3.4c-.25.15-.27.37-.05.5l5.64 3.26a1 1 0 0 0 .86-.05Zm-17.25 9.95 5.9-3.4c.25-.15.28-.37.05-.5l-5.64-3.26a1 1 0 0 0-.86 0l-5.9 3.41c-.25.14-.27.37-.05.49l5.65 3.26a.92.92 0 0 0 .87.03Zm34.5-19.91 5.9-3.41c.25-.14.27-.36.05-.49L232.9 348a.94.94 0 0 0-.86 0l-5.9 3.4c-.25.15-.27.37 0 .5l5.65 3.26a1 1 0 0 0 .81-.01Zm-8.63 5 5.9-3.41c.25-.14.28-.37 0-.49l-5.57-3.22a.94.94 0 0 0-.86 0l-5.9 3.4c-.25.15-.27.37-.05.5l5.65 3.26a1 1 0 0 0 .88-.03Zm17.25-10 5.9-3.41c.25-.14.27-.36 0-.49l-5.57-3.22a.94.94 0 0 0-.86 0l-5.9 3.41c-.25.14-.28.36-.05.49l5.64 3.26a1 1 0 0 0 .86.01Zm47.06-69.26a.92.92 0 0 0 .85 0l5.9-3.41c.25-.14.28-.36.05-.49l-1.5-.87a1 1 0 0 0-.86 0l-5.9 3.41c-.25.14-.27.36-.05.49ZM245.4 308a1 1 0 0 0 .85 0l5.9-3.41c.25-.14.28-.37.05-.49l-5.64-3.26a.94.94 0 0 0-.86 0l-5.9 3.4c-.25.15-.27.37 0 .5Zm17.24-10a1 1 0 0 0 .86 0l5.9-3.41c.25-.14.27-.36.05-.49l-5.64-3.26a.94.94 0 0 0-.86 0l-5.9 3.41c-.25.14-.27.36-.05.49Zm-27.77 16a1 1 0 0 0 .85 0l5.9-3.41c.25-.14.28-.37.05-.49l-5.64-3.26a.94.94 0 0 0-.86 0l-5.9 3.4c-.25.15-.27.37 0 .5ZM254 303.07a1 1 0 0 0 .86 0l5.9-3.41c.25-.14.27-.36.05-.49l-5.65-3.26a.92.92 0 0 0-.85 0l-5.9 3.4c-.26.15-.28.37-.06.5Zm-36.4 21a.94.94 0 0 0 .86 0l5.9-3.4c.25-.15.27-.37 0-.5l-5.65-3.26a1 1 0 0 0-.85 0l-5.9 3.41c-.26.15-.28.37-.05.49Zm8.62-5a1 1 0 0 0 .86 0l5.9-3.41c.25-.15.27-.37 0-.5l-5.64-3.25a1 1 0 0 0-.86 0l-5.9 3.41c-.25.15-.27.37 0 .5Zm44.78-28.2a1 1 0 0 0 .86 0l5.9-3.41c.25-.14.27-.36 0-.49l-1.5-.87a.94.94 0 0 0-.86 0l-5.9 3.41c-.25.14-.28.36-.05.49Zm25.87-14.94a.94.94 0 0 0 .86 0l5.9-3.4c.25-.15.27-.37 0-.5l-1.5-.87a1 1 0 0 0-.86 0l-5.9 3.41c-.25.14-.28.37-.05.49Zm11.86 6.85a1 1 0 0 0 .85 0l5.9-3.41c.26-.14.28-.36.06-.49l-5.65-3.26a.94.94 0 0 0-.86 0l-5.9 3.4c-.25.15-.27.37-.05.5Zm16.42 18.91 5.9-3.4c.25-.15.28-.37.05-.5l-5.64-3.26a1 1 0 0 0-.86 0l-5.9 3.41c-.25.14-.27.37-.05.49l5.65 3.26a.92.92 0 0 0 .88 0Zm-45.53-15.8a1 1 0 0 0 .86 0l5.9-3.41c.25-.14.27-.36 0-.49l-1.5-.87a.94.94 0 0 0-.86 0l-5.9 3.41c-.25.14-.27.36-.05.49ZM209 329.06a.92.92 0 0 0 .85 0l5.9-3.4c.25-.15.28-.37 0-.5l-5.64-3.26a1 1 0 0 0-.86 0l-5.9 3.41c-.25.14-.27.36 0 .49Z" style="fill:#263238"/><path style="opacity:.4" d="m234.54 373.54 1.21.69 32.13 18.55 57.14-32.99 1.19-.68-33.34-19.24-58.33 33.67z"/><path style="fill:#b2299f" d="m235.75 374.23 32.13 18.55 57.14-32.99-32.15-18.55-57.12 32.99z"/><path style="opacity:.45" d="m235.75 374.23 32.13 18.55 57.14-32.99-32.15-18.55-57.12 32.99z"/><path d="M69.76 367.52a7.49 7.49 0 0 0 1.63.7 7.45 7.45 0 0 1-1.63-.68 5.39 5.39 0 0 1-.5-.33 5.19 5.19 0 0 0 .5.31ZM79 368l.09-.08-.07.06Z" style="fill:#b2299f"/><path d="m447.6 24.56-127 73.33a4.53 4.53 0 0 0-2.06 3.56v142.2a4.5 4.5 0 0 0 2.07 3.54l3.75 2.12a4.65 4.65 0 0 0 4.13 0l127-73.33a4.54 4.54 0 0 0 2.05-3.56V30.2a4.49 4.49 0 0 0-2.06-3.54l-3.76-2.12a4.63 4.63 0 0 0-4.12.02Z" style="fill:#fafafa"/><path d="M326.43 248.1V105.9a4.54 4.54 0 0 1 2.06-3.56l127-73.34c1.13-.65 2.05-.12 2.05 1.19V172.4a4.54 4.54 0 0 1-2.05 3.56l-127 73.33c-1.14.65-2.06.12-2.06-1.19Z" style="fill:#37474f"/><path d="M328.49 249.29a4.75 4.75 0 0 1-4.13 0l-3.75-2.13a4.45 4.45 0 0 1-2.07-3.53V101.45a4.2 4.2 0 0 1 .66-2.1l7.84 4.53a4.08 4.08 0 0 0-.61 2V248.1c0 1.2.85 1.9 2.06 1.19Z" style="fill:#263238"/><path d="M457.52 29.83c-.16-1-1-1.41-2-.82l-127 73.33a4.15 4.15 0 0 0-1.45 1.54l-7.85-4.53a4 4 0 0 1 1.41-1.46l127-73.33a4.56 4.56 0 0 1 4.12 0l3.75 2.12a4.56 4.56 0 0 1 2.02 3.15Z" style="fill:#455a64"/><path d="M303.07 186.48c-1.29-.77-7.28-4.18-7.59-4.36a1.91 1.91 0 0 1-.41-2.93l23.65-25.37 7.71 4.43-23.64 25.37a1.91 1.91 0 0 0 .28 2.86Z" style="fill:#fafafa"/><path d="M303.07 186.48c-1.29-.77-7.28-4.18-7.59-4.36a1.91 1.91 0 0 1-.41-2.93l23.65-25.37 7.71 4.43-23.64 25.37a1.91 1.91 0 0 0 .28 2.86Z" style="fill:#455a64"/><path d="m326.43 158.25-23.64 25.37a1.9 1.9 0 0 0 1.54 3.19l22.1-1.82Z" style="fill:#fafafa"/><path d="m326.43 158.25-23.64 25.37a1.9 1.9 0 0 0 1.54 3.19l22.1-1.82Z" style="fill:#37474f"/><path d="M398.88 146.75c-1.81-1.09-4.34-1-7.14.66-5.54 3.2-10 11-10 17.38 0 3.18 1.11 5.41 2.91 6.47 1.18.69 5.68 3.27 6.84 4 1.82 1.07 4.33.93 7.12-.68 5.54-3.2 10-11 10-17.38 0-3.16-1.11-5.4-2.9-6.45-1.18-.75-5.71-3.32-6.83-4Z" style="fill:#ebebeb"/><path d="m402.18 171.67-19.79-11.43a17.07 17.07 0 0 0-.68 4.55c0 3.18 1.11 5.41 2.91 6.47 1.18.69 5.68 3.27 6.84 4 1.82 1.07 4.33.93 7.12-.68a17.08 17.08 0 0 0 3.6-2.91Z" style="fill:#e0e0e0"/><path d="M398.57 151.36c-5.54 3.2-10 11-10 17.38s4.5 9 10 5.79 10-11 10-17.38-4.46-8.99-10-5.79Z" style="fill:#fafafa"/><path d="M398.57 155.46a14.35 14.35 0 0 0-6.48 11.23c0 4.13 2.91 5.81 6.49 3.74a14.35 14.35 0 0 0 6.48-11.23c-.01-4.13-2.91-5.8-6.49-3.74Z" style="fill:#37474f"/><path d="M442 137.78c0 .93 0 1.73-.05 2.67L430.62 147l-6.82-3.94v-2.62c0-7.74-1.84-13.93-5-18.3L428 109l6.83 3.94c4.54 5.79 7.17 14.2 7.17 24.84Z" style="fill:#b2299f"/><path d="M442 137.78c0 .94 0 1.73-.05 2.67L430.62 147c0-.76.05-1.86.05-2.62 0-7.73-1.84-13.93-5-18.29l9.15-13.09c4.55 5.73 7.18 14.15 7.18 24.78Z" style="fill:#b2299f"/><path style="opacity:.1" d="m425.64 126.08-6.83-3.94 9.18-13.14 6.83 3.95-9.18 13.13z"/><path d="M430.66 144.37v2.62l-6.82-3.94v-2.62c0-7.74-1.84-13.93-5-18.3l6.83 4c3.16 4.31 4.99 10.51 4.99 18.24Z" style="opacity:.2"/><path d="m432.78 109.72-9.14 13.08-6.83-4-.38-.34a21.18 21.18 0 0 0-9-.58l-6.86-3.88L404 99.39c6.57-1 12.46 0 17.31 2.79l6.68 3.84c.3.17.6.35.89.54l.59.39c.2.13.4.26.59.41s.28.2.41.31A18.56 18.56 0 0 1 432 109c.3.24.54.47.78.72Z" style="fill:#b2299f"/><path d="m423.64 122.8-6.83-4-.37-.33a17.22 17.22 0 0 1 7.2 4.33Z" style="opacity:.2"/><path d="m432.79 109.72-9.15 13.08c-4.08-4-9.7-5.78-16.24-4.87l3.37-14.59c8.87-1.34 16.52.91 22.02 6.38Z" style="fill:#fff;opacity:.2"/><path style="opacity:.1" d="m403.94 99.39 6.83 3.95-3.37 14.59-6.83-3.94 3.37-14.6z"/><path d="m421.26 102.18 6.68 3.84c-4.82-2.74-10.66-3.7-17.17-2.69L404 99.39c6.52-1.02 12.41-.02 17.26 2.79Z" style="fill:#fff;opacity:.5"/><path d="m407.48 104-3.37 14.57a38.7 38.7 0 0 0-9.5 4 58 58 0 0 0-9.55 7l-6.82-4-3.31-10.79a75.8 75.8 0 0 1 12.77-9.39 50.89 50.89 0 0 1 12.95-5.41Z" style="fill:#b2299f"/><path style="opacity:.05" d="m374.93 114.87 6.83 3.95 3.3 10.79-6.82-3.94-3.31-10.8z"/><path d="M407.48 104a50.48 50.48 0 0 0-13 5.4 76.92 76.92 0 0 0-12.77 9.39l-6.83-3.94a75.8 75.8 0 0 1 12.77-9.39 50.89 50.89 0 0 1 12.95-5.41Z" style="fill:#fff;opacity:.6000000000000001"/><path d="m407.48 104-3.36 14.57a38.44 38.44 0 0 0-9.5 4 57.63 57.63 0 0 0-9.55 7l-3.31-10.79a75.8 75.8 0 0 1 12.77-9.39 50.53 50.53 0 0 1 12.95-5.39Z" style="fill:#fff;opacity:.4"/><path d="M381.85 132.67a85.15 85.15 0 0 0-15.33 21.72l-8.92-3.23-6.83-3.95a112.06 112.06 0 0 1 20.93-29.3l6.83 4Z" style="fill:#b2299f"/><path d="M378.53 121.86a111.73 111.73 0 0 0-20.93 29.3l-6.83-3.95a112.06 112.06 0 0 1 20.93-29.3Z" style="fill:#fff;opacity:.7000000000000001"/><path d="M381.85 132.67a85.21 85.21 0 0 0-15.33 21.73l-8.92-3.24a111.73 111.73 0 0 1 20.93-29.3Z" style="fill:#fff;opacity:.6000000000000001"/><path d="M364.46 158.82c-3.59 8.41-5.73 16.68-5.86 24.86l-11.51 6.65-6.83-4c.22-11.22 3.3-23.28 8.42-34.74l9 3.24Z" style="fill:#b2299f"/><path style="fill:#fff;opacity:.6000000000000001" d="m355.51 155.58-6.83-3.94 8.96 3.24 6.83 3.94-8.96-3.24z"/><path d="M355.51 155.58c-5.13 11.47-8.2 23.52-8.42 34.75l-6.83-4c.22-11.22 3.3-23.28 8.42-34.74Z" style="fill:#fff;opacity:.9"/><path d="M364.47 158.82c-3.6 8.4-5.74 16.68-5.88 24.86l-11.5 6.64c.22-11.22 3.29-23.28 8.42-34.75Z" style="fill:#fff;opacity:.75"/><path style="fill:#e0e0e0" d="m436.63 132.43-1.81-1.02-49.29 38.25.15 7.32 1.81 1.02 49.14-45.57z"/><path style="fill:#ebebeb" d="m387.49 178-.14-7.32 49.28-38.25L387.49 178z"/><path style="fill:#fff" d="m385.53 169.66 1.82 1.02 49.28-38.25-1.81-1.02-49.29 38.25z"/></svg>