<svg xmlns="http://www.w3.org/2000/svg" viewBox="0 0 500 500"><path d="M471 238.3c-4.94 41.8-24 90.4-62.14 112.73-57.6 33.74-52.78 85.63-165.2 108.2a230.54 230.54 0 0 1-49.84 4.7 191.28 191.28 0 0 1-24.47-2c-71.44-10.44-119.53-60.1-137.17-120C9 263 55.33 211.42 86.06 180.32s53.22-128 163.56-151a224.36 224.36 0 0 1 51.23-4.86c39.26 1 82.08 13.85 111.71 40.76q3.35 3 6.5 6.27c41.18 42.23 58.68 109.82 51.94 166.81Z" style="fill:#b2299f"/><path d="M471 238.3c-4.94 41.8-24 90.4-62.14 112.73-57.6 33.74-52.78 85.63-165.2 108.2a230.54 230.54 0 0 1-49.84 4.7 191.28 191.28 0 0 1-24.47-2c-71.44-10.44-119.53-60.1-137.17-120C9 263 55.33 211.42 86.06 180.32s53.22-128 163.56-151a224.36 224.36 0 0 1 51.23-4.86c39.26 1 82.08 13.85 111.71 40.76q3.35 3 6.5 6.27c41.18 42.23 58.68 109.82 51.94 166.81Z" style="fill:#fff;opacity:.7000000000000001"/><path d="M479 283.43h-15.21a.5.5 0 0 1-.5-.5.5.5 0 0 1 .5-.5H479a.5.5 0 0 1 .5.5.51.51 0 0 1-.5.5ZM457 283.43H22.6a.5.5 0 0 1-.5-.5.5.5 0 0 1 .5-.5H457a.5.5 0 0 1 .5.5.51.51 0 0 1-.5.5ZM410.37 196.71h-8.7l-1.08-7.6a27.52 27.52 0 0 1-10-4.18l-6.12 4.59-6.15-6.15 4.61-6.14a27.57 27.57 0 0 1-4.12-10l-7.57-1.09v-8.69l7.6-1.09a27.48 27.48 0 0 1 4.18-10l-4.59-6.12 6.15-6.15 6.14 4.61a27.4 27.4 0 0 1 10-4.12l1.09-7.57h8.69l1.09 7.6a27.48 27.48 0 0 1 10 4.18l6.12-4.59 6.15 6.15-4.61 6.14a27.26 27.26 0 0 1 4.12 10l7.57 1.08v8.7l-7.6 1.09a27.55 27.55 0 0 1-4.18 10l4.59 6.12-6.15 6.15-6.12-4.63a27.43 27.43 0 0 1-10 4.12Zm-7.83-1h7l1.06-7.42.36-.07a26.57 26.57 0 0 0 10.25-4.22l.3-.21 6 4.52 4.92-4.93-4.5-6 .21-.29a26.61 26.61 0 0 0 4.29-10.27l.06-.35 7.51-1.07v-7l-7.42-1.06-.07-.36a26.35 26.35 0 0 0-4.22-10.29l-.2-.3 4.51-6-4.92-4.92-6 4.5-.3-.21a26.61 26.61 0 0 0-10.27-4.29l-.35-.06-1.11-7.41h-7l-1.06 7.42-.35.07a26.46 26.46 0 0 0-10.3 4.22l-.3.2-6-4.51-4.92 4.92 4.5 6-.2.3a26.46 26.46 0 0 0-4.29 10.27l-.07.35-7.45 1.07v7l7.42 1.06.07.35A26.42 26.42 0 0 0 384 177l.2.3-4.52 6 4.93 4.92 6-4.5.29.2a26.31 26.31 0 0 0 10.27 4.29l.35.07Zm3.56-14.39a19.48 19.48 0 1 1 19.48-19.48 19.5 19.5 0 0 1-19.48 19.48Zm0-37.95a18.48 18.48 0 1 0 18.48 18.47 18.49 18.49 0 0 0-18.48-18.47Z" style="fill:#263238"/><path d="M440.76 234.77h-6.46l-.78-5.46a19.89 19.89 0 0 1-7-2.94l-4.39 3.3-4.57-4.57 3.31-4.42a19.51 19.51 0 0 1-2.89-7l-5.44-.77v-6.51l5.46-.78a19.74 19.74 0 0 1 2.93-7l-3.29-4.4 4.57-4.57 4.41 3.31a19.76 19.76 0 0 1 7-2.89l.78-5.44h6.46l.78 5.46a19.93 19.93 0 0 1 7 2.93l4.4-3.29 4.57 4.57-3.31 4.41a19.65 19.65 0 0 1 2.89 7l5.44.78V213l-5.46.78a19.82 19.82 0 0 1-2.93 7l3.29 4.39-4.53 4.58-4.41-3.31a19.94 19.94 0 0 1-7 2.89Zm-5.6-1h4.74l.75-5.29.36-.07a18.81 18.81 0 0 0 7.3-3l.3-.2 4.29 3.22 3.34-3.35-3.2-4.27.2-.3a18.77 18.77 0 0 0 3.05-7.29l.06-.35 5.31-.76v-4.73l-5.29-.76-.06-.35a18.86 18.86 0 0 0-3-7.31l-.2-.3 3.21-4.28L453 191l-4.28 3.2-.3-.2a18.82 18.82 0 0 0-7.28-3.05l-.36-.06-.75-5.31h-4.74l-.75 5.29-.36.07a18.51 18.51 0 0 0-7.3 3l-.3.2-4.31-3.14-3.34 3.35 3.2 4.27-.2.3a18.86 18.86 0 0 0-3.05 7.29l-.06.35-5.31.76V212l5.29.76.06.35a18.86 18.86 0 0 0 3 7.31l.2.29-3.21 4.29 3.34 3.35 4.28-3.21.29.21a18.9 18.9 0 0 0 7.29 3l.36.07Zm2.43-10a14.07 14.07 0 1 1 14.07-14.07 14.09 14.09 0 0 1-14.07 14.06Zm0-27.14a13.07 13.07 0 1 0 13.07 13.07 13.09 13.09 0 0 0-13.07-13.08ZM101.81 244.19h-8l-1-6.94a25.13 25.13 0 0 1-9.09-3.8l-5.59 4.19-5.66-5.64 4.2-5.61a25.36 25.36 0 0 1-3.74-9.11l-6.91-1v-8l6.94-1a25.16 25.16 0 0 1 3.8-9.08l-4.19-5.59 5.66-5.67 5.61 4.21a25.18 25.18 0 0 1 9.16-3.76l1-6.92h8l1 6.95a25.07 25.07 0 0 1 9.08 3.79l5.59-4.19 5.67 5.67-4.21 5.61a25.11 25.11 0 0 1 3.74 9.11l6.92 1v8l-7 1a25.11 25.11 0 0 1-3.79 9.09l4.19 5.59-5.67 5.66-5.61-4.2a25 25 0 0 1-9.11 3.74Zm-7.14-1H101l1-6.77.36-.06a24.14 24.14 0 0 0 9.38-3.85l.29-.2 5.49 4.11 4.44-4.43-4.1-5.47.2-.3a24.1 24.1 0 0 0 3.91-9.36l.07-.35 6.79-1v-6.27l-6.77-1-.07-.36a24.14 24.14 0 0 0-3.85-9.38l-.2-.29 4.12-5.49-4.44-4.44-5.47 4.1-.3-.2a24.21 24.21 0 0 0-9.35-3.91l-.35-.06-1-6.8h-6.34l-1 6.77-.35.07a24.08 24.08 0 0 0-9.38 3.85l-.3.2-5.49-4.12-4.43 4.44 4.1 5.47-.21.3a24 24 0 0 0-3.9 9.35l-.07.35-6.79 1v6.28l6.77 1 .06.35a24.17 24.17 0 0 0 3.85 9.38l.2.3-4.11 5.49 4.44 4.43 5.47-4.1.29.21a24.08 24.08 0 0 0 9.36 3.9l.35.07Zm3.21-13a17.82 17.82 0 1 1 17.81-17.82 17.84 17.84 0 0 1-17.81 17.78Zm0-34.63a16.82 16.82 0 1 0 16.81 16.81 16.83 16.83 0 0 0-16.81-16.85Z" style="fill:#263238"/><path d="M70.55 191.66h-5.23l-.61-4.27a15.43 15.43 0 0 1-5.36-2.24l-3.44 2.58-3.69-3.73 2.58-3.45a15.4 15.4 0 0 1-2.2-5.37l-4.25-.61v-5.23l4.26-.61a15.63 15.63 0 0 1 2.24-5.36L52.28 160l3.69-3.7 3.45 2.59a15.47 15.47 0 0 1 5.38-2.21l.61-4.25h5.22l.61 4.27a15.43 15.43 0 0 1 5.36 2.24l3.4-2.61 3.69 3.7-2.58 3.45a15.62 15.62 0 0 1 2.21 5.37l4.25.61v5.22l-4.27.61a15.6 15.6 0 0 1-2.24 5.37l2.57 3.43-3.63 3.7-3.45-2.59a15.67 15.67 0 0 1-5.38 2.21Zm-4.36-1h3.49l.58-4.1.36-.07a14.56 14.56 0 0 0 5.64-2.31l.3-.21 3.32 2.5 2.47-2.47-2.48-3.31.2-.3a14.5 14.5 0 0 0 2.35-5.63l.07-.35 4.12-.59v-3.49l-4.11-.59-.06-.35a14.53 14.53 0 0 0-2.32-5.65l-.2-.3 2.49-3.32-2.47-2.47-3.31 2.49-.3-.21a14.44 14.44 0 0 0-5.63-2.35l-.35-.07-.59-4.11h-3.49l-.58 4.1-.36.07a14.56 14.56 0 0 0-5.64 2.31l-.3.2-3.32-2.49-2.47 2.47 2.48 3.31-.2.3a14.5 14.5 0 0 0-2.35 5.63l-.07.35-4.11.59v3.49l4.1.59.06.35a14.53 14.53 0 0 0 2.32 5.65l.2.29-2.49 3.33 2.46 2.47 3.31-2.49.3.21a14.44 14.44 0 0 0 5.63 2.35l.35.06Zm1.81-7.57A11.06 11.06 0 1 1 79 172a11.08 11.08 0 0 1-11 11.09ZM68 162a10.06 10.06 0 1 0 10 10 10.08 10.08 0 0 0-10-10ZM246.33 120.12h-6.85l-.83-5.83a21.15 21.15 0 0 1-7.54-3.15l-4.69 3.52-4.85-4.85 3.54-4.71a20.94 20.94 0 0 1-3.11-7.55l-5.8-.83v-6.86L222 89a21.13 21.13 0 0 1 3.14-7.54l-3.51-4.69L226.5 72l4.71 3.53a21 21 0 0 1 7.56-3.1l.83-5.81h6.85l.83 5.83a21 21 0 0 1 7.54 3.15l4.69-3.6 4.85 4.84-3.53 4.71a21.22 21.22 0 0 1 3.1 7.56l5.8.83v6.85l-5.83.84a21.16 21.16 0 0 1-3.14 7.53l3.52 4.7-4.85 4.84-4.71-3.53a21.08 21.08 0 0 1-7.56 3.1Zm-6-1h5.11l.81-5.66.36-.06a20.16 20.16 0 0 0 7.82-3.22l.3-.2 4.59 3.44 3.68-3.62-3.42-4.57.2-.3a20.05 20.05 0 0 0 3.26-7.8l.07-.35 5.67-.81v-5.12l-5.7-.85-.07-.35a20.09 20.09 0 0 0-3.21-7.83l-.2-.3L263 77l-3.62-3.62-4.57 3.43-.3-.21a20.27 20.27 0 0 0-7.8-3.26l-.36-.06-.81-5.68h-5.11l-.81 5.66-.36.06a20.2 20.2 0 0 0-7.82 3.21l-.3.21-4.59-3.44-3.55 3.59 3.42 4.58-.2.29a20.25 20.25 0 0 0-3.26 7.81l-.07.35-5.67.81v5.12l5.65.81.07.35a20.09 20.09 0 0 0 3.21 7.83l.2.29-3.44 4.59 3.62 3.62 4.57-3.43.3.2a20 20 0 0 0 7.8 3.26l.36.07Zm2.67-10.77a15 15 0 1 1 15-15 15 15 0 0 1-15 15Zm0-29a14 14 0 1 0 14 14 14 14 0 0 0-14-14.01Z" style="fill:#263238"/><path d="M114.91 90H390a8 8 0 0 1 8 8v191.41H107V98a8 8 0 0 1 7.91-8Z" style="fill:#263238"/><path d="M398 289.91H107a.5.5 0 0 1-.5-.5V98a8.47 8.47 0 0 1 8.47-8.47H390a8.48 8.48 0 0 1 8.48 8.47v191.41a.5.5 0 0 1-.48.5Zm-290.54-1h290V98a7.48 7.48 0 0 0-7.46-7.5H114.91a7.48 7.48 0 0 0-7.47 7.5Z" style="fill:#263238"/><path style="fill:#fff" d="M441.63 377.57H63.28l43.66-88.16h291.04l43.65 88.16z"/><path d="M441.63 378.07H63.28a.52.52 0 0 1-.43-.24.48.48 0 0 1 0-.48l43.66-88.16a.5.5 0 0 1 .45-.28H398a.49.49 0 0 1 .44.28l43.66 88.16a.48.48 0 0 1 0 .48.51.51 0 0 1-.47.24Zm-377.55-1h376.75l-43.16-87.16H107.25Z" style="fill:#263238"/><path style="fill:#b2299f" d="M124.56 105.79h255.78v167.84H124.56z"/><path d="M380.35 274.12H124.56a.5.5 0 0 1-.5-.5V105.79a.5.5 0 0 1 .5-.5h255.79a.5.5 0 0 1 .5.5v167.83a.5.5 0 0 1-.5.5Zm-255.29-1h254.79V106.29H125.06ZM240.31 317.32l.51-10.74h-15.38l-1.02 10.74h15.89z" style="fill:#263238"/><path d="M240.32 317.82h-15.9a.52.52 0 0 1-.37-.16.51.51 0 0 1-.12-.39l1-10.74a.5.5 0 0 1 .5-.45h15.38a.48.48 0 0 1 .36.15.47.47 0 0 1 .14.37l-.51 10.74a.5.5 0 0 1-.48.48Zm-15.35-1h14.87l.46-9.74h-14.4Z" style="fill:#fff"/><path style="fill:#263238" d="m272.1 317.32-.53-10.74H256.2l.01 10.74h15.89z"/><path d="M272.1 317.82h-15.89a.5.5 0 0 1-.5-.5v-10.74a.48.48 0 0 1 .5-.5h15.38a.49.49 0 0 1 .49.47l.53 10.74a.47.47 0 0 1-.14.37.48.48 0 0 1-.37.16Zm-15.39-1h14.86l-.47-9.74h-14.4Z" style="fill:#fff"/><path style="fill:#263238" d="M354.87 328.8h16.44l-3.86-11.48h-15.89l3.31 11.48z"/><path d="M371.31 329.3h-16.44a.49.49 0 0 1-.48-.36l-3.31-11.48a.53.53 0 0 1 .08-.44.49.49 0 0 1 .4-.2h15.89a.51.51 0 0 1 .48.34l3.86 11.48a.54.54 0 0 1-.07.46.5.5 0 0 1-.41.2Zm-16.06-1h15.37l-3.53-10.48h-14.87Z" style="fill:#fff"/><path style="fill:#263238" d="m224.42 317.32 1.02-10.74h-15.38l-1.53 10.74h15.89z"/><path d="M224.42 317.82h-15.89a.52.52 0 0 1-.38-.17.49.49 0 0 1-.11-.4l1.53-10.74a.49.49 0 0 1 .49-.43h15.38a.51.51 0 0 1 .37.16.48.48 0 0 1 .13.38l-1 10.75a.5.5 0 0 1-.52.45Zm-15.31-1H224l.92-9.74H210.5Z" style="fill:#fff"/><path style="fill:#263238" d="m192.64 317.32 2.05-10.74h-15.38l-2.56 10.74h15.89z"/><path d="M192.64 317.82h-15.89a.51.51 0 0 1-.4-.19.51.51 0 0 1-.09-.43l2.56-10.74a.5.5 0 0 1 .49-.38h15.38a.48.48 0 0 1 .38.18.5.5 0 0 1 .11.41l-2.05 10.74a.49.49 0 0 1-.49.41Zm-15.26-1h14.85l1.85-9.74H179.7Z" style="fill:#fff"/><path style="fill:#263238" d="m335.67 317.32-2.58-10.74h-15.38l2.07 10.74h15.89z"/><path d="M335.67 317.82h-15.89a.49.49 0 0 1-.49-.41l-2.07-10.74a.49.49 0 0 1 .49-.59h15.38a.48.48 0 0 1 .48.38l2.59 10.74a.51.51 0 0 1-.1.43.49.49 0 0 1-.39.19Zm-15.48-1H335l-2.34-9.74h-14.35Z" style="fill:#fff"/><path style="fill:#263238" d="m351.56 317.32-3.1-10.74h-15.37l2.58 10.74h15.89z"/><path d="M351.56 317.82h-15.89a.51.51 0 0 1-.49-.38l-2.58-10.75a.52.52 0 0 1 .09-.42.51.51 0 0 1 .4-.19h15.37a.5.5 0 0 1 .49.36l3.05 10.74a.5.5 0 0 1-.08.44.51.51 0 0 1-.36.2Zm-15.5-1h14.84l-2.81-9.74h-14.37Z" style="fill:#fff"/><path style="fill:#263238" d="m176.75 317.32 2.56-10.74h-15.38l-3.08 10.74h15.9z"/><path d="M176.75 317.82h-15.9a.51.51 0 0 1-.4-.2.53.53 0 0 1-.08-.44l3.08-10.74a.49.49 0 0 1 .48-.36h15.38a.51.51 0 0 1 .39.19.49.49 0 0 1 .09.42l-2.56 10.74a.49.49 0 0 1-.48.39Zm-15.23-1h14.83l2.32-9.74h-14.36Z" style="fill:#fff"/><path style="fill:#263238" d="m287.99 317.32-1.04-10.74h-15.38l.53 10.74h15.89z"/><path d="M288 317.82h-15.9a.5.5 0 0 1-.5-.48l-.52-10.74a.5.5 0 0 1 .13-.37.51.51 0 0 1 .37-.15H287a.49.49 0 0 1 .5.45l1 10.74a.51.51 0 0 1-.5.55Zm-15.41-1h14.86l-.94-9.74H272.1Z" style="fill:#fff"/><path style="fill:#263238" d="m367.45 317.32-3.61-10.74h-15.38l3.1 10.74h15.89z"/><path d="M367.45 317.82h-15.89a.5.5 0 0 1-.48-.36L348 306.71a.51.51 0 0 1 .48-.63h15.38a.5.5 0 0 1 .48.34l3.61 10.74a.52.52 0 0 1-.07.45.51.51 0 0 1-.43.21Zm-15.51-1h14.82l-3.28-9.74h-14.35Z" style="fill:#fff"/><path style="fill:#263238" d="m319.78 317.32-2.07-10.74h-15.38l1.55 10.74h15.9z"/><path d="M319.78 317.82h-15.9a.5.5 0 0 1-.49-.43l-1.55-10.74a.49.49 0 0 1 .49-.57h15.38a.5.5 0 0 1 .49.4l2.07 10.74a.51.51 0 0 1-.49.6Zm-15.46-1h14.85l-1.87-9.74h-14.39Z" style="fill:#fff"/><path style="fill:#263238" d="m303.88 317.32-1.55-10.74h-15.38l1.04 10.74h15.89z"/><path d="M303.88 317.82H288a.51.51 0 0 1-.5-.45l-1-10.75a.47.47 0 0 1 .12-.38.52.52 0 0 1 .37-.16h15.38a.51.51 0 0 1 .5.42l1.55 10.75a.49.49 0 0 1-.12.4.52.52 0 0 1-.42.17Zm-15.43-1h14.86l-1.41-9.74h-14.4Z" style="fill:#fff"/><path style="fill:#263238" d="m256.21 317.32-.01-10.74h-15.38l-.51 10.74h15.9z"/><path d="M256.21 317.82h-15.89a.52.52 0 0 1-.37-.16.5.5 0 0 1-.13-.37l.5-10.74a.5.5 0 0 1 .5-.47h15.38a.5.5 0 0 1 .5.5v10.74a.51.51 0 0 1-.15.35.47.47 0 0 1-.34.15Zm-15.37-1h14.87v-9.74H241.3Z" style="fill:#fff"/><path style="fill:#263238" d="M144.96 317.32h-15.89l-4.39 11.48h16.44l3.84-11.48z"/><path d="M141.12 329.3h-16.44a.51.51 0 0 1-.41-.21.56.56 0 0 1-.06-.47l4.39-11.48a.51.51 0 0 1 .47-.32H145a.52.52 0 0 1 .41.21.51.51 0 0 1 .07.45L141.6 329a.5.5 0 0 1-.48.3Zm-15.71-1h15.35l3.51-10.48h-14.86Z" style="fill:#fff"/><path style="fill:#263238" d="M148.55 306.58h-15.38l-4.1 10.74h15.89l3.59-10.74z"/><path d="M145 317.82h-15.93a.49.49 0 0 1-.41-.22.48.48 0 0 1-.06-.46l4.11-10.74a.48.48 0 0 1 .46-.32h15.38a.49.49 0 0 1 .48.65l-3.59 10.75a.51.51 0 0 1-.44.34Zm-15.16-1h14.8l3.26-9.74h-14.38Z" style="fill:#fff"/><path style="fill:#263238" d="m160.85 317.32 3.08-10.74h-15.38l-3.59 10.74h15.89z"/><path d="M160.85 317.82H145a.5.5 0 0 1-.47-.66l3.59-10.74a.49.49 0 0 1 .47-.34h15.38a.49.49 0 0 1 .4.2.5.5 0 0 1 .08.43l-3.08 10.75a.5.5 0 0 1-.52.36Zm-15.19-1h14.82l2.79-9.74h-14.36Z" style="fill:#fff"/><path style="fill:#263238" d="m119.98 341.11-5.05 13.23h17.66l4.42-13.23h-17.03z"/><path d="M132.59 354.84h-17.66a.54.54 0 0 1-.42-.22.5.5 0 0 1-.05-.46l5.05-13.23a.51.51 0 0 1 .47-.32h17a.52.52 0 0 1 .41.21.48.48 0 0 1 .06.45l-4.41 13.22a.5.5 0 0 1-.45.35Zm-16.94-1h16.58l4.09-12.23h-16Z" style="fill:#fff"/><path style="fill:#263238" d="M141.12 328.8h-16.44l-4.7 12.31h17.03l4.11-12.31z"/><path d="M137 341.61h-17a.5.5 0 0 1-.47-.68l4.7-12.31a.51.51 0 0 1 .47-.32h16.44a.52.52 0 0 1 .41.21.52.52 0 0 1 .07.45l-4.12 12.31a.5.5 0 0 1-.5.34Zm-16.31-1h16l3.78-11.31H125Z" style="fill:#fff"/><path style="fill:#263238" d="m137.01 341.11-4.42 13.23h17.66l3.79-13.23h-17.03z"/><path d="M150.26 354.84h-17.67a.5.5 0 0 1-.47-.66l4.42-13.18a.5.5 0 0 1 .47-.34h17a.51.51 0 0 1 .4.2.5.5 0 0 1 .08.44l-3.78 13.22a.51.51 0 0 1-.45.32Zm-17-1h16.59l3.5-12.23h-16Z" style="fill:#fff"/><path style="fill:#263238" d="m208.53 317.32 1.53-10.74h-15.37l-2.05 10.74h15.89z"/><path d="M208.53 317.82h-15.89a.53.53 0 0 1-.39-.18.53.53 0 0 1-.1-.42l2-10.74a.51.51 0 0 1 .5-.4h15.37a.5.5 0 0 1 .5.57L209 317.39a.51.51 0 0 1-.47.43Zm-15.29-1h14.86l1.39-9.74H195.1Z" style="fill:#fff"/><path style="fill:#263238" d="m206.89 328.8 1.64-11.48h-15.89l-2.19 11.48h16.44z"/><path d="M206.89 329.3h-16.44a.49.49 0 0 1-.49-.59l2.19-11.49a.49.49 0 0 1 .49-.4h15.89a.5.5 0 0 1 .38.17.53.53 0 0 1 .12.4l-1.64 11.48a.51.51 0 0 1-.5.43Zm-15.84-1h15.41l1.54-10.48h-14.9Z" style="fill:#fff"/><path style="fill:#263238" d="m190.45 328.8 2.19-11.48h-15.89l-2.74 11.48h16.44z"/><path d="M190.45 329.3H174a.51.51 0 0 1-.4-.19.52.52 0 0 1-.09-.42l2.74-11.49a.5.5 0 0 1 .49-.38h15.89a.46.46 0 0 1 .38.18.48.48 0 0 1 .11.41l-2.19 11.49a.49.49 0 0 1-.48.4Zm-15.81-1H190l2-10.48h-14.86Z" style="fill:#fff"/><path style="fill:#263238" d="m223.33 328.8 1.09-11.48h-15.89l-1.64 11.48h16.44z"/><path d="M223.33 329.3h-16.44a.49.49 0 0 1-.49-.57l1.6-11.48a.49.49 0 0 1 .49-.43h15.89a.51.51 0 0 1 .37.16.52.52 0 0 1 .13.39l-1.09 11.48a.49.49 0 0 1-.46.45Zm-15.86-1h15.41l1-10.48H209Z" style="fill:#fff"/><path style="fill:#263238" d="M160.85 317.32h-15.89l-3.84 11.48h16.45l3.28-11.48z"/><path d="M157.57 329.3h-16.45a.48.48 0 0 1-.4-.2.49.49 0 0 1-.07-.45l3.84-11.49a.51.51 0 0 1 .47-.34h15.89a.48.48 0 0 1 .4.2.46.46 0 0 1 .08.44l-3.28 11.48a.5.5 0 0 1-.48.36Zm-15.75-1h15.37l3-10.48h-14.87Z" style="fill:#fff"/><path style="fill:#263238" d="M358.42 341.11h17.03l-4.14-12.31h-16.44l3.55 12.31z"/><path d="M375.45 341.61h-17a.5.5 0 0 1-.48-.36l-3.55-12.31a.53.53 0 0 1 .08-.44.52.52 0 0 1 .4-.2h16.44a.51.51 0 0 1 .48.34l4.1 12.36a.48.48 0 0 1-.07.45.46.46 0 0 1-.4.16Zm-16.66-1h16L371 329.3h-15.47Z" style="fill:#fff"/><path style="fill:#263238" d="m174.01 328.8 2.74-11.48h-15.9l-3.28 11.48h16.44z"/><path d="M174 329.3h-16.43a.48.48 0 0 1-.4-.2.45.45 0 0 1-.08-.43l3.28-11.49a.5.5 0 0 1 .48-.36h15.9a.51.51 0 0 1 .39.19.49.49 0 0 1 .09.42l-2.74 11.49a.49.49 0 0 1-.49.38Zm-15.78-1h15.38l2.5-10.48h-14.87Z" style="fill:#fff"/><path style="fill:#263238" d="m141.12 328.8-4.11 12.31h17.03l3.53-12.31h-16.45z"/><path d="M154 341.61h-17a.49.49 0 0 1-.41-.21.48.48 0 0 1-.06-.45l4.11-12.3a.5.5 0 0 1 .47-.35h16.45a.51.51 0 0 1 .48.64l-3.53 12.31a.5.5 0 0 1-.51.36Zm-16.34-1h16l3.24-11.31h-15.42Z" style="fill:#fff"/><path style="fill:#263238" d="m321.99 328.8-2.21-11.48h-15.9l1.66 11.48h16.45z"/><path d="M322 329.3h-16.46a.5.5 0 0 1-.49-.42l-1.66-11.49a.49.49 0 0 1 .12-.4.48.48 0 0 1 .37-.17h15.9a.5.5 0 0 1 .49.4l2.21 11.49a.5.5 0 0 1-.49.59Zm-16-1h15.4l-2-10.48h-14.9Z" style="fill:#fff"/><path style="fill:#263238" d="m305.54 328.8-1.66-11.48h-15.89l1.11 11.48h16.44z"/><path d="M305.54 329.3H289.1a.5.5 0 0 1-.5-.45l-1.11-11.48a.56.56 0 0 1 .13-.39.52.52 0 0 1 .37-.16h15.89a.51.51 0 0 1 .5.43l1.62 11.48a.5.5 0 0 1-.5.57Zm-16-1H305l-1.52-10.48h-14.94Z" style="fill:#fff"/><path style="fill:#263238" d="m354.87 328.8-3.31-11.48h-15.89l2.76 11.48h16.44z"/><path d="M354.87 329.3h-16.44a.5.5 0 0 1-.49-.38l-2.76-11.48a.51.51 0 0 1 .1-.43.49.49 0 0 1 .39-.19h15.89a.5.5 0 0 1 .48.36l3.31 11.49a.5.5 0 0 1-.08.43.49.49 0 0 1-.4.2Zm-16.05-1h15.39l-3-10.48H336.3Z" style="fill:#fff"/><path style="fill:#263238" d="m256.22 328.8-.01-11.48h-15.9l-.53 11.48h16.44z"/><path d="M256.22 329.3h-16.44a.51.51 0 0 1-.37-.15.5.5 0 0 1-.13-.37l.54-11.49a.5.5 0 0 1 .5-.47h15.89a.5.5 0 0 1 .5.5v11.48a.49.49 0 0 1-.15.36.5.5 0 0 1-.34.14Zm-15.92-1h15.42v-10.48h-14.93Z" style="fill:#fff"/><path style="fill:#263238" d="m289.1 328.8-1.11-11.48H272.1l.56 11.48h16.44z"/><path d="M289.1 329.3h-16.44a.5.5 0 0 1-.5-.47l-.56-11.49a.48.48 0 0 1 .14-.37.48.48 0 0 1 .36-.15H288a.5.5 0 0 1 .5.45l1.11 11.49a.48.48 0 0 1-.13.38.51.51 0 0 1-.38.16Zm-16-1h15.41l-1-10.48h-14.89Z" style="fill:#fff"/><path style="fill:#263238" d="m272.66 328.8-.56-11.48h-15.89l.01 11.48h16.44z"/><path d="M272.66 329.3h-16.44a.5.5 0 0 1-.5-.5v-11.48a.54.54 0 0 1 .14-.36.52.52 0 0 1 .36-.14h15.88a.5.5 0 0 1 .5.47l.56 11.49a.47.47 0 0 1-.14.37.48.48 0 0 1-.36.15Zm-15.94-1h15.42l-.52-10.48h-14.91Z" style="fill:#fff"/><path style="fill:#263238" d="m239.78 328.8.53-11.48h-15.89l-1.09 11.48h16.45z"/><path d="M239.78 329.3h-16.45a.52.52 0 0 1-.37-.16.47.47 0 0 1-.12-.38l1.09-11.49a.49.49 0 0 1 .49-.45h15.9a.48.48 0 0 1 .49.52l-.53 11.49a.51.51 0 0 1-.5.47Zm-15.9-1h15.42l.49-10.48h-14.91Z" style="fill:#fff"/><path style="fill:#263238" d="m289.1 328.8 1.19 12.31h17.03l-1.78-12.31H289.1z"/><path d="M307.32 341.61h-17a.5.5 0 0 1-.5-.45l-1.19-12.31a.52.52 0 0 1 .13-.38.5.5 0 0 1 .37-.17h16.44a.51.51 0 0 1 .5.43l1.75 12.27a.49.49 0 0 1-.12.4.49.49 0 0 1-.38.21Zm-16.57-1h16l-1.64-11.31h-15.46Z" style="fill:#fff"/><path style="fill:#263238" d="m305.54 328.8 1.78 12.31h17.04l-2.37-12.31h-16.45z"/><path d="M324.35 341.61h-17a.49.49 0 0 1-.49-.43l-1.78-12.3a.48.48 0 0 1 .12-.4.49.49 0 0 1 .37-.18H322a.5.5 0 0 1 .49.41l2.36 12.29a.51.51 0 0 1-.11.41.5.5 0 0 1-.39.2Zm-16.59-1h16l-2.18-11.31h-15.46Z" style="fill:#fff"/><path style="fill:#263238" d="m157.57 328.8-3.53 12.31h17.03l2.94-12.31h-16.44z"/><path d="M171.07 341.61H154a.49.49 0 0 1-.4-.2.52.52 0 0 1-.08-.44l3.53-12.3a.49.49 0 0 1 .48-.37H174a.5.5 0 0 1 .48.62l-2.93 12.31a.5.5 0 0 1-.48.38Zm-16.37-1h16l2.69-11.31h-15.45Z" style="fill:#fff"/><path style="fill:#263238" d="m321.99 328.8 2.37 12.31h17.03l-2.96-12.31h-16.44z"/><path d="M341.39 341.61h-17a.51.51 0 0 1-.49-.4l-2.4-12.31a.49.49 0 0 1 .1-.41.51.51 0 0 1 .39-.19h16.44a.49.49 0 0 1 .48.39l3 12.31a.49.49 0 0 1-.09.42.51.51 0 0 1-.43.19Zm-16.62-1h16L338 329.3h-15.41Z" style="fill:#fff"/><path style="fill:#263238" d="m256.22 328.8.01 12.31h17.03l-.6-12.31h-16.44z"/><path d="M273.26 341.61h-17a.5.5 0 0 1-.5-.5V328.8a.5.5 0 0 1 .14-.35.55.55 0 0 1 .36-.15h16.44a.5.5 0 0 1 .5.48l.6 12.31a.48.48 0 0 1-.14.37.48.48 0 0 1-.4.15Zm-16.53-1h16l-.56-11.31h-15.45Z" style="fill:#fff"/><path style="fill:#263238" d="m338.43 328.8 2.96 12.31h17.03l-3.55-12.31h-16.44z"/><path d="M358.42 341.61h-17a.5.5 0 0 1-.49-.38l-3-12.31a.51.51 0 0 1 .1-.43.48.48 0 0 1 .39-.19h16.44a.5.5 0 0 1 .48.37L358.9 341a.53.53 0 0 1-.08.44.51.51 0 0 1-.4.17Zm-16.64-1h16l-3.26-11.31h-15.46Z" style="fill:#fff"/><path style="fill:#263238" d="m272.66 328.8.6 12.31h17.03l-1.19-12.31h-16.44z"/><path d="M290.29 341.61h-17a.5.5 0 0 1-.5-.47l-.6-12.31a.47.47 0 0 1 .14-.37.48.48 0 0 1 .36-.16h16.41a.5.5 0 0 1 .5.46l1.19 12.3a.52.52 0 0 1-.13.39.51.51 0 0 1-.37.16Zm-16.55-1h16l-1.09-11.31h-15.46Z" style="fill:#fff"/><path style="fill:#263238" d="m190.45 328.8-2.35 12.31h17.03l1.76-12.31h-16.44z"/><path d="M205.14 341.61h-17a.48.48 0 0 1-.38-.18.5.5 0 0 1-.11-.41l2.35-12.31a.49.49 0 0 1 .49-.41h16.44a.51.51 0 0 1 .5.57l-1.76 12.31a.5.5 0 0 1-.53.43Zm-16.43-1h16l1.62-11.31h-15.47Z" style="fill:#fff"/><path style="fill:#263238" d="m174.01 328.8-2.94 12.31h17.03l2.35-12.31h-16.44z"/><path d="M188.1 341.61h-17a.51.51 0 0 1-.39-.19.49.49 0 0 1-.09-.42l2.93-12.31a.5.5 0 0 1 .49-.39h16.44a.47.47 0 0 1 .38.19.47.47 0 0 1 .11.41l-2.34 12.31a.51.51 0 0 1-.53.4Zm-16.39-1h16l2.15-11.31H174.4Z" style="fill:#fff"/><path style="fill:#263238" d="m239.78 328.8-.58 12.31h17.03l-.01-12.31h-16.44z"/><path d="M256.23 341.61h-17a.48.48 0 0 1-.36-.15.47.47 0 0 1-.14-.37l.58-12.31a.5.5 0 0 1 .5-.48h16.44a.51.51 0 0 1 .5.5v12.31a.51.51 0 0 1-.15.36.5.5 0 0 1-.37.14Zm-16.51-1h16V329.3h-15.47Z" style="fill:#fff"/><path style="fill:#263238" d="m223.33 328.8-1.16 12.31h17.03l.58-12.31h-16.45z"/><path d="M239.2 341.61h-17a.51.51 0 0 1-.37-.16.49.49 0 0 1-.13-.38l1.17-12.31a.5.5 0 0 1 .49-.46h16.45a.52.52 0 0 1 .36.16.55.55 0 0 1 .14.37l-.58 12.31a.51.51 0 0 1-.53.47Zm-16.48-1h16l.53-11.31h-15.46Z" style="fill:#fff"/><path style="fill:#263238" d="m206.89 328.8-1.76 12.31h17.04l1.16-12.31h-16.44z"/><path d="M222.17 341.61h-17a.5.5 0 0 1-.5-.57l1.76-12.31a.5.5 0 0 1 .49-.43h16.44a.48.48 0 0 1 .37.17.45.45 0 0 1 .13.38l-1.17 12.31a.49.49 0 0 1-.52.45Zm-16.46-1h16l1.07-11.31h-15.45Z" style="fill:#fff"/><path style="fill:#263238" d="m338.43 328.8-2.76-11.48h-15.89l2.21 11.48h16.44z"/><path d="M338.43 329.3H322a.49.49 0 0 1-.49-.4l-2.21-11.49a.51.51 0 0 1 .1-.41.5.5 0 0 1 .39-.18h15.89a.51.51 0 0 1 .49.38l2.75 11.49a.46.46 0 0 1-.09.42.49.49 0 0 1-.4.19Zm-16-1h15.39l-2.52-10.48h-14.92Z" style="fill:#fff"/><path style="fill:#263238" d="m148.55 306.58 3.68-11h-14.85l-4.21 11h15.38z"/><path d="M148.55 307.08h-15.38a.5.5 0 0 1-.46-.68l4.2-11a.5.5 0 0 1 .46-.32h14.86a.5.5 0 0 1 .47.66l-3.67 11a.5.5 0 0 1-.48.34Zm-14.65-1h14.29l3.34-10h-13.81Z" style="fill:#fff"/><path style="fill:#263238" d="M133.17 306.58h-14.19l-4.58 10.74h14.67l4.1-10.74z"/><path d="M129.07 317.82H114.4a.52.52 0 0 1-.42-.23.49.49 0 0 1 0-.47l4.58-10.74a.51.51 0 0 1 .46-.3h14.19a.53.53 0 0 1 .42.21.5.5 0 0 1 0 .46l-4.1 10.75a.51.51 0 0 1-.46.32Zm-13.91-1h13.57l3.72-9.74h-13.14Z" style="fill:#fff"/><path style="fill:#263238" d="M137.38 295.58h-13.71l-4.69 11h14.19l4.21-11z"/><path d="M133.17 307.08H119a.5.5 0 0 1-.42-.23.49.49 0 0 1 0-.47l4.69-11a.48.48 0 0 1 .46-.3h13.7a.51.51 0 0 1 .42.22.5.5 0 0 1 .05.46l-4.2 11a.5.5 0 0 1-.53.32Zm-13.43-1h13.09l3.82-10H124Z" style="fill:#fff"/><path style="fill:#263238" d="M129.07 317.32H114.4l-4.9 11.48h15.18l4.39-11.48z"/><path d="M124.68 329.3H109.5a.5.5 0 0 1-.46-.69l4.9-11.49a.51.51 0 0 1 .46-.3h14.67a.49.49 0 0 1 .41.22.47.47 0 0 1 .06.46l-4.39 11.5a.5.5 0 0 1-.47.3Zm-14.42-1h14.08l4-10.48h-13.61Z" style="fill:#fff"/><path style="fill:#263238" d="M124.68 328.8H109.5l-5.24 12.31h15.72l4.7-12.31z"/><path d="M120 341.61h-15.74a.49.49 0 0 1-.46-.69l5.2-12.31a.5.5 0 0 1 .46-.31h15.18a.51.51 0 0 1 .47.68l-4.7 12.31a.51.51 0 0 1-.41.32Zm-15-1h14.62L124 329.3h-14.17Z" style="fill:#fff"/><path style="fill:#263238" d="M119.98 341.11h-15.72l-5.64 13.23h16.31l5.05-13.23z"/><path d="M114.93 354.84H98.62a.52.52 0 0 1-.42-.23.49.49 0 0 1 0-.47l5.64-13.22a.5.5 0 0 1 .46-.31H120a.49.49 0 0 1 .41.22.53.53 0 0 1 .06.46l-5.06 13.22a.49.49 0 0 1-.48.33Zm-15.55-1h15.2l4.67-12.23h-14.66Z" style="fill:#fff"/><path style="fill:#263238" d="m383.35 317.32 4.4 11.48h14.55l-4.9-11.48h-14.05z"/><path d="M402.3 329.3h-14.54a.49.49 0 0 1-.47-.32l-4.41-11.48a.5.5 0 0 1 .05-.46.5.5 0 0 1 .41-.22h14.06a.49.49 0 0 1 .46.3l4.9 11.49a.49.49 0 0 1 0 .47.51.51 0 0 1-.46.22Zm-14.2-1h13.44l-4.47-10.48h-13Z" style="fill:#fff"/><path style="fill:#263238" d="M392.48 341.11h15.07l-5.25-12.31h-14.55l4.73 12.31z"/><path d="M407.55 341.61h-15.07a.51.51 0 0 1-.47-.32L387.29 329a.5.5 0 0 1 .47-.68h14.54a.5.5 0 0 1 .46.31l5.24 12.29a.5.5 0 0 1-.46.69Zm-14.73-1h14L402 329.3h-13.52Z" style="fill:#fff"/><path style="fill:#263238" d="M397.56 354.34h15.62l-5.63-13.23h-15.07l5.08 13.23z"/><path d="M413.18 354.84h-15.62a.5.5 0 0 1-.47-.32L392 341.29a.51.51 0 0 1 .47-.68h15.07a.5.5 0 0 1 .46.31l5.63 13.22a.49.49 0 0 1 0 .47.5.5 0 0 1-.45.23Zm-15.28-1h14.53l-5.21-12.23h-14Z" style="fill:#fff"/><path style="fill:#263238" d="m271.57 306.58-.53-11h-14.85l.01 11h15.37z"/><path d="M271.58 307.08H256.2a.5.5 0 0 1-.5-.5v-11a.5.5 0 0 1 .14-.35.49.49 0 0 1 .36-.15H271a.5.5 0 0 1 .5.48l.53 11a.5.5 0 0 1-.13.37.52.52 0 0 1-.32.15Zm-14.88-1h14.35l-.49-10h-13.87Z" style="fill:#fff"/><path style="fill:#263238" d="M383.35 317.32h14.05l-4.58-10.74h-13.6l4.13 10.74z"/><path d="M397.4 317.82h-14.06a.5.5 0 0 1-.46-.32l-4.12-10.75a.49.49 0 0 1 .46-.67h13.61a.51.51 0 0 1 .46.3l4.57 10.74a.49.49 0 0 1 0 .47.5.5 0 0 1-.46.23Zm-13.71-1h13l-4.15-9.74H380Z" style="fill:#fff"/><path style="fill:#263238" d="M375.45 341.11h17.03l-4.73-12.31h-16.44l4.14 12.31z"/><path d="M392.48 341.61h-17a.5.5 0 0 1-.48-.34L370.84 329a.5.5 0 0 1 .47-.66h16.45a.5.5 0 0 1 .46.32l4.78 12.27a.52.52 0 0 1-.06.47.51.51 0 0 1-.46.21Zm-16.67-1h15.94l-4.34-11.31H372Z" style="fill:#fff"/><path style="fill:#263238" d="m163.93 306.58 3.15-11h-14.85l-3.68 11h15.38z"/><path d="M163.93 307.08h-15.38a.5.5 0 0 1-.47-.66l3.67-11a.51.51 0 0 1 .48-.34h14.85a.51.51 0 0 1 .4.2.53.53 0 0 1 .08.44l-3.15 11a.5.5 0 0 1-.48.36Zm-14.68-1h14.3l2.86-10h-13.82Z" style="fill:#fff"/><path style="fill:#263238" d="m363.84 306.58 3.61 10.74h15.9l-4.13-10.74h-15.38z"/><path d="M383.34 317.82h-15.89a.51.51 0 0 1-.47-.34l-3.61-10.74a.51.51 0 0 1 .07-.46.48.48 0 0 1 .4-.2h15.38a.5.5 0 0 1 .47.32l4.12 10.74a.5.5 0 0 1-.05.46.51.51 0 0 1-.42.22Zm-15.53-1h14.81l-3.74-9.74h-14.34Z" style="fill:#fff"/><path style="fill:#263238" d="m392.82 306.58-4.68-11H375l4.22 11h13.6z"/><path d="M392.83 307.08h-13.61a.49.49 0 0 1-.46-.32l-4.23-11a.5.5 0 0 1 .06-.46.49.49 0 0 1 .41-.22h13.14a.51.51 0 0 1 .46.3l4.69 11a.49.49 0 0 1-.05.47.5.5 0 0 1-.41.23Zm-13.26-1h12.5l-4.26-10h-12.08Z" style="fill:#fff"/><path style="fill:#263238" d="m379.22 306.58-4.22-11h-14.85l3.69 11h15.38z"/><path d="M379.22 307.08h-15.38a.51.51 0 0 1-.47-.34l-3.7-11a.52.52 0 0 1 .07-.45.52.52 0 0 1 .41-.21H375a.51.51 0 0 1 .47.32l4.22 11a.51.51 0 0 1-.47.68Zm-15-1h14.29l-3.83-10h-13.84Z" style="fill:#fff"/><path style="fill:#263238" d="m324.36 341.11 2.54 13.23h17.66l-3.17-13.23h-17.03z"/><path d="M344.56 354.84H326.9a.49.49 0 0 1-.49-.41l-2.55-13.22a.53.53 0 0 1 .11-.42.51.51 0 0 1 .38-.18h17a.49.49 0 0 1 .48.39l3.18 13.22a.51.51 0 0 1-.09.43.51.51 0 0 1-.36.19Zm-17.25-1h16.62L341 341.61h-16Z" style="fill:#fff"/><path style="fill:#263238" d="M379.89 354.34h17.67l-5.08-13.23h-17.03l4.44 13.23z"/><path d="M397.56 354.84h-17.67a.51.51 0 0 1-.47-.34L375 341.27a.52.52 0 0 1 .07-.45.52.52 0 0 1 .41-.21h17a.51.51 0 0 1 .47.32l5.05 13.23a.5.5 0 0 1 0 .46.52.52 0 0 1-.44.22Zm-17.31-1h16.58l-4.69-12.23h-16Z" style="fill:#fff"/><path style="fill:#263238" d="m363.84 306.58-3.69-11H345.3l3.16 11h15.38z"/><path d="M363.84 307.08h-15.38a.51.51 0 0 1-.48-.37l-3.16-11a.47.47 0 0 1 .08-.44.51.51 0 0 1 .4-.2h14.85a.51.51 0 0 1 .47.34l3.7 11a.52.52 0 0 1-.07.45.51.51 0 0 1-.41.22Zm-15-1h14.31l-3.36-10H346Z" style="fill:#fff"/><path style="fill:#263238" d="m358.42 341.11 3.81 13.23h17.66l-4.44-13.23h-17.03z"/><path d="M379.89 354.84h-17.66a.5.5 0 0 1-.48-.37l-3.81-13.22a.47.47 0 0 1 .08-.44.51.51 0 0 1 .4-.2h17a.51.51 0 0 1 .47.34l4.45 13.23a.52.52 0 0 1-.07.45.52.52 0 0 1-.38.21Zm-17.29-1h16.6l-4.11-12.23h-16Z" style="fill:#fff"/><path style="fill:#263238" d="m341.39 341.11 3.17 13.23h17.67l-3.81-13.23h-17.03z"/><path d="M362.23 354.84h-17.67a.49.49 0 0 1-.48-.39l-3.18-13.22a.51.51 0 0 1 .09-.43.51.51 0 0 1 .4-.19h17a.5.5 0 0 1 .48.36l3.81 13.23a.53.53 0 0 1-.08.44.54.54 0 0 1-.37.2Zm-17.27-1h16.6L358 341.61h-16Z" style="fill:#fff"/><path style="fill:#263238" d="M371.31 328.8h16.44l-4.4-11.48h-15.9l3.86 11.48z"/><path d="M387.76 329.3h-16.45a.49.49 0 0 1-.47-.34L367 317.48a.5.5 0 0 1 .47-.66h15.89a.5.5 0 0 1 .47.32l4.41 11.48a.49.49 0 0 1-.46.68Zm-16.09-1H387l-4-10.48h-14.85Z" style="fill:#fff"/><path style="fill:#263238" d="m225.44 306.58 1.04-11h-14.85l-1.57 11h15.38z"/><path d="M225.44 307.08h-15.38a.49.49 0 0 1-.37-.18.47.47 0 0 1-.12-.39l1.57-11a.49.49 0 0 1 .49-.43h14.85a.51.51 0 0 1 .37.16.48.48 0 0 1 .13.39l-1 11a.5.5 0 0 1-.54.45Zm-14.8-1H225l.94-10h-13.87Z" style="fill:#fff"/><path style="fill:#263238" d="m348.46 306.58-3.16-11h-14.85l2.64 11h15.37z"/><path d="M348.46 307.08h-15.37a.5.5 0 0 1-.49-.39l-2.64-11a.51.51 0 0 1 .09-.43.51.51 0 0 1 .4-.19h14.85a.5.5 0 0 1 .48.36l3.17 11a.51.51 0 0 1-.49.64Zm-15-1h14.34l-2.88-10h-13.84Z" style="fill:#fff"/><path style="fill:#263238" d="m210.06 306.58 1.57-11h-14.85l-2.09 11h15.37z"/><path d="M210.06 307.08h-15.37a.51.51 0 0 1-.39-.19.54.54 0 0 1-.11-.41l2.1-11a.49.49 0 0 1 .49-.41h14.85a.49.49 0 0 1 .38.17.49.49 0 0 1 .12.4l-1.57 11a.51.51 0 0 1-.5.44Zm-14.77-1h14.34l1.43-10h-13.87Z" style="fill:#fff"/><path style="fill:#263238" d="m256.2 306.58-.01-11h-14.85l-.52 11h15.38z"/><path d="M256.2 307.08h-15.38a.48.48 0 0 1-.36-.16.47.47 0 0 1-.14-.37l.52-11a.5.5 0 0 1 .5-.48h14.85a.5.5 0 0 1 .5.5v11a.51.51 0 0 1-.5.5Zm-14.86-1h14.36v-10h-13.89Z" style="fill:#fff"/><path style="fill:#263238" d="m194.69 306.58 2.09-11h-14.85l-2.62 11h15.38z"/><path d="M194.69 307.08h-15.38a.51.51 0 0 1-.4-.19.54.54 0 0 1-.09-.43l2.62-11a.51.51 0 0 1 .49-.38h14.85a.53.53 0 0 1 .39.18.51.51 0 0 1 .1.41l-2.09 11a.5.5 0 0 1-.49.41Zm-14.75-1h14.33l1.91-10h-13.86Z" style="fill:#fff"/><path style="fill:#263238" d="m179.31 306.58 2.62-11h-14.85l-3.15 11h15.38z"/><path d="M179.31 307.08h-15.38a.51.51 0 0 1-.4-.2.53.53 0 0 1-.08-.44l3.15-11a.5.5 0 0 1 .48-.36h14.85a.49.49 0 0 1 .39.19.51.51 0 0 1 .1.43l-2.63 11a.49.49 0 0 1-.48.38Zm-14.72-1h14.32l2.39-10h-13.85Z" style="fill:#fff"/><path style="fill:#263238" d="m240.82 306.58.52-11h-14.86l-1.04 11h15.38z"/><path d="M240.82 307.08h-15.38a.5.5 0 0 1-.37-.17.52.52 0 0 1-.13-.38l1.05-11a.5.5 0 0 1 .49-.45h14.86a.52.52 0 0 1 .36.16.52.52 0 0 1 .14.36l-.52 11a.5.5 0 0 1-.5.48Zm-14.83-1h14.35l.47-10h-13.87Z" style="fill:#fff"/><path style="fill:#263238" d="m333.09 306.58-2.64-11h-14.86l2.12 11h15.38z"/><path d="M333.09 307.08h-15.38a.49.49 0 0 1-.49-.41l-2.12-11a.51.51 0 0 1 .49-.6h14.86a.49.49 0 0 1 .48.38l2.64 11a.5.5 0 0 1-.48.62Zm-15-1h14.33l-2.4-10H316.2Z" style="fill:#fff"/><path style="fill:#263238" d="m317.71 306.58-2.12-11h-14.85l1.59 11h15.38z"/><path d="M317.71 307.08h-15.38a.5.5 0 0 1-.49-.43l-1.59-11a.52.52 0 0 1 .11-.4.52.52 0 0 1 .38-.17h14.85a.51.51 0 0 1 .5.41l2.11 11a.47.47 0 0 1-.11.41.47.47 0 0 1-.38.18Zm-14.95-1h14.34l-1.92-10h-13.86Z" style="fill:#fff"/><path style="fill:#263238" d="m286.95 306.58-1.06-11h-14.85l.53 11h15.38z"/><path d="M287 307.08h-15.42a.5.5 0 0 1-.5-.48l-.54-11a.46.46 0 0 1 .14-.37.48.48 0 0 1 .36-.16h14.85a.51.51 0 0 1 .5.45l1.06 11a.51.51 0 0 1-.5.55Zm-14.9-1h14.3l-1-10h-13.84Z" style="fill:#fff"/><path style="fill:#263238" d="M324.36 341.11H154.04l-3.79 13.23H326.9l-2.54-13.23z"/><path d="M326.9 354.84H150.26a.51.51 0 0 1-.4-.2.47.47 0 0 1-.08-.44l3.78-13.2a.5.5 0 0 1 .48-.36h170.31a.51.51 0 0 1 .5.41l2.54 13.22a.49.49 0 0 1-.1.41.51.51 0 0 1-.39.16Zm-176-1h175.39l-2.35-12.23H154.42Z" style="fill:#fff"/><path style="fill:#263238" d="m302.33 306.58-1.59-11h-14.85l1.06 11h15.38z"/><path d="M302.33 307.08H287a.5.5 0 0 1-.49-.46l-1.07-11a.52.52 0 0 1 .13-.38.48.48 0 0 1 .37-.17h14.85a.51.51 0 0 1 .5.43l1.59 11a.52.52 0 0 1-.12.4.51.51 0 0 1-.43.18Zm-14.92-1h14.34l-1.44-10h-13.87Z" style="fill:#fff"/><path style="fill:#263238" d="M63.28 377.57H441.8v5.37H63.28z"/><path d="M441.8 383.44H63.28a.5.5 0 0 1-.5-.5v-5.37a.5.5 0 0 1 .5-.5H441.8a.5.5 0 0 1 .5.5v5.37a.5.5 0 0 1-.5.5Zm-378-1h377.5v-4.37H63.78ZM157.55 120.52h-16.5a1.5 1.5 0 0 1 0-3h16.5a1.5 1.5 0 0 1 0 3Z" style="fill:#263238"/><path d="M203 129h-62a1.5 1.5 0 1 1 0-3h62a1.5 1.5 0 1 1 0 3ZM298.83 129h-61.95a1.5 1.5 0 1 1 0-3h61.95a1.5 1.5 0 0 1 0 3Z" style="fill:#fff"/><path d="M231.53 129H207a1.5 1.5 0 1 1 0-3h24.51a1.5 1.5 0 1 1 0 3ZM176.71 137.46h-35.66a1.5 1.5 0 0 1 0-3h35.66a1.5 1.5 0 0 1 0 3ZM216.82 137.46h-35.65a1.5 1.5 0 0 1 0-3h35.65a1.5 1.5 0 0 1 0 3ZM256.93 137.46h-35.65a1.5 1.5 0 0 1 0-3h35.65a1.5 1.5 0 0 1 0 3ZM276.54 137.46h-15.15a1.5 1.5 0 0 1 0-3h15.15a1.5 1.5 0 0 1 0 3ZM178.49 120.52H162a1.5 1.5 0 0 1 0-3h16.49a1.5 1.5 0 0 1 0 3ZM276.54 120.52h-16.49a1.5 1.5 0 0 1 0-3h16.49a1.5 1.5 0 0 1 0 3Z" style="fill:#263238"/><path d="M254.7 120.52h-16.49a1.5 1.5 0 0 1 0-3h16.49a1.5 1.5 0 0 1 0 3Z" style="fill:#fff"/><path d="M231.08 120.52H183a1.5 1.5 0 0 1 0-3h48.13a1.5 1.5 0 0 1 0 3ZM157.55 172.22h-16.5a1.5 1.5 0 0 1 0-3h16.5a1.5 1.5 0 0 1 0 3Z" style="fill:#263238"/><path d="M203 180.69h-62a1.5 1.5 0 0 1 0-3h62a1.5 1.5 0 0 1 0 3Z" style="fill:#fff"/><path d="M298.83 180.69h-61.95a1.5 1.5 0 0 1 0-3h61.95a1.5 1.5 0 0 1 0 3ZM231.53 180.69H207a1.5 1.5 0 0 1 0-3h24.51a1.5 1.5 0 1 1 0 3ZM176.71 189.16h-35.66a1.5 1.5 0 0 1 0-3h35.66a1.5 1.5 0 0 1 0 3ZM216.82 189.16h-35.65a1.5 1.5 0 0 1 0-3h35.65a1.5 1.5 0 0 1 0 3Z" style="fill:#263238"/><path d="M256.93 189.16h-35.65a1.5 1.5 0 0 1 0-3h35.65a1.5 1.5 0 0 1 0 3Z" style="fill:#fff"/><path d="M276.54 189.16h-15.15a1.5 1.5 0 0 1 0-3h15.15a1.5 1.5 0 0 1 0 3ZM178.49 172.22H162a1.5 1.5 0 0 1 0-3h16.49a1.5 1.5 0 0 1 0 3ZM276.54 172.22h-16.49a1.5 1.5 0 0 1 0-3h16.49a1.5 1.5 0 0 1 0 3Z" style="fill:#263238"/><path d="M254.7 172.22h-16.49a1.5 1.5 0 0 1 0-3h16.49a1.5 1.5 0 0 1 0 3Z" style="fill:#fff"/><path d="M231.08 172.22H183a1.5 1.5 0 0 1 0-3h48.13a1.5 1.5 0 0 1 0 3ZM157.55 248.43h-16.5a1.5 1.5 0 0 1 0-3h16.5a1.5 1.5 0 0 1 0 3Z" style="fill:#263238"/><path d="M203 256.9h-62a1.5 1.5 0 0 1 0-3h62a1.5 1.5 0 0 1 0 3Z" style="fill:#fff"/><path d="M298.83 256.9h-61.95a1.5 1.5 0 0 1 0-3h61.95a1.5 1.5 0 0 1 0 3ZM231.53 256.9H207a1.5 1.5 0 0 1 0-3h24.51a1.5 1.5 0 1 1 0 3ZM176.71 265.37h-35.66a1.5 1.5 0 0 1 0-3h35.66a1.5 1.5 0 1 1 0 3ZM216.82 265.37h-35.65a1.5 1.5 0 1 1 0-3h35.65a1.5 1.5 0 0 1 0 3Z" style="fill:#263238"/><path d="M256.93 265.37h-35.65a1.5 1.5 0 1 1 0-3h35.65a1.5 1.5 0 0 1 0 3Z" style="fill:#fff"/><path d="M276.54 265.37h-15.15a1.5 1.5 0 0 1 0-3h15.15a1.5 1.5 0 1 1 0 3ZM178.49 248.43H162a1.5 1.5 0 0 1 0-3h16.49a1.5 1.5 0 0 1 0 3ZM276.54 248.43h-16.49a1.5 1.5 0 0 1 0-3h16.49a1.5 1.5 0 0 1 0 3Z" style="fill:#263238"/><path d="M254.7 248.43h-16.49a1.5 1.5 0 1 1 0-3h16.49a1.5 1.5 0 0 1 0 3Z" style="fill:#fff"/><path d="M231.08 248.43H183a1.5 1.5 0 0 1 0-3h48.13a1.5 1.5 0 0 1 0 3ZM250.25 146.37h-16.49a1.5 1.5 0 0 1 0-3h16.49a1.5 1.5 0 0 1 0 3ZM228.41 146.37h-16.49a1.5 1.5 0 1 1 0-3h16.49a1.5 1.5 0 0 1 0 3ZM204.79 146.37h-48.14a1.5 1.5 0 1 1 0-3h48.14a1.5 1.5 0 0 1 0 3ZM250.25 161.52h-16.49a1.5 1.5 0 0 1 0-3h16.49a1.5 1.5 0 0 1 0 3ZM228.41 161.52h-16.49a1.5 1.5 0 0 1 0-3h16.49a1.5 1.5 0 0 1 0 3Z" style="fill:#263238"/><path d="M204.79 161.52h-48.14a1.5 1.5 0 0 1 0-3h48.14a1.5 1.5 0 0 1 0 3Z" style="fill:#fff"/><path d="M173.14 154h-16.49a1.5 1.5 0 0 1 0-3h16.49a1.5 1.5 0 0 1 0 3ZM195 154h-16.51a1.5 1.5 0 0 1 0-3H195a1.5 1.5 0 0 1 0 3Z" style="fill:#263238"/><path d="M250.25 154h-48.14a1.5 1.5 0 0 1 0-3h48.14a1.5 1.5 0 0 1 0 3Z" style="fill:#fff"/><path d="M250.25 199.41h-16.49a1.5 1.5 0 0 1 0-3h16.49a1.5 1.5 0 0 1 0 3ZM228.41 199.41h-16.49a1.5 1.5 0 0 1 0-3h16.49a1.5 1.5 0 0 1 0 3ZM204.79 199.41h-48.14a1.5 1.5 0 0 1 0-3h48.14a1.5 1.5 0 0 1 0 3ZM250.25 214.56h-16.49a1.5 1.5 0 0 1 0-3h16.49a1.5 1.5 0 0 1 0 3ZM228.41 214.56h-16.49a1.5 1.5 0 0 1 0-3h16.49a1.5 1.5 0 1 1 0 3Z" style="fill:#263238"/><path d="M204.79 214.56h-48.14a1.5 1.5 0 0 1 0-3h48.14a1.5 1.5 0 1 1 0 3Z" style="fill:#fff"/><path d="M173.14 207h-16.49a1.5 1.5 0 0 1 0-3h16.49a1.5 1.5 0 0 1 0 3ZM195 207h-16.51a1.5 1.5 0 0 1 0-3H195a1.5 1.5 0 0 1 0 3Z" style="fill:#263238"/><path d="M250.25 207h-48.14a1.5 1.5 0 0 1 0-3h48.14a1.5 1.5 0 0 1 0 3Z" style="fill:#fff"/><path d="M173.14 223.48h-16.49a1.5 1.5 0 0 1 0-3h16.49a1.5 1.5 0 0 1 0 3ZM195 223.48h-16.51a1.5 1.5 0 0 1 0-3H195a1.5 1.5 0 0 1 0 3Z" style="fill:#263238"/><path d="M250.25 223.48h-48.14a1.5 1.5 0 0 1 0-3h48.14a1.5 1.5 0 0 1 0 3Z" style="fill:#fff"/><path d="M173.14 238.63h-16.49a1.5 1.5 0 1 1 0-3h16.49a1.5 1.5 0 0 1 0 3ZM195 238.63h-16.51a1.5 1.5 0 0 1 0-3H195a1.5 1.5 0 1 1 0 3Z" style="fill:#263238"/><path d="M250.25 238.63h-48.14a1.5 1.5 0 0 1 0-3h48.14a1.5 1.5 0 0 1 0 3Z" style="fill:#fff"/><path d="M250.25 231.05h-16.49a1.5 1.5 0 0 1 0-3h16.49a1.5 1.5 0 0 1 0 3ZM228.41 231.05h-16.49a1.5 1.5 0 0 1 0-3h16.49a1.5 1.5 0 1 1 0 3Z" style="fill:#263238"/><path d="M204.79 231.05h-48.14a1.5 1.5 0 0 1 0-3h48.14a1.5 1.5 0 1 1 0 3Z" style="fill:#fff"/><path style="fill:#263238" d="M129.67 116.08h5.27v5.2h-5.27zM129.67 124.62h5.27v5.2h-5.27zM129.67 133.17h5.27v5.2h-5.27zM129.67 141.71h5.27v5.2h-5.27zM129.67 150.25h5.27v5.2h-5.27zM129.67 158.8h5.27v5.2h-5.27zM129.67 167.34h5.27v5.2h-5.27zM129.67 175.88h5.27v5.2h-5.27zM129.67 184.43h5.27v5.2h-5.27zM129.67 192.97h5.27v5.2h-5.27zM129.67 201.51h5.27v5.2h-5.27zM129.67 210.06h5.27v5.2h-5.27zM129.67 218.6h5.27v5.2h-5.27zM129.67 227.14h5.27v5.2h-5.27zM129.67 235.69h5.27v5.2h-5.27zM129.67 244.23h5.27v5.2h-5.27zM129.67 252.77h5.27v5.2h-5.27zM129.67 261.32h5.27v5.2h-5.27zM380 22.66a57.18 57.18 0 0 0-39.52 98.51l-8.14 15.2 20-6.48A57.19 57.19 0 1 0 380 22.66Z"/><path d="M380 137.55a57.64 57.64 0 0 1-27.75-7.12l-19.76 6.41a.53.53 0 0 1-.54-.15.5.5 0 0 1-.05-.56l8-14.86a57.69 57.69 0 1 1 97.83-41.42 57.76 57.76 0 0 1-57.73 57.7Zm-27.7-8.16a.42.42 0 0 1 .24.07 56.7 56.7 0 1 0-29.23-49.61 56.22 56.22 0 0 0 17.51 41 .52.52 0 0 1 .1.6l-7.55 14.1 18.77-6.09Z" style="fill:#263238"/><path d="M377.31 18.58a57.18 57.18 0 0 0-39.52 98.51l-8.14 15.19 20-6.47a57.19 57.19 0 1 0 27.66-107.23Z" style="fill:#fff"/><path d="M377.31 133.46a57.8 57.8 0 0 1-27.75-7.11l-19.75 6.41a.51.51 0 0 1-.54-.16.52.52 0 0 1-.06-.56l8-14.85a57.69 57.69 0 1 1 40.14 16.27Zm-27.69-8.15a.53.53 0 0 1 .24.06 56.82 56.82 0 1 0-11.72-8.64.49.49 0 0 1 .09.59l-7.55 14.1 18.78-6.09Z" style="fill:#263238"/><path d="m358.16 99.34-22-15.52v-8.23l22-15.67v8.3l-15.75 11.45 15.75 11.45ZM364.85 102.11l16.75-62.25h7.15l-16.83 62.25ZM395.43 99.34v-8.22l15.83-11.53-15.83-11.37v-8.3l22.06 15.6v8.22Z" style="fill:#b2299f"/><path d="m360.89 95.93-22-15.52v-8.22l22-15.68v8.3l-15.76 11.45 15.76 11.45ZM367.57 98.7l16.75-62.24h7.15L374.64 98.7ZM398.15 95.93v-8.22L414 76.19l-15.85-11.38v-8.3l22.06 15.6v8.23ZM333.83 383.53l34.63 28.59a49.6 49.6 0 0 0 6.81 11.57c4.77 6.13 60.6 29.28 60.6 29.28l9.53 2.72-104.17-78.3Z" style="fill:#263238"/><path d="M445.4 456.19a.36.36 0 0 1-.14 0l-9.53-2.72c-2.34-1-56.06-23.29-60.85-29.45a49.76 49.76 0 0 1-6.83-11.58l-34.53-28.5a.51.51 0 0 1-.19-.39.53.53 0 0 1 .18-.39l7.4-6.13a.5.5 0 0 1 .62 0l104.17 78.3a.51.51 0 0 1 .15.63.5.5 0 0 1-.45.23Zm-110.78-72.66 34.16 28.2a.51.51 0 0 1 .15.21 49.13 49.13 0 0 0 6.74 11.45c4.63 5.95 59.83 28.89 60.39 29.12l6.88 2L341.24 378Z" style="fill:#263238"/><path d="M401.28 360.82s-9.29-11.36-13.42-18.58-10-24.09-14.46-34.07-11-13.07-18.92-16.17-11-2.41-11-.34 3.1 5.85 3.1 5.85l-13.42 2.41s-5.51-3.1-8.95-2.07-10 7.57-10 7.57-6.88-2.41-11-1.38-15.48 6.54-20.3 8.95-10 2.75-9.64 4.82 5.17 5.5 9.64 4.82 12-3.45 16.86-3.45 7.22 1 9.63 2.76 12.39 15.83 13.77 17.55 2.75 8.6 2.75 8.6-6.07-2.59-9.85-6-9.2-11.51-15.4-12.19-12.94 4.81-9.5 7.56 6.88 4.47 9.29 7.57 6.19 12.39 12.73 22.37 20.64 16.17 20.64 16.17l29.25 12s7.57-17.89 21.68-22.71S403 366 403 366Z" style="fill:#fff"/><path d="M363.08 396.07a.63.63 0 0 1-.19 0L333.64 384c-.15-.07-14.33-6.37-20.87-16.36a166.51 166.51 0 0 1-8.72-15.32 57 57 0 0 0-4-7 25.44 25.44 0 0 0-5.82-5c-1.1-.77-2.24-1.57-3.39-2.49a2.72 2.72 0 0 1-.85-3.39c1.14-2.76 6.08-5.58 10.73-5.06s9.07 5.23 12.49 9c1.15 1.26 2.23 2.45 3.18 3.31a38.9 38.9 0 0 0 8.83 5.54c-.51-2.29-1.54-6.28-2.45-7.42-.34-.42-1.16-1.53-2.28-3.07-3.37-4.59-9.62-13.13-11.39-14.39-2.36-1.68-4.64-2.66-9.34-2.66-2.92 0-7 1.07-10.58 2-2.3.6-4.47 1.16-6.21 1.43-4.59.7-9.79-2.79-10.2-5.23-.28-1.7 1.78-2.37 4.63-3.31a36.78 36.78 0 0 0 5.27-2c2.6-1.29 15.77-7.82 20.41-9 3.78-.95 9.61.83 11 1.29 1.19-1.17 6.77-6.52 10-7.48s8.21 1.51 9.17 2l12.43-2.23c-.92-1.23-2.69-3.79-2.69-5.5a2 2 0 0 1 .88-1.71c1.61-1.1 5.35-.55 10.81 1.59 8.13 3.18 14.71 6.41 19.2 16.43 1.76 3.92 3.68 8.77 5.71 13.91 3.06 7.74 6.23 15.74 8.72 20.11 4.06 7.11 13.28 18.4 13.37 18.51a.51.51 0 0 1 .09.16l1.72 5.16a.5.5 0 0 1-.25.61c-.17.08-4.32 2.13-18.3 6.91-13.73 4.68-21.3 22.25-21.38 22.43a.49.49 0 0 1-.48.3ZM299.6 330.3c-3.85 0-7.77 2.3-8.68 4.5a1.75 1.75 0 0 0 .56 2.23c1.12.9 2.25 1.69 3.34 2.45a26.51 26.51 0 0 1 6 5.2 56.73 56.73 0 0 1 4.08 7.17 168.34 168.34 0 0 0 8.68 15.23c6.38 9.74 20.29 15.93 20.43 16l28.78 11.86c1.31-2.84 8.89-18.14 21.78-22.54 11.58-4 16.46-6.07 17.78-6.67l-1.55-4.66c-.8-1-9.48-11.69-13.41-18.57-2.53-4.43-5.71-12.47-8.78-20.24-2-5.13-3.95-10-5.69-13.87-4.35-9.7-10.47-12.71-18.65-15.91-7.09-2.78-9.28-2.11-9.89-1.69a1 1 0 0 0-.44.88c0 1.54 2.15 4.51 3 5.53a.5.5 0 0 1-.3.81l-13.42 2.41a.48.48 0 0 1-.33-.06s-5.36-3-8.56-2-9.7 7.38-9.77 7.44a.46.46 0 0 1-.51.12c-.07 0-6.79-2.34-10.73-1.36-3.52.88-13.08 5.35-20.2 8.91a37.68 37.68 0 0 1-5.41 2.09c-2.2.72-4.1 1.34-4 2.2.29 1.76 4.87 5 9.06 4.4 1.68-.26 3.83-.82 6.1-1.41 3.66-1 7.8-2 10.84-2 5 0 7.46 1.09 9.92 2.85 1.75 1.25 6.91 8.19 11.61 14.61 1.08 1.47 1.93 2.63 2.26 3 1.43 1.8 2.79 8.53 2.85 8.82a.51.51 0 0 1-.17.49.54.54 0 0 1-.52.07 42 42 0 0 1-10-6.13c-1-.89-2.08-2.1-3.25-3.38-3.31-3.65-7.44-8.2-11.86-8.69-.27-.07-.61-.09-.95-.09Z" style="fill:#263238"/><path d="M273.27 318.31a.5.5 0 0 1-.12-1s3.35-.85 4.29-1.16a7.34 7.34 0 0 0 1.92-1.2.51.51 0 0 1 .71.06.49.49 0 0 1-.06.7 8.09 8.09 0 0 1-2.26 1.39c-1 .32-4.22 1.15-4.35 1.18ZM346.88 333a.46.46 0 0 1-.33-.13 19.43 19.43 0 0 1-4.95-8.45c-1.19-4-4.91-6-6.9-7l-.39-.21c-4.43-2.38-20.18-11.18-20.33-11.27a.51.51 0 0 1-.2-.68.5.5 0 0 1 .68-.2c.16.09 15.9 8.9 20.32 11.27l.39.21c2 1 6.08 3.21 7.39 7.63a18.8 18.8 0 0 0 4.66 8 .5.5 0 0 1-.34.87ZM359.64 323.13a.52.52 0 0 1-.45-.28s-1.73-3.47-3.43-6.52c-1.33-2.39-4-3-5.5-3.36-.32-.07-.58-.13-.76-.19-1.06-.36-14.06-10.45-16.66-12.47a.5.5 0 1 1 .61-.79c5.89 4.58 15.54 12 16.38 12.31.15.05.38.1.66.17 1.49.34 4.6 1.06 6.15 3.84 1.7 3.08 3.43 6.53 3.45 6.56a.5.5 0 0 1-.23.67.43.43 0 0 1-.22.06ZM365.15 315.21a.48.48 0 0 1-.38-.17c-.36-.41-9-10.07-11.08-14.21-1.87-3.74-7-2.84-7-2.83a.51.51 0 0 1-.59-.4.5.5 0 0 1 .4-.58c.06 0 5.91-1.06 8.11 3.36 2 4 10.85 13.9 10.94 14a.5.5 0 0 1 0 .7.5.5 0 0 1-.4.13ZM297.36 342.39a.51.51 0 0 1-.45-.27.5.5 0 0 1 .23-.67 4.9 4.9 0 0 0 2.29-2.46 2.39 2.39 0 0 0-.42-2c-1.89-2.83-5.74-2.87-5.78-2.87a.5.5 0 0 1 0-1c.18 0 4.42 0 6.61 3.32a3.31 3.31 0 0 1 .56 2.79 5.77 5.77 0 0 1-2.82 3.09.42.42 0 0 1-.22.07Z" style="fill:#263238"/><path d="M400.59 356.35s-18.58 4.81-30.28 17.89-11.7 24.09-10.67 25.81S383 413.81 383 413.81s13.76-26.5 23.4-33 16.6-8.29 16.6-8.29-17.2-11-17.89-12.39-2.11-4.82-4.52-3.78Z" style="fill:#b2299f"/><path d="M383 414.31a.53.53 0 0 1-.24-.06c-3.75-2-22.54-12.2-23.59-13.95s-1.2-13.07 10.72-26.39c11.42-12.76 29.55-17.78 30.49-18 2.61-1.08 4.16 2.1 4.9 3.64l.19.4c.6 1 11.18 8 17.71 12.19a.5.5 0 0 1 .23.5.49.49 0 0 1-.38.4c-.06 0-6.92 1.79-16.35 8.19s-23.1 32.59-23.24 32.85a.51.51 0 0 1-.29.25Zm18.4-57.65a1.65 1.65 0 0 0-.66.15h-.07c-.18.05-18.57 4.94-30 17.74s-11.59 23.59-10.61 25.22c.72 1.17 14.15 8.69 22.76 13.34 1.92-3.63 14.27-26.62 23.33-32.77a63.61 63.61 0 0 1 15.6-8c-4.23-2.72-16.49-10.68-17.15-12l-.2-.41c-.76-1.6-1.69-3.27-2.96-3.27Zm-.85-.31Z" style="fill:#263238"/><path d="M452.89 459.92s-18.93-9.64-23.4-12.05L394.39 429a41.74 41.74 0 0 1-5.85-2.06c-2.06-1-5.16-.69-6.53-7.92s2.06-21.68 17.55-36.13 25.11-13.76 25.11-13.76 6.54-.69 8.26.69 2.07 5.5 3.79 6.19 49.33 15 49.33 15" style="fill:#b2299f"/><path d="M452.89 460.42a.49.49 0 0 1-.23-.06c-.19-.09-19-9.66-23.41-12l-35-18.9a40.44 40.44 0 0 1-5.89-2.09 10.7 10.7 0 0 0-1.11-.44c-2-.71-4.51-1.58-5.69-7.83s1.16-21.15 17.69-36.58c15.48-14.44 25.11-13.92 25.5-13.9.6-.07 6.71-.67 8.53.8a8.1 8.1 0 0 1 2 3.35c.48 1.22 1 2.48 1.69 2.77 1.68.67 48.82 14.8 49.29 14.94a.5.5 0 0 1-.28 1c-2-.59-47.66-14.29-49.38-15-1.1-.44-1.66-1.84-2.25-3.32a7.57 7.57 0 0 0-1.66-2.94c-1.28-1-6.13-.77-7.89-.58-.19 0-9.74-.46-24.83 13.63-16.22 15.13-18.57 29.54-17.4 35.67 1.08 5.67 3.18 6.41 5 7.07a9.55 9.55 0 0 1 1.23.49 40.52 40.52 0 0 0 5.76 2h.1l35.1 18.92c4.41 2.38 23.2 11.95 23.39 12a.51.51 0 0 1 .22.67.5.5 0 0 1-.48.33Z" style="fill:#263238"/><path d="M401.62 426.35a.52.52 0 0 1-.44-.25c-4.85-8.67-2.89-18.84-2.8-19.27a.49.49 0 0 1 .58-.39.5.5 0 0 1 .4.59c0 .1-2 10.24 2.7 18.58a.5.5 0 0 1-.44.74ZM407.13 430.48a.49.49 0 0 1-.43-.24c-3.05-4.95-4.32-8.21-3.77-9.7a1.06 1.06 0 0 1 .6-.67.51.51 0 0 1 .63.32.49.49 0 0 1-.25.6c-.07.12-.86 1.61 3.64 8.93a.5.5 0 0 1-.16.69.51.51 0 0 1-.26.07Zm-3.28-9.66Zm0 0Zm0 0ZM191.65 353.16s-22.68 27-29.49 32.4a103.73 103.73 0 0 1-12.94 8.85l-24.51 24.52s.68 3.4-6.12 7.49-20.43 8.85-23.83 10.21S53.9 455 53.9 455Z" style="fill:#263238"/><path d="M53.9 455.51a.52.52 0 0 1-.43-.24.5.5 0 0 1 .14-.66l137.74-101.85a.5.5 0 0 1 .68.73c-.93 1.1-22.79 27.05-29.56 32.46a107.27 107.27 0 0 1-12.94 8.87l-24.3 24.3c0 .95-.4 4.13-6.39 7.72-5.57 3.35-15.62 7.13-21 9.16-1.25.46-2.24.84-2.88 1.09-3.35 1.34-40.46 18.21-40.83 18.38a.52.52 0 0 1-.23.04Zm134.57-99.38L58 452.6c10-4.53 33.84-15.35 36.56-16.44l2.89-1.1c5.38-2 15.38-5.78 20.87-9.07 6.35-3.81 5.9-6.94 5.89-7a.54.54 0 0 1 .14-.45l24.51-24.51.14-.03a105.9 105.9 0 0 0 12.87-8.81c5.25-4.19 20.32-21.69 26.6-29.06Z" style="fill:#263238"/><path d="M224.55 311.91c-2.38.72-11 .24-11 .24s-5.24-4-7.86-6.44-9.3-16.45-12.64-17.17-17.41 7.4-17.41 7.4-11.44-5-14.3-4.53-12.17 8.82-12.17 8.82-12.87-1.91-15.26 1.91-6.2 16-10 23.6-17.65 27.9-17.65 27.9l-1.9 2.62s2.86 1 11.68 5.49 22.89 26 22.89 26 19.55-9.06 30.52-14.07 19.79-16 22.18-20.51 6.44-8.82 11.44-12.87 14.31-5.73 16.46-8.59-1.44-7.15-1.44-7.15a34.73 34.73 0 0 0 3.82-2.39c1.19-1 6-3.57 6.44-6.43s-1.41-4.54-3.8-3.83Zm-36.72 22.89 4.53-13.8c1.91 1.43 10.26 4.53 10.26 4.53-5.49 1.4-14.79 9.27-14.79 9.27Z" style="fill:#fff"/><path d="M139 388.24a.51.51 0 0 1-.42-.23c-.14-.21-14.09-21.4-22.7-25.82s-11.58-5.44-11.61-5.45a.5.5 0 0 1-.27-.74l1.91-2.62c.13-.19 13.85-20.32 17.6-27.83 1.88-3.75 3.78-8.68 5.46-13 1.8-4.65 3.35-8.66 4.58-10.63 2.37-3.8 13.69-2.42 15.52-2.17 1.55-1.37 9.45-8.32 12.24-8.79s12.42 3.63 14.36 4.47c2.22-1.27 14.25-8 17.54-7.33 2.09.45 4.84 4.76 8.5 10.79 1.75 2.89 3.41 5.62 4.37 6.5 2.36 2.14 6.91 5.69 7.72 6.32 1.16.06 8.54.4 10.64-.23a3.48 3.48 0 0 1 3.37.6 4 4 0 0 1 1.08 3.78c-.42 2.52-3.67 4.72-5.61 6-.43.29-.78.53-1 .71a31.41 31.41 0 0 1-3.38 2.15c.91 1.25 3 4.71 1.09 7.29-1.15 1.54-4 2.67-7.31 4s-6.77 2.69-9.23 4.68c-5.42 4.39-9.12 8.55-11.32 12.73S181 369 169.68 374.12c-10.84 4.95-30.32 14-30.52 14.07a.54.54 0 0 1-.16.05ZM105.17 356c1.25.49 4.51 1.88 11.12 5.27 8.31 4.27 20.89 22.87 22.84 25.8 2.82-1.3 20.14-9.32 30.13-13.89 11.1-5.06 19.72-16 22-20.28s6-8.56 11.57-13c2.58-2.09 6.25-3.55 9.49-4.84 3-1.21 5.89-2.35 6.88-3.66 1.88-2.51-1.39-6.49-1.42-6.53a.52.52 0 0 1-.11-.41.49.49 0 0 1 .26-.35 35.48 35.48 0 0 0 3.74-2.34c.24-.19.61-.44 1.07-.75 1.69-1.15 4.84-3.28 5.18-5.38a3 3 0 0 0-.75-2.86 2.45 2.45 0 0 0-2.42-.39c-2.44.73-10.79.28-11.14.26a.56.56 0 0 1-.28-.1c-.05-.05-5.29-4.1-7.9-6.47-1.07-1-2.69-3.64-4.56-6.72-2.54-4.19-6-9.94-7.85-10.33-2.57-.57-13.18 5.11-17.05 7.34a.48.48 0 0 1-.45 0c-3.14-1.37-11.8-4.86-14-4.49s-9.35 6.41-11.91 8.7a.47.47 0 0 1-.41.12c-3.49-.51-12.95-1.22-14.76 1.68-1.18 1.89-2.79 6.05-4.5 10.46s-3.6 9.32-5.49 13.1c-3.79 7.58-17.54 27.76-17.68 28Zm119.38-44.12Zm-36.72 23.42a.57.57 0 0 1-.28-.08.51.51 0 0 1-.19-.57l4.53-13.83a.47.47 0 0 1 .32-.32.51.51 0 0 1 .45.07c1.83 1.37 10.05 4.43 10.13 4.46a.5.5 0 0 1 0 1c-5.31 1.38-14.49 9.12-14.59 9.19a.47.47 0 0 1-.37.08Zm4.81-13.55-3.8 11.58c2.51-2 8-6.21 12.28-7.86a75.45 75.45 0 0 1-8.48-3.72Z" style="fill:#263238"/><path d="M140.14 316.46a.49.49 0 0 1-.49-.41c-.07-.43-.72-4.22-.22-5.73s7.93-9 9.42-10.45a.5.5 0 0 1 .71.71c-3.38 3.38-8.86 9.1-9.18 10.06s.06 4.15.26 5.24a.51.51 0 0 1-.41.58ZM147.77 321.23a.36.36 0 0 1-.14 0 .48.48 0 0 1-.33-.62l1.9-6.2a.51.51 0 0 1 .19-.26l26-18.6a.5.5 0 0 1 .7.12.49.49 0 0 1-.12.69l-25.85 18.5-1.86 6a.48.48 0 0 1-.49.37ZM160.65 325.76h-.08a.5.5 0 0 1-.41-.57c.16-1 1.05-6.21 2.32-7.23s9-2.84 10.34-3.17c2.53-2.18 14-12 16.44-12 1 0 3.68 1.16 8.33 3.21 5.63 2.49 13.34 5.89 15.94 5.61a.5.5 0 0 1 .11 1c-2.87.31-10.09-2.88-16.45-5.69-3.49-1.54-7.09-3.13-7.93-3.13-1.6 0-10.59 7.24-15.88 11.8a.65.65 0 0 1-.22.11c-3.46.82-9.25 2.36-10 3s-1.58 4.21-2 6.6a.49.49 0 0 1-.51.46ZM222.88 316.66a4.46 4.46 0 0 1-3.48-1.31c-.57-.66-.75-1.25-.52-1.76.42-.93 2-1 2.33-1a.5.5 0 0 1 .5.5.49.49 0 0 1-.49.5c-.58 0-1.33.18-1.43.4 0 .07 0 .29.36.69 1.51 1.73 5.07.71 6.41.33a.48.48 0 0 1 .61.34.49.49 0 0 1-.34.62 14.94 14.94 0 0 1-3.95.69ZM202.62 326a.5.5 0 0 1-.26-.93c.36-.21 8.92-5.11 16-.95a.49.49 0 0 1 .18.68.51.51 0 0 1-.69.18c-6.57-3.86-14.91.91-15 .95a.47.47 0 0 1-.23.07ZM213.58 334.83a.5.5 0 0 1-.49-.42l-.24-1.43a29.89 29.89 0 0 0-2.1-5.11.49.49 0 0 1 0-.41.47.47 0 0 1 .29-.28l4.77-1.67a.5.5 0 1 1 .33.94l-4.23 1.49a27.31 27.31 0 0 1 1.94 4.87l.24 1.43a.51.51 0 0 1-.41.58ZM183.54 344.84a.45.45 0 0 1-.2 0 .51.51 0 0 1-.26-.67l4.3-9.53a.49.49 0 0 1 .66-.25.5.5 0 0 1 .25.66l-4.29 9.49a.51.51 0 0 1-.46.3Z" style="fill:#263238"/><path d="M74.57 371.76s15-9.77 20.51-13.83 8.34-3.34 11.2-4.29S123.45 357 133 368.9s8.58 20.74 7.39 23.13-31.23 20.51-31.23 20.51-4.3-17.17-16.93-27.43-17.66-13.35-17.66-13.35Z" style="fill:#b2299f"/><path d="M109.15 413a.58.58 0 0 1-.19 0 .51.51 0 0 1-.3-.34c0-.17-4.4-17.13-16.76-27.16s-17.54-13.28-17.59-13.31a.49.49 0 0 1-.24-.42.51.51 0 0 1 .23-.43c.15-.1 15.07-9.81 20.48-13.81a18.43 18.43 0 0 1 9-3.84 16.18 16.18 0 0 0 2.38-.52c3.4-1.14 17.94 3.78 27.25 15.42 9.73 12.16 8.68 21.21 7.45 23.66S112.49 411.1 109.4 413a.44.44 0 0 1-.25 0Zm-33.66-41.24c1.73 1.16 7 4.83 17 13 11.23 9.11 16 23.79 16.92 27 11.6-7 29.68-18.35 30.48-20 1.15-2.3 2.08-10.84-7.33-22.6-9.57-12-23.78-15.89-26.16-15.1a16.43 16.43 0 0 1-2.52.57 17.31 17.31 0 0 0-8.54 3.65c-4.75 3.59-16.92 11.57-19.85 13.48Z" style="fill:#263238"/><path d="M14.48 400.29s27.83-17 32.47-19.8 10-6.6 10-6.6 1.46-7.36 8.54-7.61 13.92 2.54 23.19 7.61 20.75 23.61 22 31 3.66 9.64 1.71 14.46-9.28 5.08-10.74 5.08-4.88 3.05-4.88 3.05l-52.24 34" style="fill:#b2299f"/><path d="M44.51 462a.51.51 0 0 1-.42-.23.49.49 0 0 1 .15-.69l52.23-34c.54-.49 3.58-3.13 5.16-3.13 1.39 0 8.44-.23 10.28-4.76 1.21-3 .66-4.89-.26-8a47.6 47.6 0 0 1-1.48-6.18c-1.23-7.38-12.64-25.64-21.72-30.61-8.87-4.85-15.8-7.82-22.93-7.55-6.61.23-8.06 7.14-8.07 7.21a.51.51 0 0 1-.2.31c-.06 0-5.44 3.85-10 6.62S15 400.54 14.74 400.71a.49.49 0 0 1-.68-.16.5.5 0 0 1 .16-.69c.28-.17 27.89-17 32.47-19.8 4.14-2.49 8.92-5.83 9.83-6.47.31-1.22 2.25-7.57 9-7.81 7.37-.27 14.43 2.74 23.45 7.67 9.29 5.09 21 23.77 22.22 31.32a48.07 48.07 0 0 0 1.46 6.06c.91 3.11 1.57 5.36.22 8.68-2.07 5.13-9.69 5.39-11.2 5.39-.93 0-3.28 1.79-4.55 2.92l-52.3 34.06a.53.53 0 0 1-.31.12Z" style="fill:#263238"/><path d="M98.65 420.41a.5.5 0 0 1-.27-.08.49.49 0 0 1-.15-.69c4-6.19 2.3-7.76 2.29-7.77a.51.51 0 0 1-.07-.7.48.48 0 0 1 .68-.09c.26.19 2.43 2.1-2.06 9.1a.51.51 0 0 1-.42.23ZM90.85 428.84a.54.54 0 0 1-.36-.14.5.5 0 0 1 0-.71 22 22 0 0 0 6.71-13.29.5.5 0 1 1 1 0c0 .3-.4 7.41-7 14a.49.49 0 0 1-.35.14Z" style="fill:#263238"/></svg>