<svg xmlns="http://www.w3.org/2000/svg" viewBox="0 0 500 500"><ellipse cx="249.99" cy="328.15" rx="236.58" ry="136.59" style="fill:#f5f5f5"/><path d="m241.8 255.52 124.52 71.88a4.41 4.41 0 0 0 4 0l90.48-52.24a1.22 1.22 0 0 0 0-2.32L336.32 201a4.41 4.41 0 0 0-4 0l-90.52 52.19a1.23 1.23 0 0 0 0 2.33ZM75.61 363.07 151 406.58a4.47 4.47 0 0 0 4 0l105.61-61a1.23 1.23 0 0 0 0-2.33l-75.37-43.51a4.47 4.47 0 0 0-4 0l-105.61 61a1.23 1.23 0 0 0-.02 2.33ZM179.87 412l48.9 28.23a4.41 4.41 0 0 0 4 0l92.09-53.16a1.23 1.23 0 0 0 0-2.33L276 356.52a4.47 4.47 0 0 0-4 0l-92.09 53.17a1.22 1.22 0 0 0-.04 2.31ZM55.34 319.08l-29.11-16.81c-1.64-.94-1.64-2.48 0-3.43l176.88-102.13a6.55 6.55 0 0 1 5.94 0l29.11 16.8c1.64 1 1.64 2.49 0 3.44L61.28 319.08a6.61 6.61 0 0 1-5.94 0Z" style="fill:#e0e0e0"/><path d="m160 289.13 25-14.47c2.58-1.49 3.87-3.44 3.87-5.39v-3.48l-26-14.64a5.5 5.5 0 0 1-2.49-4.31V216l-43.7 25.25v30.85a5.48 5.48 0 0 0 2.49 4.31l22.08 12.73c5.18 2.97 13.54 2.97 18.75-.01Z" style="fill:#263238"/><path d="M127.19 277.55V281l-8-4.62a5.5 5.5 0 0 1-2.48-4.31v-30.82l8.32-4.81c.17 2.12.36 4.3.53 6.43l-5.83 3.38v24.1a5.47 5.47 0 0 0 2.48 4.31Z" style="opacity:.30000000000000004"/><path d="M119.71 270.35a5.54 5.54 0 0 0 2.49 4.32l19.07 11c5.16 3 13.52 3 18.68 0l25-14.46c5.16-3 5.16-7.81 0-10.79l-19.07-11a5.51 5.51 0 0 1-2.49-4.32V221l-43.71 25.25Z" style="fill:#455a64"/><path d="m171 252.35-5.07-2.92a5.51 5.51 0 0 1-2.49-4.32V221l-43.71 25.25v24.1a5.54 5.54 0 0 0 2.49 4.32l5 2.88ZM188.85 265.79v3.48c0 2-1.3 3.9-3.87 5.39l-25 14.46a18.72 18.72 0 0 1-8.91 2.22v-3.47a18.72 18.72 0 0 0 8.91-2.21l25-14.47c2.57-1.49 3.87-3.44 3.87-5.4Z" style="fill:#37474f"/><path d="M235.28 56.12v136.73a6.88 6.88 0 0 1-3.1 5.39l-4.57 2.63-1.66 1-4.82 2.78-2.13 1.22-79.1 45.66-3.66 2.11-22.78 13.16-3.67 2.12-10.72 6.19-3.45 2-3.4 2-3.31 1.89-4.84 2.79-4.65 2.68-31.8 18.38-.29.14h-.08c-1.55.68-2.75-.15-2.75-2v2.59a5.94 5.94 0 0 1-2.92-.67 6.68 6.68 0 0 1-2.91-5.28V162.94a6.88 6.88 0 0 1 3.1-5.39L226.33 51a5.82 5.82 0 0 1 8.92 4.63 4.58 4.58 0 0 1 .03.49Z" style="fill:#455a64"/><path d="M235.28 56.12v136.73a6.88 6.88 0 0 1-3.1 5.39l-4.57 2.63-1.66 1-4.82 2.78-2.13 1.22-79.1 45.66-3.66 2.11-22.78 13.16-3.67 2.12-10.72 6.19-3.45 2-3.4 2-3.31 1.89-4.84 2.79-4.65 2.68-31.8 18.38-.29.14h-.08c-1.55.68-2.75-.15-2.75-2V166.3a6.85 6.85 0 0 1 3.12-5.38L232.18 54.33c1.56-.91 2.84-.33 3.07 1.26a4.58 4.58 0 0 1 .03.53Z" style="fill:#37474f"/><path d="M44.5 303v-9.1l-5.83-3.37v9.13a6.68 6.68 0 0 0 2.91 5.28 5.94 5.94 0 0 0 2.92.67 5.68 5.68 0 0 0 .72-.05 5.46 5.46 0 0 0 .69-.1h.06a4.75 4.75 0 0 0 .54-.14l.17-.05c.18-.07.36-.14.54-.23-1.52.65-2.72-.18-2.72-2.04Z" style="fill:#263238"/><path d="M235.28 183.69v9.16a6.88 6.88 0 0 1-3.1 5.39l-4.57 2.63-1.66 1-4.82 2.78-2.13 1.22-79.1 45.66-3.66 2.11-22.78 13.16-3.67 2.12-10.72 6.19-3.45 2-3.4 2-3.31 1.89-4.84 2.79-4.65 2.68-31.8 18.38-.29.14h-.08c-1.55.68-2.75-.15-2.75-2v-9.09Z" style="fill:#455a64"/><path d="M45.42 163.23a6.52 6.52 0 0 0-.92 3.07v127.6l-5.84-3.38V162.94a6.45 6.45 0 0 1 .92-3.08Z" style="fill:#263238"/><path d="M138.78 250.29a1.93 1.93 0 0 1-1-.27 2.5 2.5 0 0 1-1.11-2.32 6.9 6.9 0 0 1 3.17-5.49 2.26 2.26 0 0 1 3.67 2.12 6.91 6.91 0 0 1-3.17 5.49 3.17 3.17 0 0 1-1.56.47Zm1.55-7.22a6 6 0 0 0-2.67 4.63 1.3 1.3 0 0 0 2.17 1.25 6 6 0 0 0 2.67-4.62 1.3 1.3 0 0 0-2.17-1.26Z" style="fill:#fafafa"/><path d="M50.34 278.28v-110a4.11 4.11 0 0 1 1.87-3.28L227.57 63.73c1-.6 1.87-.12 1.87 1.08v110a4.14 4.14 0 0 1-1.87 3.24L52.21 279.36c-1.03.64-1.87.11-1.87-1.08Z" style="fill:#b2299f"/><path d="m59.58 166 158.54-91.54c1.11-.65 2-.13 2 1.16v100a4.46 4.46 0 0 1-2 3.49L59.58 270.65c-1.11.64-2 .12-2-1.16v-100a4.45 4.45 0 0 1 2-3.49Z" style="fill:#fafafa"/><path d="M193.67 189.88a.5.5 0 0 1-.5-.5V123.5a.5.5 0 1 1 1 0v65.88a.5.5 0 0 1-.5.5Z" style="fill:#e0e0e0"/><path d="m199.47 118.81 14.87-8.58c1.11-.64 2-.12 2 1.16v17.18a4.48 4.48 0 0 1-2 3.49l-14.88 8.58c-1.11.65-2 .12-2-1.16V122.3a4.46 4.46 0 0 1 2.01-3.49Z" style="fill:#b2299f"/><path d="m199.47 118.81 14.87-8.58c1.11-.64 2-.12 2 1.16v17.18a4.48 4.48 0 0 1-2 3.49l-14.88 8.58c-1.11.65-2 .12-2-1.16V122.3a4.46 4.46 0 0 1 2.01-3.49Z" style="fill:#fff;opacity:.75"/><path d="M213 122a.81.81 0 0 0-1.21.22l-2.66 4.61 2.17 3-7.07-6.49a.78.78 0 0 0-1.25.23l-5.5 11.3v4.52c0 1.28.9 1.81 2 1.16l14.88-8.58a4.48 4.48 0 0 0 2-3.49v-3.68Z" style="fill:#b2299f;opacity:.8"/><path d="M210 116.43a4.17 4.17 0 0 0-1.89 3.27c0 1.21.85 1.69 1.89 1.09a4.19 4.19 0 0 0 1.89-3.27c-.02-1.21-.89-1.7-1.89-1.09Z" style="fill:#fff"/><path d="m198.46 144.44 16.89-9.75c.55-.32 1-.09 1 .51a2.17 2.17 0 0 1-1 1.67l-16.89 9.75c-.56.32-1 .09-1-.51a2.15 2.15 0 0 1 1-1.67ZM198.46 147.77l16.89-9.77c.55-.32 1-.09 1 .51a2.17 2.17 0 0 1-1 1.67L198.46 150c-.56.32-1 .09-1-.51a2.15 2.15 0 0 1 1-1.72ZM198.46 151.11l16.89-9.75c.55-.32 1-.1 1 .51a2.17 2.17 0 0 1-1 1.67l-16.89 9.75c-.56.32-1 .09-1-.51a2.15 2.15 0 0 1 1-1.67Z" style="fill:#e0e0e0"/><path d="m199.47 156.18 14.87-8.58c1.11-.64 2-.12 2 1.16v17.18a4.48 4.48 0 0 1-2 3.49L199.46 178c-1.11.65-2 .12-2-1.16v-17.17a4.46 4.46 0 0 1 2.01-3.49Z" style="fill:#b2299f"/><path d="m199.47 156.18 14.87-8.58c1.11-.64 2-.12 2 1.16v17.18a4.48 4.48 0 0 1-2 3.49L199.46 178c-1.11.65-2 .12-2-1.16v-17.17a4.46 4.46 0 0 1 2.01-3.49Z" style="fill:#fff;opacity:.75"/><path d="M213 159.41a.81.81 0 0 0-1.21.22l-2.66 4.61 2.17 3-7.07-6.49a.78.78 0 0 0-1.23.25l-5.5 11.29v4.52c0 1.28.9 1.81 2 1.16l14.88-8.58a4.48 4.48 0 0 0 2-3.49v-3.68Z" style="fill:#b2299f;opacity:.8"/><path d="M210 153.8a4.17 4.17 0 0 0-1.89 3.27c0 1.21.85 1.69 1.89 1.09a4.19 4.19 0 0 0 1.89-3.27c-.02-1.21-.89-1.7-1.89-1.09Z" style="fill:#fff"/><path d="m198.46 181.81 16.89-9.75c.55-.32 1-.09 1 .51a2.17 2.17 0 0 1-1 1.67L198.46 184c-.56.32-1 .09-1-.51a2.15 2.15 0 0 1 1-1.68ZM198.46 185.14l16.89-9.75c.55-.32 1-.09 1 .51a2.17 2.17 0 0 1-1 1.67l-16.89 9.76c-.56.32-1 .09-1-.51a2.15 2.15 0 0 1 1-1.68Z" style="fill:#e0e0e0"/><path d="M93.61 194.25 184.09 142c1.12-.64 2-.12 2 1.17v47.73a4.44 4.44 0 0 1-2 3.49l-90.48 52.25c-1.12.64-2 .12-2-1.16v-47.74a4.46 4.46 0 0 1 2-3.49Z" style="fill:#b2299f"/><path d="M93.61 194.25 184.09 142c1.12-.64 2-.12 2 1.17v47.73a4.44 4.44 0 0 1-2 3.49l-90.48 52.25c-1.12.64-2 .12-2-1.16v-47.74a4.46 4.46 0 0 1 2-3.49Z" style="fill:#fff;opacity:.75"/><path d="M152.08 170.12a10.84 10.84 0 0 0-4.9 8.48c0 3.13 2.2 4.39 4.9 2.83A10.81 10.81 0 0 0 157 173c0-3.18-2.21-4.45-4.92-2.88Z" style="fill:#fff"/><path d="m93.61 246.64 90.48-52.24a4.44 4.44 0 0 0 2-3.49v-2.52l-16.82-12.59a2.55 2.55 0 0 0-3.59.54l-15.59 21.26 6.95 8.05-28.12-20.19a2.55 2.55 0 0 0-3.65.72l-33.68 53.89v5.41c0 1.28.9 1.8 2.02 1.16Z" style="fill:#b2299f;opacity:.8"/><path d="M220.13 74.87v7.85L57.56 176.58v-7.85a3.24 3.24 0 0 1 1.44-2.54L218.67 74c.81-.45 1.46-.07 1.46.87Z" style="fill:#455a64"/><path d="M220.13 82.72v9.55L57.56 186.13v-9.55l3-1.75c.81-.47 1.08-1.18 1.47-2.55l1-3.55a3.72 3.72 0 0 1 1.47-2.55l35-20.23c.82-.46 1.45-.52 2.07.51l1.26 2.28c.46.79.69 1.26 1.5.79Z" style="fill:#e6e6e6"/><path d="M214.43 79.43c.87-.5 1.57-.09 1.57.9a3.46 3.46 0 0 1-1.57 2.72c-.86.5-1.56.09-1.56-.91a3.46 3.46 0 0 1 1.56-2.71ZM208.79 82.68c.87-.5 1.57-.09 1.57.91a3.45 3.45 0 0 1-1.57 2.71c-.86.5-1.57.1-1.57-.9a3.49 3.49 0 0 1 1.57-2.72ZM203.15 85.93c.87-.49 1.57-.09 1.57.91a3.45 3.45 0 0 1-1.57 2.71c-.87.5-1.57.1-1.57-.9a3.46 3.46 0 0 1 1.57-2.72Z" style="fill:#fff"/><path d="M64.3 177.27 62 178.6l.87-1.69a.42.42 0 0 0 0-.42c-.07-.08-.18 0-.26.13L61.38 179a.36.36 0 0 0 0 .09.49.49 0 0 0 0 .12.34.34 0 0 0 0 .11l1.25 1a.09.09 0 0 0 .12 0 .31.31 0 0 0 .14-.17c.07-.16.06-.34 0-.4l-.87-.67 2.3-1.33a.51.51 0 0 0 .19-.4c-.02-.06-.11-.14-.21-.08ZM66.23 176.15l2.3-1.33-.88-.67a.39.39 0 0 1 0-.4c.06-.15.18-.23.26-.17l1.25 1a.1.1 0 0 1 0 .05.34.34 0 0 1 0 .11.49.49 0 0 1 0 .12.36.36 0 0 1 0 .09l-1.25 2.4a.35.35 0 0 1-.12.14h-.14a.44.44 0 0 1 0-.42l.88-1.69-2.3 1.33c-.11.06-.19 0-.19-.17a.48.48 0 0 1 .19-.39ZM73.79 169.51c0-.14-.13-.12-.2 0l-.31.78c-.54-.06-1.19.46-1.63 1.4-.57 1.21-.57 2.64 0 3.18a.81.81 0 0 0 1 .07 2.88 2.88 0 0 0 1-1.26.4.4 0 0 0 0-.4c-.07-.07-.19 0-.26.15-.43.9-1.12 1.3-1.55.89a2.31 2.31 0 0 1 0-2.38c.3-.64.74-1 1.12-1.05l-.24.58c-.06.16 0 .3.09.23l.94-.61a.29.29 0 0 0 .11-.26ZM98.57 150.31l.84-1.78a.53.53 0 0 0 0-.55c-.1-.1-.26 0-.36.21l-.84 1.81-.84-.81c-.1-.1-.26 0-.36.21a.53.53 0 0 0 0 .55l.84.81-.85 1.75a.53.53 0 0 0 0 .55.14.14 0 0 0 .18 0 .46.46 0 0 0 .18-.22l.84-1.78.84.81a.14.14 0 0 0 .18 0 .43.43 0 0 0 .18-.21.55.55 0 0 0 0-.56Z" style="fill:#455a64;opacity:.5"/><path d="M76.85 171.7v-3a3.23 3.23 0 0 1 1.47-2.54L210.4 90c.81-.47 1.47-.09 1.47.85v3a3.26 3.26 0 0 1-1.47 2.54L78.32 172.55c-.81.45-1.47.09-1.47-.85Z" style="fill:#fafafa"/><path d="M208.4 96.68a.57.57 0 0 1-.18 0 .53.53 0 0 1-.29-.57l.14-1.14-.51-.37a.5.5 0 0 1-.21-.42.81.81 0 0 1 .29-.61l.86-.67.39-1.27a.63.63 0 0 1 .54-.49.45.45 0 0 1 .45.27l.28.59.62-.24a.46.46 0 0 1 .53.12.66.66 0 0 1 0 .73l-.62 1.17.14 1.06a.79.79 0 0 1-.22.63.55.55 0 0 1-.44.17l-.64-.08-.72.92a.57.57 0 0 1-.41.2Zm-.24-2.6.46.34a.53.53 0 0 1 .2.51v.38L209 95a.55.55 0 0 1 .5-.23l.57.07-.12-1a.73.73 0 0 1 .09-.45l.39-.74-.26.1a.47.47 0 0 1-.6-.24l-.12-.26-.25.83a.79.79 0 0 1-.26.38Z" style="fill:#e0e0e0"/><g style="opacity:.5"><path d="M213.73 89.65a.48.48 0 0 1-.24-.89l3.88-2.24a.48.48 0 0 1 .65.17.49.49 0 0 1-.18.66L214 89.58a.44.44 0 0 1-.27.07ZM213.73 91.89a.48.48 0 0 1-.24-.89l3.88-2.24a.47.47 0 1 1 .47.82L214 91.82a.44.44 0 0 1-.27.07ZM213.73 94.13a.48.48 0 0 1-.24-.89l3.88-2.24a.46.46 0 0 1 .65.17.48.48 0 0 1-.18.65L214 94.06a.55.55 0 0 1-.27.07Z" style="fill:#455a64"/></g><path d="m67 186.47 12.41-7.17c.46-.26.83-.05.83.48v1.08a1.84 1.84 0 0 1-.83 1.44L67 189.47c-.46.26-.83.05-.83-.48v-1.08a1.87 1.87 0 0 1 .83-1.44Z" style="fill:#e0e0e0"/><path d="M63.59 189.41v1.08a1.81 1.81 0 0 1-.83 1.43l-.93.54c-.46.27-.83 0-.83-.48v-1.08a1.82 1.82 0 0 1 .83-1.43l.93-.54c.46-.27.83-.05.83.48Z" style="fill:#b2299f"/><path d="m67 192.44 12.41-7.17c.46-.27.83-.05.83.48v1.08a1.81 1.81 0 0 1-.83 1.43L67 195.43c-.46.27-.83 0-.83-.47v-1.08a1.85 1.85 0 0 1 .83-1.44Z" style="fill:#e0e0e0"/><path d="M63.59 195.37v1.08a1.83 1.83 0 0 1-.83 1.44l-.93.54c-.46.26-.83 0-.83-.48v-1.08a1.84 1.84 0 0 1 .83-1.44l.93-.53c.46-.27.83-.06.83.47Z" style="fill:#b2299f"/><path d="m67 198.41 12.41-7.17c.46-.27.83-.05.83.47v1.08a1.83 1.83 0 0 1-.83 1.44L67 201.4c-.46.27-.83 0-.83-.48v-1.08a1.84 1.84 0 0 1 .83-1.43Z" style="fill:#e0e0e0"/><path d="M63.59 201.34v1.08a1.84 1.84 0 0 1-.83 1.44l-.93.54c-.46.26-.83 0-.83-.48v-1.08a1.84 1.84 0 0 1 .83-1.44l.93-.54c.46-.26.83-.05.83.48Z" style="fill:#b2299f"/><path d="m67 204.28 12.41-7.17c.46-.26.83-.05.83.48v1.08a1.81 1.81 0 0 1-.83 1.43L67 207.28c-.46.26-.83.05-.83-.48v-1.08a1.87 1.87 0 0 1 .83-1.44Z" style="fill:#e0e0e0"/><path d="M63.59 207.21v1.08a1.83 1.83 0 0 1-.83 1.44l-.93.54c-.46.26-.83 0-.83-.48v-1.08a1.81 1.81 0 0 1 .83-1.43l.93-.54c.46-.27.83-.05.83.47Z" style="fill:#b2299f"/><path d="m67 209.91 12.41-7.17c.46-.26.83-.05.83.48v1.08a1.84 1.84 0 0 1-.83 1.44L67 212.91c-.46.26-.83.05-.83-.48v-1.08a1.87 1.87 0 0 1 .83-1.44Z" style="fill:#e0e0e0"/><path d="M63.59 212.85v1.08a1.81 1.81 0 0 1-.83 1.43l-.93.54c-.46.27-.83 0-.83-.48v-1.08a1.82 1.82 0 0 1 .83-1.43l.93-.54c.46-.27.83-.05.83.48Z" style="fill:#b2299f"/><path d="M84 253.11a.5.5 0 0 1-.5-.5V173.7a.5.5 0 0 1 .5-.5.5.5 0 0 1 .5.5v78.91a.5.5 0 0 1-.5.5Z" style="fill:#e0e0e0"/><path d="M96.17 178.37a10.14 10.14 0 0 0-4.58 7.94c0 2.92 2 4.11 4.58 2.65a10.16 10.16 0 0 0 4.59-7.94c-.01-2.93-2.06-4.11-4.59-2.65Z" style="fill:#b2299f"/><path d="M95.64 183a.83.83 0 0 1-.41-.1 1 1 0 0 1-.44-.92 2.63 2.63 0 0 1 1.21-2.06.9.9 0 0 1 1.45.84 2.64 2.64 0 0 1-1.2 2.09 1.25 1.25 0 0 1-.61.15ZM98 183.34a1.58 1.58 0 0 0-1.61.12l-.67.38a4.52 4.52 0 0 0-2.06 3.58v.47a2.56 2.56 0 0 0 2.53-.27A7.34 7.34 0 0 0 98.7 185v-.11a1.65 1.65 0 0 0-.7-1.55Z" style="fill:#fff"/><path d="M104 177.24c0 1.2.91 1.66 2 1l18.65-10.77a4.32 4.32 0 0 0 2-3.35c0-1.21-.9-1.66-2-1L106 173.89a4.33 4.33 0 0 0-2 3.35Z" style="fill:#455a64"/><path d="M104 182.8c0 .62.47.86 1 .53l9.7-5.6a2.27 2.27 0 0 0 1-1.74c0-.63-.47-.87-1-.53l-9.7 5.6a2.23 2.23 0 0 0-1 1.74Z" style="fill:#e0e0e0"/><path style="fill:#b2299f" d="M83.55 171.11v11.49l136.58-78.86V92.27L83.55 171.11z"/><path style="opacity:.30000000000000004" d="M83.55 171.11v11.49l136.58-78.86V92.27L83.55 171.11z"/><path d="m93.6 169 71.59-41.33c1.11-.64 2-.18 2 1a4.32 4.32 0 0 1-2 3.35l-71.58 41.35c-1.12.64-2 .18-2-1A4.32 4.32 0 0 1 93.6 169Z" style="fill:#fafafa"/><path d="M448 282a12.91 12.91 0 0 0 5.36-2 10.69 10.69 0 0 0 4.59-6.92c.36-2.12-1.59-5.57.21-7.23 2.39-2.21 9.61-.62 11-5 1.16-3.58-3.27-6.52-1.08-10 1.75-2.73 5.42-4.12 6.57-7.23 1.25-3.4-1.64-5.49-4.72-5.83-4.11-.46-6.9 2.39-10.35 4-2 .94-3.6-.35-5.45-1-3.15-1-6.76.52-8.79 3.14a13.3 13.3 0 0 0-2.51 6.31c-.33 2.26.17 4.3.51 6.55a17 17 0 0 1 0 6.66c-.61 2.42-2.29 4.28-3.13 6.59-1.09 3-.45 6.1.32 9.13a3.6 3.6 0 0 0 1.23 2.24 3.49 3.49 0 0 0 1.31.43 15.79 15.79 0 0 0 4.93.16Z" style="fill:#b2299f"/><path d="M446.79 269.56a.4.4 0 0 0 .37-.36c1.24-12.76 15.24-24 22.73-26.71a.39.39 0 0 0 .23-.51.38.38 0 0 0-.5-.23c-7.66 2.77-22 14.28-23.25 27.38a.39.39 0 0 0 .35.43Z" style="fill:#fff"/><path d="M463.39 257.85a.39.39 0 0 0 .33-.21.41.41 0 0 0-.17-.54c-.25-.12-6.11-3.05-11.57-1.14a.4.4 0 1 0 .26.75c5.13-1.8 10.89 1.07 10.95 1.1a.34.34 0 0 0 .2.04ZM450 259a.39.39 0 0 0 .76 0c.08-.27 2-6.55-.86-11.6a.4.4 0 0 0-.7.39c2.66 4.75.82 10.91.8 11a.37.37 0 0 0 0 .21Z" style="fill:#fff"/><path d="m86.61 320.57 7.27-4.23s2.5-15.83 0-29.52c-3.49-19.23-16.79-25.59-21.52-23.56S66.65 271 75.53 282c5.24 6.46 10.83 20.65 11.08 38.57Z" style="fill:#b2299f"/><path d="m86.61 320.57 7.27-4.23s2.5-15.83 0-29.52c-3.49-19.23-16.79-25.59-21.52-23.56S66.65 271 75.53 282c5.24 6.46 10.83 20.65 11.08 38.57Z" style="opacity:.15"/><path d="M89.9 312.42h-.06a.43.43 0 0 1-.38-.48c2.08-18.13-5.65-37.76-14-45.56a.43.43 0 1 1 .59-.63c8.5 7.94 16.38 27.89 14.27 46.29a.43.43 0 0 1-.42.38Z" style="fill:#fff"/><path d="M70.49 329.91c-.94.57-3-.44-3.77-.92a9.18 9.18 0 0 1-3.11-3.41 8.54 8.54 0 0 1-.87-5.12 20.25 20.25 0 0 1 .58-2.74c.23-.89.47-1.77.7-2.66a6.85 6.85 0 0 0 .33-2.68c-.28-1.81-1.91-3-3.4-4.1-1.64-1.17-3.36-2.73-3.4-4.91a7.71 7.71 0 0 1 1.81-4.61c1-1.34 2.22-2.54 3.13-3.95a5.31 5.31 0 0 0 1-3.41 5.51 5.51 0 0 0-.78-2.1 29.74 29.74 0 0 1-2.42-4.19 4.29 4.29 0 0 1 .63-4.53 5 5 0 0 1 3.73-1c2.31.1 4.54 1.72 6.37 3s3.26 3 5.35 3.75c2.75 1 6.4.41 8.23 3.21 1.58 2.42.44 5.15.28 7.73-.26 4.15 3.66 5.7 5.57 8.71a5.37 5.37 0 0 1 .72 3.29 16 16 0 0 1-1.26 5.63 54.77 54.77 0 0 1-3.08 5.59c-.03.03-16.2 9.33-16.34 9.42Z" style="fill:#b2299f"/><path d="M80.12 324.6a.42.42 0 0 1-.43-.44C80 307 71.5 288.34 65.51 283a.44.44 0 0 1 0-.61.43.43 0 0 1 .61 0c6.11 5.46 14.78 24.47 14.46 41.83a.43.43 0 0 1-.46.38Z" style="fill:#fff"/><path d="M77.09 304.45H77a57.44 57.44 0 0 0-12.46-1.72.42.42 0 0 1-.42-.44.41.41 0 0 1 .43-.42 58.45 58.45 0 0 1 12.69 1.75.43.43 0 0 1-.11.84Z" style="fill:#fff"/><path d="m80.23 353.86 67.4 38.86a3.47 3.47 0 0 0 3.14 0l102.45-59.14a1 1 0 0 0 0-1.81l-67.4-38.87a3.51 3.51 0 0 0-3.14 0L80.23 352.05a1 1 0 0 0 0 1.81Zm95.33-53.41a2.18 2.18 0 0 1 2.26.25l62.73 36.2a.82.82 0 0 1 0 1.55l-81.47 47a3 3 0 0 1-2.7 0l-62.73-36.2a.82.82 0 0 1 0-1.55Z" style="fill:#455a64"/><path d="M119.39 373.6a6.36 6.36 0 0 1-3.11-.75 2.49 2.49 0 0 1-1.44-2.09 2.47 2.47 0 0 1 1.44-2.08 6.76 6.76 0 0 1 6.22 0 2.47 2.47 0 0 1 1.44 2.08 2.49 2.49 0 0 1-1.44 2.09 6.36 6.36 0 0 1-3.11.75Zm0-4.67a5.35 5.35 0 0 0-2.61.61c-.6.35-.94.78-.94 1.22s.34.87.94 1.22a5.85 5.85 0 0 0 5.22 0c.61-.35.94-.78.94-1.22s-.33-.87-.94-1.22a5.33 5.33 0 0 0-2.61-.61Z" style="fill:#e6e6e6"/><path d="M253.4 331.89a3.49 3.49 0 0 1 1.39 2.6v3.93a3.48 3.48 0 0 1-1.57 2.73l-102.45 59.14a3 3 0 0 1-1.15.35h-.42v-7.54a4.46 4.46 0 0 0 .63 0 2.82 2.82 0 0 0 .94-.32l102.45-59.15c.78-.52.86-1.24.18-1.74Z" style="fill:#37474f"/><path d="M175.56 300.45a2.18 2.18 0 0 1 2.26.25l62.73 36.2a.82.82 0 0 1 0 1.55l-81.47 47a3 3 0 0 1-2.7 0l-62.73-36.2a.82.82 0 0 1 0-1.55Z" style="fill:#b2299f"/><path d="M175.56 300.45a2.18 2.18 0 0 1 2.26.25l62.73 36.2a.82.82 0 0 1 0 1.55l-81.47 47a3 3 0 0 1-2.7 0l-62.73-36.2a.82.82 0 0 1 0-1.55Z" style="fill:#fafafa"/><path d="m172.52 309.32-63.77 36.82c-2.22 1.29-2.22 3.37 0 4.65l44.87 25.91a8.88 8.88 0 0 0 8.06 0l63.77-36.82c2.22-1.28 2.22-3.37 0-4.65l-44.87-25.91a8.94 8.94 0 0 0-8.06 0Z" style="fill:#b2299f"/><path d="M161.05 363.37a9.25 9.25 0 0 1-4.5-1.09l-22.19-12.81a3.37 3.37 0 0 1 0-6.27l37.31-21.54a9.83 9.83 0 0 1 9 0l22.19 12.81a3.37 3.37 0 0 1 0 6.27l-37.31 21.54a9.24 9.24 0 0 1-4.5 1.09Zm15.12-40.93a7.44 7.44 0 0 0-3.57.83l-37.3 21.54c-.77.44-1.21 1-1.21 1.52s.44 1.08 1.21 1.52l22.18 12.81a8 8 0 0 0 7.13 0l37.31-21.54c.76-.44 1.2-1 1.2-1.52s-.44-1.08-1.2-1.52l-22.19-12.81a7.37 7.37 0 0 0-3.56-.83Z" style="fill:#fafafa"/><path d="m155.5 343.13 11.09 6.41a2.68 2.68 0 0 0 3.4-.71l8.57-11.54c.77-1 .38-1.62-.87-1.31l-21.95 5.43c-1.24.31-1.35 1.08-.24 1.72Z" style="fill:#fafafa"/><path d="M80 352.19c-.65.5-.58 1.22.21 1.67l67.4 38.86a3.2 3.2 0 0 0 1.57.38v7.56a3.1 3.1 0 0 1-1.57-.38l-67.4-38.85a3.49 3.49 0 0 1-1.57-2.72v-3.94a3.5 3.5 0 0 1 1.36-2.58ZM215.77 315.16a1.06 1.06 0 0 0 .95 0 .29.29 0 0 0 0-.55 1.06 1.06 0 0 0-.95 0 .29.29 0 0 0 0 .55ZM217.29 319.48a2.14 2.14 0 0 0 1.91 0 .58.58 0 0 0 0-1.1 2.08 2.08 0 0 0-1.91 0 .58.58 0 0 0 0 1.1ZM216 317.56c.35-.2.33-.54 0-.76l-6.27-3.61a1.44 1.44 0 0 0-1.31 0c-.35.21-.33.54 0 .76l6.27 3.62a1.47 1.47 0 0 0 1.31-.01Z" style="fill:#263238"/><path d="M183.14 402.27c-.69.53-.61 1.29.22 1.76l45.53 26.29a3.64 3.64 0 0 0 3.31 0l87-50.24c.84-.48.91-1.25.19-1.78a3.71 3.71 0 0 1 1.46 2.74v2.19a3.61 3.61 0 0 1-1.65 2.87l-87 50.24a3.66 3.66 0 0 1-3.32 0l-45.53-26.29a3.65 3.65 0 0 1-1.65-2.87V405a3.7 3.7 0 0 1 1.44-2.73Z" style="fill:#b2299f"/><path d="M183.14 402.27c-.69.53-.61 1.29.22 1.76l45.53 26.29a3.64 3.64 0 0 0 3.31 0l87-50.24c.84-.48.91-1.25.19-1.78a3.71 3.71 0 0 1 1.46 2.74v2.19a3.61 3.61 0 0 1-1.65 2.87l-87 50.24a3.66 3.66 0 0 1-3.32 0l-45.53-26.29a3.65 3.65 0 0 1-1.65-2.87V405a3.7 3.7 0 0 1 1.44-2.73Z" style="opacity:.5"/><path d="m183.36 404 45.53 26.29a3.64 3.64 0 0 0 3.31 0l87-50.24a1 1 0 0 0 0-1.9l-45.53-26.3a3.7 3.7 0 0 0-3.32 0l-87 50.23c-.9.57-.91 1.43.01 1.92Zm80-45.35a2.28 2.28 0 0 1 2.38.27l41.4 23.9a.87.87 0 0 1 0 1.64L239.4 423.6a3.13 3.13 0 0 1-2.84 0l-41.39-23.9a.87.87 0 0 1 0-1.64Z" style="fill:#b2299f"/><path d="m183.36 404 45.53 26.29a3.64 3.64 0 0 0 3.31 0l87-50.24a1 1 0 0 0 0-1.9l-45.53-26.3a3.7 3.7 0 0 0-3.32 0l-87 50.23c-.9.57-.91 1.43.01 1.92Zm80-45.35a2.28 2.28 0 0 1 2.38.27l41.4 23.9a.87.87 0 0 1 0 1.64L239.4 423.6a3.13 3.13 0 0 1-2.84 0l-41.39-23.9a.87.87 0 0 1 0-1.64Z" style="opacity:.30000000000000004"/><path d="M319.41 378.3a3.71 3.71 0 0 1 1.46 2.74v2.19a3.64 3.64 0 0 1-1.65 2.87l-87 50.24a3.57 3.57 0 0 1-1.66.4v-6a3.29 3.29 0 0 0 1.66-.4l87-50.24c.84-.5.91-1.27.19-1.8Z" style="fill:#b2299f"/><path d="M319.41 378.3a3.71 3.71 0 0 1 1.46 2.74v2.19a3.64 3.64 0 0 1-1.65 2.87l-87 50.24a3.57 3.57 0 0 1-1.66.4v-6a3.29 3.29 0 0 0 1.66-.4l87-50.24c.84-.5.91-1.27.19-1.8Z" style="opacity:.6000000000000001"/><path d="M292.08 367.61a.68.68 0 0 1 0-1.28 2.48 2.48 0 0 1 2.22 0 .67.67 0 0 1 0 1.28 2.42 2.42 0 0 1-2.22 0Z"/><path d="M210.43 416.82a5.92 5.92 0 0 1-2.87-.7 2.31 2.31 0 0 1-1.33-1.94 2.29 2.29 0 0 1 1.33-1.94 6.23 6.23 0 0 1 5.73 0 2.29 2.29 0 0 1 1.33 1.94 2.31 2.31 0 0 1-1.33 1.94 5.85 5.85 0 0 1-2.86.7Zm0-4.27a4.85 4.85 0 0 0-2.37.55 1.4 1.4 0 0 0-.83 1.08 1.37 1.37 0 0 0 .83 1.07 5.32 5.32 0 0 0 4.73 0 1.37 1.37 0 0 0 .83-1.07 1.4 1.4 0 0 0-.83-1.08 4.84 4.84 0 0 0-2.36-.55Z" style="fill:#e6e6e6"/><path d="m293.18 371.86-8.57-4.94c-.51-.3-.54-.76-.06-1a2 2 0 0 1 1.8 0l8.57 4.95c.51.3.53.76.05 1a2 2 0 0 1-1.79-.01Z"/><path d="M263.37 358.68a2.28 2.28 0 0 1 2.38.27l41.4 23.9a.87.87 0 0 1 0 1.64L239.4 423.6a3.13 3.13 0 0 1-2.84 0l-41.39-23.9a.87.87 0 0 1 0-1.64Z" style="fill:#fafafa"/><path d="m262.6 362.11.44-.25a.34.34 0 0 1 .34 0h.05c.1.05.1.14 0 .2l-.44.25a.34.34 0 0 1-.34 0c-.15-.05-.15-.14-.05-.2ZM263.38 362.57l.77-.44a.34.34 0 0 1 .34 0h.05a.1.1 0 0 1 0 .19l-.76.44a.36.36 0 0 1-.35 0h-.05c-.09-.05-.09-.14 0-.19ZM264.17 363l1.08-.62a.36.36 0 0 1 .35 0c.09.06.09.15 0 .2l-1.09.63a.4.4 0 0 1-.34 0h-.05c-.04-.04-.04-.13.05-.21ZM265 363.48l1.87-1.08a.34.34 0 0 1 .34 0h.05c.1.06.1.15 0 .2l-1.87 1.08a.36.36 0 0 1-.35 0c-.18-.06-.18-.15-.04-.2ZM267 364.78l.27-.16-.88-.51c-.05 0-.05-.05 0-.07l.09-.06h2.21l.12.08h.06a.07.07 0 0 1 0 .06l-1 .55.2.11s.05 0 .05.06v.05h-.07a.12.12 0 0 1-.08 0h-.1l-.19-.11-.28.15h-.18l-.15-.08s-.07-.05-.07-.07Zm.6-.31.69-.4h-1.33ZM268.17 365.29c0-.19.1-.36.38-.52a1.53 1.53 0 0 1 .89-.21 2 2 0 0 1 .95.29 2.21 2.21 0 0 1 .32.22.67.67 0 0 1 .18.22h-.26a1 1 0 0 0-.36-.32 1.43 1.43 0 0 0-.65-.19 1.16 1.16 0 0 0-.65.16c-.22.13-.32.25-.3.38s.12.25.33.36a1 1 0 0 0 .23.12.7.7 0 0 0 .22.07l.44-.25-.37-.21s-.05 0-.05-.06v-.05h.06a.15.15 0 0 1 .09 0h.1l.58.34a.1.1 0 0 1 .06.07s0 0-.05.06l-.63.36h-.13a2.58 2.58 0 0 1-.84-.32c-.35-.16-.51-.34-.54-.52ZM283.05 372.35l-1 .6a.08.08 0 0 0 0 .16l1 .61a.34.34 0 0 0 .28 0l1-.61c.08 0 .08-.11 0-.16l-1-.6a.28.28 0 0 0-.28 0Z" style="fill:#455a64"/><path d="M284.46 372.76a.28.28 0 0 0 0-.51.76.76 0 0 0-.72 0l-.36.21.09.15.36-.21a.64.64 0 0 1 .54 0c.05 0 .09.07.09.11s0 .07-.09.1l-.36.21.09.15ZM303.45 383.71a.35.35 0 0 0-.2-.29l-2.64-1.52a.89.89 0 0 0-.81 0l-1 .55a.36.36 0 0 0-.19.29.4.4 0 0 0 0 .15.56.56 0 0 0 .16.14l2.64 1.53a.89.89 0 0 0 .81 0l1-.56a.33.33 0 0 0 .23-.29Zm-4.61-1s0-.08.1-.12l1-.55a.68.68 0 0 1 .62 0l2.64 1.52a.15.15 0 0 1 .08.08c0 .05 0 .09-.1.13l-1 .55a.68.68 0 0 1-.62 0l-2.64-1.52c-.05.03-.08-.01-.08-.06Z" style="fill:#455a64"/><path d="m299.16 382.79.86-.5a.53.53 0 0 1 .46 0l2.38 1.37-.87.5a.53.53 0 0 1-.46 0l-2.37-1.37ZM303.38 384.08c.1.06 0 .2-.18.31l-.18.1a.66.66 0 0 1-.54.11l-.19-.1.91-.52ZM258.39 375.36a1.63 1.63 0 0 0 .89 1.07 4.29 4.29 0 0 0 4.39-.2 6 6 0 0 1-2.62-.65c-1.46-.85-1.84-1.81-.5-2.59a5.19 5.19 0 0 1 4.8.35c1.67 1 2.13 2.34 0 3.59a6.9 6.9 0 0 1-6.9.1 2.86 2.86 0 0 1-1.56-1.74Zm6.08.36c1-.74.84-1.38 0-1.86a2.56 2.56 0 0 0-2.49 0c-.76.44-.65.95.21 1.45a4.33 4.33 0 0 0 2.28.41ZM269.29 377.5c.56.33.66.77.21 1a2 2 0 0 1-1.79-.12c-.56-.33-.67-.78-.22-1a2 2 0 0 1 1.8.12Zm-3.46 2c.57.32.67.76.21 1a2 2 0 0 1-1.78-.12c-.57-.33-.68-.78-.23-1a1.94 1.94 0 0 1 1.8.12ZM270 379.84a6.07 6.07 0 0 1 6.21-.23c1.78 1 1.77 2.34-.4 3.59a6.21 6.21 0 0 1-6.27.26c-1.77-1.02-1.71-2.37.46-3.62Zm4.33 2.5c1.82-1 1.81-1.72 1-2.2s-2-.5-3.82.55-1.85 1.77-1 2.25 2.01.45 3.83-.6ZM276.92 383.83a6.07 6.07 0 0 1 6.21-.23c1.78 1 1.77 2.34-.39 3.59a6.23 6.23 0 0 1-6.28.26c-1.78-1.02-1.72-2.37.46-3.62Zm4.33 2.5c1.82-1.05 1.81-1.72 1-2.2s-2-.5-3.82.55-1.85 1.77-1 2.25 2 .45 3.82-.6Z" style="fill:#455a64"/><path d="m241.59 377.4 34.77 20.07c.74.43.74 1.12 0 1.54l-8.88 5.13a2.92 2.92 0 0 1-2.67 0L230 384.07a.82.82 0 0 1 0-1.54l8.89-5.13a2.9 2.9 0 0 1 2.7 0Z" style="fill:#b2299f"/><path d="m254 387.21 9 5.19c.41.23.42.61 0 .83a1.58 1.58 0 0 1-1.45 0l-8.97-5.23c-.4-.24-.42-.61 0-.84a1.58 1.58 0 0 1 1.42.05ZM251.23 388.8l18.23 10.52c.41.24.42.61 0 .83a1.59 1.59 0 0 1-1.44 0l-18.23-10.52c-.41-.23-.42-.61 0-.83a1.59 1.59 0 0 1 1.44 0ZM248.47 390.4l18.23 10.52c.4.23.42.61 0 .83a1.58 1.58 0 0 1-1.45 0l-18.22-10.51c-.41-.24-.43-.61 0-.84a1.64 1.64 0 0 1 1.44 0Z" style="fill:#fafafa"/><path d="M245.67 382.15c1.15.67 1.28.75 1.71 1a2.22 2.22 0 0 1 .65.55.7.7 0 0 1 0 .94 2.39 2.39 0 0 1-.65.55c-.43.27-.56.35-1.71 1s-1.29.74-1.76 1a4.64 4.64 0 0 1-.95.38 3 3 0 0 1-.81.1 3.18 3.18 0 0 1-.82-.1 4.4 4.4 0 0 1-.94-.38c-.48-.25-.62-.32-1.77-1s-1.28-.74-1.71-1a2.39 2.39 0 0 1-.65-.55.73.73 0 0 1 0-.94 2.22 2.22 0 0 1 .65-.55c.43-.27.57-.35 1.71-1s1.29-.73 1.77-1a3.91 3.91 0 0 1 .94-.38 3.18 3.18 0 0 1 .82-.1 3 3 0 0 1 .81.1 4.11 4.11 0 0 1 .95.38c.47.25.61.32 1.76 1m.78-.44c-1.17-.68-1.32-.76-1.8-1a6 6 0 0 0-1.24-.49 5 5 0 0 0-1.26-.15 4.89 4.89 0 0 0-1.26.15 5.75 5.75 0 0 0-1.24.49c-.48.25-.63.33-1.8 1s-1.31.76-1.75 1a3.06 3.06 0 0 0-.84.71 1.18 1.18 0 0 0-.27.73 1.13 1.13 0 0 0 .27.72 3.06 3.06 0 0 0 .84.72c.44.28.58.37 1.75 1s1.32.76 1.8 1a5.75 5.75 0 0 0 1.24.49 4.89 4.89 0 0 0 1.26.15 5 5 0 0 0 1.26-.15 6 6 0 0 0 1.24-.49c.48-.25.63-.34 1.8-1s1.31-.76 1.74-1a3 3 0 0 0 .85-.72 1.12 1.12 0 0 0 .26-.72 1.16 1.16 0 0 0-.26-.73 3 3 0 0 0-.85-.71c-.43-.28-.58-.37-1.74-1" style="fill:#fff"/><path d="M244.36 382.91a4.91 4.91 0 0 0-4.42 0 1.35 1.35 0 0 0 0 2.55 4.85 4.85 0 0 0 4.42 0 1.35 1.35 0 0 0 0-2.55m-3.64 2.09a.87.87 0 0 1 0-1.66 3.2 3.2 0 0 1 2.86 0 .88.88 0 0 1 0 1.66 3.2 3.2 0 0 1-2.86 0M247.25 384.49a1.17 1.17 0 0 1-1 0 .32.32 0 0 1 0-.6 1.17 1.17 0 0 1 1 0c.29.17.29.43 0 .6" style="fill:#fff"/><path d="m224.32 387.58 34.77 20.08a.82.82 0 0 1 0 1.54l-8.89 5.13a3 3 0 0 1-2.66 0l-34.77-20.08a.8.8 0 0 1 0-1.53l8.89-5.14a3 3 0 0 1 2.66 0Z" style="fill:#b2299f"/><path d="m236.72 397.4 8.95 5.18c.41.24.43.61 0 .84a1.61 1.61 0 0 1-1.45 0l-8.95-5.19c-.41-.23-.42-.61 0-.83a1.56 1.56 0 0 1 1.45 0ZM234 399l18.23 10.52c.4.23.42.61 0 .83a1.58 1.58 0 0 1-1.45 0l-18.22-10.51c-.41-.24-.43-.61 0-.84a1.64 1.64 0 0 1 1.44 0ZM231.2 400.59l18.22 10.51c.41.24.42.61 0 .84a1.62 1.62 0 0 1-1.44 0l-18.2-10.54c-.41-.23-.42-.61 0-.83a1.58 1.58 0 0 1 1.42.02Z" style="fill:#fafafa"/><path d="m219.88 396.06 1.32.76 3.81-2.19.91.53 1.38-.68-1-.59.73-.42c.3-.17.47-.21.72-.06l.71.41 1.32-.77-.91-.52a2.66 2.66 0 0 0-2.87 0l-1 .59-.68-.39-1.29.74.68.4Z" style="fill:#fff"/><path d="M443.31 278.79a6.7 6.7 0 0 1-3.12 5.17l-67.78 39.14a6.88 6.88 0 0 1-6.22 0l-119.36-68.91a5.85 5.85 0 0 1 0-10.34l67.78-39.14a6.91 6.91 0 0 1 6.23 0l119.35 68.91a6.68 6.68 0 0 1 3.12 5.17Z" style="fill:#b2299f"/><path d="M243.72 249a6.69 6.69 0 0 0 3.11 5.17l119.36 68.93a6.41 6.41 0 0 0 3.11.74v-6.74a6.31 6.31 0 0 1-3.11-.75l-119.36-68.9c-1.51-.87-1.69-2.22-.56-3.2a6.66 6.66 0 0 0-2.55 4.75Z" style="opacity:.5"/><path d="m440.19 277.21-67.78 39.14a6.82 6.82 0 0 1-6.22 0l-119.36-68.91c-1.72-1-1.72-2.6 0-3.59l67.78-39.14a6.91 6.91 0 0 1 6.23 0l119.35 68.91c1.72.99 1.72 2.6 0 3.59Z" style="opacity:.30000000000000004"/><path d="M369.3 317.1v6.74a6.28 6.28 0 0 0 3.11-.74l67.78-39.1a5.83 5.83 0 0 0 .32-10.14c1.4 1 1.29 2.47-.32 3.39l-67.78 39.15a6.38 6.38 0 0 1-3.11.7Z" style="opacity:.6000000000000001"/><path d="M446.23 273.73c1.61-.93 1.52-2.5 1.52-4.49v-93.62a6.86 6.86 0 0 0-3.11-5.39l-119.35-68.91a6.64 6.64 0 0 0-6-.11c-1.61.93-1.52 2.5-1.52 4.48v93.63a6.88 6.88 0 0 0 3.11 5.39l119.35 68.91a6.7 6.7 0 0 0 6 .11Z" style="fill:#b2299f"/><path d="M317.72 105.69c0-2 1.4-2.78 3.12-1.8l119.36 68.92a6.29 6.29 0 0 1 2.19 2.32l4.45-2.58a6.35 6.35 0 0 0-2.2-2.33l-119.35-68.9a6.67 6.67 0 0 0-6-.12c-1.65.94-1.57 2.51-1.57 4.49Z" style="opacity:.30000000000000004"/><path d="M443.31 178.2v93.62c0 2-1.4 2.79-3.12 1.8l-119.35-68.91a6.88 6.88 0 0 1-3.11-5.39v-93.63c0-2 1.39-2.79 3.11-1.79l119.35 68.91a6.87 6.87 0 0 1 3.12 5.39Z" style="opacity:.5"/><path d="M440.56 273.81a6.72 6.72 0 0 0 5.67-.08c1.61-.93 1.52-2.5 1.52-4.49v-93.62a6.26 6.26 0 0 0-.91-3.07l-4.45 2.58a6.41 6.41 0 0 1 .92 3.07v93.62c0 1.84-1.2 2.67-2.75 1.99Z" style="opacity:.7000000000000001"/><path d="M438.52 176.4 323.45 110c-1-.6-1.87-.12-1.87 1.08v81.72a4.13 4.13 0 0 0 1.87 3.24l115.07 66.42c1 .59 1.87.11 1.87-1.08v-81.75a4.12 4.12 0 0 0-1.87-3.23Z" style="fill:#fafafa"/><path d="m327.47 117.18 107 61.8a4.16 4.16 0 0 1 1.58 3.34V254c0 1.35-.71 2-1.58 1.52l-107-61.79a4.2 4.2 0 0 1-1.58-3.35V118.7c-.01-1.34.7-2.02 1.58-1.52Z" style="fill:#b2299f"/><path d="M330.52 144.86v5a3.58 3.58 0 0 0 1.61 2.8L431 209.74c.89.51 1.62.09 1.62-.93v-5A3.56 3.56 0 0 0 431 201l-98.83-57.06c-.93-.53-1.65-.11-1.65.92Z" style="fill:#fafafa"/><path d="m332 154.81 9.58 5.54a3.44 3.44 0 0 1 1.3 2.75v14.77c0 1.1-.58 1.66-1.3 1.25l-9.58-5.54a3.46 3.46 0 0 1-1.29-2.75v-14.77c.02-1.06.6-1.66 1.29-1.25Z" style="fill:#b2299f"/><path d="m332 154.81 9.58 5.54a3.44 3.44 0 0 1 1.3 2.75v14.77c0 1.1-.58 1.66-1.3 1.25l-9.58-5.54a3.46 3.46 0 0 1-1.29-2.75v-14.77c.02-1.06.6-1.66 1.29-1.25Z" style="fill:#fff;opacity:.75"/><path d="M340.73 169.32c-.24-.61-.62-1-.78-.87l-1.59 1.55 1.28 4.64-4.56-11.73c-.25-.65-.66-1.09-.81-.88l-3.54 4.97v3.88a3.46 3.46 0 0 0 1.29 2.75l9.59 5.54c.72.41 1.3-.15 1.3-1.25v-3.16Z" style="fill:#455a64"/><path d="M338.8 161.89c-.67-.39-1.21.14-1.21 1.18a3.23 3.23 0 0 0 1.21 2.58c.68.38 1.22-.14 1.22-1.18a3.21 3.21 0 0 0-1.22-2.58ZM332 175.32l9.58 5.53a3.44 3.44 0 0 1 1.3 2.75v14.77c0 1.1-.58 1.66-1.3 1.25l-9.58-5.54a3.44 3.44 0 0 1-1.29-2.75v-14.76c.02-1.11.6-1.67 1.29-1.25Z" style="fill:#b2299f"/><path d="m332 175.32 9.58 5.53a3.44 3.44 0 0 1 1.3 2.75v14.77c0 1.1-.58 1.66-1.3 1.25l-9.58-5.54a3.44 3.44 0 0 1-1.29-2.75v-14.76c.02-1.11.6-1.67 1.29-1.25Z" style="fill:#fff;opacity:.75"/><path d="M340.73 189.82c-.24-.6-.62-1-.78-.87l-1.59 1.54 1.28 4.63-4.56-11.72c-.25-.66-.66-1.1-.81-.89l-3.54 4.94v3.88a3.44 3.44 0 0 0 1.29 2.75l9.59 5.54c.72.41 1.3-.15 1.3-1.25v-3.16Z" style="fill:#455a64"/><path d="M338.8 182.4c-.67-.39-1.21.13-1.21 1.17a3.23 3.23 0 0 0 1.21 2.58c.68.39 1.22-.14 1.22-1.17a3.18 3.18 0 0 0-1.22-2.58Z" style="fill:#b2299f"/><path d="m346.66 164.68 84.94 49a2.21 2.21 0 0 1 1 1.71c0 .62-.45.86-1 .54l-84.94-49a2.19 2.19 0 0 1-1-1.71c-.01-.62.44-.86 1-.54ZM346.66 169.06l84.94 49a2.19 2.19 0 0 1 1 1.7c0 .62-.45.87-1 .54l-84.94-49a2.17 2.17 0 0 1-1-1.7c-.01-.6.44-.86 1-.54ZM346.66 173.43l84.94 49a2.22 2.22 0 0 1 1 1.71c0 .62-.45.86-1 .54l-84.94-49a2.17 2.17 0 0 1-1-1.7c-.01-.63.44-.87 1-.55ZM346.66 177.81l84.94 49a2.19 2.19 0 0 1 1 1.7c0 .62-.45.87-1 .55l-84.94-49a2.21 2.21 0 0 1-1-1.71c-.01-.62.44-.86 1-.54ZM346.66 185.07l84.94 49a2.22 2.22 0 0 1 1 1.71c0 .62-.45.86-1 .54l-84.94-49a2.17 2.17 0 0 1-1-1.7c-.01-.62.44-.87 1-.55ZM346.66 189.45l84.94 49a2.19 2.19 0 0 1 1 1.7c0 .63-.45.87-1 .55l-84.94-49a2.21 2.21 0 0 1-1-1.71c-.01-.62.44-.86 1-.54ZM346.66 193.83l84.94 49a2.19 2.19 0 0 1 1 1.7c0 .62-.45.86-1 .54l-84.94-49a2.17 2.17 0 0 1-1-1.7c-.01-.62.44-.87 1-.54ZM346.66 198.2l84.94 49a2.21 2.21 0 0 1 1 1.71c0 .62-.45.86-1 .54l-84.94-49a2.19 2.19 0 0 1-1-1.71c-.01-.62.44-.86 1-.54Z" style="fill:#fafafa"/><path d="M436.08 181.54v8.22l-110.2-63.63v-8.21c0-1 .52-1.47 1.15-1.11l107.9 62.29a3.06 3.06 0 0 1 1.15 2.44Z" style="fill:#455a64"/><path d="M436.08 189.76v10l-110.2-63.62v-10l2.37 1.36c.64.37.85-.09 1.15-1.11l.81-2.64c.25-.95.51-1.48 1.15-1.1l27.51 15.88c.64.37 1.14 1 1.62 2.71l1 3.71c.36 1.33.54 2.06 1.18 2.42Z" style="fill:#e6e6e6"/><path d="M431.61 180.28a3.26 3.26 0 0 1 1.23 2.61c0 1-.55 1.57-1.23 1.18a3.24 3.24 0 0 1-1.23-2.6c0-1.05.55-1.58 1.23-1.19ZM427.18 177.72a3.25 3.25 0 0 1 1.23 2.61c0 1-.55 1.57-1.23 1.18a3.24 3.24 0 0 1-1.23-2.6c.05-1.05.55-1.58 1.23-1.19ZM422.75 175.16a3.25 3.25 0 0 1 1.23 2.61c0 1-.55 1.57-1.23 1.18a3.25 3.25 0 0 1-1.23-2.61c0-1.04.55-1.57 1.23-1.18Z" style="fill:#fff"/><path d="m331.17 134-1.81-1 .69-.84a.51.51 0 0 0 0-.41c-.06-.16-.15-.22-.21-.15l-1 1.2v.06c0 .06 0 0 0 0a.37.37 0 0 0 0 .11.53.53 0 0 0 0 .13.32.32 0 0 0 0 .09l1 2.33a.28.28 0 0 0 .1.13.08.08 0 0 0 .11 0 .59.59 0 0 0 0-.43l-.69-1.64 1.81 1c.08.05.15 0 .15-.21a.47.47 0 0 0-.15-.37ZM332.68 134.85l1.81 1-.69-1.63a.58.58 0 0 1 0-.43c0-.1.15-.05.21.09l1 2.33v.09a.69.69 0 0 1 0 .13.36.36 0 0 1 0 .11.16.16 0 0 1 0 .06l-1 1.19a.07.07 0 0 1-.1 0 .3.3 0 0 1-.11-.16.54.54 0 0 1 0-.42l.69-.84-1.81-1a.5.5 0 0 1-.14-.39c0-.08.06-.18.14-.13ZM338.62 135.9c0-.16-.1-.27-.15-.18l-.25.48c-.42-.63-.94-.77-1.28-.26a4.23 4.23 0 0 0 0 3.33 2.24 2.24 0 0 0 .81 1.16.56.56 0 0 0 .81-.22.51.51 0 0 0 0-.42c-.05-.15-.14-.2-.2-.12-.34.49-.88.18-1.22-.7a3.22 3.22 0 0 1 0-2.49c.24-.35.58-.29.88.09l-.18.36c0 .09 0 .3.07.33l.74.35c.05 0 .09 0 .08-.15ZM358.08 142l.66-1a.82.82 0 0 0 0-.58c-.08-.21-.21-.28-.29-.17l-.66 1-.66-1.74c-.07-.2-.2-.28-.28-.16a.72.72 0 0 0 0 .58l.66 1.73-.66 1a.72.72 0 0 0 0 .58.41.41 0 0 0 .14.2.1.1 0 0 0 .14 0l.66-1 .66 1.73a.41.41 0 0 0 .14.2.1.1 0 0 0 .15 0 .81.81 0 0 0 0-.58Z" style="fill:#455a64;opacity:.5"/><path d="M341 141.42v-3.11c0-1 .52-1.47 1.16-1.11l86.26 49.85a3 3 0 0 1 1.15 2.44v3.11c0 1-.51 1.48-1.15 1.11l-86.26-49.84a3.06 3.06 0 0 1-1.16-2.45Z" style="fill:#fafafa"/><path d="M428.42 192.85a.51.51 0 0 1-.42-.25l-.5-.76-.58.21-.24-.15a.76.76 0 0 1-.26-.67l.12-1.13-.5-1.17a.71.71 0 0 1 .07-.74l.16-.18.3.06.39.12.22-.65a.46.46 0 0 1 .45-.34.58.58 0 0 1 .5.5l.31 1.27.65.55a.73.73 0 0 1 .24.52.57.57 0 0 1-.13.45l-.43.5.11 1.24a.53.53 0 0 1-.32.59.32.32 0 0 1-.14.03Zm-.7-1.09Zm-.11-.73a.5.5 0 0 1 .41.24V191a.63.63 0 0 1 .12-.46l.42-.49-.63-.55a.79.79 0 0 1-.22-.39l-.12-.47a.47.47 0 0 1-.57.31l-.15-.05.35.81a.84.84 0 0 1 .06.41l-.1 1 .28-.1a.4.4 0 0 1 .15-.02Zm1-1Z" style="fill:#e0e0e0"/><g style="opacity:.5"><path d="M431.05 190.24a2.31 2.31 0 0 1-.32-.69c-.1-.38 0-.6.14-.5l3 1.76a1.61 1.61 0 0 1 .51.87c.1.38 0 .6-.14.5l-3-1.76a.77.77 0 0 1-.19-.18ZM431.05 192.58a2.2 2.2 0 0 1-.32-.69c-.1-.38 0-.6.14-.5l3 1.76a1.66 1.66 0 0 1 .51.87c.1.38 0 .6-.14.5l-3-1.76a.77.77 0 0 1-.19-.18ZM431.05 194.92a2.14 2.14 0 0 1-.32-.68c-.1-.38 0-.61.14-.5l3 1.75a1.69 1.69 0 0 1 .51.88c.1.37 0 .6-.14.49l-3-1.75a.84.84 0 0 1-.19-.19Z" style="fill:#455a64"/></g><path d="m431.58 273.8-110.79-64a3.41 3.41 0 0 0-3.11 0l-1.85 1a1 1 0 0 0 0 1.8l110.81 64a3.41 3.41 0 0 0 3.11 0l1.83-1a1 1 0 0 0 0-1.8Z" style="opacity:.30000000000000004"/><path d="m312.12 215 110.78 64c.86.5 1 1.23.27 1.64l-28.83 16.65a3.21 3.21 0 0 1-2.85-.15l-110.63-63.93c-.86-.5-1-1.23-.28-1.65l28.7-16.71a3.12 3.12 0 0 1 2.84.15Z" style="fill:#263238;opacity:.30000000000000004"/><path d="m376.37 270.42 3.47 2a.55.55 0 0 0 .5 0l3.32-1.91c.13-.08.12-.21 0-.29l-3.47-2a.55.55 0 0 0-.5 0l-3.32 1.91c-.16.08-.14.21 0 .29Zm12-2.92-3.46-2a.54.54 0 0 0-.51 0l-3.32 1.91c-.13.08-.11.21 0 .3l3.47 2a.61.61 0 0 0 .51 0l3.31-1.92c.16-.08.15-.21 0-.29Zm-11.2-6.5-5.87-3.39a.57.57 0 0 0-.51 0l-3.31 1.92c-.14.07-.12.2 0 .29l5.87 3.39a.59.59 0 0 0 .5 0l3.32-1.92c.16-.05.15-.18 0-.29Zm6.14 3.54-3.47-2a.57.57 0 0 0-.51 0l-3.33 1.93c-.13.07-.11.2 0 .29l3.47 2a.57.57 0 0 0 .51 0l3.31-1.92c.18-.05.16-.18.02-.27Zm-13.61-7.85-3.47-2a.57.57 0 0 0-.51 0l-3.31 1.91c-.14.08-.12.21 0 .29l3.46 2a.54.54 0 0 0 .51 0l3.32-1.91c.16-.05.14-.18 0-.26Zm-5.07-2.93-3.47-2a.54.54 0 0 0-.51 0l-3.31 1.91c-.14.08-.12.21 0 .3l3.46 2a.61.61 0 0 0 .51 0l3.32-1.92c.16-.05.14-.18 0-.26Zm-13.54 7.51 3.47 2a.55.55 0 0 0 .5 0l3.32-1.92c.13-.07.11-.2 0-.29l-3.47-2a.57.57 0 0 0-.51 0l-3.34 1.94c-.13.08-.12.21.03.3Zm-5.09-2.9 3.47 2a.52.52 0 0 0 .5 0l3.32-1.91c.13-.08.12-.21 0-.3l-3.47-2a.59.59 0 0 0-.5 0l-3.32 1.92c-.14.08-.13.21 0 .29Zm-5-2.93 3.47 2a.55.55 0 0 0 .5 0l3.32-1.91c.13-.08.12-.21 0-.29l-3.47-2a.55.55 0 0 0-.5 0l-3.32 1.91c-.21.08-.2.21 0 .29Zm-5.07-2.92 3.47 2a.59.59 0 0 0 .5 0l3.32-1.92c.13-.07.12-.2 0-.29l-3.47-2a.52.52 0 0 0-.5 0l-3.32 1.92c-.21.07-.2.2-.05.29Zm35.42 15 3.47 2a.59.59 0 0 0 .5 0l3.32-1.92c.13-.08.12-.21 0-.29l-3.46-2a.54.54 0 0 0-.51 0l-3.32 1.91c-.21.06-.19.19-.05.28Zm-15.14-3.27 7.73 4.46a.54.54 0 0 0 .51 0l8.06-4.65c.13-.08.11-.21 0-.29l-4-2.31a.52.52 0 0 0-.5 0l-4.27 2.46a.52.52 0 0 1-.5 0L360 262a.54.54 0 0 0-.51 0l-3.31 1.91c-.18.09-.18.23-.02.32Zm3.4-13.37-3.47-2a.57.57 0 0 0-.51 0l-3.31 1.92c-.13.07-.12.2 0 .29l3.46 2a.57.57 0 0 0 .51 0l3.32-1.92c.11-.09.09-.17-.05-.31Zm-5.07-2.93-3.47-2a.61.61 0 0 0-.51 0l-3.31 1.92c-.13.08-.12.21 0 .29l3.47 2a.52.52 0 0 0 .5 0l3.32-1.91c.11-.1.09-.25-.05-.32Zm-54.13-16.19c-.13.07-.12.2 0 .29l3.47 2a.55.55 0 0 0 .5 0l3.32-1.92c.13-.07.12-.2 0-.29l-3.47-2a.55.55 0 0 0-.5 0Zm13.57-7.22-3.47-2a.52.52 0 0 0-.5 0l-3.32 1.91c-.13.08-.12.21 0 .3l3.47 2a.59.59 0 0 0 .5 0l3.32-1.92c.11-.1.1-.23-.05-.31Zm-10.16 3.71c-.13.08-.12.21 0 .29l3.46 2a.54.54 0 0 0 .51 0l3.32-1.92c.13-.07.11-.2 0-.29l-3.47-2a.61.61 0 0 0-.51 0Zm-5.45 8.08 3.47 2a.59.59 0 0 0 .5 0l3.32-1.92c.13-.08.12-.21 0-.29l-3.47-2a.52.52 0 0 0-.5 0l-3.4 1.88c-.13.09-.12.22.03.31Zm-5.1-3.22c-.13.07-.12.2 0 .29l3.47 2a.55.55 0 0 0 .5 0l3.32-1.92c.13-.07.12-.2 0-.29l-3.47-2a.55.55 0 0 0-.5 0Zm25.73-5.66-3.47-2a.55.55 0 0 0-.5 0l-3.32 1.91c-.13.08-.12.21 0 .29l3.47 2a.55.55 0 0 0 .5 0l3.32-1.91c.16-.08.15-.21 0-.29Zm25.35 14.63-3.47-2a.52.52 0 0 0-.5 0l-3.32 1.92c-.13.07-.12.2 0 .29l3.47 2a.55.55 0 0 0 .5 0l3.32-1.92c.16-.07.15-.2 0-.29Zm-20.28-11.71-3.47-2a.55.55 0 0 0-.5 0l-3.32 1.92c-.13.07-.12.2 0 .29l3.47 2a.55.55 0 0 0 .5 0l3.32-1.92c.16-.07.15-.2 0-.29ZM349.42 245l-3.42-2a.55.55 0 0 0-.5 0l-3.32 1.91c-.13.08-.12.21 0 .29l3.47 2a.55.55 0 0 0 .5 0l3.32-1.91c.11-.07.1-.2-.05-.29Zm-10.14-5.86-3.47-2a.59.59 0 0 0-.5 0l-3.31 1.91c-.13.08-.12.21 0 .29l3.47 2a.52.52 0 0 0 .5 0l3.32-1.92c.15-.05.14-.18-.01-.27Zm-5.07-2.92-3.47-2a.55.55 0 0 0-.5 0l-3.32 1.91c-.13.08-.12.21 0 .29l3.47 2a.55.55 0 0 0 .5 0l3.32-1.91c.16-.07.15-.2 0-.28Zm-5.07-2.93-3.47-2a.52.52 0 0 0-.5 0l-3.32 1.92c-.13.07-.12.2 0 .29l3.47 2a.59.59 0 0 0 .5 0l3.32-1.92c.16-.07.15-.2 0-.28Zm-3.4 13.36 3.47 2a.55.55 0 0 0 .5 0l3.32-1.91c.13-.08.12-.21 0-.29l-3.47-2a.55.55 0 0 0-.5 0l-3.32 1.91c-.16.09-.15.22 0 .3ZM399.58 274l-3.47-2a.52.52 0 0 0-.5 0l-3.32 1.92c-.13.07-.12.2 0 .29l3.47 2a.59.59 0 0 0 .5 0l3.32-1.92c.16-.11.15-.24 0-.29Zm-6.14-3.54-3.46-2a.57.57 0 0 0-.51 0l-3.32 1.91c-.13.08-.11.21 0 .29l3.47 2a.57.57 0 0 0 .51 0l3.31-1.91c.16-.11.15-.24 0-.32Zm11.21 6.47-3.47-2a.55.55 0 0 0-.5 0l-3.32 1.91c-.13.08-.12.21 0 .29l3.47 2a.55.55 0 0 0 .5 0l3.32-1.91c.16-.11.15-.22 0-.32Zm-45.09-16.18 3.47 2a.55.55 0 0 0 .5 0l3.32-1.92c.13-.07.12-.2 0-.29l-3.47-2a.55.55 0 0 0-.5 0l-3.32 1.92c-.16.04-.14.17 0 .26Zm50.19 19.39c.13-.07.12-.2 0-.29l-3.47-2a.59.59 0 0 0-.5 0l-3.32 1.92c-.13.07-.12.2 0 .29l3.47 2a.52.52 0 0 0 .5 0Zm-78.94-30.52 3.47 2a.52.52 0 0 0 .5 0l3.32-1.92c.13-.07.12-.2 0-.29l-3.47-2a.59.59 0 0 0-.5 0l-3.32 1.92c-.16.04-.15.18 0 .26ZM393 285.48l3.47 2a.55.55 0 0 0 .5 0l3.32-1.91c.13-.08.12-.21 0-.29l-3.47-2a.55.55 0 0 0-.5 0l-3.32 1.91c-.18.08-.17.21 0 .29Zm-.33-5.66 3.47 2a.52.52 0 0 0 .5 0l3.32-1.92c.13-.07.12-.2 0-.29l-3.47-2a.59.59 0 0 0-.5 0l-3.32 1.92c-.18.07-.17.2-.02.29Zm12.36 3c.13-.07.12-.21 0-.29l-3.47-2a.52.52 0 0 0-.5 0l-3.32 1.92c-.13.07-.12.2 0 .29l3.47 2a.59.59 0 0 0 .5 0Zm1.07.62-8.1 4.68c-.13.08-.12.21 0 .29l3.47 2a.52.52 0 0 0 .5 0l8.06-4.65c.13-.08.12-.21 0-.29l-3.47-2a.55.55 0 0 0-.48 0Zm-11.24-6.76-3.47-2a.55.55 0 0 0-.5 0l-3.32 1.91c-.13.08-.12.21 0 .29l3.47 2a.55.55 0 0 0 .5 0l3.32-1.91c.14-.05.14-.18-.02-.26Zm-38.16-22-3.46-2a.57.57 0 0 0-.51 0l-3.32 1.91c-.13.08-.11.21 0 .29l3.47 2a.57.57 0 0 0 .51 0l3.31-1.91c.15-.08.13-.21-.02-.29Zm31.2 27.59c-.13.07-.12.2 0 .29l3.47 2a.59.59 0 0 0 .5 0l3.32-1.92c.13-.07.12-.2 0-.29l-3.47-2a.52.52 0 0 0-.5 0Zm-26.15-24.67-3.46-2a.61.61 0 0 0-.51 0l-3.32 1.92c-.13.08-.11.21 0 .29l3.47 2a.54.54 0 0 0 .51 0l3.31-1.92c.16-.07.15-.2 0-.29Zm-56.32-22.94c-.13.08-.12.21 0 .3l3.47 2a.59.59 0 0 0 .5 0l3.32-1.92c.13-.08.12-.21 0-.29l-3.47-2a.52.52 0 0 0-.5 0Zm10.7-3.4-3.47-2a.57.57 0 0 0-.51 0l-3.31 1.92c-.13.07-.12.2 0 .29l3.46 2a.57.57 0 0 0 .51 0l3.32-1.92c.16-.07.14-.2 0-.29Zm-5.6 6.62 3.47 2a.52.52 0 0 0 .5 0l3.32-1.91c.13-.08.12-.21 0-.29l-3.47-2a.55.55 0 0 0-.5 0l-3.32 1.91c-.16.08-.15.21 0 .29Zm5.07 2.93 3.47 2a.55.55 0 0 0 .5 0l3.32-1.92c.13-.07.12-.2 0-.29l-3.47-2a.55.55 0 0 0-.5 0l-3.32 1.92c-.16.07-.15.2 0 .29Zm5.07 2.93 3.47 2a.59.59 0 0 0 .5 0l3.32-1.92c.13-.08.12-.21 0-.29l-3.47-2a.52.52 0 0 0-.5 0l-3.32 1.92c-.16.07-.15.2 0 .29Zm.53-9.55-3.47-2a.54.54 0 0 0-.51 0l-3.31 1.91c-.14.08-.12.21 0 .3l3.46 2a.57.57 0 0 0 .51 0l3.32-1.91c.16-.09.14-.22 0-.3Zm5.07 2.92-3.47-2a.57.57 0 0 0-.51 0L319 237c-.14.08-.12.21 0 .29l3.46 2a.54.54 0 0 0 .51 0l3.32-1.91c.14-.05.12-.18-.02-.27Zm20.27 11.71-3.46-2a.57.57 0 0 0-.51 0l-3.32 1.92c-.13.07-.11.2 0 .29l3.47 2a.54.54 0 0 0 .51 0l3.31-1.92c.17-.11.15-.2 0-.29Zm-5.06-2.92-3.47-2a.57.57 0 0 0-.51 0l-3.32 1.91c-.13.08-.11.21 0 .29l3.47 2a.57.57 0 0 0 .51 0l3.32-1.91c.16-.08.14-.19 0-.29Zm10.13 5.85-3.46-2a.54.54 0 0 0-.51 0l-3.32 1.92c-.13.07-.11.2 0 .29l3.47 2a.61.61 0 0 0 .51 0l3.31-1.92c.17-.04.15-.21 0-.29ZM331.34 240l-3.47-2a.57.57 0 0 0-.51 0l-3.31 1.92c-.14.07-.12.2 0 .29l3.47 2a.57.57 0 0 0 .51 0l3.32-1.92c.15-.03.13-.16-.01-.29Zm5.07 2.93-3.47-2a.54.54 0 0 0-.51 0l-3.32 1.91c-.13.08-.11.21 0 .3l3.47 2a.61.61 0 0 0 .51 0l3.32-1.92c.16-.04.14-.17 0-.22Zm-33-3.74 3.47 2a.55.55 0 0 0 .5 0l3.32-1.91c.13-.08.12-.21 0-.29l-3.47-2a.55.55 0 0 0-.5 0l-3.32 1.91c-.18.1-.17.25-.02.33Zm2.18-15.43 3.32-1.92c.13-.07.12-.2 0-.29l-3.47-2a.55.55 0 0 0-.5 0l-3.32 1.92c-.13.07-.12.2 0 .29l3.47 2a.55.55 0 0 0 .48.04Zm-2.87 3.81 3.28-1.87c.13-.08.12-.21 0-.29l-5.34-3.08a.52.52 0 0 0-.5 0l-3.32 1.91c-.13.08-.12.21 0 .3l5.34 3.08a.55.55 0 0 0 .52-.01Zm9.43-6.67 3.31-1.92c.14-.07.12-.2 0-.29l-4.26-2.46a.54.54 0 0 0-.51 0l-3.32 1.92c-.13.07-.11.2 0 .29l4.27 2.46a.57.57 0 0 0 .49.04Zm3.27 1.89c-.13.07-.12.2 0 .29l3.47 2a.55.55 0 0 0 .5 0l3.32-1.92c.13-.07.12-.2 0-.29l-3.47-2a.55.55 0 0 0-.5 0Zm-16.11 8.29 3.32-1.91c.13-.08.12-.21 0-.3l-6.67-3.85a.55.55 0 0 0-.5 0l-3.37 1.98c-.13.08-.12.21 0 .29l6.67 3.85a.52.52 0 0 0 .53-.02Zm-7.14 1.35 3.32-1.91c.13-.08.12-.21 0-.29l-4.27-2.47a.59.59 0 0 0-.5 0l-3.32 1.92c-.13.07-.12.2 0 .29l4.27 2.46a.52.52 0 0 0 .48.04Zm60.94 12.12c-.13.08-.12.21 0 .29l3.47 2a.52.52 0 0 0 .5 0l3.32-1.91c.13-.08.12-.21 0-.3l-3.46-2a.61.61 0 0 0-.51 0ZM343 238.74c-.13.07-.11.2 0 .29l3.47 2a.57.57 0 0 0 .51 0l3.31-1.92c.14-.07.12-.2 0-.29l-3.46-2a.57.57 0 0 0-.51 0Zm-22.48-13c-.13.07-.12.2 0 .29l3.47 2a.59.59 0 0 0 .5 0l3.32-1.92c.13-.08.12-.21 0-.29l-3.47-2a.52.52 0 0 0-.5 0ZM348 241.66c-.13.08-.11.21 0 .29l3.47 2a.57.57 0 0 0 .51 0l3.31-1.91c.13-.08.12-.21 0-.29l-3.46-2a.54.54 0 0 0-.51 0Zm-10.14-5.85c-.13.08-.11.21 0 .29l3.47 2a.54.54 0 0 0 .51 0l3.31-1.92c.14-.07.12-.2 0-.29l-3.46-2a.61.61 0 0 0-.51 0Zm-46.08-1.9c.13-.08.11-.21 0-.29l-5.34-3.08a.52.52 0 0 0-.5 0l-3.32 1.92c-.13.07-.12.2 0 .29l5.33 3.08a.57.57 0 0 0 .51 0Zm38.81-2.3c-.13.08-.12.21 0 .29l3.47 2a.52.52 0 0 0 .5 0l3.32-1.92c.13-.07.12-.2 0-.29l-3.47-2a.59.59 0 0 0-.5 0Zm-5.07-2.93c-.13.08-.12.21 0 .29l3.47 2a.55.55 0 0 0 .5 0l3.32-1.91c.13-.08.12-.21 0-.29l-3.47-2a.55.55 0 0 0-.5 0Zm60.18 59.46c.13-.08.11-.21 0-.3l-8.54-4.93a.55.55 0 0 0-.5 0l-3.32 1.91c-.13.08-.12.21 0 .29l8.56 4.89a.52.52 0 0 0 .5 0Zm-11.21-6.48c.13-.07.12-.2 0-.29l-3.47-2a.59.59 0 0 0-.5 0l-3.32 1.92c-.13.08-.12.21 0 .29l3.47 2a.52.52 0 0 0 .5 0Zm-66.05-39.5 3.46 2a.54.54 0 0 0 .51 0l3.32-1.92c.13-.07.11-.2 0-.29l-3.47-2a.59.59 0 0 0-.5 0l-3.32 1.92c-.14.07-.13.2.02.29Zm55.91 33.65c.13-.07.12-.2 0-.29l-3.47-2a.52.52 0 0 0-.5 0l-3.32 1.92c-.13.07-.12.2 0 .29l3.47 2a.59.59 0 0 0 .5 0Zm26.42 15.25c.13-.07.11-.2 0-.29l-3.47-2a.55.55 0 0 0-.5 0l-3.32 1.92c-.13.07-.12.2 0 .29l3.46 2a.57.57 0 0 0 .51 0Zm1.75 4.84 8.06-4.65c.13-.07.12-.2 0-.29l-3.47-2a.55.55 0 0 0-.5 0l-8.06 4.65c-.14.08-.12.21 0 .3l3.46 2a.57.57 0 0 0 .53-.01Zm-47.11-31c.13-.07.11-.2 0-.29l-4.27-2.46a.54.54 0 0 0-.51 0l-3.32 1.85c-.14.07-.12.2 0 .29l4.26 2.46a.57.57 0 0 0 .51 0Zm12.8 7.4c.14-.08.12-.21 0-.29l-5.33-3.08a.54.54 0 0 0-.51 0l-3.31 1.91c-.14.08-.12.21 0 .3l5.33 3.08a.57.57 0 0 0 .51 0Zm-24.52-14.2c.13-.08.11-.21 0-.3l-28.55-16.48a.61.61 0 0 0-.51 0l-3.32 1.92c-.13.08-.11.21 0 .29L329.86 260a.54.54 0 0 0 .51 0Zm-30.15-17.41c.13-.08.11-.21 0-.29l-4.27-2.47a.61.61 0 0 0-.51 0l-3.32 1.92c-.13.08-.11.21 0 .29l4.27 2.47a.57.57 0 0 0 .51 0Zm36 20.79c.13-.07.11-.2 0-.29l-4.27-2.46a.57.57 0 0 0-.51 0l-3.31 1.92c-.14.07-.12.2 0 .29l4.26 2.46a.54.54 0 0 0 .51 0Zm-41.87-24.18c.13-.08.11-.21 0-.29l-4.27-2.47a.57.57 0 0 0-.51 0l-3.32 1.91c-.13.08-.11.21 0 .29l4.27 2.47a.57.57 0 0 0 .51 0Zm53.63 31c.13-.07.12-.2 0-.29l-4.3-2.5a.54.54 0 0 0-.51 0l-3.31 1.92c-.14.07-.12.2 0 .29l4.26 2.46a.57.57 0 0 0 .51 0Zm18.14 10.48c.13-.08.12-.21 0-.29l-3.47-2a.55.55 0 0 0-.5 0l-3.32 1.91c-.13.08-.12.21 0 .29l3.47 2a.55.55 0 0 0 .5 0Zm13.73 6.55 3.47 2a.55.55 0 0 0 .5 0l3.32-1.91c.13-.08.12-.21 0-.29l-3.47-2a.55.55 0 0 0-.5 0l-3.35 1.87c-.14.08-.14.21.03.29Zm-1.73-11.94 3.47 2a.52.52 0 0 0 .5 0l3.32-1.92c.13-.07.12-.2 0-.29l-3.47-2a.55.55 0 0 0-.5 0l-3.32 1.92c-.16.03-.15.16 0 .25ZM349 265.58l10.14 5.85a.61.61 0 0 0 .51 0l3.32-1.92c.13-.07.11-.21 0-.29l-10.14-5.85a.54.54 0 0 0-.51 0l-3.32 1.91c-.15.08-.13.21 0 .3Zm29.06 16.5c-.13.07-.12.2 0 .29l3.47 2a.59.59 0 0 0 .5 0l3.32-1.92c.13-.07.12-.2 0-.29l-3.47-2a.52.52 0 0 0-.5 0Zm4.77-2.45 3.47 2a.52.52 0 0 0 .5 0l3.32-1.92c.13-.07.12-.2 0-.29l-3.47-2a.59.59 0 0 0-.5 0l-3.32 1.92c-.15.07-.14.21.01.29Zm-38.9-17 3.47 2a.57.57 0 0 0 .51 0l3.32-1.92c.13-.07.11-.2 0-.29l-3.47-2a.57.57 0 0 0-.51 0l-3.32 1.92c-.15.09-.13.22.01.31Zm22.92 13c-.13.07-.12.2 0 .29l3.47 2a.59.59 0 0 0 .5 0l3.32-1.92c.13-.07.12-.2 0-.29l-3.47-2a.52.52 0 0 0-.5 0ZM318.6 248l3.46 2a.57.57 0 0 0 .51 0l3.32-1.91c.13-.08.11-.21 0-.29l-3.47-2a.57.57 0 0 0-.51 0l-3.31 1.91c-.17.09-.15.22 0 .29Zm5.07 2.93 3.46 2a.54.54 0 0 0 .51 0L331 251c.13-.07.11-.2 0-.29l-3.47-2a.61.61 0 0 0-.51 0l-3.31 1.92c-.21.1-.19.23-.04.31Zm-10.14-5.85 3.46 2a.61.61 0 0 0 .51 0l3.32-1.92c.13-.07.11-.21 0-.29l-3.47-2a.54.54 0 0 0-.51 0l-3.31 1.92c-.16.08-.15.21 0 .3Zm20.27 11.7 3.47 2a.57.57 0 0 0 .51 0l3.32-1.91c.13-.08.11-.21 0-.29l-3.47-2a.57.57 0 0 0-.51 0l-3.32 1.91c-.16.09-.14.22 0 .3Zm-5.06-2.92 3.46 2a.57.57 0 0 0 .51 0L336 254c.13-.07.11-.2 0-.29l-3.47-2a.57.57 0 0 0-.51 0l-3.31 1.92c-.14.02-.12.15.03.24Zm10.13 5.85 3.47 2a.54.54 0 0 0 .51 0l3.32-1.91c.13-.08.11-.21 0-.3l-3.47-2a.61.61 0 0 0-.51 0l-3.32 1.92c-.16.09-.14.22 0 .3Zm70.53 16c-.13.08-.12.21 0 .3l3.47 2a.55.55 0 0 0 .5 0l.89-.51c.13-.07.11-.2 0-.29l-3.47-2a.61.61 0 0 0-.51 0Zm-27.63-14.54c-.13.07-.12.2 0 .29l3.47 2a.59.59 0 0 0 .5 0l3.32-1.92c.13-.07.12-.2 0-.29l-3.47-2a.52.52 0 0 0-.5 0Zm10.14 5.83c-.13.08-.12.21 0 .29l3.46 2a.54.54 0 0 0 .51 0l3.32-1.92c.13-.07.11-.2 0-.29l-3.47-2a.59.59 0 0 0-.5 0Zm-16.33-9.43c-.13.08-.12.21 0 .29l3.47 2a.55.55 0 0 0 .5 0l3.35-1.86c.13-.08.12-.21 0-.29l-3.47-2a.55.55 0 0 0-.5 0Zm11.26 6.5c-.13.08-.12.21 0 .29l3.47 2a.55.55 0 0 0 .5 0l3.32-1.91c.13-.08.12-.21 0-.29l-3.47-2a.55.55 0 0 0-.5 0Zm-21.4-12.35c-.13.07-.12.2 0 .29l3.47 2a.55.55 0 0 0 .5 0l3.32-1.92c.13-.07.12-.2 0-.29l-3.47-2a.55.55 0 0 0-.5 0Zm5.07 2.93c-.13.07-.12.2 0 .29l3.47 2a.59.59 0 0 0 .5 0l3.32-1.92c.13-.08.12-.21 0-.29l-3.47-2a.52.52 0 0 0-.5 0Zm28.75 15.19c-.13.08-.12.21 0 .29l3.47 2a.52.52 0 0 0 .5 0l.89-.51c.13-.07.11-.2 0-.29l-3.47-2a.54.54 0 0 0-.51 0Zm15.21 8.78c-.13.08-.12.21 0 .29l3.47 2a.52.52 0 0 0 .5 0l.89-.51c.13-.07.11-.2 0-.29l-3.47-2a.57.57 0 0 0-.51 0Zm-7 4c-.13.07-.12.2 0 .29l3.47 2a.59.59 0 0 0 .5 0l3.32-1.92c.13-.07.12-.21 0-.29l-3.47-2a.52.52 0 0 0-.5 0Zm-19.26 5.57 3.47 2a.52.52 0 0 0 .5 0l3.32-1.92c.13-.07.12-.2 0-.29L392 286a.59.59 0 0 0-.5 0l-3.32 1.92c-.1.08-.09.22.06.3Zm16.09-15.45c-.13.07-.12.2 0 .29l3.47 2a.55.55 0 0 0 .5 0l.89-.51c.13-.08.11-.21 0-.29l-3.47-2a.57.57 0 0 0-.51 0Zm-44-24c-.13.08-.12.21 0 .29l3.47 2a.52.52 0 0 0 .5 0l3.32-1.91c.13-.08.12-.21 0-.29l-3.47-2a.55.55 0 0 0-.5 0Z" style="fill:#263238"/><path style="opacity:.4" d="m349.36 277.26-.72.41-18.89 10.9-33.59-19.39-.7-.4 19.6-11.32 34.3 19.8z"/><path style="fill:#b2299f" d="m348.64 277.67-18.89 10.9-33.59-19.39 18.9-10.91 33.58 19.4z"/><path style="opacity:.45" d="m348.64 277.67-18.89 10.9-33.59-19.39 18.9-10.91 33.58 19.4z"/><path d="M440.78 274Z" style="fill:#b2299f"/><path d="M323.94 327.25c1.68-2 3.05-5.28 3.65-5.86 1.76-1.68 4-26.4 4-26.4-4.41-.82-6.72 2.4-7.43 5.53s-3.53 18.42-3.53 18.42" style="fill:#ffa8a7"/><path d="M332.55 294.86s-4-.62-6.47 1.51c-2.83 2.48-3.14 6.44-5.09 18.31.53 1.47 3.44 3.12 8.68 2.51ZM349 328.47c2 4.14 7.1 16.57 9.1 25.17 1.87 8.05 2.6 13.63 0 15.58s-10.08.76-14.8-9.3c-1.48-3.15-7-12.87-7-12.87a29.73 29.73 0 0 1-5.54-2.6s-13.74.4-20.42-1-13.77-9.53-11-10.33c4.92-1.45 14.5-2.49 25.59-3.21Z" style="fill:#37474f"/><path d="M316.82 341.76c3 .7 7.46-.23 10-1a6.65 6.65 0 0 1 .08-2.67 8.61 8.61 0 0 0 1.11 3.34l1 .56c1.67.85 6.26 3.2 7.11 2.46a9 9 0 0 1 5.14-3.26c-1.44 1-5.6 3.95-4.12 7.41l-.91-1.59a29.73 29.73 0 0 1-5.54-2.6s-7.68.23-14.35-.23l-7.92-5.48s3.79-.18 8.4 3.06Z" style="fill:#263238"/><path d="M324.52 351.38c1.43 1.3 3.63 2.34 5.17 2s3.76-.47 4.62 2.61c1 3.5 4.16 5.63 5.93 7.55s1.2 4.79.28 6.78c-1.54 3.36-3.79 1.33-5-.8a47.91 47.91 0 0 0-6.69-7.65 66.89 66.89 0 0 0-6.28-5.46Z" style="fill:#ffa8a7"/><path d="M303.82 332.91c-8.6-.88-8.78 4.37-6.56 7.92 2.39 3.83 11.48 8.55 15.94 10.82s10.69 5.82 10.69 5.82a9 9 0 0 0 2.35-5.17c-4.9-3.42-9.66-12.21-17.83-13.56Z" style="fill:#37474f"/><path d="M329.12 353.46a2.62 2.62 0 0 0 .57-.06c1.55-.32 3.76-.47 4.62 2.61 1 3.5 4.16 5.63 5.93 7.55s1.2 4.79.28 6.78c-1.54 3.36-3.79 1.33-5-.8-.48-.82-7.09-7.79-8-8.91 1.12 1.19 2.42-7.28 1.6-7.17Z" style="fill:#263238"/><path d="M328.05 352.45c-1.57-.4-3.87-1-4.83-2.22s-2.93-2.47-5.6-.71c-3 2-6.83 1.52-9.42 1.81s-4.05 2.83-4.66 4.93c-1 3.55 1.94 2.34 4.28 1.55a31.67 31.67 0 0 1 10.06-1.21c2.31.3 8.07 1.76 8.07 1.76Z" style="fill:#ffa8a7"/><path d="M308.93 357.49c-.42.11-.8.21-1.11.32-2.34.79-5.32 2-4.28-1.55.61-2.1 2.07-4.65 4.66-4.93s6.39.18 9.42-1.81c2.67-1.76 4.65-.55 5.6.71a3.41 3.41 0 0 0 .37.39 6.51 6.51 0 0 0-3.41 2.07 4.69 4.69 0 0 0-1 4.12 41.48 41.48 0 0 0-10.25.68Z" style="fill:#263238"/><path d="M359.47 366.92c-.49 3.06-3.92 4.53-11.27 3.06S325 358.46 325 358.46s-1-5.18 3-6.32c0 0 3.66.66 9.63 2a79.19 79.19 0 0 1 8 2.21c4 5.41 8.23 3.22 9.74 5.13 2.55 3.14 4.1 5.44 4.1 5.44Z" style="fill:#37474f"/><path d="M340.57 354.8a27 27 0 0 1 8.6 3.43 16.82 16.82 0 0 0-9.58-5.2Z" style="fill:#263238"/><path d="M341.34 295.05c.62.15 5.78 1.36 8 2.13v17.4l1 16.94c-3.75 4.08-18.25 4.47-26.43-1.51 0 0 .13-21.61.72-25.74.69-4.84 2.93-9.41 8.42-9.46Z" style="fill:#ebebeb"/><path d="M343.14 273.74a2.82 2.82 0 0 1 2.35.83c1 1 .81 2.95 0 7.35l-3.13.36ZM324.9 272.47a4.89 4.89 0 0 1-2-.4c-1-.55-1.21.54-.68 1.49a4.45 4.45 0 0 0 3.63 2.41c0-.13.89-2.44.89-2.44Z" style="fill:#263238"/><path d="M341.67 282.28c.46.28 1.13-.61 1.7-1.21a2 2 0 0 1 3.38.55c.95 2-.83 4.65-2.3 5.11-2.54.79-2.92-.83-2.92-.83l-.19 9.15a8.16 8.16 0 0 1-6.16 4.67c-4.5.61-3.57-3.1-2.1-4.91V292a16.14 16.14 0 0 1-3.42.18c-1.86-.29-3-1.76-3.6-3.78-.91-3.25-1.26-5.87-.49-12.25.85-7 9-7.06 13.37-4.3s2.73 10.43 2.73 10.43Z" style="fill:#ffa8a7"/><path d="M341.67 283.07c.23 0 1.12-1.47 1.7-2 .8-.73-.23-7.33-.23-7.33s.81-2.5-.78-4.16-4.65-1.38-6.89-1.47a20.15 20.15 0 0 1-8-1.6c-3.19-1.39-3.42-1.55-3.82-.15a7.78 7.78 0 0 0 1.36 6.75l1.58.58s.85.76 3.83 1.12a43.64 43.64 0 0 0 8.23-.16c.86-.11 1 .72 1.51 3 .39 2.01.73 5.4 1.51 5.42Z" style="fill:#263238"/><path d="m343.13 274.25 2.81-1.5a1.55 1.55 0 0 0-2.12-.71 1.67 1.67 0 0 0-.69 2.21Z" style="fill:#263238"/><path d="M333.09 292a32.07 32.07 0 0 0 5.62-1.61 4.86 4.86 0 0 0 2-2 6.72 6.72 0 0 1-1.15 2.35c-1.06 1.36-6.49 2.36-6.49 2.36Z" style="fill:#f28f8f"/><path d="M334.09 281.24a.84.84 0 1 0 .84-.87.86.86 0 0 0-.84.87ZM335 278.09l1.78 1a1.06 1.06 0 0 0-.41-1.42 1 1 0 0 0-1.37.42Z" style="fill:#263238"/><path d="m333.47 287-1.91.71a1 1 0 0 0 1.3.63 1.06 1.06 0 0 0 .61-1.34Z" style="fill:#f28f8f"/><path d="m326.65 278.79 1.63-1.26a1 1 0 0 0-1.42-.21 1.08 1.08 0 0 0-.21 1.47ZM327.15 281a.84.84 0 1 0 1.67 0 .84.84 0 0 0-.83-.86.86.86 0 0 0-.84.86Z" style="fill:#263238"/><path style="fill:#f28f8f" d="m331.4 280.21-.27 5.02-2.62-.89 2.89-4.13z"/><path d="M347.6 349.82v.56a1.6 1.6 0 0 1-.79 1.37l-15.07 8.67a1.61 1.61 0 0 1-.79.21 1.56 1.56 0 0 1-.79-.21l-27.66-16a1.6 1.6 0 0 1-.79-1.37v-.39L331 359.58Z" style="fill:#ebebeb"/><path d="m301.71 342.7 16.4-9.47a1 1 0 0 1 .94 0l28.45 16.43a.21.21 0 0 1 0 .36l-16.5 9.56Z" style="fill:#fafafa"/><path d="M320.6 318.94c-2.2 3.21-7.2 10.17-9.45 14.17-1.29 2.3.33 4.53 3.87 3.59 2.33-.63 5.67-5.67 8.92-9.45" style="fill:#ffa8a7"/><path style="fill:#e0e0e0" d="m331.1 358.19 8.84-5.1-25.86-14.93-8.89 5.07 25.91 14.96zM335.44 344l-.16.09-4.34 2.51-7.7-4.46-.16-.09 4.49-2.59 7.87 4.54z"/><path style="fill:#e6e6e6" d="m335.28 344.09-4.34 2.51-7.7-4.46 4.33-2.5 7.71 4.45z"/><path d="M331 359.58v1.05a1.56 1.56 0 0 1-.79-.21l-27.66-16a1.6 1.6 0 0 1-.79-1.37v-.39Z" style="fill:#ebebeb"/><g style="opacity:.5;mix-blend-mode:multiply"><path d="M331 359.58v1.05a1.56 1.56 0 0 1-.79-.21l-27.66-16a1.6 1.6 0 0 1-.79-1.37v-.39Z" style="fill:#e0e0e0"/></g><path d="M330.5 359.81a1.83 1.83 0 0 1-1.61-.12l-27.54-15.9a1.88 1.88 0 0 1-.91-1.31l-3-18a1.71 1.71 0 0 1 0-.31 1.88 1.88 0 0 1 .55-1.33l28.62 16.52a1.38 1.38 0 0 1 .67 1Z" style="fill:#b2299f"/><g style="opacity:.7000000000000001"><path d="M330.5 359.81a1.83 1.83 0 0 1-1.61-.12l-27.54-15.9a1.88 1.88 0 0 1-.91-1.31l-3-18a1.71 1.71 0 0 1 0-.31 1.88 1.88 0 0 1 .55-1.33l28.62 16.52a1.38 1.38 0 0 1 .67 1Z" style="fill:#fff"/></g><path d="m331 359.58-.19.11a1.51 1.51 0 0 1-.26.12l-3.26-19.45a1.38 1.38 0 0 0-.67-1L298 322.87a2.19 2.19 0 0 1 .39-.29L327 339.13a1.38 1.38 0 0 1 .67 1Z" style="fill:#fafafa"/><path d="M315 343.22a6.08 6.08 0 0 0-2.77-3.57c-1.33-.77-2.25-.42-2.05.79A6.1 6.1 0 0 0 313 344c1.28.78 2.19.42 2-.78Z" style="fill:#b2299f"/><path d="M345.25 346.56c1.51-1 11.18-8.07 15-11.06 4-3.11 3.77-4.11 3.28-6.36-1-4.44-6.48-18.58-8.08-22.75-2-5.18-3.63-9.75-7.89-9.75-2.52 2-3.38 9.54 0 16.26l6.95 16.25s-4.09 4.75-6.81 7.3-5.6 5.38-7.63 5.6c-1.61.18-4.4.54-5 1.11A47 47 0 0 0 331 348c-.58.95-1.34 3.29.61 3.9 1.78.56 3.22-.2 4.66-1.19a17.63 17.63 0 0 0 1.93-1.59 7.08 7.08 0 0 0 4.16-.82Z" style="fill:#ffa8a7"/><path d="M345.85 296.16s3.81-.28 5.85 2 8.06 18.15 8.06 18.15-1.63 4.75-8.88 5.12l-5.59-13.25s-3.05-7.77.56-12.02Z" style="fill:#37474f"/><path d="m286.9 190.13-7.6 10.37-3.91 4 1.35 2.5c.66 1.36 2.67 3.33 5 .79 3.44-3.72 8.86-15.91 8.86-15.91Z" style="fill:#b16668"/><path d="M274.36 183.58c2.41 5.76 7.08 17.81 7.08 17.81l-4.7 5.58s-1.13-2-2.61-5c-1.91-3.84-3.94-8.06-3.94-8.06l-3.77-16.77c2.99.25 5.84 1.41 7.94 6.44Z" style="fill:#b16668"/><path d="M283.89 183.5c1-1.84 1.23-1.92 1.82-2.32s4.2-1 5.7-1.07c1.76-.15 2.38.17 1.89 1.69a76.38 76.38 0 0 1-4.94 11.08c-.46.62-.56 1.2-2.54 1.39s-4.17.29-4.86.33-1.63.21-1-1.8a65 65 0 0 1 2.7-6.68c.75-1.66 1.23-2.62 1.23-2.62Z" style="fill:#263238"/><path d="M290.62 191.85c.74-3.25 2.9-6.26 1.68-7.36l-.66 1.44a28 28 0 0 1-6 .82c-2-.15-3.56-.61-4.1-.23-1.13.8-1.46 4.21 1.8 5.44 2.76 1.04 7.28-.11 7.28-.11Z" style="fill:#b16668"/><path d="M266.31 177c3.95 0 4.68.81 6 2.21 2.32 2.54 6.29 14.11 6.29 14.11a9.56 9.56 0 0 1-8.37 4.31Z" style="fill:#455a64"/><path d="M273.75 290.07v-.79c.31.93 1.75 4.9 3.93 6.89 1.74 1.58 4.1 3.41 4.71 5.17s-3.3 2.46-4.92 2.17a10 10 0 0 1-5.65-3c-.93-1.15-1.52-2.51-2.19-3.41s-2.2-1.9-2.56-2.95a6.61 6.61 0 0 1 .32-2.89c.25-1 .53-2 .86-2v.6a4.25 4.25 0 0 0 2.75.93c.8.05 2.76-.11 2.75-.72ZM247.83 292.24a27.31 27.31 0 0 0-.43 4.45c-.05 2.7-.54 3.65-.61 5.87a8.27 8.27 0 0 0 1.49 5.53c1 1.42 3.95 2.17 5.09-.23s1-4 .63-6.47-.42-4-.64-5.94c-.19-1.73-.42-3-.42-3Z" style="fill:#263238"/><path d="M246.69 261.45c.63-6.51 2.32-9.42 2.45-10.9 0 0-2.61-28.54.11-40.47h24.26c.73 10.57 4.47 31.54 3.53 40.85-.54 5.41-3.29 34.81-3.29 34.81v2.17a7.58 7.58 0 0 0 .58 2.9 16 16 0 0 0 3.35 5.35c.49.45 1 .92 1.57 1.4 1.35 1.57.29 2.22-1.78 1.95a8 8 0 0 1-5-3.31c-1.43-2-4-5-4.22-6.17v-3.95c-.09-3.63-3.69-23.09-3.26-27.58a39.92 39.92 0 0 1 1.46-6.59l-3.86-22.77s-2.35 16.13-3.19 22.8c-1 7.65-6.31 37.85-6.32 37.89a24.41 24.41 0 0 0-.14 2.59c0 .86.48 8.37.27 10.31-.3 2.85-4.42 3.07-5-.18-.4-2.15-.34-9.25-.37-10.3 0-.76-.06-1.6-.1-2.5-.07-.56-1.74-20.75-1.05-28.3Z" style="fill:#b16668"/><path d="m255.92 177.76-2.47.45c1.38 6.72-4.25 14.24-4.25 14.24l4.2 9.44c-.4.72-3.62 5.39-5 9.7a92.48 92.48 0 0 0-4 23.84c6.36 7.62 28.83 7.31 34.8-1.38 0 0-2.26-18.26-7.75-32.38l1.12-6.47c3.33-3.95 1.91-7.24.89-9.2a30.22 30.22 0 0 0-6.66-9l-3-.1Z" style="fill:#b2299f"/><path d="m255.92 177.76-2.47.45c1.38 6.72-4.25 14.24-4.25 14.24l4.2 9.44c-.4.72-3.62 5.39-5 9.7a92.48 92.48 0 0 0-4 23.84c6.36 7.62 28.83 7.31 34.8-1.38 0 0-2.26-18.26-7.75-32.38l1.12-6.47c3.33-3.95 1.91-7.24.89-9.2a30.22 30.22 0 0 0-6.66-9l-3-.1Z" style="fill:#b2299f"/><path d="m255.92 177.76-2.47.45c1.38 6.72-4.25 14.24-4.25 14.24l4.2 9.44c-.4.72-3.62 5.39-5 9.7a92.48 92.48 0 0 0-4 23.84c6.36 7.62 28.83 7.31 34.8-1.38 0 0-2.26-18.26-7.75-32.38l1.12-6.47c3.33-3.95 1.91-7.24.89-9.2a30.22 30.22 0 0 0-6.66-9l-3-.1Z" style="fill:#fff;opacity:.30000000000000004"/><path d="M253.67 194.47c-.56 2.44.94 5.37 2.57 6.94s-1.25 2.18-3.23 5.85-8.37 20.88-2.26 27.65 22.46 3.67 22.52 3.66c-9.08 3.92-23.85 2.81-28.82-3.14a92.48 92.48 0 0 1 4-23.84c1.38-4.31 4.6-9 5-9.7l-4.2-9.44a27.3 27.3 0 0 0 3.67-7.28l1.74.19a85 85 0 0 1-.99 9.11Z" style="opacity:.1"/><path d="M267.2 148.86a12.08 12.08 0 0 0-9.47-4.42 12.59 12.59 0 0 0-12.15 13v.37A11.29 11.29 0 0 0 253 168.4c.59 1.2 1.75 3.23 2.83 3.42v-1.64a10.88 10.88 0 0 0 5 1.21h2a10.93 10.93 0 0 0 10.93-10.93v-.71a12.44 12.44 0 0 0-6.56-10.89Z" style="fill:#263238"/><path d="M256.88 150.33c-4 3.27-3.53 9.13-3.53 9.13.74-4.88 4-8.73 7.71-10.07s6.05-.57 6.13-.54c-.8-.96-5.34-2.52-10.31 1.48Z" style="fill:#b2299f"/><path d="M268.78 154.58c1.26 1.15 2.84 3.67 2.72 11-.11 6.22-2 7.77-3 8.22s-2.85.19-4.68-.12v3.2s3.19 3.2 3 4.92-4.27 2.51-6.63.85a19.83 19.83 0 0 1-4.3-4.58l-.08-8.93s-1.07 1.09-2.9-.55c-1.51-1.36-2-3.67-.86-4.91a2.56 2.56 0 0 1 4.17.84 18.7 18.7 0 0 0 7.56-2.27 10 10 0 0 0 5-7.67Z" style="fill:#b16668"/><path d="M268.69 163.59a.75.75 0 0 0 .71.81.77.77 0 0 0 .79-.74.75.75 0 1 0-1.5-.07ZM262.31 163.76a.77.77 0 0 0 .71.82.78.78 0 0 0 .79-.75.75.75 0 1 0-1.5-.07Z" style="fill:#263238"/><path d="m264.3 169.54 1.75.57a.91.91 0 0 1-1.14.66 1 1 0 0 1-.61-1.23Z" style="fill:#9a4a4d"/><path d="m270.72 161.44-1.53-1.09a.87.87 0 0 1 1.26-.28 1.06 1.06 0 0 1 .27 1.37ZM256.26 163.8v2.63a1.24 1.24 0 0 0 1.29-1.26 1.36 1.36 0 0 0-1.29-1.37Z" style="fill:#263238"/><path style="fill:#9a4a4d" d="m266.33 163.02-.02 5.1 2.38-.78-2.36-4.32zM263.81 173.7c-1.92-.25-5.89-1.41-6.51-3a4.21 4.21 0 0 0 1.39 2.07c1.19 1.05 5.11 2.23 5.11 2.23Z"/><path d="M241.2 209c-.34-1.64 3.33-17.93 4.77-23.08l6.38 7.45-3.93 16.08a91.38 91.38 0 0 0 3.21 13.27 2.93 2.93 0 0 0 1.38 1.56 16.78 16.78 0 0 1 3.74 3.11c1 .94 1.86 1.14 1.76 1.46a1.59 1.59 0 0 1-2 .86 10.81 10.81 0 0 1-2.39-1.1 14.48 14.48 0 0 0 2.64 3.91c2.47 2.65 2.69 4.36-1.92 4.71-2.89.22-5.32-1.4-7.92-7.63-.75-1.79-1.7-4.4-2.41-6.75-1.65-5.58-2.51-10.05-3.31-13.85Z" style="fill:#b16668"/><path d="M254.51 188.69c1.74-4 .88-8.67-1-10.48-4.9.84-6.16 3.15-7.49 7.71-1.12 3.86-2.29 8.23-2.29 8.23 1.23 1.63 6.2 3.55 8.49 2.86Z" style="fill:#455a64"/></svg>