<svg xmlns="http://www.w3.org/2000/svg" viewBox="0 0 500 500"><ellipse cx="250" cy="348.92" rx="239.65" ry="126.73" style="fill:#f5f5f5"/><ellipse cx="116.78" cy="362.12" rx="72.6" ry="41.92" style="fill:#e0e0e0"/><ellipse cx="387.05" cy="374.07" rx="71.78" ry="41.55" style="fill:#e0e0e0"/><path d="M420.64 321.76s-3.31-16.48.61-31.37 12.27-26.08 22.13-30.15 21 2.61 12.26 12.51-25.88 22.65-27 49.47Z" style="fill:#b2299f"/><path d="M420.64 321.76s-3.31-16.48.61-31.37 12.27-26.08 22.13-30.15 21 2.61 12.26 12.51-25.88 22.65-27 49.47Z" style="opacity:.15"/><path d="M422.27 316.67h-.11a.57.57 0 0 1-.53-.61c2.2-29.79 19-47.35 27.54-52.48a.57.57 0 1 1 .58 1c-8.39 5-24.82 22.26-27 51.59a.57.57 0 0 1-.48.5Z" style="fill:#fff"/><path d="M429.66 338.43a23.78 23.78 0 0 0-2.13-7.86c-1.19-2.66-3.38-5-4.07-7.87a9.59 9.59 0 0 1 1.73-7.11c1.39-1.95 3.41-3.52 4.16-5.79s0-4.86.12-7.31a10.46 10.46 0 0 1 10.55-10c2.52 0 4.93 1 7.36 1.64a12 12 0 0 0 7.51 0 53 53 0 0 1 8.1-2.48c4.72-.9 11-.45 13.56 4.25a6.1 6.1 0 0 1 .87 3.8v.17c-.72 3.65-4.89 5.18-7.35 7.38-.67.6-1.81 1.49-1.92 2.47s.92 2.08 1.48 2.86c1.43 2 3.29 3.82 3.9 6.27.88 3.52-1.43 7.5-4.12 9.59a19.36 19.36 0 0 1-9 3.44c-1.6.24-3.36.43-4.48 1.6a5.05 5.05 0 0 0-1.15 3.93c.09 1.41.49 2.78.62 4.18a12.49 12.49 0 0 1-5.72 11.36 14.67 14.67 0 0 1-10.57 1.91c-3-.55-6-3.43-7.09-6.24a38.26 38.26 0 0 1-2.36-10.19Z" style="fill:#b2299f"/><path d="M432.36 346.32a.52.52 0 0 1-.56-.51c-1.73-33.61 29.36-48.6 37.15-50.51a.55.55 0 0 1 .65.39.54.54 0 0 1-.39.65c-7.62 1.87-38 16.53-36.35 49.42a.54.54 0 0 1-.5.56Z" style="fill:#fff"/><path d="M463.46 319a.5.5 0 0 1-.31-.06 28.39 28.39 0 0 0-24.15.91.54.54 0 1 1-.48-1 29.44 29.44 0 0 1 25.12-.9.54.54 0 0 1 .23.72.53.53 0 0 1-.41.33Z" style="fill:#fff"/><path d="M76.81 308.14c1.21-7.74.73-21.06-5.25-35.05-6.4-15-16-25.7-25.47-24-8.81 1.55-8.43 13.28 2.69 27.44 7.8 9.93 16.72 21.16 19.21 34.42l3.74 18.4Z" style="fill:#b2299f"/><path d="M76.81 308.14c1.21-7.74.73-21.06-5.25-35.05-6.4-15-16-25.7-25.47-24-8.81 1.55-8.43 13.28 2.69 27.44 7.8 9.93 16.72 21.16 19.21 34.42l3.74 18.4Z" style="opacity:.15"/><path d="M74.65 313.75a.57.57 0 0 1-.42-.48c-2.59-22.9-13.41-48-25.15-58.47a.57.57 0 0 1 0-.79.54.54 0 0 1 .78 0c11.93 10.59 22.9 36 25.52 59.17a.55.55 0 0 1-.49.62Z" style="fill:#fff"/><path d="M67.06 349.34c-.62.21-1.28.32-2 .55a40 40 0 0 1-9.68 1.95c-6.46.38-13.26-1-18.43-5.07-1.07-.83-2.15-2.07-1.8-3.37.26-1 1.23-1.59 2.12-2.09l12.89-7.17-15.77 1.23a7.26 7.26 0 0 1-3.08-.2 6.43 6.43 0 0 1-3-3 24.22 24.22 0 0 1-2.57-6.12c-.31-1.18-.47-2.62.4-3.48a3.71 3.71 0 0 1 1.57-.79 77.65 77.65 0 0 1 16.75-3.24c-5.44-2.11-11.33-2.38-17.08-2.83a3.07 3.07 0 0 1-1.2-.25c-.91-.46-1.15-1.63-1.24-2.64-.59-6.65 1.12-13.44 1.79-20 .22-2.14.46-2.06 2.43-1.79 8.9 1.24 17.16 3.62 25.81 5.84a4.69 4.69 0 0 1 2.63 1.32 4.39 4.39 0 0 1 .52 3.37 30.19 30.19 0 0 1-2.88 9.36 25 25 0 0 0 6-7.64 3.47 3.47 0 0 1 1.48-1.79 3 3 0 0 1 2.61.61c11.53 7.28 11.65 21.57 9.35 33.53-.11.59-.23 1.18-.35 1.77a19.42 19.42 0 0 1-2.46 6.87 21.18 21.18 0 0 1-3.19 4.16 4.14 4.14 0 0 1-1.62.91Z" style="fill:#b2299f"/><path d="M66.35 350.94a.56.56 0 0 1-.36-.47c-1.59-18.31-22.5-46.79-31.7-52.48a.55.55 0 0 1-.18-.76.57.57 0 0 1 .77-.18c9.35 5.78 30.6 34.72 32.22 53.32a.55.55 0 0 1-.51.6.5.5 0 0 1-.24-.03Z" style="fill:#fff"/><path d="M293.71 125.56c-1.89-1.15-4.44-1.84-6.29-2.7-1.39-.65-3.23-1.18-3.76-2.79a7.6 7.6 0 0 1-.28-2.13 6.21 6.21 0 0 0-.34-2.1 8.09 8.09 0 0 1-.65-1.52 5 5 0 0 1 .27-2 3.18 3.18 0 0 0-.16-1.88 4 4 0 0 1 .86-4 5.57 5.57 0 0 0 .76-.85c.41-.68.24-1.56.45-2.33.91-3.43 6.91-.68 8.77.41.53.31 3.18 1.77 4.36 2.48a19.28 19.28 0 0 1 1.81-5.58c1.6-3.43 5.54-4.06 5.28-1.83a32.57 32.57 0 0 0-.56 7.42 33 33 0 0 0 .83 6 51.34 51.34 0 0 0 3.07 9.85c2.46 5.79 14.58 22.73 14.58 22.73 6-3.43 24.51-14.39 31.87-18.85 8.06-4.89 17.49-3.23 17.49-3.23L357 145.83s-23.1 12.36-30.44 16.35c-6 3.27-10.8 4.54-15.08-3.7-6.65-12.76-14.48-30.32-17.77-32.92Z" style="fill:#ffa8a7"/><path d="M296 106.88c1.85.86 2.22 2.2 1.82 5-.24 1.64-.14 4.74 1.5 6.19a4.31 4.31 0 0 1-2.21-1.31c-.73-1-.95-1.1-1.48-.66a3.18 3.18 0 0 1-1.33.55 2.15 2.15 0 0 1-.12 2.57c-1 1.32-4.9.87-7.85-1.16 0 0 4.92 2.24 6.32.76s-1.07-3.87-3-4.68c0 0 4.8 1.81 5.76.28s-.93-3-3.75-4.13c0 0 4 1.26 4.88 0 .99-1.65-.12-2.78-.54-3.41Z" style="fill:#f28f8f"/><path d="M374.47 114.21h7A23.54 23.54 0 0 0 405 90.64a27.06 27.06 0 0 0-27-27.09 24.72 24.72 0 0 0-18.17 7.67l-.47 36.93s9.06 6.06 15.11 6.06Z" style="fill:#263238"/><path d="m390.58 67.18-1.1-7.3A3.58 3.58 0 0 0 386.3 64a3.86 3.86 0 0 0 4.28 3.18Z" style="fill:#263238"/><path d="M404.73 75.17c-3.93 3.52-7.28.77-10.78-3.18s-5.85-7.59-1.95-11.1a9.55 9.55 0 0 1 12.69 14.28ZM436 352.34c-.92 1.91-.44 4.29-.51 9.47a87 87 0 0 1-.42 10.21c-.16 1.21-.55 2.31-.81 3.49a4.27 4.27 0 0 1-1.36 2.43 2.6 2.6 0 0 1-2.32.65 2.49 2.49 0 0 1-1.48-1.26 19.59 19.59 0 0 1-1.32-3.56c-1 8.66-10.36 14.66-4.64 16.8a15.94 15.94 0 0 0 12.43-.67 10.76 10.76 0 0 0 4-3.39c2.2-3.85 2-7.51 2-10.82.07-7.32 1.27-11.1 1.86-14.76.75-4.43-6.01-9.26-7.43-8.59ZM373.25 351.49a.79.79 0 0 1 .59.73c.16 1 .35 2.8.68 4.46.44 2.21.91 5.4.55 7.18s-2.76 3.5-7.26 4.77a30.82 30.82 0 0 0-9.76 5.13c-2.71 2.47-8.5 4.53-12.42 4.64-4.59.14-9.38-1.09-10.48-4.4-.47-1.4 1.81-2.92 7.69-5.74 0 0 3-1.57 4.66-2.63 8.49-5.35 11.38-8.38 13.86-13.84Z" style="fill:#263238"/><path d="M358.16 356.28c2.71-2.93 3.22-5.75 2.86-11.19s-4.65-52.8-5.75-64.65c-1.85-19.92.16-76.51 1.81-90.33l51.65 4.1c3.85 9.64 6.67 21.52 6.07 40.15-.47 14.21-.15 52.76-.15 52.76s6.46 5.66 11.08 16.85c4.07 9.89 8.76 44 8.76 44a31 31 0 0 0 1.55 4.33 8.42 8.42 0 0 1 1.9 5 83.54 83.54 0 0 1-1.87 17.56 8.17 8.17 0 0 1-5.48 6.09 4.64 4.64 0 0 1-2.08.35 1.57 1.57 0 0 1-1-.38c-.5-.5 0-1.7.05-2.3a21.86 21.86 0 0 0 .27-2.91c.06-1.92 0-4.26-.13-6.18a63.1 63.1 0 0 0-2.05-12.73l-1-2.46s-23-46.49-29.5-57.82c-5.19-8.9-8.63-43.41-12.3-62.28l-5.38 45.1s1.87 8.14 2.58 14.37c1 8.37-4.95 41.16-6.71 52.82a23.42 23.42 0 0 0-.08 6.53c-.63 5.05-4.41 6.61-8.32 9.47-2 1.42-10.5 6.62-15.67 7.67-4.2.85-5.81-.78-6.39-2a87.22 87.22 0 0 0 15.28-11.92Z" style="fill:#ffa8a7"/><path d="M398.85 175.43s4.66 5.7 11.91 20.07c4.87 9.64 5.18 45 5.18 45s-4.24 9.66-31 8.06l-2-12-1.71 11.72-2-.2c-23-2.48-27.34-7.7-27.34-7.7s1.66-41.08 6.67-64.4c7.82 5.53 30.94 6.84 40.29-.55Z" style="fill:#455a64"/><path d="m383 236.59-5.11-19.9s-9.89-1.06-17.58-6.69c0 0 1.58 7.27 15.18 9.42l5.84 19.52-.06 9.4Z" style="fill:#263238"/><path d="M402.35 241.94c9.51-2.27 13.29-6.19 13.29-6.19l.31 4.69s-4.24 9.66-31 8.06l-.88-5.33a58 58 0 0 0 18.28-1.23ZM351.92 240.41s.08-1.9.25-5.14a61.89 61.89 0 0 0 14.53 5.32 94.24 94.24 0 0 0 15.38 2.19l-.81 5.53-2-.2c-23.04-2.48-27.35-7.7-27.35-7.7Z" style="fill:#37474f"/><path d="M353.3 141c5.16-8 15.44-15.59 18.77-18.24l17.58.14c2.42.12 6 .42 7.3.63a11.37 11.37 0 0 1 3.32 1.1c4.05 2.16 4.46 6.17 4.6 10.93.15 5.21.18 7.5-1.26 16.12l-2.61 11-.4 1.68c-.07.29-.13.58-.2.88a18 18 0 0 0 1.54 12.48c4.44 8.51 8.9 15.12 10.38 22.27a18.36 18.36 0 0 1-5.91-4.07c-2.86-2.75-4.59-4-6.88-7.28-5.53 10.69-35.23 19.8-44.53 3.24 0 0 2.85-14.28 3.33-19.07-.73-4.15-2.89-11.34-2.94-12.92-5.94-5.33-5.84-13.13-2.09-18.89Z" style="fill:#b2299f"/><path d="M364.73 159s6.37 5.65 14.2 3.43a13.16 13.16 0 0 0 9.38-8.87s.25 8.83-9.6 11.2c-9.5 2.29-13.98-5.76-13.98-5.76Z" style="opacity:.1"/><path d="M355.4 98.27c.88 13.21 4 16.82 7.34 17.78 2.25.64 6.29.36 10.31-.3v7.94s-4.64 4.88-4.29 8.52 7.3 4.06 12.51.49a39.41 39.41 0 0 0 7.71-7 2.79 2.79 0 0 0 .67-1.83V105.2s2.2 2.34 6.11-.34a7.22 7.22 0 0 0 1.84-10.48c-1.69-2-6-2.14-8.08 1-1.17 2.28-1.33 4.58-2.63 3.63-3.48-2.51-1.29-9.93-5.49-12.75a56.47 56.47 0 0 0-6.32-3.62c-7.49-2.59-12.29-1.33-13.85-6.46-5.23 2-6.81 7.51-5.83 22.09Z" style="fill:#ffa8a7"/><path d="M370.66 96a1.78 1.78 0 1 0 1.87-1.77 1.83 1.83 0 0 0-1.87 1.77ZM357.68 95.5a1.71 1.71 0 0 0 1.59 1.83 1.61 1.61 0 0 0 1.73-1.67 1.7 1.7 0 0 0-1.59-1.82 1.72 1.72 0 0 0-1.73 1.66Z" style="fill:#263238"/><path style="fill:#f28f8f" d="m365.96 93.84-.29 11.14-5.85-1.82 6.14-9.32zM373.06 115.74c4.25-.55 13-3.07 14.35-6.53a9 9 0 0 1-3.07 4.41c-2.61 2.25-11.28 4.77-11.28 4.77Z"/><path d="m372.05 90 4.16 1.82A2.4 2.4 0 0 0 375 88.7a2.21 2.21 0 0 0-2.95 1.3Z" style="fill:#263238"/><path d="m375.34 104.68-8.18 2.86a4.23 4.23 0 0 0 5.42 2.79 4.36 4.36 0 0 0 2.76-5.65Z" style="fill:#b16668"/><path d="M374.34 106.84a3.69 3.69 0 0 0-3.69 3.66 5 5 0 0 0 1.93-.17 4.26 4.26 0 0 0 2.92-3.33 3.72 3.72 0 0 0-1.16-.16Z" style="fill:#f28f8f"/><path d="M364.34 67.63C354.58 68.81 349 76.2 349 88.73h9a8.39 8.39 0 0 0 8.3-7.27l.33 7.27a6.67 6.67 0 0 0 6.64-6.1l.11-1.19a7.9 7.9 0 0 0 7.87 7.29h.8l.92-13Z" style="fill:#263238"/><path d="M367.81 273.56c0-33.29-20.19-72-45.1-86.38-11.42-6.62-22.12-7.33-30.06-2.57l-19.08 11.2 5.43 11.32a67.67 67.67 0 0 0-1.42 14.22c0 33.3 20.2 72 45.1 86.38a47.55 47.55 0 0 0 5.2 2.6l5.15 10.88L352 310.26c9.66-5.46 15.81-18.34 15.81-36.7Z" style="fill:#b2299f"/><ellipse cx="303.22" cy="258.57" rx="39.26" ry="69.52" transform="rotate(-22.95 303.263 258.598)" style="fill:#b2299f"/><path d="M367.3 282.18c-.05.38-.09.75-.15 1.12a53.086 53.086 0 0 1-1.11 5.91c-.17.78-.38 1.54-.61 2.28-.11.37-.23.73-.34 1.09s-.24.73-.36 1.08c-.25.71-.52 1.39-.79 2.07l-.42 1c-.31.7-.62 1.37-1 2l-.32.61c-.52 1-1.08 1.89-1.67 2.77l-.3.44-.23.31a25.84 25.84 0 0 1-5 5.28l-.43.34c-.26.2-.53.4-.8.58l-1 .65c-.29.18-.6.37-.9.53L333.41 321c7.71-4.8 13-14.49 14.56-28a72.89 72.89 0 0 0 .45-8.29c0-14.67-3.92-30.4-10.44-44.64l19.36-11.2c6.53 14.24 10.47 30 10.47 44.68a72 72 0 0 1-.47 8.23c0 .14-.02.27-.04.4Z" style="opacity:.1"/><path d="M367.35 281.78c-.15 1.31-.33 2.59-.55 3.83s-.47 2.44-.76 3.6c-.19.78-.4 1.54-.61 2.28-.11.37-.23.73-.34 1.09s-.24.73-.36 1.08c-.25.71-.52 1.39-.79 2.07l-.42 1c-.31.7-.62 1.37-1 2l-.32.61c-.52 1-1.08 1.89-1.67 2.77-.17.26-.34.51-.53.75a25.84 25.84 0 0 1-5 5.28l-.43.34c-.26.2-.53.4-.8.58l-1 .65c-.29.18-.6.37-.9.53L333.41 321c7.71-4.8 13-14.49 14.56-28Z" style="opacity:.1"/><path d="M357.34 228.88 338 240.08c-8.28-18.11-20.78-33.83-34.76-41.91-11.31-6.55-21.65-7-29.58-2.39l19-11.16c7.94-4.77 18.64-4.06 30.06 2.56 13.9 8.05 26.34 23.68 34.62 41.7Z" style="fill:#fff;opacity:.4"/><path d="M334.31 275.92c0 9.29-2.42 16.81-6.49 21.67-5.67 6.8-14.47 8.46-24.33 2.72s-18.72-17.64-24.39-31c-4.07-9.59-6.49-19.89-6.49-29.19Z" style="fill:#37474f"/><path d="M327.82 297.59c-5.67 6.8-14.47 8.46-24.33 2.72s-18.72-17.64-24.39-31c6.32-4.56 14.94-4.62 24.39.83s18.01 15.49 24.33 27.45Z" style="fill:#f28f8f"/><path d="M315.9 243.27c0 4.76 2.5 10.07 5.59 11.86s5.59-.63 5.59-5.39-2.5-10.07-5.59-11.86-5.59.63-5.59 5.39ZM280.53 222.8c0 4.76 2.5 10.07 5.59 11.85s5.59-.62 5.59-5.38-2.51-10.07-5.59-11.86-5.59.59-5.59 5.39Z" style="fill:#37474f"/><path d="M339.81 202.76a22.28 22.28 0 0 0-5.46.52c-3.72.68-7.29 1.15-11-.21-2.12-.78-4.61-2.5-5-4.94s2.27-3.23 3.92-4.12a48.1 48.1 0 0 1 7.07-3.16 22.37 22.37 0 0 1 12.73-.65c2.17.51 5.08 1.21 7.22.2 1.45-.69 2.87-1.52 4.29-2.25l11.17-5.77 15.39-7.95 7.08-30.51s1.65-12.53 8.62-20.58c5.29.47 10.45 2.3 11.64 5.57s.36 7.77-1.11 14.61-9.1 29-12.07 36.92c-1.36 3.62-2 5.14-6.82 7.23q-10.66 4.65-21.38 9.2c-3.71 1.57-7.41 3.14-11.13 4.68-2.34 1-4.7 2.09-7.27 2.22s-5.22-.86-7.89-1.01ZM144.17 134.64s19.78 12.24 21.54 13.22 5.4 4.47 9.12-.12c3-3.68 23.35-35 23.35-35l-10.8-5.2-19 23.29-28.6-20.36Z" style="fill:#ffa8a7"/><path d="M144.6 112.32c6.4 5.05 17.4 13.21 17.4 13.21a29.28 29.28 0 0 1-8.36 16.47l-11.16-6.89-13.85-28.07s7.26-1.56 15.97 5.28Z" style="fill:#37474f"/><path d="M153.48 184.11c0-33.59 20.42-72.61 45.61-87.16 11.56-6.67 22.37-7.38 30.41-2.58l19.29 11.3-5.52 11.42a67.53 67.53 0 0 1 1.43 14.35c0 33.59-20.42 72.61-45.61 87.15a47.51 47.51 0 0 1-5.25 2.62l-5.21 11-19.13-11c-9.8-5.58-16.02-18.57-16.02-37.1Z" style="fill:#b2299f"/><ellipse cx="218.8" cy="168.99" rx="70.17" ry="39.7" transform="rotate(-66.95 218.798 168.982)" style="fill:#b2299f"/><path d="m154 192.81.15 1.13c.11.79.23 1.57.36 2.32.22 1.26.47 2.47.77 3.64.17.78.38 1.55.62 2.3.11.37.23.74.34 1.1s.25.73.37 1.09c.25.71.52 1.4.79 2.09.14.32.28.65.43 1 .31.7.63 1.38 1 2l.32.61c.53 1 1.1 1.91 1.69 2.79.1.16.2.3.31.45l.22.31a26.16 26.16 0 0 0 5 5.33l.43.34c.27.21.54.4.81.59s.65.44 1 .65.61.37.91.54L188.27 232c-7.8-4.84-13.18-14.61-14.72-28.24a74.08 74.08 0 0 1-.46-8.36c0-14.81 4-30.67 10.56-45L164.07 139c-6.61 14.37-10.59 30.25-10.59 45.08a73.07 73.07 0 0 0 .47 8.3c.05.16.05.29.05.43Z" style="opacity:.1"/><path d="M153.94 192.41c.16 1.32.34 2.61.56 3.85s.47 2.47.77 3.64c.19.78.4 1.55.62 2.3.11.37.23.74.34 1.1s.25.73.37 1.09c.25.71.52 1.4.79 2.09.14.32.28.65.43 1 .31.7.63 1.38 1 2l.32.61c.53 1 1.1 1.91 1.69 2.79.17.27.35.52.53.76a26.16 26.16 0 0 0 5 5.33l.43.34c.27.21.54.4.81.59s.65.44 1 .65.61.37.91.54L188.27 232c-7.8-4.84-13.18-14.61-14.72-28.24Z" style="opacity:.1"/><path d="m164.07 139 19.58 11.31c8.38-18.28 21-34.14 35.15-42.3 11.44-6.61 21.91-7 29.92-2.4L229.5 94.37c-8-4.8-18.85-4.09-30.41 2.59-14.09 8.12-26.65 23.89-35.02 42.04Z" style="fill:#fff;opacity:.4"/><path d="M206 153.55c0 4.8-2.53 10.16-5.65 12s-5.65-.63-5.65-5.44 2.53-10.15 5.65-12 5.65.64 5.65 5.44ZM241.75 132.9c0 4.8-2.53 10.16-5.65 12s-5.65-.64-5.65-5.44 2.53-10.16 5.65-12 5.65.63 5.65 5.44ZM208.11 209.78a17.81 17.81 0 0 1-6.81-1.33c-6.42-2.61-11.35-9-13.88-18.12a2.93 2.93 0 1 1 5.64-1.58c2 7.29 5.75 12.36 10.46 14.28 4 1.64 8.8 1 13.82-1.92 12-6.94 22.92-25.09 27.16-45.17a2.93 2.93 0 0 1 5.74 1.21c-4.64 21.95-16.4 41.2-30 49a24.49 24.49 0 0 1-12.13 3.63Z" style="fill:#37474f"/><path d="M183.87 192.69a8.15 8.15 0 0 1-3.74-.78 2.27 2.27 0 0 1 2.14-4 7.68 7.68 0 0 0 5.26-.51 9.78 9.78 0 0 0 5.64-6.61 2.27 2.27 0 0 1 4.36 1.27 14.2 14.2 0 0 1-13.66 10.64ZM242.52 158.9a8.06 8.06 0 0 1-3.75-.79 2.27 2.27 0 0 1 2.14-4 7.68 7.68 0 0 0 5.26-.51 9.74 9.74 0 0 0 5.64-6.61 2.27 2.27 0 0 1 4.36 1.27 14.23 14.23 0 0 1-13.65 10.65Z" style="fill:#37474f"/><path d="M89.55 377.23c-.36 1.41-1.11 5.42-8.57 5.42s-11.73-3-13.2-6.84-.63-6.6-.49-9.9-2.32-5.41-2.86-7.2c-.8-2.63 1.39-6.25 1.39-6.25ZM161.27 352.87a4.44 4.44 0 0 1-.35 3.59c-.54.73-5.54 4.37-11.72 3.61a28.62 28.62 0 0 1-12.72-4.44c-3.61-2.13-6.1-2.44-9.77-2.43s-6.19-.68-6.49-1.6c-.54-1.62-.58-2.66.2-2.64Z" style="fill:#263238"/><path d="M68.43 346.71c-.13 3.84 11.57 7.17 11.32 2.29l4-14.17-13.12-1.39ZM123 337.7c3.69 2.64 7.09 3 11.42.8l2.18-23.2h-15.91Z" style="fill:#ffa8a7"/><path d="M88.85 183.71c-3 28-8.48 84.52-8.48 84.52s-4.8 7.32-6.59 20.82c-2.2 16.68-4.39 51.48-4.39 51.48a15.41 15.41 0 0 0 13 1.33s18.71-51.09 22.17-67.5c3-14.33 8.37-43.75 8.37-43.75l6.69 40a62.48 62.48 0 0 0-2.16 19.51c.32 7.71 3.94 36.89 3.94 36.89 1.08 3.19 11.09 3 14.31.91 0 0 5.12-49 5.8-57.15.89-10.66 2.54-87.1 2.54-87.1Z" style="fill:#37474f"/><path d="m112.91 230.61 3.73-17.22s8.35-1.9 14.31-6.68c0 0-2.18 5.49-11.33 9.69l-3.81 16.13 3.28 35.38Z" style="fill:#263238"/><path d="m79.75 349 .43-1.48c.49.49.41.91.42 2.23 0 1.05 0 2.06.14 3.45a31.63 31.63 0 0 0 1 5.37c1 4.09 2.05 5.73 4.92 10.78.68 1.19 2.33 3.18 2.82 4.48s.63 3.65-.9 4.55c-4.36 2.58-11.09 1.88-15.36-.13a9.15 9.15 0 0 1-5.37-8.31c0-1 .22-2.07.26-3.11a14.74 14.74 0 0 0-1.76-6.83 19.49 19.49 0 0 1-1.58-3.82c-.57-2.42.56-4.85 1.51-7 .81-1.87 1.76-4.37 2.4-4.08 0 .24-.25 1.64-.25 1.64.66 1 2.74 2.24 5.23 2.72 1.6.29 5.92.77 6.09-.46ZM134.89 333.66c.57 0 1.15.45 2.16 1.92a17.68 17.68 0 0 0 5.27 5.06c3.76 2.64 9.69 5.31 15.79 7.59 3.32 1.24 3.95 3.64 2.85 5.79-1.72 1.72-7.58 5.74-17.21 2.81-6-1.82-8.07-4.89-12.34-5.43-3-.38-8.26.44-11.34-2-1-2.33-.19-4.67.12-7.91s1.34-8.41 2.37-8.21l.18 1.72c.82 3.74 9.43 4.11 11.87 1.66Z" style="fill:#455a64"/><path d="M110.3 106c-8.18 0-14.11.45-19.4 1.59-4.14.88-5.45 7.83-5.72 12.46C84.29 135.05 91 163 91 163l-3.13 26c7 7.5 38.38 11.41 56.3.42 0 0 .48-51.15 0-59.77-.84-15.17-7.35-22.44-12.94-22.87 0-.03-12.75-.78-20.93-.78Z" style="fill:#b2299f"/><path d="M102.83 59.91s-4.29.59-5.86 3.82c-1.37 2.81-.88 9.6 1 17s3.54 11.85 4.61 13.9a5.66 5.66 0 0 0 3.27 2.62l-.21-8.78-.32-6.11s3.92-5.36 4.35-9.75c.56-5.65-.63-8-.63-8Z" style="fill:#37474f"/><path d="M109.75 68.4A16.38 16.38 0 1 0 126.08 52a16.38 16.38 0 0 0-16.33 16.4Z" style="fill:#37474f"/><path d="M105.5 81.38c-1.48 1.27-2.67-2-3.92-3.32s-5.28-3-7.28 1.2 1.85 10.21 4.87 11.62c4.43 2.05 6.42-2.42 6.42-2.42l.47 18.46c7.57 11.47 25.17 9.14 17.83.72v-6s5 .73 7.38.35c4-.63 6.13-3.67 7.34-8 1.94-7 1.89-17.67-.8-31.28-4.51-3.48-19.32-4-28.78 2 .65 12-2.03 15.39-3.53 16.67Z" style="fill:#ffa8a7"/><path d="M140.85 51.91a.75.75 0 0 0-.59-.45.91.91 0 0 0-.55.24 26.26 26.26 0 0 1-3.59 2.41 12.77 12.77 0 0 0 .06-4.89c-.17-1-.45-3.29-1.68-3.54-.73-.14-1.37.47-1.92 1-4.92 4.61-11.35 2.47-17.28 2.66-5 .16-10.94 2.18-13.18 7-1 2.21-1.2 4.53.82 6.06a14.08 14.08 0 0 0 6 2.26c9.88 1.72 23.18 5.1 30.49-4.11a8.66 8.66 0 0 0 2-4.56 7.27 7.27 0 0 0-.6-4 .14.14 0 0 0 .02-.08Z" style="fill:#263238"/><path d="M123.85 101.63s-9-1.79-12.15-3.45a10.34 10.34 0 0 1-4.35-4.28 14.07 14.07 0 0 0 2.48 5.1c2.31 2.93 14 5.06 14 5.06Z" style="fill:#f28f8f"/><path d="M121.52 79.21a1.81 1.81 0 1 1-1.81-1.87 1.83 1.83 0 0 1 1.81 1.87ZM119.59 72.41l-3.85 2.14a2.31 2.31 0 0 1 .89-3.07 2.16 2.16 0 0 1 2.96.93Z" style="fill:#263238"/><path d="m120.56 88.91 9.2 3.41a4.81 4.81 0 0 1-6.23 3.07 5.14 5.14 0 0 1-2.97-6.48Z" style="fill:#b16668"/><path d="M137.57 73.85 134 71.16a2.14 2.14 0 0 1 3.06-.48 2.33 2.33 0 0 1 .51 3.17ZM136.5 78.65a1.8 1.8 0 1 1-1.81-1.87 1.83 1.83 0 0 1 1.81 1.87Z" style="fill:#263238"/><path style="fill:#f28f8f" d="m127.32 76.97.62 10.83 5.65-1.94-6.27-8.89zM123.53 95.39a4.7 4.7 0 0 0 2.64.18 4.16 4.16 0 0 0-5.74-3.7 5 5 0 0 0 3.1 3.52Z"/><path d="M99.52 179.74c-4.42-1.49-6.16-2.36-8.27-9.05-5.62-17.79-10.7-32.46-11.78-41.38-2.08-17.25 4.85-18.82 10.08-20.7l7.2 17.49 10.6 38.13c8.52 3.83 22.47 6.66 32.45 9.76a25.94 25.94 0 0 0 6.69.65c3.48-.34 5.62-.75 7.56-.41-.19 1.43-.27 2.78-.37 4.05a57.5 57.5 0 0 0 10.15-.93c7.26-1.35 9.86 1.06 3.9 8.35-3.37 4.13-10 5.72-19.64 4.7a96.63 96.63 0 0 1-14.77-3.09c-12.62-3.39-26.85-5.24-33.8-7.57Z" style="fill:#ffa8a7"/><path d="M90.9 107.54C80.27 108.7 75.81 118.07 78 129c1.57 7.76 4.64 18.47 7.12 26.29 0 0 12.94-.13 19.15-6.07-2.34-7.68-2.72-9.29-4.79-16.57-.76-14.56-3.78-21.65-8.58-25.11Z" style="fill:#37474f"/><path d="M190.8 102.74c1.18-1 2.51-2 4-3.06 0 0 4.31.4 9.55 4.56 3.32 2.63 13.32 2.45 11.89-2.15-2-6.47-9-8.83-12.14-9.51-5.17-1.12-14.45 3.42-13.3 10.16Z" style="fill:#ffa8a7"/></svg>