<svg xmlns="http://www.w3.org/2000/svg" viewBox="0 0 500 500"><ellipse cx="250" cy="346.97" rx="238.01" ry="141.59" style="fill:#f5f5f5"/><path d="m378.46 339.15 78.46-45.26c3.1-1.78 3.1-4.68 0-6.47l-113.22-65.5a12.39 12.39 0 0 0-11.22 0L254 267.18c-3.1 1.79-3.1 4.69 0 6.47l113.22 65.5a12.39 12.39 0 0 0 11.24 0ZM178.79 449.6 61.22 381.82c-3.31-1.91-3.31-5 0-6.92l163.57-94.45a13.26 13.26 0 0 1 12 0l117.57 67.78c3.31 1.91 3.31 5 0 6.92L190.78 449.6a13.26 13.26 0 0 1-11.99 0Z" style="fill:#e0e0e0"/><ellipse cx="90.42" cy="426.74" rx="33.18" ry="19.16" style="fill:#e0e0e0"/><path d="m242.54 438.81.11-.13 5.92-6.5v-.05a.57.57 0 0 1 .11-.11l.06-.07c.85-.81 2.19-.88 3.7 0a10.23 10.23 0 0 1 4.64 8c0 1.72-.7 2.84-1.79 3.19h-.07l-.33.07h-.08l-8.57 1.87a2.09 2.09 0 0 1-1.5-.32 5.87 5.87 0 0 1-2.65-4.59 2.22 2.22 0 0 1 .45-1.36Z" style="fill:#e0e0e0"/><path d="m381.1 378.94-124.77 72.11-17.28 3.52a.53.53 0 0 1-.57-.77l5.41-9.93 124.78-72.12c3.41-1.97 15.1 5.65 12.43 7.19ZM310.1 437.84c1.25 3.4 4.88 5.52 10.94 6.31l108.08-62.94 11.22-11.37a.87.87 0 0 0-.89-1.44l-20.66 6.84Z" style="fill:#e0e0e0"/><path style="fill:#b2299f" d="m440.75 290.74-69.59 39.3-106.87-61.33 69.58-39.3 106.88 61.33z"/><path style="opacity:.6000000000000001" d="m440.75 290.74-69.59 39.3-106.87-61.33 69.58-39.3 106.88 61.33z"/><path d="M370.4 327.17 437.65 289c-1.67-4.74-1.55-6.18.35-12.49l-66.84 37.82s-1.22-.13-.76 12.84Z" style="fill:#f5f5f5"/><path d="M374.42 309.11a13.47 13.47 0 0 0-6.14 10.58V328c0 3.89 2.75 5.47 6.14 3.53l66.32-37.68v-3.06l-65.48 37c-2 1.16-3.69.22-3.68-2.12l.05-7.36a8.12 8.12 0 0 1 3.7-6.35l65.4-37v-3.47Z" style="fill:#b2299f"/><path d="M374.42 309.11a13.47 13.47 0 0 0-6.14 10.58V328c0 3.89 2.75 5.47 6.14 3.53l66.32-37.68v-3.06l-65.48 37c-2 1.16-3.69.22-3.68-2.12l.05-7.36a8.12 8.12 0 0 1 3.7-6.35l65.4-37v-3.47Z" style="opacity:.5"/><path d="m440.74 271.44-106.87-61.33-66.31 37.67a13.49 13.49 0 0 0-6.15 10.58v8.27c0 1.94.68 3.31 1.8 3.95l106.87 61.32c-1.12-.64-1.8-2-1.8-3.94v-8.28a13.5 13.5 0 0 1 6.14-10.58Z" style="fill:#b2299f"/><path d="m440.74 271.44-106.87-61.33-66.31 37.67a13.49 13.49 0 0 0-6.15 10.58v8.27c0 1.94.68 3.31 1.8 3.95l106.87 61.32c-1.12-.64-1.8-2-1.8-3.94v-8.28a13.5 13.5 0 0 1 6.14-10.58Z" style="opacity:.35000000000000003"/><path d="M370.07 313.66a12.49 12.49 0 0 0-1.8 6V328c0 1.94.68 3.3 1.8 3.94l-106.86-61.36c-1.12-.64-1.8-2-1.8-3.95v-8.27a12.49 12.49 0 0 1 1.8-6Z" style="fill:#b2299f"/><path d="M370.07 313.66a12.49 12.49 0 0 0-1.8 6V328c0 1.94.68 3.3 1.8 3.94l-106.86-61.36c-1.12-.64-1.8-2-1.8-3.95v-8.27a12.49 12.49 0 0 1 1.8-6Z" style="opacity:.45"/><path d="M277.65 260.54c-2 8.65-2 12 0 18.37l5.08 2.94c-2-6.34-2-9.72 0-18.37ZM347.74 300.82c-2 8.65-2 11.92 0 18.26l5.09 2.94c-2-6.35-2-9.62 0-18.26ZM454.79 270.41l-69.59 39.3-106.87-61.33 69.58-39.3 106.88 61.33z" style="fill:#b2299f"/><path style="opacity:.4" d="m454.79 270.41-69.59 39.3-106.87-61.33 69.58-39.3 106.88 61.33z"/><path d="m384.44 306.83 67.25-38.2c-1.67-4.74-1.55-6.86.34-13.17l-66.83 37.81s-1.2.59-.76 13.56Z" style="fill:#f5f5f5"/><path d="M388.46 288.09a13.5 13.5 0 0 0-6.15 10.58v8.95c0 3.89 2.75 5.47 6.15 3.52l66.32-37.67v-3.06l-65.48 37c-2 1.17-3.69.22-3.69-2.11l.06-8a8.11 8.11 0 0 1 3.69-6.35l65.41-37v-3.47Z" style="fill:#b2299f"/><path d="M388.46 288.09a13.5 13.5 0 0 0-6.15 10.58v8.95c0 3.89 2.75 5.47 6.15 3.52l66.32-37.67v-3.06l-65.48 37c-2 1.17-3.69.22-3.69-2.11l.06-8a8.11 8.11 0 0 1 3.69-6.35l65.41-37v-3.47Z" style="opacity:.25"/><path d="M454.78 250.43 347.91 189.1l-66.32 37.67a13.47 13.47 0 0 0-6.14 10.58v9c0 1.94.68 3.3 1.8 3.94l106.87 61.33c-1.12-.64-1.8-2-1.8-3.95v-8.95a13.47 13.47 0 0 1 6.14-10.58Z" style="fill:#b2299f"/><path d="M384.11 292.65a12.43 12.43 0 0 0-1.8 6v8.95c0 1.94.68 3.31 1.8 3.95l-106.86-61.31c-1.12-.64-1.8-2-1.8-3.94v-9a12.43 12.43 0 0 1 1.8-6Z" style="fill:#b2299f"/><path d="M384.11 292.65a12.43 12.43 0 0 0-1.8 6v8.95c0 1.94.68 3.31 1.8 3.95l-106.86-61.31c-1.12-.64-1.8-2-1.8-3.94v-9a12.43 12.43 0 0 1 1.8-6Z" style="opacity:.15"/><path d="M291.68 239.52c-2 8.65-2 12.72 0 19.06l5.09 2.94c-2-6.35-2-10.41 0-19.06ZM361.78 279.85c-2 8.65-2 12.57 0 18.91l5.09 2.94c-2-6.34-2-10.29 0-18.94Z" style="fill:#b2299f"/><g style="opacity:.4"><path d="M291.68 239.52c-2 8.65-2 12.72 0 19.06l5.09 2.94c-2-6.35-2-10.41 0-19.06ZM361.78 279.85c-2 8.65-2 12.57 0 18.91l5.09 2.94c-2-6.34-2-10.29 0-18.94Z" style="fill:#fff"/></g><path style="fill:#b2299f" d="m78.5 378.41 108.09 61.41 156.78-90-108.08-61.41-156.79 90z"/><path style="opacity:.4" d="m78.5 378.41 108.09 61.41 156.78-90-108.08-61.41-156.79 90z"/><path d="M187.4 436.75 81.81 376.51c1.79-5.07 1.65-7.34-.37-14.08l105.15 59.83s1.3.63.81 14.49Z" style="fill:#f5f5f5"/><path d="M183.1 416.72a14.4 14.4 0 0 1 6.57 11.3v9.56c0 4.17-2.94 5.85-6.57 3.77L78.51 381.68v-3.27l103.7 58.91c2.17 1.25 3.93.24 3.93-2.26l-.06-8.59a8.65 8.65 0 0 0-3.94-6.78L78.51 360.75v-3.7Z" style="fill:#b2299f"/><path d="M183.1 416.72a14.4 14.4 0 0 1 6.57 11.3v9.56c0 4.17-2.94 5.85-6.57 3.77L78.51 381.68v-3.27l103.7 58.91c2.17 1.25 3.93.24 3.93-2.26l-.06-8.59a8.65 8.65 0 0 0-3.94-6.78L78.51 360.75v-3.7Z" style="opacity:.30000000000000004"/><path d="m78.51 357.05 156.78-90 104.59 59.67a14.4 14.4 0 0 1 6.57 11.3v9.56c0 2.08-.73 3.54-1.92 4.22l-156.79 90c1.19-.68 1.92-2.15 1.92-4.22V428a14.41 14.41 0 0 0-6.56-11.3Z" style="fill:#b2299f"/><path d="m78.51 357.05 156.78-90 104.59 59.67a14.4 14.4 0 0 1 6.57 11.3v9.56c0 2.08-.73 3.54-1.92 4.22l-156.79 90c1.19-.68 1.92-2.15 1.92-4.22V428a14.41 14.41 0 0 0-6.56-11.3Z" style="opacity:.2"/><path d="M187.75 421.59a13.27 13.27 0 0 1 1.92 6.43v9.57c0 2.07-.73 3.54-1.92 4.22l156.79-90c1.19-.68 1.92-2.14 1.92-4.22V338a13.37 13.37 0 0 0-1.92-6.43Z" style="fill:#b2299f"/><path d="M187.75 421.59a13.23 13.23 0 0 1 1.92 6.43v9.57c0 2.07-.73 3.53-1.92 4.22l156.78-90c1.2-.68 1.92-2.15 1.93-4.22V338a13.23 13.23 0 0 0-1.92-6.43Z" style="fill:#b2299f"/><path d="M329.1 340.36c2.13 9.24 2.1 13.58 0 20.36l-5.44 3.14c2.1-6.78 2.13-11.12 0-20.36ZM211.61 407.89c2.13 9.24 2.1 13.45 0 20.23l-5.43 3.11c2.09-6.78 2.12-11 0-20.22Z" style="fill:#b2299f"/><g style="opacity:.4"><path d="M329.1 340.36c2.13 9.24 2.1 13.58 0 20.36l-5.44 3.14c2.1-6.78 2.13-11.12 0-20.36ZM211.61 407.89c2.13 9.24 2.1 13.45 0 20.23l-5.43 3.11c2.09-6.78 2.12-11 0-20.22Z" style="fill:#fff"/></g><path style="fill:#b2299f" d="m64.65 357.64 108.09 61.41 156.78-90-108.08-61.41-156.79 90z"/><path style="fill:#fff;opacity:.2" d="m64.65 357.64 108.09 61.41 156.78-90-108.08-61.41-156.79 90z"/><path d="M173.55 416 68 355.74c1.79-5.07 1.65-6.61-.37-13.35l105.15 59.82s1.22-.09.77 13.79Z" style="fill:#f5f5f5"/><path d="M169.25 396.68a14.4 14.4 0 0 1 6.57 11.3v8.83c0 4.17-2.94 5.85-6.57 3.77L64.66 360.91v-3.27l103.7 58.91c2.17 1.25 3.93.24 3.93-2.26l-.06-7.86a8.67 8.67 0 0 0-3.94-6.79L64.66 340.71V337Z" style="fill:#b2299f"/><path d="M169.25 396.68a14.4 14.4 0 0 1 6.57 11.3v8.83c0 4.17-2.94 5.85-6.57 3.77L64.66 360.91v-3.27l103.7 58.91c2.17 1.25 3.93.24 3.93-2.26l-.06-7.86a8.67 8.67 0 0 0-3.94-6.79L64.66 340.71V337Z" style="fill:#fff;opacity:.4"/><path d="m64.65 337 156.79-90L326 306.68a14.42 14.42 0 0 1 6.6 11.32v8.83c0 2.08-.73 3.54-1.93 4.22L173.89 421c1.19-.69 1.92-2.15 1.92-4.22V408a14.43 14.43 0 0 0-6.56-11.31Z" style="fill:#b2299f"/><path d="m64.65 337 156.79-90L326 306.68a14.42 14.42 0 0 1 6.6 11.32v8.83c0 2.08-.73 3.54-1.93 4.22L173.89 421c1.19-.69 1.92-2.15 1.92-4.22V408a14.43 14.43 0 0 0-6.56-11.31Z" style="fill:#fff;opacity:.85"/><path d="M173.9 401.55a13.23 13.23 0 0 1 1.92 6.43v8.84c0 2.07-.73 3.53-1.92 4.22l156.78-90c1.2-.68 1.93-2.14 1.93-4.22V318a13.25 13.25 0 0 0-1.93-6.43Z" style="fill:#b2299f"/><path d="M173.9 401.55a13.23 13.23 0 0 1 1.92 6.43v8.84c0 2.07-.73 3.53-1.92 4.22l156.78-90c1.2-.68 1.93-2.14 1.93-4.22V318a13.25 13.25 0 0 0-1.93-6.43Z" style="fill:#fff;opacity:.6000000000000001"/><path d="M315.25 320.32c2.13 9.24 2.1 12.85 0 19.63l-5.44 3.14c2.1-6.78 2.13-10.39 0-19.64ZM197.76 387.82c2.13 9.24 2.1 12.74 0 19.52l-5.44 3.13c2.1-6.77 2.13-10.27 0-19.51Z" style="fill:#fff"/><path d="M307.85 195.93v40.7c0 5.86 5.15 11.72 15.37 16.19 20.48 9 53.69 9 74.17 0 10.25-4.49 15.36-10.36 15.36-16.24v-40.65c.12-6-5-11.9-15.35-16.44-20.48-9-53.69-9-74.17 0-10.38 4.51-15.49 10.51-15.37 16.44Z" style="fill:#37474f"/><path d="M307.86 195.93c-.12-6 5-11.9 15.36-16.44 20.48-9 53.69-9 74.17 0 10.36 4.54 15.47 10.49 15.35 16.44v18.59c0-4.61-4.09-7.91-16.2-3.45-19.85 7.31-31 19.38-51.24 25.35-16.74 4.93-31.57 3-37.46-3.13v-37.36Z" style="fill:#263238"/><path d="M307.85 217.47v4.62c0 5.85 5.15 11.72 15.37 16.18 20.48 9 53.69 9 74.17 0 10.32-4.51 15.43-10.45 15.36-16.37v-4.47c0 5.87-5.11 11.74-15.36 16.24-20.48 9-53.69 9-74.17 0-10.22-4.48-15.34-10.33-15.37-16.2Z" style="fill:#b2299f"/><path style="fill:#37474f" d="m442.71 182.95-82.41-38.93-82.42 38.93v6.49l82.42 34.61 82.41-34.61v-6.49z"/><path style="fill:#b2299f;opacity:.2" d="M360.3 224.05v-6.49l82.41-34.61v6.49l-82.41 34.61z"/><path style="fill:#b2299f;opacity:.2" d="m360.3 217.56 81.23-32.68 1.18 4.56v-6.49l-82.41 34.61z"/><path style="fill:#455a64" d="m360.3 144.02-82.42 38.93 82.42 34.61 82.41-34.61-82.41-38.93z"/><path d="M316.11 214.83c0-.54-.26-13.19 1-16.79s5.94-7.25 15.71-12.21a102.93 102.93 0 0 1 21.95-8.1l.4 1.8a100.69 100.69 0 0 0-21.52 7.94c-9.18 4.66-13.74 8.11-14.79 11.17-.94 2.73-.95 12.58-.87 16.15Z" style="fill:#b2299f"/><path d="M316.11 214.83c0-.54-.26-13.19 1-16.79s5.94-7.25 15.71-12.21a102.93 102.93 0 0 1 21.95-8.1l.4 1.8a100.69 100.69 0 0 0-21.52 7.94c-9.18 4.66-13.74 8.11-14.79 11.17-.94 2.73-.95 12.58-.87 16.15Z" style="fill:#fff;opacity:.8"/><path d="M326.82 253.52c0-9.47-1.57-26.43-6.54-31.36h-6.55c-5 4.93-6.53 21.89-6.53 31.36 0 1.45.95 2.9 2.87 4a15.32 15.32 0 0 0 13.87 0c1.92-1.11 2.88-2.56 2.88-4Z" style="fill:#b2299f"/><path d="M326.82 253.52c0-9.47-1.57-26.43-6.54-31.36h-6.55c-5 4.93-6.53 21.89-6.53 31.36 0 1.45.95 2.9 2.87 4a15.32 15.32 0 0 0 13.87 0c1.92-1.11 2.88-2.56 2.88-4Z" style="fill:#fff;opacity:.5"/><path d="M313.73 222.16a9.12 9.12 0 0 0-1.06 1.32c1.25 1.32 3.17 1.66 5.08 1.81s3.9 1.7 4.75 9.47 2.5 17.69-.58 20.7-9.95 3-13.56.74a7.57 7.57 0 0 0 1.71 1.33 15.32 15.32 0 0 0 13.87 0c1.92-1.11 2.88-2.56 2.88-4 0-9.47-1.57-26.43-6.54-31.36Z" style="fill:#b2299f;opacity:.6000000000000001"/><path d="M321.92 218.71a4.92 4.92 0 1 1-4.91-4.92 4.91 4.91 0 0 1 4.91 4.92Z" style="fill:#b2299f"/><path d="M321.92 218.71a4.92 4.92 0 1 1-4.91-4.92 4.91 4.91 0 0 1 4.91 4.92Z" style="fill:#fff;opacity:.5"/><path d="M319.86 214.72a4.46 4.46 0 0 1-1.19 6.39 4.81 4.81 0 0 1-6.33-.94 4.9 4.9 0 1 0 7.52-5.45Z" style="fill:#b2299f;opacity:.4"/><path d="M353.67 175.38a3.31 3.31 0 0 1 1.94-2.7 10.38 10.38 0 0 1 9.37 0 3.31 3.31 0 0 1 1.94 2.7v2.17a3.3 3.3 0 0 1-1.94 2.7 10.38 10.38 0 0 1-9.37 0 3.3 3.3 0 0 1-1.94-2.7Z" style="fill:#263238"/><path d="M365 178.09c2.59-1.5 2.59-3.92 0-5.41a10.38 10.38 0 0 0-9.37 0c-2.58 1.49-2.58 3.91 0 5.41a10.38 10.38 0 0 0 9.37 0Z" style="fill:#37474f"/><path d="M97.94 373.09c5.86-.65 16.07-1.6 24.55 10.26 9.66 13.49 5.63 33-4 42.63-12.14 12-33.66 16.31-48.38 6.88-16.3-10.43-21.48-34.57-13.68-46.86s23.11-11.77 27.24-10.79c6.2 1.47 9.72-1.61 14.27-2.12Z" style="fill:#b2299f"/><path d="M77.55 428.51c16.41 5.66 36.47-.4 47.27-12a31.13 31.13 0 0 1-6.37 9.49c-12.14 12-33.66 16.31-48.38 6.88C57.74 425 51.8 409.17 53 396.64c0 3.45 6.49 25.66 24.55 31.87Z" style="opacity:.1"/><g style="opacity:.1"><path d="M104.84 377.22c3.68-1 9.67 1.43 13.38 6 4.61 5.72 6.57 14.58 6.58 21.26 0 13.47-11.48 22.5-12.89 21.6s6.32-11-1-23.21c-7.35-12.31-12.11-24.08-6.07-25.65Z" style="fill:#fff"/></g><g style="opacity:.1"><path d="M108.09 378.84c4 .64 9.47 6 11.35 10.09s1.82 7.14 1.32 7.75c-.9 1.08-9.92-5.16-13-8.12-4.39-4.21-6.17-10.75.33-9.72Z" style="fill:#fff"/></g><path d="M93.83 385.32c1.75-2 3.53-3.11 5-.84s-3.34 7-9.63 6.29-9-4.29-9.25-6.29c0 0 3.44 3.83 7.55 3.63a10.25 10.25 0 0 0 6.33-2.79Z" style="opacity:.2"/><path d="M88.9 389.23a56.94 56.94 0 0 1-.09-16.85c1.41-8.15 5.29-14.34 6.49-15.16a16.34 16.34 0 0 1 6.4-2.1c3.08-.49 7.1 1 6.29 2.31s-5.09 3-9.61 8.95-8 16.59-7 22.43a2.39 2.39 0 0 1-2.48.42Z" style="fill:#37474f"/><path d="m95.51 357.09.27-.17a18 18 0 0 1 5.88-1.78c2.27-.36 5 .34 6 1.27.29.41-.29 1.12-3 2a17.41 17.41 0 0 1-8.22.62c-1.17-.28-1.82-1.26-.93-1.94Z" style="fill:#455a64"/><path d="M91.25 378.86c1.24-7.34 7.61-14.37 12.2-17.78a31.52 31.52 0 0 0-5.07 5.3c-4.53 5.94-8 16.59-7 22.43a2.39 2.39 0 0 1-2.46.42s-.36-2.1-.56-5.19c.64 2.8 1.74 1.59 2.89-5.18Z" style="opacity:.1"/><path d="M88.3 376.91a14.69 14.69 0 0 1-14.31-3c-5.18-4.85-3.66-12.57-3.66-12.57a13.68 13.68 0 0 1 12.45 1.69c4.41 3.18 6.22 10.44 5.52 13.88Z" style="fill:#b2299f"/><path d="M88.3 376.91a14.69 14.69 0 0 1-14.31-3c-5.18-4.85-3.66-12.57-3.66-12.57a13.68 13.68 0 0 1 12.45 1.69c4.41 3.18 6.22 10.44 5.52 13.88Z" style="opacity:.30000000000000004"/><path d="M70.33 361.37a13.68 13.68 0 0 1 12.45 1.69c4.41 3.15 6.18 10.41 5.52 13.85-5.3-10.14-17.97-15.54-17.97-15.54Z" style="fill:#b2299f"/><path d="M70.33 361.37a13.68 13.68 0 0 1 12.45 1.69c4.41 3.15 6.18 10.41 5.52 13.85-5.3-10.14-17.97-15.54-17.97-15.54Z" style="opacity:.2"/><path d="M369.1 364.59a10.25 10.25 0 0 0 4.64 8 3.69 3.69 0 0 0 2.66.56 2.38 2.38 0 0 1-.5.4l1.11-.64h.07l.16-.11a1.81 1.81 0 0 0 .21-.18l.12-.12.11-.13a2.85 2.85 0 0 0 .38-.69 2.09 2.09 0 0 0 .08-.23.23.23 0 0 0 0-.11.84.84 0 0 0 .05-.2 4.68 4.68 0 0 0 .13-1.16 10.25 10.25 0 0 0-4.63-8 4.14 4.14 0 0 0-2.08-.64h-.29l-.27.05h-.25l-.19.08-.18.09-1 .55a2.13 2.13 0 0 1 .5-.18 3.7 3.7 0 0 0-.83 2.66Zm7.64 8.49h.08Z" style="fill:#b2299f"/><path d="m249.23 431.6 6.53 11.4 1.11-.64 119-68.75a2.38 2.38 0 0 0 .5-.4 3.67 3.67 0 0 0 .86-2.6 10.25 10.25 0 0 0-4.64-8 4.19 4.19 0 0 0-2.07-.63 2.81 2.81 0 0 0-.59.06 2.13 2.13 0 0 0-.5.18h-.08Z" style="fill:#f0f0f0"/><path d="M252.5 431.93c-2.56-1.48-4.63-.28-4.63 2.67a10.24 10.24 0 0 0 4.63 8c2.56 1.48 4.64.28 4.64-2.68a10.23 10.23 0 0 0-4.64-7.99Z" style="fill:#b2299f"/><path d="m318.3 396.61.15-.09a1.23 1.23 0 0 1 1.08.16 3.66 3.66 0 0 1 1.65 2.85 1.23 1.23 0 0 1-.39 1l-.2.12-70.44 40.66-4.63-2.68Z" style="fill:#455a64"/><path d="m256.72 437.51-6.54 3.78-4.63-2.68 8.86-5.11a11.19 11.19 0 0 1 2.31 4.01Z" style="fill:#37474f"/><path d="m240.21 441.9 5.37-5.9.14-.16a2.1 2.1 0 0 1 2.65 0 7.24 7.24 0 0 1 3.27 5.67 2.16 2.16 0 0 1-1.25 2.26l-.21.05-7.87 1.71a1.23 1.23 0 0 1-.85-.18 3.31 3.31 0 0 1-1.49-2.59 1.18 1.18 0 0 1 .24-.86Z" style="fill:#b2299f"/><path d="m240.21 441.9 5.37-5.9.14-.16a2.1 2.1 0 0 1 2.65 0 7.24 7.24 0 0 1 3.27 5.67 2.16 2.16 0 0 1-1.25 2.26l-.21.05-7.87 1.71a1.23 1.23 0 0 1-.85-.18 3.31 3.31 0 0 1-1.49-2.59 1.18 1.18 0 0 1 .24-.86Z" style="opacity:.1"/><path d="M239.91 442.76a3.29 3.29 0 0 0 1.5 2.58 1.2 1.2 0 0 0 .84.18l4-.86c.62-.14 1-.73 1-1.67a5.28 5.28 0 0 0-2.38-4.14 1.54 1.54 0 0 0-1.91 0l-.11.12-2.66 2.92a1.15 1.15 0 0 0-.28.87Z" style="fill:#b2299f"/><path d="M241.4 441.89c-.82-.47-1.49-.09-1.49.86a3.31 3.31 0 0 0 1.49 2.59c.83.47 1.49.09 1.49-.86a3.3 3.3 0 0 0-1.49-2.59Z" style="opacity:.1"/><path d="M359.45 372.82a1.13 1.13 0 0 1 1.16.11 3.61 3.61 0 0 1 1.64 2.84 1.14 1.14 0 0 1-.49 1.07l-40.94 23.67a1.23 1.23 0 0 0 .39-1 3.66 3.66 0 0 0-1.65-2.85 1.23 1.23 0 0 0-1.08-.16Z" style="fill:#fafafa"/><path d="M359 373.88a3.66 3.66 0 0 0 1.64 2.84 1.14 1.14 0 0 0 1.15.11 1.13 1.13 0 0 0 .49-1.06 3.61 3.61 0 0 0-1.64-2.84 1 1 0 0 0-1.64.95Z" style="fill:#f5f5f5"/><path d="M362.64 366.86h.13l6.84-4 .16-.09a3 3 0 0 1 2.82.35 9.21 9.21 0 0 1 4.17 7.23 2.92 2.92 0 0 1-1.23 2.7l-6.92 4a3 3 0 0 1-2.89-.32 9.24 9.24 0 0 1-4.17-7.23 3 3 0 0 1 1.09-2.64Z" style="fill:#b2299f"/><path d="M362.64 366.86h.13l6.84-4 .16-.09a3 3 0 0 1 2.82.35 9.21 9.21 0 0 1 4.17 7.23 2.92 2.92 0 0 1-1.23 2.7l-6.92 4a3 3 0 0 1-2.89-.32 9.24 9.24 0 0 1-4.17-7.23 3 3 0 0 1 1.09-2.64Z" style="opacity:.05"/><path d="M365.67 367.1c-2.3-1.33-4.17-.26-4.17 2.4a9.24 9.24 0 0 0 4.17 7.23c2.3 1.33 4.17.25 4.17-2.41a9.22 9.22 0 0 0-4.17-7.22Z" style="opacity:.1"/><path d="m238 444.39 2.83-1.7a.53.53 0 0 1 .55 0 1.72 1.72 0 0 1 .77 1.33.53.53 0 0 1-.23.49l-2.82 1.71a1.11 1.11 0 0 1-.52.13 1.08 1.08 0 0 1-.58-2Z" style="fill:#455a64"/><path d="m237.85 444.52.15-.12a.54.54 0 0 1 .49.08 1.7 1.7 0 0 1 .77 1.33.52.52 0 0 1-.22.48h-.11a.83.83 0 0 1-.35.06 1.09 1.09 0 0 1-1.09-1.09 1 1 0 0 1 .36-.74Z" style="fill:#263238"/><path d="M419.59 367.56 438 364a.57.57 0 0 1 .54.94L426 379Z" style="fill:#ffa8a7"/><path d="M438.51 364.89a.57.57 0 0 0-.51-.89l-3.59.71a3.12 3.12 0 0 1 1.48 2.93v.32Z" style="fill:#263238"/><path d="m335.69 430.75 1.5-.86 1.82-1L426 379a8.34 8.34 0 0 0-.51-6.1c-1.3-2.92-3.83-5.22-5.93-5.36l-87 49.82-3.47 2c2.37-1.15 8.91 10.19 6.6 11.39Z" style="fill:#455a64"/><path d="m341.42 427.48 3.36-1.93c1-.53.42-3-.74-5.48-1.53-3.34-4.55-6.58-5.86-5.89l-2.48 1.42-.87.53c1.31-.7 4.33 2.54 5.86 5.89 1.11 2.41 1.67 4.76.83 5.39a.15.15 0 0 1-.1.07Z" style="fill:#ebebeb"/><path d="M342.26 427c2.3-1.22-4.3-12.58-6.6-11.36l-3.36 1.93c2.3-1.22 8.9 10.14 6.59 11.36Z" style="fill:#b2299f"/><path d="m335.69 430.75 3.32-1.9c2.27-1.18-4-12.2-6.4-11.47l-.14.05-3.33 1.94c2.32-1.16 8.86 10.18 6.55 11.38Z" style="fill:#ebebeb"/><path d="M438.59 364.27 438 364l-13.34 7.3-90.77 52c-.13-.2-.24-.22-.32-.08 2 3.06 3.44 6.91 2.15 7.58l1.5-.86 1.82-1L426 379l12.47-14.12a.57.57 0 0 0 .12-.61Z" style="opacity:.15"/><path d="m321.6 438.81 14.09-8.06c1-.51.44-2.92-.7-5.43-1.52-3.35-4.53-6.62-5.85-5.95l-14.14 8.1c-2.81 1.62-.23 7.72 2.9 10.44 1.16 1.03 2.46 1.48 3.7.9Z" style="fill:#f28f8f"/><path d="M322.44 434.44c-.81-3.17-3.38-6.29-5.75-6.95a2.27 2.27 0 0 0-2.11.28c-2.12 2 .35 7.56 3.31 10.14a3.37 3.37 0 0 0 3.63.93c1.06-.62 1.48-2.24.92-4.4Z" style="opacity:.1"/><path d="m262.64 94.69 15.15-7.92s9.61 2.46 25.67 1.51c23.75-1.41 37.61-11.44 34.08-25.52-3.62-14.43-19.5-20.1-47.81-19-35.41 1.38-44 25.39-22.86 39.58Z" style="fill:#b2299f"/><path d="m262.64 94.69 15.15-7.92s9.61 2.46 25.67 1.51c23.75-1.41 37.61-11.44 34.08-25.52-3.62-14.43-19.5-20.1-47.81-19-35.41 1.38-44 25.39-22.86 39.58Z" style="fill:#fff;opacity:.7000000000000001"/><circle cx="278.88" cy="66.54" r="3.78" style="fill:#fff"/><circle cx="296.64" cy="66.54" r="3.78" style="fill:#fff"/><circle cx="314.4" cy="66.54" r="3.78" style="fill:#fff"/><path d="M72.27 323.28c0 2.58 1.94 4.24 4.33 5.62l97.85 56.5a9.55 9.55 0 0 0 8.65 0L341 294.26c2.39-1.38 4.33-3.16 4.33-5.74s-1.94-4.19-4.32-5.57l-97.91-56.49a9.53 9.53 0 0 0-8.64 0L76.6 317.6c-2.39 1.4-4.33 3.09-4.33 5.68Z" style="fill:#37474f"/><path d="m76.6 322.59 97.85 56.49a9.55 9.55 0 0 0 8.65 0L341 287.94c2.38-1.37 2.38-3.61 0-5l-97.9-56.48a9.53 9.53 0 0 0-8.64 0L76.6 317.6c-2.39 1.4-2.39 3.61 0 4.99Z" style="fill:#455a64"/><path d="M178.78 380.13v6.3a8.83 8.83 0 0 1-4.33-1L76.6 328.9c-2.39-1.38-4.33-3-4.33-5.62 0-2.43 1.74-4.12 4-5.49-1.86 1.31-1.89 3.51.34 4.8l97.85 56.5a8.83 8.83 0 0 0 4.32 1.04Z" style="fill:#263238"/><path d="M70.4 318.27c-1.9-.88-2.41-2.38-2.6-5l-8.48-124.1a8.6 8.6 0 0 1 4-7.3l157.86-91.18c2.38-1.38 4.13-2.13 6.34-.62s2.25 2.34 2.43 5l8.48 124.11a8.59 8.59 0 0 1-4 7.3L76.58 317.61c-2.39 1.39-3.74 1.78-6.18.66Z" style="fill:#37474f"/><path d="M230 95.06c-.18-2.65-2.26-3.68-4.65-2.31L67.44 183.9a8.17 8.17 0 0 0-3 3.17L60.36 185a8.35 8.35 0 0 1 3-3.17l157.81-91.14c2.39-1.38 4.15-2.14 6.35-.62s2.25 2.34 2.48 4.99Z" style="fill:#455a64"/><path d="M76.26 317.79c-2.18 1.28-3.55 1.44-5.86.47-1.77-.74-2.41-2.37-2.59-5l-8.49-124.13a7.67 7.67 0 0 1 1-4.12l4.12 2.05a7.82 7.82 0 0 0-1 4.12l8.49 124.12c.16 2.46 2.29 3.7 4.33 2.49Z" style="fill:#263238"/><path d="M70.18 188.64 222.1 101c1.43-.83 2.68-.21 2.79 1.38l7.91 115.78a5.16 5.16 0 0 1-2.39 4.38L78.49 310.18c-1.43.83-2.68.21-2.79-1.38L67.78 193a5.19 5.19 0 0 1 2.4-4.36Z"/><path d="M70.18 188.64a5.19 5.19 0 0 0-2.4 4.38l7.79 113.85 150.18-86.68a5.16 5.16 0 0 0 2.39-4.38L220.36 102Z" style="fill:#b2299f"/><path d="M70.18 188.64a5.19 5.19 0 0 0-2.4 4.38l7.79 113.85 150.18-86.68a5.16 5.16 0 0 0 2.39-4.38L220.36 102Z" style="fill:#fff;opacity:.8"/><path d="m90 318.33 145-83.75a4.51 4.51 0 0 1 4.08 0l5.29 3a1.25 1.25 0 0 1 0 2.36l-145.08 83.7a4.51 4.51 0 0 1-4.08 0l-5.26-3a1.24 1.24 0 0 1 .05-2.31ZM104.19 326.73 249.26 243a4.14 4.14 0 0 1 3.72-.2l37.76 21.8c.93.54.78 1.5-.35 2.15l-144.9 83.64a4.17 4.17 0 0 1-3.72.21l-37.92-21.7c-.94-.56-.78-1.52.34-2.17Z" style="fill:#263238"/><path d="m229.9 278.16 4.54-2.62c.19-.12.21-.29 0-.39l-4.35-2.5a.73.73 0 0 0-.66 0l-4.54 2.62c-.19.11-.21.28 0 .38l4.35 2.51a.73.73 0 0 0 .66 0Zm-6.64-9.08-4.54 2.63c-.19.11-.21.28 0 .38l4.28 2.51a.71.71 0 0 0 .66 0l4.54-2.62c.19-.11.21-.28 0-.38l-4.35-2.51a.73.73 0 0 0-.59-.01Zm-14.67 8.48L200.9 282c-.19.12-.21.29 0 .39l4.35 2.5a.73.73 0 0 0 .66 0l7.69-4.44c.19-.11.21-.28 0-.38l-4.34-2.51a.77.77 0 0 0-.67 0Zm8-4.64-4.55 2.62c-.19.11-.21.28 0 .38l4.35 2.51a.73.73 0 0 0 .66 0l4.54-2.63c.19-.11.21-.28 0-.38l-4.35-2.51a.75.75 0 0 0-.61.01Zm-17.78 10.28-4.55 2.63c-.19.11-.21.28 0 .38l4.34 2.51a.71.71 0 0 0 .66 0l4.54-2.62c.2-.11.21-.28 0-.38l-4.34-2.51a.73.73 0 0 0-.65-.01Zm-6.64 3.8-4.54 2.62c-.2.11-.21.28 0 .38l4.34 2.51a.73.73 0 0 0 .66 0l4.54-2.63c.2-.11.21-.28 0-.38l-4.34-2.5a.73.73 0 0 0-.66 0Zm17 10.23 4.54-2.62c.2-.11.21-.28 0-.38l-4.34-2.51a.73.73 0 0 0-.66 0l-4.55 2.63c-.19.11-.21.28 0 .38l4.34 2.51a.71.71 0 0 0 .7.03Zm-6.64 3.84 4.54-2.63c.2-.11.21-.28 0-.38l-4.34-2.5a.73.73 0 0 0-.66 0l-4.54 2.62c-.2.11-.21.28 0 .38l4.34 2.51a.73.73 0 0 0 .69.04Zm-6.64 3.83 4.55-2.62c.19-.11.21-.28 0-.38l-4.34-2.51a.73.73 0 0 0-.66 0l-4.44 2.68c-.2.11-.21.28 0 .38l4.34 2.51a.73.73 0 0 0 .58-.02Zm-6.63 3.83 4.54-2.62c.19-.11.21-.28 0-.38l-4.35-2.51a.73.73 0 0 0-.66 0l-4.54 2.63c-.19.11-.21.28 0 .38l4.35 2.5a.73.73 0 0 0 .69.04Zm34-26.78 4.54-2.62c.19-.11.21-.28 0-.38l-4.35-2.51a.73.73 0 0 0-.66 0l-4.54 2.62c-.19.11-.21.29 0 .38l4.35 2.56a.73.73 0 0 0 .66 0Zm-7.42 11.45 10.16-5.81c.19-.11.21-.28 0-.38l-10.55-6.09a.73.73 0 0 0-.66 0l-5.24 3c-.2.11-.21.28 0 .38l5.58 3.22c.18.1.16.27 0 .38l-4.2 2.42c-.19.12-.21.29 0 .39l4.35 2.5a.73.73 0 0 0 .56.03Zm-30.31-2.57-4.53 2.66c-.2.11-.21.28 0 .38l4.34 2.51a.73.73 0 0 0 .66 0l4.55-2.62c.19-.11.21-.28 0-.38l-4.34-2.51a.73.73 0 0 0-.68 0Zm-6.64 3.83-4.54 2.62c-.19.12-.21.29 0 .39l4.35 2.5a.73.73 0 0 0 .66 0l4.54-2.62c.19-.11.21-.28 0-.38l-4.35-2.51a.73.73 0 0 0-.66.04Zm-36.73 40.92a.73.73 0 0 0 .66 0l4.54-2.62c.19-.11.21-.28 0-.38l-4.35-2.51a.73.73 0 0 0-.66 0l-4.54 2.62c-.19.12-.21.29 0 .38Zm-16.38-10.26-4.54 2.68c-.19.11-.21.28 0 .38l4.35 2.51a.77.77 0 0 0 .66 0l4.54-2.62c.19-.11.21-.28 0-.38l-4.35-2.51a.73.73 0 0 0-.66-.02Zm8.42 7.69a.73.73 0 0 0 .66 0l4.54-2.63c.2-.11.21-.28 0-.38l-4.34-2.51a.71.71 0 0 0-.66 0l-4.54 2.62c-.2.11-.21.28 0 .38Zm18.32 4.12 4.54-2.62c.19-.12.21-.29 0-.39l-4.35-2.5a.73.73 0 0 0-.66 0l-4.54 2.62c-.19.11-.21.28 0 .38l4.35 2.51a.73.73 0 0 0 .66.04Zm-7.3 3.85a.73.73 0 0 0 .66 0l4.54-2.62c.19-.11.21-.28 0-.38l-4.34-2.51a.73.73 0 0 0-.66 0l-4.55 2.62c-.19.11-.21.28 0 .38Zm-12.8-19.49-4.54 2.62c-.19.12-.21.29 0 .38l4.35 2.51a.73.73 0 0 0 .66 0l4.54-2.62c.19-.11.21-.28 0-.38l-4.35-2.51a.73.73 0 0 0-.66.04Zm33.19-19.16-4.54 2.67c-.19.11-.21.28 0 .38l4.35 2.51a.73.73 0 0 0 .66 0l4.54-2.62c.19-.12.21-.29 0-.39l-4.35-2.5a.73.73 0 0 0-.66-.01Zm-26.55 15.37-4.54 2.62c-.19.11-.21.28 0 .38l4.35 2.51a.73.73 0 0 0 .66 0l4.54-2.62c.19-.12.21-.29 0-.39l-4.35-2.5a.73.73 0 0 0-.66 0Zm33.19-19.16-4.54 2.62c-.19.11-.21.28 0 .38l4.35 2.51a.71.71 0 0 0 .66 0l4.54-2.62c.19-.11.21-.28 0-.38l-4.35-2.51a.71.71 0 0 0-.66 0ZM159 306.2l-4.55 2.62c-.19.11-.21.28 0 .38l4.34 2.51a.73.73 0 0 0 .66 0l4.54-2.62c.2-.11.21-.28 0-.38l-4.34-2.51a.73.73 0 0 0-.65 0Zm-6.66 3.8-4.54 2.63c-.2.11-.21.28 0 .38l4.34 2.51a.77.77 0 0 0 .66 0l4.54-2.62c.2-.11.21-.28 0-.38L153 310a.73.73 0 0 0-.66 0Zm-6.64 3.84-4.54 2.62c-.2.11-.21.28 0 .38l4.34 2.51a.73.73 0 0 0 .66 0l4.55-2.63c.19-.11.21-.28 0-.38l-4.34-2.51a.71.71 0 0 0-.67.04Zm30.3 2.6 4.54-2.62c.19-.12.21-.29 0-.39l-4.35-2.5a.73.73 0 0 0-.66 0l-4.53 2.64c-.19.11-.21.28 0 .38l4.35 2.51a.73.73 0 0 0 .65-.02Zm61.93-55.83-4.54 2.62c-.2.12-.21.29 0 .39l4.34 2.5a.73.73 0 0 0 .66 0l4.54-2.62c.2-.11.21-.28 0-.38l-4.34-2.51a.73.73 0 0 0-.65 0Zm-8 4.64-4.54 2.62c-.19.12-.21.29 0 .38l4.35 2.51a.73.73 0 0 0 .66 0l4.54-2.62c.19-.11.21-.28 0-.38l-4.35-2.51a.73.73 0 0 0-.69 0Zm14.68-8.47L240 259.4c-.19.11-.21.28 0 .38l4.34 2.51a.73.73 0 0 0 .66 0l4.54-2.62c.2-.11.21-.29 0-.38l-4.34-2.51a.73.73 0 0 0-.62 0Zm-36.7 34.09 4.55-2.63c.19-.11.21-.28 0-.38l-4.35-2.51a.77.77 0 0 0-.66 0l-4.53 2.65c-.19.11-.21.28 0 .38l4.34 2.51a.73.73 0 0 0 .62-.02Zm44-38a.77.77 0 0 0-.66 0l-4.54 2.62c-.19.11-.21.28 0 .38l4.35 2.51a.73.73 0 0 0 .66 0l4.54-2.63c.19-.11.21-.28 0-.38Zm-69.26 59.73 4.54-2.62c.19-.11.21-.28 0-.38l-4.35-2.51a.71.71 0 0 0-.66 0l-4.54 2.62c-.19.11-.21.28 0 .38l4.35 2.51a.71.71 0 0 0 .66 0Zm81.4-47 4.55-2.6c.19-.11.21-.28 0-.38l-4.35-2.51a.71.71 0 0 0-.66 0l-4.54 2.62c-.19.11-.21.28 0 .38l4.34 2.51a.7.7 0 0 0 .66-.02Zm-12.84.25 4.54-2.62c.19-.11.21-.28 0-.38l-4.35-2.51a.73.73 0 0 0-.66 0l-4.5 2.66c-.19.11-.21.28 0 .38l4.35 2.51a.77.77 0 0 0 .62-.04Zm6.87-9.34a.73.73 0 0 0-.66 0l-4.54 2.62c-.19.11-.21.29 0 .38l4.35 2.51a.73.73 0 0 0 .66 0l4.54-2.62c.19-.11.21-.28 0-.38Zm1.4-.81 10.52 6.09a.73.73 0 0 0 .66 0l4.54-2.62c.2-.11.21-.28 0-.38l-10.55-6.09a.73.73 0 0 0-.66 0l-4.54 2.62c-.12.11-.14.28.03.38Zm-15.33 8.5-4.55 2.62c-.19.11-.21.28 0 .38l4.35 2.51a.73.73 0 0 0 .66 0l4.54-2.63c.19-.11.21-.28 0-.38l-4.34-2.51a.7.7 0 0 0-.66.01Zm-50 28.84-4.54 2.62c-.19.12-.21.29 0 .39l4.35 2.5a.73.73 0 0 0 .66 0l4.54-2.62c.19-.11.21-.28 0-.38l-4.32-2.55a.73.73 0 0 0-.66 0Zm62.58-23.58a.73.73 0 0 0 .66 0l4.54-2.63c.19-.11.21-.28 0-.38l-4.35-2.51a.77.77 0 0 0-.66 0l-4.54 2.62c-.19.11-.21.28 0 .38Zm-55.94 19.75-4.54 2.62c-.19.11-.21.28 0 .38l4.35 2.51a.73.73 0 0 0 .66 0l4.54-2.62c.19-.11.21-.29 0-.38l-4.35-2.51a.73.73 0 0 0-.63 0Zm-52 42.58a.73.73 0 0 0 .66 0l4.54-2.62c.19-.12.21-.29 0-.39l-4.35-2.5a.73.73 0 0 0-.66 0l-4.54 2.62c-.19.11-.21.28 0 .38Zm-7.72-8.09-4.55 2.63c-.19.11-.21.28 0 .38l4.34 2.51a.77.77 0 0 0 .66 0l4.54-2.62c.2-.11.21-.28 0-.38l-4.34-2.51a.73.73 0 0 0-.64-.01Zm15 4.24 4.55-2.63c.19-.11.21-.28 0-.38l-4.34-2.51a.71.71 0 0 0-.66 0l-4.54 2.62c-.2.11-.21.28 0 .38l4.34 2.51a.73.73 0 0 0 .67.01Zm6.64-3.84 4.54-2.62c.2-.11.21-.28 0-.38l-4.25-2.51a.73.73 0 0 0-.66 0l-4.54 2.63c-.2.11-.21.28 0 .38l4.34 2.51a.77.77 0 0 0 .59-.01Zm6.64-3.83 4.54-2.62c.2-.11.21-.28 0-.38l-4.34-2.51a.73.73 0 0 0-.66 0l-4.55 2.62c-.19.11-.21.29 0 .38l4.34 2.51a.73.73 0 0 0 .69 0Zm-21.66-.4-4.54 2.62c-.19.11-.21.28 0 .38l4.35 2.51a.73.73 0 0 0 .66 0l4.54-2.62c.19-.11.21-.28 0-.38l-4.35-2.51a.73.73 0 0 0-.64 0Zm6.64-3.83-4.54 2.62c-.19.11-.21.28 0 .38l4.35 2.51a.73.73 0 0 0 .66 0l4.54-2.63c.19-.11.21-.28 0-.38L155 316a.73.73 0 0 0-.65 0Zm26.56-15.33-4.55 2.62c-.19.11-.21.28 0 .38l4.34 2.51a.73.73 0 0 0 .66 0l4.54-2.63c.2-.11.21-.28 0-.38l-4.34-2.51a.77.77 0 0 0-.63.01Zm-6.64 3.83-4.54 2.62c-.2.11-.21.28 0 .38l4.34 2.51a.73.73 0 0 0 .66 0l4.54-2.62c.2-.11.21-.28 0-.38l-4.34-2.51a.73.73 0 0 0-.64 0Zm13.27-7.67L183 299.5c-.19.11-.21.28 0 .38l4.35 2.51a.71.71 0 0 0 .66 0l4.54-2.62c.19-.11.21-.28 0-.38l-4.35-2.51a.73.73 0 0 0-.66-.01ZM161 312.21l-4.54 2.62c-.19.11-.21.28 0 .38l4.35 2.51a.71.71 0 0 0 .66 0l4.54-2.62c.19-.11.21-.28 0-.38l-4.35-2.51a.71.71 0 0 0-.66 0Zm6.64-3.84-4.55 2.63c-.2.12-.21.29 0 .39l4.34 2.5a.73.73 0 0 0 .66 0l4.55-2.62c.19-.11.21-.28 0-.38l-4.35-2.51a.73.73 0 0 0-.66-.01Zm-8.47 25 4.54-2.62c.19-.11.21-.28 0-.38l-4.35-2.51a.71.71 0 0 0-.66 0l-4.54 2.62c-.19.11-.21.28 0 .38l4.35 2.51a.71.71 0 0 0 .65-.04Zm-35-1.65-4.34-2.51a.77.77 0 0 0-.66 0l-4.55 2.62c-.19.11-.21.28 0 .38l4.34 2.51a.73.73 0 0 0 .66 0l4.54-2.63c.15-.09.16-.31-.01-.41Zm8.65 2.17-4.34-2.5a.73.73 0 0 0-.66 0l-7 4c-.19.11-.21.28 0 .38l4.35 2.51a.73.73 0 0 0 .66 0l7-4c.17-.16.17-.28-.03-.43Zm-15.13-7.12-4.35-2.51a.73.73 0 0 0-.66 0l-5.59 3.23c-.19.11-.21.28 0 .38l4.35 2.51a.73.73 0 0 0 .66 0l5.59-3.23c.13-.15.15-.32-.02-.42Zm4.28-2.48a.73.73 0 0 0 .66 0l4.54-2.62c.2-.11.21-.28 0-.38l-4.34-2.51a.73.73 0 0 0-.66 0l-4.54 2.62c-.2.12-.22.29 0 .38Zm18.81 12.18-4.35-2.51a.73.73 0 0 0-.66 0L127 339c-.19.11-.21.28 0 .38l4.35 2.51a.71.71 0 0 0 .66 0l8.73-5c.17-.19.19-.36.02-.46Zm3.06 5.4-4.34-2.51a.73.73 0 0 0-.66 0l-5.59 3.23c-.2.11-.21.28 0 .38l4.34 2.51a.73.73 0 0 0 .66 0l5.59-3.23c.16-.15.16-.32-.02-.42Zm27.49-46.07a.73.73 0 0 0 .66 0l4.54-2.63c.19-.11.21-.28 0-.38l-4.35-2.51a.71.71 0 0 0-.66 0l-4.52 2.59c-.19.11-.21.28 0 .38ZM158 303.42a.73.73 0 0 0 .66 0l4.54-2.62c.2-.11.21-.28 0-.38l-4.34-2.51a.73.73 0 0 0-.66 0l-4.54 2.62c-.2.11-.22.28 0 .38Zm-29.44 17a.73.73 0 0 0 .66 0l4.54-2.62c.19-.12.21-.29 0-.38l-4.34-2.51a.73.73 0 0 0-.66 0l-4.55 2.62c-.19.11-.21.28 0 .38Zm36.08-20.83a.73.73 0 0 0 .66 0l4.54-2.62c.19-.12.21-.29 0-.39l-4.34-2.5a.73.73 0 0 0-.66 0l-4.55 2.62c-.19.11-.21.28 0 .38Zm-13.28 7.67a.77.77 0 0 0 .66 0l4.54-2.62c.2-.11.22-.28 0-.38l-4.34-2.51a.73.73 0 0 0-.66 0l-4.54 2.63c-.2.11-.21.28 0 .38Zm-4.31 34.84a.73.73 0 0 0-.66 0l-7 4c-.19.12-.21.29 0 .39l4.34 2.5a.73.73 0 0 0 .66 0l7-4c.19-.11.21-.28 0-.38Zm-5.21-29.34a.77.77 0 0 0 .66 0l4.54-2.62c.19-.11.21-.28 0-.38l-4.35-2.51a.73.73 0 0 0-.66 0l-4.54 2.63c-.19.11-.21.28 0 .38Zm-6.64 3.83a.73.73 0 0 0 .66 0l4.54-2.63c.19-.11.21-.28 0-.38l-4.35-2.51a.74.74 0 0 0-.66 0l-4.54 2.62c-.19.11-.21.28 0 .38Zm134.84-45.5a.71.71 0 0 0-.66 0l-11.18 6.45c-.2.11-.21.28 0 .38l4.34 2.51a.73.73 0 0 0 .66 0l11.17-6.43c.2-.11.21-.28 0-.38Zm-14.68 8.48a.73.73 0 0 0-.66 0l-4.54 2.62c-.19.11-.21.28 0 .38l4.35 2.51a.73.73 0 0 0 .66 0l4.54-2.63c.19-.11.21-.28 0-.38Zm-89.6 49.93 4.55-2.62c.19-.11.21-.28 0-.38L166 324a.73.73 0 0 0-.66 0l-4.54 2.63c-.19.11-.21.28 0 .38l4.35 2.5a.71.71 0 0 0 .64-.01Zm76.33-42.27a.73.73 0 0 0-.66 0l-4.55 2.63c-.19.11-.21.28 0 .38l4.34 2.51a.77.77 0 0 0 .66 0l4.54-2.62c.2-.11.21-.28 0-.38Zm34.59-20a.73.73 0 0 0-.66 0l-4.55 2.63c-.19.11-.21.28 0 .38l4.35 2.5a.73.73 0 0 0 .66 0l4.54-2.62c.19-.11.21-.28 0-.38Zm11-1.32-10.55-6.1a.7.7 0 0 0-.66 0l-4.55 2.62c-.19.11-.21.28 0 .38l10.53 6.19a.73.73 0 0 0 .66 0l4.54-2.62c.19-.17.21-.38.04-.44Zm-70.38 35.61a.71.71 0 0 0-.66 0l-5.59 3.22c-.19.11-.21.28 0 .38l4.35 2.51a.73.73 0 0 0 .66 0l5.59-3.23c.19-.11.21-.28 0-.38Zm16.77-9.68a.73.73 0 0 0-.66 0l-7 4c-.19.11-.21.28 0 .38l4.35 2.51a.71.71 0 0 0 .66 0l7-4c.19-.11.21-.28 0-.38Zm-32.14 18.56a.73.73 0 0 0-.66 0L163.89 332c-.19.12-.21.29 0 .39l4.35 2.5a.73.73 0 0 0 .66 0l37.38-21.58c.2-.11.21-.28 0-.38Zm-39.48 22.79a.73.73 0 0 0-.66 0l-5.59 3.23c-.2.11-.22.28 0 .38l4.34 2.51a.73.73 0 0 0 .66 0l5.59-3.23c.19-.11.21-.28 0-.38ZM209.62 306a.73.73 0 0 0-.66 0l-5.59 3.23c-.19.11-.21.28 0 .38l4.35 2.51a.73.73 0 0 0 .66 0l5.59-3.23c.19-.11.21-.28 0-.38Zm-54.85 31.67a.73.73 0 0 0-.66 0l-5.59 3.23c-.19.11-.21.28 0 .38l4.35 2.51a.73.73 0 0 0 .66 0l5.59-3.23c.19-.11.21-.28 0-.38ZM225 297.11a.77.77 0 0 0-.66 0l-5.59 3.22c-.2.12-.21.29 0 .39l4.34 2.5a.73.73 0 0 0 .66 0l5.55-3.22c.2-.11.21-.28 0-.38Zm23.75-13.71a.73.73 0 0 0-.66 0l-4.54 2.6c-.19.11-.21.28 0 .38l4.35 2.51a.73.73 0 0 0 .66 0l4.54-2.62c.19-.11.21-.28 0-.38Zm14.87-10.4 4.55-2.62c.19-.11.21-.28 0-.38l-4.34-2.51a.73.73 0 0 0-.66 0l-4.54 2.62c-.2.12-.21.29 0 .38L263 273a.73.73 0 0 0 .62 0Zm-27.09 1.31 4.55-2.63c.19-.11.21-.28 0-.38l-4.35-2.51a.71.71 0 0 0-.66 0l-4.54 2.62c-.2.11-.21.28 0 .38l4.34 2.51a.73.73 0 0 0 .66.03Zm-17.63 24.53 13.28-7.66c.19-.12.21-.29 0-.39l-4.35-2.5a.73.73 0 0 0-.66 0L213.94 296c-.2.12-.21.29 0 .38l4.34 2.51a.73.73 0 0 0 .62-.05Zm37.43-22a.71.71 0 0 0 .65 0l4.55-2.62c.19-.11.21-.28 0-.38l-4.35-2.51a.73.73 0 0 0-.66 0L252 274c-.19.11-.21.28 0 .38Zm-5.55-3.61 4.54-2.62c.19-.11.21-.28 0-.38l-4.32-2.47a.73.73 0 0 0-.66 0l-4.54 2.62c-.19.11-.21.28 0 .38l4.35 2.51a.73.73 0 0 0 .63 0Zm-38.52 29.4 4.55-2.62c.19-.11.21-.28 0-.38l-4.34-2.51a.73.73 0 0 0-.66 0l-4.54 2.63c-.2.11-.21.28 0 .38l4.34 2.51a.7.7 0 0 0 .65.03Zm29.39-17.32a.73.73 0 0 0 .66 0l4.54-2.63c.2-.11.21-.28 0-.38l-4.34-2.51a.7.7 0 0 0-.66 0l-4.55 2.62c-.19.11-.21.28 0 .38Zm-62.58 36.49 4.54-2.63c.2-.11.21-.28 0-.38l-4.34-2.51a.77.77 0 0 0-.66 0l-4.5 2.72c-.2.11-.21.28 0 .38l4.34 2.51a.73.73 0 0 0 .62-.05Zm6.64-3.84 4.54-2.62c.2-.11.21-.28 0-.38l-4.25-2.47a.73.73 0 0 0-.66 0l-4.55 2.63c-.19.11-.21.28 0 .38l4.35 2.51a.71.71 0 0 0 .57-.01Zm-13.28 7.67 4.55-2.62c.19-.11.21-.28 0-.38l-4.34-2.51a.73.73 0 0 0-.66 0l-4.54 2.62c-.2.11-.21.28 0 .38l4.34 2.51a.73.73 0 0 0 .65.04ZM199 310.34l4.54-2.62c.19-.11.21-.29 0-.38l-4.35-2.51a.73.73 0 0 0-.66 0l-4.53 2.64c-.19.11-.21.28 0 .38l4.35 2.51a.73.73 0 0 0 .65-.02Zm-6.64 3.83 4.54-2.62c.19-.11.21-.28 0-.38l-4.35-2.51a.73.73 0 0 0-.66 0l-4.54 2.62c-.19.12-.21.29 0 .39l4.35 2.5a.73.73 0 0 0 .65 0Zm13.27-7.66 4.55-2.63c.19-.11.21-.28 0-.38l-4.32-2.5a.77.77 0 0 0-.66 0l-4.54 2.62c-.19.11-.21.28 0 .38l4.35 2.51a.71.71 0 0 0 .61 0Zm36.23-53.32a.73.73 0 0 0 .66 0l4.54-2.63c.2-.11.21-.28 0-.38l-1.15-.67a.77.77 0 0 0-.66 0l-4.55 2.62c-.19.11-.21.28 0 .38Zm-33 20.89a.73.73 0 0 0 .66 0l4.54-2.63c.19-.11.21-.28 0-.38l-4.35-2.5a.73.73 0 0 0-.66 0l-4.54 2.62c-.19.11-.21.28 0 .38Zm13.27-7.67a.73.73 0 0 0 .66 0l4.54-2.62c.2-.11.21-.28 0-.38l-4.33-2.53a.73.73 0 0 0-.66 0l-4.54 2.62c-.2.12-.21.29 0 .39Zm-21.38 12.35a.73.73 0 0 0 .66 0l4.54-2.63c.19-.11.21-.28 0-.38l-4.34-2.51a.77.77 0 0 0-.66 0l-4.55 2.62c-.19.11-.21.28 0 .38Zm14.74-8.51a.7.7 0 0 0 .66 0l4.55-2.62c.19-.11.21-.28 0-.38l-4.34-2.51a.73.73 0 0 0-.66 0l-4.54 2.63c-.2.11-.21.28 0 .38Zm-28 16.17a.73.73 0 0 0 .66 0l4.54-2.62c.2-.11.22-.28 0-.38l-4.34-2.51a.73.73 0 0 0-.66 0l-4.54 2.62c-.2.12-.21.29 0 .39Zm6.64-3.83a.73.73 0 0 0 .66 0l4.54-2.62c.2-.11.21-.28 0-.38l-4.33-2.53a.73.73 0 0 0-.66 0l-4.54 2.62c-.2.11-.22.28 0 .38Zm34.46-21.74a.73.73 0 0 0 .66 0l4.55-2.62c.19-.11.21-.28 0-.38l-1.16-.67a.73.73 0 0 0-.66 0l-4.54 2.63c-.2.11-.21.28 0 .38Zm19.92-11.49a.74.74 0 0 0 .66 0l4.54-2.62c.19-.11.21-.28 0-.38l-1.16-.67a.71.71 0 0 0-.66 0l-4.54 2.62c-.19.11-.21.28 0 .38Zm9.13 5.27a.71.71 0 0 0 .66 0l4.54-2.62c.19-.11.21-.28 0-.38l-4.35-2.51a.73.73 0 0 0-.66 0l-4.54 2.63c-.19.11-.21.28 0 .38Zm12.64 14.56 4.54-2.62c.2-.12.21-.29 0-.38l-4.34-2.51a.73.73 0 0 0-.66 0l-4.54 2.62c-.2.11-.21.28 0 .38l4.34 2.51a.73.73 0 0 0 .64 0Zm-35-12.17a.73.73 0 0 0 .66 0l4.54-2.62c.2-.11.21-.29 0-.38l-1.15-.67a.73.73 0 0 0-.66 0l-4.58 2.65c-.19.11-.21.28 0 .38Zm-54.38 33.24a.7.7 0 0 0 .66 0l4.55-2.62c.19-.11.21-.28 0-.38l-4.35-2.51a.71.71 0 0 0-.66 0l-4.54 2.62c-.19.11-.21.28 0 .38Z" style="fill:#455a64"/><path style="fill:#263238" d="m199.85 328.03.99.57 26.23 15.15 46.65-26.94.97-.55-27.22-15.71-47.62 27.48z"/><path style="fill:#37474f" d="m273.12 317.16-25.65-14.8-46.04 26.59 25.64 14.8 46.05-26.59z"/><path d="M139.75 56.8c-8.2-5.37-18.77-4.41-24.49-.08-8 6.08-10.82 12.77-12.26 26-2 18.64-4.1 24-6.31 28.23a15.73 15.73 0 0 1-9.24 7.87 10.89 10.89 0 0 0 10.59.43c-1.88 9-4.5 16.55-2.17 26.06 1.57 6.4 4.91 13.65 9.84 18.24 4.2 3.91 10.21 5.1 15.26 7.31-3.41-7.31-5.24-14.21-2.88-22.43 2.6-9.07 8.68-16.79 11.37-25.93 3.74-12.64 8-25.74 9.07-38.93.89-11.12 1.31-19.13 1.22-26.77Z" style="fill:#263238"/><path d="M135.66 58.47c-1.31-1.23-7.1-.43-10.6 3.74s-5.58 10.23-1.33 13.48c3.98 3.05 19.45-13.18 11.93-17.22Z" style="fill:#b2299f"/><path d="M183.15 76.77c2.88-1.06 4.11-4.77 3.25-7.72s-3.27-5.19-5.84-6.88a30.17 30.17 0 0 0-19.86-4.62 39.14 39.14 0 0 0-19.95-1 20.73 20.73 0 0 0-16 18.67c-10.27 2.42-14.76 15-8.42 28.5 4.61 9.76 15 16.51 16.29 21.37l38.94-30.26c1.52 2.37 6.22 2.48 8.14 1.54s3.12-4.42 1.84-6.14a6.78 6.78 0 0 0 1.6-13.47Z" style="fill:#263238"/><path d="M140.75 56.56a21.12 21.12 0 0 0-10.83 6.91A20 20 0 0 0 126.6 69a20.79 20.79 0 0 0-1.38 6.27v.33l-.32.08a13.21 13.21 0 0 0-6.37 3.56 15.35 15.35 0 0 0-3.7 6.33 24.2 24.2 0 0 0 .67 14.71 37.44 37.44 0 0 0 7.8 12.84c1.67 1.92 3.43 3.76 5.12 5.67.85 1 1.7 1.91 2.46 3a10.12 10.12 0 0 1 1.78 3.37 10.31 10.31 0 0 0-1.95-3.24 38.06 38.06 0 0 0-2.56-2.82c-1.79-1.82-3.61-3.61-5.33-5.5a50.89 50.89 0 0 1-4.8-6 29.87 29.87 0 0 1-3.42-6.94A27.24 27.24 0 0 1 113 93a20.94 20.94 0 0 1 .82-7.74 16.29 16.29 0 0 1 4-6.71 14.17 14.17 0 0 1 6.85-3.75l-.35.41a20.61 20.61 0 0 1 5.16-12.11 21.27 21.27 0 0 1 5.13-4.19 19.32 19.32 0 0 1 6.14-2.35Z"/><path d="M283.45 140.81c2.14-1.82 2.53-2.29 5.41-4.6 2.14-1.71 3.85-3.1 4.4-4.1 1.08-2 .07-3.93-.83-3.61-1.81.64-3.95 2.17-8.12 5-4.59 3.15-7.83 6.26-8.07 5.76a49.82 49.82 0 0 1 4.89-5.8c5.62-6.07 6.72-7.17 7.75-9.12 2.18-4.06-.88-4.73-2.22-3.89-1.53 1-3.19 2.79-7.21 6.78-4.36 4.33-8.16 8.74-8.51 8.48s5.69-6.87 9.31-11.71c3.35-4.49 1.17-6.39.21-6.54s-2.19 1.15-3.81 2.89c-2.93 3.19-11.45 13.65-13.23 15.65s-3.13 2.72-3.36-.51c-.22-3-.07-6.26-1.39-8.35-2.21-3.49-4.65-2.63-4.66-.3 0 3.3-.79 7-1.37 12.27-.31 2.75-.26 6-.32 7.94-.34 6.69-5.95 10.15-10.62 13.37s-17.39 10.47-17.39 10.47-23.72-24.43-30.64-30.41c-8.22-7.12-10.57-7.62-22.18-7.53l16.42 42.23s22.32 20.65 29.9 25.06 10.66 2 19.87-6.17c7.07-6.27 18.71-20.64 21.52-23.83s4-5.25 7.29-6.45c4.43-1.62 6.71-3.85 9.66-7.23 1.41-1.61 3.74-4.85 5.89-7a100.09 100.09 0 0 1 9.19-7.73c1.94-1.63 2.24-5-.48-3.92-5.16 2-10.33 6.36-10.5 6.07s1.75-1.93 3.2-3.17Z" style="fill:#ffbda7"/><path d="M261.86 141c2.37 3.49 2.9 11.74.59 16.65 4.77-4.65 4.27-13.06-.59-16.65ZM224.31 170.93c-3.93 2.57-8.62 10-7.28 17.64-1.71-5.64-3.19-12.68 5.43-19.7Z" style="fill:#f0997a"/><path d="m111 145.34 9.15-3.66s13.65-3.54 25-6c12-1.51 22.31-2.64 22.31-2.64l4.05-.07s9 7.92 15.59 15.23 12.38 13.42 12.75 22.65c.49 12.47-7.52 17-7.52 17l.49 15.89 10.41 29.45-100.6 58.06c3.06-35.85 11-41.76 15.49-66.61-.86-13-7.33-30.84-8.43-39.9-3.84-31.29 1.31-39.4 1.31-39.4Z" style="fill:#b2299f"/><path d="M132.26 129.72c.38-4.39 1-13.12 1-13.12-1.09 1.45-7 3.46-11-2.22-4.66-6.55-3.92-11.24-.67-14.38 3.7-3.58 10.18-2.66 12.88 3 1.69 4 5-.72 1.67-7-1.11-11.06 13-3.73 21.79-26.79 8.87-.5 14.22 2 18.53 9.38 2 3.34 4.33 8.15 3.85 22.08-.62 17.74-3.29 23.32-9.5 26.29-2.86 1.37-5.8 1.89-11.31 1.48l-.05 1.7a8.18 8.18 0 0 0 .06 1.18 2 2 0 0 0 1.88 1.89 45.49 45.49 0 0 0 6.09-.17S172 144.4 157 147.63a51.7 51.7 0 0 1-36.9-5.95 53.64 53.64 0 0 0 6.43-3.89c4.63-3.35 5.47-5.32 5.73-8.07Z" style="fill:#ffbda7"/><path d="M126.51 113.54a2.16 2.16 0 1 0 2.09-2.24 2.15 2.15 0 0 0-2.09 2.24Z" style="fill:#fafafa"/><path d="m154.84 111.17 9.64 3a5 5 0 0 1-6.23 3.5 5.29 5.29 0 0 1-3.41-6.5Z" style="fill:#b16668"/><path d="M155.47 113.39a5.54 5.54 0 0 1 5.58 4.29 4.86 4.86 0 0 1-2.8 0 5.21 5.21 0 0 1-3.53-4.18 6.15 6.15 0 0 1 .75-.11Z" style="fill:#f28f8f"/><path d="m176.58 87.07-6.07-1.45a3 3 0 0 1 3.65-2.36 3.28 3.28 0 0 1 2.42 3.81ZM147 86.76l5.91-2.23a3 3 0 0 0-4-1.9 3.32 3.32 0 0 0-1.91 4.13ZM170.62 94.94a2.69 2.69 0 0 0 2.38 2.81 2.51 2.51 0 0 0 2.77-2.32 2.68 2.68 0 0 0-2.42-2.81 2.51 2.51 0 0 0-2.73 2.32ZM149.47 95.07a2.67 2.67 0 0 0 2.41 2.82 2.5 2.5 0 0 0 2.77-2.32 2.66 2.66 0 0 0-2.41-2.81 2.51 2.51 0 0 0-2.77 2.31Z" style="fill:#263238"/><path d="M159.46 128.45a48.14 48.14 0 0 1-16.53-4.64 15.53 15.53 0 0 1-6.44-7.14 12.29 12.29 0 0 0 4.44 9c5 4.2 18.54 5.62 18.54 5.62a6.15 6.15 0 0 1-.06-1.18ZM152.31 190c4.88-4.15 7.36-5.79 9.71-6.61s10.5-4.84 13.66-5.84c2-.64 3 2.55.58 4.94-1.89 1.84-6.94 4.42-9.14 5.81s-6.33 7.11-6.33 7.11Z" style="fill:#f0997a"/><path d="M141.24 226.44c-16 9.08-30 20.39-45.51 22.72-15.12 2.26-15.59-10.26-15.32-19.59.34-11.78 6.94-48.72 10.37-61 3.64-13.07 6-17.89 20.17-23.21 11.7 7.67 9 33 6.51 42.67-2.65 10.09-6.94 28.94-6.94 28.94s18.44-5.81 22.87-8.15 11.85-12.3 14.78-15.49c4-4.34 6.13-3.93 8.3-3.74 7.13.62 8.72 1.11 10.27 2a3.19 3.19 0 0 1 1.55 2.66c1.89.12 4.69-.12 5.25 2.94a8.57 8.57 0 0 1 .27 2.46 2.06 2.06 0 0 1 1.26.62c1.68 1.71-.61 8.14-2.21 9.77-1.13 1.15-2.82 1.39-5.07 1.23-1.92-.14-1.16-2.13-1.16-2.13l-2.65.33c-5.48 4.44-5.75 11-13.23 13.26a34.05 34.05 0 0 0-9.51 3.71Z" style="fill:#ffbda7"/><path d="m168.29 194.2-8.49-1.2h8.2a3.22 3.22 0 0 1 .29 1.2ZM173.81 199.6l-9.73-.64 9.67-.48a5.09 5.09 0 0 1 .06 1.12ZM172.8 203.93a3 3 0 0 1-1.22 1.21 6.37 6.37 0 0 1-1.62.67l.12-.1c-.22.52-.47 1-.71 1.54l-.22-.24a1.93 1.93 0 0 1 1.56.28 2.56 2.56 0 0 1 .92 1.21 3 3 0 0 0-1-1 1.91 1.91 0 0 0-1.32-.16l-.37.1.15-.35c.23-.52.46-1 .72-1.54v-.08h.08a8.86 8.86 0 0 0 1.57-.55 3.54 3.54 0 0 0 1.34-.99Z" style="fill:#f0997a"/><path d="M170.32 205.34a29.51 29.51 0 0 1-3.48.46 3.78 3.78 0 0 1-1.08 1.93 20 20 0 0 1-1.78 1.69l2.65-.33s.58-1.23 2.94-1.84ZM111.32 213.46l-.8 3.49c-6.81 2.22-14 7.52-15.41 11.41.89-6.09 4.23-10.88 16.21-14.9Z" style="fill:#f0997a"/><path d="m182.75 88.36-1-.13c-3.35-.35-7.81-.43-10.5.46-3.48 1.16-4.68 2.44-6.71 2.49-2.2 0-3.65-1.23-7.75-2.34-3.34-.88-9-.72-13.5-.25l-1.43.16A2.25 2.25 0 0 0 140.2 91a4.78 4.78 0 0 0 1.34 2.61 3.23 3.23 0 0 1 .46 1.06c.46 1.84.73 5.43 1.67 7.41a8.76 8.76 0 0 0 1.84 2.64 6.72 6.72 0 0 0 .94.75l.55.34a8 8 0 0 0 1.61.66l.27.07.42.1.45.07a10 10 0 0 0 1.4.13H152.49c5.63-.37 7.83-3.22 9.06-6s.73-6.45 3.11-6.51h.22a.71.71 0 0 1 .21 0c1.75.36 1.71 3.73 2.93 6.14a10.45 10.45 0 0 0 1.81 2.61 5.33 5.33 0 0 0 .42.4l.22.18.23.18.21.15.23.15.18.1.12.07a7 7 0 0 0 2.05.74h.18a9.39 9.39 0 0 0 2.41.1 6.53 6.53 0 0 0 6.29-5.13c.53-1.8.5-4.92.68-6.55a1.85 1.85 0 0 1 .3-.84 4.31 4.31 0 0 0 .71-2.34c-.06-.96-.74-1.86-1.31-1.93Zm-22.66 10a8.37 8.37 0 0 1-1.76 3.88 8 8 0 0 1-6 2.59 6.68 6.68 0 0 1-6.09-2.55c-.07-.09-.13-.19-.19-.28a2.11 2.11 0 0 1-.18-.27 1.74 1.74 0 0 1-.15-.26l-.13-.23-.09-.19a1.3 1.3 0 0 1-.08-.17c0-.09-.09-.18-.13-.28-.11-.28-.21-.55-.3-.82-.05-.16-.1-.33-.14-.49s-.15-.55-.2-.79V98.21c-.43-1.94-.93-5.73.08-6.59s3.58-1.76 7.72-1.42h.44a16.55 16.55 0 0 1 1.85.29c.24 0 .48.1.72.16a13.81 13.81 0 0 1 1.78.54l.55.21c.21.08.4.18.59.27l.12.06.21.11a3.7 3.7 0 0 1 1.21.93c.7 1.08.55 3.47.17 5.56Zm21.39-1.65c-.14 1.36-.45 4.35-2.79 5.81a5.51 5.51 0 0 1-2.6.8 5.89 5.89 0 0 1-5.67-2.42l-.11-.16a1.45 1.45 0 0 1-.12-.19.61.61 0 0 1-.07-.1l-.16-.28-.17-.33c0-.06-.05-.11-.07-.17a.36.36 0 0 1 0-.09.75.75 0 0 1-.06-.13v-.11a10.76 10.76 0 0 1-.43-1.34c-.5-2-.83-4.3-.2-5.41s3.22-2.31 5.7-2.67c.57-.08 1.1-.13 1.6-.15h1.4l.43.05a6.34 6.34 0 0 1 .8.14h.55l.24.08.38.15h.07a3.62 3.62 0 0 1 .88.55c.67.87.57 4.26.4 5.94Z" style="fill:#37474f"/><path d="M141.12 89.63 128.3 98a7.15 7.15 0 0 1 3.7 1.71l9.84-6.7Z" style="fill:#37474f"/><path d="m172.38 105.44-7.8 3.91-2-12.4a3.45 3.45 0 0 1 1.24-2.43Z" style="fill:#f0997a"/><path d="M230.33 205.79a1.17 1.17 0 0 0-.05-.27v-.05a1.67 1.67 0 0 0-.06-.26 1.56 1.56 0 0 0-.17-.37.49.49 0 0 0-.1-.15.44.44 0 0 0-.08-.1.85.85 0 0 0-.19-.19.89.89 0 0 0-.25-.14 2.09 2.09 0 0 0-1.94.24L82.36 288c-1.59.92-2.89 2.32-2.89 6.37v4.35a2 2 0 0 0 3 1.72l145-83.49a6.4 6.4 0 0 0 2.89-5v-5.77c-.01-.18-.02-.28-.03-.39Z" style="fill:#455a64;opacity:.8"/><path d="m80.47 300.41-.11-.05-3-1.77a3.08 3.08 0 0 1-1.51-2.23V290.88a6 6 0 0 1 1-3.13l3.56 2.05a8.29 8.29 0 0 0-.94 4.21v4.66a2.13 2.13 0 0 0 .14.71 2 2 0 0 0 .86 1.03Z" style="fill:#263238;opacity:.9"/><path d="M229.4 204.24a2.07 2.07 0 0 0-1.94.25L82.36 288a6.16 6.16 0 0 0-.8.57 4.16 4.16 0 0 0-.48.46 4.06 4.06 0 0 0-.64.84l-3.62-2.08a6.23 6.23 0 0 1 .61-.82l.23-.25.24-.23.25-.21a4.4 4.4 0 0 1 .52-.36l145.11-83.52a2 2 0 0 1 2.09-.17c.53.32 2.91 1.68 3.53 2.01Z" style="fill:#455a64;opacity:.6000000000000001"/><path d="M80.47 300.41Z" style="fill:#263238;opacity:.9"/><path d="M90.38 291.38v-3.55c0-.26.16-.53.32-.53h3.13c.2 0 .2.45 0 .69l-3.13 3.57c-.16.15-.32.07-.32-.18ZM97.66 287.17v-3.55c0-.25.16-.52.32-.52h3.13c.2 0 .2.45 0 .68L98 287.33c-.18.18-.34.1-.34-.16Z" style="fill:#fff"/><path d="M101.5 285.32c-.13.08-.24 0-.24-.18v-3.64a.59.59 0 0 1 .24-.46c.13-.07.24 0 .24.18v3.65a.57.57 0 0 1-.24.45ZM86.7 293.5V290c0-.25-.16-.33-.32-.16l-3.12 3.58c-.21.24-.21.69 0 .69h3.12c.16-.11.32-.36.32-.61Z" style="fill:#fff"/><path d="M82.86 296.08a.57.57 0 0 0 .24-.45V292c0-.17-.11-.25-.24-.18a.59.59 0 0 0-.24.46v3.64c0 .16.11.24.24.16ZM223.32 212.47a.29.29 0 0 1-.28-.28v-1.62a.29.29 0 0 1 .14-.24l1.3-.75a.28.28 0 0 1 .38.1.27.27 0 0 1-.1.37l-1.17.68v1.46a.28.28 0 0 1-.27.28ZM226.86 210.42a.28.28 0 0 1-.28-.27V209l-.88.51a.28.28 0 0 1-.38-.1.27.27 0 0 1 .1-.37l1.3-.75a.28.28 0 0 1 .28 0 .26.26 0 0 1 .13.23v1.63a.27.27 0 0 1-.27.27ZM225.56 214.24a.28.28 0 0 1-.24-.13.28.28 0 0 1 .1-.38l1.16-.67v-1.47a.28.28 0 0 1 .28-.27.27.27 0 0 1 .27.27v1.63a.28.28 0 0 1-.13.24l-1.3.75ZM223.32 215.54a.33.33 0 0 1-.14 0 .29.29 0 0 1-.14-.24v-1.62a.29.29 0 0 1 .28-.28.28.28 0 0 1 .27.28v1.14l.89-.51a.28.28 0 1 1 .28.48l-1.3.75a.37.37 0 0 1-.14 0ZM221.31 213.38l-.53.21h-.07a1.86 1.86 0 0 0-.13-.34s0-.11 0-.17l.3-.67v-.15l-.42-.31s-.07 0-.11.09l-.37.6c0 .06-.08.11-.11.1a1.17 1.17 0 0 0-.32 0s-.05 0-.06-.06l-.05-.67s0-.05-.07 0l-.57.34a.13.13 0 0 0-.07.12l-.06.71a.33.33 0 0 1-.07.16 2.7 2.7 0 0 0-.28.31.19.19 0 0 1-.12.08l-.42-.22a.15.15 0 0 0-.09.11l-.37.7c0 .06-.06.13 0 .15l.34.37a.28.28 0 0 1 0 .16 3.45 3.45 0 0 0-.12.43.26.26 0 0 1-.09.15l-.51.37a.18.18 0 0 0-.06.13v.76c0 .05 0 .08.06.06l.52-.23h.07a1.83 1.83 0 0 0 .14.35.3.3 0 0 1 0 .17l-.29.65v.15l.42.33s.06 0 .1-.09l.37-.6c0-.07.08-.11.11-.11a.69.69 0 0 0 .32 0 .07.07 0 0 1 .06.07l.06.66s0 .06.07 0l.57-.33a.19.19 0 0 0 .07-.12l.05-.72a.28.28 0 0 1 .08-.15 2.08 2.08 0 0 0 .27-.32c.05-.05.09-.09.12-.07l.42.2s.07 0 .11-.09l.36-.7c0-.07.05-.14 0-.16l-.33-.37a.19.19 0 0 1 0-.15 3.39 3.39 0 0 0 .11-.43.35.35 0 0 1 .09-.16l.51-.37a.19.19 0 0 0 .07-.13v-.76c-.02-.04-.05-.06-.08-.04Zm-2.19 3c-.53.31-1 0-1-.73a2.35 2.35 0 0 1 1-1.86c.54-.3 1 0 1 .74a2.31 2.31 0 0 1-1 1.87Z" style="fill:#fff"/><path d="M134.37 264.81V263l-27.49 15.88a1.89 1.89 0 0 0-.95 1.43c0 .49.42.64.95.33Z" style="fill:#b2299f"/><path d="M212.29 218.13a1.07 1.07 0 0 0-.37.14L134.37 263v1.77L211.92 220a2.08 2.08 0 0 0 .68-.64 2.49 2.49 0 0 0 .2-.4 1.07 1.07 0 0 0 .07-.39.44.44 0 0 0-.58-.44Z" style="fill:#fff;opacity:.5"/><path d="M135.75 263.25a3.35 3.35 0 0 1-1.38 2.63c-.76.43-1.37 0-1.37-1.05a3.28 3.28 0 0 1 1.37-2.62c.75-.44 1.38.02 1.38 1.04Z" style="fill:#b2299f"/><path d="M135.75 263.25a3.35 3.35 0 0 1-1.38 2.63c-.76.43-1.37 0-1.37-1.05a3.28 3.28 0 0 1 1.37-2.62c.75-.44 1.38.02 1.38 1.04Z" style="fill:#fff;opacity:.5"/><path d="M135.26 263.53a2.15 2.15 0 0 1-.89 1.7c-.49.28-.89 0-.89-.68a2.12 2.12 0 0 1 .89-1.69c.49-.28.89.01.89.67Z" style="fill:#b2299f"/></svg>