<svg xmlns="http://www.w3.org/2000/svg" viewBox="0 0 500 500"><path d="M407.68 262.82c-88-50.83-230.31-50.83-317.77 0s-87 133.24 1 184.07 230.31 50.83 317.78 0 87.03-133.24-1.01-184.07Z" style="fill:#f5f5f5"/><path d="M229.69 403.48c-19.25-11.11-50.35-11.11-69.48 0s-19 29.13.23 40.24 50.35 11.12 69.48 0 19.02-29.13-.23-40.24ZM424.59 338.72c-20.48-11.83-53.58-11.83-73.93 0-18 10.45-20 26.63-6.08 38.42-11.22-.7-22.85 1.44-31.42 6.42-15 8.74-15 22.91.18 31.65s39.6 8.74 54.64 0c12-7 14.35-17.34 7.21-25.7 17.24 2.49 36.22-.16 49.65-8 20.35-11.79 20.24-30.96-.25-42.79ZM314.81 266.16 300 257.63a15 15 0 0 0-14.94 0l-82 47.54-7.24-4.17-59.38 34.75 6.85 3.94-97.1 56.07a5 5 0 0 0 0 8.63L61.13 413a15 15 0 0 0 15 0l97-56.13 11.34 6.54a29.9 29.9 0 0 0 29.87 0l34.88-20.14a6.64 6.64 0 0 0 0-11.51l-16.35-9.41 13.77-8 4.78-2.77 63.4-36.79a5 5 0 0 0-.01-8.63Z" style="fill:#e6e6e6"/><path d="M237.14 334.22 208.7 350.5a27 27 0 0 1-26.85-.05l-21.11-12.16a8.11 8.11 0 0 1-4.05-7V316.9l-4.4 2.54V332a9.42 9.42 0 0 0 4.73 8.18l25.05 14.44a26.53 26.53 0 0 0 26.44 0l28.65-16.39a10.72 10.72 0 0 0 5.23-11.36 10.65 10.65 0 0 1-5.25 7.35Z" style="fill:#b2299f"/><path d="M237.14 334.22 208.7 350.5a27 27 0 0 1-26.85-.05l-21.11-12.16a8.11 8.11 0 0 1-4.05-7V316.9l-4.4 2.54V332a9.42 9.42 0 0 0 4.73 8.18l25.05 14.44a26.53 26.53 0 0 0 26.44 0l28.65-16.39a10.72 10.72 0 0 0 5.23-11.36 10.65 10.65 0 0 1-5.25 7.35Z" style="opacity:.1"/><path d="m160.74 338.29 21.11 12.16a27 27 0 0 0 26.85.05l28.44-16.28a10.65 10.65 0 0 0 5.23-7.36 10.65 10.65 0 0 0-5-7.25l-23.33-14a9.45 9.45 0 0 1-4.58-8.1v-11.1l-52.79 30.49v14.39a8.11 8.11 0 0 0 4.07 7Z" style="fill:#b2299f"/><path d="M160.74 338.29a8.11 8.11 0 0 1-4.05-7V316.9l-4.4 2.54V332a9.42 9.42 0 0 0 4.73 8.18l8.89 5.12v-4Z" style="opacity:.4"/><path d="m160.74 338.29 5.15 3L221 309.78l-7-4.16a9.45 9.45 0 0 1-4.58-8.1v-11.11l-52.75 30.49v14.39a8.11 8.11 0 0 0 4.07 7Z" style="opacity:.30000000000000004"/><path d="M67.52 374.13h-.06Z" style="fill:#ffa8a7"/><path d="m65 368.87-.4-180.38c0-5.12 3.58-11.36 8-13.94L296.88 45.43c2.21-1.28 4.22-1.4 5.69-.58L294.12 40c-1.47-.94-3.55-.86-5.86.47L64.05 169.55c-4.47 2.58-8.07 8.82-8 13.94l.4 180.38c0 2.42.83 4.14 2.15 5a3.3 3.3 0 0 0 .45.26l8.29 4.87c-1.43-.83-2.34-2.61-2.34-5.13Z" style="fill:#b2299f"/><path d="M294.12 40c-1.47-.94-3.55-.86-5.86.47L64.05 169.55a16.86 16.86 0 0 0-6.17 6.88l8.63 5a16.89 16.89 0 0 1 6.15-6.86L296.88 45.43c2.21-1.28 4.22-1.4 5.69-.58Z" style="fill:#fff;opacity:.30000000000000004"/><path d="m56 183.49.4 180.38c0 2.42.83 4.14 2.15 5a3.3 3.3 0 0 0 .45.26l8.34 4.87c-1.43-.85-2.31-2.63-2.32-5.15l-.4-180.38a15.71 15.71 0 0 1 1.89-7.08l-8.63-5a15.74 15.74 0 0 0-1.88 7.1Z" style="opacity:.2"/><path d="M302.66 44.9Z" style="fill:#ffa8a7"/><path d="M305 50.05c0-2.52-.9-4.29-2.32-5.15h-.05c-1.47-.82-3.48-.7-5.69.58L72.66 174.55c-4.46 2.58-8.06 8.82-8 13.94L65 368.87c0 2.52.89 4.3 2.32 5.15l.12.07h.06c1.46.77 3.43.62 5.6-.63l224.24-129.09c4.45-2.57 8.06-8.82 8-13.94Zm-11.65 187.42L73 364.37l-.4-175.9a10.08 10.08 0 0 1 4.07-7L297 54.55l.4 175.9a10.08 10.08 0 0 1-4.05 7.02Z" style="fill:#b2299f"/><path d="m297 54.55-5.7 3.29.38 169.83a10 10 0 0 1-4.07 7L73 358.3v6.07l220.37-126.9a10.08 10.08 0 0 0 4.07-7Z" style="fill:#b2299f"/><path d="m297 54.55-5.7 3.29.38 169.83a10 10 0 0 1-4.07 7L73 358.3v6.07l220.37-126.9a10.08 10.08 0 0 0 4.07-7Z" style="opacity:.30000000000000004"/><path d="m291.7 227.67-.38-169.83L76.65 181.45a10.08 10.08 0 0 0-4.07 7L73 358.3l214.63-123.62a10 10 0 0 0 4.07-7.01Z" style="fill:#455a64"/><path d="m99 378-.39-170.5a16.79 16.79 0 0 1 7.61-13.18l211.92-122c2.09-1.21 4-1.33 5.38-.55l-8-4.63c-1.4-.89-3.37-.81-5.55.45L98.07 189.6a16.72 16.72 0 0 0-7.6 13.17l.38 170.49c0 2.28.78 3.92 2 4.76a3.58 3.58 0 0 0 .42.25l7.87 4.58c-1.3-.8-2.14-2.48-2.14-4.85Z" style="fill:#b2299f"/><path d="M315.54 67.1c-1.4-.89-3.37-.81-5.55.45L98.07 189.6a16 16 0 0 0-5.83 6.49l8.16 4.71a15.94 15.94 0 0 1 5.82-6.48l211.92-122c2.09-1.21 4-1.33 5.38-.55Z" style="fill:#fff;opacity:.4"/><path d="m90.47 202.77.38 170.49c0 2.28.78 3.92 2 4.76a3.58 3.58 0 0 0 .42.25l7.87 4.58c-1.34-.8-2.18-2.48-2.19-4.86l-.34-170.49a15.07 15.07 0 0 1 1.79-6.7l-8.16-4.71a15 15 0 0 0-1.77 6.68Z" style="fill:#fff;opacity:.30000000000000004"/><path d="M98.63 217.38 99 378c0 2.38.85 4.06 2.19 4.86l.12.07h.06c1.38.72 3.24.59 5.29-.6l211.92-122a16.8 16.8 0 0 0 7.61-13.18l-.36-160.87Z" style="fill:#b2299f"/><path d="M98.63 217.38 99 378c0 2.38.85 4.06 2.19 4.86l.12.07h.06c1.38.72 3.24.59 5.29-.6l211.92-122a16.8 16.8 0 0 0 7.61-13.18l-.36-160.87Z" style="fill:#fff;opacity:.5"/><path d="M317 97c2-1.13 3.56-.23 3.57 2a7.81 7.81 0 0 1-3.55 6.14l-181.66 105c-2 1.13-3.57.22-3.57-2a7.82 7.82 0 0 1 3.55-6.15Z" style="fill:#b2299f"/><g style="opacity:.8"><path d="M317 97c2-1.13 3.56-.23 3.57 2a7.81 7.81 0 0 1-3.55 6.14l-181.66 105c-2 1.13-3.57.22-3.57-2a7.82 7.82 0 0 1 3.55-6.15Z" style="fill:#fff"/></g><path d="M108.68 219.22a.27.27 0 0 1 .24 0c.15.07.16.33 0 .57l-1.15 2.11 3.87-2.23c.2-.12.36 0 .36.2a.78.78 0 0 1-.36.62l-3.87 2.24 1.16.78c.13.09.12.35 0 .59a.83.83 0 0 1-.24.25.29.29 0 0 1-.27 0l-1.71-1.16a.27.27 0 0 1-.07-.08.68.68 0 0 1 0-.14.77.77 0 0 1 0-.15.67.67 0 0 1 .07-.17l1.7-3.13a.65.65 0 0 1 .27-.3ZM118.46 213.57a.25.25 0 0 1 .27 0l1.71 1.15a.31.31 0 0 1 .07.09.69.69 0 0 1 0 .13.77.77 0 0 1 0 .15.67.67 0 0 1-.07.17l-1.7 3.13a.83.83 0 0 1-.26.29.29.29 0 0 1-.25 0c-.14-.07-.15-.32 0-.57l1.15-2.11-3.87 2.24c-.2.11-.36 0-.36-.21a.81.81 0 0 1 .36-.62l3.87-2.23-1.16-.78c-.13-.09-.12-.36 0-.59a.72.72 0 0 1 .24-.24ZM125.62 209.44a1.81 1.81 0 0 1 1.19-.29.77.77 0 0 1 .35-.56c.19-.1.35 0 .34.23v.92a.82.82 0 0 1-.34.59l-.78.49c-.19.11-.35 0-.36-.19a.8.8 0 0 1 .28-.58 1.49 1.49 0 0 0-.65.21 3.31 3.31 0 0 0-1.5 2.59c0 1 .68 1.33 1.51.85A3.23 3.23 0 0 0 127 212a.73.73 0 0 1 .31-.39.3.3 0 0 1 .17-.05c.18 0 .24.22.15.47a4.83 4.83 0 0 1-2 2.46c-1.22.7-2.22.13-2.22-1.27a4.88 4.88 0 0 1 2.21-3.78Z" style="fill:#b2299f"/><g style="opacity:.7000000000000001"><path d="M108.68 219.22a.27.27 0 0 1 .24 0c.15.07.16.33 0 .57l-1.15 2.11 3.87-2.23c.2-.12.36 0 .36.2a.78.78 0 0 1-.36.62l-3.87 2.24 1.16.78c.13.09.12.35 0 .59a.83.83 0 0 1-.24.25.29.29 0 0 1-.27 0l-1.71-1.16a.27.27 0 0 1-.07-.08.68.68 0 0 1 0-.14.77.77 0 0 1 0-.15.67.67 0 0 1 .07-.17l1.7-3.13a.65.65 0 0 1 .27-.3ZM118.46 213.57a.25.25 0 0 1 .27 0l1.71 1.15a.31.31 0 0 1 .07.09.69.69 0 0 1 0 .13.77.77 0 0 1 0 .15.67.67 0 0 1-.07.17l-1.7 3.13a.83.83 0 0 1-.26.29.29.29 0 0 1-.25 0c-.14-.07-.15-.32 0-.57l1.15-2.11-3.87 2.24c-.2.11-.36 0-.36-.21a.81.81 0 0 1 .36-.62l3.87-2.23-1.16-.78c-.13-.09-.12-.36 0-.59a.72.72 0 0 1 .24-.24ZM125.62 209.44a1.81 1.81 0 0 1 1.19-.29.77.77 0 0 1 .35-.56c.19-.1.35 0 .34.23v.92a.82.82 0 0 1-.34.59l-.78.49c-.19.11-.35 0-.36-.19a.8.8 0 0 1 .28-.58 1.49 1.49 0 0 0-.65.21 3.31 3.31 0 0 0-1.5 2.59c0 1 .68 1.33 1.51.85A3.23 3.23 0 0 0 127 212a.73.73 0 0 1 .31-.39.3.3 0 0 1 .17-.05c.18 0 .24.22.15.47a4.83 4.83 0 0 1-2 2.46c-1.22.7-2.22.13-2.22-1.27a4.88 4.88 0 0 1 2.21-3.78Z" style="fill:#fff"/></g><path d="m189.7 300.51 125.48-72.4a2.18 2.18 0 0 1 3.27 1.89v15.75a5.45 5.45 0 0 1-2.73 4.72L190.23 323a2.19 2.19 0 0 1-3.28-1.89v-15.85a5.46 5.46 0 0 1 2.75-4.75ZM316.1 134.05v-15.82a2.18 2.18 0 0 0-3.27-1.88L189.69 187a5.46 5.46 0 0 0-2.74 4.73V208a2.19 2.19 0 0 0 3.28 1.89l123.15-71.1a5.45 5.45 0 0 0 2.72-4.74Z" style="fill:#b2299f"/><path style="fill:#fff" d="M273.67 154.74v2.47l-79.54 45.92-.01-2.46 79.55-45.93zM273.65 150.19l.01 2.45-79.55 45.93v-2.46l79.54-45.92zM238.8 165.18l.01 2.47-44.71 25.81-.01-2.46 44.71-25.82z"/><path style="fill:#b2299f" d="m304.95 131.84.01 2.46-14.15 8.17-.01-2.47 14.15-8.16z"/><path d="M305.65 126.59c2.91-1.68 5.28-.34 5.29 3a11.61 11.61 0 0 1-5.26 9.12l-15.56 9c-2.92 1.69-5.29.34-5.3-3a11.57 11.57 0 0 1 5.26-9.11Zm-.65 7.71v-2.46L290.8 140v2.46l14.2-8.16" style="fill:#fff"/><path d="M260.25 252.12 314.08 221a8.74 8.74 0 0 0 4.37-7.56v-63.85a3.27 3.27 0 0 0-4.91-2.83l-53.84 31.08a8.73 8.73 0 0 0-4.36 7.56v63.88a3.28 3.28 0 0 0 4.91 2.84Z" style="fill:#b2299f"/><path d="m283.18 190.46 1.79-1a.25.25 0 0 0 .09-.34.25.25 0 0 0-.35-.1l-1.79 1a.26.26 0 0 0 .13.48.33.33 0 0 0 .13-.04ZM274.22 195.6l1.79-1a.25.25 0 1 0-.25-.44l-1.79 1a.26.26 0 0 0-.1.35.26.26 0 0 0 .22.12.28.28 0 0 0 .13-.03ZM265.27 200.74l1.79-1a.26.26 0 0 0-.26-.44l-1.79 1a.26.26 0 0 0-.09.35.25.25 0 0 0 .22.12.31.31 0 0 0 .13-.03ZM269.74 198.17l1.79-1a.25.25 0 0 0 .1-.35.26.26 0 0 0-.35-.09l-1.79 1a.26.26 0 0 0-.09.35.24.24 0 0 0 .22.12ZM278.7 193l1.79-1a.25.25 0 0 0 .09-.34.24.24 0 0 0-.34-.1l-1.79 1a.25.25 0 0 0 .12.47.28.28 0 0 0 .13-.03ZM305.57 177.61l1.79-1a.26.26 0 0 0 .09-.35.25.25 0 0 0-.35-.1l-1.79 1a.26.26 0 0 0 .13.48.22.22 0 0 0 .13-.03ZM292.13 185.32l1.79-1a.24.24 0 0 0 .1-.34.25.25 0 0 0-.35-.1l-1.79 1a.26.26 0 0 0-.09.35.25.25 0 0 0 .22.13.28.28 0 0 0 .12-.04ZM301.09 180.18l1.79-1a.25.25 0 0 0 .09-.34.24.24 0 0 0-.34-.1l-1.8 1a.26.26 0 0 0 .13.48.22.22 0 0 0 .13-.04ZM309.92 175.08a.19.19 0 0 0 .12 0l1.8-1a.26.26 0 0 0 .09-.35.25.25 0 0 0-.35-.1l-1.79 1a.26.26 0 0 0-.09.35.25.25 0 0 0 .22.1ZM296.61 182.75l1.79-1a.25.25 0 0 0 .1-.34.25.25 0 0 0-.35-.1l-1.79 1a.26.26 0 0 0-.1.35.27.27 0 0 0 .22.13.2.2 0 0 0 .13-.04ZM315.53 185.86a.25.25 0 0 0-.25-.25.26.26 0 0 0-.26.25v2a.26.26 0 0 0 .26.25.25.25 0 0 0 .25-.25ZM315.53 180.82a.25.25 0 0 0-.25-.25.26.26 0 0 0-.26.25v2a.26.26 0 0 0 .26.25.25.25 0 0 0 .25-.25ZM315.53 190.9a.26.26 0 0 0-.25-.26.26.26 0 0 0-.26.26v2a.26.26 0 0 0 .26.26.26.26 0 0 0 .25-.26ZM315.53 195.94a.25.25 0 0 0-.25-.26.26.26 0 0 0-.26.26v2a.26.26 0 0 0 .26.26.26.26 0 0 0 .25-.26ZM315.53 201a.25.25 0 0 0-.25-.25.26.26 0 0 0-.26.25v2a.26.26 0 0 0 .26.25.25.25 0 0 0 .25-.25ZM315.28 205.76a.26.26 0 0 0-.26.25v2a.26.26 0 0 0 .26.26.25.25 0 0 0 .25-.26v-2a.25.25 0 0 0-.25-.25ZM315.53 175.79a.26.26 0 0 0-.25-.26.26.26 0 0 0-.26.26v2a.26.26 0 0 0 .26.26.26.26 0 0 0 .25-.26ZM293.74 224.19l-1.78 1a.25.25 0 0 0-.1.35.26.26 0 0 0 .22.13.2.2 0 0 0 .13 0l1.79-1a.26.26 0 0 0-.26-.44ZM267 239.63l-1.78 1a.26.26 0 0 0-.09.35.25.25 0 0 0 .22.13.19.19 0 0 0 .12 0l1.79-1a.25.25 0 0 0 .09-.34.25.25 0 0 0-.35-.14ZM271.43 237.06l-1.79 1a.26.26 0 0 0-.09.35.25.25 0 0 0 .22.12.31.31 0 0 0 .13 0l1.78-1a.25.25 0 1 0-.25-.44ZM307.13 216.47l-1.79 1a.26.26 0 0 0 .13.48.22.22 0 0 0 .13 0l1.78-1a.25.25 0 1 0-.25-.44ZM280.35 231.91l-1.78 1a.26.26 0 0 0-.1.35.27.27 0 0 0 .22.13.2.2 0 0 0 .13 0l1.79-1a.25.25 0 0 0 .09-.34.25.25 0 0 0-.35-.14ZM302.67 219l-1.79 1a.26.26 0 0 0-.09.35.25.25 0 0 0 .22.13h.13l1.78-1a.26.26 0 0 0 .09-.35.25.25 0 0 0-.34-.13ZM284.82 229.34l-1.79 1a.26.26 0 0 0-.09.35.24.24 0 0 0 .22.12.27.27 0 0 0 .12 0l1.79-1a.26.26 0 0 0 .09-.35.25.25 0 0 0-.34-.12ZM311.59 213.9l-1.78 1a.25.25 0 0 0-.1.35.26.26 0 0 0 .22.12.28.28 0 0 0 .13 0l1.79-1a.26.26 0 1 0-.26-.44ZM298.2 221.62l-1.78 1a.26.26 0 0 0-.1.35.27.27 0 0 0 .23.12h.12l1.79-1a.26.26 0 1 0-.26-.44ZM275.89 234.49l-1.79 1a.25.25 0 0 0-.09.34.24.24 0 0 0 .22.13.28.28 0 0 0 .13 0l1.78-1a.25.25 0 0 0 .1-.35.26.26 0 0 0-.35-.12ZM261.65 221.49a.25.25 0 0 0-.25.25v2a.25.25 0 0 0 .25.25.26.26 0 0 0 .26-.25v-2a.26.26 0 0 0-.26-.25ZM261.68 226.53a.26.26 0 0 0-.25.26v2a.25.25 0 0 0 .25.25.26.26 0 0 0 .26-.26v-2a.26.26 0 0 0-.26-.25ZM261.59 206.36a.25.25 0 0 0-.25.25v2a.25.25 0 0 0 .25.25.25.25 0 0 0 .25-.25v-2a.25.25 0 0 0-.25-.25ZM261.72 236.62a.24.24 0 0 0-.25.25v2a.26.26 0 0 0 .26.26.26.26 0 0 0 .25-.26v-2a.25.25 0 0 0-.25-.25ZM261.61 211.4a.26.26 0 0 0-.26.26v2a.26.26 0 0 0 .26.26.26.26 0 0 0 .25-.26v-2a.25.25 0 0 0-.25-.26ZM261.63 216.45a.25.25 0 0 0-.25.25v2a.26.26 0 0 0 .26.25.25.25 0 0 0 .25-.25v-2a.26.26 0 0 0-.26-.25ZM261.7 231.58a.26.26 0 0 0-.26.25v2a.26.26 0 0 0 .26.25.25.25 0 0 0 .25-.25v-2a.25.25 0 0 0-.25-.25ZM264.1 200.08a.23.23 0 0 0-.25 0l-3 1.71a.25.25 0 0 0-.13.22v3.4a.25.25 0 0 0 .13.22.19.19 0 0 0 .12 0 .2.2 0 0 0 .13 0l3-1.71a.25.25 0 0 0 .13-.22v-3.4a.25.25 0 0 0-.13-.22Zm-.38.66v2.81l-2.44 1.45v-2.82ZM290 185.05a.24.24 0 0 0-.26 0l-3 1.71a.25.25 0 0 0-.13.22v3.4a.25.25 0 0 0 .13.22.2.2 0 0 0 .13 0 .19.19 0 0 0 .12 0l3-1.71a.26.26 0 0 0 .12-.22v-3.4a.26.26 0 0 0-.11-.22Zm-.38.66v2.82l-2.45 1.41v-2.81ZM312.44 176.38a.3.3 0 0 0 .26 0l3-1.71a.26.26 0 0 0 .13-.22V171a.26.26 0 0 0-.13-.22.28.28 0 0 0-.25 0l-3 1.71a.27.27 0 0 0-.12.22v3.41a.27.27 0 0 0 .11.26Zm2.83-4.9v2.82l-2.46 1.42v-2.82ZM264.1 239.35a.23.23 0 0 0-.25 0l-3 1.71a.26.26 0 0 0-.13.22v3.41a.26.26 0 0 0 .13.22h.12a.28.28 0 0 0 .13 0l3-1.71a.26.26 0 0 0 .13-.23v-3.4a.26.26 0 0 0-.13-.22Zm-.38.66v2.82l-2.45 1.41v-2.81ZM290 224.32a.3.3 0 0 0-.26 0l-3 1.71a.26.26 0 0 0-.13.22v3.41a.26.26 0 0 0 .13.22.28.28 0 0 0 .13 0 .27.27 0 0 0 .12 0l3-1.71a.28.28 0 0 0 .12-.23v-3.4a.27.27 0 0 0-.11-.22Zm-.38.66v2.82l-2.45 1.41v-2.81ZM315.65 210.1a.23.23 0 0 0-.25 0l-3 1.71a.26.26 0 0 0-.12.22v3.4a.26.26 0 0 0 .12.22.23.23 0 0 0 .26 0l3-1.71a.25.25 0 0 0 .13-.22v-3.4a.25.25 0 0 0-.14-.22Zm-.38.66v2.81l-2.45 1.43v-2.82ZM314.05 163.32l.01 2.47L261 196.21l-.01-2.47 53.06-30.42zM314.04 158.77l.01 2.46-53.07 30.42v-2.46l53.06-30.42zM281.98 171.91l.01 2.47-21.02 12.16-.01-2.47 21.02-12.16z" style="fill:#fff"/><path d="m178 193.68-66.25 38a6.53 6.53 0 0 0-3.29 5.69l.21 95.15a2.19 2.19 0 0 0 3.28 1.89L178 296.34a6.57 6.57 0 0 0 3.27-5.68v-95.09a2.18 2.18 0 0 0-3.27-1.89Z" style="fill:#b2299f"/><path d="m139.29 225 1.92-1.1a.28.28 0 1 0-.28-.48l-1.93 1.15a.27.27 0 0 0-.1.37.26.26 0 0 0 .23.13.35.35 0 0 0 .16-.07ZM129.69 230.54l1.92-1.1a.27.27 0 0 0-.27-.47l-1.92 1.1a.28.28 0 0 0-.1.37.27.27 0 0 0 .24.14.22.22 0 0 0 .13-.04ZM120.1 236.05 122 235a.27.27 0 0 0 .1-.37.27.27 0 0 0-.37-.11l-1.92 1.11a.27.27 0 0 0-.1.37.26.26 0 0 0 .24.13.31.31 0 0 0 .15-.08ZM124.9 233.3l1.92-1.11a.27.27 0 0 0 .1-.37.29.29 0 0 0-.38-.1l-1.91 1.1a.27.27 0 0 0 .13.51.35.35 0 0 0 .14-.03ZM134.49 227.79l1.92-1.1a.27.27 0 0 0-.27-.47l-1.92 1.1a.27.27 0 0 0-.1.37.27.27 0 0 0 .24.14.22.22 0 0 0 .13-.04ZM163.27 211.28l1.92-1.11a.27.27 0 0 0 .1-.37.28.28 0 0 0-.37-.1l-1.92 1.1a.27.27 0 0 0 .13.51.32.32 0 0 0 .14-.03ZM148.88 219.53l1.92-1.1a.27.27 0 0 0-.27-.47l-1.92 1.1a.27.27 0 0 0-.1.37.27.27 0 0 0 .24.14.22.22 0 0 0 .13-.04ZM158.47 214l1.92-1.1a.28.28 0 0 0 .1-.38.27.27 0 0 0-.37-.1l-1.92 1.1a.29.29 0 0 0-.1.38.28.28 0 0 0 .24.13.31.31 0 0 0 .13-.03ZM167.93 208.56a.25.25 0 0 0 .14 0l1.92-1.1a.27.27 0 0 0 .1-.37.28.28 0 0 0-.38-.1l-1.91 1.1a.27.27 0 0 0 .13.51ZM153.68 216.78l1.92-1.1a.27.27 0 1 0-.28-.47l-1.91 1.1a.27.27 0 0 0 .13.51.37.37 0 0 0 .14-.04ZM174 220.11a.28.28 0 0 0-.55 0v2.16a.28.28 0 0 0 .55 0ZM174 214.72a.28.28 0 1 0-.55 0v2.15a.28.28 0 1 0 .55 0ZM174 225.51a.28.28 0 1 0-.55 0v2.15a.28.28 0 1 0 .55 0ZM174 230.9a.28.28 0 0 0-.55 0v2.16a.28.28 0 0 0 .55 0ZM174 236.3a.28.28 0 1 0-.55 0v2.16a.28.28 0 0 0 .55 0ZM173.67 241.42a.27.27 0 0 0-.27.27v2.16a.28.28 0 0 0 .55 0v-2.16a.27.27 0 0 0-.28-.27ZM174 209.32a.28.28 0 0 0-.55 0v2.16a.28.28 0 0 0 .55 0ZM150.6 261.17l-1.91 1.1a.29.29 0 0 0-.1.38.28.28 0 0 0 .24.13.31.31 0 0 0 .13 0l1.92-1.11a.27.27 0 0 0 .1-.37.28.28 0 0 0-.38-.13ZM121.92 277.71l-1.91 1.1a.27.27 0 0 0 .13.51.32.32 0 0 0 .14 0l1.91-1.11a.27.27 0 0 0 .1-.37.27.27 0 0 0-.37-.13ZM126.7 275l-1.91 1.11a.27.27 0 0 0-.1.37.27.27 0 0 0 .24.14.33.33 0 0 0 .13 0l1.91-1.1a.28.28 0 0 0 .1-.38.27.27 0 0 0-.37-.14ZM164.94 252.9 163 254a.29.29 0 0 0-.1.38.28.28 0 0 0 .24.13.31.31 0 0 0 .13 0l1.92-1.11a.27.27 0 0 0 .1-.37.29.29 0 0 0-.35-.13ZM136.26 269.44l-1.91 1.1a.28.28 0 0 0-.1.38.28.28 0 0 0 .24.13.31.31 0 0 0 .13 0l1.91-1.11a.27.27 0 0 0-.27-.47ZM160.16 255.66l-1.91 1.1a.28.28 0 0 0-.1.37.27.27 0 0 0 .24.14.22.22 0 0 0 .13 0l1.92-1.1a.27.27 0 1 0-.28-.47ZM141 266.68l-1.91 1.11a.27.27 0 0 0-.1.37.27.27 0 0 0 .24.14.33.33 0 0 0 .13 0l1.92-1.1a.28.28 0 1 0-.28-.48ZM169.72 250.14l-1.91 1.11a.27.27 0 0 0-.1.37.27.27 0 0 0 .24.14.43.43 0 0 0 .14 0l1.91-1.1a.28.28 0 1 0-.28-.48ZM155.38 258.41l-1.91 1.11a.27.27 0 0 0-.1.37.27.27 0 0 0 .24.14.33.33 0 0 0 .13 0l1.92-1.1a.28.28 0 1 0-.28-.48ZM131.48 272.2l-1.91 1.1a.27.27 0 0 0 .14.51.22.22 0 0 0 .13 0l1.91-1.1a.27.27 0 0 0-.27-.47ZM116.23 258.27a.28.28 0 0 0-.27.28v2.16a.27.27 0 0 0 .27.27.27.27 0 0 0 .27-.27v-2.16a.28.28 0 0 0-.27-.28ZM116.25 263.68a.27.27 0 0 0-.27.27v2.16a.27.27 0 0 0 .27.27.27.27 0 0 0 .27-.27V264a.27.27 0 0 0-.27-.32ZM116.16 242.07a.27.27 0 0 0-.27.27v2.16a.27.27 0 0 0 .27.27.27.27 0 0 0 .27-.27v-2.16a.27.27 0 0 0-.27-.27ZM116.3 274.48a.28.28 0 0 0-.27.28v2.16a.27.27 0 0 0 .27.27.27.27 0 0 0 .27-.28v-2.16a.28.28 0 0 0-.28-.27ZM116.18 247.47a.27.27 0 0 0-.27.27v2.16a.28.28 0 0 0 .27.28.29.29 0 0 0 .28-.28v-2.16a.28.28 0 0 0-.28-.27ZM116.21 252.87a.29.29 0 0 0-.28.28v2.16a.28.28 0 0 0 .28.27.28.28 0 0 0 .27-.28v-2.16a.27.27 0 0 0-.27-.27ZM116.28 269.08a.26.26 0 0 0-.27.27v2.16a.28.28 0 0 0 .27.28.28.28 0 0 0 .27-.28v-2.16a.27.27 0 0 0-.27-.27ZM118.85 235.34a.26.26 0 0 0-.27 0l-3.17 1.83a.27.27 0 0 0-.14.24v3.64a.29.29 0 0 0 .14.24.25.25 0 0 0 .27 0l3.18-1.83a.28.28 0 0 0 .13-.24v-3.65a.27.27 0 0 0-.14-.23Zm-.4.71v3l-2.63 1.52v-3ZM146.62 219.24a.26.26 0 0 0-.27 0l-3.17 1.83a.27.27 0 0 0-.14.24V225a.27.27 0 0 0 .14.24.25.25 0 0 0 .27 0l3.17-1.83a.27.27 0 0 0 .14-.24v-3.64a.27.27 0 0 0-.14-.29Zm-.4.71v3l-2.62 1.52v-3ZM170.64 210a.22.22 0 0 0 .13 0 .23.23 0 0 0 .14 0l3.17-1.83a.27.27 0 0 0 .14-.24v-3.64a.27.27 0 0 0-.14-.24.26.26 0 0 0-.27 0l-3.17 1.83a.27.27 0 0 0-.14.24v3.65a.25.25 0 0 0 .14.23Zm3-5.24v3l-2.62 1.52v-3ZM118.85 277.41a.26.26 0 0 0-.27 0l-3.17 1.83a.27.27 0 0 0-.14.24v3.64a.29.29 0 0 0 .14.24.25.25 0 0 0 .27 0l3.18-1.83a.28.28 0 0 0 .13-.24v-3.65a.27.27 0 0 0-.14-.23Zm-.4.71v3l-2.63 1.52v-3ZM146.62 261.31a.26.26 0 0 0-.27 0l-3.17 1.83a.27.27 0 0 0-.14.24V267a.27.27 0 0 0 .14.24.25.25 0 0 0 .27 0l3.17-1.83a.27.27 0 0 0 .14-.24v-3.65a.27.27 0 0 0-.14-.21Zm-.4.71v3l-2.62 1.52v-3ZM174.07 246.07a.26.26 0 0 0-.27 0l-3.17 1.83a.27.27 0 0 0-.14.24v3.65a.27.27 0 0 0 .14.23.22.22 0 0 0 .13 0 .23.23 0 0 0 .14 0l3.17-1.83a.27.27 0 0 0 .14-.24v-3.64a.27.27 0 0 0-.14-.24Zm-.4.71v3l-2.62 1.51v-3ZM174.22 263.93l.01 2.47-58.19 33.88-.01-2.46 58.19-33.89zM174.21 259.38l.01 2.45-58.2 33.89v-2.46l58.19-33.88zM174.22 273.21l.01 2.46-58.19 33.89-.01-2.47 58.19-33.88zM174.21 268.65l.01 2.46-58.2 33.89v-2.46l58.19-33.89zM149.78 296.91l.01 2.47-33.75 19.64-.01-2.46 33.75-19.65zM174.21 278.12l.01 2.45-58.2 33.89V312l58.19-33.88zM131.12 279.25l.01 2.47-15.12 8.89-.01-2.46 15.12-8.9z" style="fill:#fff"/><path d="m191.86 291.13 53.84-31.08a8.73 8.73 0 0 0 4.36-7.56v-63.88a3.28 3.28 0 0 0-4.91-2.84l-53.83 31.08a8.75 8.75 0 0 0-4.37 7.57v63.87a3.28 3.28 0 0 0 4.91 2.84Z" style="fill:#b2299f"/><path style="fill:#fff" d="m219.77 263.48.01 2.47-27.03 15.55-.01-2.46 27.03-15.56zM245.79 244.06v2.46l-53.06 30.42-.01-2.46 53.07-30.42zM232.73 246.1l.01 2.46-40.02 23.27-.01-2.47 40.02-23.26z"/><path style="fill:#e0e0e0" d="m229.22 229.32 8.41-4.86-8.39 14.51-.02-9.65z"/><path style="fill:#fff" d="m237.56 202.45.07 22.01-8.41 4.86.02 9.65 8.39-14.51-8.39 14.51-29.76 17.19-.09-31.67 38.17-22.04z"/><path d="M325.8 76.64c0-2.38-.85-4-2.2-4.86h-.05c-1.39-.78-3.29-.66-5.38.55l-211.92 122a16.79 16.79 0 0 0-7.61 13.18v9.88L325.82 86.26Z" style="fill:#b2299f"/><path d="M325.8 76.64c0-2.38-.85-4-2.2-4.86h-.05c-1.39-.78-3.29-.66-5.38.55l-211.92 122a16.79 16.79 0 0 0-7.61 13.18v9.88L325.82 86.26Z" style="opacity:.30000000000000004"/><g style="opacity:.5"><path d="M108.7 201.23c1.15-.66 2.09-.13 2.09 1.19a4.59 4.59 0 0 1-2.07 3.59c-1.15.67-2.09.13-2.09-1.19a4.55 4.55 0 0 1 2.07-3.59ZM114.39 198c1.14-.66 2.08-.13 2.08 1.19a4.54 4.54 0 0 1-2.07 3.59c-1.15.67-2.08.13-2.09-1.19a4.58 4.58 0 0 1 2.08-3.59ZM120.07 194.67c1.15-.66 2.08-.13 2.09 1.19a4.58 4.58 0 0 1-2.08 3.59c-1.15.66-2.08.13-2.09-1.19a4.58 4.58 0 0 1 2.08-3.59Z" style="fill:#fff"/></g><path d="M108.7 201.23c1.15-.66 2.09-.13 2.09 1.19a4.59 4.59 0 0 1-2.07 3.59c-1.15.67-2.09.13-2.09-1.19a4.55 4.55 0 0 1 2.07-3.59ZM114.39 198c1.14-.66 2.08-.13 2.08 1.19a4.54 4.54 0 0 1-2.07 3.59c-1.15.67-2.08.13-2.09-1.19a4.58 4.58 0 0 1 2.08-3.59ZM120.07 194.67c1.15-.66 2.08-.13 2.09 1.19a4.58 4.58 0 0 1-2.08 3.59c-1.15.66-2.08.13-2.09-1.19a4.58 4.58 0 0 1 2.08-3.59Z" style="fill:#b2299f"/><g style="opacity:.30000000000000004"><path d="M101.36 383h-.06ZM323.61 71.78ZM325.8 76.64c0-2.38-.85-4-2.2-4.86h-.05a4 4 0 0 0-1.76-.49 4 4 0 0 1 1.76.49l-8-4.63c-1.4-.89-3.37-.81-5.55.45l-211.93 122c-.28.16-.55.34-.83.53l-.25.19c-.18.13-.37.27-.55.42l-.28.25c-.17.14-.33.29-.5.45l-.26.27c-.17.16-.33.33-.48.5s-.17.19-.25.28-.31.37-.47.56l-.21.27c-.16.21-.31.43-.46.64l-.17.25c-.17.24-.32.49-.48.75a1.63 1.63 0 0 1-.11.17c-.18.32-.36.64-.52 1-.1.2-.19.4-.28.6a2.39 2.39 0 0 0-.13.28c-.08.18-.16.36-.23.54l-.15.35-.18.51-.13.4-.15.47-.12.46c0 .14-.07.29-.1.43s-.07.33-.1.5 0 .26-.07.39 0 .38-.07.57v1.18l.38 170.49c0 2.28.78 3.92 2 4.76a3.58 3.58 0 0 0 .42.25l7.87 4.58.12.07h.06c1.38.72 3.24.59 5.29-.6l211.92-122a16.8 16.8 0 0 0 7.61-13.18Z" style="fill:#fff"/></g><path d="M417.7 181.93v-3.73a5.06 5.06 0 0 0-2.32-4l-67.15-38.78a1.62 1.62 0 0 0-1.69-.13l-2.27 1.64s1.48.92 1.48 1h.15v5.27l69.6 40.18Z" style="fill:#b2299f"/><path d="M417.7 181.93v-3.73a5.06 5.06 0 0 0-2.32-4l-67.15-38.78a1.62 1.62 0 0 0-1.69-.13l-2.27 1.64s1.48.92 1.48 1h.15v5.27l69.6 40.18Z" style="fill:#fff;opacity:.7000000000000001"/><path d="m415.49 183.3-69.6-40.18-.13 47.74a5.08 5.08 0 0 0 2.31 4L414.19 233l-.6.76 1.11 1.58 2.26-1.63a1.64 1.64 0 0 0 .61-1.42l.14-50.39Z" style="fill:#37474f"/><path d="M413.18 175.79a5.13 5.13 0 0 1 2.32 4v3.5l-71.81-41.46v-3.5c0-1.47 1.05-2.06 2.33-1.32Z" style="fill:#b2299f"/><g style="opacity:.5"><path d="M413.18 175.79a5.13 5.13 0 0 1 2.32 4v3.5l-71.81-41.46v-3.5c0-1.47 1.05-2.06 2.33-1.32Z" style="fill:#fff"/></g><path d="m415.49 183.3-.15 50.62c0 1.47-1 2.06-2.33 1.32l-67.16-38.77a5.08 5.08 0 0 1-2.31-4l.14-50.62Z" style="fill:#455a64"/><path style="fill:#b2299f" d="m367.26 197.33-.01 2.11-19.93-11.5v-2.12l19.94 11.51zM411.86 191.67v2.12l-51.3-29.62.01-2.11 51.29 29.61zM367.36 161.42l-.01 2.11-19.93-11.51.01-2.11 19.93 11.51z"/><g style="opacity:.5"><path style="fill:#fff" d="m367.26 197.33-.01 2.11-19.93-11.5v-2.12l19.94 11.51zM411.86 191.67v2.12l-51.3-29.62.01-2.11 51.29 29.61zM367.36 161.42l-.01 2.11-19.93-11.51.01-2.11 19.93 11.51zM367.3 184.25l-.01 2.11-19.93-11.51v-2.11l19.94 11.51zM361.32 171.67v2.11l-13.94-8.04.01-2.12 13.93 8.05zM386.11 212.79v2.1l-25.65-14.8.01-2.11 25.64 14.81zM392.53 207.33l-.01 2.12-32.03-18.5v-2.11l32.04 18.49zM376.43 175.18l-.01 2.11-15.87-9.16.01-2.12 15.87 9.17zM399.63 198.35l-.01 2.11-39.1-22.57.01-2.12 39.1 22.58zM411.8 214.51l-.01 2.11L360.5 187v-2.11l51.3 29.62z"/></g><path d="M75.8 350.7V347a5.12 5.12 0 0 1 2.32-4l67.16-38.78a1.59 1.59 0 0 1 1.69-.12l2.27 1.64s-1.48.92-1.48 1-.06 0-.15 0v5.27L78 352.07Z" style="fill:#b2299f"/><path d="M75.8 350.7V347a5.12 5.12 0 0 1 2.32-4l67.16-38.78a1.59 1.59 0 0 1 1.69-.12l2.27 1.64s-1.48.92-1.48 1-.06 0-.15 0v5.27L78 352.07Z" style="fill:#fff;opacity:.30000000000000004"/><path d="m78 352.07 69.59-40.18.14 47.74a5.12 5.12 0 0 1-2.31 4l-66.11 38.18.61.76-1.11 1.58-2.26-1.63a1.67 1.67 0 0 1-.62-1.43l-.13-50.39Z" style="fill:#37474f"/><path d="M80.33 344.56a5.1 5.1 0 0 0-2.32 4v3.5l71.8-41.46v-3.5c0-1.47-1-2.06-2.32-1.32Z" style="fill:#b2299f"/><g style="opacity:.1"><path d="M80.33 344.56a5.1 5.1 0 0 0-2.32 4v3.5l71.8-41.46v-3.5c0-1.47-1-2.06-2.32-1.32Z" style="fill:#fff"/></g><path d="m78 352.07.14 50.62c0 1.47 1 2.06 2.34 1.32l67.15-38.77a5.09 5.09 0 0 0 2.32-4l-.15-50.62Z" style="fill:#455a64"/><path style="fill:#b2299f" d="M81.75 392.18v2.12l19.94-11.51-.01-2.12-19.93 11.51zM81.71 379.1l.01 2.11 19.93-11.51-.01-2.11-19.93 11.51zM81.71 370.11l.01 2.11 13.93-8.05-.01-2.11-13.93 8.05zM95.69 388.3l.01 2.11 25.64-14.81v-2.1l-25.65 14.8zM95.75 379.24l.01 2.11 32.04-18.49-.01-2.12-32.04 18.5zM94.58 357.06l.01 2.11 15.87-9.16-.01-2.12-15.87 9.17zM95.78 365.62l.01 2.11 39.1-22.58-.01-2.11-39.1 22.58zM95.75 375.44l.01 2.12 51.3-29.62-.01-2.11-51.3 29.61zM94.52 353.27l.01 2.12 51.29-29.62-.01-2.11-51.29 29.61zM81.64 356.27l.01 2.11 19.93-11.51v-2.11l-19.94 11.51z"/><g style="opacity:.5"><path style="fill:#fff" d="M81.75 392.18v2.12l19.94-11.51-.01-2.12-19.93 11.51zM81.71 379.1l.01 2.11 19.93-11.51-.01-2.11-19.93 11.51zM81.71 370.11l.01 2.11 13.93-8.05-.01-2.11-13.93 8.05zM95.69 388.3l.01 2.11 25.64-14.81v-2.1l-25.65 14.8zM95.75 379.24l.01 2.11 32.04-18.49-.01-2.12-32.04 18.5zM94.58 357.06l.01 2.11 15.87-9.16-.01-2.12-15.87 9.17zM95.78 365.62l.01 2.11 39.1-22.58-.01-2.11-39.1 22.58zM95.75 375.44l.01 2.12 51.3-29.62-.01-2.11-51.3 29.61zM94.52 353.27l.01 2.12 51.29-29.62-.01-2.11-51.29 29.61zM81.64 356.27l.01 2.11 19.93-11.51v-2.11l-19.94 11.51z"/></g><path d="m262 323.28-.08-29.63a4.3 4.3 0 0 1 2-3.41l40.88-23.64a1.4 1.4 0 0 1 1.36-.15l-2.55-1.53a1.4 1.4 0 0 0-1.37.15l-40.93 23.64a4.32 4.32 0 0 0-2 3.41l.08 29.63A1.36 1.36 0 0 0 260 323l2.55 1.53a1.4 1.4 0 0 1-.55-1.25Z" style="fill:#455a64"/><path d="M306.78 267.73a1.39 1.39 0 0 0-.48-1.18l-.06-.06h-.08a1.4 1.4 0 0 0-1.36.15l-40.94 23.64a4.3 4.3 0 0 0-2 3.41l.08 29.63a1.4 1.4 0 0 0 .56 1.26 1.37 1.37 0 0 0 1.43-.12l40.94-23.64a4.36 4.36 0 0 0 2-3.42Z" style="fill:#455a64"/><path d="m262 323.28-.08-29.63a4.3 4.3 0 0 1 2-3.41l40.88-23.64a1.4 1.4 0 0 1 1.36-.15l-2.55-1.53a1.4 1.4 0 0 0-1.37.15l-40.93 23.64a4.32 4.32 0 0 0-2 3.41l.08 29.63A1.36 1.36 0 0 0 260 323l2.55 1.53a1.4 1.4 0 0 1-.55-1.25Z" style="opacity:.30000000000000004"/><path style="fill:#f5f5f5" d="M279.78 293.57v2.24l-8.32 8.51 8.34-1.12.01 2.24-10.54 1.3v-2.32l10.51-10.85zM290.45 280.06l-7.67 29.88-2.04 1.19 7.67-29.89 2.04-1.18zM291.18 286.99l10.53-1.3.01 2.32-10.5 10.85-.01-2.24 8.35-8.53-8.37 1.14-.01-2.24z"/><path style="fill:#fff" d="m296.5 191.05 10.31 8.11.02 7.93-34.28 19.79-.02-7.93 6.53-12.97 5.87 4.55-2.08 6.45 3.01-5.73 10.64-20.2z"/><path d="M285.24 195c1.61-.93 2.93-.18 2.93 1.67a6.41 6.41 0 0 1-2.91 5c-1.61.93-2.93.18-2.93-1.67a6.41 6.41 0 0 1 2.91-5ZM153.56 225.67l11.04 8.69.03 8.49-36.73 21.2-.02-8.49 7-13.9 6.28 4.88-2.22 6.9 3.22-6.13 11.4-21.64z" style="fill:#fff"/><path d="M141.5 230c1.73-1 3.13-.2 3.14 1.79a6.89 6.89 0 0 1-3.12 5.4c-1.73 1-3.13.2-3.14-1.79a6.84 6.84 0 0 1 3.12-5.4Z" style="fill:#fff"/><path style="fill:#b2299f" d="m367.3 184.25-.01 2.11-19.93-11.51v-2.11l19.94 11.51zM361.32 171.67v2.11l-13.94-8.04.01-2.12 13.93 8.05zM386.11 212.79v2.1l-25.65-14.8.01-2.11 25.64 14.81zM392.53 207.33l-.01 2.12-32.03-18.5v-2.11l32.04 18.49zM376.43 175.18l-.01 2.11-15.87-9.16.01-2.12 15.87 9.17zM399.63 198.35l-.01 2.11-39.1-22.57.01-2.12 39.1 22.58zM411.8 214.51l-.01 2.11L360.5 187v-2.11l51.3 29.62z"/><path d="M359.39 50.57c-3.08-1.78-5.68-.91-6.5 1.85a9.24 9.24 0 0 0-3.33-3.7c-2.41-1.39-4.37-.27-4.38 2.5v1.27l-3.24-1.87c-1.69-1-3.06-.19-3.07 1.76a6.71 6.71 0 0 0 3.05 5.27l27.42 15.83c1.69 1 3.07.2 3.07-1.74a6.7 6.7 0 0 0-3.05-5.28l-3.24-1.87v-2.34a14.85 14.85 0 0 0-6.73-11.68ZM397.78 92.7c-8.11-4.68-15-2.39-17.14 4.89a24 24 0 0 0-8.76-9.75c-6.36-3.67-11.53-.72-11.55 6.58v3.35l-8.53-4.92c-4.45-2.58-8.07-.51-8.08 4.61s3.58 11.34 8 13.91L424 153.1c4.45 2.57 8.08.51 8.09-4.61s-3.59-11.35-8-13.92l-8.53-4.92v-6.17c.02-11.32-7.93-25.09-17.78-30.78Z" style="fill:#e6e6e6"/><path style="fill:#455a64" d="m384.13 107.31 8.72 15.95-5.27-3.04-.04 11.78-6.96-4.02.03-11.78-5.27-3.04 8.79-5.85zM387.58 133.65l-.01 4.51-6.97-4.02.02-4.51 6.96 4.02zM387.58 139.97l-.01 2.25-6.97-4.02.02-2.25 6.96 4.02zM387.58 143.74l-.01 1.36-6.97-4.03.02-1.36 6.96 4.03z"/><g style="opacity:.5"><path style="fill:#fff" d="m384.13 107.31 8.72 15.95-5.27-3.04-.04 11.78-6.96-4.02.03-11.78-5.27-3.04 8.79-5.85zM387.58 133.65l-.01 4.51-6.97-4.02.02-4.51 6.96 4.02zM387.58 139.97l-.01 2.25-6.97-4.02.02-2.25 6.96 4.02zM387.58 143.74l-.01 1.36-6.97-4.03.02-1.36 6.96 4.03z"/></g><path d="M167.29 30.42c8.11-4.68 15-2.39 17.14 4.89a24.13 24.13 0 0 1 8.76-9.76c6.35-3.66 11.53-.72 11.55 6.58v3.36l8.53-4.93c4.45-2.57 8.07-.5 8.08 4.62s-3.58 11.34-8 13.91l-72.29 41.72c-4.45 2.57-8.08.52-8.09-4.6s3.58-11.35 8-13.92l8.53-4.93v-6.17c-.01-11.31 7.94-25.09 17.79-30.77Z" style="fill:#e6e6e6"/><path style="fill:#455a64" d="m180.07 91 8.72-15.95-5.26 3.04-.04-11.79-6.96 4.03.03 11.78-5.27 3.04 8.78 5.85zM183.53 64.66l-.01-4.51-6.97 4.02.01 4.51 6.97-4.02zM183.53 58.34l-.01-2.26-6.97 4.03.01 2.25 6.97-4.02zM183.53 54.57l-.01-1.36-6.97 4.02.01 1.37 6.97-4.03z"/><g style="opacity:.5"><path style="fill:#fff" d="m180.07 91 8.72-15.95-5.26 3.04-.04-11.79-6.96 4.03.03 11.78-5.27 3.04 8.78 5.85zM183.53 64.66l-.01-4.51-6.97 4.02.01 4.51 6.97-4.02zM183.53 58.34l-.01-2.26-6.97 4.03.01 2.25 6.97-4.02zM183.53 54.57l-.01-1.36-6.97 4.02.01 1.37 6.97-4.03z"/></g><path d="m68.48 137.76-.26.24ZM58.9 136.14a6.66 6.66 0 0 0 .7-.36l.72-.45.23-.17c.16-.12.32-.23.47-.36l.26-.21c.15-.12.29-.25.43-.38L62 134l.31-.31c.18-.18.34-.36.51-.54l.29-.33.29-.36c.12-.14.23-.29.35-.44l.21-.28c.13-.18.25-.36.37-.55l.15-.22.48-.77s0-.09.07-.14c.13-.22.25-.45.37-.68l.12-.23c.12-.24.23-.48.34-.73a.93.93 0 0 0 0-.1c.12-.27.23-.55.33-.83l.09-.25c.07-.2.14-.4.2-.61a2.81 2.81 0 0 0 .1-.31c.05-.18.1-.36.14-.54s.07-.26.1-.39 0-.27.08-.41.08-.4.1-.6 0-.37.07-.55v-1.1a8.81 8.81 0 0 0-.07-1 9.54 9.54 0 0 0-1 .5 16.64 16.64 0 0 0-7.55 13.08 9 9 0 0 0 .06 1.06l.16-.06ZM72.16 122.18l.2.2ZM60.75 140.11ZM67.06 138.94l-.23.17ZM71.7 121.8l.22.16ZM73.43 124.53c0 .1 0 .19.07.29-.02-.1-.05-.19-.07-.29ZM73.58 125.35v.27c.03-.09.01-.18 0-.27ZM72.92 123.2a2 2 0 0 1 .14.25 2 2 0 0 0-.14-.25ZM73.21 123.82c0 .1.07.18.11.28-.04-.1-.08-.18-.11-.28ZM72.57 122.65c.05.07.12.14.17.22-.05-.08-.12-.15-.17-.22ZM73.41 110.6h.44-.44ZM59.77 117.86l.18-.2ZM69.3 136.9c-.16.19-.33.36-.5.54.2-.18.34-.35.5-.54ZM72.7 110.6ZM72.81 131l-.09.25ZM51.26 133.2l.15-.56ZM60.6 117l.27-.28ZM50.81 135.11c0-.26.11-.52.17-.78-.06.26-.12.52-.17.78ZM62.47 140.6ZM70.82 135l.14-.22ZM71.44 134l.08-.13ZM61.23 140.33h.14ZM71.88 133.14l.12-.23-.12.23ZM73.26 129.54l.09-.39ZM73.6 127.59a10.6 10.6 0 0 0 .06-1.11v.84ZM72.34 132.18v-.1ZM73.43 128.73c0-.2.08-.4.11-.6-.03.2-.07.4-.11.6ZM73 130.39l.09-.31-.09.31ZM70.23 135.78l.21-.29ZM63.69 140.5l.31-.06ZM63.07 140.59h.23ZM61.79 140.5h.12ZM64.33 140.34l.54-.18ZM67.54 138.59l-.26.19c.26-.2.51-.4.75-.61l-.24.2ZM65.24 140a8.88 8.88 0 0 0 .87-.44l-.69.36ZM69.59 136.57q.15-.16.3-.36-.15.2-.3.36Z" style="fill:none"/><path d="m58.15 151.1-.61.76 5.85 3.4-1.23-4.57a10.93 10.93 0 0 1-4.01.41ZM81.34 117.48l4.58-1.26-5.86-3.4-.4 1a11 11 0 0 1 1.68 3.66ZM73.58 125.35a4.51 4.51 0 0 0-.08-.53c0-.1 0-.19-.07-.29s-.07-.29-.11-.43-.08-.18-.11-.28-.09-.25-.15-.37a2 2 0 0 0-.14-.25 3.47 3.47 0 0 0-.18-.33c0-.08-.12-.15-.17-.22a3.17 3.17 0 0 0-.21-.27l-.2-.2c-.08-.07-.15-.15-.24-.22l-.22-.16a4.69 4.69 0 0 0-4.62-.15 8.81 8.81 0 0 1 .07 1v1.1c0 .18 0 .36-.07.55s-.06.4-.1.6 0 .28-.08.41-.06.26-.1.39-.09.36-.14.54a2.81 2.81 0 0 1-.1.31c-.06.21-.13.41-.2.61l-.09.25c-.1.28-.21.56-.33.83a.93.93 0 0 1 0 .1c-.11.25-.22.49-.34.73l-.12.23c-.12.23-.24.46-.37.68 0 .05 0 .09-.07.14l-.48.77-.15.22c-.12.19-.24.37-.37.55l-.21.28c-.12.15-.23.3-.35.44l-.29.36-.29.33c-.17.18-.33.36-.51.54L62 134l-.26.24c-.14.13-.28.26-.43.38l-.26.21c-.15.13-.31.24-.47.36l-.23.17-.72.45a6.66 6.66 0 0 1-.7.36l-.17.09-.16.06a4.82 4.82 0 0 0 2.18 3.82 3 3 0 0 0 .48.22h.12a2.58 2.58 0 0 0 .42.12h.11a5 5 0 0 0 .56.07H63.28a2.63 2.63 0 0 0 .39-.06l.3-.06.33-.1.54-.18.37-.15.18-.08.69-.36c.24-.14.48-.3.72-.46l.23-.17.22-.16.26-.19.25-.22.24-.2.19-.17.26-.24c.11-.1.21-.21.32-.32s.34-.35.5-.54.2-.21.29-.33q.15-.16.3-.36c.11-.14.23-.28.34-.43l.21-.29.38-.54.14-.22c.17-.26.33-.51.48-.78l.08-.13c.12-.23.25-.45.36-.68l.12-.23c.12-.24.23-.49.34-.73v-.1c.12-.28.23-.56.33-.83l.09-.25c.08-.2.14-.41.21-.61l.09-.31.15-.54.09-.39c0-.14.06-.28.08-.42 0-.2.08-.4.11-.6l.06-.54V126.47a8 8 0 0 0 0-.86c.09-.08.07-.17.06-.26ZM47.72 145.09l-1.47.4-.65-.37-1.97 5.06 6.51 3.79 2.37-6.09-4.79-2.79zM69.14 107.8l4.88 2.83 4.09-5.12-6.51-3.78-3.48 4.34.66.39.36 1.34z" style="fill:#e0e0e0"/><path d="m50.83 144.24-3.11.85 4.79 2.79a10.92 10.92 0 0 1-1.68-3.64ZM70 111a12 12 0 0 1 2.69-.42H74l-4.88-2.83ZM51 134.33c.09-.37.18-.75.28-1.13l.15-.56q.45-1.56 1.05-3.09L46 125.76c0 .1-.08.19-.11.29s-.11.31-.17.47l-.3.83-.06.18c-.05.13-.08.26-.13.4-.09.31-.19.61-.28.92a2.58 2.58 0 0 1-.08.26c0 .1 0 .2-.07.3-.1.38-.2.76-.28 1.14 0 .11-.06.22-.08.33a3.82 3.82 0 0 0-.09.44l6.51 3.79c0-.26.06-.52.14-.78ZM58.06 119.84c.55-.69 1.12-1.34 1.71-2l.18-.2.65-.66.27-.28c.39-.38.79-.75 1.19-1.11l-6.51-3.78c-.4.35-.8.73-1.19 1.11l-.11.1-.54.55-.28.29c-.3.33-.61.66-.9 1-.33.37-.65.76-1 1.15ZM50.81 135.11l-6.51-3.79-4.58 4.04 6.51 3.78 4.58-4.03z" style="fill:#e0e0e0"/><path style="fill:#e0e0e0" d="m46.23 139.14-6.51-3.78.02 6.35 5.86 3.41.65.37-.02-6.35zM63.26 109.65l-6.51-3.79-1.2 5.97 6.51 3.78 1.2-5.96zM68.78 106.46l-.66-.39-5.85-3.4-5.52 3.19 6.51 3.79 5.52-3.19zM50.06 126.21l-6.51-3.79 2.4 3.34 6.51 3.79-2.4-3.34zM58.06 119.84l-6.51-3.79-4.11-.37 6.51 3.78 4.11.38z"/><path style="fill:#e0e0e0" d="m53.95 119.46-6.51-3.78-3.89 6.74 6.51 3.79 3.89-6.75zM81.36 126.61l4.58-4v-6.35l-4.58 1.26a11 11 0 0 0-1.68-3.64l.4-1 2-5.07-3.92-2.24-4.16 5.06H72.7a12 12 0 0 0-2.7.37l-.87-3.22-.36-1.34-5.52 3.19-1.2 6c-.4.36-.8.73-1.19 1.11l-.27.28-.65.66-.18.2c-.59.64-1.16 1.29-1.71 2l-4.05-.42-3.89 6.75 2.4 3.34q-.6 1.53-1.05 3.09l-.15.56c-.1.38-.19.76-.28 1.13s-.12.52-.17.78l-4.58 4v6.35l1.47-.4 3.11-.85a10.92 10.92 0 0 0 1.68 3.64l-2.4 6.15 3.92 2.23 3.48-4.34.61-.76a10.93 10.93 0 0 0 4-.41l1.23 4.57 5.52-3.19 1.2-6a32.09 32.09 0 0 0 4-4.22l4.12.37 3.89-6.74-2.4-3.33a32.65 32.65 0 0 0 1.65-5.57Zm-7.76 1-.06.54c0 .2-.07.4-.11.6s-.05.28-.08.42l-.09.39-.15.54-.09.31c-.07.2-.13.41-.21.61l-.09.25c-.1.27-.21.55-.33.83v.1c-.11.24-.22.49-.34.73l-.12.23c-.11.23-.24.45-.36.68l-.08.13c-.15.27-.31.52-.48.78l-.14.22-.38.54-.21.29c-.11.15-.23.29-.34.43s-.2.25-.3.36-.19.22-.29.33-.33.36-.5.54-.21.22-.32.32l-.26.24-.19.17c-.24.21-.49.41-.75.61l-.22.16-.23.17c-.24.16-.48.32-.72.46a8.88 8.88 0 0 1-.87.44l-.37.15-.54.18-.33.1-.31.06a2.63 2.63 0 0 1-.39.06h-.83a5 5 0 0 1-.56-.07h-.12a2.58 2.58 0 0 1-.42-.12h-.14a3 3 0 0 1-.48-.22 4.82 4.82 0 0 1-2.18-3.82 9 9 0 0 1-.06-1.06 16.64 16.64 0 0 1 7.55-13.08 9.54 9.54 0 0 1 1-.5 4.69 4.69 0 0 1 4.62.15l.22.16c.09.07.16.15.24.22l.2.2a3.17 3.17 0 0 1 .21.27c.05.07.12.14.17.22a3.47 3.47 0 0 1 .18.33 2 2 0 0 1 .14.25c.06.12.1.25.15.37s.07.18.11.28.07.29.11.43 0 .19.07.29a4.51 4.51 0 0 1 .08.53v.27a8 8 0 0 1 0 .86 10.6 10.6 0 0 1-.01 1.05Z"/><path d="m58.15 151.1-.61.76 5.85 3.4-1.23-4.57a10.93 10.93 0 0 1-4.01.41ZM81.34 117.48l4.58-1.26-5.86-3.4-.4 1a11 11 0 0 1 1.68 3.66ZM73.58 125.35a4.51 4.51 0 0 0-.08-.53c0-.1 0-.19-.07-.29s-.07-.29-.11-.43-.08-.18-.11-.28-.09-.25-.15-.37a2 2 0 0 0-.14-.25 3.47 3.47 0 0 0-.18-.33c0-.08-.12-.15-.17-.22a3.17 3.17 0 0 0-.21-.27l-.2-.2c-.08-.07-.15-.15-.24-.22l-.22-.16a4.69 4.69 0 0 0-4.62-.15 8.81 8.81 0 0 1 .07 1v1.1c0 .18 0 .36-.07.55s-.06.4-.1.6 0 .28-.08.41-.06.26-.1.39-.09.36-.14.54a2.81 2.81 0 0 1-.1.31c-.06.21-.13.41-.2.61l-.09.25c-.1.28-.21.56-.33.83a.93.93 0 0 1 0 .1c-.11.25-.22.49-.34.73l-.12.23c-.12.23-.24.46-.37.68 0 .05 0 .09-.07.14l-.48.77-.15.22c-.12.19-.24.37-.37.55l-.21.28c-.12.15-.23.3-.35.44l-.29.36-.29.33c-.17.18-.33.36-.51.54L62 134l-.26.24c-.14.13-.28.26-.43.38l-.26.21c-.15.13-.31.24-.47.36l-.23.17-.72.45a6.66 6.66 0 0 1-.7.36l-.17.09-.16.06a4.82 4.82 0 0 0 2.18 3.82 3 3 0 0 0 .48.22h.12a2.58 2.58 0 0 0 .42.12h.11a5 5 0 0 0 .56.07H63.28a2.63 2.63 0 0 0 .39-.06l.3-.06.33-.1.54-.18.37-.15.18-.08.69-.36c.24-.14.48-.3.72-.46l.23-.17.22-.16.26-.19.25-.22.24-.2.19-.17.26-.24c.11-.1.21-.21.32-.32s.34-.35.5-.54.2-.21.29-.33q.15-.16.3-.36c.11-.14.23-.28.34-.43l.21-.29.38-.54.14-.22c.17-.26.33-.51.48-.78l.08-.13c.12-.23.25-.45.36-.68l.12-.23c.12-.24.23-.49.34-.73v-.1c.12-.28.23-.56.33-.83l.09-.25c.08-.2.14-.41.21-.61l.09-.31.15-.54.09-.39c0-.14.06-.28.08-.42 0-.2.08-.4.11-.6l.06-.54V126.47a8 8 0 0 0 0-.86c.09-.08.07-.17.06-.26ZM47.72 145.09l-1.47.4-.65-.37-1.97 5.06 6.51 3.79 2.37-6.09-4.79-2.79z" style="opacity:.2"/><path d="m50.83 144.24-3.11.85 4.79 2.79a10.92 10.92 0 0 1-1.68-3.64ZM70 111a12 12 0 0 1 2.69-.42H74l-4.88-2.83ZM51 134.33c.09-.37.18-.75.28-1.13l.15-.56q.45-1.56 1.05-3.09L46 125.76c0 .1-.08.19-.11.29s-.11.31-.17.47l-.3.83-.06.18c-.05.13-.08.26-.13.4-.09.31-.19.61-.28.92a2.58 2.58 0 0 1-.08.26c0 .1 0 .2-.07.3-.1.38-.2.76-.28 1.14 0 .11-.06.22-.08.33a3.82 3.82 0 0 0-.09.44l6.51 3.79c0-.26.06-.52.14-.78ZM46.23 139.14l-6.51-3.78.02 6.35 5.86 3.41.65.37-.02-6.35zM63.26 109.65l-6.51-3.79-1.2 5.97 6.51 3.78 1.2-5.96z" style="opacity:.2"/><path style="opacity:.2" d="m50.06 126.21-6.51-3.79 2.4 3.34 6.51 3.79-2.4-3.34zM58.06 119.84l-6.51-3.79-4.11-.37 6.51 3.78 4.11.38z"/><path style="fill:#fff;opacity:.2" d="m69.14 107.8 4.88 2.83 4.09-5.12-6.51-3.78-3.48 4.34.66.39.36 1.34zM58.06 119.84c.55-.69 1.12-1.34 1.71-2l.18-.2.65-.66.27-.28c.39-.38.79-.75 1.19-1.11l-6.51-3.78c-.4.35-.8.73-1.19 1.11l-.11.1-.54.55-.28.29c-.3.33-.61.66-.9 1-.33.37-.65.76-1 1.15ZM50.81 135.11l-6.51-3.79-4.58 4.04 6.51 3.78 4.58-4.03z"/><path style="fill:#fff;opacity:.2" d="m68.78 106.46-.66-.39-5.85-3.4-5.52 3.19 6.51 3.79 5.52-3.19zM53.95 119.46l-6.51-3.78-3.89 6.74 6.51 3.79 3.89-6.75z"/><path d="m111.29 119.63-.18.17ZM104.52 118.49l.49-.25q.26-.15.51-.33l.16-.12.34-.25.18-.15c.1-.09.2-.17.3-.27l.18-.16.23-.23c.12-.12.24-.25.35-.38l.21-.23.21-.26.24-.31.15-.2.27-.38c0-.06.07-.11.1-.16s.23-.36.34-.55v-.09c.09-.16.18-.32.26-.48a1.3 1.3 0 0 0 .08-.17c.09-.17.17-.34.25-.52v-.06l.24-.59.06-.18c0-.14.1-.28.14-.43a1.87 1.87 0 0 0 .07-.22c0-.13.07-.25.1-.38a2.29 2.29 0 0 0 .07-.28l.06-.29c0-.14 0-.28.07-.43s0-.25 0-.38a1.23 1.23 0 0 1 0-.19v-.59a5.74 5.74 0 0 0 0-.74 5.94 5.94 0 0 0-.72.35 11.8 11.8 0 0 0-5.35 9.26 5.87 5.87 0 0 0 0 .74h.11ZM113.89 108.61l.15.14ZM105.82 121.29ZM110.29 120.47l-.17.12ZM113.57 108.34l.16.11ZM114.79 110.28a1.46 1.46 0 0 1 0 .2 1.46 1.46 0 0 0 0-.2ZM114.9 110.86v.18ZM114.43 109.33l.1.18ZM114.63 109.78a1.08 1.08 0 0 1 .08.19 1.08 1.08 0 0 0-.08-.19ZM114.18 108.94a1.67 1.67 0 0 1 .12.16 1.67 1.67 0 0 0-.12-.16ZM114.78 100.42ZM105.13 105.56l.12-.14ZM111.87 119l-.35.38ZM114.28 100.42ZM114.36 114.85a1.34 1.34 0 0 0-.07.18 1.34 1.34 0 0 1 .07-.18ZM99.11 116.41c0-.13.07-.27.11-.4-.04.13-.08.26-.11.4ZM105.72 104.94l.19-.19ZM98.79 117.76c0-.19.08-.37.12-.55-.04.18-.09.36-.12.55ZM107 121.64ZM112.94 117.64l.11-.15ZM113.38 116.94l.06-.1ZM106.16 121.45h.1ZM113.7 116.36s0-.1.08-.16-.06.11-.08.16ZM114.67 113.82c0-.1 0-.19.07-.28-.02.09-.05.18-.07.28ZM114.91 112.44a7.11 7.11 0 0 0 0-.78v.59a1.37 1.37 0 0 1 0 .19ZM114 115.68v-.07ZM114.79 113.25c0-.14.06-.29.08-.43-.02.18-.05.29-.08.43ZM114.5 114.42l.07-.22-.07.22ZM112.53 118.23l.15-.2ZM107.9 121.57h.22ZM107.46 121.63ZM106.55 121.57h.09ZM108.36 121.46l.38-.13ZM110.62 120.22l-.18.13c.18-.13.36-.28.53-.43l-.17.15ZM109 121.22a5.84 5.84 0 0 0 .61-.31 4.59 4.59 0 0 1-.49.26ZM112.08 118.79a2.43 2.43 0 0 0 .2-.25 2.43 2.43 0 0 1-.2.25Z" style="fill:none"/><path d="m104 129.07-.43.54 4.14 2.4-.87-3.23a7.93 7.93 0 0 1-2.84.29ZM120.39 105.29l3.24-.89-4.15-2.4-.28.72a7.68 7.68 0 0 1 1.19 2.57ZM114.9 110.86c0-.13 0-.26-.06-.38a1.46 1.46 0 0 0 0-.2c0-.11-.05-.21-.08-.31a1.08 1.08 0 0 0-.08-.19 2.15 2.15 0 0 0-.1-.27l-.1-.18a1.71 1.71 0 0 0-.13-.23 1.67 1.67 0 0 0-.12-.16l-.14-.19-.15-.14s-.1-.11-.16-.16l-.16-.11a3.31 3.31 0 0 0-3.27-.1 5.74 5.74 0 0 1 0 .74v.59a1.23 1.23 0 0 0 0 .19v.38c0 .12-.05.29-.07.43l-.06.29a2.29 2.29 0 0 1-.07.28c0 .13-.06.25-.1.38a1.87 1.87 0 0 1-.07.22c0 .15-.09.29-.14.43l-.06.18-.24.59v.06c-.08.18-.16.35-.25.52a1.3 1.3 0 0 1-.08.17c-.08.16-.17.32-.26.48v.09c-.11.19-.22.37-.34.55s-.07.1-.1.16l-.27.38-.15.2-.24.31-.21.26-.21.23c-.11.13-.23.26-.35.38l-.23.23-.18.16c-.1.1-.2.18-.3.27l-.18.15-.34.25-.16.12q-.26.18-.51.33l-.49.25-.13.06h-.11a3.4 3.4 0 0 0 1.54 2.7 1.5 1.5 0 0 0 .34.16h.08l.29.08h.08a2.57 2.57 0 0 0 .4 0h.58l.28-.05h.22l.24-.07.37-.13.26-.11h.12a4.59 4.59 0 0 0 .49-.26c.18-.1.35-.21.51-.32l.17-.12.15-.12.18-.13.18-.15.17-.15.14-.12.18-.17.23-.22.35-.38.21-.24a2.43 2.43 0 0 0 .2-.25 3.76 3.76 0 0 0 .25-.31l.15-.2.26-.39.11-.15c.11-.18.23-.36.33-.55l.06-.1c.09-.15.17-.31.26-.48s0-.1.08-.16.17-.34.24-.52v-.07c.09-.19.17-.39.24-.58a1.34 1.34 0 0 1 .07-.18c0-.14.09-.29.14-.43l.07-.22c0-.13.07-.26.1-.38 0-.1 0-.19.07-.28a2.93 2.93 0 0 0 .05-.29c0-.14.06-.29.08-.43v-.38a1.37 1.37 0 0 0 0-.19v-.59a6.13 6.13 0 0 0 0-.62ZM96.6 124.82l-1.04.28-.45-.26-1.4 3.58 4.6 2.68 1.69-4.31-3.4-1.97zM111.76 98.44l3.45 2 2.9-3.62-4.61-2.68-2.46 3.08.46.27.26.95z" style="fill:#e0e0e0"/><path d="m98.81 124.22-2.21.6 3.39 2a7.52 7.52 0 0 1-1.18-2.6ZM112.37 100.72a8.31 8.31 0 0 1 1.91-.3h.1a2.67 2.67 0 0 1 .4 0h.43l-3.45-2ZM98.91 117.21c.06-.27.13-.53.2-.8 0-.14.07-.27.11-.4.21-.73.45-1.46.74-2.19l-4.61-2.68-.08.21-.12.33-.21.59v.12c0 .04-.06.19-.09.29s-.14.43-.2.65l-.06.18v.22c-.07.27-.14.53-.2.8a2.1 2.1 0 0 1-.06.24l-.06.31 4.61 2.68c-.06-.19-.01-.37.03-.55ZM103.92 107c.39-.49.79-.95 1.21-1.4l.12-.14.47-.48.19-.19c.27-.27.55-.53.84-.79l-4.61-2.67q-.42.38-.84.78a.27.27 0 0 1-.08.07l-.38.4-.2.2-.64.71-.68.82ZM98.79 117.76l-4.61-2.68-3.24 2.85 4.61 2.68 3.24-2.85zM95.55 120.61l-4.61-2.68.01 4.49 4.16 2.42.45.26-.01-4.49zM107.6 99.75l-4.61-2.68-.85 4.22 4.61 2.67.85-4.21z" style="fill:#e0e0e0"/><path style="fill:#e0e0e0" d="m111.5 97.49-.46-.27-4.14-2.41-3.91 2.26 4.61 2.68 3.9-2.26zM98.26 111.46l-4.61-2.68 1.7 2.36 4.61 2.68-1.7-2.36zM103.92 106.95l-4.61-2.67-2.9-.27 4.6 2.68 2.91.26z"/><path d="m104 129.07-.43.54 4.14 2.4-.87-3.23a7.93 7.93 0 0 1-2.84.29ZM120.39 105.29l3.24-.89-4.15-2.4-.28.72a7.68 7.68 0 0 1 1.19 2.57ZM114.9 110.86c0-.13 0-.26-.06-.38a1.46 1.46 0 0 0 0-.2c0-.11-.05-.21-.08-.31a1.08 1.08 0 0 0-.08-.19 2.15 2.15 0 0 0-.1-.27l-.1-.18a1.71 1.71 0 0 0-.13-.23 1.67 1.67 0 0 0-.12-.16l-.14-.19-.15-.14s-.1-.11-.16-.16l-.16-.11a3.31 3.31 0 0 0-3.27-.1 5.74 5.74 0 0 1 0 .74v.59a1.23 1.23 0 0 0 0 .19v.38c0 .12-.05.29-.07.43l-.06.29a2.29 2.29 0 0 1-.07.28c0 .13-.06.25-.1.38a1.87 1.87 0 0 1-.07.22c0 .15-.09.29-.14.43l-.06.18-.24.59v.06c-.08.18-.16.35-.25.52a1.3 1.3 0 0 1-.08.17c-.08.16-.17.32-.26.48v.09c-.11.19-.22.37-.34.55s-.07.1-.1.16l-.27.38-.15.2-.24.31-.21.26-.21.23c-.11.13-.23.26-.35.38l-.23.23-.18.16c-.1.1-.2.18-.3.27l-.18.15-.34.25-.16.12q-.26.18-.51.33l-.49.25-.13.06h-.11a3.4 3.4 0 0 0 1.54 2.7 1.5 1.5 0 0 0 .34.16h.08l.29.08h.08a2.57 2.57 0 0 0 .4 0h.58l.28-.05h.22l.24-.07.37-.13.26-.11h.12a4.59 4.59 0 0 0 .49-.26c.18-.1.35-.21.51-.32l.17-.12.15-.12.18-.13.18-.15.17-.15.14-.12.18-.17.23-.22.35-.38.21-.24a2.43 2.43 0 0 0 .2-.25 3.76 3.76 0 0 0 .25-.31l.15-.2.26-.39.11-.15c.11-.18.23-.36.33-.55l.06-.1c.09-.15.17-.31.26-.48s0-.1.08-.16.17-.34.24-.52v-.07c.09-.19.17-.39.24-.58a1.34 1.34 0 0 1 .07-.18c0-.14.09-.29.14-.43l.07-.22c0-.13.07-.26.1-.38 0-.1 0-.19.07-.28a2.93 2.93 0 0 0 .05-.29c0-.14.06-.29.08-.43v-.38a1.37 1.37 0 0 0 0-.19v-.59a6.13 6.13 0 0 0 0-.62ZM96.6 124.82l-1.04.28-.45-.26-1.4 3.58 4.6 2.68 1.69-4.31-3.4-1.97z" style="opacity:.2"/><path d="m98.81 124.22-2.21.6 3.39 2a7.52 7.52 0 0 1-1.18-2.6ZM112.37 100.72a8.31 8.31 0 0 1 1.91-.3h.1a2.67 2.67 0 0 1 .4 0h.43l-3.45-2ZM98.91 117.21c.06-.27.13-.53.2-.8 0-.14.07-.27.11-.4.21-.73.45-1.46.74-2.19l-4.61-2.68-.08.21-.12.33-.21.59v.12c0 .04-.06.19-.09.29s-.14.43-.2.65l-.06.18v.22c-.07.27-.14.53-.2.8a2.1 2.1 0 0 1-.06.24l-.06.31 4.61 2.68c-.06-.19-.01-.37.03-.55ZM95.55 120.61l-4.61-2.68.01 4.49 4.16 2.42.45.26-.01-4.49zM107.6 99.75l-4.61-2.68-.85 4.22 4.61 2.67.85-4.21zM98.26 111.46l-4.61-2.68 1.7 2.36 4.61 2.68-1.7-2.36zM103.92 106.95l-4.61-2.67-2.9-.27 4.6 2.68 2.91.26z" style="opacity:.2"/><path style="fill:#e0e0e0" d="m101.01 106.69-4.6-2.68-2.76 4.77 4.61 2.68 2.75-4.77z"/><path style="fill:#fff;opacity:.2" d="m111.76 98.44 3.45 2 2.9-3.62-4.61-2.68-2.46 3.08.46.27.26.95zM103.92 107c.39-.49.79-.95 1.21-1.4l.12-.14.47-.48.19-.19c.27-.27.55-.53.84-.79l-4.61-2.67q-.42.38-.84.78a.27.27 0 0 1-.08.07l-.38.4-.2.2-.64.71-.68.82ZM98.79 117.76l-4.61-2.68-3.24 2.85 4.61 2.68 3.24-2.85z"/><path style="fill:#fff;opacity:.2" d="m111.5 97.49-.46-.27-4.14-2.41-3.91 2.26 4.61 2.68 3.9-2.26zM101.01 106.69l-4.6-2.68-2.76 4.77 4.61 2.68 2.75-4.77z"/><path d="m120.4 111.75 3.24-2.86v-4.49l-3.24.89a7.68 7.68 0 0 0-1.19-2.58l.28-.72 1.4-3.59-2.77-1.58-2.9 3.62h-.43a2.67 2.67 0 0 0-.4 0h-.1a8.31 8.31 0 0 0-1.91.3l-.61-2.28-.25-1-3.91 2.26-.85 4.21c-.29.26-.57.52-.84.79l-.19.19-.47.48-.12.14c-.42.45-.82.91-1.21 1.4l-2.91-.27-2.75 4.77 1.7 2.36c-.29.73-.53 1.46-.74 2.19 0 .13-.08.27-.11.4s-.14.53-.2.8-.09.36-.12.55l-3.24 2.85v4.49l1-.28 2.21-.6a7.52 7.52 0 0 0 1.18 2.57l-1.68 4.31 2.78 1.58 2.46-3.07.43-.54a7.93 7.93 0 0 0 2.84-.29l.87 3.23 3.91-2.25.84-4.22a22.38 22.38 0 0 0 2.83-3l2.91.26 2.75-4.77-1.69-2.36a23.11 23.11 0 0 0 1.2-3.89Zm-5.49.69v.38c0 .13-.05.29-.08.43a2.93 2.93 0 0 1-.05.29c0 .09 0 .18-.07.28s-.07.25-.1.38l-.07.22c0 .14-.09.29-.14.43a1.34 1.34 0 0 0-.07.18c-.07.19-.15.39-.24.58v.07c-.07.18-.16.35-.24.52s-.06.11-.08.16-.17.33-.26.48l-.06.1c-.1.19-.22.37-.33.55l-.11.15-.26.39-.15.2a3.76 3.76 0 0 1-.25.31 2.43 2.43 0 0 1-.2.25l-.21.24-.35.38-.23.22-.18.17-.14.12c-.17.15-.35.3-.53.43l-.15.12-.17.12c-.16.11-.33.22-.51.32a5.84 5.84 0 0 1-.61.31l-.26.11-.38.13-.24.07h-.22l-.28.05H107a2.57 2.57 0 0 1-.4 0h-.09l-.29-.08h-.1a1.5 1.5 0 0 1-.34-.16 3.4 3.4 0 0 1-1.54-2.7 5.87 5.87 0 0 1 0-.74 11.8 11.8 0 0 1 5.35-9.26 5.94 5.94 0 0 1 .72-.35 3.31 3.31 0 0 1 3.27.1l.16.11c.06 0 .11.11.16.16l.15.14.14.19a1.67 1.67 0 0 1 .12.16 1.71 1.71 0 0 1 .13.23l.1.18a2.15 2.15 0 0 1 .1.27 1.08 1.08 0 0 1 .08.19c0 .1.05.2.08.31a1.46 1.46 0 0 1 0 .2c0 .12 0 .25.06.38v.18a6.13 6.13 0 0 1 0 .62 7.11 7.11 0 0 1 .05.73Z" style="fill:#e0e0e0"/><path d="m434.85 230.82.16.15ZM440.9 229.8a4.64 4.64 0 0 1-.44-.23 4.34 4.34 0 0 1-.46-.28l-.14-.11-.3-.23-.17-.13-.27-.24-.16-.15-.2-.2-.32-.34-.18-.21-.19-.22-.21-.28-.14-.18-.23-.34-.1-.14-.3-.49a.41.41 0 0 0 0-.09l-.23-.43s-.05-.09-.07-.14-.15-.31-.22-.47v-.06l-.21-.52a1 1 0 0 1 0-.16c-.05-.13-.09-.26-.13-.38l-.06-.2c0-.11-.07-.23-.1-.34l-.06-.25c0-.08 0-.17-.05-.26l-.06-.38v-.34a1.11 1.11 0 0 1 0-.17v-1.19c.21.09.43.19.65.31a10.53 10.53 0 0 1 4.77 8.27v.66h-.1ZM432.53 221l-.13.13ZM439.73 232.31ZM435.75 231.57l.14.11ZM432.82 220.74l-.15.1ZM431.72 222.47v.18c0 .06-.01-.12 0-.18ZM431.63 223v.16ZM432 221.62c0 .06-.06.11-.08.16s.08-.1.08-.16ZM431.86 222c0 .06-.05.11-.07.17s.05-.09.07-.17ZM432.27 221.28a.76.76 0 0 0-.11.14.76.76 0 0 1 .11-.14ZM431.74 213.67ZM440.35 218.26l-.11-.13ZM434.33 230.28c.1.12.21.23.32.34-.11-.11-.22-.22-.32-.34ZM432.18 213.67ZM432.11 226.55l.06.16ZM445.73 227.94c0-.12-.07-.23-.1-.35.03.12.06.23.1.35ZM439.83 217.71l-.18-.17ZM446 229.15c0-.17-.07-.33-.11-.49.05.16.11.34.11.49ZM438.64 232.61ZM433.37 229.05l-.09-.14ZM433 228.42l-.05-.09ZM439.43 232.45h-.09ZM432.7 227.9a.61.61 0 0 1-.07-.14.91.91 0 0 0 .07.14ZM431.83 225.63l-.06-.25ZM431.61 224.4a5.54 5.54 0 0 1 0-.7 3.17 3.17 0 0 0 0 .53c-.01.05 0 .11 0 .17ZM432.41 227.3v-.07ZM431.72 225.12c0-.13-.05-.25-.07-.38.02.13.05.26.07.38ZM432 226.17l-.06-.2.06.2ZM433.74 229.57l-.13-.18ZM437.87 232.55h-.19ZM438.27 232.61h-.15ZM439.08 232.55H439ZM437.47 232.45l-.34-.11ZM435.44 231.34l.16.12-.47-.38.15.13ZM436.89 232.24a5.72 5.72 0 0 1-.55-.28c.15.09.3.16.44.23ZM434.15 230.07c-.07-.07-.13-.15-.19-.22.04.07.12.15.19.22Z" style="fill:none"/><path d="m441.37 239.25.39.48-3.7 2.14.78-2.88a7.09 7.09 0 0 0 2.53.26ZM426.73 218l-2.9-.79 3.7-2.15.26.65a6.92 6.92 0 0 0-1.06 2.29ZM431.63 223a1.86 1.86 0 0 1 .05-.34v-.18a2.86 2.86 0 0 0 .07-.28c0-.06 0-.11.07-.17a2.44 2.44 0 0 1 .1-.24c0-.05.06-.1.08-.16l.12-.2a.76.76 0 0 1 .11-.14 1.09 1.09 0 0 1 .13-.17l.13-.13.14-.14.15-.1a2.93 2.93 0 0 1 2.91-.09v1.19a1.11 1.11 0 0 0 0 .17v.34l.06.38c0 .09 0 .18.05.26l.06.25c0 .11.06.23.1.34l.06.2c0 .12.08.25.13.38a1 1 0 0 0 0 .16l.21.52v.06c.07.16.14.31.22.47s.05.09.07.14l.23.43a.41.41 0 0 1 0 .09l.3.49.1.14.23.34.14.18.21.28.19.22.18.21.32.34.2.2.16.15.27.24.17.13.3.23.14.11a4.34 4.34 0 0 0 .46.28 4.64 4.64 0 0 0 .44.23H440.9a3 3 0 0 1-1.38 2.41l-.3.14h-.08l-.26.07h-.07a2.09 2.09 0 0 1-.36 0h-.95a1.66 1.66 0 0 1-.21-.06l-.34-.11-.24-.1-.11-.05c-.14-.07-.29-.14-.44-.23s-.3-.18-.45-.28l-.14-.11-.15-.11-.16-.12-.16-.13-.15-.13h.05l-.16-.15a1.89 1.89 0 0 1-.2-.2c-.11-.11-.22-.22-.32-.34l-.18-.21c-.07-.07-.13-.15-.19-.22l-.22-.28-.13-.18-.24-.34-.09-.14-.3-.49-.05-.09c-.08-.14-.16-.28-.23-.43a.91.91 0 0 1-.07-.14c-.08-.15-.15-.31-.22-.46v-.07c-.08-.17-.15-.35-.21-.52l-.06-.16c0-.13-.09-.25-.13-.38l-.06-.2-.09-.34-.06-.25v-.26c0-.13-.05-.25-.07-.38v-.51a3.17 3.17 0 0 1 0-.53 5 5 0 0 1 0-.55ZM447.96 235.45l.93.26.41-.24 1.25 3.2-4.12 2.39-1.5-3.85 3.03-1.76zM434.43 211.9l-3.08 1.79-2.59-3.24 4.12-2.39 2.19 2.75-.41.24-.23.85z" style="fill:#e0e0e0"/><path d="m446 234.92 2 .53-3 1.76a6.54 6.54 0 0 0 1-2.29ZM433.88 213.94a7.06 7.06 0 0 0-1.7-.27h-.83l3.08-1.79ZM445.9 228.66c0-.24-.11-.48-.17-.72 0-.12-.07-.23-.1-.35-.19-.66-.41-1.31-.66-2l4.11-2.39.07.18.11.3.18.52.05.12.07.25c.06.2.13.39.18.59a.75.75 0 0 1 .05.16v.19c.06.24.12.48.17.72l.06.21a2.33 2.33 0 0 1 .05.28l-4.07 2.43c0-.15-.06-.33-.1-.49ZM441.43 219.5c-.35-.43-.71-.85-1.08-1.24l-.11-.13-.41-.42-.18-.17c-.24-.25-.49-.48-.75-.71l4.11-2.39.76.7.07.07.33.35.18.18q.3.31.57.63c.21.24.41.48.61.73ZM446.01 229.15l4.11-2.39 2.89 2.55-4.11 2.38-2.89-2.54z" style="fill:#e0e0e0"/><path style="fill:#e0e0e0" d="m448.9 231.69 4.11-2.38-.01 4-3.7 2.16-.41.24.01-4.02zM438.15 213.07l4.11-2.39.75 3.76-4.11 2.39-.75-3.76z"/><path style="fill:#e0e0e0" d="m434.66 211.05.41-.24 3.7-2.15 3.49 2.02-4.11 2.39-3.49-2.02zM446.48 223.53l4.12-2.39-1.52 2.1-4.11 2.39 1.51-2.1zM441.43 219.5l4.11-2.39 2.6-.24-4.12 2.39-2.59.24z"/><path style="fill:#e0e0e0" d="m444.02 219.26 4.12-2.39 2.46 4.27-4.12 2.39-2.46-4.27z"/><path d="m427.75 227.29-1.51 2.11 2.46 4.26 2.6-.23a19.34 19.34 0 0 0 2.52 2.66l.75 3.77 3.49 2 .78-2.88a7.09 7.09 0 0 0 2.53.26l.39.48 2.2 2.74 2.47-1.41-1.5-3.85a6.54 6.54 0 0 0 1.06-2.29l2 .53.93.26v-4l-2.92-2.55c0-.17-.07-.33-.11-.49s-.11-.48-.17-.72-.07-.23-.1-.35c-.19-.66-.41-1.31-.66-2l1.51-2.1-2.47-4.23-2.59.24c-.35-.43-.71-.85-1.08-1.24l-.11-.13-.41-.42-.18-.17c-.24-.25-.49-.48-.75-.71l-.75-3.76-3.49-2-.23.85-.55 2a7.06 7.06 0 0 0-1.7-.27h-.83l-2.59-3.24-2.47 1.42 1.24 3.2.26.65a6.92 6.92 0 0 0-1.06 2.29l-2.9-.79v4l2.89 2.55a20.93 20.93 0 0 0 1.05 3.56Zm3.83-3.59a5 5 0 0 1 0-.55v-.16a1.86 1.86 0 0 1 .05-.34v-.18a2.86 2.86 0 0 0 .07-.28c0-.06 0-.11.07-.17a2.44 2.44 0 0 1 .1-.24c0-.05.06-.1.08-.16l.12-.2a.76.76 0 0 1 .11-.14 1.09 1.09 0 0 1 .13-.17l.13-.13.14-.14.15-.1a2.93 2.93 0 0 1 2.91-.09c.21.09.43.19.65.31a10.53 10.53 0 0 1 4.77 8.27v.66a3 3 0 0 1-1.38 2.41l-.3.14h-.09l-.26.07h-.08a2.09 2.09 0 0 1-.36 0h-.96a1.66 1.66 0 0 1-.21-.06l-.34-.11-.24-.1a5.72 5.72 0 0 1-.55-.28c-.15-.08-.3-.18-.45-.28l-.14-.11-.15-.11-.47-.38-.08-.08-.16-.15a1.89 1.89 0 0 1-.2-.2c-.11-.11-.22-.22-.32-.34l-.18-.21c-.07-.07-.13-.15-.19-.22l-.22-.28-.13-.18-.24-.34-.09-.14-.3-.49-.05-.09c-.08-.14-.16-.28-.23-.43a.61.61 0 0 1-.07-.14c-.08-.15-.15-.31-.22-.46v-.07c-.08-.17-.15-.35-.21-.52l-.06-.16c0-.13-.09-.25-.13-.38l-.06-.2-.09-.34-.06-.25v-.26c0-.09-.05-.25-.07-.38s0-.23 0-.34a5.54 5.54 0 0 1-.14-.73Z" style="fill:#e0e0e0"/><path d="m441.37 239.25.39.48-3.7 2.14.78-2.88a7.09 7.09 0 0 0 2.53.26ZM426.73 218l-2.9-.79 3.7-2.15.26.65a6.92 6.92 0 0 0-1.06 2.29ZM431.63 223a1.86 1.86 0 0 1 .05-.34v-.18a2.86 2.86 0 0 0 .07-.28c0-.06 0-.11.07-.17a2.44 2.44 0 0 1 .1-.24c0-.05.06-.1.08-.16l.12-.2a.76.76 0 0 1 .11-.14 1.09 1.09 0 0 1 .13-.17l.13-.13.14-.14.15-.1a2.93 2.93 0 0 1 2.91-.09v1.19a1.11 1.11 0 0 0 0 .17v.34l.06.38c0 .09 0 .18.05.26l.06.25c0 .11.06.23.1.34l.06.2c0 .12.08.25.13.38a1 1 0 0 0 0 .16l.21.52v.06c.07.16.14.31.22.47s.05.09.07.14l.23.43a.41.41 0 0 1 0 .09l.3.49.1.14.23.34.14.18.21.28.19.22.18.21.32.34.2.2.16.15.27.24.17.13.3.23.14.11a4.34 4.34 0 0 0 .46.28 4.64 4.64 0 0 0 .44.23H440.9a3 3 0 0 1-1.38 2.41l-.3.14h-.08l-.26.07h-.07a2.09 2.09 0 0 1-.36 0h-.95a1.66 1.66 0 0 1-.21-.06l-.34-.11-.24-.1-.11-.05c-.14-.07-.29-.14-.44-.23s-.3-.18-.45-.28l-.14-.11-.15-.11-.16-.12-.16-.13-.15-.13h.05l-.16-.15a1.89 1.89 0 0 1-.2-.2c-.11-.11-.22-.22-.32-.34l-.18-.21c-.07-.07-.13-.15-.19-.22l-.22-.28-.13-.18-.24-.34-.09-.14-.3-.49-.05-.09c-.08-.14-.16-.28-.23-.43a.91.91 0 0 1-.07-.14c-.08-.15-.15-.31-.22-.46v-.07c-.08-.17-.15-.35-.21-.52l-.06-.16c0-.13-.09-.25-.13-.38l-.06-.2-.09-.34-.06-.25v-.26c0-.13-.05-.25-.07-.38v-.51a3.17 3.17 0 0 1 0-.53 5 5 0 0 1 0-.55ZM447.96 235.45l.93.26.41-.24 1.25 3.2-4.12 2.39-1.5-3.85 3.03-1.76z" style="opacity:.2"/><path d="m446 234.92 2 .53-3 1.76a6.54 6.54 0 0 0 1-2.29ZM433.88 213.94a7.06 7.06 0 0 0-1.7-.27h-.83l3.08-1.79ZM445.9 228.66c0-.24-.11-.48-.17-.72 0-.12-.07-.23-.1-.35-.19-.66-.41-1.31-.66-2l4.11-2.39.07.18.11.3.18.52.05.12.07.25c.06.2.13.39.18.59a.75.75 0 0 1 .05.16v.19c.06.24.12.48.17.72l.06.21a2.33 2.33 0 0 1 .05.28l-4.07 2.43c0-.15-.06-.33-.1-.49ZM448.9 231.69l4.11-2.38-.01 4-3.7 2.16-.41.24.01-4.02zM438.15 213.07l4.11-2.39.75 3.76-4.11 2.39-.75-3.76z" style="opacity:.2"/><path style="opacity:.2" d="m446.48 223.53 4.12-2.39-1.52 2.1-4.11 2.39 1.51-2.1zM441.43 219.5l4.11-2.39 2.6-.24-4.12 2.39-2.59.24z"/><path style="fill:#fff;opacity:.2" d="m434.43 211.9-3.08 1.79-2.59-3.24 4.12-2.39 2.19 2.75-.41.24-.23.85zM441.43 219.5c-.35-.43-.71-.85-1.08-1.24l-.11-.13-.41-.42-.18-.17c-.24-.25-.49-.48-.75-.71l4.11-2.39.76.7.07.07.33.35.18.18q.3.31.57.63c.21.24.41.48.61.73ZM446.01 229.15l4.11-2.39 2.89 2.55-4.11 2.38-2.89-2.54z"/><path style="fill:#fff;opacity:.2" d="m434.66 211.05.41-.24 3.7-2.15 3.49 2.02-4.11 2.39-3.49-2.02zM444.02 219.26l4.12-2.39 2.46 4.27-4.12 2.39-2.46-4.27z"/><path d="m454.51 260.56.11.11ZM458.69 259.86l-.31-.16-.31-.2-.1-.07-.21-.16-.11-.09-.19-.17-.11-.1-.14-.14-.22-.24-.13-.14-.13-.16a1.33 1.33 0 0 1-.14-.19l-.1-.12-.16-.24-.07-.1c-.07-.11-.14-.22-.2-.33v-.06l-.16-.3-.05-.1-.15-.32-.15-.37v-.11a1.14 1.14 0 0 1-.09-.26.74.74 0 0 1 0-.14c0-.08-.05-.16-.07-.23s0-.12 0-.17V255a2 2 0 0 1-.05-.26v-1.18l.45.22a7.27 7.27 0 0 1 3.3 5.72 3.44 3.44 0 0 1 0 .46h-.06ZM452.9 253.76l-.09.08ZM457.88 261.59ZM455.12 261.08l.1.07ZM453.1 253.59l-.1.07ZM452.34 254.78v.13ZM452.27 255.14v.12-.12ZM452.56 254.2l-.06.11ZM452.44 254.47a.61.61 0 0 0-.05.12.61.61 0 0 1 .05-.12ZM452.72 254l-.08.1ZM452.35 248.69ZM458.31 251.87l-.08-.09ZM454.14 260.19l.22.23ZM452.66 248.7ZM452.61 257.61v.11c0 .04.01-.08 0-.11ZM462 258.57c0-.08 0-.16-.07-.25.07.09.07.17.07.25ZM458 251.49l-.12-.12ZM462.23 259.4c0-.11-.05-.22-.08-.33.03.11.05.22.08.33ZM457.13 261.8ZM453.48 259.33l-.06-.09ZM453.21 258.9v-.06ZM457.67 261.69h-.06.06ZM453 258.54a.31.31 0 0 1 0-.1.31.31 0 0 0 0 .1ZM452.42 257l-.05-.17a1 1 0 0 0 .05.17ZM452.27 256.12a4.12 4.12 0 0 1 0-.48v.36c0 .12-.01.08 0 .12ZM452.82 258.12ZM452.34 256.62v-.26a.46.46 0 0 0 0 .26ZM452.52 257.34v-.13.13ZM453.74 259.7l-.09-.13ZM456.6 261.76h-.14ZM456.87 261.8ZM457.43 261.76ZM456.32 261.69l-.24-.08ZM454.92 260.92l.11.09-.33-.27.1.09ZM455.92 261.54a2.25 2.25 0 0 1-.38-.19l.3.16ZM454 260l-.13-.15Z" style="fill:none"/><path d="m459 266.39.26.33-2.55 1.49.53-2a4.76 4.76 0 0 0 1.76.18ZM448.89 251.7l-2-.55 2.56-1.49.18.45a4.66 4.66 0 0 0-.74 1.59ZM452.27 255.14a1.57 1.57 0 0 1 0-.23v-.13c0-.06 0-.13.05-.19a.61.61 0 0 1 .05-.12l.06-.16.06-.11s.05-.1.08-.14l.08-.1.09-.12.09-.08a.47.47 0 0 1 .1-.1l.1-.07a2 2 0 0 1 2-.07V254.7a2 2 0 0 0 .05.26v.36c0 .06 0 .15.07.23a.74.74 0 0 0 0 .14 1.14 1.14 0 0 0 .09.26v.11l.15.37.15.32.05.1.16.3v.06c.06.11.13.22.2.33l.07.1.16.24.1.12a1.33 1.33 0 0 0 .14.19l.13.16.13.14.22.24.14.14.11.1.19.17.11.09.21.16.1.07.31.2.31.16h.14a2.09 2.09 0 0 1-.95 1.67l-.21.1h-.06l-.18.05h-.06a1 1 0 0 1-.24 0h-.81l-.24-.08-.16-.07h-.08l-.3-.16-.32-.2-.1-.07.19-.06-.11-.09-.12-.09-.1-.09-.08-.07-.11-.11-.15-.14-.22-.23-.11-.18-.13-.15-.15-.19-.09-.13-.17-.24-.06-.09-.21-.34v-.06c-.06-.1-.11-.2-.16-.3a.31.31 0 0 1 0-.1 1.87 1.87 0 0 1-.15-.32c-.06-.12-.1-.24-.15-.36s0-.08 0-.11l-.09-.27v-.13l-.06-.24a1 1 0 0 1 0-.17v-.44a1.94 1.94 0 0 1 0-.24v-.86c0-.12-.31-.08-.31-.12ZM463.58 263.76l.64.18.28-.16.86 2.21-2.84 1.65-1.04-2.66 2.1-1.22zM454.21 247.47l-2.13 1.24-1.79-2.24 2.85-1.65 1.52 1.9-.29.16-.16.59z" style="fill:#e0e0e0"/><path d="m462.21 263.39 1.37.38-2.1 1.21a4.57 4.57 0 0 0 .73-1.59ZM453.84 248.88a5.13 5.13 0 0 0-1.18-.18h-.58l2.13-1.24ZM462.15 259.07l-.12-.5c0-.08 0-.16-.07-.25-.13-.45-.28-.9-.46-1.35l2.85-1.65a.61.61 0 0 0 0 .12l.07.21c0 .12.09.24.13.36v.08c0 .06 0 .12.05.18s.09.27.13.4v.25c.05.16.09.33.13.49v.15a1.29 1.29 0 0 1 0 .19l-2.84 1.65c.18-.11.16-.22.13-.33ZM459.06 252.73c-.24-.3-.49-.59-.75-.86l-.08-.09-.28-.29-.12-.12-.52-.49 2.84-1.65.52.49h.05l.24.24.12.13c.13.14.27.29.39.44l.42.51ZM462.23 259.4l2.84-1.65 2 1.76-2.84 1.66-2-1.77z" style="fill:#e0e0e0"/><path style="fill:#e0e0e0" d="m464.23 261.17 2.84-1.66-.01 2.78-2.56 1.49-.28.16.01-2.77zM456.79 248.28l2.84-1.65.52 2.6-2.84 1.65-.52-2.6z"/><path style="fill:#e0e0e0" d="m454.37 246.88.29-.16 2.56-1.49 2.41 1.4-2.84 1.65-2.42-1.4zM462.55 255.51l2.85-1.65-1.05 1.46-2.85 1.65 1.05-1.46zM459.06 252.73l2.84-1.65 1.8-.17-2.85 1.66-1.79.16z"/><path style="fill:#e0e0e0" d="m460.85 252.57 2.85-1.66 1.7 2.95-2.85 1.65-1.7-2.94z"/><path d="m449.6 258.12-1.05 1.46 1.7 2.95 1.8-.17a13.34 13.34 0 0 0 1.74 1.85l.52 2.6 2.42 1.4.53-2a4.76 4.76 0 0 0 1.76.18l.26.33 1.53 1.9 1.71-1-1-2.66a4.57 4.57 0 0 0 .73-1.59l1.37.38.64.17v-2.77l-2-1.77c0-.11-.05-.22-.08-.33l-.12-.5c0-.08 0-.16-.07-.25-.13-.45-.28-.9-.46-1.35l1.05-1.46-1.7-2.94-1.79.16c-.24-.3-.49-.59-.75-.86l-.08-.09-.28-.29-.12-.12-.52-.49-.52-2.6-2.42-1.4-.16.59-.37 1.41a5.13 5.13 0 0 0-1.18-.18h-.58l-1.79-2.24-1.71 1 .86 2.21.18.45a4.66 4.66 0 0 0-.73 1.59l-2-.55v2.78l2 1.76a14.67 14.67 0 0 0 .68 2.44Zm2.64-2.48v-.5a1.57 1.57 0 0 1 0-.23v-.13c0-.06 0-.13.05-.19a.61.61 0 0 1 .05-.12l.06-.16.06-.11s.05-.1.08-.14l.08-.1.09-.12.09-.08a.47.47 0 0 1 .1-.1l.1-.07a2 2 0 0 1 2-.07l.45.22a7.27 7.27 0 0 1 3.3 5.72 3.44 3.44 0 0 1 0 .46 2.09 2.09 0 0 1-.95 1.67l-.21.1h-.06l-.18.05h-.06a1 1 0 0 1-.24 0h-.81l-.24-.08-.16-.07a2.25 2.25 0 0 1-.38-.19l-.32-.2-.1-.07-.04-.13-.33-.27-.08-.07-.11-.11-.15-.14-.22-.23-.11-.18-.13-.15-.15-.19-.09-.13-.17-.24-.06-.09-.21-.34v-.06c-.06-.1-.11-.2-.16-.3a.31.31 0 0 1 0-.1 1.87 1.87 0 0 1-.15-.32c-.06-.12-.1-.24-.15-.36s0-.08 0-.11l-.09-.27v-.13l-.06-.24-.05-.17v-.44a1.94 1.94 0 0 1 0-.24 4.12 4.12 0 0 1-.29-.48Z" style="fill:#e0e0e0"/><path d="m459 266.39.26.33-2.55 1.49.53-2a4.76 4.76 0 0 0 1.76.18ZM448.89 251.7l-2-.55 2.56-1.49.18.45a4.66 4.66 0 0 0-.74 1.59ZM452.27 255.14a1.57 1.57 0 0 1 0-.23v-.13c0-.06 0-.13.05-.19a.61.61 0 0 1 .05-.12l.06-.16.06-.11s.05-.1.08-.14l.08-.1.09-.12.09-.08a.47.47 0 0 1 .1-.1l.1-.07a2 2 0 0 1 2-.07V254.7a2 2 0 0 0 .05.26v.36c0 .06 0 .15.07.23a.74.74 0 0 0 0 .14 1.14 1.14 0 0 0 .09.26v.11l.15.37.15.32.05.1.16.3v.06c.06.11.13.22.2.33l.07.1.16.24.1.12a1.33 1.33 0 0 0 .14.19l.13.16.13.14.22.24.14.14.11.1.19.17.11.09.21.16.1.07.31.2.31.16h.14a2.09 2.09 0 0 1-.95 1.67l-.21.1h-.06l-.18.05h-.06a1 1 0 0 1-.24 0h-.81l-.24-.08-.16-.07h-.08l-.3-.16-.32-.2-.1-.07.19-.06-.11-.09-.12-.09-.1-.09-.08-.07-.11-.11-.15-.14-.22-.23-.11-.18-.13-.15-.15-.19-.09-.13-.17-.24-.06-.09-.21-.34v-.06c-.06-.1-.11-.2-.16-.3a.31.31 0 0 1 0-.1 1.87 1.87 0 0 1-.15-.32c-.06-.12-.1-.24-.15-.36s0-.08 0-.11l-.09-.27v-.13l-.06-.24a1 1 0 0 1 0-.17v-.44a1.94 1.94 0 0 1 0-.24v-.86c0-.12-.31-.08-.31-.12ZM463.58 263.76l.64.18.28-.16.86 2.21-2.84 1.65-1.04-2.66 2.1-1.22z" style="opacity:.2"/><path d="m462.21 263.39 1.37.38-2.1 1.21a4.57 4.57 0 0 0 .73-1.59ZM453.84 248.88a5.13 5.13 0 0 0-1.18-.18h-.58l2.13-1.24ZM462.15 259.07l-.12-.5c0-.08 0-.16-.07-.25-.13-.45-.28-.9-.46-1.35l2.85-1.65a.61.61 0 0 0 0 .12l.07.21c0 .12.09.24.13.36v.08c0 .06 0 .12.05.18s.09.27.13.4v.25c.05.16.09.33.13.49v.15a1.29 1.29 0 0 1 0 .19l-2.84 1.65c.18-.11.16-.22.13-.33ZM464.23 261.17l2.84-1.66-.01 2.78-2.56 1.49-.28.16.01-2.77zM456.79 248.28l2.84-1.65.52 2.6-2.84 1.65-.52-2.6z" style="opacity:.2"/><path style="opacity:.2" d="m462.55 255.51 2.85-1.65-1.05 1.46-2.85 1.65 1.05-1.46zM459.06 252.73l2.84-1.65 1.8-.17-2.85 1.66-1.79.16z"/><path style="fill:#fff;opacity:.2" d="m454.21 247.47-2.13 1.24-1.79-2.24 2.85-1.65 1.52 1.9-.29.16-.16.59zM459.06 252.73c-.24-.3-.49-.59-.75-.86l-.08-.09-.28-.29-.12-.12-.52-.49 2.84-1.65.52.49h.05l.24.24.12.13c.13.14.27.29.39.44l.42.51ZM462.23 259.4l2.84-1.65 2 1.76-2.84 1.66-2-1.77z"/><path style="fill:#fff;opacity:.2" d="m454.37 246.88.29-.16 2.56-1.49 2.41 1.4-2.84 1.65-2.42-1.4zM460.85 252.57l2.85-1.66 1.7 2.95-2.85 1.65-1.7-2.94z"/><path d="m431.56 258 .09.08ZM435 257.36l-.25-.13-.26-.17-.08-.06a1.09 1.09 0 0 1-.17-.13.39.39 0 0 1-.1-.08l-.15-.13-.1-.09a1.14 1.14 0 0 1-.11-.11l-.19-.2-.1-.12-.11-.13-.12-.16-.08-.1-.13-.2-.06-.08a2.61 2.61 0 0 1-.17-.28v-.05l-.13-.24v-.09l-.13-.26-.12-.3v-.09c0-.08-.05-.15-.07-.22a.56.56 0 0 1 0-.12c0-.06 0-.13-.05-.19v-.14a.8.8 0 0 1 0-.15 2.07 2.07 0 0 1 0-.22v-.2a.38.38 0 0 0 0-.1v-.3a2.34 2.34 0 0 1 0-.38l.37.18a6.09 6.09 0 0 1 2.74 4.75 2.34 2.34 0 0 1 0 .38ZM430.22 252.29l-.07.07ZM434.37 258.8ZM432.08 258.38l.08.06ZM430.39 252.15l-.08.06ZM429.76 253.15a.3.3 0 0 0 0 .1.3.3 0 0 1 0-.1ZM429.71 253.44v.1c0 .03-.01-.06 0-.1ZM430 252.66a.41.41 0 0 0-.05.09.41.41 0 0 1 .05-.09ZM429.84 252.89v.1ZM430.08 252.46l-.07.08ZM429.77 248.09ZM434.72 250.72l-.06-.07ZM431.26 257.64l.18.19ZM430 248.09ZM430 255.49v.09ZM437.81 256.29l-.06-.2ZM434.42 250.41l-.1-.1ZM438 257c0-.09 0-.18-.06-.28-.01.08.06.17.06.28ZM433.74 259ZM430.71 256.93a.56.56 0 0 0 0-.08.56.56 0 0 1 0 .08ZM430.49 256.56v-.05ZM434.19 258.88h-.05ZM430.32 256.27a.2.2 0 0 0 0-.08.2.2 0 0 1 0 .08ZM429.83 255a.74.74 0 0 1 0-.14.74.74 0 0 0 0 .14ZM429.7 254.25v-.4.4ZM430.16 255.92ZM429.76 254.67v-.22c-.03.07-.01.15 0 .22ZM429.91 255.27v-.11.11ZM430.92 257.23l-.07-.11ZM433.3 258.94h-.12ZM433.52 259ZM434 258.94ZM433.06 258.88l-.19-.06ZM431.9 258.25l.09.07-.27-.23.09.08ZM432.73 258.76a3.07 3.07 0 0 1-.31-.16l.25.13ZM431.16 257.52l-.11-.13Z" style="fill:none"/><path d="m435.31 262.79.22.27-2.12 1.24.44-1.66a4.2 4.2 0 0 0 1.46.15ZM426.89 250.59l-1.66-.46 2.13-1.24.14.38a4 4 0 0 0-.61 1.32ZM429.71 253.44a1.25 1.25 0 0 1 0-.19.3.3 0 0 1 0-.1 1.24 1.24 0 0 0 0-.16v-.1l.06-.14a.41.41 0 0 1 .05-.09l.06-.12.07-.08a.61.61 0 0 1 .07-.1l.07-.07.09-.08.08-.06a1.73 1.73 0 0 1 1.68-.05 2.34 2.34 0 0 0 0 .38v.3a.38.38 0 0 1 0 .1v.2a2.07 2.07 0 0 0 0 .22.8.8 0 0 0 0 .15v.14c0 .06 0 .13.05.19a.56.56 0 0 0 0 .12c0 .07 0 .14.07.22v.09l.12.3.13.26v.09l.13.24v.05a2.61 2.61 0 0 0 .17.28l.06.08.13.2.08.1.12.16.11.13.1.12.19.2a1.14 1.14 0 0 0 .11.11l.1.09.15.13a.39.39 0 0 0 .1.08 1.09 1.09 0 0 0 .17.13l.08.06.26.17.25.13h.07a1.75 1.75 0 0 1-.78 1.39l-.18.08H432.66l-.19-.06-.14-.06h-.06l-.25-.13a2.26 2.26 0 0 1-.26-.16l-.08-.06-.09-.06-.09-.07-.09-.08-.09-.08-.07-.06-.09-.08-.12-.12-.18-.19-.1-.12-.11-.13a1 1 0 0 0-.13-.16l-.07-.11-.14-.19a.56.56 0 0 0 0-.08c-.06-.1-.12-.19-.17-.29v-.05l-.14-.24a.2.2 0 0 0 0-.08l-.12-.27-.12-.3v-.09c0-.07-.05-.15-.08-.22v-.11a1.46 1.46 0 0 1-.05-.2.74.74 0 0 1 0-.14v-1.28c0-.1.07-.04.08-.08ZM439.1 260.61l.53.14.23-.13.72 1.84-2.36 1.37-.87-2.21 1.75-1.01zM431.32 247.07l-1.77 1.03-1.49-1.86 2.37-1.37 1.26 1.57-.24.15-.13.48z" style="fill:#e0e0e0"/><path d="m438 260.3 1.14.31-1.75 1a3.74 3.74 0 0 0 .61-1.31ZM431 248.24a4.24 4.24 0 0 0-1-.15h-.48l1.77-1ZM437.91 256.7c0-.13-.06-.27-.1-.41l-.06-.2a9.23 9.23 0 0 0-.38-1.12l2.37-1.38a.3.3 0 0 0 0 .1l.06.18.11.3a.14.14 0 0 0 0 .06.83.83 0 0 1 0 .15c0 .11.08.22.11.33V254.92c0 .04.07.27.1.41a.53.53 0 0 1 0 .12.94.94 0 0 1 0 .16L438 257c0-.11-.07-.2-.09-.3ZM435.34 251.44c-.2-.25-.41-.49-.62-.72l-.06-.07-.24-.24-.1-.1-.43-.4 2.36-1.38c.15.13.29.27.43.41.07.07.13.14.2.2l.1.11.33.36.34.42Z" style="fill:#e0e0e0"/><path style="fill:#e0e0e0" d="m437.97 256.98 2.37-1.37 1.66 1.46-2.37 1.38-1.66-1.47z"/><path style="fill:#e0e0e0" d="m439.63 258.45 2.37-1.38-.01 2.31-2.13 1.24-.23.13v-2.3zM433.45 247.74l2.37-1.37.43 2.16-2.36 1.38-.44-2.17z"/><path style="fill:#e0e0e0" d="m431.45 246.59.24-.15 2.12-1.23 2.01 1.16-2.37 1.37-2-1.15zM438.25 253.75l2.36-1.37-.87 1.21-2.37 1.38.88-1.22zM435.34 251.44l2.36-1.37 1.49-.14-2.36 1.38-1.49.13z"/><path style="fill:#e0e0e0" d="m436.83 251.31 2.36-1.38 1.42 2.45-2.36 1.37-1.42-2.44z"/><path d="m427.48 255.92-.87 1.21 1.42 2.45 1.49-.14A11.82 11.82 0 0 0 431 261l.43 2.16 2 1.16.44-1.66a4.2 4.2 0 0 0 1.46.15l.22.27 1.26 1.58 1.43-.81-.87-2.21a3.74 3.74 0 0 0 .61-1.32l1.14.31.53.14v-2.3L438 257c0-.09 0-.18-.06-.28s-.06-.27-.1-.41l-.06-.2a9.23 9.23 0 0 0-.38-1.12l.88-1.22-1.42-2.45-1.49.14c-.2-.25-.41-.49-.62-.72l-.06-.07-.24-.24-.1-.1-.43-.4-.44-2.17-2-1.16-.13.49-.32 1.17a4.24 4.24 0 0 0-1-.15h-.48l-1.49-1.86-1.42.81.72 1.84.14.38a4 4 0 0 0-.61 1.32l-1.66-.46v2.3l1.66 1.47a12.89 12.89 0 0 0 .59 2.01Zm2.2-2.07V253.44a1.25 1.25 0 0 1 0-.19.3.3 0 0 1 0-.1 1.24 1.24 0 0 0 0-.16v-.1l.06-.14a.41.41 0 0 1 .05-.09l.06-.12.07-.08a.61.61 0 0 1 .07-.1l.07-.07.09-.08.08-.06a1.73 1.73 0 0 1 1.68-.05l.37.18a6.09 6.09 0 0 1 2.74 4.75 2.34 2.34 0 0 1 0 .38 1.75 1.75 0 0 1-.78 1.39l-.18.08h-1.13l-.19-.06-.14-.06a3.07 3.07 0 0 1-.31-.16 2.26 2.26 0 0 1-.26-.16l-.08-.06-.09-.06-.27-.23-.07-.06-.09-.08-.12-.12-.18-.19-.1-.12-.11-.13a1 1 0 0 0-.13-.16l-.07-.11-.14-.19a.56.56 0 0 0 0-.08c-.06-.1-.12-.19-.17-.29v-.05l-.14-.24a.2.2 0 0 0 0-.08l-.12-.27-.12-.3v-.09c0-.07-.05-.15-.08-.22v-.11a1.46 1.46 0 0 1-.05-.2.74.74 0 0 1 0-.14V254.29c0-.07-.22-.29-.22-.44Z" style="fill:#e0e0e0"/><path d="m435.31 262.79.22.27-2.12 1.24.44-1.66a4.2 4.2 0 0 0 1.46.15ZM426.89 250.59l-1.66-.46 2.13-1.24.14.38a4 4 0 0 0-.61 1.32ZM429.71 253.44a1.25 1.25 0 0 1 0-.19.3.3 0 0 1 0-.1 1.24 1.24 0 0 0 0-.16v-.1l.06-.14a.41.41 0 0 1 .05-.09l.06-.12.07-.08a.61.61 0 0 1 .07-.1l.07-.07.09-.08.08-.06a1.73 1.73 0 0 1 1.68-.05 2.34 2.34 0 0 0 0 .38v.3a.38.38 0 0 1 0 .1v.2a2.07 2.07 0 0 0 0 .22.8.8 0 0 0 0 .15v.14c0 .06 0 .13.05.19a.56.56 0 0 0 0 .12c0 .07 0 .14.07.22v.09l.12.3.13.26v.09l.13.24v.05a2.61 2.61 0 0 0 .17.28l.06.08.13.2.08.1.12.16.11.13.1.12.19.2a1.14 1.14 0 0 0 .11.11l.1.09.15.13a.39.39 0 0 0 .1.08 1.09 1.09 0 0 0 .17.13l.08.06.26.17.25.13h.07a1.75 1.75 0 0 1-.78 1.39l-.18.08H432.66l-.19-.06-.14-.06h-.06l-.25-.13a2.26 2.26 0 0 1-.26-.16l-.08-.06-.09-.06-.09-.07-.09-.08-.09-.08-.07-.06-.09-.08-.12-.12-.18-.19-.1-.12-.11-.13a1 1 0 0 0-.13-.16l-.07-.11-.14-.19a.56.56 0 0 0 0-.08c-.06-.1-.12-.19-.17-.29v-.05l-.14-.24a.2.2 0 0 0 0-.08l-.12-.27-.12-.3v-.09c0-.07-.05-.15-.08-.22v-.11a1.46 1.46 0 0 1-.05-.2.74.74 0 0 1 0-.14v-1.28c0-.1.07-.04.08-.08ZM439.1 260.61l.53.14.23-.13.72 1.84-2.36 1.37-.87-2.21 1.75-1.01z" style="opacity:.2"/><path d="m438 260.3 1.14.31-1.75 1a3.74 3.74 0 0 0 .61-1.31ZM431 248.24a4.24 4.24 0 0 0-1-.15h-.48l1.77-1ZM437.91 256.7c0-.13-.06-.27-.1-.41l-.06-.2a9.23 9.23 0 0 0-.38-1.12l2.37-1.38a.3.3 0 0 0 0 .1l.06.18.11.3a.14.14 0 0 0 0 .06.83.83 0 0 1 0 .15c0 .11.08.22.11.33V254.92c0 .04.07.27.1.41a.53.53 0 0 1 0 .12.94.94 0 0 1 0 .16L438 257c0-.11-.07-.2-.09-.3ZM439.63 258.45l2.37-1.38-.01 2.31-2.13 1.24-.23.13v-2.3zM433.45 247.74l2.37-1.37.43 2.16-2.36 1.38-.44-2.17z" style="opacity:.2"/><path style="opacity:.2" d="m438.25 253.75 2.36-1.37-.87 1.21-2.37 1.38.88-1.22zM435.34 251.44l2.36-1.37 1.49-.14-2.36 1.38-1.49.13z"/><path style="fill:#fff;opacity:.2" d="m431.32 247.07-1.77 1.03-1.49-1.86 2.37-1.37 1.26 1.57-.24.15-.13.48zM435.34 251.44c-.2-.25-.41-.49-.62-.72l-.06-.07-.24-.24-.1-.1-.43-.4 2.36-1.38c.15.13.29.27.43.41.07.07.13.14.2.2l.1.11.33.36.34.42ZM437.97 256.98l2.37-1.37 1.66 1.46-2.37 1.38-1.66-1.47z"/><path style="fill:#fff;opacity:.2" d="m431.45 246.59.24-.15 2.12-1.23 2.01 1.16-2.37 1.37-2-1.15zM436.83 251.31l2.36-1.38 1.42 2.45-2.36 1.37-1.42-2.44z"/><path d="M360.55 298c-7 4.85-14.85 8.21-20.69 14.71-10.89 12.15-11.15 31.69-2.59 45.59s24.48 22.24 40.68 24.15c17 2 34.85-2.69 48.19-13.42S448 341.5 448 324.37s-8.77-34.17-23.11-43.52c-13.09-8.53-31.89-11-45-1.2-6.63 4.93-11.06 12.22-17.68 17.17Z" style="fill:#455a64"/><path d="M360.55 298c-7 4.85-14.85 8.21-20.69 14.71-10.89 12.15-11.15 31.69-2.59 45.59s24.48 22.24 40.68 24.15c17 2 34.85-2.69 48.19-13.42S448 341.5 448 324.37s-8.77-34.17-23.11-43.52c-13.09-8.53-31.89-11-45-1.2-6.63 4.93-11.06 12.22-17.68 17.17Z" style="fill:#fff;opacity:.30000000000000004"/><path d="M363.4 369.15c0-.12 0-.23.05-.35a18.38 18.38 0 0 1 14.9-15.32 58.22 58.22 0 0 0 19.08-7.31c4.17-2.52 8.12-5.61 12.79-7A20.86 20.86 0 0 1 424 340a16 16 0 0 0-16-4.09c3.73-5.71 7-11.86 8.29-18.55s.38-14.05-3.66-19.54a19.65 19.65 0 0 0-30.35-1.62c-4 4.37-6.25 10.53-8.88 15.84-1.88 3.82-3.83 7.72-6.94 10.63-4.69 4.39-11.44 6-16.3 10.17-5.52 4.75-7.9 12.36-7.92 19.65a57.94 57.94 0 0 0 2.08 14.51 55.44 55.44 0 0 0 19.95 12.2 21.58 21.58 0 0 1-.87-10.05Z" style="opacity:.1"/><path d="M438.84 322a50 50 0 0 0-42.63-48.51 35.39 35.39 0 0 0-4.82.81 48.7 48.7 0 0 1 46.13 47.73c.31 15.93-7.48 32.18-20.85 43.45-10.48 8.83-24.4 14.69-39.69 16.8l1 .12c1.38.16 2.76.28 4.14.35 13.59-2.63 25.9-8.23 35.43-16.27 13.64-11.48 21.61-28.13 21.29-44.48Z" style="fill:#fff"/><path d="M345.59 363.82a48.92 48.92 0 0 1 .85 7.95l1.89-.71a4.86 4.86 0 0 1 5.24 1.2l.09.09a1.89 1.89 0 0 0 2.62.12 1.87 1.87 0 0 0 .65-1.37l.26-8Z" style="fill:#ffa8a7"/><path d="M352.87 393.66c-3.91 4.19-11.12 7.85-16.36 4.28l.59 1.33c5.24 3.57 12.45-.09 16.36-4.28s1.37-7.08 4.9-10.8a12.83 12.83 0 0 0 3-4.52c-.15-.4-.3-.92-.49-1.52a15.94 15.94 0 0 1-3.14 4.71c-3.48 3.71-.94 6.61-4.86 10.8Z" style="fill:#263238"/><path d="M359 373.77a7.56 7.56 0 0 1-1.23-2.85 1.67 1.67 0 0 0-.77-1.17l-.05 1.35a1.87 1.87 0 0 1-.65 1.37 1.89 1.89 0 0 1-2.62-.12l-.09-.09a4.86 4.86 0 0 0-5.24-1.2l-1.92.72a1.47 1.47 0 0 0-1 1.41c.12 5.5-2.44 12.79-5.13 16.79-2.77 1.15-5.16 4.92-3.94 7.68l.12.28c5.24 3.57 12.45-.09 16.36-4.28s1.38-7.09 4.9-10.8a15.94 15.94 0 0 0 3.14-4.71 17.21 17.21 0 0 0-1.88-4.38Z" style="fill:#37474f"/><path d="M351.32 381.7a.67.67 0 0 0 .62-1.19 7.66 7.66 0 0 0-7.52 0c-.12.44-.24.87-.37 1.29a7.37 7.37 0 0 1 7.27-.1ZM352.29 378.73a.66.66 0 0 0 .89-.3.67.67 0 0 0-.28-.89 8 8 0 0 0-7.82.07c-.08.44-.17.89-.27 1.34a7.46 7.46 0 0 1 7.48-.22ZM350.27 384.65a.66.66 0 0 0 .61-1.18 7.62 7.62 0 0 0-7.36-.08c-.16.47-.34.92-.52 1.37a7.37 7.37 0 0 1 7.27-.11ZM340.33 390c-2.77 1.15-5.16 4.92-3.94 7.68l.12.28c5.16 3.52 12.23 0 16.18-4.09-3.3-6.49-10.19-4.87-12.36-3.87ZM349.11 387.54a.68.68 0 0 0 .89-.3.67.67 0 0 0-.28-.89 7.64 7.64 0 0 0-7.37-.07c-.23.52-.48 1-.72 1.48a7.43 7.43 0 0 1 7.48-.22Z" style="fill:#fff"/><path d="M337.36 379.78a48.1 48.1 0 0 1-2.43 7.62l2 .11a4.89 4.89 0 0 1 4.32 3.21v.13a1.9 1.9 0 0 0 2.35 1.16 1.85 1.85 0 0 0 1.15-1l3.47-7.24Z" style="fill:#ffa8a7"/><path d="M332 410c-5.27 2.25-13.34 2.69-16.69-2.7v1.46c3.35 5.38 11.42 4.94 16.69 2.69s4.12-5.93 8.84-7.91a12.72 12.72 0 0 0 4.61-2.91c0-.42.09-1 .17-1.58a16.29 16.29 0 0 1-4.78 3c-4.74 2.05-3.59 5.72-8.84 7.95Z" style="fill:#263238"/><path d="M345.6 394.29a7.66 7.66 0 0 1 0-3.1 1.64 1.64 0 0 0-.24-1.38l-.56 1.19a1.9 1.9 0 0 1-3.5-.17v-.13a4.89 4.89 0 0 0-4.32-3.21l-2-.11a1.47 1.47 0 0 0-1.44.91c-2.11 5.07-7.4 10.71-11.47 13.29-3-.07-6.7 2.41-6.7 5.43v.3c3.35 5.39 11.42 4.95 16.69 2.7s4.12-5.93 8.84-7.91a16.29 16.29 0 0 0 4.78-3 17.67 17.67 0 0 0-.08-4.81Z" style="fill:#37474f"/><path d="M335.39 398.46a.67.67 0 0 0 .94.08.66.66 0 0 0 .1-.92 7.64 7.64 0 0 0-6.88-3c-.28.35-.57.7-.86 1a7.37 7.37 0 0 1 6.7 2.84ZM337.47 396.13a.67.67 0 0 0 .94.08.66.66 0 0 0 .1-.92 8 8 0 0 0-7.18-3.1c-.25.38-.52.75-.79 1.12a7.44 7.44 0 0 1 6.93 2.82ZM333.23 400.73a.67.67 0 0 0 1-.84 7.62 7.62 0 0 0-6.7-3c-.34.35-.68.7-1 1a7.36 7.36 0 0 1 6.7 2.84ZM322 401.6c-3-.07-6.7 2.41-6.7 5.43v.3c3.3 5.31 11.18 4.95 16.45 2.79-.42-7.24-7.37-8.55-9.75-8.52ZM331 402.9a.67.67 0 0 0 1-.83 7.62 7.62 0 0 0-6.72-3c-.42.37-.84.73-1.25 1.06a7.45 7.45 0 0 1 6.97 2.77Z" style="fill:#fff"/><path d="m368.33 311.21-26.39 14.71a13.09 13.09 0 0 0-6.49 13.81l5.12 27.58-4.2 13.34c3.63 4.86 11.95 5.11 11.95 5.11 4.64-9.31 8-13.26 10.68-21.06s4.39-13.18 4.39-13.18l21.91-6a26 26 0 0 0 19-22.09c.37-3.32.39-5.58.39-5.58Z" style="fill:#455a64"/><path d="M368.53 318.63a12.47 12.47 0 0 0 3 8l-18.62 11.65a13.42 13.42 0 0 0-5.7 7.44l-6.59 21.55 5.95-24a10.85 10.85 0 0 1 4.84-6.64L368.55 326c-1.76-4.35-.02-7.37-.02-7.37Z" style="opacity:.2"/><path d="m348.63 282.7-3.7 3.58c-3.79-4.84-8.88-8.12-13.33-14.91-1.29-1.62-1.15-4.86-2-6.51-.69-1.3-1.88-3.25-2.38-4.33a.72.72 0 0 0-1.06-.32c-1.27.92-.6 3.11.06 5.43.78 2.7-3.3-1-3.85-1.59-2.59-2.41-4.82-8.32-6.59-7.73s-.36 3.53-.36 3.53c-1.63.35-1 2.94-1 2.94-1 1.7-.69 4.31 1.28 6.75 1.44 1.76 5.32 4.18 7.33 5.38a6.41 6.41 0 0 1 2.1 2l12.68 18.83a7.68 7.68 0 0 0 11 1.87l6.89-5.15Z" style="fill:#ffa8a7"/><path d="M370.08 266.07c-7-.31-16.55 11.08-21.92 16.45.41 6.56 7.48 10.88 7.48 10.88a154.16 154.16 0 0 0 14.44-11.29Z" style="fill:#b2299f"/><path d="M370.08 266.07c-7-.31-16.55 11.08-21.92 16.45.41 6.56 7.48 10.88 7.48 10.88a154.16 154.16 0 0 0 14.44-11.29Z" style="opacity:.5"/><path d="M405.1 319.92c-4.68 4.5-27.16 5.32-38.63-5.6 1.1-7.71.73-16 0-24.13s-5.51-22.46 3.61-24.12c12.17-2.38 20.13-2.19 28.26 2.4 8.66 14.47 7.5 36.12 6.76 51.45Z" style="fill:#b2299f"/><path d="M405.1 319.92c-4.68 4.5-27.16 5.32-38.63-5.6 1.1-7.71.73-16 0-24.13s-5.51-22.46 3.61-24.12c12.17-2.38 20.13-2.19 28.26 2.4 8.66 14.47 7.5 36.12 6.76 51.45Z" style="fill:#b2299f"/><path d="M405.1 319.92c-4.68 4.5-27.16 5.32-38.63-5.6 1.1-7.71.73-16 0-24.13s-5.51-22.46 3.61-24.12c12.17-2.38 20.13-2.19 28.26 2.4 8.66 14.47 7.5 36.12 6.76 51.45Z" style="opacity:.30000000000000004"/><path d="M392.52 247.68a3.32 3.32 0 0 0-1.63-1.71 2.5 2.5 0 0 0-.48-.18 3 3 0 0 0-2.71.91 5.24 5.24 0 0 0-1.32 2.62 22.52 22.52 0 0 0-.33 3 35.28 35.28 0 0 1-.81 5.21 6.63 6.63 0 0 1-3.38 4.41l-.11.06a20.55 20.55 0 0 1-7.88 2.1v3c-2.17 2.95-2.78 8.61 2.95 6.92s9.45-5.5 9.45-9.25c0-1.58.08-3.61.12-5.42.05-2.45.1-4.49.1-4.49a3.22 3.22 0 0 0 2.09 1.09 2.69 2.69 0 0 0 1.1-.06 4.11 4.11 0 0 0 2.45-2.09 7.72 7.72 0 0 0 .78-3.18 6.43 6.43 0 0 0-.39-2.94Z" style="fill:#ffa8a7"/><path d="M390.66 237.34a7.06 7.06 0 0 0-4.5-2.39l-23.52 2.18c-2.72 5.75-.55 9.55-.55 9.55-.37 8.77-.67 14.34 3.19 16.18a18 18 0 0 0 8.59 1.2 20.55 20.55 0 0 0 7.88-2.1l.12-.06a6.66 6.66 0 0 0 3.37-4.43 35 35 0 0 0 .81-5.19 22.52 22.52 0 0 1 .33-3 5.24 5.24 0 0 1 1.32-2.62 3 3 0 0 1 2.71-.91 2.5 2.5 0 0 1 .48.18c.67-3.85.87-7.23-.23-8.59Z" style="fill:#37474f"/><path d="M382.05 238a8.07 8.07 0 0 0 .31 4.92 35.82 35.82 0 0 1 1.49 4.79 7.79 7.79 0 0 1-.64 4.83 5.69 5.69 0 0 1-3.75 3c-2.53.54-5-.93-7.53-1.43a10.54 10.54 0 0 0-7.08 1.26 1.23 1.23 0 0 1-1.85-1c-.3-5-.3-12.95.45-16.67Z" style="fill:#ffa8a7"/><path d="m363.85 233.44-2.93-2a6.21 6.21 0 0 0 1.12 5.75 9.33 9.33 0 0 0 5.15 3 19.6 19.6 0 0 0 6.07.27 44.91 44.91 0 0 0 8.75-1.59 7.12 7.12 0 0 0 3.44-1.81 4.56 4.56 0 0 0 .18-5.36 6.82 6.82 0 0 0-4.84-2.8 18.47 18.47 0 0 0-5.82.46 17.61 17.61 0 0 1-5.82.42 6.08 6.08 0 0 1-4.69-3.11c-1.65 2.68-.61 6.77-.61 6.77Z" style="fill:#37474f"/><path style="fill:#f28f8f" d="m371.23 246.96-4.29 5.19 3.93 1.39.36-6.58zM374.47 256.12l-3.31 1a2 2 0 0 0 2.23 1 1.85 1.85 0 0 0 1.08-2Z"/><path d="m374.47 256.12-3.31 1a2 2 0 0 0 2.23 1 1.85 1.85 0 0 0 1.08-2Z" style="opacity:.30000000000000004"/><path d="M372.31 258.1a1.91 1.91 0 0 0 1.08.07 1.66 1.66 0 0 0 1.08-1.5 2 2 0 0 0-1.28.23 2 2 0 0 0-.88 1.2Z" style="fill:#f28f8f"/><path d="M377.06 248.09a1.18 1.18 0 1 1-1.11-1.24 1.18 1.18 0 0 1 1.11 1.24ZM367.2 247.18a1.18 1.18 0 1 1-1.11-1.24 1.18 1.18 0 0 1 1.11 1.24ZM366.31 242.44l-2.71 1.66a1.7 1.7 0 0 1 .61-1.82 2 2 0 0 1 2.1.16ZM376.39 242.84l2.51 1.94a1.65 1.65 0 0 0-.41-1.87 2 2 0 0 0-2.1-.07Z" style="fill:#263238"/><path d="M383.33 261.8a7.39 7.39 0 0 0 1.37-2.8 6.59 6.59 0 0 1-2.84 2.95l-.11.06a20.55 20.55 0 0 1-7.88 2.1v2a19.85 19.85 0 0 0 4.65-1 10.51 10.51 0 0 0 4.81-3.31Z" style="opacity:.2"/><path d="M387 329.61a1 1 0 0 1 0 .35 1.16 1.16 0 0 1-.14.27 1.45 1.45 0 0 1-.24.26 2.53 2.53 0 0 1-.36.25l-19.31 11.23a4.56 4.56 0 0 1-.55.24l-.22.06-.28.07a2 2 0 0 1-.34.06H364.93a3.71 3.71 0 0 1-.47 0h-.07l-.45-.08h-.08a2.91 2.91 0 0 1-.39-.12h-.07l-.43-.2L331 323.65a2.07 2.07 0 0 1-.36-.25l-.1-.1a1.46 1.46 0 0 1-.16-.19s0-.08-.07-.12a1.51 1.51 0 0 1-.09-.18s0-.09 0-.13a1.13 1.13 0 0 1 0-.18v1.13a1.13 1.13 0 0 0 0 .18v.13a1.51 1.51 0 0 0 .09.18s0 .08.07.12a1.46 1.46 0 0 0 .16.19l.1.1a2.07 2.07 0 0 0 .36.25l31.85 18.4.43.2h.07a2.91 2.91 0 0 0 .39.12h.08l.45.08h.07a3.71 3.71 0 0 0 .47 0h.63a2 2 0 0 0 .34-.06l.28-.07.22-.06a4.56 4.56 0 0 0 .55-.24L386.15 332a2.53 2.53 0 0 0 .36-.25 1.45 1.45 0 0 0 .24-.26 1.16 1.16 0 0 0 .14-.27 1.06 1.06 0 0 0 0-.25v-1.22Z" style="fill:#e0e0e0"/><path d="M387 329.61a1 1 0 0 1 0 .35 1.16 1.16 0 0 1-.14.27 1.45 1.45 0 0 1-.24.26 2.53 2.53 0 0 1-.36.25l-19.31 11.23a4.56 4.56 0 0 1-.55.24l-.22.06-.28.07a2 2 0 0 1-.34.06H364.93a3.71 3.71 0 0 1-.47 0h-.07l-.45-.08h-.08a2.91 2.91 0 0 1-.39-.12h-.07l-.43-.2L331 323.65a2.07 2.07 0 0 1-.36-.25l-.1-.1a1.46 1.46 0 0 1-.16-.19s0-.08-.07-.12a1.51 1.51 0 0 1-.09-.18s0-.09 0-.13a1.13 1.13 0 0 1 0-.18v1.13a1.13 1.13 0 0 0 0 .18v.13a1.51 1.51 0 0 0 .09.18s0 .08.07.12a1.46 1.46 0 0 0 .16.19l.1.1a2.07 2.07 0 0 0 .36.25l31.85 18.4.43.2h.07a2.91 2.91 0 0 0 .39.12h.08l.45.08h.07a3.71 3.71 0 0 0 .47 0h.63a2 2 0 0 0 .34-.06l.28-.07.22-.06a4.56 4.56 0 0 0 .55-.24L386.15 332a2.53 2.53 0 0 0 .36-.25 1.45 1.45 0 0 0 .24-.26 1.16 1.16 0 0 0 .14-.27 1.06 1.06 0 0 0 0-.25v-1.22Z" style="opacity:.2"/><path d="M330.23 322.81a1.51 1.51 0 0 0 .09.18s0 .08.07.12a1.46 1.46 0 0 0 .16.19l.1.1a2.07 2.07 0 0 0 .36.25l31.85 18.4.43.2h.07a2.91 2.91 0 0 0 .39.12h.08l.45.08h.07a3.71 3.71 0 0 0 .47 0h.63a2 2 0 0 0 .34-.06l.28-.07.22-.06a4.56 4.56 0 0 0 .55-.24l19.31-11.23a2.53 2.53 0 0 0 .36-.25 1.45 1.45 0 0 0 .24-.26 1.16 1.16 0 0 0 .14-.27 1 1 0 0 0 0-.35 1.47 1.47 0 0 0-.82-1.09l-31.86-18.39a4.38 4.38 0 0 0-4 0L331 321.35a1.4 1.4 0 0 0-.82 1.15 1.13 1.13 0 0 0 0 .18s.04.09.05.13Z" style="fill:#e0e0e0"/><path d="m332.88 322.5 31 17.87.12.06h.06l.25.07h.61a1.89 1.89 0 0 0 .32 0h.2l.25-.07a1.45 1.45 0 0 0 .22-.09l9.95-5.79-32-18.46Z" style="fill:#e0e0e0"/><path d="M364.89 340.58Z" style="fill:#263238"/><path d="m362.33 317.58-5.82 3.42a.59.59 0 0 0 0 1l8.71 5a.94.94 0 0 0 1 0l5.82-3.42a.59.59 0 0 0 0-1l-8.71-5a1 1 0 0 0-1 0Z" style="fill:#e0e0e0"/><path d="m332.88 322.5 31 17.87.12.06h.06l.25.07h.61a1.89 1.89 0 0 0 .32 0h.2l.25-.07a1.45 1.45 0 0 0 .22-.09l9.95-5.79-32-18.46ZM362.33 317.58l-5.82 3.42a.59.59 0 0 0 0 1l8.71 5a.94.94 0 0 0 1 0l5.82-3.42a.59.59 0 0 0 0-1l-8.71-5a1 1 0 0 0-1 0Z" style="opacity:.4"/><path d="m364.66 340.9-3.3-21a3.88 3.88 0 0 0-1.88-2.75l-32.07-18.65a1 1 0 0 0-.86 0l-.76.38.26.09a1 1 0 0 0-.09.57l3.3 21a3.88 3.88 0 0 0 1.88 2.75l32.08 18.65a.9.9 0 0 0 .21.08v.31l.74-.36a1 1 0 0 0 .49-1.07Z" style="fill:#e0e0e0"/><path d="m364.66 340.9-3.3-21a3.88 3.88 0 0 0-1.88-2.75l-32.07-18.65a1 1 0 0 0-.86 0l-.76.38.26.09a1 1 0 0 0-.09.57l3.3 21a3.88 3.88 0 0 0 1.88 2.75l32.08 18.65a.9.9 0 0 0 .21.08v.31l.74-.36a1 1 0 0 0 .49-1.07Z" style="opacity:.30000000000000004"/><path d="m358.84 317.51-32.08-18.65a1 1 0 0 0-1.44 1l3.3 21a3.86 3.86 0 0 0 1.87 2.74l32.08 18.65a1 1 0 0 0 1.45-1l-3.3-21a3.84 3.84 0 0 0-1.88-2.74Z" style="fill:#e0e0e0"/><path d="M343.29 318.05a7.09 7.09 0 0 1 3.19 4.59c.2 1.63-.88 2.24-2.43 1.34a7.09 7.09 0 0 1-3.18-4.58c-.21-1.64.88-2.24 2.42-1.35Z" style="fill:#fff"/><path d="m396.93 294.39 2.89 9.92-17.7 12.57-5.95 2.51a9.25 9.25 0 0 0-3.94 3.14l-4.86 6.71c-.54 1.13 2 3 3.2 3.27a4.36 4.36 0 0 0 4-1l3.74-3.44 1-.36a15.7 15.7 0 0 0 7.52-5.65l20.82-8.06a8 8 0 0 0 4.8-9.47L409 291.74Z" style="fill:#ffa8a7"/><path d="m392 281.08 5.13 15.35c8.35.57 12.24-2.24 13.39-4.72-4.38-19.93-7.27-23.24-13-23.66S392 281.08 392 281.08Z" style="fill:#b2299f"/><path d="m392 281.08 5.13 15.35c8.35.57 12.24-2.24 13.39-4.72-4.38-19.93-7.27-23.24-13-23.66S392 281.08 392 281.08Z" style="opacity:.5"/><path d="M326 307.27h-.09l.08.07Z" style="fill:#455a64"/><path d="M195 436.27c-.61 1.28-2.55 2.47-4.67 2.82a21.28 21.28 0 0 1-6.4-.41 42.46 42.46 0 0 0-9.56-.24 51.58 51.58 0 0 1-5.95.42 9.46 9.46 0 0 1-5.59-1.77 5.75 5.75 0 0 1-2.1-3.57 5.39 5.39 0 0 0 2.1 4.81 9.47 9.47 0 0 0 5.59 1.78 51.59 51.59 0 0 0 5.95-.43 41.88 41.88 0 0 1 9.56.25c2.13.29 4.43.9 6.55.55s4.06-1.53 4.67-2.81Z" style="fill:#263238"/><path d="M171.78 432.49c1.78 0 1.13-2.64 2.82-4.4-.69 0-1.38.05-2.07 0-1.53 2.24-1.96 4.4-.75 4.4ZM175.48 432.35c1.8 0 1.33-3.14 3.09-5-.4.14-.81.26-1.22.36l-1.06.19c-1.57 2.24-2.03 4.45-.81 4.45Z" style="fill:#fff"/><path d="M193.14 426.32a2.52 2.52 0 0 0-.93-1.45l-9.64-.24a8.18 8.18 0 0 1-4 2.74c-1.76 1.84-1.29 5-3.09 5-1.22 0-.76-2.21.81-4.43-.56.08-1.12.13-1.69.17-1.69 1.76-1 4.4-2.82 4.4-1.21 0-.78-2.16.75-4.36h-1.35c-.41 0-.82 0-1.24-.07-3.54 2.81-3.84 5.85-3.38 10.62a12.76 12.76 0 0 0 1.84.19 51.58 51.58 0 0 0 5.95-.42 42.46 42.46 0 0 1 9.56.24 21.28 21.28 0 0 0 6.4.41c2.12-.35 4.06-1.54 4.67-2.82Z" style="fill:#455a64"/><path d="M169.94 428.05a15.22 15.22 0 0 0-4.81 0 5.74 5.74 0 0 0-4.34 3.78 4.2 4.2 0 0 0-.08 1.69 5.75 5.75 0 0 0 2.1 3.57 8.35 8.35 0 0 0 3.75 1.58c-.46-4.77-.16-7.81 3.38-10.62Z" style="fill:#fff"/><path d="M182.3 421.89v4.64a1.91 1.91 0 0 0 1.9 1.91h4.86a3.13 3.13 0 0 0 3.13-3l.12-3.52Z" style="fill:#995c5c"/><path d="M214.41 419.82a3.59 3.59 0 0 1-2.92 2.05 6.16 6.16 0 0 1-3.7-.91c-1.67-1.06-2.33-2.74-3.47-4.24a25 25 0 0 0-4-3.94 13.27 13.27 0 0 1-3.85-4.46 5.7 5.7 0 0 1-.45-1.64 5.84 5.84 0 0 0 .45 3.14 13.4 13.4 0 0 0 3.85 4.47 25 25 0 0 1 4 3.93c1.14 1.51 1.8 3.18 3.47 4.24a6.16 6.16 0 0 0 3.7.91 3.55 3.55 0 0 0 2.92-2.05 8 8 0 0 0 .18-2.58 3.38 3.38 0 0 1-.18 1.08Z" style="fill:#263238"/><path d="M203.46 409.63a1.16 1.16 0 0 0-.23.79.81.81 0 0 0 .52.6 1.17 1.17 0 0 0 1.09-.28 5.8 5.8 0 0 0 .75-.89 5.66 5.66 0 0 1 2.48-1.81 5.3 5.3 0 0 1 1.48-.33l-1.2-1.1a6.19 6.19 0 0 0-2.2.54 6.09 6.09 0 0 0-2.69 2.48Z" style="fill:#fff"/><path d="M203.72 405.8a6 6 0 0 0-2.69 2.48 1.16 1.16 0 0 0-.23.79.81.81 0 0 0 .52.6 1.17 1.17 0 0 0 1.09-.28 5.43 5.43 0 0 0 .75-.9 5.66 5.66 0 0 1 4.91-2.13l-1.19-1.08a6 6 0 0 0-3.16.52Z" style="fill:#fff"/><path d="M206.12 404.59a12.73 12.73 0 0 0-3.78-2.53 5 5 0 0 0-5.2.72 4.47 4.47 0 0 0-1.15 3.9 5.7 5.7 0 0 0 .45 1.64 8.29 8.29 0 0 0 1.2 1.89c.46-4.15 4.06-6.09 8.48-5.62Z" style="fill:#fff"/><path d="M214.51 415.75a8.67 8.67 0 0 0-.95-4.06l-2.34-2.46-1.67-1.52a5.3 5.3 0 0 0-1.48.33 5.66 5.66 0 0 0-2.48 1.81 5.8 5.8 0 0 1-.75.89 1.17 1.17 0 0 1-1.09.28.81.81 0 0 1-.52-.6 1.16 1.16 0 0 1 .23-.79 6.09 6.09 0 0 1 2.69-2.48 6.19 6.19 0 0 1 2.2-.54l-.28-.25a5.66 5.66 0 0 0-4.91 2.13 5.43 5.43 0 0 1-.75.9 1.17 1.17 0 0 1-1.09.28.81.81 0 0 1-.52-.6 1.16 1.16 0 0 1 .23-.79 6 6 0 0 1 5.85-3l-.72-.65c-4.42-.47-8 1.47-8.48 5.62a19.52 19.52 0 0 0 2.65 2.57 25 25 0 0 1 4 3.94c1.14 1.5 1.8 3.18 3.47 4.24a6.16 6.16 0 0 0 3.7.91 3.59 3.59 0 0 0 2.92-2.05 3.38 3.38 0 0 0 .18-1.08 29.63 29.63 0 0 0-.09-3.03Z" style="fill:#455a64"/><path d="m206.05 408.41.28 5c3.14 1.82 6.45.83 7.55-.32l.21-4.66ZM212.25 300.7a4.42 4.42 0 0 1-.48-1.71l-.27-4.28-30.47 2c-.4 2.14-.81 4.75-1.21 7.72a45.35 45.35 0 0 0 32.43-3.73Z" style="fill:#995c5c"/><path d="m211.65 283.45 6.49 12.55-5.89 9.87 6.52 10.31 9.84-15.28a8.61 8.61 0 0 0 1-7.06 120.67 120.67 0 0 0-6.4-17.41Z" style="fill:#995c5c"/><path d="M206.49 259.22c7.47-1.39 11.74 1.1 18.06 18C222 283 211 285.14 211 285.14Z" style="fill:#ebebeb"/><path d="m192.5 261.21-8.15 1.6c-1.8 3.3-3.64 6.4-5.44 9.7-1.36 2.48-2.76 5.12-2.65 7.95a8.11 8.11 0 0 0 4.88 7l-.94 11.13c12.81 3.92 28.46.48 31.9-2.49 1-4.66 1.9-9.62 2.91-14.29a47.79 47.79 0 0 0 1.38-9.19 16.16 16.16 0 0 0-2.15-8.92l-.05-.08a10 10 0 0 0-10-4.3Z" style="fill:#fff"/><path d="M212.72 301.48a4.15 4.15 0 0 1-.47-.78 45.35 45.35 0 0 1-32.43 3.69c-2.3 17.09-4.27 46-3.06 65.14 1 22.23 5.1 53.72 5.1 53.72 5.33 1.6 9.34.62 10.85-.54 1.78-22 5.69-37.17 2.67-51.76 2-10.19 3.32-23 3.32-23l1.54 22.53 5.22 39.6a9.35 9.35 0 0 0 9.36-.47c3.8-22.65 5.22-38 1.9-49.23 5.07-37.17 5.28-46.68-4-58.9Z" style="fill:#455a64"/><path d="m200.94 343.5 2.8-11.73c3.26-.54 8.36-2.67 11-7.15a22.43 22.43 0 0 1-13.52 4.77L198.7 348l.54 7.93.22-2.88a61 61 0 0 1 1.48-9.55Z" style="opacity:.30000000000000004"/><path d="m131.84 247.78 8.21 21.22a8.49 8.49 0 0 0 6.45 5.29l14 2.45a12.61 12.61 0 0 0 3.1-5.84 12.76 12.76 0 0 0-.61-7.33 66.14 66.14 0 0 1-12.64-1.39s-8.87-10.78-12.57-16.34l2.64-8.75a3 3 0 0 0-.27-2.38l-1.42-2.46a3 3 0 0 0-1.64-1.36l-2.05-.69a3.62 3.62 0 0 0-2.83.21l-3.12 1.63a1.21 1.21 0 0 0-.64 1.08 1.22 1.22 0 0 0 .65 1.05l1.17.6 1.61 2.74a8.63 8.63 0 0 0-.04 10.27Z" style="fill:#995c5c"/><path d="M183.08 262.67c-5.05.23-12.63 1.07-20.06.92a12.76 12.76 0 0 1 .61 7.33 12.61 12.61 0 0 1-3.1 5.84l17.52 3.07a7.54 7.54 0 0 0 8.46-5.55c.54-2.22 1.13-4.08 1.46-6.24a4.69 4.69 0 0 0-4.89-5.37Z" style="fill:#ebebeb"/><path d="M182.57 239.29a14.19 14.19 0 0 1-1.6-7.51 8.12 8.12 0 0 1 3.94-6.35 5.74 5.74 0 0 1 7.05 1.24 13.1 13.1 0 0 1 19.35 12.54c-.18 2.7-1.17 5.35-.86 8 .17 1.58.8 3.18.38 4.72a4.88 4.88 0 0 1-2.56 2.9c-1.18.61-3.94.45-5.24.72-4 3.62-9 2.26-12.14-1s-8.32-15.26-8.32-15.26Z" style="fill:#37474f"/><path style="fill:#804040" d="m181.75 242.88-2.49 4.32 2.72 1-.23-5.32z"/><path style="opacity:.30000000000000004" d="m181.98 248.2-.24-5.32"/><path d="M181.46 241c.4-3.79 1.51-7.36 4-9.17a20.45 20.45 0 0 0 2.83 13.55 6 6 0 0 1 1.84-3.25 3.43 3.43 0 0 1 3.53-.75 3.5 3.5 0 0 1 1.77 1.93 4.59 4.59 0 0 1-5.75 6.07 8.84 8.84 0 0 0 6.79 6.88 11.34 11.34 0 0 0 6.58-.63l1 5.11c-4.15 4.43-11.25 1.45-11.25 1.45l-.94-5c-8.16.48-8.93.35-9.83-4.15a44.5 44.5 0 0 1-.57-12.04Z" style="fill:#995c5c"/><path d="M199.56 235.46a14.33 14.33 0 0 1 6.5-7.77 13.75 13.75 0 0 1 5.25 11.52c-.18 2.7-1.17 5.35-.86 8 .17 1.58.8 3.18.38 4.72a4.88 4.88 0 0 1-2.56 2.9c-1.18.61-3.94.45-5.24.72-.17.16-.34.29-.52.43a39.69 39.69 0 0 1-3.23-8.29 21.18 21.18 0 0 1 .28-12.23Z" style="opacity:.30000000000000004"/><path d="M201.82 232.63a10.41 10.41 0 0 1 19.85-.25c2.46 7.46-3.85 15.39-2.47 23.12.5 2.79 2 5.33 2.48 8.11a12 12 0 0 1-10.37 14.07c1.78-2 1.81-5 .8-7.42s-2.82-4.44-4.37-6.58c-6.27-8.6-9.01-20.87-5.92-31.05Z" style="fill:#37474f"/></svg>